<svg width="831" height="1150" viewBox="0 0 831 1150" fill="none" xmlns="http://www.w3.org/2000/svg">
<path d="M-1122.99 715.873L-1122.04 716.37C-1146.06 761.62 -1162.13 809.916 -1173.45 846.98L-1174.48 846.656L-1173.45 846.937L-1176.1 856.484L-1172.26 857.499C-1170.16 858.061 -1164.7 859.443 -1155.13 861.841C-1144.63 864.476 -1130.16 868.104 -1113.25 872.316L-1109.45 873.267L-1108.48 869.465C-1092.41 805.964 -1070.74 763.694 -1062.17 748.445L-1060.2 744.946L-1120.21 712.849L-1122.06 716.327L-1123.01 715.83L-1123.96 715.333L-1121.09 709.934L-1057.22 744.104L-1060.29 749.525C-1068.8 764.644 -1090.38 806.741 -1106.4 870.027L-1107.89 875.902L-1113.79 874.433C-1130.7 870.2 -1145.17 866.571 -1155.67 863.936C-1165.24 861.517 -1170.68 860.156 -1172.82 859.573L-1178.78 857.996L-1175.52 846.333C-1164.18 809.225 -1148.09 760.778 -1123.94 715.333L-1122.99 715.83V715.873ZM-299.976 883.677L-300.84 884.347L-324.469 853.871L-354.104 876.831L-331.144 906.443L-300.667 882.814L-299.998 883.677L-299.328 884.542L-331.511 909.489L-357.127 876.463L-324.081 850.847L-298.464 883.894L-299.328 884.563L-299.998 883.699L-299.976 883.677ZM-828.271 1145.27L-827.255 1144.88L-826.759 1146.15L-794.684 1133.23L-795.181 1131.98C-802.913 1112.5 -808.637 1092.43 -812.201 1072.35L-812.438 1071.07L-845.658 1075.69L-845.442 1077.06C-841.727 1100.71 -835.614 1123.51 -827.277 1144.88L-828.292 1145.27L-829.307 1145.65C-837.709 1124.14 -843.865 1101.18 -847.602 1077.38L-847.991 1074.94L-848.163 1073.86L-810.71 1068.65L-810.127 1071.98C-806.585 1091.92 -800.904 1111.83 -793.215 1131.18L-791.919 1134.42L-828.033 1148.96L-829.329 1145.65L-828.314 1145.27H-828.271ZM-685.651 1160.54L-686.342 1159.72L-660.855 1138.48L-661.654 1137.45C-669.819 1126.86 -675.823 1117.64 -680.554 1108.44L-681.158 1107.27L-706.365 1119.52L-705.825 1120.71C-700.36 1133 -693.751 1145.39 -686.191 1157.6L-684.722 1159.97L-685.63 1160.54L-686.558 1161.1L-688.027 1158.72C-695.63 1146.45 -702.282 1133.95 -707.79 1121.57L-709.172 1118.46L-680.186 1104.38L-678.61 1107.42C-673.966 1116.47 -668.026 1125.59 -659.926 1136.11L-657.853 1138.79L-685.889 1162.16L-686.537 1161.1L-685.608 1160.54H-685.651ZM-850.453 1047.68L-850.518 1046.6L-815.808 1044.29L-815.916 1042.93C-816.456 1035.78 -816.715 1028.61 -816.715 1021.46C-816.715 1010.98 -816.153 1000.57 -815.009 990.291L-813.929 990.421V991.501H-815.138L-815.009 990.291C-814.641 987.008 -814.209 983.703 -813.691 980.161L-813.497 978.865L-836.5 974.783C-840.668 974.048 -843.39 973.552 -844.167 973.422L-845.528 973.184L-845.744 974.545C-848.531 991.609 -849.934 1009.43 -849.934 1027.72C-849.934 1033.49 -849.805 1039.32 -849.524 1045.17L-849.395 1047.66L-850.474 1047.7L-851.554 1047.74L-851.684 1045.26C-851.965 1039.36 -852.094 1033.51 -852.094 1027.7C-852.094 1009.3 -850.69 991.371 -847.883 974.178L-847.494 971.737L-847.321 970.657L-843.8 971.284C-843.044 971.413 -840.323 971.91 -836.133 972.645L-811.078 977.094L-811.574 980.463C-812.093 983.963 -812.503 987.246 -812.87 990.507L-813.95 990.378V989.297H-812.741L-812.87 990.507C-813.993 1000.7 -814.577 1011.05 -814.577 1021.44C-814.577 1028.52 -814.317 1035.65 -813.777 1042.76L-813.605 1045.2L-813.518 1046.28L-851.511 1048.8L-851.554 1047.7L-850.474 1047.66L-850.453 1047.68ZM-570.765 858.579L-571.046 857.542C-556.898 853.719 -542.492 851.84 -528.15 851.84C-501.475 851.84 -475.037 858.385 -451.019 871.215L-449.853 871.841L-433.74 843.481L-434.949 842.833C-463.871 827.239 -495.751 819.29 -527.955 819.29C-545.235 819.29 -562.622 821.58 -579.707 826.202C-628.586 839.442 -669.948 870.437 -696.213 913.528L-696.948 914.715L-668.588 930.828L-667.896 929.727C-645.909 894.11 -611.501 868.493 -571.024 857.586L-570.743 858.622L-570.463 859.659C-610.421 870.437 -644.353 895.708 -666.061 930.85L-667.832 933.723L-699.928 915.472L-698.049 912.383C-671.504 868.839 -629.644 837.499 -580.247 824.107C-562.989 819.442 -545.408 817.109 -527.934 817.109C-495.362 817.109 -463.136 825.144 -433.891 840.911L-430.737 842.617L-448.989 874.714L-452.013 873.094C-475.707 860.437 -501.799 853.979 -528.128 853.979C-542.276 853.979 -556.488 855.836 -570.463 859.616L-570.743 858.579H-570.765ZM-344.751 753.046L-343.887 753.694L-370.454 789.246L-335.766 815.165L-309.847 780.477L-345.399 753.91L-344.751 753.046L-344.103 752.182L-306.823 780.045L-335.334 818.189L-373.478 789.678L-344.967 751.534L-344.103 752.182L-344.751 753.046ZM-843.887 859.508L-844.405 860.458L-896.481 832.595L-898.425 835.749C-901.578 840.846 -918.08 868.86 -930.413 914.305L-931.45 918.107L-927.648 919.143C-913.35 923.01 -900.887 926.055 -891.772 928.28C-885.487 929.813 -880.541 931.045 -877.236 931.952L-873.478 932.988L-872.398 929.23C-865.94 906.702 -857.386 884.52 -846.997 863.353L-844.859 859.011L-843.887 859.486L-842.915 859.962L-845.053 864.303C-855.399 885.362 -863.888 907.415 -870.324 929.835L-871.987 935.645L-877.819 934.025C-881.059 933.118 -886.005 931.908 -892.291 930.353C-901.405 928.129 -913.89 925.062 -928.21 921.195L-934.107 919.597L-932.508 913.7C-920.11 867.996 -903.5 839.81 -900.261 834.561L-897.258 829.68L-842.483 858.99L-842.936 859.918L-843.908 859.443L-843.887 859.508ZM-566.575 473.552L-566.488 474.632C-600.248 477.008 -633.986 482.689 -666.773 491.501C-712.607 503.791 -756.648 522.28 -797.729 546.406L-801.228 548.458L-764.25 607.381L-760.968 605.458C-725.566 584.831 -687.638 569.021 -648.241 558.502C-620.486 551.093 -591.932 546.255 -563.378 544.138L-559.577 543.858L-562.449 474.351L-566.488 474.632L-566.575 473.552L-566.661 472.472L-560.397 472.04L-557.33 545.866L-563.205 546.298C-591.63 548.415 -620.054 553.21 -647.68 560.597C-686.882 571.073 -724.638 586.797 -759.866 607.338L-764.963 610.318L-804.231 547.745L-798.831 544.549C-757.598 520.314 -713.363 501.761 -667.357 489.406C-634.418 480.572 -600.55 474.87 -566.661 472.472L-566.575 473.552ZM-834.685 568.977L-834.059 569.863C-893.263 611.614 -942.336 664.208 -979.962 726.198L-980.89 725.636L-979.854 725.982L-979.897 726.111L-979.962 726.219C-980.286 726.738 -981.344 728.574 -982.338 730.302C-982.878 731.252 -983.417 732.159 -983.806 732.85L-985.815 736.285L-925.359 770.649L-923.393 767.323C-922.983 766.631 -922.443 765.681 -921.881 764.731L-921.644 764.32C-920.693 762.679 -919.743 761.059 -919.397 760.476C-887.517 708.487 -846.219 664.122 -796.649 628.591L-793.647 626.431L-830.646 567.444L-834.037 569.841L-834.664 568.956L-835.29 568.07L-830.042 564.355L-790.731 626.993L-795.396 630.341C-844.729 665.699 -885.832 709.847 -917.562 761.599C-917.885 762.117 -918.836 763.759 -919.786 765.4L-920.024 765.811C-920.585 766.761 -921.125 767.711 -921.536 768.403L-924.581 773.565L-988.796 737.062L-985.685 731.749C-985.297 731.058 -984.757 730.151 -984.217 729.222C-983.201 727.472 -982.165 725.658 -981.798 725.075L-980.869 725.636L-981.906 725.291L-981.862 725.161L-981.798 725.053C-944.021 662.826 -894.731 609.994 -835.29 568.07L-834.664 568.956L-834.685 568.977ZM-918.728 1176.22L-917.713 1175.87L-916.352 1179.78L-862.052 1157.92L-863.369 1154.34C-872.074 1130.6 -877.992 1107.88 -880.929 1086.82L-881.469 1082.93L-939.074 1090.94L-938.426 1094.94C-933.977 1121.79 -927 1149.02 -917.713 1175.87L-918.728 1176.22L-919.743 1176.56C-929.074 1149.61 -936.072 1122.24 -940.543 1095.26L-941.558 1089.09L-879.633 1080.47L-878.791 1086.49C-875.875 1107.38 -870 1129.95 -861.339 1153.58L-859.287 1159.13L-917.648 1182.61L-919.743 1176.56L-918.728 1176.22ZM-944.604 1052.02L-944.669 1050.94L-885.508 1046.99L-885.66 1043.17C-885.897 1036.95 -886.027 1030.98 -886.027 1025.24C-886.027 1005.43 -884.58 988.347 -881.599 972.472L-880.865 968.605L-884.731 967.893C-889.807 966.942 -906.481 963.94 -935.662 958.735L-939.658 958.022L-940.241 962.039C-943.092 981.716 -944.517 1001.83 -944.517 1022.06C-944.517 1030.31 -944.28 1038.61 -943.805 1046.88L-943.524 1051.94L-944.604 1052L-945.684 1052.06L-945.964 1047.01C-946.44 1038.69 -946.677 1030.36 -946.677 1022.06C-946.677 1001.72 -945.252 981.5 -942.379 961.737L-941.472 955.495L-935.273 956.596C-906.092 961.802 -889.439 964.782 -884.32 965.754L-878.337 966.878L-879.461 972.861C-882.42 988.585 -883.845 1005.54 -883.845 1025.24C-883.845 1030.94 -883.716 1036.88 -883.478 1043.08L-883.24 1049L-945.576 1053.17L-945.64 1052.09L-944.56 1052.02H-944.604ZM-727.618 1101.46L-728.633 1101.81C-732.716 1089.65 -735.848 1077.36 -738.008 1065.22L-736.949 1065.02L-736.798 1066.1L-797.729 1074.59L-797.88 1073.51L-796.822 1073.32C-793.647 1090.19 -788.874 1107.08 -782.545 1123.58L-783.56 1123.97L-783.971 1122.97L-728.029 1100.47L-727.618 1101.46L-727.208 1102.46L-784.165 1125.37L-784.554 1124.34C-790.926 1107.7 -795.742 1090.71 -798.939 1073.69L-799.155 1072.56L-736.064 1063.79L-735.891 1064.81C-733.774 1076.84 -730.642 1089 -726.603 1101.07L-726.279 1102.05L-727.23 1102.43L-727.64 1101.44L-727.618 1101.46ZM-221.549 939.533L-221.917 938.518L-208.568 933.723L-223.234 892.965L-263.97 907.631L-249.304 948.367L-221.895 938.518L-221.528 939.533L-221.161 940.548L-250.6 951.132L-266.735 906.335L-221.938 890.2L-205.803 935.019L-221.182 940.548L-221.549 939.533ZM-311.618 839.896L-310.754 839.248L-284.381 874.951L-249.563 849.227L-275.288 814.409L-310.992 840.781L-311.64 839.917L-312.287 839.054L-274.856 811.407L-246.561 849.702L-284.857 877.997L-313.151 839.702L-312.287 839.054L-311.64 839.917L-311.618 839.896ZM-705.479 370.848L-705.198 371.885C-870.238 416.876 -1009.06 522.366 -1096.12 668.982L-1098.17 672.416L-1037.7 706.802L-1035.71 703.497C-957.844 572.973 -833.908 479.017 -686.753 438.929C-635.627 425.019 -583.638 418.129 -531.93 418.129C-434.755 418.129 -338.703 442.471 -251.637 490.205L-248.246 492.063L-213.882 431.585L-217.381 429.663C-315.009 375.924 -422.767 348.536 -531.778 348.536C-589.664 348.536 -647.917 356.269 -705.198 371.863L-705.479 370.826L-705.76 369.79C-648.306 354.13 -589.859 346.376 -531.778 346.376C-422.4 346.376 -314.275 373.85 -216.322 427.762L-210.901 430.743L-247.404 494.979L-252.652 492.084C-339.394 444.523 -435.101 420.267 -531.886 420.267C-583.379 420.267 -635.195 427.136 -686.126 441.002C-832.763 480.939 -956.224 574.528 -1033.79 704.577L-1036.85 709.696L-1101.09 673.193L-1097.91 667.858C-1010.57 520.79 -871.274 414.91 -705.695 369.79L-705.414 370.826L-705.479 370.848ZM-290.04 675.893L-289.176 676.541L-324.189 722.807L-278.787 757.15L-244.423 711.748L-290.688 676.736L-290.04 675.872L-289.392 675.008L-241.421 711.316L-278.377 760.152L-327.213 723.196L-290.256 674.338L-289.392 674.986L-290.04 675.85V675.893ZM-257.447 1021.52L-258.527 1021.63L-262.307 983.25L-299.609 986.922L-295.937 1024.22L-257.555 1020.44L-257.447 1021.52L-257.339 1022.6L-297.859 1026.6L-301.963 984.999L-260.363 980.895L-256.259 1022.5L-257.339 1022.6L-257.447 1021.52ZM-317.558 1021.48L-318.638 1021.59L-321.338 994.136L-347.71 996.728L-345.118 1023.1L-317.666 1020.4L-317.558 1021.48L-317.45 1022.56L-347.041 1025.48L-350.065 994.805L-319.394 991.781L-316.37 1022.45L-317.45 1022.56L-317.558 1021.48ZM-269.694 953.745L-270.709 954.112L-283.777 917.826L-319.048 930.526L-306.348 965.798L-270.061 952.73L-269.694 953.745L-269.327 954.76L-307.644 968.562L-321.813 929.23L-282.481 915.083L-268.333 954.415L-269.348 954.782L-269.716 953.767L-269.694 953.745ZM-351.166 916.4L-352.03 917.048L-368.726 895.104L-389.807 911.152L-373.759 932.233L-351.814 915.536L-351.166 916.4L-350.518 917.264L-374.169 935.278L-392.831 910.763L-368.316 892.101L-349.654 916.616L-350.518 917.264L-351.166 916.4ZM-387.625 874.411L-388.274 875.275L-410.261 858.622L-426.245 879.746L-405.121 895.73L-388.49 873.742L-387.625 874.39L-386.762 875.038L-404.71 898.754L-429.29 880.157L-410.693 855.577L-386.114 874.174L-386.762 875.038L-387.625 874.39V874.411ZM-326.737 968.605L-327.753 968.994L-337.71 943.27L-362.419 952.838L-352.851 977.548L-327.148 967.59L-326.759 968.605L-326.37 969.621L-354.104 980.355L-365.227 951.629L-336.5 940.505L-325.377 969.253L-326.392 969.642L-326.781 968.627L-326.737 968.605ZM-419.743 820.975L-420.672 820.435L-404.041 791.168L-405.25 790.499C-423.48 780.541 -442.833 772.852 -462.812 767.647C-482.619 762.484 -503.052 759.741 -523.571 759.482H-524.996L-523.636 792.054H-522.361C-487.262 792.767 -452.315 802.033 -421.32 818.858L-419.225 820.003L-419.743 820.953L-420.262 821.904L-422.357 820.759C-453.049 804.084 -487.673 794.905 -522.426 794.235L-524.716 794.192H-525.731L-527.264 757.257L-523.571 757.301C-502.879 757.56 -482.273 760.325 -462.294 765.53C-442.142 770.779 -422.616 778.533 -404.235 788.576L-401.103 790.283L-419.355 822.379L-420.283 821.882L-419.765 820.932L-419.743 820.975ZM-698.179 1163.78L-699.107 1164.34C-705.998 1153.04 -712.175 1141.46 -717.51 1129.8L-716.538 1129.35L-716.063 1130.32L-769.197 1156.13L-769.672 1155.16L-768.722 1154.66C-760.967 1169.78 -751.701 1184.88 -741.161 1199.63L-742.047 1200.26L-742.738 1199.44L-698.935 1162.93L-698.243 1163.75L-697.552 1164.57L-742.262 1201.81L-742.932 1200.86C-753.537 1186.04 -762.868 1170.84 -770.666 1155.63L-771.162 1154.66L-716.041 1127.88L-715.588 1128.89C-710.296 1140.47 -704.161 1151.98 -697.315 1163.19L-696.839 1163.99L-697.552 1164.6L-698.243 1163.78H-698.179ZM-210.642 536.384L-209.994 535.52L-135.757 590.987L-80.917 517.615L-154.289 462.774L-209.756 537.011L-210.62 536.363L-211.484 535.715L-154.721 459.75L-77.8932 517.182L-135.304 594.011L-212.132 536.6L-211.484 535.736L-210.62 536.384H-210.642ZM-55.1708 322.509L-54.3068 323.157L-125.131 416.768L-32.4053 486.944L37.7705 394.218L-55.8187 323.373L-55.1708 322.509L-54.5228 321.645L40.7944 393.786L-31.9949 489.968L-128.176 417.178L-55.3867 320.976L-54.5228 321.624L-55.1708 322.487V322.509ZM44.9414 660.104L44.0775 660.752L-11.0004 586.214L-84.6752 640.643L-30.2454 714.318L44.2935 659.24L44.9414 660.104L45.5895 660.968L-30.6772 717.321L-87.6775 640.168L-10.5253 583.168L46.475 660.299L45.611 660.947L44.963 660.083L44.9414 660.104ZM-176.904 716.176L-176.04 715.506L-126.599 779.267L-63.7025 730.496L-112.474 667.578L-176.234 717.018L-176.904 716.154L-177.573 715.29L-112.106 664.532L-60.7002 730.863L-127.031 782.269L-178.437 715.96L-177.573 715.29L-176.904 716.154V716.176ZM-275.612 633.321L-274.964 632.457L-210.339 680.753L-162.692 616.992L-226.452 569.345L-274.748 633.969L-275.612 633.321L-276.476 632.673L-226.884 566.321L-159.646 616.56L-209.886 683.777L-277.102 633.537L-276.454 632.673L-275.59 633.321H-275.612ZM-966.894 963.638L-967.089 964.696C-1006.38 957.719 -1053.55 949.361 -1094.13 942.168L-1093.94 941.11L-1092.86 941.261C-1096.14 966.143 -1097.79 991.263 -1097.79 1016.36C-1097.79 1027.85 -1097.44 1039.34 -1096.75 1050.81L-1097.83 1050.88L-1097.89 1049.8L-970.048 1041.27L-969.983 1042.35L-971.063 1042.39C-971.473 1033.96 -971.668 1026.12 -971.668 1018.63C-971.668 1011.8 -971.495 1005.26 -971.171 998.823C-970.566 987.03 -969.529 975.431 -967.952 963.508L-966.872 963.638L-965.793 963.767C-967.348 975.625 -968.384 987.181 -968.989 998.909C-969.313 1005.3 -969.486 1011.8 -969.486 1018.59C-969.486 1026.04 -969.292 1033.86 -968.881 1042.26L-968.838 1043.32L-1098.82 1052L-1098.89 1050.92C-1099.58 1039.41 -1099.92 1027.87 -1099.92 1016.34C-1099.92 991.134 -1098.26 965.927 -1094.98 940.959L-1094.83 939.835L-1093.72 940.03C-1053.14 947.222 -1005.97 955.581 -966.678 962.579L-965.663 962.752L-965.793 963.767L-966.872 963.638H-966.894ZM-1237.06 907.566L-1237.25 908.625L-1247.12 906.767C-1257.32 904.845 -1290.73 898.84 -1349.22 888.429L-1358.34 886.809L-1359.65 895.989C-1365.36 935.494 -1368.23 975.863 -1368.23 1016.49C-1368.23 1033.06 -1367.75 1049.67 -1366.8 1066.3L-1366.28 1075.35L-1247.75 1067.44L-1248.09 1058.72C-1248.57 1046.25 -1248.81 1034.31 -1248.81 1022.84C-1248.81 983.207 -1245.91 949.037 -1239.95 917.264L-1238.09 907.372L-1237.04 907.566L-1235.98 907.761L-1237.83 917.653C-1243.77 949.274 -1246.65 983.293 -1246.65 1022.82C-1246.65 1034.27 -1246.41 1046.17 -1245.93 1058.61L-1245.5 1069.43L-1368.32 1077.64L-1368.96 1066.41C-1369.91 1049.75 -1370.39 1033.08 -1370.39 1016.47C-1370.39 975.733 -1367.52 935.278 -1361.79 895.665L-1360.15 884.282L-1348.83 886.291C-1290.32 896.723 -1256.93 902.728 -1246.71 904.629L-1235.78 906.681L-1235.98 907.739L-1237.04 907.545L-1237.06 907.566ZM608.292 705.484L607.924 704.469L725.402 662.199L783.763 641.205L720.823 466.381L546.021 529.3L609.307 705.117L608.292 705.484L607.276 705.851L543.256 528.004L722.119 463.617L786.528 642.501L726.137 664.23L607.644 706.867L607.276 705.851L608.292 705.484ZM642.483 1016.47L642.375 1015.39L828.344 997.095L810.157 812.227L625.268 830.392L643.563 1016.36L642.483 1016.47L641.403 1016.58L622.893 828.47L812.08 809.873L830.677 999.039L641.49 1017.66L641.382 1016.58L642.461 1016.47H642.483ZM-925.532 828.708L-926.05 829.658L-1041.76 767.755L-1041.24 766.804L-1040.29 767.301C-1048.41 782.853 -1065.52 819.031 -1078.97 870.329L-1080.01 870.048L-1079.75 868.99C-1040.53 878.796 -992.77 890.784 -954.064 900.611L-954.323 901.648L-955.36 901.346C-945.23 865.318 -933.005 840.155 -926.482 828.146L-925.532 828.664L-924.581 829.183C-931.061 841.084 -943.221 866.074 -953.287 901.929L-953.567 902.944L-954.583 902.685C-993.288 892.857 -1041.02 880.891 -1080.25 871.064L-1081.31 870.804L-1081.02 869.746C-1067.52 818.232 -1050.35 781.924 -1042.17 766.264L-1041.67 765.292L-924.041 828.232L-924.56 829.183L-925.51 828.664L-925.532 828.708ZM-1315.44 1325.45L-1314.43 1325.1L-1311.34 1334L-1200.45 1289.38L-1203.47 1281.19C-1220.92 1233.67 -1232.74 1188.2 -1238.63 1146.09L-1239.89 1137.21L-1357.52 1153.58L-1356.03 1162.67C-1347.08 1216.56 -1333.11 1271.21 -1314.45 1325.1L-1315.46 1325.45L-1316.48 1325.79C-1335.18 1271.79 -1349.2 1217.02 -1358.14 1163L-1360 1151.72L-1238.03 1134.75L-1236.47 1145.76C-1230.6 1187.71 -1218.83 1233.02 -1201.42 1280.45L-1197.7 1290.58L-1312.65 1336.83L-1316.48 1325.77L-1315.46 1325.42L-1315.44 1325.45ZM-1165.41 690.559L-1165.93 691.51L-1271.21 635.179L-1275.63 642.35C-1282 652.653 -1315.14 708.897 -1339.89 800.132L-1342.24 808.793L-1333.56 811.147C-1304.9 818.88 -1279.91 825.014 -1261.64 829.485C-1249.07 832.574 -1239.11 835.015 -1232.52 836.85L-1223.95 839.226L-1221.51 830.673C-1208.57 785.552 -1191.48 741.188 -1170.66 698.788L-1166.38 690.084L-1165.41 690.559L-1164.44 691.034L-1168.72 699.739C-1189.47 742.03 -1206.54 786.287 -1219.43 831.256L-1222.48 841.883L-1233.13 838.924C-1239.65 837.088 -1249.58 834.647 -1262.15 831.58C-1280.43 827.109 -1305.44 820.975 -1334.12 813.243L-1344.88 810.327L-1341.94 799.57C-1317.1 708.076 -1283.88 651.659 -1277.45 641.227L-1271.96 632.328L-1163.97 690.106L-1164.42 691.034L-1165.39 690.559H-1165.41ZM-715.307 1099.71L-714.292 1099.37L-713.838 1100.71L-688.545 1090.53L-688.999 1089.3C-693.232 1077.75 -696.105 1066.71 -697.552 1056.45L-697.747 1055.11L-724.573 1058.85L-724.357 1060.21C-722.197 1073.19 -718.827 1086.36 -714.335 1099.37L-715.35 1099.71L-716.365 1100.06C-720.901 1086.95 -724.314 1073.66 -726.474 1060.55L-726.884 1058.09L-727.057 1056.99L-695.911 1052.65L-695.414 1056.13C-694.01 1066.21 -691.159 1077.12 -686.969 1088.55L-685.802 1091.74L-715.134 1103.56L-716.344 1100.08L-715.328 1099.73L-715.307 1099.71ZM-655.823 834.604L-656.449 833.719L-655.412 832.984L-672.756 805.316L-673.923 806.136C-702.563 826.332 -726.322 851.797 -744.509 881.777L-744.574 881.885L-744.682 881.993L-745.438 881.215L-744.509 881.777C-744.66 882.014 -745.178 882.9 -745.654 883.742C-745.913 884.196 -746.172 884.65 -746.366 884.974L-747.058 886.14L-718.698 902.253L-718.028 901.108C-717.834 900.784 -717.575 900.33 -717.294 899.855L-717.186 899.661C-716.732 898.862 -716.279 898.084 -716.084 897.782C-700.598 872.511 -680.51 850.933 -656.406 833.675L-655.779 834.561L-655.153 835.447C-679.02 852.553 -698.891 873.893 -714.248 898.927C-714.4 899.164 -714.853 899.963 -715.328 900.762L-715.436 900.957C-715.717 901.432 -715.976 901.886 -716.171 902.231L-717.92 905.212L-750.017 886.961L-748.224 883.894C-748.03 883.57 -747.77 883.116 -747.511 882.662C-747.014 881.798 -746.518 880.934 -746.323 880.632L-746.258 880.524L-746.15 880.416L-745.394 881.194L-746.323 880.632C-727.964 850.393 -704.01 824.712 -675.132 804.344L-672.108 802.205L-652.453 833.524L-655.131 835.447L-655.758 834.561L-655.823 834.604ZM-679.02 946.142L-679.538 947.093L-704.334 933.831L-705.004 934.911C-706.516 937.352 -714.486 950.894 -720.447 972.861L-720.793 974.178L-719.475 974.524C-712.564 976.403 -706.516 977.871 -702.088 978.951C-699.043 979.707 -696.623 980.291 -695.025 980.744L-693.729 981.111L-693.362 979.815C-690.23 968.865 -686.061 958.087 -681.007 947.784L-679.971 945.689L-678.999 946.164L-678.026 946.639L-679.063 948.756C-684.074 958.951 -688.178 969.599 -691.288 980.442L-692.239 983.79L-695.587 982.861C-697.142 982.429 -699.539 981.824 -702.585 981.09C-707.013 980.01 -713.06 978.52 -720.015 976.641L-723.406 975.712L-722.478 972.321C-716.452 950.095 -708.373 936.38 -706.775 933.809L-705.047 931.001L-677.551 945.71L-678.005 946.639L-678.977 946.164L-679.02 946.142ZM-371.707 860.199L-372.571 859.551L-349.481 828.664L-379.504 806.223L-401.946 836.246L-371.059 859.335L-371.707 860.199L-372.355 861.063L-404.97 836.678L-379.936 803.199L-346.436 828.232L-371.469 861.711L-372.333 861.063L-371.685 860.199H-371.707ZM-638.543 823.416L-639.083 822.487C-621.869 812.465 -603.445 804.776 -584.286 799.657C-570.787 796.05 -556.92 793.695 -543.032 792.68L-541.736 792.594L-543.075 760.001L-544.457 760.109C-560.786 761.253 -577.115 763.996 -592.991 768.273C-615.173 774.213 -636.47 783.155 -656.341 794.84L-657.551 795.553L-640.206 823.178L-639.083 822.509L-638.543 823.437L-638.003 824.366L-640.941 826.073L-660.574 794.797L-657.464 792.961C-637.42 781.189 -615.929 772.161 -593.574 766.178C-577.569 761.88 -561.11 759.115 -544.63 757.949L-542.125 757.776L-541.023 757.689L-539.489 794.602L-542.88 794.862C-556.639 795.877 -570.376 798.21 -583.746 801.773C-602.71 806.849 -620.961 814.452 -638.025 824.388L-638.565 823.459L-638.543 823.416ZM-392.096 767.539L-391.578 766.588L-390.412 767.236L-374.299 738.877L-375.487 738.229C-422.746 712.223 -474.908 698.961 -527.675 698.961C-555.689 698.961 -583.897 702.698 -611.609 710.258C-691.483 732.03 -758.678 783.09 -800.84 854.065L-801.552 855.253L-773.193 871.366L-772.523 870.221C-734.703 806.806 -674.484 761.145 -602.991 741.684C-578.152 734.924 -552.881 731.576 -527.783 731.576C-480.567 731.576 -433.891 743.412 -391.6 766.588L-392.118 767.539L-392.636 768.489C-434.604 745.464 -480.934 733.736 -527.783 733.736C-552.708 733.736 -577.785 737.062 -602.429 743.758C-673.383 763.089 -733.126 808.383 -770.687 871.323L-772.458 874.282L-804.576 856.031L-802.74 852.964C-760.319 781.513 -692.649 730.107 -612.235 708.184C-584.329 700.581 -555.948 696.823 -527.718 696.823C-474.584 696.823 -422.076 710.171 -374.493 736.349L-371.383 738.056L-389.634 770.174L-392.658 768.511L-392.14 767.56L-392.096 767.539ZM-738.677 996.641L-738.871 997.7C-757.922 994.309 -780.796 990.27 -800.472 986.771L-800.278 985.712L-799.198 985.863C-800.796 997.894 -801.574 1010.08 -801.574 1022.21C-801.574 1027.77 -801.401 1033.34 -801.077 1038.87L-802.157 1038.93L-802.222 1037.85L-740.232 1033.71L-740.167 1034.79L-741.247 1034.83C-741.442 1030.72 -741.528 1026.92 -741.528 1023.27C-741.528 1019.95 -741.442 1016.77 -741.291 1013.66C-741.01 1007.94 -740.491 1002.28 -739.735 996.49L-738.656 996.62L-737.576 996.749C-738.332 1002.49 -738.828 1008.07 -739.131 1013.75C-739.282 1016.84 -739.368 1019.97 -739.368 1023.25C-739.368 1026.86 -739.282 1030.64 -739.088 1034.7L-739.044 1035.76L-803.172 1040.03L-803.237 1038.95C-803.583 1033.36 -803.734 1027.77 -803.734 1022.17C-803.734 1009.92 -802.935 997.678 -801.336 985.539L-801.185 984.416L-800.084 984.611C-780.407 988.11 -757.533 992.149 -738.483 995.54L-737.468 995.712L-737.597 996.728L-738.677 996.598V996.641ZM-639.688 609.929L-639.407 610.966C-740.491 638.354 -826.046 702.482 -880.368 791.557L-882.484 795.013L-822.007 829.377L-820.02 826.159C-774.834 752.959 -704.118 700.3 -620.918 677.88C-591.846 670.04 -562.212 666.152 -532.75 666.152C-477.91 666.152 -423.588 679.587 -374.234 705.959L-370.843 707.774L-336.479 647.296L-340.021 645.395C-399.851 613.126 -465.771 596.689 -532.383 596.689C-568.13 596.689 -604.071 601.419 -639.386 610.988L-639.666 609.951L-639.947 608.914C-604.438 599.303 -568.303 594.551 -532.383 594.551C-465.404 594.551 -399.138 611.074 -339.006 643.516L-333.52 646.475L-370.022 710.69L-375.249 707.882C-424.301 681.682 -478.256 668.334 -532.75 668.334C-562.039 668.334 -591.457 672.2 -620.357 679.976C-703.017 702.266 -773.257 754.579 -818.184 827.304L-821.272 832.293L-885.487 795.79L-882.225 790.434C-827.623 700.884 -741.571 636.41 -639.969 608.893L-639.688 609.929ZM-313.475 599.043L-312.957 598.093L-309.566 599.929L-275.202 539.473L-278.722 537.551C-316.391 516.988 -356.415 501.091 -397.712 490.313C-438.643 479.622 -480.891 473.963 -523.268 473.444L-527.415 473.401L-524.521 542.907L-520.828 542.994C-448.622 544.419 -376.739 563.47 -312.957 598.093L-313.475 599.043L-313.994 599.994C-377.474 565.521 -449.01 546.557 -520.871 545.154L-526.595 545.024L-529.662 471.198L-523.225 471.284C-480.653 471.803 -438.232 477.505 -397.151 488.218C-355.702 499.039 -315.506 515.001 -277.686 535.65L-272.243 538.63L-308.745 602.845L-313.994 599.994L-313.475 599.043ZM-718.611 931.217L-719.13 932.168L-775.245 902.145L-774.726 901.194L-773.776 901.691C-777.707 909.208 -785.979 926.703 -792.481 951.542L-793.517 951.261L-793.258 950.203C-774.229 954.955 -751.075 960.765 -732.305 965.538L-732.564 966.575L-733.601 966.273C-728.677 948.756 -722.737 936.531 -719.54 930.656L-718.59 931.174L-717.64 931.693C-720.771 937.438 -726.646 949.512 -731.506 966.856L-731.787 967.871L-732.802 967.612C-751.572 962.839 -774.726 957.05 -793.733 952.276L-794.792 952.017L-794.511 950.959C-787.945 925.926 -779.608 908.279 -775.633 900.654L-775.137 899.682L-717.121 930.721L-717.64 931.671L-718.59 931.153L-718.611 931.217ZM-783.193 890.395L-783.711 891.345L-812.784 875.794L-813.41 876.982C-825.031 898.862 -832.828 922.254 -838.292 940.224L-839.329 939.9L-838.292 940.181L-839.437 944.263L-838.12 944.609C-837.104 944.868 -834.469 945.538 -829.826 946.725C-824.728 948 -817.708 949.75 -809.522 951.801L-808.226 952.125L-807.902 950.829C-800.084 919.986 -789.565 899.445 -785.396 892.015L-784.165 889.855L-783.215 890.395L-782.264 890.935L-783.495 893.095C-787.599 900.395 -798.053 920.763 -805.807 951.391L-806.671 954.782L-810.062 953.94C-818.27 951.888 -825.29 950.138 -830.366 948.864C-835.009 947.697 -837.645 947.028 -838.681 946.747L-842.116 945.84L-840.388 939.641C-834.88 921.627 -827.083 898.106 -815.333 876.01L-813.691 872.9L-781.724 890.006L-782.264 890.978L-783.215 890.438L-783.193 890.395ZM-727.856 1039.49L-727.921 1038.41L-699.777 1036.53L-699.82 1035.22C-699.928 1032.19 -699.993 1029.3 -699.993 1026.51C-699.993 1016.88 -699.28 1008.56 -697.833 1000.81L-697.574 999.471L-698.891 999.233C-701.354 998.78 -709.432 997.311 -723.579 994.805L-724.962 994.568L-725.156 995.95C-726.538 1005.45 -727.23 1015.17 -727.23 1024.98C-727.23 1028.98 -727.121 1032.99 -726.884 1036.99L-726.754 1039.45L-727.834 1039.52L-728.914 1039.58L-729.044 1037.14C-729.281 1033.1 -729.39 1029.04 -729.39 1025C-729.39 1015.11 -728.698 1005.28 -727.294 995.669L-726.949 993.185L-726.797 992.084L-723.234 992.71C-709.086 995.237 -701.008 996.684 -698.524 997.16L-696.127 997.613L-695.068 997.808L-695.716 1001.26C-697.142 1008.84 -697.833 1017.03 -697.833 1026.56C-697.833 1029.32 -697.768 1032.17 -697.66 1035.17L-697.574 1037.53L-697.531 1038.59L-728.849 1040.68L-728.914 1039.6L-727.834 1039.54L-727.856 1039.49ZM-117.376 905.86L-118.392 906.249L-139.343 852.143L-192.434 872.705L-171.871 925.796L-117.765 904.845L-117.376 905.86L-116.988 906.875L-173.102 928.604L-195.22 871.495L-138.09 849.378L-115.973 906.508L-116.988 906.897L-117.376 905.881V905.86ZM-1366.31 1332.7L-1367.32 1333.05C-1384.13 1282.87 -1397.09 1232.29 -1405.92 1182.29L-1404.86 1182.09L-1404.71 1183.17L-1656.64 1218.23L-1656.79 1217.15L-1655.74 1216.95C-1642.6 1286.91 -1622.73 1356.89 -1596.55 1425.34L-1597.57 1425.73L-1597.98 1424.74L-1366.72 1331.71L-1366.31 1332.7L-1365.9 1333.7L-1598.17 1427.13L-1598.56 1426.1C-1624.78 1357.54 -1644.7 1287.43 -1657.85 1217.34L-1658.07 1216.22L-1404 1180.86L-1403.82 1181.88C-1395.01 1231.77 -1382.07 1282.27 -1365.29 1332.34L-1364.97 1333.31L-1365.92 1333.7L-1366.33 1332.7H-1366.31ZM142.138 919.619L142.246 920.698L50.0173 929.77L58.9808 1020.92L150.13 1011.96L141.058 919.727L142.138 919.619L143.218 919.511L152.505 1013.88L57.0587 1023.27L47.663 927.826L143.131 918.452L143.239 919.532L142.159 919.64L142.138 919.619ZM-152.216 1589.58L-152.777 1588.67C-152.389 1588.44 -111.134 1562.54 -75.9492 1534.76C-61.7369 1523.55 -50.3325 1513.44 -42.0168 1504.81C60.8385 1397.48 125.917 1256.83 141.231 1108.74V1108.7C142.203 1101.46 142.656 1094.7 143.067 1087.81L143.304 1083.95L70.0397 1078.42L69.759 1082.35C62.3721 1186.52 35.3297 1282.46 -10.6765 1367.67L-11.994 1370.13L-31.9517 1289.7L-31.7788 1289.33C-1.23755 1228.79 17.7264 1164.14 24.5734 1097.14V1097.03L25.6533 1097.16L24.5734 1097.08C24.703 1095.46 24.8975 1093.82 25.0703 1092.07C25.5022 1088.09 25.9342 1084.03 25.9342 1079.86V1079.47V1075.8L-47.0927 1071.37L-47.5679 1077.68C-49.6414 1105.35 -54.4796 1169.91 -88.304 1248.14L-88.5415 1248.68L-171.115 1261.23L-169.344 1259.05C-122.323 1201.44 -96.7059 1142.78 -93.0773 1084.49L-91.9973 1084.55L-93.0773 1084.51V1084.16L-91.9757 1084.2H-93.0557V1083.95C-93.0557 1080.25 -92.6022 1075.97 -92.1702 1071.85L-91.7598 1067.79L-163.75 1062.76L-164.009 1066.71C-169.409 1151.83 -205.825 1232.59 -266.54 1294.17C-272.264 1299.96 -279.37 1307.63 -287.6 1316.5C-311.337 1342.08 -343.693 1377.07 -363.607 1388.49L-367.754 1390.87L-351.49 1409.68L-348.704 1408.17C-348.121 1407.87 -286.973 1374.17 -225.351 1317.84L-224.984 1317.52L-131.373 1327.67L-132.366 1329.16C-169.042 1384.22 -217.035 1433.55 -275.115 1475.88L-278.766 1478.54L-243.429 1515.24L-240.751 1513.68C-233.926 1509.71 -230.88 1507.79 -222.219 1502.08L-221.636 1502.99L-222.24 1502.11C-184.204 1476.53 -152.799 1450.55 -126.232 1422.69C-110.724 1406.59 -95.842 1388.99 -81.9105 1370.29L-80.9386 1368.97L-46.9415 1426.85L-47.3302 1427.42C-80.377 1475.15 -113.942 1509.17 -136.47 1529.45C-161.352 1551.85 -178.459 1562.76 -178.697 1562.89L-183.146 1565.69L-155.261 1590.12L-152.777 1588.57L-152.216 1589.47L-151.633 1590.38L-155.477 1592.78L-186.753 1565.37L-179.841 1561.01C-179.841 1561.01 -162.67 1550.08 -137.917 1527.79C-115.497 1507.59 -82.0402 1473.68 -49.1014 1426.12L-48.2159 1426.72L-49.1447 1427.26L-81.9753 1371.39L-81.0465 1370.85L-80.1826 1371.5C-94.1573 1390.26 -109.104 1407.95 -124.677 1424.11C-151.352 1452.1 -182.887 1478.17 -221.031 1503.81C-229.692 1509.51 -232.802 1511.48 -239.671 1515.48L-243.797 1517.87L-282.027 1478.17L-275.936 1473.75L-276.368 1474.07C-218.461 1431.86 -170.662 1382.71 -134.137 1327.89L-133.23 1328.49L-133.338 1329.57L-224.681 1319.68L-224.573 1318.6L-223.839 1319.4C-285.677 1375.92 -346.954 1409.66 -347.602 1410.03L-351.922 1412.38L-371.037 1390.26L-364.622 1386.59C-345.313 1375.56 -312.784 1340.54 -289.133 1315.01C-280.904 1306.14 -273.798 1298.47 -268.031 1292.61C-207.683 1231.4 -171.504 1151.12 -166.126 1066.54L-165.737 1060.4L-89.3407 1065.74L-89.9886 1072C-90.4207 1076.13 -90.8527 1080.36 -90.8527 1083.88V1084.12V1084.14V1084.51C-94.5029 1143.36 -120.357 1202.46 -167.594 1260.32L-168.437 1259.63L-168.61 1258.57L-89.3839 1246.52L-89.2111 1247.58L-90.2047 1247.15C-56.5316 1169.22 -51.715 1105 -49.6414 1077.38L-48.9934 1068.96L28.1373 1073.62L28.1805 1079.32V1079.71C28.1805 1084.03 27.7269 1088.18 27.2949 1092.15C27.1005 1093.9 26.9277 1095.52 26.7982 1097.1V1097.23L25.7183 1097.1L26.7982 1097.21C19.9297 1164.45 0.900757 1229.35 -29.7701 1290.13L-30.7421 1289.63L-29.6837 1289.38L-10.5037 1366.7L-11.562 1366.96L-12.5123 1366.44C33.3427 1281.51 60.2985 1185.87 67.6854 1081.98L68.1174 1075.87L145.658 1081.72L145.313 1087.7C144.902 1094.62 144.449 1101.44 143.455 1108.76L142.375 1108.61L143.455 1108.72C128.098 1257.28 62.8041 1398.39 -40.3969 1506.06C-48.799 1514.81 -60.2682 1524.96 -74.5453 1536.21C-109.86 1564.09 -151.136 1589.99 -151.568 1590.25L-152.151 1589.34L-152.216 1589.58ZM290.935 783.479L289.919 783.868L247.542 674.403L139.071 716.413L181.081 824.863L290.546 782.485L290.935 783.5L291.323 784.516L179.85 827.671L136.284 715.204L248.773 671.638L292.339 784.127L291.323 784.516L290.935 783.5V783.479ZM526.776 722.029L525.761 722.396L470.618 569.193L318.43 623.969L373.206 776.157L526.387 721.014L526.754 722.029L527.122 723.044L371.888 778.921L315.644 622.673L471.893 566.429L528.115 722.677L527.1 723.044L526.733 722.029H526.776ZM328.884 1002.02L327.804 1002.13L316.314 885.319L200.564 896.724L211.946 1012.47L328.776 1000.96L328.884 1002.04L328.992 1003.12L210.024 1014.85L198.209 894.801L318.258 882.965L330.072 1003.01L328.992 1003.12L328.884 1002.04V1002.02ZM577.362 1002.15L576.281 1002.26L560.32 840.242L399.363 856.074L415.216 1017.03L577.253 1001.09L577.362 1002.17L577.469 1003.25L413.272 1019.41L397.008 854.151L562.264 837.887L578.528 1003.14L577.448 1003.25L577.34 1002.17L577.362 1002.15ZM-1192.82 1576.86L-1193.51 1576.04L-1085.65 1486.17L-1090.92 1479.32C-1124.59 1435.64 -1149.32 1397.69 -1168.7 1359.92L-1172.69 1352.12L-1282.85 1405.64L-1279.33 1413.57C-1256.67 1464.48 -1229.28 1515.93 -1197.96 1566.47L-1191.87 1576.3L-1192.8 1576.86L-1193.73 1577.42L-1199.82 1567.59C-1231.18 1516.99 -1258.61 1465.45 -1281.31 1414.43L-1285.7 1404.59L-1171.76 1349.2L-1166.79 1358.9C-1147.48 1396.55 -1122.82 1434.39 -1089.21 1477.98L-1082.67 1486.47L-1193.08 1578.46L-1193.73 1577.4L-1192.8 1576.84L-1192.82 1576.86ZM-1244.57 1590.29L-1245.5 1590.86C-1273.93 1544.31 -1299.37 1496.51 -1321.34 1448.43L-1320.36 1447.98L-1319.89 1448.95L-1539.53 1555.69L-1540.01 1554.72L-1539.06 1554.22C-1506.92 1616.88 -1468.56 1679.46 -1424.82 1740.54L-1425.7 1741.17L-1426.4 1740.34L-1245.31 1589.45L-1244.62 1590.27L-1243.93 1591.09L-1425.92 1742.72L-1426.59 1741.77C-1470.39 1680.62 -1508.82 1617.96 -1541 1555.2L-1541.5 1554.22L-1319.87 1446.51L-1319.41 1447.52C-1297.49 1495.52 -1272.07 1543.25 -1243.69 1589.71L-1243.21 1590.51L-1243.93 1591.12L-1244.62 1590.29H-1244.57ZM-848.682 1619.37L-848.142 1618.44C-747.533 1675.63 -635.368 1705.25 -520.892 1705.25C-503.16 1705.25 -485.383 1704.53 -467.586 1703.11L-458.341 1702.37L-465.296 1696.24C-480.891 1682.48 -497.544 1670.6 -515.104 1660.62C-559.361 1635.46 -609.384 1622.46 -662.756 1622.46C-666.73 1622.46 -670.726 1622.52 -674.743 1622.67C-676.925 1622.76 -679.085 1622.78 -681.245 1622.78C-703.686 1622.78 -725.523 1618.55 -746.215 1610.17C-768.225 1601.27 -789.046 1587.66 -808.097 1569.73C-815.57 1562.69 -823.54 1556 -831.251 1549.47C-844.621 1538.2 -858.488 1526.53 -869.827 1513.03C-893.824 1484.52 -927.411 1461.37 -961.905 1449.53L-964.021 1448.8L-1010.44 1488.97L-1007.67 1491.95C-961.365 1542.02 -907.691 1584.57 -848.142 1618.42L-848.682 1619.35L-849.222 1620.27C-908.965 1586.32 -962.812 1543.64 -1009.27 1493.4L-1013.55 1488.78L-964.497 1446.34L-961.17 1447.48H-961.192C-926.288 1459.45 -892.42 1482.82 -868.164 1511.63C-856.997 1524.91 -843.217 1536.53 -829.847 1547.79C-822.136 1554.29 -814.123 1561.03 -806.606 1568.11C-787.729 1585.87 -767.145 1599.32 -745.394 1608.11C-724.94 1616.39 -703.406 1620.56 -681.223 1620.56C-679.085 1620.56 -676.947 1620.51 -674.808 1620.45C-670.769 1620.3 -666.73 1620.23 -662.734 1620.23C-609.017 1620.23 -558.605 1633.32 -514.024 1658.68C-496.334 1668.72 -479.552 1680.71 -463.849 1694.55L-453.071 1704.06L-467.391 1705.2C-485.254 1706.63 -503.095 1707.34 -520.871 1707.34C-635.714 1707.34 -748.245 1677.62 -849.2 1620.25L-848.66 1619.32L-848.682 1619.37ZM-417.583 1679.91L-416.828 1679.15C-412.292 1683.67 -407.691 1688.25 -402.983 1692.91L-401.514 1694.38L-399.483 1694.01C-391.902 1692.61 -385.228 1691.27 -379.115 1689.95L-378.878 1691.01L-379.245 1690L-325.636 1671.08L-330.604 1666.65C-336.651 1661.25 -342.505 1656.41 -348.164 1651.72C-359.547 1642.31 -369.439 1634.12 -377.495 1624.27C-403.004 1593.04 -431.645 1568.35 -462.834 1550.62C-469.443 1546.86 -476.161 1543.42 -482.986 1540.29C-518.949 1523.83 -559.339 1515.5 -603.229 1515.5C-607.462 1515.5 -611.739 1515.58 -616.058 1515.73C-618.218 1515.82 -620.4 1515.84 -622.56 1515.84C-645.001 1515.84 -666.838 1511.61 -687.552 1503.23C-709.561 1494.33 -730.383 1480.72 -749.412 1462.82C-774.165 1439.53 -793.323 1421.91 -811.553 1405.73C-826.78 1392.21 -844.664 1376.89 -864.536 1366.07L-866.933 1364.78L-927.8 1417.46L-921.406 1419.7C-898.857 1427.61 -879.979 1439.55 -863.758 1456.19C-854.146 1466.03 -843.844 1475.45 -833.843 1484.55C-826.37 1491.35 -818.659 1498.39 -811.315 1505.54C-793.323 1523.08 -774.057 1537.7 -753.861 1549.17C-747.274 1552.91 -740.599 1556.32 -733.817 1559.39C-705.371 1572.28 -674.441 1579.58 -641.87 1581.12C-633.77 1581.48 -625.541 1582.09 -617.57 1582.67C-608.045 1583.36 -598.218 1584.07 -588.498 1584.42C-561.521 1585.39 -536.163 1591.09 -513.182 1601.35C-490.351 1611.53 -469.141 1626.54 -450.112 1645.91C-439.291 1656.93 -428.426 1667.73 -416.914 1679.18L-417.67 1679.93L-418.426 1680.69C-429.938 1669.26 -440.824 1658.44 -451.646 1647.4C-470.502 1628.2 -491.474 1613.36 -514.046 1603.3C-536.768 1593.17 -561.845 1587.53 -588.563 1586.56C-598.326 1586.21 -608.196 1585.5 -617.722 1584.81C-625.692 1584.23 -633.899 1583.64 -641.978 1583.25C-674.808 1581.72 -706.019 1574.35 -734.724 1561.33C-741.571 1558.24 -748.31 1554.79 -754.941 1551.03C-775.309 1539.45 -794.727 1524.72 -812.849 1507.05C-820.149 1499.95 -827.86 1492.9 -835.312 1486.1C-845.312 1476.99 -855.658 1467.57 -865.313 1457.65C-881.318 1441.26 -899.872 1429.49 -922.141 1421.69L-932.055 1418.21L-867.235 1362.12L-863.52 1364.13C-843.368 1375.12 -825.376 1390.52 -810.127 1404.07C-791.897 1420.27 -772.717 1437.89 -747.943 1461.2C-729.087 1478.95 -708.481 1492.41 -686.753 1501.2C-666.298 1509.47 -644.764 1513.66 -622.581 1513.66C-620.443 1513.66 -618.305 1513.62 -616.166 1513.55C-611.825 1513.4 -607.527 1513.32 -603.25 1513.32C-559.101 1513.32 -518.387 1521.7 -482.122 1538.31C-475.232 1541.46 -468.471 1544.92 -461.819 1548.72C-430.37 1566.6 -401.535 1591.46 -375.875 1622.89C-368.013 1632.52 -358.229 1640.62 -346.825 1650.04C-341.166 1654.73 -335.312 1659.56 -329.2 1665.01L-321.51 1671.88L-378.64 1692.03H-378.705C-384.861 1693.39 -391.535 1694.71 -399.138 1696.13L-402.291 1696.71L-404.559 1694.45C-409.268 1689.76 -413.868 1685.18 -418.404 1680.69L-417.648 1679.93L-417.583 1679.91ZM-1042.6 1455.8L-1043.29 1454.98L-988.493 1409.32L-990.675 1406.33C-1016.7 1370.76 -1039.36 1333.89 -1057.98 1296.72L-1059.73 1293.24L-1117.63 1321.39L-1126.02 1325.45L-1124.18 1329.03C-1101.46 1373.33 -1074.83 1414.41 -1045 1451.2L-1041.8 1455.13L-1042.64 1455.82L-1043.48 1456.51L-1046.68 1452.58C-1076.6 1415.69 -1103.34 1374.48 -1126.1 1330.05L-1128.95 1324.5L-1118.59 1319.46L-1058.78 1290.39L-1056.08 1295.77C-1037.52 1332.83 -1014.93 1369.59 -988.969 1405.08L-985.599 1409.7L-1042.79 1457.35L-1043.48 1456.51L-1042.64 1455.82L-1042.6 1455.8ZM-257.274 1649.93L-257.728 1648.96L-255.287 1647.81C-231.615 1636.75 -208.914 1624.59 -187.79 1611.61L-181.958 1608.03L-188.006 1604.79C-222.003 1586.58 -263.884 1563.34 -278.334 1554.03C-302.352 1538.52 -324.534 1519.36 -342.462 1498.58C-364.32 1473.23 -388.446 1453.01 -414.344 1438.28C-420.024 1435.04 -425.791 1432.08 -431.645 1429.38C-462.877 1414.97 -497.544 1407.7 -534.824 1407.7C-537.265 1407.7 -539.727 1407.72 -542.189 1407.78C-543.053 1407.8 -543.917 1407.82 -544.781 1407.82C-551.758 1407.82 -558.734 1407.13 -566.013 1406.42C-570.182 1406.01 -574.458 1405.6 -578.714 1405.32C-621.674 1402.51 -659.883 1386.85 -692.131 1358.79L-696.364 1355.12C-713.233 1340.46 -730.685 1325.29 -746.431 1309.07C-754.207 1301.04 -762.566 1293.39 -771.227 1286.29L-773.776 1284.19L-829.091 1332.06L-825.549 1335.12C-823.087 1337.26 -820.754 1339.29 -818.486 1341.56C-810.71 1349.31 -802.352 1356.66 -794.23 1363.78C-786.152 1370.89 -777.75 1378.26 -770.061 1385.97C-748.31 1407.76 -725.264 1425.6 -701.267 1439.23C-692.995 1443.94 -684.593 1448.15 -676.104 1451.84C-643.446 1466.06 -608.153 1473.27 -571.132 1473.27C-568.475 1473.27 -565.819 1473.23 -563.141 1473.16C-562.492 1473.16 -561.866 1473.14 -561.218 1473.14C-555.948 1473.14 -550.656 1473.68 -545.148 1474.24C-541.066 1474.65 -536.854 1475.08 -532.664 1475.28C-507.22 1476.45 -483.267 1482 -461.516 1491.78C-439.939 1501.5 -419.808 1515.65 -401.687 1533.9C-397.647 1537.96 -393.63 1542.09 -389.591 1546.17C-372.182 1563.9 -354.212 1582.22 -334.664 1598.09C-319.415 1610.49 -284.489 1631.94 -259.002 1647.58L-256.713 1648.98L-257.274 1649.91L-257.836 1650.84L-260.125 1649.43C-285.634 1633.77 -320.517 1612.37 -336.025 1599.78C-355.702 1583.79 -373.716 1565.43 -391.125 1547.7C-395.164 1543.6 -399.181 1539.49 -403.22 1535.43C-421.169 1517.38 -441.083 1503.36 -462.402 1493.77C-483.915 1484.11 -507.566 1478.61 -532.772 1477.46C-537.049 1477.27 -541.282 1476.83 -545.364 1476.4C-550.872 1475.84 -556.078 1475.3 -561.218 1475.3C-561.844 1475.3 -562.449 1475.3 -563.076 1475.32C-565.776 1475.39 -568.454 1475.43 -571.111 1475.43C-608.434 1475.43 -644.008 1468.17 -676.947 1453.83C-685.5 1450.12 -693.967 1445.86 -702.304 1441.13C-726.495 1427.39 -749.693 1409.42 -771.573 1387.52C-779.197 1379.88 -787.556 1372.53 -795.656 1365.45C-803.777 1358.32 -812.157 1350.95 -819.998 1343.14C-822.201 1340.93 -824.512 1338.92 -826.953 1336.81L-832.374 1332.1L-773.797 1281.43L-769.823 1284.67C-761.075 1291.82 -752.673 1299.53 -744.833 1307.63C-729.195 1323.76 -711.786 1338.88 -694.917 1353.55L-690.684 1357.22C-658.76 1384.97 -621.069 1400.44 -578.541 1403.22C-574.242 1403.51 -569.944 1403.94 -565.776 1404.35C-558.497 1405.06 -551.606 1405.75 -544.76 1405.75C-543.917 1405.75 -543.053 1405.75 -542.211 1405.73C-539.727 1405.67 -537.265 1405.64 -534.802 1405.64C-497.241 1405.64 -462.251 1412.99 -430.716 1427.52C-424.819 1430.24 -418.988 1433.25 -413.242 1436.51C-387.107 1451.37 -362.808 1471.76 -340.798 1497.29C-323.022 1517.89 -300.991 1536.94 -277.146 1552.35C-262.869 1561.57 -220.923 1584.83 -186.969 1603.02L-177.617 1608.03L-186.667 1613.58C-207.855 1626.6 -230.643 1638.81 -254.38 1649.89L-257.339 1651.27L-257.836 1650.97L-257.274 1650.04V1649.93ZM-170.23 2276.91L-170.921 2277.75C-193.751 2258.85 -213.536 2242.5 -229.584 2222.87C-280.796 2160.19 -338.293 2110.6 -400.974 2074.98C-414.236 2067.44 -427.714 2060.53 -441.429 2054.27C-513.7 2021.2 -594.783 2004.46 -682.886 2004.46C-691.418 2004.46 -699.993 2004.61 -708.654 2004.93C-712.996 2005.09 -717.315 2005.17 -721.635 2005.17C-766.497 2005.17 -810.127 1996.73 -851.49 1979.97C-895.487 1962.17 -937.109 1934.97 -975.167 1899.16C-1024.8 1852.47 -1063.2 1817.17 -1099.73 1784.71C-1130.27 1757.58 -1166.17 1726.84 -1206.17 1705.07L-1211.63 1702.11L-1335.66 1809.42L-1321.06 1814.54C-1276.02 1830.33 -1238.33 1854.19 -1205.91 1887.41C-1186.62 1907.2 -1165.93 1926.05 -1145.91 1944.33C-1130.94 1957.96 -1115.47 1972.06 -1100.79 1986.38C-1064.63 2021.61 -1025.97 2050.96 -985.383 2074.03C-972.164 2081.55 -958.73 2088.42 -945.1 2094.57C-887.949 2120.47 -825.808 2135.16 -760.363 2138.22C-744.142 2138.98 -727.64 2140.17 -711.678 2141.33C-692.606 2142.72 -672.864 2144.14 -653.36 2144.83C-599.384 2146.8 -548.712 2158.18 -502.771 2178.68C-457.132 2199.02 -414.711 2229 -376.675 2267.75C-354.989 2289.85 -333.174 2311.51 -310.084 2334.43C-300.991 2343.48 -291.768 2352.64 -282.329 2362.03L-278.982 2365.36L-274.359 2364.52C-259.153 2361.69 -245.784 2359.01 -233.472 2356.35L-233.234 2357.41L-233.602 2356.4L-124.396 2317.86L-135.714 2307.76C-147.874 2296.89 -159.603 2287.21 -170.942 2277.82L-170.251 2276.98L-169.56 2276.13C-158.221 2285.53 -146.471 2295.23 -134.267 2306.11L-120.228 2318.64L-232.932 2358.43H-232.997C-245.33 2361.13 -258.721 2363.78 -273.949 2366.61L-279.694 2367.67L-283.841 2363.55C-293.259 2354.15 -302.503 2344.99 -311.596 2335.94C-334.686 2313.03 -356.501 2291.36 -378.187 2269.24C-416.05 2230.67 -458.233 2200.84 -503.613 2180.62C-549.295 2160.25 -599.686 2148.91 -653.404 2146.97C-672.951 2146.28 -692.736 2144.83 -711.808 2143.45C-727.77 2142.31 -744.271 2141.1 -760.449 2140.36C-826.132 2137.27 -888.554 2122.54 -945.964 2096.51C-959.637 2090.34 -973.136 2083.45 -986.42 2075.89C-1027.18 2052.73 -1065.99 2023.25 -1102.26 1987.91C-1116.9 1973.64 -1132.37 1959.55 -1147.33 1945.9C-1167.36 1927.65 -1188.09 1908.75 -1207.44 1888.9C-1239.65 1855.9 -1277.02 1832.25 -1321.77 1816.55L-1339.89 1810.2L-1211.94 1699.48L-1205.15 1703.15C-1164.89 1725.1 -1128.89 1755.92 -1098.33 1783.09C-1061.78 1815.55 -1023.35 1850.87 -973.719 1897.59C-935.813 1933.25 -894.429 1960.29 -850.712 1977.98C-809.609 1994.61 -766.259 2003.01 -721.679 2003.01C-717.38 2003.01 -713.082 2002.93 -708.784 2002.77C-700.101 2002.45 -691.505 2002.3 -682.951 2002.3C-594.589 2002.3 -513.16 2019.08 -440.587 2052.3C-426.806 2058.61 -413.264 2065.54 -399.959 2073.1C-337.04 2108.87 -279.327 2158.63 -227.964 2221.51C-212.089 2240.93 -192.434 2257.21 -169.603 2276.09L-170.294 2276.93L-170.23 2276.91ZM-505.255 2294.54L-505.795 2295.47C-594.675 2244.94 -695.155 2218.81 -802.308 2218.81C-810.3 2218.81 -818.335 2218.96 -826.391 2219.24C-830.733 2219.39 -835.074 2219.48 -839.394 2219.48C-884.234 2219.48 -927.843 2211.01 -969.205 2194.29C-1013.2 2176.5 -1054.82 2149.3 -1092.9 2113.47C-1107.89 2099.34 -1123.9 2085.87 -1139.36 2072.84C-1166.15 2050.25 -1193.9 2026.88 -1216.56 1999.95C-1264.77 1942.66 -1332.27 1896.1 -1401.62 1872.32L-1406.5 1870.63L-1500.87 1952.28L-1494.56 1959.08C-1401.64 2059.52 -1293.97 2144.88 -1174.51 2212.78C-972.64 2327.52 -747.619 2386.94 -517.955 2386.94C-482.381 2386.94 -446.721 2385.51 -410.996 2382.64L-389.915 2380.95L-405.769 2366.98C-437.088 2339.38 -470.523 2315.49 -505.795 2295.44L-505.255 2294.51L-504.715 2293.59C-469.314 2313.69 -435.749 2337.67 -404.322 2365.38L-384.645 2382.73L-410.801 2384.82C-446.57 2387.69 -482.316 2389.12 -517.933 2389.12C-747.965 2389.12 -973.374 2329.59 -1175.54 2214.68C-1295.2 2146.67 -1403.07 2061.18 -1496.12 1960.57L-1503.94 1952.12L-1406.93 1868.19L-1400.86 1870.29C-1331.1 1894.22 -1263.34 1940.96 -1214.85 1998.56C-1192.37 2025.3 -1164.72 2048.61 -1137.92 2071.18C-1122.45 2084.23 -1106.42 2097.72 -1091.37 2111.89C-1053.46 2147.55 -1012.08 2174.6 -968.341 2192.29C-927.216 2208.92 -883.888 2217.32 -839.329 2217.32C-835.031 2217.32 -830.733 2217.23 -826.413 2217.08C-818.313 2216.78 -810.257 2216.65 -802.244 2216.65C-694.744 2216.65 -593.876 2242.87 -504.671 2293.59L-505.211 2294.51L-505.255 2294.54ZM465.175 402.534L464.527 401.67L614.814 290.629L504.421 141.227L354.998 251.621L466.039 401.908L465.175 402.556L464.311 403.204L351.974 251.189L504.875 138.225L617.838 291.104L464.959 404.068L464.311 403.204L465.175 402.556V402.534ZM-1457.89 1785.44L-1458.75 1786.09C-1510.91 1714.84 -1556.25 1640.97 -1593.55 1566.51L-1597.53 1558.59L-1714.55 1615.46L-1732.35 1624.1L-1728.16 1632.26C-1682.58 1721.12 -1629.15 1803.57 -1569.32 1877.33L-1563.61 1884.37L-1453.8 1792.9L-1458.77 1786.09L-1457.91 1785.47L-1457.04 1784.84L-1450.89 1793.28L-1563.94 1887.46L-1571.04 1878.71C-1630.98 1804.82 -1684.51 1722.27 -1730.14 1633.28L-1735.35 1623.15L-1715.57 1613.54L-1596.62 1555.71L-1591.69 1565.56C-1554.46 1639.91 -1509.16 1713.67 -1457.09 1784.84L-1457.95 1785.47L-1457.89 1785.44ZM-30.5261 2080.96L-31.1093 2081.87C-79.1891 2050.85 -123.554 2012.49 -159.408 1970.92C-203.32 1919.98 -251.745 1879.38 -303.777 1849.79C-315.203 1843.29 -326.781 1837.35 -338.552 1831.93C-401.319 1803 -470.955 1788.36 -545.839 1788.36C-550.743 1788.36 -555.667 1788.42 -560.635 1788.55C-562.363 1788.6 -564.112 1788.62 -565.84 1788.62C-579.772 1788.62 -593.682 1787.24 -608.261 1785.81C-616.599 1784.99 -625.195 1784.15 -633.748 1783.59C-719.67 1777.99 -795.98 1746.67 -860.453 1690.58L-868.92 1683.24C-902.745 1653.86 -937.714 1623.47 -969.205 1591.01C-984.821 1574.89 -1001.58 1559.52 -1019.01 1545.26L-1024.84 1540.49L-1137.38 1637.83L-1129.34 1644.81C-1124.42 1649.09 -1119.73 1653.17 -1115.22 1657.68C-1099.6 1673.26 -1082.82 1688.01 -1066.55 1702.29C-1050.33 1716.52 -1033.53 1731.25 -1018.13 1746.69C-974.475 1790.43 -928.188 1826.24 -879.979 1853.65C-863.348 1863.09 -846.5 1871.56 -829.458 1878.97C-763.84 1907.54 -692.973 1921.99 -618.607 1921.99C-613.272 1921.99 -607.937 1921.93 -602.559 1921.78C-601.306 1921.73 -600.032 1921.73 -598.779 1921.73C-588.26 1921.73 -577.72 1922.81 -566.661 1923.96C-558.475 1924.8 -550.03 1925.67 -541.606 1926.05C-490.718 1928.41 -442.854 1939.49 -399.354 1959.04C-356.242 1978.45 -316.003 2006.75 -279.759 2043.23C-271.659 2051.39 -263.603 2059.6 -255.525 2067.83C-220.621 2103.38 -184.572 2140.12 -145.326 2172C-114.612 2196.95 -44.6305 2239.93 6.45166 2271.3L10.5771 2273.82L14.9402 2271.77C62.4369 2249.61 107.99 2225.18 150.346 2199.15L163.651 2190.97L149.87 2183.58C81.7465 2147.1 -2.23108 2100.49 -31.1093 2081.87L-30.5261 2080.96L-29.943 2080.06C-1.23767 2098.59 82.8049 2145.22 150.885 2181.68L167.97 2190.84L151.447 2200.99C109.005 2227.06 63.3872 2251.51 15.8258 2273.71L10.4043 2276.24L5.30701 2273.11C-45.7968 2241.75 -115.756 2198.81 -146.708 2173.67C-186.083 2141.68 -222.176 2104.9 -257.08 2069.34C-265.158 2061.11 -273.215 2052.88 -281.314 2044.74C-317.363 2008.43 -357.387 1980.29 -400.261 1961C-443.503 1941.58 -491.086 1930.55 -541.714 1928.19C-550.224 1927.8 -558.713 1926.92 -566.899 1926.08C-577.958 1924.93 -588.433 1923.87 -598.801 1923.87C-600.053 1923.87 -601.285 1923.87 -602.537 1923.92C-607.916 1924.07 -613.294 1924.13 -618.65 1924.13C-693.297 1924.13 -764.466 1909.62 -830.366 1880.93C-847.494 1873.48 -864.406 1864.99 -881.102 1855.51C-929.484 1828.02 -975.923 1792.07 -1019.7 1748.21C-1035.04 1732.83 -1051.8 1718.12 -1068.02 1703.88C-1084.29 1689.61 -1101.09 1674.83 -1116.79 1659.2C-1121.22 1654.75 -1125.86 1650.71 -1130.79 1646.43L-1140.7 1637.81L-1024.91 1537.66L-1017.67 1543.58C-1000.18 1557.87 -983.353 1573.32 -967.672 1589.5C-936.266 1621.87 -901.341 1652.22 -867.516 1681.59L-859.049 1688.94C-794.9 1744.73 -719.087 1775.83 -633.619 1781.4C-625.022 1781.97 -616.404 1782.83 -608.067 1783.63C-593.487 1785.08 -579.642 1786.44 -565.862 1786.44C-564.134 1786.44 -562.428 1786.44 -560.7 1786.37C-555.732 1786.24 -550.786 1786.18 -545.861 1786.18C-470.696 1786.18 -400.714 1800.87 -337.667 1829.94C-325.852 1835.38 -314.21 1841.36 -302.741 1847.89C-250.471 1877.61 -201.829 1918.39 -157.789 1969.47C-122.085 2010.87 -77.8716 2049.13 -29.9646 2080.01L-30.5476 2080.92L-30.5261 2080.96ZM663.931 1137.06L665.011 1137.14C650.194 1345.84 596.023 1537.98 503.881 1708.68L502.563 1711.14L463.339 1553.04L463.512 1552.67C524.811 1431.17 562.847 1301.45 576.584 1167.06L576.605 1166.84L577.685 1166.99L576.605 1166.91C576.865 1163.69 577.232 1160.38 577.599 1156.91C578.463 1148.94 579.348 1140.77 579.348 1132.33C579.348 1132.07 579.348 1131.81 579.348 1131.55L579.284 1123.17L430.897 1114.18L429.861 1127.9C425.692 1183.34 415.994 1312.57 348.281 1469.27L348.043 1469.81L185.876 1494.46L187.647 1492.28C282.014 1376.68 333.485 1258.86 340.764 1141.74L341.844 1141.81L340.764 1141.77V1141.08L341.865 1141.12H340.786C340.786 1140.95 340.786 1140.77 340.786 1140.58C340.786 1133.28 341.671 1124.72 342.535 1116.47L343.485 1107.23L196.957 1096.99L196.395 1106.02C185.574 1276.37 112.698 1438.04 -8.81885 1561.27C-20.3097 1572.91 -34.5435 1588.29 -51.0669 1606.08C-98.6067 1657.32 -163.556 1727.47 -203.168 1750.19L-212.607 1755.61L-178.589 1795.01L-172.238 1791.53C-171.05 1790.89 -48.4102 1723.35 75.2451 1610.32L75.6123 1609.99L260.977 1630.08L259.983 1631.57C186.524 1741.81 90.4293 1840.61 -25.9255 1925.43L-34.2412 1931.5L38.0513 2006.55L44.1422 2003.01C57.8362 1995.04 63.9703 1991.15 81.3578 1979.73L81.9408 1980.64L81.3362 1979.75C157.646 1928.45 220.672 1876.33 273.958 1820.41C305.082 1788.1 334.954 1752.79 362.882 1715.25L363.853 1713.95L430.833 1827.97L430.444 1828.53C364.242 1924.13 297.004 1992.28 251.905 2032.88C202.097 2077.72 167.798 2099.58 167.43 2099.82L157.257 2106.23L214.862 2156.71L220.521 2153.19C221.321 2152.69 304.045 2100.79 374.653 2045.04C403.164 2022.54 426.081 2002.28 442.777 1984.89C649.135 1769.59 779.702 1487.4 810.417 1190.3V1190.26C812.382 1175.72 813.289 1162.11 814.11 1148.29L814.629 1139.48L665.616 1128.2L664.968 1137.19L663.888 1137.1L662.808 1137.01L663.607 1125.87L816.896 1137.45L816.249 1148.38C815.428 1162.22 814.521 1175.87 812.533 1190.52L811.454 1190.36L812.533 1190.47C781.755 1488.04 650.993 1770.67 444.289 1986.34C427.485 2003.83 404.525 2024.14 375.949 2046.69C305.212 2102.54 222.465 2154.44 221.623 2154.96L214.603 2159.35L153.607 2105.91L166.221 2097.94C166.502 2097.77 200.715 2075.97 250.415 2031.24C295.406 1990.72 362.536 1922.68 428.608 1827.26L429.493 1827.86L428.565 1828.4L362.773 1716.39L363.702 1715.85L364.566 1716.5C336.574 1754.1 306.659 1789.5 275.47 1821.86C222.055 1877.91 158.899 1930.14 82.4808 1981.5C65.1151 1992.93 58.8945 1996.86 45.1791 2004.85L37.6194 2009.23L-37.5674 1931.15L-27.243 1923.64C88.9174 1838.97 184.839 1740.34 258.125 1630.32L259.032 1630.92L258.925 1632L75.8068 1612.15L75.9147 1611.07L76.649 1611.87C-47.2007 1725.1 -169.97 1792.68 -171.245 1793.39L-179.129 1797.71L-215.998 1755.01L-204.27 1748.29C-165.262 1725.98 -100.14 1655.81 -52.6653 1604.59C-36.1636 1586.8 -21.9081 1571.42 -10.374 1559.73C110.776 1436.85 183.435 1275.68 194.235 1105.87L194.948 1094.68L345.861 1105.24L344.674 1116.69C343.81 1124.94 342.924 1133.45 342.924 1140.58V1141.1V1141.12V1141.83H342.902C335.58 1259.5 283.893 1377.76 189.311 1493.62L188.468 1492.93L188.295 1491.87L347.093 1467.74L347.265 1468.8L346.272 1468.37C413.856 1311.99 423.51 1183.11 427.679 1127.68L428.889 1111.85L581.422 1121.1L581.508 1131.51C581.508 1131.77 581.508 1132.03 581.508 1132.28C581.508 1140.88 580.623 1149.13 579.737 1157.08C579.37 1160.56 579.003 1163.84 578.744 1167.04V1167.08L578.701 1167.3L577.642 1167.15L578.722 1167.25C564.964 1301.92 526.841 1431.91 465.434 1553.62L464.463 1553.12L465.521 1552.86L503.989 1707.88L502.931 1708.14L501.98 1707.62C593.971 1537.2 648.056 1345.36 662.851 1136.97L663.931 1137.06ZM-1548.11 378.926L-1549.04 378.365C-1393.09 116.95 -1144.89 -71.2225 -850.172 -151.485C-747.792 -179.37 -643.641 -193.15 -540.116 -193.15C-345.529 -193.15 -153.145 -144.401 21.204 -48.7809L28.9581 -44.5259L98.9393 -167.641L90.9692 -172.004C-104.892 -279.806 -321.1 -334.754 -539.792 -334.754C-655.931 -334.754 -772.804 -319.246 -887.69 -287.949C-1218.78 -197.686 -1497.31 13.9863 -1671.98 308.102L-1676.64 315.964L-1553.53 385.946L-1549.01 378.408L-1548.09 378.969L-1547.16 379.531L-1552.75 388.883L-1679.62 316.785L-1673.81 307.044C-1498.88 12.4096 -1219.89 -199.63 -888.273 -290.022C-773.193 -321.384 -656.147 -336.914 -539.792 -336.914C-320.733 -336.914 -104.158 -281.858 92.0277 -173.905L101.92 -168.484L29.8005 -41.61L20.1888 -46.8802C-153.836 -142.327 -345.853 -190.99 -540.094 -190.99C-643.425 -190.99 -747.381 -177.21 -849.589 -149.39C-1143.79 -69.2786 -1391.51 118.548 -1547.16 379.466L-1548.09 378.905L-1548.11 378.926ZM367.029 4.78503L366.381 5.64902L216.698 -106.213L105.484 42.6052L254.302 153.819L366.165 4.13705L367.029 4.78503L367.893 5.43301L254.734 156.843L102.46 43.0588L216.245 -109.237L368.541 4.56906L367.893 5.43301L367.029 4.78503ZM-1789.87 697.406L-1789.61 696.369C-1768.57 701.64 -1739.54 708.918 -1705.63 717.385L-1696.95 719.545L-1694.74 710.884C-1662.54 583.708 -1619.17 499.061 -1602 468.541L-1597.48 460.549L-1719.71 395.169L-1723.92 403.117C-1772.16 493.899 -1804.38 590.814 -1827.08 665.115L-1828.12 664.791L-1827.08 665.072L-1832.72 685.289L-1823.93 687.622C-1819.69 688.745 -1808.77 691.51 -1789.59 696.348L-1789.84 697.385L-1790.1 698.421C-1809.28 693.583 -1820.21 690.818 -1824.47 689.695H-1824.49L-1835.38 686.801L-1829.16 664.467C-1806.43 590.101 -1774.19 493.078 -1725.85 402.081L-1720.62 392.21L-1594.52 459.664L-1600.14 469.643L-1600.1 469.578C-1617.2 499.968 -1660.49 584.421 -1692.63 711.381L-1695.35 722.137L-1706.1 719.437C-1740.02 710.97 -1769.04 703.692 -1790.08 698.421L-1789.82 697.385L-1789.87 697.406ZM-1726.88 1090.34L-1727.96 1090.42C-1730.17 1060.9 -1731.27 1031.35 -1731.25 1001.87C-1731.25 958.735 -1728.89 915.774 -1724.2 873.418L-1723.12 873.547L-1723.79 874.39L-1724.27 874.001L-1724.2 873.418C-1722.69 859.875 -1720.92 846.246 -1718.81 831.688L-1717.53 823.07L-1815.85 805.661C-1833.11 802.594 -1844.36 800.607 -1847.54 800.024L-1856.52 798.404L-1857.99 807.411C-1869.52 878.148 -1875.31 951.996 -1875.31 1027.74C-1875.31 1051.68 -1874.73 1075.78 -1873.58 1100.06L-1873.13 1109.19L-1727.29 1099.47L-1727.96 1090.45L-1726.88 1090.36L-1725.8 1090.27L-1724.96 1101.46L-1875.18 1111.48L-1875.72 1100.17C-1876.89 1075.85 -1877.47 1051.68 -1877.47 1027.72C-1877.47 951.844 -1871.66 877.889 -1860.11 807.044L-1858.29 795.877L-1847.15 797.886C-1843.97 798.469 -1832.74 800.456 -1815.48 803.523L-1715.11 821.299L-1716.69 831.991C-1718.81 846.527 -1720.58 860.156 -1722.09 873.655L-1723.17 873.526L-1722.5 872.684L-1722.02 873.072L-1722.09 873.655C-1726.78 915.925 -1729.13 958.8 -1729.13 1001.87C-1729.13 1031.29 -1728.03 1060.81 -1725.85 1090.27L-1726.93 1090.36L-1726.88 1090.34ZM-1641.48 1457.2L-1642.47 1457.59C-1674.35 1377.22 -1697.96 1294.49 -1712.67 1211.73L-1714.18 1203.22L-1858.12 1223.26L-1856.69 1232.27C-1841.32 1330.24 -1815.98 1424.8 -1781.4 1513.36L-1778.12 1521.8L-1639.17 1465.91L-1642.45 1457.61L-1641.46 1457.22L-1640.46 1456.83L-1636.38 1467.14L-1779.35 1524.65L-1783.43 1514.18C-1818.07 1425.49 -1843.43 1330.76 -1858.83 1232.63L-1860.58 1221.45L-1712.39 1200.82L-1710.51 1211.38C-1695.82 1294.02 -1672.26 1376.59 -1640.44 1456.83L-1641.44 1457.22L-1641.48 1457.2ZM-756.064 190.279L-755.784 191.316C-958.665 246.286 -1130.42 374.995 -1239.48 553.793L-1244.29 561.677L-1121.2 631.637L-1116.66 624.293C-1026.23 477.807 -884.709 372.403 -718.201 327.52C-659.991 311.839 -600.723 304.063 -541.757 304.063C-432.012 304.063 -323.303 330.954 -224.508 383.743L-216.797 387.868L-146.838 264.774L-154.894 260.411C-274.986 195.635 -407.302 162.632 -541.023 162.632C-612.775 162.632 -684.938 172.136 -755.805 191.337L-756.086 190.3L-756.367 189.264C-685.306 170.019 -612.948 160.494 -541.001 160.494C-406.935 160.494 -274.251 193.583 -153.857 258.532L-143.857 263.932L-215.955 390.784L-225.524 385.665C-323.994 333.049 -432.357 306.245 -541.757 306.245C-600.55 306.245 -659.624 313.977 -717.64 329.637C-883.608 374.39 -1024.67 479.449 -1114.83 625.459L-1120.46 634.596L-1247.32 562.498L-1241.33 552.713C-1132 373.462 -959.766 244.385 -756.367 189.285L-756.086 190.322L-756.064 190.279ZM-98.4554 1014.89L-99.5354 1015L-105.216 957.266L-161.871 962.839L-156.298 1019.49L-98.5636 1013.81L-98.4554 1014.89L-98.3475 1015.97L-158.242 1021.87L-164.247 960.895L-103.294 954.89L-97.2892 1015.84L-98.3691 1015.95L-98.4772 1014.87L-98.4554 1014.89ZM-343.628 1300.15L-344.211 1299.25C-344.017 1299.14 -324.037 1286.59 -306.996 1273.13C-300.127 1267.71 -294.598 1262.83 -290.602 1258.66C-240.816 1206.71 -209.303 1138.61 -201.894 1066.95V1066.9C-201.419 1063.43 -201.203 1060.14 -201.009 1056.82L-200.922 1055.5L-235.351 1052.89L-235.459 1054.25C-239.045 1104.83 -252.177 1151.42 -274.532 1192.83L-275.85 1195.29L-285.915 1154.7L-285.742 1154.34C-270.968 1125.03 -261.789 1093.75 -258.484 1061.35V1061.27L-257.426 1061.42L-258.506 1061.33C-258.441 1060.53 -258.354 1059.73 -258.268 1058.89C-258.052 1056.97 -257.858 1055.02 -257.858 1053.02V1052.84V1051.59L-292.2 1049.52L-292.395 1052.02C-293.41 1065.46 -295.764 1096.84 -312.201 1134.85L-312.439 1135.39L-354.212 1141.74L-352.44 1139.56C-329.696 1111.7 -317.342 1083.36 -315.592 1055.24L-314.512 1055.3L-315.592 1055.26V1055.09L-314.512 1055.13H-315.592V1055C-315.592 1053.17 -315.376 1051.07 -315.16 1049.08L-315.009 1047.7L-348.79 1045.35L-348.876 1046.71C-351.512 1088.11 -369.223 1127.4 -398.749 1157.36C-401.514 1160.17 -404.948 1163.88 -408.944 1168.18C-420.478 1180.58 -436.116 1197.56 -445.922 1203.19L-447.347 1204.02L-440.198 1212.29L-439.248 1211.77C-438.988 1211.64 -409.376 1195.31 -379.547 1168.05L-379.18 1167.73L-332.634 1172.78L-333.627 1174.27C-351.447 1201.01 -374.774 1224.99 -402.983 1245.55L-404.235 1246.46L-387.842 1263.48L-386.934 1262.94C-383.63 1261.02 -382.182 1260.09 -377.971 1257.32L-377.387 1258.23L-377.992 1257.34C-359.568 1244.97 -344.384 1232.4 -331.532 1218.92C-324.037 1211.14 -316.823 1202.61 -310.084 1193.56L-309.112 1192.27L-292.027 1221.36L-292.416 1221.92C-308.464 1245.1 -324.772 1261.64 -335.723 1271.49C-347.818 1282.38 -356.112 1287.67 -356.285 1287.78L-356.847 1286.85L-356.264 1287.76L-357.797 1288.73L-345.14 1299.81L-344.297 1299.27L-343.714 1300.17L-343.153 1301.08L-344.686 1302.03L-345.377 1302.46L-361.426 1288.4L-357.43 1285.88C-357.43 1285.88 -349.157 1280.61 -337.191 1269.83C-326.349 1260.06 -310.149 1243.65 -294.209 1220.62L-293.323 1221.23L-294.252 1221.77L-310.171 1194.68L-309.242 1194.14L-308.378 1194.79C-315.16 1203.91 -322.439 1212.5 -329.999 1220.37C-342.958 1233.97 -358.294 1246.65 -376.826 1259.09C-381.038 1261.86 -382.55 1262.83 -385.898 1264.75L-387.539 1265.7L-388.274 1266.13L-407.562 1246.11L-404.3 1243.74C-376.264 1223.3 -353.153 1199.52 -335.464 1173L-334.556 1173.6L-334.664 1174.68L-378.964 1169.89L-378.856 1168.81L-378.122 1169.61C-408.166 1197.06 -437.908 1213.43 -438.232 1213.63L-439.96 1214.58L-440.716 1214.99L-450.717 1203.41L-447.023 1201.29C-437.822 1196.04 -422.011 1179.07 -410.542 1166.69C-406.546 1162.39 -403.09 1158.66 -400.304 1155.83C-371.145 1126.24 -353.65 1087.44 -351.058 1046.56L-350.907 1044.12L-350.842 1043.04L-312.676 1045.71L-313.043 1049.32C-313.26 1051.31 -313.454 1053.36 -313.454 1055.02V1055.15V1055.18V1055.37C-315.247 1084.05 -327.839 1112.82 -350.799 1140.92L-351.641 1140.23L-351.814 1139.17L-313.411 1133.34L-313.238 1134.4L-314.231 1133.97C-297.946 1096.26 -295.613 1065.22 -294.598 1051.83L-294.252 1047.2L-255.784 1049.54V1052.82H-255.762V1052.99C-255.762 1055.13 -255.978 1057.16 -256.194 1059.08C-256.281 1059.93 -256.367 1060.73 -256.432 1061.46V1061.5V1061.59L-257.49 1061.44L-256.41 1061.55C-259.758 1094.23 -269.003 1125.76 -283.906 1155.29L-284.878 1154.79L-283.82 1154.53L-274.51 1192.03L-275.569 1192.29L-276.519 1191.77C-254.337 1150.67 -241.269 1104.38 -237.706 1054.05L-237.533 1051.61L-237.446 1050.53L-198.741 1053.45L-198.935 1056.9C-199.129 1060.25 -199.345 1063.58 -199.842 1067.16L-200.922 1067.01L-199.842 1067.12C-207.315 1139.28 -239.001 1207.82 -289.133 1260.11C-293.237 1264.38 -298.81 1269.31 -305.743 1274.77C-322.893 1288.32 -342.937 1300.89 -343.131 1301.02L-343.693 1300.11L-343.628 1300.15ZM-472.294 1343.96L-471.538 1343.2C-469.335 1345.38 -467.11 1347.61 -464.821 1349.87L-464.324 1350.37L-463.633 1350.24C-459.961 1349.55 -456.743 1348.92 -453.762 1348.28L-453.525 1349.33L-453.892 1348.32L-428.772 1339.46L-430.478 1337.95C-433.416 1335.34 -436.224 1333.01 -438.967 1330.74C-444.496 1326.18 -449.313 1322.18 -453.265 1317.35C-465.599 1302.25 -479.422 1290.33 -494.498 1281.77C-497.695 1279.96 -500.935 1278.29 -504.218 1276.8C-521.584 1268.86 -541.066 1264.84 -562.277 1264.84C-564.328 1264.84 -566.402 1264.88 -568.475 1264.95C-569.534 1264.99 -570.592 1265.01 -571.651 1265.01C-582.601 1265.01 -593.271 1262.94 -603.38 1258.86C-614.115 1254.51 -624.266 1247.86 -633.554 1239.14C-645.563 1227.84 -654.851 1219.31 -663.663 1211.47C-671.028 1204.9 -679.69 1197.51 -689.258 1192.31L-690.079 1191.85L-718.568 1216.52L-716.365 1217.3C-705.371 1221.16 -696.127 1227 -688.2 1235.12C-683.556 1239.89 -678.567 1244.43 -673.728 1248.85C-670.1 1252.16 -666.363 1255.57 -662.799 1259.05C-654.095 1267.52 -644.807 1274.58 -635.044 1280.13C-631.869 1281.94 -628.629 1283.59 -625.368 1285.06C-611.631 1291.28 -596.706 1294.8 -580.981 1295.55C-577.05 1295.73 -573.054 1296.03 -569.188 1296.31C-564.566 1296.65 -559.814 1296.98 -555.106 1297.15C-541.952 1297.63 -529.597 1300.41 -518.365 1305.4C-507.22 1310.37 -496.874 1317.69 -487.608 1327.13C-482.359 1332.47 -477.089 1337.71 -471.517 1343.24L-472.273 1344L-473.029 1344.76C-478.623 1339.2 -483.893 1333.96 -489.142 1328.62C-498.235 1319.35 -508.365 1312.21 -519.229 1307.37C-530.18 1302.49 -542.254 1299.76 -555.149 1299.29C-559.901 1299.12 -564.696 1298.77 -569.318 1298.45C-573.184 1298.17 -577.158 1297.89 -581.068 1297.69C-597.051 1296.93 -612.257 1293.35 -626.253 1287.02C-629.58 1285.51 -632.863 1283.82 -636.103 1281.99C-646.017 1276.35 -655.477 1269.18 -664.289 1260.58C-667.832 1257.15 -671.547 1253.74 -675.175 1250.43C-680.014 1246.03 -685.046 1241.42 -689.755 1236.61C-697.466 1228.72 -706.365 1223.07 -717.099 1219.31L-722.823 1217.3L-690.381 1189.22L-688.243 1190.39C-678.394 1195.74 -669.646 1203.26 -662.259 1209.83C-653.403 1217.69 -644.116 1226.24 -632.107 1237.54C-623.013 1246.11 -613.078 1252.59 -602.602 1256.83C-592.753 1260.82 -582.364 1262.83 -571.694 1262.83C-570.657 1262.83 -569.642 1262.83 -568.605 1262.76C-566.488 1262.68 -564.393 1262.66 -562.32 1262.66C-540.85 1262.66 -521.022 1266.74 -503.354 1274.82C-500.006 1276.35 -496.701 1278.04 -493.461 1279.87C-478.148 1288.58 -464.108 1300.69 -451.624 1315.96C-447.866 1320.56 -443.135 1324.47 -437.628 1329.05C-434.885 1331.32 -432.033 1333.67 -429.074 1336.33L-424.646 1340.28L-453.265 1350.39H-453.33C-456.333 1351.06 -459.572 1351.71 -463.266 1352.38L-464.519 1352.62L-465.08 1352.73L-466.398 1351.43C-468.666 1349.16 -470.912 1346.94 -473.115 1344.76L-472.359 1344L-472.294 1343.96ZM-394.58 1329.4L-395.034 1328.43L-393.846 1327.86C-382.398 1322.51 -371.383 1316.61 -361.166 1310.35L-359.158 1309.12L-361.231 1308.02C-377.733 1299.18 -398.015 1287.93 -405.078 1283.37C-416.784 1275.83 -427.562 1266.5 -436.288 1256.37C-446.85 1244.1 -458.492 1234.36 -470.998 1227.26C-473.741 1225.7 -476.528 1224.28 -479.336 1222.96C-494.412 1216 -511.13 1212.5 -529.143 1212.48C-530.331 1212.48 -531.498 1212.48 -532.686 1212.53C-533.118 1212.53 -533.528 1212.53 -533.96 1212.53C-537.394 1212.53 -540.785 1212.18 -544.306 1211.83C-546.315 1211.64 -548.388 1211.42 -550.44 1211.29C-571.391 1209.93 -590.031 1202.29 -605.756 1188.59L-607.808 1186.82C-615.994 1179.72 -624.461 1172.35 -632.128 1164.47C-635.886 1160.6 -639.926 1156.89 -644.116 1153.47L-645.001 1152.76L-670.985 1175.24L-669.754 1176.3C-668.566 1177.34 -667.421 1178.33 -666.298 1179.46C-662.54 1183.19 -658.501 1186.76 -654.57 1190.21C-650.639 1193.67 -646.578 1197.23 -642.82 1200.99C-632.301 1211.53 -621.177 1220.15 -609.579 1226.74C-605.583 1229.01 -601.522 1231.04 -597.44 1232.83C-581.673 1239.7 -564.652 1243.17 -546.768 1243.17C-545.494 1243.17 -544.198 1243.17 -542.924 1243.13C-542.6 1243.13 -542.297 1243.13 -541.995 1243.13C-539.403 1243.13 -536.811 1243.39 -534.133 1243.67C-532.146 1243.87 -530.115 1244.08 -528.107 1244.17C-515.709 1244.75 -504.024 1247.45 -493.397 1252.22C-482.856 1256.95 -473.05 1263.87 -464.216 1272.77C-462.251 1274.73 -460.307 1276.74 -458.341 1278.73C-449.896 1287.32 -441.191 1296.18 -431.753 1303.87C-424.409 1309.83 -407.475 1320.24 -395.12 1327.82L-393.997 1328.51L-394.559 1329.44L-395.12 1330.37L-396.244 1329.68C-408.62 1322.08 -425.51 1311.71 -433.092 1305.55C-442.66 1297.78 -451.408 1288.86 -459.853 1280.26C-461.819 1278.27 -463.763 1276.29 -465.707 1274.32C-474.368 1265.59 -483.958 1258.86 -494.239 1254.23C-504.607 1249.57 -516.011 1246.93 -528.15 1246.37C-530.245 1246.28 -532.297 1246.07 -534.284 1245.85C-536.962 1245.57 -539.468 1245.31 -541.908 1245.31C-542.211 1245.31 -542.492 1245.31 -542.794 1245.31C-544.112 1245.36 -545.408 1245.38 -546.703 1245.38C-564.868 1245.38 -582.191 1241.86 -598.239 1234.86C-602.408 1233.04 -606.533 1230.97 -610.594 1228.68C-622.365 1221.99 -633.662 1213.26 -644.289 1202.59C-647.96 1198.9 -652.021 1195.35 -655.931 1191.9C-659.862 1188.44 -663.944 1184.86 -667.767 1181.06C-668.804 1180 -669.927 1179.05 -671.115 1178.01L-674.225 1175.31L-644.98 1150.02L-642.69 1151.9C-638.435 1155.37 -634.353 1159.13 -630.53 1163.06C-622.97 1170.86 -614.547 1178.18 -606.36 1185.29L-604.308 1187.06C-588.908 1200.43 -570.765 1207.88 -550.267 1209.22C-548.172 1209.35 -546.077 1209.57 -544.068 1209.76C-540.548 1210.11 -537.221 1210.43 -533.938 1210.43C-533.528 1210.43 -533.118 1210.43 -532.729 1210.43C-531.519 1210.41 -530.31 1210.39 -529.122 1210.39C-510.827 1210.39 -493.786 1213.97 -478.407 1221.06C-475.534 1222.37 -472.683 1223.84 -469.897 1225.42C-457.153 1232.66 -445.339 1242.59 -434.625 1255.01C-426.05 1264.97 -415.402 1274.17 -403.89 1281.6C-397 1286.05 -376.653 1297.35 -360.195 1306.14L-354.795 1309.03L-360 1312.23C-370.303 1318.56 -381.362 1324.47 -392.896 1329.87L-394.084 1330.44L-394.602 1330.67L-395.099 1330.37L-394.537 1329.44L-394.58 1329.4ZM-203.557 751.188L-202.909 752.052L-249.067 787.194L-214.573 832.487L-169.279 798.015L-204.421 751.858L-203.557 751.21L-202.693 750.562L-166.255 798.426L-215.005 835.533L-252.112 786.805L-203.363 749.719L-202.715 750.583L-203.579 751.231L-203.557 751.188ZM-200.901 975.28L-200.792 976.36L-244.963 980.701L-240.729 1023.79L-197.639 1019.56L-201.98 975.388L-200.901 975.28L-199.821 975.172L-195.263 1021.48L-242.652 1026.15L-247.317 978.757L-199.929 974.092L-199.821 975.172L-200.901 975.28ZM-681.353 1314.58L-680.813 1313.65C-632.107 1341.34 -577.828 1355.66 -522.404 1355.66C-513.83 1355.66 -505.211 1355.32 -496.593 1354.63L-493.418 1354.37L-495.794 1352.27C-503.332 1345.62 -511.367 1339.87 -519.856 1335.06C-541.239 1322.9 -565.387 1316.63 -591.176 1316.63C-593.099 1316.63 -595.042 1316.68 -596.965 1316.74C-598.023 1316.78 -599.082 1316.81 -600.14 1316.81C-611.091 1316.81 -621.739 1314.73 -631.847 1310.65C-642.604 1306.31 -652.755 1299.66 -662.022 1290.93C-665.629 1287.54 -669.473 1284.28 -673.232 1281.12C-679.711 1275.66 -686.45 1269.98 -692.001 1263.39C-703.557 1249.65 -719.778 1238.47 -736.409 1232.76L-737.144 1232.5L-758.98 1251.4L-758.03 1252.44C-735.61 1276.67 -709.626 1297.26 -680.813 1313.65L-681.353 1314.58L-681.893 1315.51C-710.922 1299.01 -737.079 1278.27 -759.628 1253.89L-762.091 1251.23L-737.64 1230.06L-735.74 1230.71C-718.719 1236.57 -702.218 1247.93 -690.381 1261.99C-685.003 1268.38 -678.351 1274 -671.871 1279.46C-668.134 1282.61 -664.246 1285.9 -660.574 1289.33C-651.481 1297.91 -641.546 1304.39 -631.07 1308.62C-621.221 1312.59 -610.853 1314.62 -600.161 1314.62C-599.125 1314.62 -598.11 1314.62 -597.073 1314.56C-595.107 1314.49 -593.142 1314.45 -591.198 1314.45C-565.063 1314.45 -540.526 1320.82 -518.819 1333.18C-510.201 1338.08 -502.036 1343.91 -494.39 1350.65L-488.191 1356.12L-496.442 1356.76C-505.125 1357.46 -513.786 1357.8 -522.426 1357.8C-578.217 1357.8 -632.884 1343.37 -681.893 1315.51L-681.353 1314.58ZM-775.374 1235.29L-776.065 1234.47L-749.887 1212.65L-750.643 1211.62C-763.279 1194.34 -774.272 1176.43 -783.323 1158.4L-783.927 1157.21L-811.51 1170.62L-815.052 1172.35L-814.425 1173.58C-803.431 1195.03 -790.537 1214.92 -776.087 1232.72L-774.532 1234.62L-775.374 1235.31L-776.217 1236L-777.772 1234.1C-792.308 1216.18 -805.289 1196.17 -816.348 1174.6L-817.989 1171.4L-812.46 1168.7L-782.955 1154.36L-781.4 1157.47C-772.415 1175.4 -761.486 1193.22 -748.915 1210.39L-746.971 1213.04L-775.547 1236.85L-776.238 1236L-775.396 1235.31L-775.374 1235.29ZM-944.107 1179.85L-945.122 1180.19C-953.524 1155.14 -959.982 1129.87 -964.41 1104.9L-963.352 1104.7L-963.201 1105.78L-1088.86 1123.28L-1089.02 1122.2L-1087.96 1122C-1081.41 1156.86 -1071.52 1191.75 -1058.45 1225.87L-1059.47 1226.26L-1059.88 1225.27L-944.517 1178.85L-944.107 1179.85L-943.697 1180.84L-1060.07 1227.67L-1060.46 1226.65C-1073.55 1192.42 -1083.51 1157.4 -1090.07 1122.41L-1090.29 1121.29L-962.466 1103.49L-962.293 1104.51C-957.909 1129.37 -951.451 1154.53 -943.092 1179.48L-942.768 1180.45L-943.718 1180.84L-944.129 1179.85H-944.107ZM-1151.7 1270.15L-1150.68 1269.76L-1149.23 1273.48L-1080.94 1246L-1082.39 1242.35C-1098.3 1202.22 -1110.1 1160.92 -1117.44 1119.61L-1118.11 1115.87L-1188.85 1125.72L-1188.22 1129.67C-1180.55 1178.51 -1167.94 1225.66 -1150.7 1269.78L-1151.72 1270.17L-1152.73 1270.56C-1170.03 1226.28 -1182.69 1178.98 -1190.38 1129.99L-1191.33 1123.88L-1116.34 1113.45L-1115.3 1119.24C-1107.98 1160.43 -1096.23 1201.57 -1080.38 1241.58L-1078.15 1247.21L-1150.47 1276.31L-1152.71 1270.56L-1151.7 1270.17V1270.15ZM-883.37 1308.34L-884.299 1308.9C-898.489 1285.66 -911.19 1261.79 -922.162 1237.8L-921.19 1237.34L-920.715 1238.31L-1030.29 1291.56L-1030.76 1290.58L-1029.81 1290.09C-1013.79 1321.32 -994.671 1352.51 -972.855 1382.96L-973.741 1383.59L-974.432 1382.77L-884.083 1307.5L-883.392 1308.32L-882.7 1309.14L-973.935 1385.15L-974.605 1384.2C-996.463 1353.68 -1015.64 1322.38 -1031.71 1291.06L-1032.21 1290.09L-920.65 1235.87L-920.197 1236.89C-909.267 1260.8 -896.589 1284.6 -882.463 1307.76L-881.988 1308.56L-882.7 1309.16L-883.392 1308.34H-883.37ZM-857.559 1301.64L-858.25 1300.82L-804.835 1256.33L-807.146 1253.33C-823.951 1231.53 -836.305 1212.57 -846.003 1193.67L-847.753 1190.23L-901.773 1216.48L-900.217 1219.96C-888.921 1245.33 -875.27 1270.97 -859.676 1296.16L-856.63 1301.06L-857.559 1301.62L-858.488 1302.18L-861.533 1297.28C-877.193 1272.01 -890.887 1246.28 -902.226 1220.82L-904.624 1215.44L-846.824 1187.36L-844.103 1192.68C-834.491 1211.42 -822.201 1230.26 -805.462 1251.99L-801.876 1256.63L-857.84 1303.26L-858.488 1302.2L-857.559 1301.64ZM-1197.44 1068.91L-1197.51 1067.83L-1124.74 1062.97L-1125.04 1059.02C-1126.14 1044.29 -1126.68 1029.54 -1126.68 1014.83C-1126.68 993.272 -1125.52 971.824 -1123.16 950.678L-1122.08 950.808L-1122.69 951.693L-1123.23 951.326L-1123.16 950.678C-1122.41 943.918 -1121.52 937.114 -1120.46 929.835L-1119.9 926.055L-1168.44 917.459C-1177.05 915.925 -1182.65 914.932 -1184.25 914.651L-1188.18 913.938L-1188.83 917.891C-1194.57 953.141 -1197.47 989.945 -1197.47 1027.72C-1197.47 1039.65 -1197.18 1051.68 -1196.6 1063.77L-1196.36 1068.87L-1197.44 1068.91L-1198.52 1068.96L-1198.76 1063.86C-1199.34 1051.72 -1199.63 1039.67 -1199.63 1027.7C-1199.63 989.816 -1196.73 952.903 -1190.96 917.523L-1189.97 911.411L-1183.86 912.512C-1182.28 912.793 -1176.67 913.787 -1168.07 915.32L-1117.48 924.284L-1118.35 930.137C-1119.41 937.373 -1120.29 944.177 -1121.05 950.916L-1122.13 950.786L-1121.52 949.901L-1120.98 950.268L-1121.05 950.916C-1123.38 971.997 -1124.55 993.358 -1124.55 1014.83C-1124.55 1029.49 -1124.01 1044.18 -1122.91 1058.87L-1122.45 1065L-1198.48 1070.08L-1198.52 1068.98L-1197.44 1068.93V1068.91ZM-1674.48 1074.14L-1674.55 1073.06L-1418.25 1055.95L-1418.19 1057.03L-1419.27 1057.08C-1420.07 1040.19 -1420.48 1024.46 -1420.48 1009.45C-1420.48 995.799 -1420.15 982.71 -1419.48 969.858C-1418.3 946.272 -1416.18 923.01 -1413.05 899.164L-1411.97 899.294L-1412.16 900.352C-1490.91 886.356 -1585.47 869.595 -1666.84 855.167L-1666.64 854.108L-1665.56 854.259C-1672.15 904.175 -1675.46 954.609 -1675.46 1004.98C-1675.46 1028.02 -1674.76 1051.07 -1673.38 1074.05L-1674.46 1074.12L-1675.54 1074.18C-1676.92 1051.16 -1677.62 1028.07 -1677.62 1004.98C-1677.62 954.501 -1674.31 903.981 -1667.7 853.979L-1667.55 852.855L-1666.45 853.05C-1585.08 867.478 -1490.54 884.239 -1411.77 898.235L-1410.76 898.408L-1410.89 899.423C-1414 923.226 -1416.11 946.401 -1417.3 969.945C-1417.95 982.753 -1418.3 995.799 -1418.3 1009.43C-1418.3 1024.42 -1417.91 1040.1 -1417.09 1056.97L-1417.04 1058.03L-1675.48 1075.28L-1675.54 1074.2L-1674.46 1074.14H-1674.48ZM-609.514 -83.102L-609.427 -82.0221C-677.163 -77.2271 -744.876 -65.8659 -810.667 -48.1762C-902.615 -23.4883 -991.02 13.5759 -1073.42 62.0013L-1081.39 66.6883L-1006.12 186.629L-998.623 182.244C-927.735 140.925 -851.792 109.282 -772.933 88.2227C-717.359 73.3625 -660.207 63.7076 -602.991 59.4526L-594.33 58.8046L-600.183 -82.6917L-609.406 -82.0437L-609.471 -83.1236L-609.536 -84.2036L-598.088 -85.0028L-592.04 60.7917L-602.775 61.5909C-659.84 65.8243 -716.883 75.4576 -772.307 90.2962C-850.993 111.312 -926.763 142.89 -997.479 184.102L-1006.79 189.523L-1084.35 65.9323L-1074.46 60.1222C-991.884 11.6104 -903.306 -25.5618 -811.164 -50.2929C-745.222 -68.0042 -677.379 -79.4086 -609.514 -84.2036L-609.427 -83.1236L-609.514 -83.102ZM-1638.72 711.726L-1638.46 710.668C-1559.83 730.345 -1464.11 754.342 -1386.52 774.04L-1386.78 775.077L-1387.82 774.774C-1367.56 702.633 -1343.09 652.307 -1330.02 628.289L-1329.07 628.807L-1329.59 629.757L-1561.52 505.649L-1561 504.698L-1560.05 505.195C-1576.34 536.427 -1610.66 609.001 -1637.68 711.964L-1638.72 711.683L-1639.75 711.402C-1612.69 608.245 -1578.3 535.52 -1561.95 504.18L-1561.45 503.208L-1327.6 628.332L-1328.12 629.282C-1341.12 653.193 -1365.55 703.368 -1385.75 775.336L-1386.03 776.351L-1387.04 776.092C-1464.6 756.393 -1560.33 732.397 -1638.97 712.72L-1640.03 712.461L-1639.75 711.402L-1638.72 711.683V711.726ZM-1146.99 108.137L-1146.36 109.023C-1265.16 192.806 -1363.67 298.361 -1439.14 422.751C-1439.79 423.809 -1441.93 427.481 -1443.93 430.98C-1445.01 432.859 -1446.09 434.717 -1446.89 436.078L-1451.47 443.918L-1328.38 513.878L-1323.91 506.275C-1323.09 504.893 -1321.98 503.013 -1320.88 501.07L-1320.41 500.249C-1318.49 496.966 -1316.58 493.683 -1315.92 492.581C-1252.09 388.473 -1169.41 299.657 -1070.14 228.531L-1063.29 223.606L-1138.63 103.537L-1146.36 109.001L-1146.99 108.116L-1147.61 107.23L-1138 100.448L-1060.38 224.168L-1068.89 230.259C-1167.9 301.212 -1250.38 389.834 -1314.08 493.683C-1314.73 494.741 -1316.65 498.046 -1318.55 501.329L-1319.03 502.149C-1320.15 504.072 -1321.25 505.951 -1322.07 507.355L-1327.62 516.772L-1454.45 444.696L-1448.77 434.976C-1447.97 433.594 -1446.89 431.758 -1445.81 429.879C-1443.8 426.38 -1441.67 422.729 -1441 421.606C-1365.38 296.957 -1266.65 191.186 -1147.61 107.23L-1146.99 108.116V108.137ZM-270.45 -51.5888L-270.731 -50.5521C-352.872 -71.9785 -437.628 -83.3828 -522.707 -84.398L-532.167 -84.5276L-526.292 56.9903L-517.847 57.1631C-373.262 60.0142 -229.347 98.1367 -101.652 167.492L-93.9197 171.682L-23.96 48.5882L-31.9733 44.2036C-107.57 2.92752 -187.876 -28.9529 -270.731 -50.5736L-270.45 -51.6104L-270.169 -52.6472C-187.142 -30.9832 -106.663 0.962006 -30.9149 42.3244L-20.9792 47.7675L-93.0773 174.598L-102.667 169.392C-230.059 100.21 -373.651 62.1525 -517.89 59.323L-528.366 59.107L-534.414 -86.7091L-522.664 -86.5579C-437.412 -85.5211 -352.484 -74.1168 -270.169 -52.6472L-270.45 -51.6104V-51.5888ZM118.184 473.401L118.832 474.265L25.4374 545.348L95.8723 637.879L188.425 567.444L117.32 474.049L118.184 473.401L119.048 472.753L191.449 567.854L95.4619 640.903L22.4135 544.938L118.4 471.889L119.048 472.753L118.184 473.401ZM99.5442 845.857L99.1771 844.842L127.774 834.539L96.7363 748.337L10.5555 779.353L41.5719 865.534L99.1554 844.821L99.5226 845.836L99.8898 846.851L40.276 868.299L7.79089 778.057L98.0322 745.572L130.517 835.835L99.8898 846.851L99.5226 845.836L99.5442 845.857ZM-26.2494 237.127L-25.6014 236.263L104.814 333.719L201.644 204.167L72.0699 107.338L-25.3855 237.754L-26.2494 237.106L-27.1134 236.458L71.6381 104.314L204.667 203.714L105.246 336.721L-27.7614 237.322L-27.1134 236.458L-26.2494 237.106V237.127ZM25.5022 1014.96L24.4222 1015.07L16.517 934.781L-62.7089 942.578L-54.9116 1021.8L25.3726 1013.9L25.4807 1014.98L25.5886 1016.06L-56.8556 1024.18L-65.0848 940.656L18.4393 932.448L26.6686 1015.97L25.5886 1016.08L25.4807 1015L25.5022 1014.96ZM0.274292 875.211L-0.740845 875.578L-28.0638 799.657L-102.97 826.612L-76.014 901.518L-0.114502 874.195L0.252686 875.211L0.619995 876.226L-77.3315 904.283L-105.756 825.317L-26.7894 796.892L1.63501 875.859L0.619995 876.226L0.252686 875.211H0.274292ZM401.544 432.363L400.68 433.032L300.913 304.366L173.089 403.463L272.187 531.265L400.853 431.52L401.522 432.384L402.192 433.248L271.819 534.311L170.087 403.096L301.324 301.342L403.056 432.579L402.192 433.248L401.522 432.384L401.544 432.363Z" fill="url(#paint0_linear_15145_7821)"/>
<defs>
<linearGradient id="paint0_linear_15145_7821" x1="-1686.32" y1="339.891" x2="668.213" y2="1699.28" gradientUnits="userSpaceOnUse">
<stop offset="0.03" stop-color="#03A8AC"/>
<stop offset="0.0301" stop-color="#03A8AC"/>
<stop offset="0.07" stop-color="#069BA5"/>
<stop offset="0.315" stop-color="#21417A"/>
<stop offset="0.3951" stop-color="#2E1866"/>
<stop offset="0.48" stop-color="#331A71"/>
<stop offset="0.6251" stop-color="#117895" stop-opacity="0.83"/>
<stop offset="0.725" stop-color="#8C2693" stop-opacity="0.79"/>
<stop offset="0.855" stop-color="#8C2693" stop-opacity="0.2"/>
<stop offset="1" stop-color="#8C2693" stop-opacity="0"/>
</linearGradient>
</defs>
</svg>
