<svg width="425" height="113" viewBox="0 0 425 113" fill="none" xmlns="http://www.w3.org/2000/svg">
<path d="M5.69369 113C2.54915 113 -1.10903e-07 110.451 -2.48355e-07 107.306L-4.93886e-06 1.85773e-05L425 0L425 107.306C425 110.451 422.451 113 419.306 113L5.69369 113Z" fill="#2E1866"/>
<path d="M72.4206 66.05V66.98C72.4206 66.99 72.3706 67 72.2606 67H68.5306C66.9106 67 65.7506 66.03 65.7506 64.44C65.7506 62.87 66.8806 61.9 68.4506 61.9C69.2606 61.9 70.1106 62.16 70.5906 62.47V66.05H72.4206ZM68.4406 66.05H69.6406V63.08C69.2906 62.91 68.8206 62.8 68.3806 62.8C67.3906 62.8 66.6806 63.38 66.6806 64.43C66.6806 65.48 67.4006 66.05 68.4406 66.05ZM66.8606 60.26C66.8606 59.9 67.1406 59.62 67.5106 59.62C67.8606 59.62 68.1406 59.9 68.1406 60.26C68.1406 60.61 67.8606 60.9 67.5106 60.9C67.1506 60.9 66.8606 60.61 66.8606 60.26ZM68.7806 60.26C68.7806 59.9 69.0606 59.62 69.4206 59.62C69.7806 59.62 70.0606 59.9 70.0606 60.26C70.0606 60.61 69.7806 60.9 69.4206 60.9C69.0606 60.9 68.7806 60.61 68.7806 60.26ZM77.3088 65.21V66.4C76.9388 66.59 76.4788 66.73 75.9288 66.84C75.3888 66.95 74.8488 67 74.3088 67H72.2588C72.1488 67 72.0988 66.99 72.0988 66.98V66.05H74.4088C75.1588 66.05 75.8688 65.9 76.3588 65.7V65.24C76.3188 64.2 75.9788 63.95 74.4088 63.49L73.2388 63.17L73.0188 62.4L76.5788 59.59L77.0788 60.21L74.1288 62.5L74.7888 62.68C76.5488 63.17 77.2788 63.71 77.3088 65.21ZM79.3072 67V59.7H80.2572V67H79.3072ZM85.2311 66.05H85.3911V66.98C85.3911 66.99 85.3411 67 85.2311 67H85.2211C84.6111 67 84.0311 66.87 83.4911 66.62V66.72C83.4911 68.68 82.5511 69.58 80.8711 69.58C80.6811 69.58 80.4611 69.57 80.2111 69.54L80.3911 68.6C80.5511 68.62 80.7011 68.63 80.8411 68.63C82.0411 68.63 82.5411 68.01 82.5411 66.73V62.17H83.4911V65.6C83.9411 65.91 84.5811 66.05 85.2311 66.05ZM96.0175 66.05H96.1775V66.98C96.1775 66.99 96.1275 67 96.0175 67H96.0075C95.2575 67 94.5675 66.83 93.9275 66.48C93.4575 66.81 92.8575 67 92.2675 67C91.6775 67 91.1475 66.82 90.6575 66.46C90.1675 66.82 89.6375 67 89.0575 67C88.3675 67 87.7575 66.73 87.3875 66.44C86.9775 66.75 86.1475 67 85.2375 67H85.2275C85.1175 67 85.0675 66.99 85.0675 66.98V66.05H85.2275C85.8175 66.05 86.3775 65.92 86.9275 65.65V63.32H87.8775V65.67C88.2275 65.92 88.6075 66.05 89.0175 66.05C89.4275 66.05 89.8075 65.93 90.1475 65.68V63.32H91.0975V65.68C91.4475 65.93 91.8275 66.05 92.2375 66.05C92.6475 66.05 93.0275 65.92 93.3675 65.67V62.87H94.3175V65.66C94.8075 65.92 95.3675 66.05 96.0175 66.05ZM90.0075 60.21C90.0075 59.86 90.2875 59.6 90.6175 59.6C90.9475 59.6 91.2275 59.88 91.2275 60.21C91.2275 60.54 90.9475 60.82 90.6175 60.82C90.2875 60.82 90.0075 60.54 90.0075 60.21ZM89.1075 61.54C89.1075 61.19 89.3775 60.93 89.7275 60.93C90.0575 60.93 90.3275 61.21 90.3275 61.54C90.3275 61.87 90.0575 62.15 89.7275 62.15C89.3775 62.15 89.1075 61.89 89.1075 61.54ZM90.9075 61.54C90.9075 61.19 91.1775 60.93 91.5275 60.93C91.8775 60.93 92.1275 61.19 92.1275 61.54C92.1275 61.89 91.8775 62.15 91.5275 62.15C91.1775 62.15 90.9075 61.89 90.9075 61.54ZM98.6686 59.7V66.09C98.0686 66.62 97.0586 67 96.0286 67H96.0186C95.9086 67 95.8586 66.99 95.8586 66.98V66.05H96.0186C96.6186 66.05 97.2686 65.91 97.7186 65.66V59.7H98.6686ZM100.967 67V59.7H101.917V67H100.967ZM121.279 66.05H121.439V66.98C121.439 66.99 121.389 67 121.279 67H121.269C120.519 67 119.839 66.83 119.219 66.5C118.749 66.85 118.129 67.04 117.519 67.04C116.929 67.04 116.399 66.86 115.909 66.5C115.439 66.86 114.919 67.04 114.349 67.04C113.879 67.04 113.469 66.92 113.099 66.68V68.67C112.149 69.19 111.109 69.58 109.839 69.58C107.649 69.58 106.369 68.37 106.369 66.46C106.369 65.97 106.439 65.48 106.569 65L107.439 65.16C107.349 65.53 107.299 65.91 107.299 66.3C107.299 67.79 108.209 68.63 109.919 68.63C110.709 68.63 111.459 68.45 112.179 68.09V63.32H113.129V65.71C113.479 65.96 113.859 66.09 114.269 66.09C114.679 66.09 115.059 65.97 115.399 65.72V63.32H116.349V65.72C116.699 65.97 117.079 66.09 117.489 66.09C117.899 66.09 118.279 65.96 118.619 65.71V62.87H119.579V65.66C120.069 65.92 120.629 66.05 121.279 66.05ZM125.632 66.05H125.792V66.98C125.792 66.99 125.742 67 125.632 67H125.622C124.822 67 124.062 66.79 123.462 66.47C122.852 66.79 122.092 67 121.292 67H121.282C121.172 67 121.122 66.99 121.122 66.98V66.05H121.282C121.932 66.05 122.492 65.92 122.982 65.66V59.7H123.932V65.66C124.422 65.92 124.982 66.05 125.632 66.05ZM132.338 66.05V66.98C132.338 66.99 132.288 67 132.178 67H125.628C125.518 67 125.468 66.99 125.468 66.98V66.05H130.068C129.658 65.57 129.488 65.17 129.288 64.41C128.918 63.12 128.778 62.78 127.828 62.73C127.388 62.73 127.028 62.85 126.518 63.17L125.998 62.5C126.588 62.05 127.208 61.83 127.858 61.83C129.318 61.87 129.718 62.45 130.158 64.07C130.398 64.94 130.628 65.55 131.078 65.95C131.168 66.02 131.368 66.05 131.668 66.05H132.338ZM127.738 68.45C127.738 68.08 128.018 67.8 128.388 67.8C128.748 67.8 129.038 68.08 129.038 68.45C129.038 68.82 128.748 69.1 128.388 69.1C128.018 69.1 127.738 68.82 127.738 68.45ZM138.461 64.9C138.461 66.4 137.411 67.5 135.961 67.5C135.151 67.5 134.431 67.16 133.991 66.57C133.441 66.86 132.841 67 132.191 67H132.181C132.071 67 132.021 66.99 132.021 66.98V66.05H132.181C132.731 66.05 133.191 65.95 133.581 65.76C133.501 65.5 133.461 65.21 133.461 64.9C133.461 63.4 134.511 62.3 135.961 62.3C137.411 62.3 138.461 63.4 138.461 64.9ZM137.531 64.9C137.531 64.41 137.381 64 137.091 63.68C136.801 63.36 136.421 63.2 135.951 63.2C135.481 63.2 135.111 63.36 134.821 63.68C134.531 64 134.391 64.41 134.391 64.9C134.391 65.39 134.531 65.8 134.821 66.12C135.111 66.44 135.481 66.6 135.951 66.6C136.421 66.6 136.801 66.44 137.091 66.12C137.381 65.8 137.531 65.39 137.531 64.9ZM157.324 66.05H157.484V66.98C157.484 66.99 157.434 67 157.324 67H157.314C156.564 67 155.884 66.83 155.264 66.5C154.794 66.85 154.174 67.04 153.564 67.04C152.974 67.04 152.444 66.86 151.954 66.5C151.484 66.86 150.964 67.04 150.394 67.04C149.924 67.04 149.514 66.92 149.144 66.68V68.67C148.194 69.19 147.154 69.58 145.884 69.58C143.694 69.58 142.414 68.37 142.414 66.46C142.414 65.97 142.484 65.48 142.614 65L143.484 65.16C143.394 65.53 143.344 65.91 143.344 66.3C143.344 67.79 144.254 68.63 145.964 68.63C146.754 68.63 147.504 68.45 148.224 68.09V63.32H149.174V65.71C149.524 65.96 149.904 66.09 150.314 66.09C150.724 66.09 151.104 65.97 151.444 65.72V63.32H152.394V65.72C152.744 65.97 153.124 66.09 153.534 66.09C153.944 66.09 154.324 65.96 154.664 65.71V62.87H155.624V65.66C156.114 65.92 156.674 66.05 157.324 66.05ZM161.677 66.05H161.837V66.98C161.837 66.99 161.787 67 161.677 67H161.667C160.867 67 160.107 66.79 159.507 66.47C158.897 66.79 158.137 67 157.337 67H157.327C157.217 67 157.167 66.99 157.167 66.98V66.05H157.327C157.977 66.05 158.537 65.92 159.027 65.66V62.07H159.977V65.66C160.467 65.92 161.027 66.05 161.677 66.05ZM157.917 68.44C157.917 68.08 158.197 67.8 158.567 67.8C158.917 67.8 159.197 68.08 159.197 68.44C159.197 68.79 158.917 69.08 158.567 69.08C158.207 69.08 157.917 68.8 157.917 68.44ZM159.837 68.44C159.837 68.08 160.117 67.8 160.477 67.8C160.837 67.8 161.117 68.08 161.117 68.44C161.117 68.79 160.837 69.08 160.477 69.08C160.117 69.08 159.837 68.79 159.837 68.44ZM164.323 62.07V66.4C164.013 66.57 163.623 66.72 163.133 66.83C162.643 66.94 162.163 67 161.683 67H161.673C161.563 67 161.513 66.99 161.513 66.98V66.05H161.673C162.353 66.05 162.983 65.92 163.373 65.75V62.07H164.323ZM164.293 60.39H164.843V61.1H162.773V60.39H163.253C163.103 60.22 163.023 60.01 163.023 59.78C163.023 59.27 163.403 58.88 163.963 58.88C164.273 58.88 164.533 58.98 164.753 59.19L164.363 59.62C164.283 59.54 164.173 59.5 164.033 59.5C163.793 59.5 163.633 59.67 163.633 59.91C163.633 60.19 163.843 60.39 164.293 60.39ZM164.43 69.54L164.61 68.6C164.77 68.62 164.92 68.63 165.06 68.63C166.26 68.63 166.76 68.01 166.76 66.73V62.17H167.71V66.72C167.71 68.68 166.77 69.58 165.09 69.58C164.9 69.58 164.68 69.57 164.43 69.54ZM174.322 62.72V66.69C174.322 68.66 173.222 69.58 171.432 69.58C170.842 69.58 170.192 69.47 169.682 69.28L169.842 68.39C170.232 68.54 170.862 68.68 171.462 68.68C172.702 68.68 173.312 68.15 173.362 67H172.272C170.532 67 169.452 66.02 169.452 64.58C169.452 63.11 170.552 62.15 172.162 62.15C172.852 62.15 173.572 62.34 174.322 62.72ZM172.132 66.05H173.372V63.35C172.942 63.15 172.532 63.05 172.122 63.05C171.122 63.05 170.392 63.6 170.392 64.55C170.392 65.5 171.122 66.05 172.132 66.05ZM185.145 66.05V66.98C185.145 66.99 185.095 67 184.985 67H181.255C179.635 67 178.475 66.03 178.475 64.44C178.475 62.87 179.605 61.9 181.175 61.9C181.985 61.9 182.835 62.16 183.315 62.47V66.05H185.145ZM181.165 66.05H182.365V63.08C182.015 62.91 181.545 62.8 181.105 62.8C180.115 62.8 179.405 63.38 179.405 64.43C179.405 65.48 180.125 66.05 181.165 66.05ZM179.585 60.26C179.585 59.9 179.865 59.62 180.235 59.62C180.585 59.62 180.865 59.9 180.865 60.26C180.865 60.61 180.585 60.9 180.235 60.9C179.875 60.9 179.585 60.61 179.585 60.26ZM181.505 60.26C181.505 59.9 181.785 59.62 182.145 59.62C182.505 59.62 182.785 59.9 182.785 60.26C182.785 60.61 182.505 60.9 182.145 60.9C181.785 60.9 181.505 60.61 181.505 60.26ZM189.333 66.05H189.493V66.98C189.493 66.99 189.443 67 189.333 67H189.323C188.523 67 187.763 66.79 187.163 66.47C186.553 66.79 185.793 67 184.993 67H184.983C184.873 67 184.823 66.99 184.823 66.98V66.05H184.983C185.633 66.05 186.193 65.92 186.683 65.66V62.07H187.633V65.66C188.123 65.92 188.683 66.05 189.333 66.05ZM185.573 68.44C185.573 68.08 185.853 67.8 186.223 67.8C186.573 67.8 186.853 68.08 186.853 68.44C186.853 68.79 186.573 69.08 186.223 69.08C185.863 69.08 185.573 68.8 185.573 68.44ZM187.493 68.44C187.493 68.08 187.773 67.8 188.133 67.8C188.493 67.8 188.773 68.08 188.773 68.44C188.773 68.79 188.493 69.08 188.133 69.08C187.773 69.08 187.493 68.79 187.493 68.44ZM193.679 66.05H193.839V66.98C193.839 66.99 193.789 67 193.679 67H193.669C192.869 67 192.109 66.79 191.509 66.47C190.899 66.79 190.139 67 189.339 67H189.329C189.219 67 189.169 66.99 189.169 66.98V66.05H189.329C189.979 66.05 190.539 65.92 191.029 65.66V62.07H191.979V65.66C192.469 65.92 193.029 66.05 193.679 66.05ZM189.919 60.46C189.919 60.1 190.199 59.82 190.569 59.82C190.919 59.82 191.199 60.1 191.199 60.46C191.199 60.81 190.919 61.1 190.569 61.1C190.209 61.1 189.919 60.81 189.919 60.46ZM191.839 60.46C191.839 60.1 192.119 59.82 192.479 59.82C192.839 59.82 193.119 60.1 193.119 60.46C193.119 60.81 192.839 61.1 192.479 61.1C192.119 61.1 191.839 60.81 191.839 60.46ZM204.465 66.05H204.625V66.98C204.625 66.99 204.575 67 204.465 67H204.455C203.705 67 203.015 66.83 202.375 66.48C201.905 66.81 201.305 67 200.715 67C200.125 67 199.595 66.82 199.105 66.46C198.615 66.82 198.085 67 197.505 67C196.815 67 196.205 66.73 195.835 66.44C195.425 66.75 194.595 67 193.685 67H193.675C193.565 67 193.515 66.99 193.515 66.98V66.05H193.675C194.265 66.05 194.825 65.92 195.375 65.65V63.32H196.325V65.67C196.675 65.92 197.055 66.05 197.465 66.05C197.875 66.05 198.255 65.93 198.595 65.68V63.32H199.545V65.68C199.895 65.93 200.275 66.05 200.685 66.05C201.095 66.05 201.475 65.92 201.815 65.67V62.87H202.765V65.66C203.255 65.92 203.815 66.05 204.465 66.05ZM210.276 66.18L210.026 67H204.466C204.356 67 204.306 66.99 204.306 66.98V66.05H208.916C208.516 65.58 208.346 65.16 208.146 64.43C207.786 63.12 207.626 62.79 206.676 62.73C206.246 62.73 205.866 62.85 205.356 63.17L204.836 62.5C205.446 62.05 206.066 61.83 206.706 61.83C208.156 61.87 208.576 62.48 209.006 64.05C209.296 65.13 209.586 65.85 210.276 66.18ZM206.586 68.45C206.586 68.08 206.866 67.8 207.236 67.8C207.596 67.8 207.886 68.08 207.886 68.45C207.886 68.82 207.596 69.1 207.236 69.1C206.866 69.1 206.586 68.82 206.586 68.45ZM218.202 66.05V66.98C218.202 66.99 218.152 67 218.042 67H216.382C216.262 68.76 215.182 69.58 213.502 69.58C212.912 69.58 212.262 69.47 211.752 69.28L211.912 68.39C212.302 68.54 212.932 68.68 213.532 68.68C214.772 68.68 215.382 68.15 215.432 67H214.342C212.602 67 211.522 66.02 211.522 64.58C211.522 63.11 212.622 62.15 214.232 62.15C214.922 62.15 215.642 62.34 216.392 62.72V66.05H218.202ZM214.202 66.05H215.442V63.35C215.012 63.15 214.602 63.05 214.192 63.05C213.192 63.05 212.462 63.6 212.462 64.55C212.462 65.5 213.192 66.05 214.202 66.05ZM222.39 66.05H222.55V66.98C222.55 66.99 222.5 67 222.39 67H222.38C221.58 67 220.82 66.79 220.22 66.47C219.61 66.79 218.85 67 218.05 67H218.04C217.93 67 217.88 66.99 217.88 66.98V66.05H218.04C218.69 66.05 219.25 65.92 219.74 65.66V59.7H220.69V65.66C221.18 65.92 221.74 66.05 222.39 66.05ZM225.036 59.7V66.09C224.436 66.62 223.426 67 222.396 67H222.386C222.276 67 222.226 66.99 222.226 66.98V66.05H222.386C222.986 66.05 223.636 65.91 224.086 65.66V59.7H225.036ZM227.335 67V59.7H228.285V67H227.335ZM232.787 64.66C232.787 64.17 232.877 63.62 233.047 62.99L233.927 63.14C233.797 63.63 233.737 64.05 233.737 64.4C233.737 65.5 234.387 66.05 235.677 66.05H239.687C240.617 66.05 241.347 65.92 241.747 65.73V62.07H242.697V66.44C242.057 66.77 240.967 67 239.577 67H235.597C234.717 67 234.027 66.82 233.527 66.47C233.037 66.12 232.787 65.51 232.787 64.66ZM236.197 61.86C236.197 61.5 236.477 61.22 236.847 61.22C237.197 61.22 237.477 61.5 237.477 61.86C237.477 62.21 237.197 62.5 236.847 62.5C236.487 62.5 236.197 62.21 236.197 61.86ZM238.117 61.86C238.117 61.5 238.397 61.22 238.757 61.22C239.117 61.22 239.397 61.5 239.397 61.86C239.397 62.21 239.117 62.5 238.757 62.5C238.397 62.5 238.117 62.21 238.117 61.86ZM247.494 66.05H247.654V66.98C247.654 66.99 247.604 67 247.494 67H247.484C246.614 67 245.814 66.77 245.224 66.45C244.934 66.29 244.844 66.14 244.844 65.79V59.7H245.794V65.66C246.264 65.91 246.884 66.05 247.494 66.05ZM253.773 64.9C253.773 66.4 252.723 67.5 251.273 67.5C250.463 67.5 249.743 67.16 249.303 66.57C248.753 66.86 248.153 67 247.503 67H247.493C247.383 67 247.333 66.99 247.333 66.98V66.05H247.493C248.043 66.05 248.503 65.95 248.893 65.76C248.813 65.5 248.773 65.21 248.773 64.9C248.773 63.4 249.823 62.3 251.273 62.3C252.723 62.3 253.773 63.4 253.773 64.9ZM252.843 64.9C252.843 64.41 252.693 64 252.403 63.68C252.113 63.36 251.733 63.2 251.263 63.2C250.793 63.2 250.423 63.36 250.133 63.68C249.843 64 249.703 64.41 249.703 64.9C249.703 65.39 249.843 65.8 250.133 66.12C250.423 66.44 250.793 66.6 251.263 66.6C251.733 66.6 252.113 66.44 252.403 66.12C252.693 65.8 252.843 65.39 252.843 64.9ZM261.077 66.05V66.98C261.077 66.99 261.027 67 260.917 67H254.927V66.05H258.477V64.52C258.477 63.4 258.087 63.13 256.917 63.13H255.917V62.18H256.717C258.707 62.18 259.427 62.83 259.427 64.48V66.05H261.077ZM267.631 66.05V66.98C267.631 66.99 267.581 67 267.471 67H260.921C260.811 67 260.761 66.99 260.761 66.98V66.05H265.361C264.951 65.57 264.781 65.17 264.581 64.41C264.211 63.12 264.071 62.78 263.121 62.73C262.681 62.73 262.321 62.85 261.811 63.17L261.291 62.5C261.881 62.05 262.501 61.83 263.151 61.83C264.611 61.87 265.011 62.45 265.451 64.07C265.691 64.94 265.921 65.55 266.371 65.95C266.461 66.02 266.661 66.05 266.961 66.05H267.631ZM262.581 60.36C262.581 59.99 262.871 59.7 263.241 59.7C263.601 59.7 263.881 59.99 263.881 60.36C263.881 60.71 263.601 61 263.241 61C262.871 61 262.581 60.72 262.581 60.36ZM270.124 59.7V66.09C269.524 66.62 268.514 67 267.484 67H267.474C267.364 67 267.314 66.99 267.314 66.98V66.05H267.474C268.074 66.05 268.724 65.91 269.174 65.66V59.7H270.124ZM272.422 67V59.7H273.372V67H272.422ZM280.044 62.72V66.69C280.044 68.66 278.944 69.58 277.154 69.58C276.564 69.58 275.914 69.47 275.404 69.28L275.564 68.39C275.954 68.54 276.584 68.68 277.184 68.68C278.424 68.68 279.034 68.15 279.084 67H277.994C276.254 67 275.174 66.02 275.174 64.58C275.174 63.11 276.274 62.15 277.884 62.15C278.574 62.15 279.294 62.34 280.044 62.72ZM277.854 66.05H279.094V63.35C278.664 63.15 278.254 63.05 277.844 63.05C276.844 63.05 276.114 63.6 276.114 64.55C276.114 65.5 276.844 66.05 277.854 66.05ZM292.738 66.05H292.898V66.98C292.898 66.99 292.848 67 292.738 67H292.728C292.148 67 291.578 66.89 291.018 66.68V68.61C290.228 69.17 289.038 69.58 287.748 69.58C285.558 69.58 284.348 68.47 284.348 66.44C284.348 65.93 284.418 65.43 284.548 64.95L285.418 65.11C285.328 65.5 285.278 65.88 285.278 66.26C285.278 67.87 286.138 68.63 287.808 68.63C288.698 68.63 289.398 68.41 290.068 68.09V59.7H291.018V62.17H291.028V65.66C291.518 65.92 292.088 66.05 292.738 66.05ZM300.167 66.05V66.98C300.167 66.99 300.117 67 300.007 67H292.737C292.627 67 292.577 66.99 292.577 66.98V66.05H295.037C294.357 65.57 293.867 64.85 293.867 63.9C293.867 62.53 294.907 61.59 296.377 61.59C297.857 61.59 298.877 62.53 298.877 63.9C298.877 64.85 298.387 65.57 297.717 66.05H300.167ZM294.797 63.98C294.797 64.45 294.957 64.85 295.287 65.19C295.617 65.53 295.977 65.77 296.377 65.92C296.777 65.77 297.137 65.53 297.457 65.19C297.787 64.85 297.947 64.45 297.947 63.98C297.947 63.09 297.297 62.49 296.377 62.49C295.457 62.49 294.797 63.1 294.797 63.98ZM294.767 59.96C294.767 59.6 295.047 59.32 295.417 59.32C295.767 59.32 296.047 59.6 296.047 59.96C296.047 60.31 295.767 60.6 295.417 60.6C295.057 60.6 294.767 60.31 294.767 59.96ZM296.687 59.96C296.687 59.6 296.967 59.32 297.327 59.32C297.687 59.32 297.967 59.6 297.967 59.96C297.967 60.31 297.687 60.6 297.327 60.6C296.967 60.6 296.687 60.31 296.687 59.96ZM304.353 66.05H304.513V66.98C304.513 66.99 304.463 67 304.353 67H304.343C303.543 67 302.783 66.79 302.183 66.47C301.573 66.79 300.813 67 300.013 67H300.003C299.893 67 299.843 66.99 299.843 66.98V66.05H300.003C300.653 66.05 301.213 65.92 301.703 65.66V62.07H302.653V65.66C303.143 65.92 303.703 66.05 304.353 66.05ZM301.533 60.46C301.533 60.09 301.823 59.8 302.193 59.8C302.553 59.8 302.833 60.09 302.833 60.46C302.833 60.81 302.553 61.1 302.193 61.1C301.823 61.1 301.533 60.82 301.533 60.46ZM306.999 59.7V66.09C306.399 66.62 305.389 67 304.359 67H304.349C304.239 67 304.189 66.99 304.189 66.98V66.05H304.349C304.949 66.05 305.599 65.91 306.049 65.66V59.7H306.999ZM309.297 67V59.7H310.247V67H309.297ZM318.219 66.05H318.379V66.98C318.379 66.99 318.329 67 318.219 67H318.209C317.599 67 317.019 66.87 316.479 66.62V66.72C316.479 68.68 315.539 69.58 313.859 69.58C313.669 69.58 313.449 69.57 313.199 69.54L313.379 68.6C313.539 68.62 313.689 68.63 313.829 68.63C315.029 68.63 315.529 68.01 315.529 66.73V62.17H316.479V65.6C316.929 65.91 317.569 66.05 318.219 66.05ZM320.866 62.07V66.4C320.556 66.57 320.166 66.72 319.676 66.83C319.186 66.94 318.706 67 318.226 67H318.216C318.106 67 318.056 66.99 318.056 66.98V66.05H318.216C318.896 66.05 319.526 65.92 319.916 65.75V62.07H320.866ZM318.336 68.44C318.336 68.08 318.616 67.8 318.986 67.8C319.336 67.8 319.616 68.08 319.616 68.44C319.616 68.79 319.336 69.08 318.986 69.08C318.626 69.08 318.336 68.8 318.336 68.44ZM320.256 68.44C320.256 68.08 320.536 67.8 320.896 67.8C321.256 67.8 321.536 68.08 321.536 68.44C321.536 68.79 321.256 69.08 320.896 69.08C320.536 69.08 320.256 68.79 320.256 68.44ZM321.969 69.54L322.149 68.6C322.309 68.62 322.459 68.63 322.599 68.63C323.799 68.63 324.299 68.01 324.299 66.73V62.17H325.249V66.72C325.249 68.68 324.309 69.58 322.629 69.58C322.439 69.58 322.219 69.57 321.969 69.54ZM324.149 60.46C324.149 60.09 324.439 59.8 324.809 59.8C325.169 59.8 325.449 60.09 325.449 60.46C325.449 60.81 325.169 61.1 324.809 61.1C324.439 61.1 324.149 60.82 324.149 60.46ZM331.861 62.72V66.69C331.861 68.66 330.761 69.58 328.971 69.58C328.381 69.58 327.731 69.47 327.221 69.28L327.381 68.39C327.771 68.54 328.401 68.68 329.001 68.68C330.241 68.68 330.851 68.15 330.901 67H329.811C328.071 67 326.991 66.02 326.991 64.58C326.991 63.11 328.091 62.15 329.701 62.15C330.391 62.15 331.111 62.34 331.861 62.72ZM329.671 66.05H330.911V63.35C330.481 63.15 330.071 63.05 329.661 63.05C328.661 63.05 327.931 63.6 327.931 64.55C327.931 65.5 328.661 66.05 329.671 66.05ZM347.794 66.05H347.954V66.98C347.954 66.99 347.904 67 347.794 67H347.784C346.974 67 346.204 66.79 345.594 66.46C344.944 66.82 344.074 67 342.974 67H339.024C338.144 67 337.454 66.82 336.954 66.47C336.464 66.12 336.214 65.51 336.214 64.66C336.214 64.17 336.304 63.62 336.474 62.99L337.354 63.14C337.224 63.63 337.164 64.05 337.164 64.4C337.164 65.5 337.814 66.05 339.104 66.05H343.114C344.064 66.05 344.744 65.87 345.144 65.67V62.07H346.094V65.66C346.584 65.92 347.144 66.05 347.794 66.05ZM340.674 68.45C340.674 68.08 340.954 67.8 341.324 67.8C341.684 67.8 341.974 68.08 341.974 68.45C341.974 68.82 341.684 69.1 341.324 69.1C340.954 69.1 340.674 68.82 340.674 68.45ZM350.446 62.07V66.4C350.136 66.57 349.746 66.72 349.256 66.83C348.766 66.94 348.286 67 347.806 67H347.796C347.686 67 347.636 66.99 347.636 66.98V66.05H347.796C348.476 66.05 349.106 65.92 349.496 65.75V62.07H350.446ZM350.416 60.39H350.966V61.1H348.896V60.39H349.376C349.226 60.22 349.146 60.01 349.146 59.78C349.146 59.27 349.526 58.88 350.086 58.88C350.396 58.88 350.656 58.98 350.876 59.19L350.486 59.62C350.406 59.54 350.296 59.5 350.156 59.5C349.916 59.5 349.756 59.67 349.756 59.91C349.756 60.19 349.966 60.39 350.416 60.39ZM355.248 66.05H355.408V66.98C355.408 66.99 355.358 67 355.248 67H355.238C354.368 67 353.568 66.77 352.978 66.45C352.688 66.29 352.598 66.14 352.598 65.79V59.7H353.548V65.66C354.018 65.91 354.638 66.05 355.248 66.05ZM357.897 62.07V66.4C357.587 66.57 357.197 66.72 356.707 66.83C356.217 66.94 355.737 67 355.257 67H355.247C355.137 67 355.087 66.99 355.087 66.98V66.05H355.247C355.927 66.05 356.557 65.92 356.947 65.75V62.07H357.897ZM356.727 60.46C356.727 60.09 357.017 59.8 357.387 59.8C357.747 59.8 358.027 60.09 358.027 60.46C358.027 60.81 357.747 61.1 357.387 61.1C357.017 61.1 356.727 60.82 356.727 60.46ZM154.775 82.53V85H148.725V86.62C147.735 87.18 146.725 87.58 145.435 87.58C143.245 87.58 141.965 86.37 141.965 84.46C141.965 83.97 142.035 83.48 142.165 83L143.035 83.16C142.945 83.53 142.895 83.91 142.895 84.3C142.895 85.79 143.805 86.63 145.515 86.63C146.305 86.63 147.055 86.45 147.775 86.09V80.51H148.725V81.82C149.995 80.51 151.085 79.83 152.325 79.83C153.815 79.83 154.775 80.8 154.775 82.53ZM148.725 84.05H153.825V82.67C153.825 81.54 153.295 80.74 152.165 80.74C151.075 80.74 150.045 81.48 148.725 83.05V84.05ZM159.526 84.05H159.686V84.98C159.686 84.99 159.636 85 159.526 85H159.516C158.646 85 157.846 84.77 157.256 84.45C156.966 84.29 156.876 84.14 156.876 83.79V77.7H157.826V83.66C158.296 83.91 158.916 84.05 159.526 84.05ZM166.234 84.05V84.98C166.234 84.99 166.184 85 166.074 85H159.524C159.414 85 159.364 84.99 159.364 84.98V84.05H163.964C163.554 83.57 163.384 83.17 163.184 82.41C162.814 81.12 162.674 80.78 161.724 80.73C161.284 80.73 160.924 80.85 160.414 81.17L159.894 80.5C160.484 80.05 161.104 79.83 161.754 79.83C163.214 79.87 163.614 80.45 164.054 82.07C164.294 82.94 164.524 83.55 164.974 83.95C165.064 84.02 165.264 84.05 165.564 84.05H166.234ZM161.184 78.36C161.184 77.99 161.474 77.7 161.844 77.7C162.204 77.7 162.484 77.99 162.484 78.36C162.484 78.71 162.204 79 161.844 79C161.474 79 161.184 78.72 161.184 78.36ZM168.727 77.7V84.09C168.127 84.62 167.117 85 166.087 85H166.077C165.967 85 165.917 84.99 165.917 84.98V84.05H166.077C166.677 84.05 167.327 83.91 167.777 83.66V77.7H168.727ZM171.026 85V77.7H171.976V85H171.026ZM180.468 84.05H181.548V85H178.218C177.248 85 176.698 85.43 176.698 86.18C176.698 86.94 177.248 87.39 178.248 87.39H179.708V88.34H178.338C176.698 88.34 175.728 87.53 175.728 86.25C175.728 84.92 176.748 84.18 178.418 84.13C177.748 83.72 177.378 83.05 177.378 82.24C177.378 80.83 178.518 79.83 180.048 79.83C180.798 79.83 181.458 80.04 182.048 80.47L181.438 81.19C181.068 80.88 180.618 80.73 180.078 80.73C179.568 80.73 179.148 80.88 178.818 81.17C178.488 81.46 178.328 81.84 178.328 82.31C178.328 83.34 179.208 84.05 180.468 84.05ZM186.547 84.05H186.707V84.98C186.707 84.99 186.657 85 186.547 85H186.537C185.667 85 184.867 84.77 184.277 84.45C183.987 84.29 183.897 84.14 183.897 83.79V77.7H184.847V83.66C185.317 83.91 185.937 84.05 186.547 84.05ZM197.006 84.05V84.98C197.006 84.99 196.956 85 196.846 85H186.546C186.436 85 186.386 84.99 186.386 84.98V84.05H188.246V77.87H189.196V81.82C190.466 80.51 191.556 79.83 192.796 79.83C194.286 79.83 195.246 80.8 195.246 82.53V84.05H197.006ZM189.196 84.05H194.296V82.67C194.296 81.54 193.766 80.74 192.636 80.74C191.546 80.74 190.516 81.48 189.196 83.05V84.05ZM204.279 84.05V84.98C204.279 84.99 204.229 85 204.119 85H196.849C196.739 85 196.689 84.99 196.689 84.98V84.05H199.149C198.469 83.57 197.979 82.85 197.979 81.9C197.979 80.53 199.019 79.59 200.489 79.59C201.969 79.59 202.989 80.53 202.989 81.9C202.989 82.85 202.499 83.57 201.829 84.05H204.279ZM198.909 81.98C198.909 82.45 199.069 82.85 199.399 83.19C199.729 83.53 200.089 83.77 200.489 83.92C200.889 83.77 201.249 83.53 201.569 83.19C201.899 82.85 202.059 82.45 202.059 81.98C202.059 81.09 201.409 80.49 200.489 80.49C199.569 80.49 198.909 81.1 198.909 81.98ZM198.879 77.96C198.879 77.6 199.159 77.32 199.529 77.32C199.879 77.32 200.159 77.6 200.159 77.96C200.159 78.31 199.879 78.6 199.529 78.6C199.169 78.6 198.879 78.31 198.879 77.96ZM200.799 77.96C200.799 77.6 201.079 77.32 201.439 77.32C201.799 77.32 202.079 77.6 202.079 77.96C202.079 78.31 201.799 78.6 201.439 78.6C201.079 78.6 200.799 78.31 200.799 77.96ZM206.764 77.7V84.09C206.164 84.62 205.154 85 204.124 85H204.114C204.004 85 203.954 84.99 203.954 84.98V84.05H204.114C204.714 84.05 205.364 83.91 205.814 83.66V77.7H206.764ZM209.063 85V77.7H210.013V85H209.063ZM221.495 84.05V84.98C221.495 84.99 221.445 85 221.335 85H216.645C215.685 85 215.135 85.43 215.135 86.18C215.135 86.94 215.685 87.39 216.675 87.39H218.115V88.34H216.775C215.135 88.34 214.165 87.53 214.165 86.25C214.165 85.04 215.025 84.32 216.505 84.16L214.685 81.27L214.835 80.55C215.725 80.06 216.615 79.82 217.525 79.82C219.045 79.82 220.005 80.53 220.005 81.78C220.005 82.23 219.875 82.67 219.625 83.1C219.375 83.52 219.055 83.84 218.645 84.05H221.495ZM217.485 80.72C216.905 80.72 216.325 80.86 215.745 81.13L217.325 83.89C218.335 83.52 219.065 82.79 219.065 81.94C219.065 81.15 218.475 80.72 217.485 80.72ZM227.611 82.9C227.611 84.4 226.561 85.5 225.111 85.5C224.301 85.5 223.581 85.16 223.141 84.57C222.591 84.86 221.991 85 221.341 85H221.331C221.221 85 221.171 84.99 221.171 84.98V84.05H221.331C221.881 84.05 222.341 83.95 222.731 83.76C222.651 83.5 222.611 83.21 222.611 82.9C222.611 81.4 223.661 80.3 225.111 80.3C226.561 80.3 227.611 81.4 227.611 82.9ZM226.681 82.9C226.681 82.41 226.531 82 226.241 81.68C225.951 81.36 225.571 81.2 225.101 81.2C224.631 81.2 224.261 81.36 223.971 81.68C223.681 82 223.541 82.41 223.541 82.9C223.541 83.39 223.681 83.8 223.971 84.12C224.261 84.44 224.631 84.6 225.101 84.6C225.571 84.6 225.951 84.44 226.241 84.12C226.531 83.8 226.681 83.39 226.681 82.9ZM242.725 84.05H242.885V84.98C242.885 84.99 242.835 85 242.725 85C241.125 84.97 240.685 84.62 240.265 83.28L239.825 81.77H238.685C238.085 81.77 237.705 82.06 237.705 82.55C237.705 82.65 237.725 82.77 237.765 82.9L238.825 86.52C238.395 86.79 237.835 87.03 237.145 87.25C236.465 87.47 235.775 87.58 235.085 87.58C232.855 87.58 231.565 86.39 231.565 84.48C231.565 84 231.645 83.45 231.765 83.01L232.635 83.17C232.545 83.48 232.495 83.93 232.495 84.29C232.495 85.8 233.415 86.63 235.135 86.63C235.605 86.63 236.095 86.57 236.585 86.46C237.085 86.35 237.485 86.22 237.795 86.07L236.875 82.99C236.805 82.77 236.775 82.56 236.775 82.36C236.775 81.45 237.485 80.89 238.495 80.89H240.485L241.105 83.02C241.335 83.82 241.665 84.05 242.725 84.05ZM233.415 89.29C233.415 88.93 233.695 88.65 234.065 88.65C234.415 88.65 234.695 88.93 234.695 89.29C234.695 89.64 234.415 89.93 234.065 89.93C233.705 89.93 233.415 89.65 233.415 89.29ZM235.335 89.29C235.335 88.93 235.615 88.65 235.975 88.65C236.335 88.65 236.615 88.93 236.615 89.29C236.615 89.64 236.335 89.93 235.975 89.93C235.615 89.93 235.335 89.64 235.335 89.29ZM247.078 84.05H247.238V84.98C247.238 84.99 247.188 85 247.078 85H247.068C246.268 85 245.508 84.79 244.908 84.47C244.298 84.79 243.538 85 242.738 85H242.728C242.618 85 242.568 84.99 242.568 84.98V84.05H242.728C243.378 84.05 243.938 83.92 244.428 83.66V80.07H245.378V83.66C245.868 83.92 246.428 84.05 247.078 84.05ZM243.318 78.46C243.318 78.1 243.598 77.82 243.968 77.82C244.318 77.82 244.598 78.1 244.598 78.46C244.598 78.81 244.318 79.1 243.968 79.1C243.608 79.1 243.318 78.81 243.318 78.46ZM245.238 78.46C245.238 78.1 245.518 77.82 245.878 77.82C246.238 77.82 246.518 78.1 246.518 78.46C246.518 78.81 246.238 79.1 245.878 79.1C245.518 79.1 245.238 78.81 245.238 78.46ZM257.863 84.05H258.023V84.98C258.023 84.99 257.973 85 257.863 85H257.853C257.103 85 256.413 84.83 255.773 84.48C255.303 84.81 254.703 85 254.113 85C253.523 85 252.993 84.82 252.503 84.46C252.013 84.82 251.483 85 250.903 85C250.213 85 249.603 84.73 249.233 84.44C248.823 84.75 247.993 85 247.083 85H247.073C246.963 85 246.913 84.99 246.913 84.98V84.05H247.073C247.663 84.05 248.223 83.92 248.773 83.65V81.32H249.723V83.67C250.073 83.92 250.453 84.05 250.863 84.05C251.273 84.05 251.653 83.93 251.993 83.68V81.32H252.943V83.68C253.293 83.93 253.673 84.05 254.083 84.05C254.493 84.05 254.873 83.92 255.213 83.67V80.87H256.163V83.66C256.653 83.92 257.213 84.05 257.863 84.05ZM263.674 84.18L263.424 85H257.864C257.754 85 257.704 84.99 257.704 84.98V84.05H262.314C261.914 83.58 261.744 83.16 261.544 82.43C261.184 81.12 261.024 80.79 260.074 80.73C259.644 80.73 259.264 80.85 258.754 81.17L258.234 80.5C258.844 80.05 259.464 79.83 260.104 79.83C261.554 79.87 261.974 80.48 262.404 82.05C262.694 83.13 262.984 83.85 263.674 84.18ZM259.984 86.45C259.984 86.08 260.264 85.8 260.634 85.8C260.994 85.8 261.284 86.08 261.284 86.45C261.284 86.82 260.994 87.1 260.634 87.1C260.264 87.1 259.984 86.82 259.984 86.45ZM271.601 84.05V84.98C271.601 84.99 271.551 85 271.441 85H269.781C269.661 86.76 268.581 87.58 266.901 87.58C266.311 87.58 265.661 87.47 265.151 87.28L265.311 86.39C265.701 86.54 266.331 86.68 266.931 86.68C268.171 86.68 268.781 86.15 268.831 85H267.741C266.001 85 264.921 84.02 264.921 82.58C264.921 81.11 266.021 80.15 267.631 80.15C268.321 80.15 269.041 80.34 269.791 80.72V84.05H271.601ZM267.601 84.05H268.841V81.35C268.411 81.15 268.001 81.05 267.591 81.05C266.591 81.05 265.861 81.6 265.861 82.55C265.861 83.5 266.591 84.05 267.601 84.05ZM275.788 84.05H275.948V84.98C275.948 84.99 275.898 85 275.788 85H275.778C274.978 85 274.218 84.79 273.618 84.47C273.008 84.79 272.248 85 271.448 85H271.438C271.328 85 271.278 84.99 271.278 84.98V84.05H271.438C272.088 84.05 272.648 83.92 273.138 83.66V77.7H274.088V83.66C274.578 83.92 275.138 84.05 275.788 84.05ZM278.434 77.7V84.09C277.834 84.62 276.824 85 275.794 85H275.784C275.674 85 275.624 84.99 275.624 84.98V84.05H275.784C276.384 84.05 277.034 83.91 277.484 83.66V77.7H278.434ZM280.733 85V77.7H281.683V85H280.733Z" fill="white"/>
<path d="M115.199 37.032V38.968C115.199 38.984 115.119 39 114.943 39H107.935C106.719 39 105.903 39.64 105.903 40.68C105.903 41.72 106.703 42.392 107.983 42.392H110.431V44.344H108.351C105.615 44.344 103.919 42.984 103.919 40.696C103.919 38.392 105.583 37.064 108.223 37.064H111.279C110.687 36.408 110.431 35.832 110.127 34.744C109.583 32.872 109.359 32.344 107.935 32.264C107.279 32.264 106.687 32.44 105.903 32.936L104.879 31.624C105.887 30.856 106.943 30.472 108.047 30.472C110.351 30.504 111.119 31.496 111.839 34.008C112.159 35.24 112.511 36.2 113.199 36.856C113.343 37 113.567 37.032 113.999 37.032H115.199ZM121.786 37.032H122.042V38.968C122.042 38.984 121.962 39 121.786 39H121.77C120.538 39 119.402 38.712 118.362 38.12C117.338 38.712 116.202 39 114.954 39H114.938C114.761 39 114.681 38.984 114.681 38.968V37.032H114.938C115.914 37.032 116.73 36.856 117.418 36.52V31H119.322V36.52C119.962 36.856 120.874 37.032 121.786 37.032ZM115.674 41.32C115.674 40.664 116.186 40.168 116.842 40.168C117.482 40.168 117.978 40.68 117.978 41.32C117.978 41.944 117.466 42.456 116.842 42.456C116.186 42.456 115.674 41.944 115.674 41.32ZM118.826 41.32C118.826 40.664 119.322 40.168 119.962 40.168C120.602 40.168 121.114 40.664 121.114 41.32C121.114 41.944 120.602 42.456 119.962 42.456C119.322 42.456 118.826 41.944 118.826 41.32ZM131.845 35.64C131.845 38.04 130.149 39.8 127.797 39.8C126.501 39.8 125.365 39.272 124.613 38.328C123.749 38.776 122.805 39 121.797 39H121.781C121.605 39 121.525 38.984 121.525 38.968V37.032H121.781C122.597 37.032 123.285 36.904 123.845 36.664C123.765 36.36 123.733 36.024 123.733 35.64C123.733 33.24 125.445 31.48 127.797 31.48C130.149 31.48 131.845 33.24 131.845 35.64ZM129.957 35.64C129.957 34.296 129.093 33.32 127.765 33.32C126.485 33.32 125.621 34.296 125.621 35.64C125.621 36.984 126.485 37.96 127.765 37.96C129.093 37.96 129.957 36.984 129.957 35.64ZM139.289 37.032H139.545V38.968C139.545 38.984 139.465 39 139.289 39H139.273C138.393 39 137.561 38.84 136.777 38.504C136.761 41.72 135.161 43.16 132.425 43.16C132.024 43.16 131.64 43.128 131.304 43.08L131.672 41.176C131.912 41.208 132.136 41.224 132.361 41.224C134.169 41.224 134.873 40.344 134.873 38.488V31.208H136.777V36.44C137.401 36.84 138.233 37.032 139.289 37.032ZM143.665 27.32V37.336C142.705 38.296 141.041 39 139.297 39H139.281C139.105 39 139.025 38.984 139.025 38.968V37.032H139.281C140.177 37.032 141.121 36.856 141.761 36.52V27.32H143.665ZM146.897 39V27.32H148.801V39H146.897ZM164.998 37.032V38.968C164.998 38.984 164.918 39 164.742 39H155.19V37.032H160.646V34.824C160.646 33.352 160.038 32.92 158.438 32.92H156.678V31.016H158.006C161.398 31.016 162.55 32.008 162.55 34.744V37.032H164.998ZM176.606 37.032H176.862V38.968C176.862 38.984 176.782 39 176.606 39H176.59C175.582 39 174.654 38.776 173.838 38.328C173.118 39.24 171.966 39.8 170.67 39.8C169.374 39.8 168.222 39.24 167.502 38.328C166.686 38.776 165.758 39 164.75 39H164.734C164.558 39 164.478 38.984 164.478 38.968V37.032H164.734C165.502 37.032 166.158 36.92 166.718 36.68C166.638 36.376 166.606 36.024 166.606 35.64C166.606 33.24 168.318 31.48 170.67 31.48C173.022 31.48 174.718 33.24 174.718 35.64C174.718 36.024 174.686 36.36 174.606 36.664C175.15 36.904 175.822 37.032 176.606 37.032ZM172.83 35.64C172.83 34.296 171.966 33.32 170.638 33.32C169.358 33.32 168.494 34.296 168.494 35.64C168.494 36.984 169.358 37.96 170.638 37.96C171.966 37.96 172.83 36.984 172.83 35.64ZM187.409 37.032V38.968C187.409 38.984 187.329 39 187.153 39H176.609C176.433 39 176.353 38.984 176.353 38.968V37.032H183.473C182.897 36.392 182.657 35.816 182.353 34.744C181.777 32.84 181.617 32.344 180.145 32.264C179.489 32.264 178.897 32.44 178.113 32.936L177.089 31.624C178.081 30.856 179.137 30.472 180.273 30.472C182.593 30.52 183.329 31.48 184.049 34.008C184.417 35.304 184.753 36.2 185.393 36.84C185.569 36.984 185.857 37.032 186.385 37.032H187.409ZM197.22 35.64C197.22 38.04 195.524 39.8 193.172 39.8C191.876 39.8 190.74 39.272 189.988 38.328C189.124 38.776 188.18 39 187.172 39H187.156C186.98 39 186.9 38.984 186.9 38.968V37.032H187.156C187.972 37.032 188.66 36.904 189.22 36.664C189.14 36.36 189.108 36.024 189.108 35.64C189.108 33.24 190.82 31.48 193.172 31.48C195.524 31.48 197.22 33.24 197.22 35.64ZM195.332 35.64C195.332 34.296 194.468 33.32 193.14 33.32C191.86 33.32 190.996 34.296 190.996 35.64C190.996 36.984 191.86 37.96 193.14 37.96C194.468 37.96 195.332 36.984 195.332 35.64ZM216.78 37.032H217.036V38.968C217.036 38.984 216.956 39 216.78 39H216.764C215.788 39 214.956 38.808 214.236 38.44V41.656C212.492 42.664 210.732 43.16 208.94 43.16C205.436 43.16 203.356 41.176 203.356 38.024C203.356 37.24 203.468 36.44 203.676 35.64L205.42 35.96C205.276 36.536 205.212 37.096 205.212 37.656C205.212 39.944 206.588 41.208 209.148 41.208C210.284 41.208 211.388 40.968 212.46 40.472V32.968H214.3V36.152C214.3 36.392 214.412 36.552 214.652 36.648C215.228 36.904 215.932 37.032 216.78 37.032ZM207.42 32.568C207.42 31.912 207.932 31.4 208.588 31.4C209.228 31.4 209.74 31.912 209.74 32.568C209.74 33.208 209.228 33.72 208.588 33.72C207.932 33.72 207.42 33.208 207.42 32.568ZM221.056 31V37.832C220.576 38.168 219.936 38.44 219.152 38.664C218.368 38.888 217.536 39 216.688 39H216.672C216.496 39 216.416 38.984 216.416 38.968V37.032H216.672C217.648 37.032 218.592 36.872 219.152 36.616V31H221.056ZM218.288 41.32C218.288 40.664 218.8 40.168 219.456 40.168C220.096 40.168 220.608 40.664 220.608 41.32C220.608 41.976 220.096 42.488 219.456 42.488C218.8 42.488 218.288 41.976 218.288 41.32ZM238.34 37.032V38.968C238.34 38.984 238.26 39 238.084 39H231.076C229.86 39 229.044 39.64 229.044 40.68C229.044 41.72 229.844 42.392 231.124 42.392H233.572V44.344H231.492C228.756 44.344 227.06 42.984 227.06 40.696C227.06 38.392 228.724 37.064 231.364 37.064H234.42C233.828 36.408 233.572 35.832 233.268 34.744C232.724 32.872 232.5 32.344 231.076 32.264C230.42 32.264 229.828 32.44 229.044 32.936L228.02 31.624C229.028 30.856 230.084 30.472 231.188 30.472C233.492 30.504 234.26 31.496 234.98 34.008C235.3 35.24 235.652 36.2 236.34 36.856C236.484 37 236.708 37.032 237.14 37.032H238.34ZM244.926 37.032H245.182V38.968C245.182 38.984 245.102 39 244.926 39H244.91C243.678 39 242.542 38.712 241.502 38.12C240.478 38.712 239.342 39 238.094 39H238.078C237.902 39 237.822 38.984 237.822 38.968V37.032H238.078C239.054 37.032 239.87 36.856 240.558 36.52V31H242.462V36.52C243.102 36.856 244.014 37.032 244.926 37.032ZM238.814 41.32C238.814 40.664 239.326 40.168 239.982 40.168C240.622 40.168 241.118 40.68 241.118 41.32C241.118 41.944 240.606 42.456 239.982 42.456C239.326 42.456 238.814 41.944 238.814 41.32ZM241.966 41.32C241.966 40.664 242.462 40.168 243.102 40.168C243.742 40.168 244.254 40.664 244.254 41.32C244.254 41.944 243.742 42.456 243.102 42.456C242.462 42.456 241.966 41.944 241.966 41.32ZM254.986 35.64C254.986 38.04 253.29 39.8 250.938 39.8C249.642 39.8 248.506 39.272 247.754 38.328C246.89 38.776 245.946 39 244.938 39H244.922C244.746 39 244.666 38.984 244.666 38.968V37.032H244.922C245.738 37.032 246.426 36.904 246.986 36.664C246.906 36.36 246.874 36.024 246.874 35.64C246.874 33.24 248.586 31.48 250.938 31.48C253.29 31.48 254.986 33.24 254.986 35.64ZM253.098 35.64C253.098 34.296 252.234 33.32 250.906 33.32C249.626 33.32 248.762 34.296 248.762 35.64C248.762 36.984 249.626 37.96 250.906 37.96C252.234 37.96 253.098 36.984 253.098 35.64ZM254.445 43.08L254.813 41.176C255.053 41.208 255.277 41.224 255.501 41.224C257.309 41.224 258.013 40.344 258.013 38.488V31.208H259.917V38.472C259.917 41.72 258.301 43.16 255.565 43.16C255.165 43.16 254.781 43.128 254.445 43.08ZM264.445 43.08L264.813 41.176C265.053 41.208 265.277 41.224 265.501 41.224C267.309 41.224 268.013 40.344 268.013 38.488V31.208H269.917V38.472C269.917 41.72 268.301 43.16 265.565 43.16C265.165 43.16 264.781 43.128 264.445 43.08ZM282.989 37.032V38.968C282.989 38.984 282.909 39 282.733 39H280.285C280.093 41.864 278.301 43.16 275.565 43.16C274.621 43.16 273.565 43 272.717 42.696L273.053 40.888C273.677 41.128 274.685 41.336 275.629 41.336C277.469 41.336 278.285 40.584 278.397 39H277.005C274.109 39 272.397 37.4 272.397 35.096C272.397 32.744 274.109 31.144 276.781 31.144C277.949 31.144 279.133 31.432 280.301 32.024V37.032H282.989ZM276.701 37.032H278.397V33.32C277.837 33.048 277.261 32.92 276.669 32.92C275.277 32.92 274.285 33.656 274.285 34.984C274.285 36.28 275.277 37.032 276.701 37.032ZM289.582 37.032H289.838V38.968C289.838 38.984 289.758 39 289.582 39H289.566C288.334 39 287.198 38.712 286.158 38.12C285.134 38.712 283.998 39 282.75 39H282.734C282.558 39 282.478 38.984 282.478 38.968V37.032H282.734C283.71 37.032 284.526 36.856 285.214 36.52V31H287.118V36.52C287.758 36.856 288.67 37.032 289.582 37.032ZM283.47 28.408C283.47 27.768 283.982 27.256 284.638 27.256C285.262 27.256 285.774 27.768 285.774 28.408C285.774 29.048 285.262 29.56 284.638 29.56C283.982 29.56 283.47 29.048 283.47 28.408ZM286.622 28.408C286.622 27.768 287.118 27.256 287.758 27.256C288.398 27.256 288.91 27.768 288.91 28.408C288.91 29.048 288.398 29.56 287.758 29.56C287.118 29.56 286.622 29.048 286.622 28.408ZM297.93 35.832V37.96C297.306 38.296 296.538 38.552 295.626 38.728C294.714 38.904 293.818 39 292.922 39H289.578C289.402 39 289.322 38.984 289.322 38.968V37.032H293.13C294.266 37.032 295.338 36.808 296.026 36.504V35.896C295.946 34.488 295.514 34.184 293.066 33.464L291.114 32.936L290.682 31.416L296.442 26.968L297.434 28.2L292.954 31.608L293.946 31.88C296.794 32.696 297.866 33.416 297.93 35.832ZM309.764 37.032V38.968C309.764 38.984 309.684 39 309.508 39H299.956V37.032H305.412V34.824C305.412 33.352 304.804 32.92 303.204 32.92H301.444V31.016H302.772C306.164 31.016 307.316 32.008 307.316 34.744V37.032H309.764ZM313.884 27.32V37.336C312.924 38.296 311.26 39 309.516 39H309.5C309.324 39 309.244 38.984 309.244 38.968V37.032H309.5C310.396 37.032 311.34 36.856 311.98 36.52V27.32H313.884ZM317.116 39V27.32H319.02V39H317.116Z" fill="white"/>
</svg>
