<svg width="274" height="89" viewBox="0 0 274 89" fill="none" xmlns="http://www.w3.org/2000/svg">
<path d="M160.761 0H159.523V88.5H160.761V0Z" fill="white"/>
<g clip-path="url(#clip0_15800_4511)">
<path d="M5.88697 28.9026C3.75582 28.9026 2.96094 27.91 2.96094 26.3418C2.96094 24.8938 3.84605 23.5704 5.8569 23.5704C7.1459 23.5704 8.13843 23.9571 8.13843 23.9571V27.7554H9.20831V28.9026H5.88697ZM4.08237 22.1181C4.08237 21.7099 4.40032 21.3662 4.80421 21.3662C5.2081 21.3662 5.53465 21.6971 5.53465 22.1181C5.53465 22.5392 5.21669 22.87 4.80421 22.87C4.39173 22.87 4.08237 22.5392 4.08237 22.1181ZM6.73772 24.911C6.73772 24.911 6.32094 24.7133 5.69792 24.7133C4.87725 24.7133 4.40032 25.3449 4.40032 26.2043C4.40032 27.2097 4.89015 27.7511 6.03736 27.7511H6.73772V24.911ZM5.89557 22.1181C5.89557 21.7099 6.21352 21.3662 6.61741 21.3662C7.0213 21.3662 7.33925 21.6971 7.33925 22.1181C7.33925 22.5392 7.0213 22.87 6.61741 22.87C6.21352 22.87 5.89557 22.5392 5.89557 22.1181Z" fill="white"/>
<path d="M9.03906 27.7504H10.7105C10.2292 27.4625 9.85973 26.8438 9.85973 26.1048C9.85973 24.7341 10.7878 23.5654 12.7213 23.5654C13.4517 23.5654 14.0748 23.776 14.0748 23.776L13.8256 24.9361C13.8256 24.9361 13.3228 24.704 12.6912 24.704C11.8706 24.704 11.3163 25.2583 11.3163 26.1091C11.3163 27.05 12.0682 27.7547 13.7955 27.7547H14.6462V28.9019H9.04336V27.7547L9.03906 27.7504Z" fill="white"/>
<path d="M15.9648 21.1127H17.4085V27.7511H18.4999V28.8983H15.9648V21.1084V21.1127Z" fill="white"/>
<path d="M18.3398 27.7511H19.8695V23.7079H21.3131V27.7511H22.383V28.8983H18.3398V27.7511ZM19.8351 22.0193C19.8351 21.5982 20.1745 21.2588 20.587 21.2588C20.9995 21.2588 21.3389 21.6025 21.3389 22.0193C21.3389 22.4361 20.9995 22.7798 20.587 22.7798C20.1745 22.7798 19.8351 22.449 19.8351 22.0193Z" fill="white"/>
<path d="M22.2188 27.7504H23.6839V23.7072H25.1276V23.9822C25.1276 24.4677 25.0932 25.0865 24.9944 25.6192H25.0159C25.4971 24.283 26.6314 23.5654 27.7786 23.5654C29.2954 23.5654 30.0817 24.515 30.0817 26.0747C30.0817 26.7149 29.9399 27.2906 29.6133 27.7547H30.7605V28.9019H22.2188V27.7547V27.7504ZM26.8678 27.7504C28.2341 27.7504 28.595 27.0543 28.595 26.1606C28.595 25.2669 28.247 24.7255 27.4822 24.7255C26.3006 24.7255 25.3295 26.195 25.1018 27.7504H26.872H26.8678Z" fill="white"/>
<path d="M30.5273 27.7507H31.8808V21.1123H33.3245V28.9022H30.5273V27.755V27.7507Z" fill="white"/>
<path d="M35.1797 21.1123H36.6234V28.9022H35.1797V21.1123Z" fill="white"/>
<path d="M39.8477 31.5967L39.9551 30.4366C40.2172 30.5139 40.4922 30.5698 40.8402 30.5698C41.5835 30.5698 42.0218 30.2175 42.0218 29.023V23.708H43.4655V27.7512H44.5353V28.8984H43.4655V28.9414C43.4655 30.355 42.9842 31.7041 40.7671 31.7041C40.4277 31.7041 40.1098 31.6612 39.8477 31.5924V31.5967Z" fill="white"/>
<path d="M44.3711 27.751H45.5742V28.8982H44.3711V27.751Z" fill="white"/>
<path d="M45.5469 27.7512H47.6007V23.708H49.0444V28.8984H45.5512V27.7512H45.5469ZM46.475 31.3088C46.0711 31.3088 45.7531 30.978 45.7531 30.5569C45.7531 30.1358 46.0711 29.805 46.475 29.805C46.8788 29.805 47.2054 30.1358 47.2054 30.5569C47.2054 30.978 46.8874 31.3088 46.475 31.3088ZM48.2882 31.3088C47.8843 31.3088 47.5663 30.978 47.5663 30.5569C47.5663 30.1358 47.8843 29.805 48.2882 29.805C48.692 29.805 49.01 30.1358 49.01 30.5569C49.01 30.978 48.692 31.3088 48.2882 31.3088Z" fill="white"/>
<path d="M50.5398 31.541L50.6258 30.3466C50.6258 30.3466 51.4765 30.5356 52.3316 30.5356C53.4659 30.5356 54.2221 30.1059 54.2221 29.0662V28.8986H53.3714C51.2402 28.8986 50.4453 27.906 50.4453 26.3378C50.4453 24.8898 51.3304 23.5664 53.3413 23.5664C54.6303 23.5664 55.6228 23.9531 55.6228 23.9531V27.7514H56.6927V28.8986H55.6228V28.9201C55.6228 30.4454 54.6518 31.6828 52.2027 31.6828C51.382 31.6828 50.5441 31.541 50.5441 31.541H50.5398ZM54.2221 24.9113C54.2221 24.9113 53.8053 24.7136 53.1823 24.7136C52.3616 24.7136 51.8847 25.3452 51.8847 26.2046C51.8847 27.21 52.3745 27.7514 53.5217 27.7514H54.2221V24.9113Z" fill="white"/>
<path d="M56.5273 27.7507H57.8593V21.1123H59.303V23.9868C59.303 24.4723 59.2686 25.091 59.1827 25.6238H59.1956C59.6768 24.2875 60.8111 23.57 61.9583 23.57C63.488 23.57 64.2743 24.5196 64.2743 26.0793C64.2743 26.7195 64.1196 27.2952 63.793 27.7593H65.0605V28.9065H56.5316V27.7593L56.5273 27.7507ZM61.0517 27.7507C62.4181 27.7507 62.7876 27.0546 62.7876 26.1609C62.7876 25.2672 62.4267 24.7258 61.6748 24.7258C60.4846 24.7258 59.5221 26.1953 59.2944 27.7507H61.0517Z" fill="white"/>
<path d="M64.8203 27.7511H66.3499V23.7079H67.7936V28.8983H64.8246V27.7511H64.8203ZM65.2371 22.1181C65.2371 21.7099 65.555 21.3662 65.9589 21.3662C66.3628 21.3662 66.6894 21.6971 66.6894 22.1181C66.6894 22.5392 66.3714 22.87 65.9589 22.87C65.5464 22.87 65.2371 22.5392 65.2371 22.1181ZM67.0503 22.1181C67.0503 21.7099 67.3682 21.3662 67.7721 21.3662C68.176 21.3662 68.494 21.6971 68.494 22.1181C68.494 22.5392 68.176 22.87 67.7721 22.87C67.3682 22.87 67.0503 22.5392 67.0503 22.1181Z" fill="white"/>
<path d="M74.6494 28.9023C73.021 28.9023 72.587 29.4437 72.587 30.1183C72.587 30.7241 73.1327 31.2912 74.4002 31.2912L74.3014 32.4385C72.1617 32.4385 71.1562 31.4889 71.1562 30.2085C71.1562 28.8164 72.2046 27.7551 74.6967 27.7551H75.44C75.4744 27.4887 75.4959 27.1922 75.4959 26.9172C75.4959 25.5122 74.9287 24.7947 73.3647 24.7947C72.905 24.7947 72.5011 24.829 72.1101 24.8849V23.7463C72.5269 23.6904 73.0296 23.6475 73.5065 23.6475C75.9513 23.6475 76.9267 24.7431 76.9267 26.8614C76.9267 27.1278 76.9138 27.4371 76.8837 27.7551H77.627V28.9023H74.658H74.6494ZM74.6151 30.5565C74.6151 30.1354 74.9545 29.796 75.367 29.796C75.7795 29.796 76.1189 30.1268 76.1189 30.5565C76.1189 30.9862 75.7795 31.317 75.367 31.317C74.9545 31.317 74.6151 30.9862 74.6151 30.5565Z" fill="white"/>
<path d="M77.4609 28.9019V27.7547H78.084C78.4664 27.7547 78.6941 27.832 78.6941 27.832C78.2902 27.5356 78.084 27.0371 78.084 26.2509C78.084 24.8458 79.0249 23.5654 80.9241 23.5654C82.6298 23.5654 83.3946 24.558 83.3946 26.1048V28.8976H77.4652L77.4609 28.9019ZM81.981 26.2809C81.981 25.1767 81.5428 24.7126 80.8123 24.7126C79.9917 24.7126 79.5147 25.3443 79.5147 26.2036C79.5147 27.2434 80.0175 27.7504 81.1518 27.7504H81.981V26.2809Z" fill="white"/>
<path d="M85.0742 21.1127H86.5179V27.7511H87.6093V28.8983H85.0742V21.1084V21.1127Z" fill="white"/>
<path d="M87.4414 27.7511H88.971V23.7079H90.4147V28.8983H87.4457V27.7511H87.4414ZM88.9409 22.0193C88.9409 21.5982 89.2804 21.2588 89.6929 21.2588C90.1053 21.2588 90.4448 21.6025 90.4448 22.0193C90.4448 22.4361 90.1053 22.7798 89.6929 22.7798C89.2804 22.7798 88.9409 22.449 88.9409 22.0193Z" fill="white"/>
<path d="M90.2617 31.5967L90.3691 30.4366C90.6312 30.5139 90.9062 30.5698 91.2542 30.5698C91.9976 30.5698 92.4358 30.2175 92.4358 29.023V23.708H93.8795V27.7512H94.9494V28.8984H93.8795V28.9414C93.8795 30.355 93.3983 31.7041 91.1812 31.7041C90.8418 31.7041 90.5238 31.6612 90.2617 31.5924V31.5967Z" fill="white"/>
<path d="M94.7852 27.7502H96.3148V23.707H97.7585V28.8974H94.7895V27.7502H94.7852ZM95.4726 30.5559C95.4726 30.1349 95.8121 29.7954 96.2245 29.7954C96.637 29.7954 96.9765 30.1263 96.9765 30.5559C96.9765 30.9856 96.637 31.3164 96.2245 31.3164C95.8121 31.3164 95.4726 30.9856 95.4726 30.5559Z" fill="white"/>
<path d="M6.99708 43.0086C4.02808 43.0086 2.98828 41.7583 2.98828 39.7389C2.98828 39.1416 3.10859 38.4585 3.27186 38.003L4.81007 37.7495C4.58235 38.2565 4.44056 38.9869 4.44056 39.5713C4.44056 41.1267 5.10654 41.8571 7.14746 41.8571H8.63411V37.814H10.0778V43.0043H6.99708V43.0086ZM5.20537 36.2285C5.20537 35.8203 5.52332 35.4766 5.92721 35.4766C6.3311 35.4766 6.65764 35.8074 6.65764 36.2285C6.65764 36.6496 6.33969 36.9804 5.92721 36.9804C5.51473 36.9804 5.20537 36.6496 5.20537 36.2285ZM7.01856 36.2285C7.01856 35.8203 7.33652 35.4766 7.74041 35.4766C8.14429 35.4766 8.46225 35.8074 8.46225 36.2285C8.46225 36.6496 8.14429 36.9804 7.74041 36.9804C7.33652 36.9804 7.01856 36.6496 7.01856 36.2285Z" fill="white"/>
<path d="M11.8164 35.223H13.2601V41.8614H14.3514V43.0086H11.8164V35.2188V35.223Z" fill="white"/>
<path d="M14.1875 41.8613H15.3906V43.0085H14.1875V41.8613Z" fill="white"/>
<path d="M15.3633 41.8613H16.5664V43.0085H15.3633V41.8613Z" fill="white"/>
<path d="M16.5469 41.8613H17.7499V43.0085H16.5469V41.8613Z" fill="white"/>
<path d="M17.7266 41.8613H18.9296V43.0085H17.7266V41.8613Z" fill="white"/>
<path d="M18.9062 41.8613H20.1093V43.0085H18.9062V41.8613Z" fill="white"/>
<path d="M20.0859 41.8613H21.289V43.0085H20.0859V41.8613Z" fill="white"/>
<path d="M21.2656 41.8613H22.4687V43.0085H21.2656V41.8613Z" fill="white"/>
<path d="M22.4453 41.8613H23.6484V43.0085H22.4453V41.8613Z" fill="white"/>
<path d="M23.6211 41.8613H24.8242V43.0085H23.6211V41.8613Z" fill="white"/>
<path d="M24.8047 41.8613H26.0078V43.0085H24.8047V41.8613Z" fill="white"/>
<path d="M25.9844 41.8613H27.1874V43.0085H25.9844V41.8613Z" fill="white"/>
<path d="M27.1641 43.0083V41.8611H27.7871C28.1695 41.8611 28.3972 41.9385 28.3972 41.9385C27.9933 41.642 27.7871 41.1436 27.7871 40.3573C27.7871 38.9523 28.7281 37.6719 30.6272 37.6719C32.333 37.6719 33.0978 38.6644 33.0978 40.2112V43.0041H27.1684L27.1641 43.0083ZM31.6885 40.3917C31.6885 39.2874 31.2502 38.8234 30.5198 38.8234C29.6991 38.8234 29.2222 39.455 29.2222 40.3143C29.2222 41.3541 29.7249 41.8611 30.8592 41.8611H31.6885V40.3917Z" fill="white"/>
<path d="M34.352 41.8613H37.5959C37.5315 40.2243 36.7323 39.2103 35.0179 38.7677L35.366 37.5518C37.6045 38.149 38.8592 39.395 38.9924 41.8613H39.7013V43.0085H34.3477V41.8613H34.352Z" fill="white"/>
<path d="M39.543 41.8608H43.7709C43.8053 41.5944 43.8268 41.298 43.8268 41.023C43.8268 39.618 43.2596 38.9004 41.687 38.9004C41.2402 38.9004 40.8363 38.9348 40.4324 38.9907V37.852C40.8578 37.7962 41.3605 37.7532 41.8288 37.7532C44.2865 37.7532 45.2575 38.8489 45.2575 40.9671C45.2575 41.2335 45.2447 41.5429 45.2146 41.8608H46.0653V43.008H39.543V41.8608ZM41.3776 36.1248C41.3776 35.7037 41.7171 35.3643 42.1296 35.3643C42.542 35.3643 42.8815 35.708 42.8815 36.1248C42.8815 36.5415 42.542 36.8853 42.1296 36.8853C41.7171 36.8853 41.3776 36.5544 41.3776 36.1248Z" fill="white"/>
<path d="M45.8984 41.861H47.2519V35.2227H48.6956V43.0125H45.8984V41.8653V41.861Z" fill="white"/>
<path d="M50.5547 35.2227H51.9984V43.0125H50.5547V35.2227Z" fill="white"/>
<path d="M53.4383 45.6504L53.5242 44.4559C53.5242 44.4559 54.375 44.645 55.23 44.645C56.3643 44.645 57.1205 44.2153 57.1205 43.1755V43.008H56.2698C54.1386 43.008 53.3438 42.0154 53.3438 40.4471C53.3438 38.9992 54.2289 37.6758 56.2397 37.6758C57.5287 37.6758 58.5212 38.0625 58.5212 38.0625V43.0337C58.5212 44.5591 57.5502 45.7965 55.1011 45.7965C54.2804 45.7965 53.4426 45.6547 53.4426 45.6547L53.4383 45.6504ZM57.1162 39.0206C57.1162 39.0206 56.6995 38.823 56.0764 38.823C55.2558 38.823 54.7788 39.4546 54.7788 40.3139C54.7788 41.3194 55.2687 41.8607 56.4159 41.8607H57.1162V39.0206Z" fill="white"/>
<path d="M65.4065 43.0086C63.2754 43.0086 62.4805 42.0161 62.4805 40.4478C62.4805 38.9998 63.3656 37.6765 65.3764 37.6765C66.6654 37.6765 67.658 38.0632 67.658 38.0632V41.8614H68.7278V43.0086H65.4065ZM63.6062 36.2285C63.6062 35.8203 63.9242 35.4766 64.328 35.4766C64.7319 35.4766 65.0585 35.8074 65.0585 36.2285C65.0585 36.6496 64.7405 36.9804 64.328 36.9804C63.9156 36.9804 63.6062 36.6496 63.6062 36.2285ZM66.2572 39.0213C66.2572 39.0213 65.8405 38.8237 65.2174 38.8237C64.3968 38.8237 63.9199 39.4553 63.9199 40.3146C63.9199 41.32 64.4097 41.8614 65.5569 41.8614H66.2572V39.0213ZM65.4194 36.2285C65.4194 35.8203 65.7374 35.4766 66.1412 35.4766C66.5451 35.4766 66.8631 35.8074 66.8631 36.2285C66.8631 36.6496 66.5451 36.9804 66.1412 36.9804C65.7374 36.9804 65.4194 36.6496 65.4194 36.2285Z" fill="white"/>
<path d="M68.5664 41.8615H70.096V37.8184H71.5397V41.8615H73.0264V43.0087H68.5707V41.8615H68.5664ZM69.4945 45.4192C69.0906 45.4192 68.7726 45.0883 68.7726 44.6673C68.7726 44.2462 69.0906 43.9153 69.4945 43.9153C69.8984 43.9153 70.2249 44.2462 70.2249 44.6673C70.2249 45.0883 69.907 45.4192 69.4945 45.4192ZM71.3077 45.4192C70.9038 45.4192 70.5858 45.0883 70.5858 44.6673C70.5858 44.2462 70.9038 43.9153 71.3077 43.9153C71.7116 43.9153 72.0295 44.2462 72.0295 44.6673C72.0295 45.0883 71.7116 45.4192 71.3077 45.4192Z" fill="white"/>
<path d="M72.8594 41.8608H74.389V37.8177H75.8327V41.8608H76.9025V43.008H72.8594V41.8608ZM74.3546 36.1248C74.3546 35.7037 74.6941 35.3643 75.1065 35.3643C75.519 35.3643 75.8585 35.708 75.8585 36.1248C75.8585 36.5415 75.519 36.8853 75.1065 36.8853C74.6941 36.8853 74.3546 36.5544 74.3546 36.1248Z" fill="white"/>
<path d="M76.7383 41.861H78.0703V35.2227H79.5139V38.0971C79.5139 38.5827 79.4796 39.2014 79.3936 39.7342H79.4065C79.8877 38.3979 81.0221 37.6804 82.1693 37.6804C83.6989 37.6804 84.4852 38.6299 84.4852 40.1896C84.4852 41.7493 83.5657 43.0168 81.1338 43.0168H76.7426V41.8696L76.7383 41.861ZM81.2584 41.861C82.6247 41.861 82.9942 41.165 82.9942 40.2713C82.9942 39.3775 82.6333 38.8362 81.8814 38.8362C80.6912 38.8362 79.7288 40.3056 79.501 41.861H81.2584Z" fill="white"/>
<path d="M85.5516 45.6504L85.6375 44.4559C85.6375 44.4559 86.4882 44.645 87.3433 44.645C88.4776 44.645 89.2338 44.2153 89.2338 43.1755V43.008H88.3831C86.2519 43.008 85.457 42.0154 85.457 40.4471C85.457 38.9992 86.3421 37.6758 88.353 37.6758C89.642 37.6758 90.6345 38.0625 90.6345 38.0625V41.8607H91.7044V43.008H90.6345V43.0294C90.6345 44.5548 89.6635 45.7922 87.2144 45.7922C86.3937 45.7922 85.5559 45.6504 85.5559 45.6504H85.5516ZM89.2338 39.0206C89.2338 39.0206 88.817 38.823 88.194 38.823C87.3733 38.823 86.8964 39.4546 86.8964 40.3139C86.8964 41.3194 87.3862 41.8607 88.5335 41.8607H89.2338V39.0206Z" fill="white"/>
<path d="M91.5391 41.861H92.8925V35.2227H94.3362V43.0125H91.5391V41.8653V41.861Z" fill="white"/>
<path d="M96.1953 35.2227H97.639V43.0125H96.1953V35.2227Z" fill="white"/>
<path d="M5.29322 57.1184C3.16207 57.1184 2.36719 56.1259 2.36719 54.5576C2.36719 53.1096 3.2523 51.7862 5.26315 51.7862C6.55215 51.7862 7.54468 52.1729 7.54468 52.1729V55.9712H8.61455V57.1184H5.29322ZM3.49292 50.3339C3.49292 49.9258 3.81087 49.582 4.21476 49.582C4.61865 49.582 4.94519 49.9129 4.94519 50.3339C4.94519 50.755 4.62724 51.0859 4.21476 51.0859C3.80228 51.0859 3.49292 50.755 3.49292 50.3339ZM6.14826 53.1311C6.14826 53.1311 5.73148 52.9334 5.10847 52.9334C4.2878 52.9334 3.81087 53.5608 3.81087 54.4244C3.81087 55.4298 4.30069 55.9712 5.4479 55.9712H6.14826V53.1311ZM5.30611 50.3339C5.30611 49.9258 5.62407 49.582 6.02796 49.582C6.43184 49.582 6.7498 49.9129 6.7498 50.3339C6.7498 50.755 6.43184 51.0859 6.02796 51.0859C5.62407 51.0859 5.30611 50.755 5.30611 50.3339Z" fill="white"/>
<path d="M8.45312 55.9707H9.6562V57.1179H8.45312V55.9707Z" fill="white"/>
<path d="M9.63281 55.9707H10.8359V57.1179H9.63281V55.9707Z" fill="white"/>
<path d="M10.8086 55.9707H12.0117V57.1179H10.8086V55.9707Z" fill="white"/>
<path d="M11.9922 55.9707H13.1953V57.1179H11.9922V55.9707Z" fill="white"/>
<path d="M13.168 55.9707H14.371V57.1179H13.168V55.9707Z" fill="white"/>
<path d="M14.3516 55.9707H15.5546V57.1179H14.3516V55.9707Z" fill="white"/>
<path d="M15.5312 55.9707H16.7343V57.1179H15.5312V55.9707Z" fill="white"/>
<path d="M16.7109 55.9707H17.914V57.1179H16.7109V55.9707Z" fill="white"/>
<path d="M17.8906 55.9707H19.0937V57.1179H17.8906V55.9707Z" fill="white"/>
<path d="M19.0664 55.9707H20.2695V57.1179H19.0664V55.9707Z" fill="white"/>
<path d="M20.25 55.9707H21.4531V57.1179H20.25V55.9707Z" fill="white"/>
<path d="M21.4258 55.9707H22.6289V57.1179H21.4258V55.9707Z" fill="white"/>
<path d="M22.6094 55.9707H23.8124V57.1179H22.6094V55.9707Z" fill="white"/>
<path d="M23.7891 55.9707H24.9921V57.1179H23.7891V55.9707Z" fill="white"/>
<path d="M24.9688 55.9707H26.1718V57.1179H24.9688V55.9707Z" fill="white"/>
<path d="M26.1484 55.9707H27.3515V57.1179H26.1484V55.9707Z" fill="white"/>
<path d="M27.3281 55.9707H28.5312V57.1179H27.3281V55.9707Z" fill="white"/>
<path d="M28.5078 55.9707H29.7109V57.1179H28.5078V55.9707Z" fill="white"/>
<path d="M29.6914 55.9707H30.8945V57.1179H29.6914V55.9707Z" fill="white"/>
<path d="M30.8672 55.9707H32.0703V57.1179H30.8672V55.9707Z" fill="white"/>
<path d="M32.0469 55.9707H33.2499V57.1179H32.0469V55.9707Z" fill="white"/>
<path d="M33.2266 55.9707H34.4296V57.1179H33.2266V55.9707Z" fill="white"/>
<path d="M34.4062 55.9707H35.6093V57.1179H34.4062V55.9707Z" fill="white"/>
<path d="M35.5859 55.9707H36.789V57.1179H35.5859V55.9707Z" fill="white"/>
<path d="M36.7656 55.9707H37.9687V57.1179H36.7656V55.9707Z" fill="white"/>
<path d="M37.9492 55.9707H39.1523V57.1179H37.9492V55.9707Z" fill="white"/>
<path d="M39.125 55.9707H40.3281V57.1179H39.125V55.9707Z" fill="white"/>
<path d="M40.3086 55.9707H41.5117V57.1179H40.3086V55.9707Z" fill="white"/>
<path d="M41.4844 55.9707H42.6874V57.1179H41.4844V55.9707Z" fill="white"/>
<path d="M42.6641 55.9707H43.8671V57.1179H42.6641V55.9707Z" fill="white"/>
<path d="M43.8477 55.9707H45.0507V57.1179H43.8477V55.9707Z" fill="white"/>
<path d="M45.0234 55.9707H46.2265V57.1179H45.0234V55.9707Z" fill="white"/>
<path d="M46.207 55.9707H47.4101V57.1179H46.207V55.9707Z" fill="white"/>
<path d="M47.3828 55.9707H48.5859V57.1179H47.3828V55.9707Z" fill="white"/>
<path d="M48.5664 55.9707H49.7695V57.1179H48.5664V55.9707Z" fill="white"/>
<path d="M49.7422 55.9707H50.9453V57.1179H49.7422V55.9707Z" fill="white"/>
<path d="M50.9219 55.9707H52.1249V57.1179H50.9219V55.9707Z" fill="white"/>
<path d="M52.1055 55.9707H53.3085V57.1179H52.1055V55.9707Z" fill="white"/>
<path d="M53.2812 55.9707H54.4843V57.1179H53.2812V55.9707Z" fill="white"/>
<path d="M54.4648 55.9707H55.6679V57.1179H54.4648V55.9707Z" fill="white"/>
<path d="M55.6406 55.9707H56.8437V57.1179H55.6406V55.9707Z" fill="white"/>
<path d="M56.8242 55.9719H58.3538V51.9287H59.7975V55.9719H61.2842V57.1191H56.8285V55.9719H56.8242ZM57.7523 59.5252C57.3484 59.5252 57.0305 59.1944 57.0305 58.7733C57.0305 58.3522 57.3484 58.0214 57.7523 58.0214C58.1562 58.0214 58.4827 58.3522 58.4827 58.7733C58.4827 59.1944 58.1648 59.5252 57.7523 59.5252ZM59.5655 59.5252C59.1616 59.5252 58.8437 59.1944 58.8437 58.7733C58.8437 58.3522 59.1616 58.0214 59.5655 58.0214C59.9694 58.0214 60.2873 58.3522 60.2873 58.7733C60.2873 59.1944 59.9694 59.5252 59.5655 59.5252Z" fill="white"/>
<path d="M61.1172 55.9712H62.6468V51.928H64.0905V55.9712H65.0615V57.1184H61.1172V55.9712ZM61.534 50.3339C61.534 49.9258 61.8519 49.582 62.2558 49.582C62.6597 49.582 62.9862 49.9129 62.9862 50.3339C62.9862 50.755 62.6683 51.0859 62.2558 51.0859C61.8433 51.0859 61.534 50.755 61.534 50.3339ZM63.3472 50.3339C63.3472 49.9258 63.6651 49.582 64.069 49.582C64.4729 49.582 64.7908 49.9129 64.7908 50.3339C64.7908 50.755 64.4729 51.0859 64.069 51.0859C63.6651 51.0859 63.3472 50.755 63.3472 50.3339Z" fill="white"/>
<path d="M69.9822 56.3545C69.7631 56.8314 69.1959 57.2052 68.3323 57.2052C67.6319 57.2052 67.0561 56.8744 66.88 56.3416C66.6609 56.8486 66.2269 57.115 65.4277 57.115H64.8906V55.9678H65.4363C66.1367 55.9678 66.4202 55.6799 66.4202 54.5971V52.5863H67.8639V54.6315C67.8639 55.624 67.9627 56.058 68.6158 56.058C69.183 56.058 69.4881 55.7143 69.4881 54.6444V52.148H70.8759V54.9194C70.8759 55.7916 71.1595 55.9678 72.1649 55.9678H72.4485C72.5043 55.5252 72.5258 54.9838 72.5258 54.6444C72.5258 53.5401 72.3926 52.5218 72.2079 51.684L73.6172 51.4863C73.8234 52.3714 73.9652 53.4542 73.9652 54.5456C73.9652 54.9881 73.9437 55.4822 73.9093 55.9721H74.9792V57.1193H71.9973C70.8501 57.1193 70.2915 56.9646 69.9779 56.3588L69.9822 56.3545Z" fill="white"/>
<path d="M74.8281 55.9709H79.0561C79.0904 55.7045 79.1119 55.408 79.1119 55.1331C79.1119 53.728 78.5448 53.0105 76.9722 53.0105C76.5253 53.0105 76.1214 53.0449 75.7175 53.1007V51.9621C76.1429 51.9063 76.6456 51.8633 77.114 51.8633C79.5717 51.8633 80.5427 52.9546 80.5427 55.0772C80.5427 55.6315 80.4868 56.3275 80.3579 57.1224H74.8324V55.9752L74.8281 55.9709ZM76.6628 58.7766C76.6628 58.3556 77.0022 58.0161 77.4147 58.0161C77.8272 58.0161 78.1666 58.347 78.1666 58.7766C78.1666 59.2063 77.8272 59.5371 77.4147 59.5371C77.0022 59.5371 76.6628 59.2063 76.6628 58.7766Z" fill="white"/>
<path d="M81.8289 59.7569L81.9148 58.5624C81.9148 58.5624 82.7656 58.7514 83.6206 58.7514C84.7549 58.7514 85.5112 58.3218 85.5112 57.282V57.1144H84.6604C82.5293 57.1144 81.7344 56.1219 81.7344 54.5536C81.7344 53.1056 82.6195 51.7822 84.6303 51.7822C85.9193 51.7822 86.9119 52.1689 86.9119 52.1689V55.9672H87.9817V57.1144H86.9119V57.1359C86.9119 58.6612 85.9408 59.8986 83.4917 59.8986C82.671 59.8986 81.8332 59.7569 81.8332 59.7569H81.8289ZM85.5069 53.1314C85.5069 53.1314 85.0901 52.9337 84.4671 52.9337C83.6464 52.9337 83.1695 53.5611 83.1695 54.4247C83.1695 55.4301 83.6593 55.9715 84.8065 55.9715H85.5069V53.1314Z" fill="white"/>
<path d="M87.8164 55.9714H89.1699V49.333H90.6135V55.9714H91.7049V57.1186H87.8164V55.9714Z" fill="white"/>
<path d="M91.5391 55.9714H92.8925V49.333H94.3362V57.1229H91.5391V55.9757V55.9714Z" fill="white"/>
<path d="M96.1953 49.3291H97.639V57.119H96.1953V49.3291Z" fill="white"/>
<path d="M133.51 41.9355C133.329 41.8324 133.003 41.6648 132.547 41.5187C131.894 41.3082 130.983 41.1535 129.905 41.3254C129.544 41.3812 129.157 41.4801 128.762 41.6219C128.723 41.6347 128.685 41.6476 128.646 41.6648C128.444 41.7422 128.242 41.8324 128.04 41.9355C127.868 42.0214 127.697 42.1203 127.525 42.2234C127.134 42.4597 126.747 42.7261 126.373 43.014C125.948 40.4317 126.154 38.0341 126.253 36.8568C126.253 36.8525 126.261 36.8482 126.266 36.8525C127.181 37.4283 126.923 39.0353 126.73 39.495C126.73 39.5036 126.738 39.5122 126.747 39.5036C127.886 38.1587 127.327 36.6721 127.095 36.294C127.091 36.2854 127.099 36.2768 127.108 36.2854C127.271 36.4186 127.404 36.5604 127.52 36.7065C127.873 37.1576 128.002 37.6431 128.036 38.0728C128.053 38.3005 128.049 38.5111 128.036 38.6915C128.036 38.7388 128.027 38.786 128.023 38.829C128.023 38.8333 128.027 38.8376 128.036 38.8376H128.04C128.345 38.2361 128.496 37.3209 128.036 36.4315C127.911 36.1909 127.744 35.9545 127.52 35.7225C127.456 35.6581 127.387 35.5893 127.314 35.5249C127.306 35.5206 127.314 35.5077 127.323 35.5077C127.391 35.5249 127.456 35.5464 127.52 35.5678C127.714 35.6366 127.886 35.7268 128.036 35.8385C128.38 36.092 128.616 36.4444 128.758 36.8096C128.874 37.1103 128.925 37.424 128.925 37.699C128.925 37.7076 128.938 37.7119 128.943 37.699C129.157 36.9127 129.029 36.3155 128.758 35.8815C128.564 35.5721 128.302 35.3444 128.036 35.1854C127.856 35.078 127.675 35.0007 127.52 34.9534C127.43 34.9276 127.344 34.9061 127.271 34.8976C127.263 34.8976 127.263 34.8804 127.271 34.8804C127.357 34.8718 127.439 34.8675 127.516 34.8675C127.709 34.8675 127.877 34.8804 128.032 34.9104C128.337 34.9663 128.573 35.0737 128.754 35.194C129.041 35.3917 129.187 35.6194 129.235 35.7139C129.239 35.7225 129.252 35.7139 129.252 35.7096C129.209 35.2929 129.02 34.9706 128.749 34.7343C128.543 34.5538 128.289 34.4292 128.027 34.3562C127.856 34.3089 127.679 34.2831 127.512 34.2831C127.28 34.2831 127.056 34.3175 126.867 34.3991C126.859 34.3991 126.854 34.3948 126.859 34.3863C127.026 34.1456 127.263 33.9996 127.512 33.9222C127.684 33.8707 127.864 33.8535 128.027 33.8621C128.186 33.8707 128.332 33.905 128.453 33.9609C128.461 33.9609 128.47 33.9523 128.461 33.948C128.332 33.7976 128.182 33.6816 128.027 33.5957C127.864 33.5054 127.688 33.4453 127.512 33.4281C127.052 33.3765 126.579 33.5699 126.266 34.0468C126.266 34.0511 126.253 34.0511 126.253 34.0468C126.193 33.9394 126.137 33.8191 126.081 33.6945C125.956 33.4066 125.853 33.0758 125.797 32.7535C125.797 32.7449 125.785 32.7449 125.78 32.7535C125.724 33.0801 125.621 33.4066 125.497 33.6988C125.445 33.8234 125.385 33.9394 125.325 34.0468C125.325 34.0511 125.312 34.0511 125.312 34.0468C124.766 33.2176 123.739 33.2347 123.116 33.9523C123.112 33.9609 123.116 33.9695 123.125 33.9652C123.542 33.7675 124.328 33.8234 124.719 34.3905C124.723 34.3991 124.719 34.4077 124.71 34.4034C124.105 34.1499 123.164 34.3132 122.661 34.9104C122.48 35.1253 122.356 35.3917 122.326 35.7139C122.326 35.7225 122.339 35.7268 122.343 35.7182C122.382 35.6452 122.48 35.4862 122.661 35.3272C122.953 35.0694 123.464 34.8073 124.311 34.8847C124.319 34.8847 124.324 34.9019 124.311 34.9019C123.877 34.9534 122.992 35.3401 122.661 36.2252C122.515 36.6162 122.48 37.1018 122.644 37.7033C122.644 37.7119 122.661 37.7119 122.661 37.7033C122.661 37.6904 122.661 37.6775 122.661 37.6646C122.669 36.8611 123.129 35.787 124.264 35.512C124.272 35.512 124.276 35.5206 124.272 35.5292C123.005 36.6463 123.129 38.0255 123.542 38.8376C123.546 38.8462 123.559 38.8419 123.559 38.8376C123.503 38.2232 123.46 37.1232 124.478 36.2983C124.487 36.294 124.5 36.2983 124.491 36.3069C124.255 36.685 123.701 38.1716 124.839 39.5165C124.844 39.5251 124.861 39.5165 124.856 39.5079C124.667 39.0481 124.41 37.4412 125.32 36.8654C125.325 36.8654 125.333 36.8654 125.333 36.8697C125.432 38.047 125.638 40.4446 125.213 43.0269C124.478 42.464 123.705 41.9656 122.936 41.6777C122.841 41.6433 122.747 41.609 122.657 41.5789C121.866 41.3168 121.14 41.2437 120.508 41.2738C119.494 41.3168 118.716 41.6219 118.291 41.8367C118.205 41.8797 118.132 41.9183 118.076 41.9527C118.055 41.9656 118.072 42 118.093 41.9914C118.158 41.9699 118.227 41.9527 118.291 41.9355C119.073 41.7164 119.812 41.6562 120.508 41.7164C121.273 41.7851 121.986 41.9957 122.657 42.2964C123.598 42.7218 124.448 43.3233 125.213 43.9635C124.13 44.9088 123.211 45.8326 122.657 46.1548C122.631 46.172 122.601 46.1849 122.575 46.1978C122.442 46.0174 122.21 45.9099 121.956 45.9658C121.737 46.0131 121.557 46.1892 121.509 46.4083C121.466 46.606 121.514 46.8165 121.625 46.924C121.922 47.2204 122.266 47.2419 122.657 47.0743C123.408 46.7564 124.341 45.7638 125.488 44.7112C125.583 44.6252 125.681 44.535 125.78 44.4491C125.879 44.535 125.974 44.6252 126.072 44.7112C126.592 45.1881 127.069 45.6521 127.503 46.0474C127.684 46.2107 127.856 46.3611 128.019 46.4943C128.277 46.7048 128.513 46.8767 128.741 46.9927C129.179 47.2247 129.561 47.2548 129.884 46.9669C129.901 46.9497 129.918 46.9368 129.935 46.9197C130.008 46.8466 130.098 46.5974 130.051 46.4041C130.025 46.2923 129.965 46.1892 129.879 46.1119C129.802 46.0388 129.707 45.9873 129.6 45.9615C129.346 45.9056 129.114 46.0131 128.981 46.1935C128.904 46.1548 128.822 46.1033 128.732 46.0431C128.526 45.9013 128.285 45.6994 128.01 45.4631C127.847 45.3213 127.675 45.1666 127.495 44.999C127.142 44.6768 126.751 44.3202 126.339 43.9592C126.704 43.6542 127.091 43.3577 127.495 43.0827C127.662 42.9667 127.834 42.8593 128.01 42.7519C128.242 42.6101 128.483 42.4812 128.732 42.3652C129.097 42.189 129.48 42.0386 129.875 41.9269C130.696 41.6906 131.572 41.6133 132.517 41.7636C132.822 41.8109 133.14 41.884 133.458 41.9871C133.484 41.9957 133.501 41.9613 133.476 41.9484" fill="white"/>
<path d="M125.801 55.8804L124.066 57.6152L125.801 59.35L127.536 57.6152L125.801 55.8804Z" fill="white"/>
<path d="M111.851 45.9501L111.223 47.8828L113.155 48.5112L113.784 46.5784L111.851 45.9501Z" fill="white"/>
<path d="M117.467 28.9732L117.203 30.6367L118.867 30.9002L119.13 29.2366L117.467 28.9732Z" fill="white"/>
<path d="M138.793 39.2543L137.602 40.4453L138.793 41.6363L139.984 40.4453L138.793 39.2543Z" fill="white"/>
<path d="M137.776 35.2902L137.012 36.791L138.513 37.5554L139.277 36.0546L137.776 35.2902Z" fill="white"/>
<path d="M118.867 49.9934L117.203 50.2568L117.467 51.9204L119.13 51.6569L118.867 49.9934Z" fill="white"/>
<path d="M134.136 28.9797L132.473 29.2432L132.736 30.9067L134.4 30.6432L134.136 28.9797Z" fill="white"/>
<path d="M122.161 51.6741L120.66 52.4385L121.425 53.9393L122.925 53.1749L122.161 51.6741Z" fill="white"/>
<path d="M125.804 26.266L124.613 27.457L125.804 28.648L126.995 27.457L125.804 26.266Z" fill="white"/>
<path d="M123.883 28.3205L123.062 29.4502L124.192 30.271L125.013 29.1413L123.883 28.3205Z" fill="white"/>
<path d="M127.418 50.6242L126.598 51.7539L127.727 52.5747L128.548 51.445L127.418 50.6242Z" fill="white"/>
<path d="M116.191 34.4366L114.863 34.8682L115.295 36.1962L116.623 35.7647L116.191 34.4366Z" fill="white"/>
<path d="M136.312 44.6847L134.984 45.1162L135.416 46.4443L136.744 46.0128L136.312 44.6847Z" fill="white"/>
<path d="M114.5 41.2375L113.68 42.3672L114.809 43.188L115.63 42.0583L114.5 41.2375Z" fill="white"/>
<path d="M142.674 44.1176L140.488 45.2314L141.602 47.4174L143.788 46.3036L142.674 44.1176Z" fill="white"/>
<path d="M116.736 52.9244L114.312 53.3086L114.697 55.7317L117.12 55.3475L116.736 52.9244Z" fill="white"/>
<path d="M136.915 25.1382L134.492 25.5225L134.876 27.9456L137.3 27.5614L136.915 25.1382Z" fill="white"/>
<path d="M110.823 41.3587L109.629 43.0029L111.273 44.1975L112.468 42.5533L110.823 41.3587Z" fill="white"/>
<path d="M121.413 26.9532L120.648 28.4541L122.149 29.2185L122.914 27.7176L121.413 26.9532Z" fill="white"/>
<path d="M113.821 35.3098L112.32 36.0742L113.085 37.5751L114.586 36.8107L113.821 35.3098Z" fill="white"/>
<path d="M125.8 52.2377L124.609 53.4287L125.8 54.6197L126.991 53.4287L125.8 52.2377Z" fill="white"/>
<path d="M135.424 34.4415L134.992 35.7695L136.32 36.201L136.752 34.873L135.424 34.4415Z" fill="white"/>
<path d="M118.518 47.7314H117.121V49.1279H118.518V47.7314Z" fill="white"/>
<path d="M110.006 33.4985L107.82 34.6123L108.934 36.7983L111.12 35.6845L110.006 33.4985Z" fill="white"/>
<path d="M108.93 44.0943L107.816 46.2803L110.002 47.3941L111.116 45.2081L108.93 44.0943Z" fill="white"/>
<path d="M118.366 25.8591L117.738 27.792L119.671 28.42L120.299 26.4872L118.366 25.8591Z" fill="white"/>
<path d="M131.925 52.4646L131.297 54.3975L133.23 55.0255L133.858 53.0926L131.925 52.4646Z" fill="white"/>
<path d="M139.761 45.9511L137.828 46.5791L138.456 48.512L140.389 47.8839L139.761 45.9511Z" fill="white"/>
<path d="M140.781 41.365L139.137 42.5596L140.331 44.2038L141.975 43.0092L140.781 41.365Z" fill="white"/>
<path d="M138.452 32.3826L137.824 34.3154L139.757 34.9435L140.385 33.0106L138.452 32.3826Z" fill="white"/>
<path d="M137.38 28.8691H135.348V30.9015H137.38V28.8691Z" fill="white"/>
<path d="M119.675 52.4745L117.742 53.1025L118.37 55.0354L120.303 54.4074L119.675 52.4745Z" fill="white"/>
<path d="M127.913 53.7709L126.719 55.415L128.363 56.6096L129.558 54.9654L127.913 53.7709Z" fill="white"/>
<path d="M113.077 43.3146L112.312 44.8154L113.813 45.5798L114.578 44.079L113.077 43.3146Z" fill="white"/>
<path d="M118.518 31.7656H117.121V33.162H118.518V31.7656Z" fill="white"/>
<path d="M114.806 37.7026L113.676 38.5234L114.497 39.6532L115.626 38.8324L114.806 37.7026Z" fill="white"/>
<path d="M131.379 29.4952L130.051 29.9268L130.482 31.2548L131.81 30.8233L131.379 29.4952Z" fill="white"/>
<path d="M127.723 28.314L126.594 29.1348L127.415 30.2645L128.544 29.4437L127.723 28.314Z" fill="white"/>
<path d="M134.227 45.5456L133.086 45.7266L133.267 46.8681L134.408 46.6871L134.227 45.5456Z" fill="white"/>
<path d="M135.626 39.629L134.809 40.4463L135.626 41.2636L136.443 40.4463L135.626 39.629Z" fill="white"/>
<path d="M141.59 33.483L140.477 35.6689L142.663 36.7828L143.776 34.5968L141.59 33.483Z" fill="white"/>
<path d="M137.38 49.9873H135.348V52.0196H137.38V49.9873Z" fill="white"/>
<path d="M113.148 32.3925L111.215 33.0205L111.843 34.9534L113.776 34.3253L113.148 32.3925Z" fill="white"/>
<path d="M133.234 25.8511L131.301 26.4795L131.929 28.4122L133.862 27.7839L133.234 25.8511Z" fill="white"/>
<path d="M123.241 24.2738L122.047 25.918L123.691 27.1125L124.886 25.4684L123.241 24.2738Z" fill="white"/>
<path d="M138.524 43.3391L137.023 44.1035L137.788 45.6044L139.289 44.84L138.524 43.3391Z" fill="white"/>
<path d="M112.82 39.2534L111.629 40.4443L112.82 41.6353L114.011 40.4443L112.82 39.2534Z" fill="white"/>
<path d="M137.11 41.2339L135.98 42.0547L136.801 43.1844L137.931 42.3636L137.11 41.2339Z" fill="white"/>
<path d="M121.125 49.6222L119.797 50.0537L120.228 51.3818L121.556 50.9503L121.125 49.6222Z" fill="white"/>
<path d="M125.806 49.4474L124.988 50.2646L125.806 51.0819L126.623 50.2646L125.806 49.4474Z" fill="white"/>
<path d="M119.56 31.8448L119.379 32.9863L120.52 33.1673L120.701 32.0258L119.56 31.8448Z" fill="white"/>
<path d="M116.208 42.6909L115.684 43.7207L116.713 44.2454L117.238 43.2156L116.208 42.6909Z" fill="white"/>
<path d="M116.263 28.8691H114.23V30.9015H116.263V28.8691Z" fill="white"/>
<path d="M128.367 24.2791L126.723 25.4736L127.917 27.1178L129.561 25.9233L128.367 24.2791Z" fill="white"/>
<path d="M129.444 51.6535L128.68 53.1543L130.181 53.9187L130.945 52.4178L129.444 51.6535Z" fill="white"/>
<path d="M114.596 47.1109L114.332 48.7744L115.996 49.0379L116.259 47.3743L114.596 47.1109Z" fill="white"/>
<path d="M135.603 31.8462L135.34 33.5098L137.003 33.7732L137.267 32.1097L135.603 31.8462Z" fill="white"/>
<path d="M134.49 47.7314H133.094V49.1279H134.49V47.7314Z" fill="white"/>
<path d="M136.805 37.7072L135.984 38.8369L137.114 39.6577L137.935 38.528L136.805 37.7072Z" fill="white"/>
<path d="M124.192 50.6226L123.062 51.4434L123.883 52.5731L125.013 51.7523L124.192 50.6226Z" fill="white"/>
<path d="M122.509 30.3247L121.984 31.3545L123.014 31.8792L123.539 30.8494L122.509 30.3247Z" fill="white"/>
<path d="M128.579 48.9975L128.055 50.0273L129.085 50.5521L129.609 49.5222L128.579 48.9975Z" fill="white"/>
<path d="M131.107 47.7315L130.926 48.873L132.067 49.0541L132.248 47.9125L131.107 47.7315Z" fill="white"/>
<path d="M116.721 36.6491L115.691 37.1738L116.216 38.2037L117.246 37.6789L116.721 36.6491Z" fill="white"/>
<path d="M135.397 42.7145L134.367 43.2393L134.892 44.2691L135.922 43.7444L135.397 42.7145Z" fill="white"/>
<path d="M117.388 45.5586L117.207 46.7002L118.349 46.8812L118.53 45.7397L117.388 45.5586Z" fill="white"/>
<path d="M132.06 31.8288L130.918 32.0098L131.099 33.1513L132.241 32.9703L132.06 31.8288Z" fill="white"/>
<path d="M123.022 49.0163L121.992 49.541L122.517 50.5708L123.547 50.0461L123.022 49.0163Z" fill="white"/>
<path d="M114.697 25.154L114.312 27.5771L116.736 27.9614L117.12 25.5382L114.697 25.154Z" fill="white"/>
<path d="M134.888 52.9441L134.504 55.3672L136.927 55.7514L137.311 53.3283L134.888 52.9441Z" fill="white"/>
<path d="M125.801 21.5386L124.066 23.2734L125.801 25.0083L127.536 23.2734L125.801 21.5386Z" fill="white"/>
<path d="M111.277 36.696L109.633 37.8906L110.827 39.5348L112.472 38.3402L111.277 36.696Z" fill="white"/>
<path d="M140.327 36.6859L139.133 38.3301L140.777 39.5246L141.972 37.8805L140.327 36.6859Z" fill="white"/>
<path d="M116.263 49.9873H114.23V52.0196H116.263V49.9873Z" fill="white"/>
<path d="M123.691 53.7771L122.047 54.9717L123.241 56.6159L124.886 55.4213L123.691 53.7771Z" fill="white"/>
<path d="M132.732 49.9829L132.469 51.6465L134.132 51.91L134.396 50.2464L132.732 49.9829Z" fill="white"/>
<path d="M115.996 31.8537L114.332 32.1172L114.596 33.7807L116.259 33.5173L115.996 31.8537Z" fill="white"/>
<path d="M137.011 47.1213L135.348 47.3848L135.611 49.0483L137.275 48.7848L137.011 47.1213Z" fill="white"/>
<path d="M130.188 26.9739L128.688 27.7383L129.452 29.2391L130.953 28.4747L130.188 26.9739Z" fill="white"/>
<path d="M120.236 29.5088L119.805 30.8369L121.133 31.2684L121.564 29.9404L120.236 29.5088Z" fill="white"/>
<path d="M130.494 49.6309L130.062 50.959L131.391 51.3905L131.822 50.0624L130.494 49.6309Z" fill="white"/>
<path d="M115.299 44.6944L114.867 46.0225L116.195 46.454L116.627 45.1259L115.299 44.6944Z" fill="white"/>
<path d="M134.49 31.7656H133.094V33.162H134.49V31.7656Z" fill="white"/>
<path d="M125.806 29.8136L124.988 30.6309L125.806 31.4481L126.623 30.6309L125.806 29.8136Z" fill="white"/>
<path d="M118.345 34.0055L117.203 34.1865L117.384 35.3281L118.526 35.1471L118.345 34.0055Z" fill="white"/>
<path d="M115.985 39.63L115.168 40.4473L115.985 41.2645L116.803 40.4473L115.985 39.63Z" fill="white"/>
<path d="M134.884 36.6225L134.359 37.6523L135.389 38.1771L135.914 37.1472L134.884 36.6225Z" fill="white"/>
<path d="M133.279 34.0176L133.098 35.1592L134.239 35.3402L134.42 34.1986L133.279 34.0176Z" fill="white"/>
<path d="M120.517 47.7184L119.375 47.8994L119.556 49.041L120.698 48.86L120.517 47.7184Z" fill="white"/>
<path d="M129.096 30.3395L128.066 30.8643L128.591 31.8941L129.621 31.3694L129.096 30.3395Z" fill="white"/>
</g>
<g clip-path="url(#clip1_15800_4511)">
<path d="M188.904 21.4403H187.74V11.1108H188.904V21.4403ZM198.44 18.6375V18.6657C198.44 20.4376 196.962 21.5893 194.912 21.5893C193.273 21.5893 191.932 21.0416 190.692 19.9342L191.412 19.0804C192.492 20.055 193.523 20.5423 194.952 20.5423C196.382 20.5423 197.256 19.8053 197.256 18.7865V18.7583C197.256 17.7998 196.74 17.2521 194.57 16.7971C192.194 16.2816 191.102 15.5124 191.102 13.817V13.7888C191.102 12.1659 192.536 10.9698 194.497 10.9698C196.003 10.9698 197.079 11.3967 198.126 12.2384L197.449 13.1364C196.491 12.3552 195.532 12.0129 194.469 12.0129C193.128 12.0129 192.27 12.7498 192.27 13.6801V13.7083C192.27 14.6828 192.802 15.2265 195.073 15.7138C197.377 16.2172 198.44 17.0588 198.44 18.6375ZM208.822 10.9336C205.681 10.9336 203.538 13.4264 203.538 16.2735V16.3017C203.538 19.1489 205.648 21.6135 208.789 21.6135C211.931 21.6135 214.073 19.1207 214.073 16.2735V16.2454C214.073 13.3982 211.963 10.9336 208.822 10.9336ZM212.865 16.3058C212.865 18.6536 211.182 20.5383 208.822 20.5383C206.462 20.5383 204.75 18.6214 204.75 16.2735V16.2454C204.75 13.8975 206.434 12.0088 208.793 12.0088C211.153 12.0088 212.865 13.9257 212.865 16.2735V16.3017V16.3058ZM200.361 11.1108H201.529V21.4403H200.361V11.1108ZM180.68 21.5128L176.238 11.1108H177.535L178.171 12.6491L181.212 20.0107L181.502 20.7154L181.389 19.5798L184.901 11.1108H186.153L181.711 21.5128H180.68ZM223.581 11.1108H224.717V21.4403H223.786L216.469 12.1498L217.117 13.6559V21.4403H215.982V11.1108H217.073L224.06 19.9986L223.581 18.7301V11.1108Z" fill="white"/>
<path d="M256.243 22.5354H257.338V23.6307H256.243V22.5354ZM258.43 22.5354H259.525V23.6307H258.43V22.5354ZM235.91 10.0272H234.815V8.9358H235.91V10.0272ZM262.654 17.6746C263.069 17.9726 263.552 18.1901 264.096 18.3311C264.644 18.472 265.223 18.5405 265.832 18.5405H266.122L266.488 17.7673V18.8546C266.488 19.4305 266.323 19.8372 265.997 20.0869C265.67 20.3325 265.207 20.4574 264.615 20.4574C264.277 20.4574 263.975 20.4252 263.705 20.3607C263.435 20.2963 263.129 20.1876 262.783 20.0345L262.441 21.0856C262.86 21.2427 263.23 21.3554 263.556 21.436C263.878 21.5125 264.205 21.5527 264.535 21.5527C265.602 21.5527 266.375 21.299 266.858 20.7956C267.342 20.2882 267.583 19.6077 267.583 18.7539V11.1266H265.836C265.159 11.1266 264.547 11.2232 263.991 11.4125C263.435 11.6018 262.96 11.8635 262.562 12.1978C262.167 12.532 261.857 12.9267 261.639 13.3858C261.422 13.8449 261.313 14.3442 261.313 14.8838C261.313 15.5322 261.434 16.0839 261.676 16.543C261.917 17.0021 262.247 17.3807 262.658 17.6787M262.654 13.8006C262.823 13.4744 263.045 13.1925 263.323 12.9589C263.601 12.7253 263.919 12.5481 264.273 12.4193C264.619 12.2944 264.974 12.234 265.344 12.23H267.108L266.484 12.5441V17.4531H265.377C264.966 17.4531 264.583 17.3968 264.221 17.284C263.862 17.1712 263.544 17.0061 263.27 16.7846C262.996 16.5672 262.783 16.2974 262.63 15.9752C262.477 15.6571 262.396 15.2906 262.396 14.8838C262.396 14.4771 262.481 14.1308 262.65 13.8046M238.097 10.0272H237.001V8.9358H238.097V10.0272ZM270.35 21.5527C270.06 21.5527 269.762 21.5125 269.46 21.4279L269.746 20.3768C269.875 20.4131 269.971 20.4332 270.048 20.4453C270.12 20.4533 270.209 20.4614 270.31 20.4614C270.519 20.4614 270.688 20.4332 270.821 20.3728C270.954 20.3124 271.059 20.2157 271.135 20.0869C271.212 19.954 271.268 19.7808 271.296 19.5674C271.329 19.3539 271.345 19.0922 271.345 18.7821V11.1266H272.436V18.7821C272.436 19.213 272.404 19.5956 272.335 19.9379C272.267 20.2802 272.15 20.5701 271.985 20.8118C271.82 21.0534 271.606 21.2386 271.337 21.3635C271.067 21.4923 270.737 21.5568 270.346 21.5568M267.583 10.0272H265.187V9.13313C265.187 8.6539 265.3 8.29952 265.521 8.08205C265.743 7.86459 266.069 7.75586 266.488 7.75586H267.261V8.51698H266.508C266.339 8.51698 266.222 8.5492 266.17 8.61363C266.113 8.68612 266.081 8.79485 266.081 8.9358V9.18951H267.583V10.0352V10.0272ZM235.113 21.3997H237.384V20.5822C237.404 20.6185 237.428 20.6587 237.453 20.695C237.618 20.9366 237.835 21.1218 238.101 21.2467C238.371 21.3756 238.701 21.44 239.092 21.44H259.521V11.1225H258.426V20.3486H239.132C238.922 20.3486 238.753 20.3204 238.62 20.26C238.487 20.1996 238.383 20.103 238.306 19.9741C238.23 19.8412 238.173 19.6681 238.141 19.4546C238.109 19.2412 238.093 18.9794 238.093 18.6693V11.1266H235.137C232.113 11.1266 230.055 13.5267 230.055 16.2651V16.2933C230.055 19.0318 232.084 21.4037 235.109 21.4037M231.227 16.2329C231.227 13.9737 232.845 12.1615 235.117 12.1615H237.678L237.01 12.4958V18.6693C237.01 19.0962 237.042 19.4828 237.11 19.8251C237.15 20.0224 237.207 20.2037 237.279 20.3688H235.145C232.874 20.3688 231.227 18.5244 231.227 16.2651V16.237V16.2329Z" fill="white"/>
<path d="M226.815 71.9524C226.815 72.7296 226.207 73.233 225.269 73.233C224.604 73.233 223.984 73.0035 223.477 72.5645L223.875 72.0893C224.338 72.4759 224.777 72.6491 225.289 72.6491C225.8 72.6491 226.147 72.4034 226.147 72.0088C226.147 71.6141 225.897 71.453 225.083 71.2638C224.141 71.0382 223.634 70.7644 223.634 69.967C223.634 69.2341 224.238 68.7227 225.108 68.7227C225.708 68.7227 226.203 68.8878 226.658 69.2422L226.3 69.7455C225.893 69.4475 225.494 69.3066 225.095 69.3066C224.628 69.3066 224.302 69.5522 224.302 69.9147C224.302 70.3053 224.54 70.4704 225.414 70.6798C226.42 70.9255 226.811 71.2758 226.811 71.9524" fill="white"/>
<path d="M229.992 68.7588H229.335L227.41 73.1685H228.091L228.55 72.0852H230.757L231.216 73.1685H231.916L229.992 68.7588ZM228.787 71.5053L229.649 69.4917L230.515 71.5053H228.787Z" fill="white"/>
<path d="M236.264 68.791V71.2798C236.264 72.5242 235.584 73.241 234.392 73.241C233.2 73.241 232.535 72.5403 232.535 71.32V68.791H233.204V71.2878C233.204 72.1416 233.643 72.6329 234.4 72.6329C235.157 72.6329 235.592 72.1537 235.592 71.32V68.791H236.26H236.264Z" fill="white"/>
<path d="M239.154 68.791H237.535V73.1685H239.154C240.503 73.1685 241.482 72.2503 241.482 70.9777C241.482 69.7052 240.503 68.791 239.154 68.791ZM239.154 72.5684H238.208V69.3911H239.154C240.108 69.3911 240.773 70.0435 240.773 70.9777C240.773 71.912 240.108 72.5684 239.154 72.5684Z" fill="white"/>
<path d="M243.278 68.791H242.609V73.1685H243.278V68.791Z" fill="white"/>
<path d="M249.183 68.7588H248.531L246.602 73.1685H247.282L247.741 72.0852H249.948L250.403 73.1685H251.108L249.183 68.7588ZM247.983 71.5053L248.845 69.4917L249.711 71.5053H247.983Z" fill="white"/>
<path d="M254.448 71.4931L254.529 71.4689C255.193 71.2797 255.556 70.8165 255.556 70.1641C255.556 69.7816 255.431 69.4594 255.201 69.2258C254.916 68.9439 254.481 68.7949 253.945 68.7949H252.004V73.1724H252.672V71.6058H253.74L253.768 71.634L254.855 73.1764H255.64L254.444 71.5011L254.448 71.4931ZM252.676 71.0219V69.395H253.885C254.517 69.395 254.875 69.6889 254.875 70.1964C254.875 70.7038 254.489 71.0219 253.889 71.0219H252.672H252.676Z" fill="white"/>
<path d="M259.019 68.7588H258.362L256.438 73.1685H257.114L257.577 72.0852H259.784L260.239 73.1685H260.944L259.019 68.7588ZM257.815 71.5053L258.677 69.4917L259.546 71.5053H257.815Z" fill="white"/>
<path d="M264.615 70.9494L264.482 70.9051L264.606 70.8407C265.017 70.6273 265.219 70.3172 265.219 69.8903C265.219 69.5963 265.126 69.3668 264.933 69.1735C264.683 68.9278 264.292 68.7949 263.801 68.7949H261.84V73.1724H263.861C264.868 73.1724 265.464 72.7334 265.464 72.0005C265.464 71.4729 265.202 71.1548 264.61 70.9535M262.5 69.3748H263.696C264.228 69.3748 264.546 69.6124 264.546 70.0031C264.546 70.446 264.216 70.6877 263.64 70.6877H262.5V69.3708V69.3748ZM263.869 72.5885H262.5V71.2354H263.813C264.671 71.2354 264.796 71.6501 264.796 71.8998C264.796 72.3428 264.457 72.5885 263.865 72.5885" fill="white"/>
<path d="M267.235 68.791H266.566V73.1685H267.235V68.791Z" fill="white"/>
<path d="M270.722 68.7588H270.07L268.141 73.1685H268.821L269.28 72.0852H271.487L271.946 73.1685H272.647L270.722 68.7588ZM269.518 71.5053L270.38 69.4917L271.25 71.5053H269.518Z" fill="white"/>
<path d="M204.222 29.4058L203.984 30.9053L205.484 31.143L205.722 29.6436L204.222 29.4058Z" fill="white"/>
<path d="M223.456 38.6784L222.383 39.752L223.456 40.8255L224.53 39.752L223.456 38.6784Z" fill="white"/>
<path d="M222.549 35.1141L221.859 36.4668L223.212 37.1561L223.901 35.8033L222.549 35.1141Z" fill="white"/>
<path d="M219.253 29.4001L217.754 29.6387L217.992 31.138L219.492 30.8995L219.253 29.4001Z" fill="white"/>
<path d="M211.726 26.9577L210.652 28.0312L211.726 29.1048L212.799 28.0313L211.726 26.9577Z" fill="white"/>
<path d="M209.995 28.8004L209.254 29.8203L210.274 30.561L211.015 29.5411L209.995 28.8004Z" fill="white"/>
<path d="M221.215 43.576L220.02 43.9639L220.409 45.1628L221.604 44.7749L221.215 43.576Z" fill="white"/>
<path d="M226.962 43.0752L224.988 44.0811L225.994 46.0544L227.968 45.0485L226.962 43.0752Z" fill="white"/>
<path d="M221.766 25.9436L219.578 26.29L219.925 28.4777L222.112 28.1312L221.766 25.9436Z" fill="white"/>
<path d="M207.788 27.59L207.098 28.9424L208.454 29.6342L209.144 28.2818L207.788 27.59Z" fill="white"/>
<path d="M220.42 34.3372L220.031 35.5361L221.226 35.924L221.615 34.7251L220.42 34.3372Z" fill="white"/>
<path d="M205.028 26.5825L204.461 28.3291L206.208 28.8963L206.775 27.1497L205.028 26.5825Z" fill="white"/>
<path d="M224.332 44.7099L222.586 45.2773L223.153 47.0238L224.9 46.4564L224.332 44.7099Z" fill="white"/>
<path d="M225.255 40.5886L223.77 41.668L224.849 43.1536L226.335 42.0742L225.255 40.5886Z" fill="white"/>
<path d="M223.157 32.478L222.59 34.2246L224.336 34.7918L224.904 33.0452L223.157 32.478Z" fill="white"/>
<path d="M222.18 29.3008H220.344V31.1371H222.18V29.3008Z" fill="white"/>
<path d="M216.761 29.8609L215.562 30.25L215.95 31.4451L217.149 31.056L216.761 29.8609Z" fill="white"/>
<path d="M213.47 28.8115L212.453 29.5498L213.191 30.5664L214.208 29.8281L213.47 28.8115Z" fill="white"/>
<path d="M220.604 39.0316L219.867 39.7695L220.605 40.5067L221.342 39.7688L220.604 39.0316Z" fill="white"/>
<path d="M225.979 33.4642L224.973 35.4375L226.946 36.4434L227.952 34.4701L225.979 33.4642Z" fill="white"/>
<path d="M222.18 48.3691H220.344V50.2055H222.18V48.3691Z" fill="white"/>
<path d="M218.438 26.578L216.691 27.1455L217.259 28.892L219.005 28.3245L218.438 26.578Z" fill="white"/>
<path d="M209.411 25.1432L208.332 26.6289L209.818 27.7083L210.897 26.2226L209.411 25.1432Z" fill="white"/>
<path d="M223.208 42.3469L221.855 43.0361L222.545 44.3889L223.897 43.6996L223.208 42.3469Z" fill="white"/>
<path d="M221.946 40.48L220.926 41.2207L221.666 42.2406L222.686 41.4999L221.946 40.48Z" fill="white"/>
<path d="M203.118 29.3008H201.281V31.1371H203.118V29.3008Z" fill="white"/>
<path d="M214.048 25.1618L212.562 26.2412L213.642 27.7269L215.128 26.6475L214.048 25.1618Z" fill="white"/>
<path d="M220.582 31.9909L220.344 33.4902L221.847 33.7294L222.086 32.2301L220.582 31.9909Z" fill="white"/>
<path d="M221.652 37.2734L220.914 38.29L221.931 39.0284L222.669 38.0117L221.652 37.2734Z" fill="white"/>
<path d="M208.778 30.6301L208.305 31.5596L209.234 32.0328L209.707 31.1033L208.778 30.6301Z" fill="white"/>
<path d="M201.698 25.9452L201.352 28.1328L203.539 28.4793L203.886 26.2917L201.698 25.9452Z" fill="white"/>
<path d="M211.73 22.6838L210.164 24.25L211.73 25.8162L213.296 24.25L211.73 22.6838Z" fill="white"/>
<path d="M224.837 36.3522L223.758 37.8379L225.243 38.9173L226.323 37.4316L224.837 36.3522Z" fill="white"/>
<path d="M221.851 45.7652L220.352 46.0029L220.589 47.5024L222.089 47.2647L221.851 45.7652Z" fill="white"/>
<path d="M215.68 27.5688L214.328 28.2588L215.018 29.6112L216.37 28.9212L215.68 27.5688Z" fill="white"/>
<path d="M206.712 29.8879L206.324 31.083L207.523 31.4721L207.911 30.277L206.712 29.8879Z" fill="white"/>
<path d="M211.734 30.1541L210.996 30.8916L211.734 31.6291L212.471 30.8916L211.734 30.1541Z" fill="white"/>
<path d="M214.699 30.6183L213.77 31.0918L214.243 32.0211L215.172 31.5476L214.699 30.6183Z" fill="white"/>
<path d="M180.286 73.1684H179.481L177.922 71.1145L177.153 71.9039V73.1684H176.484V68.7949H177.153V71.1468L179.38 68.7949H180.181L178.377 70.6635L180.286 73.1684Z" fill="white"/>
<path d="M181.86 68.791H181.188V73.1685H181.86V68.791Z" fill="white"/>
<path d="M186.997 68.791V73.1685H186.425L183.856 69.8582V73.1685H183.195V68.791H183.84L186.34 72.0167V68.791H186.997Z" fill="white"/>
<path d="M192.181 70.7759V72.576C191.811 72.8861 191.207 73.2445 190.365 73.2445C189.028 73.2445 188.094 72.3183 188.094 70.9893V70.9772C188.094 69.7087 189.088 68.71 190.353 68.71C191.034 68.71 191.513 68.871 191.996 69.2697L191.573 69.7771C191.239 69.5033 190.889 69.3181 190.321 69.3181C189.483 69.3181 188.803 70.059 188.803 70.9772C188.803 71.9598 189.455 72.6445 190.389 72.6445C190.804 72.6445 191.207 72.5156 191.513 72.2901L191.537 72.2699V71.3397H190.385V70.7718H192.181V70.7759Z" fill="white"/>
<path d="M195.009 68.791H193.395V73.1685H195.009C196.358 73.1685 197.341 72.2503 197.341 70.9777C197.341 69.7052 196.363 68.791 195.009 68.791ZM195.009 72.5684H194.063V69.3911H195.009C195.964 69.3911 196.632 70.0435 196.632 70.9777C196.632 71.912 195.964 72.5684 195.009 72.5684Z" fill="white"/>
<path d="M200.499 68.714C199.19 68.714 198.203 69.6885 198.203 70.9813V70.9933C198.203 72.278 199.186 73.2445 200.486 73.2445C201.787 73.2445 202.786 72.274 202.786 70.9772C202.786 69.6805 201.803 68.71 200.499 68.71M202.073 70.9933C202.073 71.9317 201.397 72.6404 200.495 72.6404C199.592 72.6404 198.908 71.9115 198.908 70.9772C198.908 70.0429 199.584 69.3181 200.482 69.3181C201.381 69.3181 202.073 70.047 202.073 70.9772V70.9893V70.9933Z" fill="white"/>
<path d="M208.188 68.791V73.1685H207.515V69.8058L206.021 72.0369L204.543 69.822V73.1685H203.887V68.791H204.636L206.037 70.9697L207.435 68.791H208.188Z" fill="white"/>
<path d="M213.796 68.714C212.487 68.714 211.496 69.6885 211.496 70.9813V70.9933C211.496 72.278 212.479 73.2445 213.783 73.2445C215.088 73.2445 216.083 72.274 216.083 70.9772C216.083 69.6805 215.1 68.71 213.796 68.71M215.374 70.9933C215.374 71.9317 214.698 72.6404 213.796 72.6404C212.893 72.6404 212.209 71.9115 212.209 70.9772C212.209 70.0429 212.885 69.3181 213.783 69.3181C214.682 69.3181 215.374 70.047 215.374 70.9772V70.9893V70.9933Z" fill="white"/>
<path d="M217.856 69.3911V70.7401H220.123V71.3402H217.856V73.1725H217.184V68.791H220.413V69.3911H217.856Z" fill="white"/>
<path d="M245.784 58.9446H245.136V59.5929H245.784V58.9446ZM237.903 64.5946H238.531V58.9446H237.903V64.5946ZM182.901 60.3219H182.273V63.9664H179.772V60.3219H178.781C178.386 60.3219 178.032 60.3742 177.71 60.4829C177.388 60.5917 177.118 60.7407 176.892 60.9299C176.667 61.1233 176.494 61.3488 176.369 61.6105C176.244 61.8723 176.184 62.1582 176.184 62.4602C176.184 62.8307 176.256 63.1529 176.397 63.4227C176.538 63.6885 176.727 63.91 176.965 64.0832C177.202 64.2563 177.476 64.3852 177.79 64.4698C178.105 64.5543 178.435 64.5946 178.781 64.5946H182.905V60.3219H182.901ZM179.139 63.9664H178.519C178.286 63.9664 178.06 63.9342 177.855 63.8657C177.645 63.7973 177.464 63.6966 177.311 63.5717C177.158 63.4429 177.033 63.2858 176.945 63.1006C176.856 62.9153 176.812 62.7019 176.812 62.4683C176.812 62.2347 176.86 62.0374 176.957 61.8481C177.053 61.6629 177.182 61.5018 177.343 61.3689C177.504 61.236 177.686 61.1353 177.891 61.0628C178.096 60.9904 178.306 60.9541 178.519 60.9541H179.139V63.9704V63.9664ZM181.153 65.988H181.801V65.3396H181.153V65.988ZM179.764 58.9446H179.115V59.5929H179.764V58.9446ZM218.219 58.9446H217.57V59.5929H218.219V58.9446ZM182.252 65.988H182.901V65.3396H182.252V65.988ZM219.322 58.9446H218.674V59.5929H219.322V58.9446ZM244.681 58.9446H244.032V59.5929H244.681V58.9446ZM178.664 58.9446H178.016V59.5929H178.664V58.9446ZM221.416 65.988H222.064V65.3396H221.416V65.988ZM225.459 60.3219H224.831V63.9664H222.455V60.3219H221.827V63.9664H219.326V60.3219H218.335C217.941 60.3219 217.586 60.3742 217.264 60.4829C216.942 60.5917 216.672 60.7407 216.447 60.9299C216.221 61.1233 216.048 61.3488 215.923 61.6105C215.798 61.8723 215.738 62.1582 215.738 62.4602C215.738 62.8307 215.81 63.1529 215.951 63.4227C216.092 63.6885 216.282 63.91 216.519 64.0832C216.757 64.2563 217.031 64.3852 217.345 64.4698C217.659 64.5543 217.989 64.5946 218.335 64.5946H225.467V60.3219H225.459ZM218.69 63.9664H218.07C217.832 63.9664 217.61 63.9342 217.405 63.8657C217.2 63.7973 217.019 63.6966 216.861 63.5717C216.708 63.4429 216.584 63.2858 216.495 63.1006C216.406 62.9153 216.362 62.7019 216.362 62.4683C216.362 62.2347 216.41 62.0374 216.507 61.8481C216.604 61.6629 216.733 61.5018 216.894 61.3689C217.055 61.236 217.236 61.1353 217.441 61.0628C217.647 60.9904 217.856 60.9541 218.074 60.9541H218.694V63.9704L218.69 63.9664ZM222.52 65.988H223.168V65.3396H222.52V65.988ZM186.964 60.8736C186.795 60.6923 186.61 60.5514 186.4 60.4628C186.195 60.3702 185.941 60.3259 185.639 60.3259H185.176V60.9541H185.728C185.881 60.9541 186.026 60.9863 186.159 61.0548C186.296 61.1192 186.408 61.2038 186.497 61.3085C186.586 61.4172 186.646 61.538 186.682 61.6709C186.719 61.8038 186.735 61.9609 186.735 62.1421V63.9664H183.783V64.5946H187.363V62.1139C187.363 61.8683 187.331 61.6387 187.266 61.4213C187.202 61.2078 187.097 61.0226 186.964 60.8695M235.439 63.9664H232.765L233.864 61.3286C233.695 61.1796 233.518 61.0427 233.328 60.9138C233.139 60.785 232.946 60.6722 232.744 60.5756C232.543 60.4789 232.342 60.4024 232.14 60.346C231.935 60.2896 231.734 60.2614 231.536 60.2614C231.339 60.2614 231.125 60.2896 230.924 60.346C230.719 60.4024 230.517 60.4749 230.312 60.5715C230.111 60.6682 229.917 60.7809 229.728 60.9098C229.543 61.0427 229.366 61.1796 229.205 61.3286L230.316 63.9664H227.968V60.3219H227.34V64.7315C227.34 64.9087 227.332 65.0618 227.312 65.1826C227.292 65.3074 227.263 65.4041 227.215 65.4806C227.171 65.5571 227.11 65.6095 227.034 65.6457C226.957 65.6779 226.861 65.698 226.74 65.698C226.684 65.698 226.631 65.698 226.591 65.69C226.547 65.6819 226.49 65.6699 226.418 65.6497L226.253 66.2538C226.426 66.3021 226.595 66.3263 226.764 66.3263C226.99 66.3263 227.179 66.29 227.336 66.2175C227.489 66.1451 227.614 66.0363 227.711 65.8994C227.807 65.7625 227.872 65.5933 227.912 65.396C227.952 65.1987 227.972 64.9772 227.972 64.7315V64.5986H236.071V58.9486H235.443V63.9664H235.439ZM230.976 63.9664L229.994 61.5501C230.236 61.3447 230.485 61.1957 230.739 61.1031C230.993 61.0065 231.258 60.9622 231.54 60.9622C231.822 60.9622 232.104 61.0185 232.382 61.1313C232.66 61.2441 232.897 61.385 233.091 61.5501L232.108 63.9664H230.985H230.976ZM224.823 65.988H225.471V65.3396H224.823V65.988ZM271.767 64.5946H272.395V58.9446H271.767V64.5946ZM269.303 63.9664H267.14C267.269 63.6764 267.337 63.3704 267.337 63.0361C267.337 62.7019 267.277 62.4079 267.16 62.126C267.043 61.8441 266.882 61.6025 266.677 61.3971C266.471 61.1917 266.23 61.0306 265.948 60.9138C265.666 60.793 265.364 60.7366 265.038 60.7366C264.712 60.7366 264.43 60.7971 264.156 60.9179C263.882 61.0387 263.644 61.2038 263.443 61.4092C263.242 61.6146 263.081 61.8602 262.968 62.1381C262.851 62.416 262.795 62.714 262.795 63.0361C262.795 63.2053 262.811 63.3663 262.847 63.5194C262.883 63.6764 262.928 63.8214 262.984 63.9624H261.031C261.164 63.6724 261.228 63.3664 261.228 63.0321C261.228 62.6979 261.168 62.4039 261.051 62.122C260.934 61.8401 260.769 61.5984 260.568 61.3931C260.362 61.1877 260.121 61.0266 259.839 60.9098C259.557 60.789 259.255 60.7326 258.929 60.7326C258.602 60.7326 258.321 60.793 258.047 60.9138C257.773 61.0347 257.535 61.1998 257.334 61.4051C257.133 61.6105 256.972 61.8562 256.859 62.1341C256.742 62.4119 256.686 62.7099 256.686 63.0321C256.686 63.2012 256.702 63.3623 256.738 63.5154C256.77 63.6724 256.818 63.8174 256.875 63.9583H254.877V58.9406H254.249V63.9583H252.244V62.9959C252.244 62.7542 252.211 62.5247 252.147 62.3072C252.087 62.0898 251.986 61.9045 251.849 61.7515C251.688 61.5703 251.503 61.4293 251.297 61.3407C251.092 61.2521 250.834 61.2078 250.52 61.2078H247.733L248.917 58.9406H248.233L247.025 61.1998C247.045 61.3367 247.077 61.4535 247.121 61.5541C247.165 61.6548 247.226 61.7475 247.306 61.836H250.52C250.717 61.836 250.891 61.8683 251.036 61.9287C251.181 61.9891 251.297 62.0696 251.386 62.1784C251.474 62.2831 251.535 62.4039 251.567 62.5408C251.599 62.6777 251.615 62.8307 251.615 62.9959V63.9583H245.792V60.3138H244.802C244.407 60.3138 244.053 60.3662 243.73 60.4749C243.408 60.5836 243.138 60.7326 242.913 60.9219C242.687 61.1152 242.514 61.3407 242.389 61.6025C242.264 61.8642 242.204 62.1502 242.204 62.4522C242.204 62.8227 242.277 63.1449 242.418 63.4147C242.558 63.6805 242.748 63.902 242.985 64.0751C243.219 64.2483 243.497 64.3772 243.811 64.4617C244.125 64.5463 244.455 64.5866 244.802 64.5866H257.29C257.495 64.8081 257.737 64.9812 258.019 65.1101C258.3 65.239 258.607 65.3034 258.937 65.3034C259.267 65.3034 259.585 65.239 259.879 65.1141C260.169 64.9893 260.423 64.8121 260.632 64.5866H263.403C263.608 64.8081 263.85 64.9812 264.132 65.1101C264.414 65.239 264.72 65.3034 265.05 65.3034C265.38 65.3034 265.698 65.239 265.988 65.1141C266.278 64.9893 266.528 64.8121 266.741 64.5866H269.943V58.9365H269.315V63.9543L269.303 63.9664ZM245.16 63.9664H244.536C244.302 63.9664 244.077 63.9342 243.871 63.8657C243.666 63.7973 243.485 63.6966 243.328 63.5717C243.175 63.4429 243.05 63.2858 242.961 63.1006C242.873 62.9153 242.828 62.7019 242.828 62.4683C242.828 62.2347 242.877 62.0374 242.973 61.8481C243.07 61.6629 243.199 61.5018 243.36 61.3689C243.521 61.236 243.702 61.1353 243.908 61.0628C244.113 60.9904 244.322 60.9541 244.536 60.9541H245.16V63.9704V63.9664ZM260.471 63.6845C260.382 63.8858 260.266 64.063 260.117 64.208C259.968 64.353 259.79 64.4698 259.589 64.5503C259.388 64.6309 259.166 64.6711 258.933 64.6711C258.699 64.6711 258.49 64.6268 258.292 64.5423C258.095 64.4577 257.926 64.3369 257.781 64.1879C257.636 64.0389 257.523 63.8657 257.443 63.6644C257.362 63.467 257.322 63.2536 257.322 63.0281C257.322 62.8026 257.362 62.5891 257.443 62.3878C257.523 62.1864 257.636 62.0092 257.777 61.8602C257.918 61.7112 258.087 61.5904 258.284 61.5018C258.482 61.4132 258.699 61.3689 258.933 61.3689C259.166 61.3689 259.396 61.4132 259.597 61.4937C259.799 61.5783 259.976 61.6951 260.125 61.8401C260.274 61.9891 260.391 62.1622 260.475 62.3636C260.56 62.565 260.6 62.7864 260.6 63.0281C260.6 63.2697 260.556 63.4831 260.471 63.6845ZM266.576 63.6845C266.488 63.8858 266.371 64.063 266.222 64.208C266.073 64.353 265.896 64.4698 265.694 64.5503C265.493 64.6309 265.271 64.6711 265.038 64.6711C264.804 64.6711 264.595 64.6268 264.397 64.5423C264.2 64.4577 264.031 64.3369 263.886 64.1879C263.741 64.0389 263.628 63.8657 263.548 63.6644C263.467 63.467 263.427 63.2536 263.427 63.0281C263.427 62.8026 263.467 62.5891 263.548 62.3878C263.628 62.1864 263.741 62.0092 263.882 61.8602C264.023 61.7112 264.192 61.5904 264.389 61.5018C264.587 61.4132 264.804 61.3689 265.038 61.3689C265.271 61.3689 265.501 61.4132 265.702 61.4937C265.904 61.5783 266.081 61.6951 266.23 61.8401C266.379 61.9891 266.496 62.1622 266.58 62.3636C266.665 62.565 266.705 62.7864 266.705 63.0281C266.705 63.2697 266.661 63.4831 266.576 63.6845ZM208.852 63.9664H207.821C207.454 63.9664 207.164 63.914 206.955 63.8093C206.745 63.7046 206.58 63.5476 206.459 63.3382C206.496 63.1771 206.516 62.9797 206.516 62.7462V60.7165H205.888V62.8509C205.888 63.2133 205.791 63.5033 205.598 63.7207C205.404 63.9382 205.11 64.0469 204.716 64.0469C204.53 64.0469 204.365 64.0187 204.212 63.9583C204.059 63.8979 203.926 63.8214 203.818 63.7207C203.709 63.6201 203.62 63.5033 203.556 63.3704C203.495 63.2375 203.459 63.0925 203.455 62.9395V60.7125H202.823V62.8912C202.823 63.0845 202.795 63.2496 202.738 63.3825C202.682 63.5154 202.601 63.6241 202.501 63.7127C202.4 63.7972 202.287 63.8617 202.162 63.902C202.038 63.9422 201.905 63.9583 201.76 63.9583H200.54V60.7085H199.911V63.9583H196.605L197.709 61.3206C197.539 61.1716 197.362 61.0346 197.173 60.9058C196.984 60.7769 196.79 60.6642 196.589 60.5675C196.392 60.4709 196.186 60.3943 195.985 60.338C195.78 60.2816 195.578 60.2534 195.381 60.2534C195.184 60.2534 194.974 60.2816 194.769 60.338C194.563 60.3943 194.362 60.4668 194.161 60.5635C193.959 60.6601 193.766 60.7729 193.577 60.9018C193.391 61.0347 193.214 61.1716 193.053 61.3206L194.165 63.9583H191.986V60.3138H190.979C190.589 60.3138 190.238 60.3702 189.916 60.4789C189.594 60.5917 189.32 60.7407 189.095 60.9299C188.865 61.1233 188.688 61.3488 188.563 61.6146C188.438 61.8803 188.374 62.1663 188.374 62.4764C188.374 62.8509 188.442 63.169 188.583 63.4348C188.724 63.7006 188.909 63.9181 189.151 64.0872C189.388 64.2563 189.666 64.3852 189.98 64.4658C190.295 64.5463 190.629 64.5866 190.979 64.5866H191.358V64.7678C191.358 65.098 191.261 65.3356 191.076 65.4766C190.887 65.6175 190.621 65.69 190.283 65.69C190.089 65.69 189.912 65.6699 189.759 65.6336C189.606 65.5974 189.429 65.5329 189.227 65.4443L189.03 66.0484C189.272 66.137 189.485 66.2055 189.67 66.2498C189.856 66.2941 190.045 66.3142 190.234 66.3142C190.846 66.3142 191.293 66.1692 191.571 65.8793C191.849 65.5893 191.99 65.1947 191.99 64.7034V64.5866H201.772C202.074 64.5866 202.348 64.5221 202.585 64.3892C202.823 64.2563 203.016 64.0832 203.165 63.8617C203.318 64.1154 203.524 64.3087 203.785 64.4537C204.047 64.5946 204.361 64.6671 204.724 64.6671C205.086 64.6671 205.424 64.6027 205.686 64.4698C205.952 64.3369 206.153 64.1355 206.294 63.8617C206.347 63.9503 206.411 64.0389 206.488 64.1275C206.564 64.212 206.661 64.2926 206.782 64.361C206.902 64.4295 207.047 64.4859 207.221 64.5262C207.349 64.5584 207.506 64.5745 207.672 64.5825V64.5906H209.488V58.9406H208.86V63.9583L208.852 63.9664ZM191.346 63.9664H190.709C190.472 63.9664 190.25 63.9342 190.045 63.8697C189.835 63.8053 189.654 63.7087 189.497 63.5838C189.34 63.459 189.215 63.3019 189.127 63.1207C189.038 62.9354 188.994 62.726 188.994 62.4884C188.994 62.2508 189.042 62.0575 189.139 61.8683C189.235 61.679 189.364 61.5179 189.525 61.385C189.686 61.2521 189.868 61.1474 190.073 61.0749C190.278 61.0024 190.492 60.9662 190.709 60.9662H191.346V63.9744V63.9664ZM194.817 63.9664L193.834 61.5501C194.076 61.3447 194.322 61.1957 194.579 61.1031C194.833 61.0065 195.099 60.9622 195.377 60.9622C195.655 60.9622 195.941 61.0185 196.218 61.1313C196.496 61.2441 196.73 61.385 196.927 61.5501L195.945 63.9664H194.817ZM211.312 64.5946H211.94V58.9446H211.312V64.5946Z" fill="white"/>
<path d="M260.234 26.9972C252.518 26.9972 246.908 32.8204 246.908 39.9282V40.0007C246.908 47.1086 252.445 52.8593 260.161 52.8593C267.877 52.8593 273.487 47.0361 273.487 39.9282V39.8558C273.487 32.7479 267.95 26.9932 260.234 26.9932M267.736 40.0048C267.736 44.2896 264.663 47.7932 260.234 47.7932C255.804 47.7932 252.659 44.2212 252.659 39.9323V39.8598C252.659 35.5709 255.731 32.0714 260.161 32.0714C264.591 32.0714 267.736 35.6434 267.736 39.9282V40.0007V40.0048ZM185.152 47.6845H194.684V52.4365H176.18V48.0791L184.504 41.2532C187.613 38.6798 188.825 37.3267 188.825 35.2528C188.825 33.1788 187.431 32.0029 185.466 32.0029C183.501 32.0029 182.216 33.0741 180.36 35.3615L176.502 32.2526C178.966 28.894 181.363 27.0737 185.829 27.0737C191.008 27.0737 194.439 30.1101 194.439 34.7897V34.8621C194.439 39.0423 192.296 41.1122 187.866 44.5433L182.402 48.7637L181.342 49.5853L185.156 47.6925L185.152 47.6845ZM245.49 44.6118V44.6843C245.49 49.4 242.059 52.8674 236.486 52.8674C231.983 52.8674 228.878 51.0834 226.732 48.5463L230.518 44.938C232.233 46.867 234.017 47.9382 236.554 47.9382C238.628 47.9382 240.09 46.7582 240.09 44.9017V44.8292C240.09 42.7915 238.27 41.6519 235.197 41.6519H232.91L232.052 38.1483L240.074 30.0779L236.86 32.1479H228.194V27.4321H245.092V31.576L238.769 37.6127C242.164 38.1845 245.486 39.9725 245.486 44.6158" fill="white"/>
<path d="M218.688 41.0962C218.527 41.0036 218.229 40.8505 217.822 40.7217C217.23 40.5324 216.409 40.3915 215.438 40.5485C215.112 40.6009 214.766 40.6854 214.403 40.8143C214.371 40.8264 214.335 40.8385 214.303 40.8505C214.121 40.919 213.94 41.0036 213.755 41.0962C213.598 41.1727 213.445 41.2613 213.288 41.3539C212.937 41.5633 212.587 41.809 212.249 42.0667C211.866 39.735 212.052 37.5725 212.14 36.5053C212.14 36.5013 212.148 36.4972 212.152 36.5013C212.978 37.0208 212.744 38.4746 212.575 38.8893C212.575 38.8974 212.583 38.9055 212.591 38.8974C213.618 37.6812 213.115 36.3402 212.905 35.9979C212.901 35.9898 212.909 35.9818 212.917 35.9898C213.066 36.1106 213.187 36.2395 213.288 36.3684C213.606 36.7751 213.723 37.2141 213.755 37.6007C213.771 37.806 213.767 37.9953 213.755 38.1604C213.755 38.2047 213.747 38.245 213.743 38.2853C213.743 38.2933 213.751 38.2933 213.755 38.2933C213.755 38.2933 213.755 38.2933 213.759 38.2933C214.037 37.7497 214.17 36.9241 213.755 36.1227C213.642 35.9053 213.489 35.6918 213.288 35.4824C213.231 35.422 213.167 35.3616 213.103 35.3052C213.095 35.2972 213.103 35.2891 213.111 35.2891C213.171 35.3052 213.231 35.3213 213.288 35.3415C213.465 35.4019 213.618 35.4864 213.755 35.5871C214.065 35.8167 214.278 36.1348 214.403 36.465C214.508 36.7389 214.556 37.0208 214.556 37.2664C214.556 37.2745 214.572 37.2745 214.572 37.2664C214.766 36.5536 214.649 36.018 214.403 35.6274C214.23 35.3495 213.993 35.1401 213.755 34.9992C213.59 34.9025 213.429 34.834 213.288 34.7897C213.207 34.7656 213.131 34.7495 213.066 34.7414C213.058 34.7414 213.058 34.7253 213.066 34.7253C213.143 34.7173 213.215 34.7132 213.288 34.7132C213.461 34.7132 213.614 34.7253 213.755 34.7495C214.029 34.8018 214.242 34.8985 214.403 35.0072C214.665 35.1844 214.794 35.3898 214.842 35.4744C214.846 35.4824 214.858 35.4743 214.858 35.4703C214.822 35.0958 214.649 34.8018 214.407 34.5884C214.222 34.4273 213.993 34.3105 213.759 34.2461C213.606 34.2018 213.445 34.1816 213.292 34.1776C213.082 34.1776 212.881 34.2098 212.708 34.2823C212.7 34.2823 212.692 34.2783 212.7 34.2702C212.853 34.0528 213.066 33.9199 213.292 33.8474C213.449 33.7991 213.61 33.783 213.759 33.791C213.904 33.7991 214.037 33.8313 214.142 33.8796C214.15 33.8836 214.158 33.8716 214.15 33.8675C214.033 33.7346 213.9 33.6299 213.759 33.5494C213.61 33.4688 213.453 33.4165 213.292 33.3964C212.877 33.348 212.45 33.5252 212.168 33.9561C212.168 33.9602 212.156 33.9602 212.152 33.9561C212.1 33.8595 212.047 33.7507 211.999 33.638C211.886 33.3762 211.794 33.0822 211.745 32.7883C211.745 32.7802 211.733 32.7802 211.733 32.7883C211.685 33.0822 211.588 33.3803 211.476 33.642C211.427 33.7548 211.375 33.8595 211.323 33.9561C211.323 33.9602 211.311 33.9602 211.311 33.9561C210.815 33.2071 209.893 33.2232 209.329 33.8675C209.325 33.8756 209.329 33.8836 209.337 33.8796C209.712 33.7024 210.425 33.7548 210.779 34.2662C210.783 34.2743 210.779 34.2823 210.771 34.2783C210.223 34.0488 209.373 34.1978 208.922 34.7374C208.761 34.9307 208.649 35.1723 208.62 35.4663C208.62 35.4744 208.632 35.4784 208.637 35.4703C208.673 35.4059 208.761 35.2609 208.922 35.12C209.184 34.8864 209.651 34.6488 210.408 34.7213C210.416 34.7213 210.421 34.7374 210.408 34.7374C210.018 34.7857 209.212 35.1361 208.918 35.9334C208.786 36.2838 208.753 36.7268 208.902 37.2664C208.902 37.2745 208.918 37.2745 208.918 37.2664C208.918 37.2543 208.918 37.2423 208.918 37.2302C208.926 36.5053 209.341 35.5348 210.364 35.2891C210.372 35.2891 210.38 35.2972 210.372 35.3052C209.228 36.312 209.341 37.5564 209.716 38.2933C209.716 38.3014 209.732 38.2974 209.732 38.2933C209.684 37.7376 209.643 36.7469 210.561 35.9979C210.57 35.9938 210.578 35.9979 210.574 36.0059C210.364 36.3482 209.861 37.6893 210.888 38.9055C210.892 38.9135 210.904 38.9055 210.904 38.8974C210.731 38.4826 210.501 37.0328 211.327 36.5093C211.331 36.5093 211.339 36.5093 211.339 36.5133C211.427 37.5765 211.617 39.7391 211.23 42.0748C210.565 41.5674 209.869 41.1204 209.176 40.8586C209.092 40.8264 209.007 40.7982 208.922 40.77C208.21 40.5364 207.553 40.468 206.981 40.4921C206.063 40.5324 205.362 40.8062 204.98 40.9995C204.903 41.0398 204.835 41.0761 204.787 41.1043C204.766 41.1163 204.783 41.1486 204.803 41.1405C204.863 41.1204 204.919 41.1043 204.98 41.0881C205.685 40.8908 206.353 40.8344 206.981 40.8908C207.67 40.9512 208.314 41.1405 208.922 41.4143C209.772 41.7969 210.541 42.3406 211.234 42.9205C210.255 43.7742 209.426 44.6078 208.922 44.8978C208.898 44.9139 208.874 44.926 208.85 44.9381C208.729 44.773 208.52 44.6763 208.29 44.7287C208.093 44.773 207.932 44.934 207.883 45.1314C207.843 45.3086 207.891 45.4978 207.988 45.5985C208.254 45.8683 208.564 45.8844 208.918 45.7354C209.595 45.4495 210.441 44.5515 211.476 43.6011C211.56 43.5205 211.649 43.444 211.737 43.3635C211.826 43.444 211.915 43.5205 211.999 43.6011C212.466 44.032 212.897 44.4508 213.292 44.8092C213.453 44.9542 213.61 45.0911 213.759 45.2159C213.989 45.4052 214.206 45.5582 214.407 45.667C214.806 45.8764 215.148 45.9005 215.442 45.6468C215.458 45.6307 215.475 45.6186 215.491 45.6025C215.559 45.5341 215.636 45.3126 215.595 45.1354C215.571 45.0347 215.515 44.9421 215.442 44.8696C215.374 44.8052 215.285 44.7528 215.189 44.7327C214.959 44.6803 214.75 44.777 214.629 44.9421C214.56 44.9099 214.488 44.8615 214.403 44.8052C214.218 44.6763 214.001 44.4951 213.755 44.2776C213.61 44.1488 213.453 44.0078 213.288 43.8588C212.97 43.5688 212.619 43.2467 212.245 42.9205C212.575 42.6426 212.921 42.3768 213.288 42.1312C213.441 42.0265 213.598 41.9298 213.755 41.8332C213.964 41.7083 214.182 41.5915 214.403 41.4828C214.738 41.3217 215.08 41.1888 215.438 41.0841C216.175 40.8747 216.973 40.7982 217.822 40.9351C218.1 40.9794 218.382 41.0438 218.672 41.1365C218.696 41.1445 218.708 41.1123 218.688 41.1002" fill="white"/>
<path d="M211.739 53.7049L210.172 55.2705L211.738 56.8372L213.304 55.2716L211.739 53.7049Z" fill="white"/>
<path d="M199.13 44.7124L198.562 46.459L200.309 47.0261L200.876 45.2796L199.13 44.7124Z" fill="white"/>
<path d="M205.472 48.3579L203.973 48.5957L204.211 50.0992L205.711 49.8614L205.472 48.3579Z" fill="white"/>
<path d="M208.442 49.8704L207.086 50.5615L207.775 51.9143L209.132 51.2232L208.442 49.8704Z" fill="white"/>
<path d="M213.182 48.9332L212.441 49.9531L213.461 50.6938L214.202 49.674L213.182 48.9332Z" fill="white"/>
<path d="M203.054 34.3231L201.859 34.7109L202.248 35.9099L203.444 35.522L203.054 34.3231Z" fill="white"/>
<path d="M201.518 40.4596L200.777 41.4795L201.797 42.2202L202.538 41.2003L201.518 40.4596Z" fill="white"/>
<path d="M203.539 51.0295L201.352 51.376L201.698 53.5636L203.886 53.2171L203.539 51.0295Z" fill="white"/>
<path d="M198.204 40.57L197.125 42.0557L198.611 43.1351L199.69 41.6494L198.204 40.57Z" fill="white"/>
<path d="M200.911 35.0991L199.559 35.7891L200.249 37.1414L201.601 36.4515L200.911 35.0991Z" fill="white"/>
<path d="M211.726 50.403L210.652 51.4766L211.726 52.5501L212.799 51.4766L211.726 50.403Z" fill="white"/>
<path d="M205.155 46.3311H203.895V47.5915H205.155V46.3311Z" fill="white"/>
<path d="M197.474 33.4905L195.5 34.4961L196.506 36.4696L198.479 35.464L197.474 33.4905Z" fill="white"/>
<path d="M196.49 43.0433L195.484 45.0166L197.458 46.0225L198.464 44.0492L196.49 43.0433Z" fill="white"/>
<path d="M217.267 50.6139L216.699 52.3604L218.446 52.9278L219.013 51.1813L217.267 50.6139Z" fill="white"/>
<path d="M206.2 50.6005L204.453 51.168L205.021 52.9145L206.767 52.347L206.2 50.6005Z" fill="white"/>
<path d="M213.63 51.7751L212.551 53.2607L214.036 54.3401L215.116 52.8545L213.63 51.7751Z" fill="white"/>
<path d="M200.252 42.3601L199.562 43.7129L200.915 44.4021L201.605 43.0494L200.252 42.3601Z" fill="white"/>
<path d="M205.155 31.915H203.895V33.1755H205.155V31.915Z" fill="white"/>
<path d="M201.802 37.29L200.785 38.0283L201.524 39.0449L202.54 38.3066L201.802 37.29Z" fill="white"/>
<path d="M219.335 44.3763L218.305 44.54L218.468 45.5701L219.498 45.4064L219.335 44.3763Z" fill="white"/>
<path d="M200.305 32.4758L198.559 33.043L199.126 34.7896L200.872 34.2224L200.305 32.4758Z" fill="white"/>
<path d="M200.007 38.6774L198.934 39.751L200.007 40.8245L201.081 39.751L200.007 38.6774Z" fill="white"/>
<path d="M207.511 48.0269L206.312 48.416L206.7 49.6111L207.899 49.222L207.511 48.0269Z" fill="white"/>
<path d="M211.734 47.8806L210.996 48.6182L211.734 49.3557L212.471 48.6182L211.734 47.8806Z" fill="white"/>
<path d="M206.082 31.9826L205.918 33.0127L206.948 33.1764L207.112 32.1463L206.082 31.9826Z" fill="white"/>
<path d="M203.079 41.798L202.605 42.7275L203.535 43.2007L204.008 42.2712L203.079 41.798Z" fill="white"/>
<path d="M215.03 49.8918L214.34 51.2441L215.692 51.9341L216.382 50.5817L215.03 49.8918Z" fill="white"/>
<path d="M201.624 45.7827L201.387 47.2822L202.886 47.52L203.124 46.0205L201.624 45.7827Z" fill="white"/>
<path d="M219.573 46.3311H218.312V47.5915H219.573V46.3311Z" fill="white"/>
<path d="M210.278 48.9448L209.258 49.6855L209.999 50.7054L211.018 49.9647L210.278 48.9448Z" fill="white"/>
<path d="M214.254 47.4924L213.781 48.4219L214.711 48.8951L215.184 47.9656L214.254 47.4924Z" fill="white"/>
<path d="M216.503 46.3203L216.34 47.3506L217.37 47.5134L217.533 46.4831L216.503 46.3203Z" fill="white"/>
<path d="M203.531 36.3266L202.602 36.8008L203.076 37.7298L204.005 37.2556L203.531 36.3266Z" fill="white"/>
<path d="M220.386 41.7947L219.457 42.2686L219.931 43.1977L220.86 42.7239L220.386 41.7947Z" fill="white"/>
<path d="M204.121 44.3644L203.957 45.3945L204.987 45.5582L205.151 44.5281L204.121 44.3644Z" fill="white"/>
<path d="M217.378 31.9867L216.348 32.1504L216.511 33.1805L217.541 33.0168L217.378 31.9867Z" fill="white"/>
<path d="M209.219 47.4653L208.289 47.9385L208.762 48.868L209.692 48.3948L209.219 47.4653Z" fill="white"/>
<path d="M219.921 51.0301L219.574 53.2178L221.762 53.5643L222.108 51.3766L219.921 51.0301Z" fill="white"/>
<path d="M198.626 36.3728L197.141 37.4521L198.22 38.9378L199.706 37.8584L198.626 36.3728Z" fill="white"/>
<path d="M203.118 48.3691H201.281V50.2055H203.118V48.3691Z" fill="white"/>
<path d="M209.829 51.7907L208.344 52.8701L209.423 54.3558L210.909 53.2764L209.829 51.7907Z" fill="white"/>
<path d="M217.993 48.3687L217.754 49.8721L219.253 50.1106L219.492 48.6073L217.993 48.3687Z" fill="white"/>
<path d="M202.874 31.9878L201.375 32.2256L201.613 33.7251L203.112 33.4873L202.874 31.9878Z" fill="white"/>
<path d="M215.97 48.0569L215.582 49.252L216.781 49.641L217.169 48.4459L215.97 48.0569Z" fill="white"/>
<path d="M202.256 43.5921L201.867 44.791L203.062 45.1789L203.451 43.9799L202.256 43.5921Z" fill="white"/>
<path d="M219.573 31.915H218.312V33.1755H219.573V31.915Z" fill="white"/>
<path d="M204.991 33.9545L203.961 34.1182L204.125 35.1483L205.155 34.9846L204.991 33.9545Z" fill="white"/>
<path d="M202.866 39.0134L202.129 39.751L202.866 40.4885L203.604 39.751L202.866 39.0134Z" fill="white"/>
<path d="M219.942 36.3195L219.469 37.249L220.398 37.7222L220.871 36.7927L219.942 36.3195Z" fill="white"/>
<path d="M218.461 33.9465L218.297 34.9766L219.327 35.1403L219.491 34.1102L218.461 33.9465Z" fill="white"/>
<path d="M206.956 46.3314L205.926 46.4951L206.089 47.5252L207.12 47.3615L206.956 46.3314Z" fill="white"/>
</g>
<defs>
<clipPath id="clip0_15800_4511">
<rect width="142.266" height="39.9677" fill="white" transform="translate(2.03125 20.46)"/>
</clipPath>
<clipPath id="clip1_15800_4511">
<rect width="98.0161" height="65.6613" fill="white" transform="translate(175.703 7.6123)"/>
</clipPath>
</defs>
</svg>
