<svg width="245" height="65" viewBox="0 0 245 65" fill="none" xmlns="http://www.w3.org/2000/svg">
<path d="M7.60201 27.33C7.43534 27.2285 7.26142 27.1851 7.07301 27.1851C6.87735 27.1851 6.68894 27.2358 6.52227 27.33C6.34835 27.4315 6.21066 27.5619 6.1092 27.7286C6.00775 27.8952 5.95703 28.0764 5.95703 28.2721C5.95703 28.4605 6.00775 28.6344 6.1092 28.7938C6.21066 28.9532 6.34835 29.0837 6.52227 29.1851C6.69619 29.2866 6.87735 29.3301 7.07301 29.3301C7.26142 29.3301 7.43534 29.2793 7.59477 29.1851C7.7542 29.0837 7.88464 28.9532 7.9861 28.7938C8.08755 28.6271 8.13103 28.4605 8.13103 28.2793C8.13103 28.0837 8.0803 27.9025 7.9861 27.7358C7.89189 27.5691 7.76144 27.4387 7.59477 27.3372" fill="white"/>
<path d="M4.97985 27.33C4.81318 27.2285 4.63925 27.1851 4.4436 27.1851C4.24794 27.1851 4.07402 27.2358 3.90735 27.33C3.74068 27.4315 3.61023 27.5619 3.51602 27.7286C3.42182 27.8952 3.37109 28.0764 3.37109 28.2721C3.37109 28.4605 3.42182 28.6344 3.51602 28.7938C3.61023 28.9532 3.74792 29.0837 3.90735 29.1851C4.07402 29.2866 4.24794 29.3301 4.4436 29.3301C4.63925 29.3301 4.81318 29.2793 4.97261 29.1851C5.13204 29.0837 5.26247 28.9532 5.35668 28.7938C5.45089 28.6344 5.50161 28.4605 5.50161 28.2721C5.50161 28.0764 5.45813 27.8952 5.36392 27.7286C5.26972 27.5619 5.13928 27.4315 4.97985 27.33Z" fill="white"/>
<path d="M3.03893 26.0763C3.76359 26.4314 4.64044 26.6053 5.67671 26.6053C6.71298 26.6053 7.58982 26.4314 8.31449 26.0763C9.03915 25.7212 9.58989 25.2067 9.95947 24.5255C10.3291 23.8443 10.5175 23.0182 10.5175 22.0472V18.9384C10.5175 18.3876 10.6479 17.9818 10.9088 17.7282C11.1697 17.4745 11.59 17.3513 12.1697 17.3513H13.1625V22.953H43.5042V20.5616C43.5042 19.0181 43.1491 17.7499 42.4462 16.7644C41.736 15.7788 40.5331 15.2788 38.8156 15.2788C38.2432 15.2788 37.6417 15.344 37.0112 15.4817L37.3446 17.2789C37.7576 17.2136 38.1562 17.1774 38.562 17.1774C39.3302 17.1774 39.9244 17.3224 40.3374 17.6122C40.7577 17.9021 41.0404 18.2789 41.1926 18.75C41.3447 19.221 41.4172 19.779 41.4172 20.4239V21.0037H34.743V15.402H32.656V21.0037H30.7429V15.9455H28.6558V21.0037H26.7355V15.9455H24.6484V21.0037H21.0976V15.402H19.025V21.0037H15.2495V15.402H11.6624C9.51018 15.402 8.43768 16.5107 8.43768 18.721V21.2935C8.43768 22.3515 8.23477 23.1777 7.82171 23.7719C7.40865 24.3661 6.69849 24.6632 5.67671 24.6632C4.65493 24.6632 3.952 24.3661 3.53894 23.7719C3.12588 23.1777 2.91573 22.3515 2.91573 21.2935V17.6992H0.835938V22.0327C0.835938 23.0037 1.02435 23.8299 1.39393 24.511C1.76351 25.1922 2.31426 25.7067 3.03893 26.0618" fill="white"/>
<path d="M20.9826 13.7409C21.1566 13.8423 21.3377 13.8858 21.5334 13.8858C21.7218 13.8858 21.8957 13.8351 22.0552 13.7409C22.2146 13.6394 22.345 13.509 22.4465 13.3496C22.5479 13.1829 22.5914 13.0162 22.5914 12.835C22.5914 12.6394 22.5407 12.4582 22.4465 12.2915C22.3523 12.1249 22.2218 11.9944 22.0552 11.893C21.8885 11.7915 21.7146 11.748 21.5261 11.748C21.3305 11.748 21.1421 11.7988 20.9754 11.893C20.8015 11.9944 20.6638 12.1249 20.5624 12.2915C20.4609 12.4582 20.4102 12.6394 20.4102 12.835C20.4102 13.0235 20.4609 13.1974 20.5624 13.3568C20.6638 13.5162 20.8015 13.6467 20.9754 13.7481" fill="white"/>
<path d="M18.3722 13.7423C18.5389 13.8437 18.7128 13.8872 18.9085 13.8872C19.1041 13.8872 19.278 13.8365 19.4374 13.7423C19.5969 13.6408 19.7273 13.5176 19.8215 13.3509C19.9157 13.1915 19.9665 13.0176 19.9665 12.8292C19.9665 12.6335 19.923 12.4524 19.8288 12.2857C19.7346 12.119 19.6041 11.9886 19.4447 11.8871C19.278 11.7857 19.1041 11.7422 18.9085 11.7422C18.7128 11.7422 18.5389 11.7929 18.3722 11.8871C18.2055 11.9886 18.0751 12.119 17.9809 12.2857C17.8867 12.4524 17.8359 12.6335 17.8359 12.8292C17.8359 13.0176 17.8867 13.1915 17.9809 13.3509C18.0823 13.5104 18.2128 13.6408 18.3722 13.7423Z" fill="white"/>
<path d="M40.4174 24.0829C40.2507 23.9815 40.0695 23.938 39.8739 23.938C39.6854 23.938 39.5115 23.9887 39.3448 24.0829C39.1782 24.1844 39.0477 24.3148 38.9535 24.4815C38.8593 24.6482 38.8086 24.8221 38.8086 25.0105C38.8086 25.1989 38.8593 25.3801 38.9535 25.554C39.0477 25.7207 39.1782 25.8584 39.3448 25.9526C39.5115 26.054 39.6854 26.0975 39.8739 26.0975C40.0695 26.0975 40.2507 26.0468 40.4174 25.9526C40.584 25.8511 40.7144 25.7207 40.8087 25.554C40.9029 25.3873 40.9536 25.2062 40.9536 25.0105C40.9536 24.8148 40.9029 24.6409 40.8087 24.4743C40.7144 24.3076 40.584 24.1771 40.4174 24.0829Z" fill="white"/>
<path d="M50.2368 23.9812C50.1571 24.2204 50.0122 24.3943 49.802 24.4957C49.5919 24.6044 49.2875 24.6552 48.8744 24.6552H46.4831V26.6045H49.0701C49.918 26.6045 50.5847 26.4596 51.0702 26.1625C51.5557 25.8726 51.8963 25.4596 52.0992 24.9305C52.3021 24.4015 52.4108 23.7421 52.4326 22.9522H63.0996V11.7344H61.0126V21.0173H57.8023V11.7344H55.7153V21.0173H52.4471V15.4157H48.4831C46.3381 15.4157 45.2656 16.5244 45.2656 18.7346V22.9595H50.3528C50.3528 23.4015 50.3093 23.7421 50.2368 23.9812ZM47.3599 21.0246V18.9448C47.3599 18.3941 47.4903 17.9882 47.7512 17.7346C48.0121 17.481 48.4324 17.3578 49.0049 17.3578H50.3673V21.0173H47.3527L47.3599 21.0246Z" fill="white"/>
<path d="M67.38 11.7422H65.293V22.96H67.38V11.7422Z" fill="white"/>
<path d="M77.4397 13.7409C77.6136 13.8423 77.7948 13.8858 77.9904 13.8858C78.1788 13.8858 78.3528 13.8351 78.5122 13.7409C78.6716 13.6394 78.802 13.509 78.9035 13.3496C79.0049 13.1829 79.0484 13.0162 79.0484 12.835C79.0484 12.6394 78.9977 12.4582 78.9035 12.2915C78.8093 12.1249 78.6789 11.9944 78.5122 11.893C78.3455 11.7915 78.1716 11.748 77.9832 11.748C77.7875 11.748 77.5991 11.7988 77.4324 11.893C77.2585 11.9944 77.1208 12.1249 77.0194 12.2915C76.9179 12.4582 76.8672 12.6394 76.8672 12.835C76.8672 13.0235 76.9179 13.1974 77.0194 13.3568C77.1208 13.5162 77.2585 13.6467 77.4324 13.7481" fill="white"/>
<path d="M74.8292 13.7423C74.9959 13.8437 75.1698 13.8872 75.3655 13.8872C75.5611 13.8872 75.735 13.8365 75.8945 13.7423C76.0539 13.6408 76.1843 13.5176 76.2785 13.3509C76.3728 13.1915 76.4235 13.0176 76.4235 12.8292C76.4235 12.6335 76.38 12.4524 76.2858 12.2857C76.1916 12.119 76.0612 11.9886 75.9017 11.8871C75.7351 11.7857 75.5611 11.7422 75.3655 11.7422C75.1698 11.7422 74.9959 11.7929 74.8292 11.8871C74.6625 11.9886 74.5321 12.119 74.4379 12.2857C74.3437 12.4524 74.293 12.6335 74.293 12.8292C74.293 13.0176 74.3437 13.1915 74.4379 13.3509C74.5393 13.5104 74.6698 13.6408 74.8292 13.7423Z" fill="white"/>
<path d="M92.3739 22.9598V18.735C92.3739 17.648 92.113 16.8291 91.5912 16.2639C91.0695 15.6986 90.2579 15.416 89.1636 15.416H84.7577L89.497 12.2927V10.0317L83.9823 13.7348C83.4895 14.0609 83.1127 14.358 82.8518 14.6189C82.5909 14.8798 82.4097 15.1551 82.301 15.4378C82.1923 15.7204 82.1416 16.061 82.1416 16.4523V17.3509H88.6419C89.2143 17.3509 89.6347 17.4741 89.8955 17.7277C90.1564 17.9813 90.2869 18.3799 90.2869 18.9379V21.0177H79.8807V15.416H75.9095C74.8152 15.416 74.0036 15.6986 73.4819 16.2639C72.9601 16.8291 72.6992 17.6552 72.6992 18.735V22.9598H92.3594H92.3739ZM77.7864 21.0249H74.7718V18.9451C74.7718 18.3944 74.9022 17.9886 75.1631 17.7349C75.424 17.4813 75.8443 17.3581 76.424 17.3581H77.7864V21.0177V21.0249Z" fill="white"/>
<path d="M96.3175 11.7422H94.2305V22.96H96.3175V11.7422Z" fill="white"/>
<path d="M100.152 25.6485C100.71 25.0108 100.993 24.1122 100.993 22.96H119.66V11.7422H117.573V21.0251H114.326V15.4235H112.239V21.0251H110.326V15.967H108.239V21.0251H106.319V15.967H104.232V21.0251H100.985V15.4235H98.8984V22.9165C98.8984 23.4238 98.7752 23.8296 98.536 24.1557C98.2969 24.4746 97.9128 24.634 97.3911 24.634H96.7461V26.6123H97.6012C98.7389 26.6123 99.5868 26.2935 100.145 25.6558" fill="white"/>
<path d="M108.766 11.4948C108.933 11.5962 109.121 11.6397 109.317 11.6397C109.505 11.6397 109.679 11.589 109.846 11.4948C110.013 11.3933 110.143 11.2629 110.237 11.1035C110.331 10.9368 110.382 10.7701 110.382 10.589C110.382 10.3933 110.331 10.2121 110.237 10.0455C110.143 9.87878 110.013 9.74833 109.853 9.64687C109.694 9.54542 109.513 9.50195 109.324 9.50195C109.136 9.50195 108.94 9.55267 108.773 9.64687C108.599 9.74833 108.462 9.87878 108.368 10.0455C108.266 10.2121 108.223 10.3933 108.223 10.589C108.223 10.7701 108.273 10.944 108.375 11.1035C108.476 11.2701 108.614 11.4006 108.781 11.4948" fill="white"/>
<path d="M107.442 13.7423C107.609 13.8437 107.783 13.8872 107.979 13.8872C108.174 13.8872 108.348 13.8365 108.508 13.7423C108.667 13.6408 108.798 13.5176 108.892 13.3509C108.986 13.1915 109.037 13.0176 109.037 12.8292C109.037 12.6335 108.993 12.4524 108.899 12.2857C108.805 12.119 108.674 11.9886 108.515 11.8871C108.348 11.7857 108.174 11.7422 107.979 11.7422C107.783 11.7422 107.609 11.7929 107.442 11.8871C107.276 11.9886 107.145 12.119 107.051 12.2857C106.957 12.4524 106.906 12.6335 106.906 12.8292C106.906 13.0176 106.957 13.1915 107.051 13.3509C107.153 13.5104 107.283 13.6408 107.442 13.7423Z" fill="white"/>
<path d="M109.681 12.2784C109.586 12.4451 109.543 12.6263 109.543 12.8147C109.543 13.0031 109.594 13.1843 109.688 13.3509C109.782 13.5176 109.913 13.6481 110.072 13.7423C110.231 13.8437 110.413 13.8872 110.601 13.8872C110.789 13.8872 110.971 13.8365 111.137 13.7423C111.304 13.6408 111.434 13.5104 111.529 13.3437C111.63 13.177 111.673 13.0031 111.673 12.8147C111.673 12.6263 111.623 12.4451 111.529 12.2784C111.427 12.1118 111.297 11.9813 111.137 11.8871C110.971 11.7929 110.797 11.7422 110.601 11.7422C110.405 11.7422 110.231 11.7929 110.065 11.8871C109.898 11.9813 109.775 12.1118 109.681 12.2784Z" fill="white"/>
<path d="M123.935 11.7422H121.848V22.96H123.935V11.7422Z" fill="white"/>
<path d="M157.079 25.9584C157.246 26.0599 157.42 26.1034 157.601 26.1034C157.797 26.1034 157.978 26.0526 158.144 25.9584C158.311 25.857 158.442 25.7265 158.536 25.5599C158.63 25.3932 158.681 25.212 158.681 25.0164C158.681 24.8207 158.63 24.6468 158.536 24.4801C158.442 24.3134 158.311 24.183 158.144 24.0888C157.978 23.9873 157.797 23.9438 157.601 23.9438C157.413 23.9438 157.239 23.9946 157.079 24.0888C156.913 24.1902 156.782 24.3207 156.688 24.4873C156.594 24.654 156.543 24.8279 156.543 25.0164C156.543 25.2048 156.594 25.3859 156.688 25.5599C156.782 25.7265 156.913 25.8642 157.079 25.9584Z" fill="white"/>
<path d="M168.169 15.4221H164.205V21.0238H161.277V20.5745C161.277 19.0309 160.922 17.7628 160.219 16.7772C159.516 15.7917 158.306 15.2989 156.589 15.2989C156.016 15.2989 155.415 15.3641 154.784 15.5018L155.118 17.299C155.531 17.2338 155.937 17.1975 156.335 17.1975C157.103 17.1975 157.69 17.3425 158.111 17.6323C158.524 17.9222 158.806 18.299 158.958 18.7701C159.103 19.2338 159.183 19.7991 159.183 20.4513V21.031H152.552V11.748H150.465V21.031H147.197V15.4293H145.11V21.031H143.19V15.9728H141.103V21.031H138.95V15.4293H136.863V21.3209C136.863 22.3789 136.661 23.205 136.247 23.7992C135.834 24.3934 135.124 24.6906 134.102 24.6906C133.081 24.6906 132.378 24.3934 131.965 23.7992C131.552 23.205 131.342 22.3789 131.342 21.3209V17.7265H129.262V22.0673C129.262 23.0383 129.45 23.8645 129.82 24.5456C130.189 25.2268 130.74 25.7413 131.465 26.0964C132.189 26.4515 133.066 26.6254 134.102 26.6254C135.001 26.6254 135.784 26.4805 136.45 26.1834C137.117 25.8863 137.646 25.466 138.045 24.9225C138.443 24.379 138.704 23.734 138.835 22.9804H171.394V18.7555C171.394 16.5453 170.321 15.4366 168.176 15.4366M169.299 21.0238H166.285V17.3642H167.647C168.22 17.3642 168.64 17.4874 168.901 17.741C169.162 17.9947 169.292 18.3932 169.292 18.9512V21.031L169.299 21.0238Z" fill="white"/>
<path d="M16.8576 33.207H8.30656V39.0986C8.30656 40.1566 8.10365 40.9827 7.69784 41.5769C7.29203 42.1712 6.58186 42.4683 5.56008 42.4683C4.5383 42.4683 3.83538 42.1712 3.42232 41.5769C3.00926 40.9827 2.80635 40.1566 2.80635 39.0986V35.5042H0.726562V39.845C0.726562 40.816 0.914979 41.6421 1.28456 42.3233C1.65414 43.0045 2.20487 43.519 2.92954 43.8741C3.65421 44.2292 4.53105 44.4031 5.56732 44.4031C6.46591 44.4031 7.24855 44.2582 7.91524 43.9611C8.58193 43.6639 9.11094 43.2436 9.5095 42.7002C9.90807 42.1567 10.1689 41.5117 10.2994 40.7581H20.0751V36.5332C20.0751 34.323 19.0026 33.2143 16.8649 33.2143M17.9881 38.8087H10.4008V35.1491H16.3358C16.9083 35.1491 17.3286 35.2723 17.5895 35.526C17.8504 35.7796 17.9808 36.1782 17.9808 36.7361V38.8159L17.9881 38.8087Z" fill="white"/>
<path d="M48.054 29.6767C47.8874 29.5752 47.7135 29.5317 47.5178 29.5317C47.3221 29.5317 47.1482 29.5825 46.9816 29.6767C46.8149 29.7781 46.6844 29.9086 46.5902 30.0752C46.496 30.2419 46.4453 30.4231 46.4453 30.6187C46.4453 30.8071 46.496 30.9811 46.5902 31.1405C46.6917 31.2999 46.8221 31.4304 46.9816 31.5318C47.1482 31.6333 47.3221 31.6768 47.5178 31.6768C47.7135 31.6768 47.8874 31.626 48.0468 31.5318C48.2062 31.4304 48.3367 31.2999 48.4309 31.1405C48.5251 30.9811 48.5758 30.8071 48.5758 30.6187C48.5758 30.4231 48.5323 30.2419 48.4381 30.0752C48.3439 29.9086 48.2135 29.7781 48.054 29.6767Z" fill="white"/>
<path d="M58.5621 38.8073H51.5618V38.358C51.5618 36.8145 51.2067 35.5463 50.5038 34.5608C49.7936 33.5752 48.5907 33.0752 46.8732 33.0752C46.3007 33.0752 45.6993 33.1404 45.0688 33.2781L45.4022 35.0753C45.8152 35.0101 46.221 34.9738 46.6196 34.9738C47.3877 34.9738 47.9747 35.1188 48.395 35.4086C48.8081 35.6985 49.0907 36.0753 49.2429 36.5391C49.3951 37.0029 49.4675 37.5681 49.4675 38.2203V38.8001H25.1985C24.7782 38.8001 24.4738 38.7131 24.2927 38.5319C24.1115 38.3508 24.0245 38.0536 24.0245 37.6261V29.5171H21.9375V37.5246C21.9375 38.3073 22.0462 38.9305 22.2708 39.3943C22.4955 39.8581 22.8433 40.1987 23.3288 40.4161C23.8144 40.6335 24.4666 40.7349 25.2854 40.7349H60.6564V29.5171H58.5693V38.8001L58.5621 38.8073Z" fill="white"/>
<path d="M64.9191 29.5317H62.832V40.7496H64.9191V29.5317Z" fill="white"/>
<path d="M75.2574 36.7362C75.2574 36.1855 75.3878 35.7797 75.6487 35.526C75.9096 35.2724 76.3299 35.1492 76.9096 35.1492H78.8227V33.2144H76.3806C74.2429 33.2144 73.1703 34.3231 73.1703 36.5333V38.816H73.0544C72.6631 38.8305 72.25 38.9247 71.8152 39.0914C71.3877 39.2581 71.0108 39.5552 70.6847 39.9682C70.3586 40.3885 70.1992 40.9538 70.1992 41.664C70.1992 42.577 70.4673 43.2655 71.0036 43.7147C71.5398 44.1713 72.3587 44.3959 73.4674 44.3959H76.1922V42.4683H73.1921C72.9094 42.4683 72.6631 42.4104 72.4529 42.3017C72.2428 42.193 72.1341 41.9756 72.1341 41.664C72.1341 41.3668 72.2355 41.1422 72.4457 40.99C72.6558 40.8378 72.9167 40.7581 73.2283 40.7581H79.359V38.8233H75.2501V36.7435L75.2574 36.7362Z" fill="white"/>
<path d="M110.355 29.6767C110.189 29.5752 110.015 29.5317 109.826 29.5317C109.631 29.5317 109.442 29.5825 109.268 29.6767C109.094 29.7781 108.957 29.9086 108.855 30.0752C108.754 30.2419 108.703 30.4231 108.703 30.6187C108.703 30.8071 108.754 30.9811 108.855 31.1405C108.957 31.2999 109.094 31.4304 109.268 31.5318C109.442 31.6333 109.623 31.6768 109.826 31.6768C110.015 31.6768 110.189 31.626 110.348 31.5318C110.508 31.4304 110.638 31.2999 110.739 31.1405C110.841 30.9738 110.884 30.8072 110.884 30.626C110.884 30.4303 110.834 30.2492 110.739 30.0825C110.645 29.9158 110.515 29.7854 110.348 29.6839" fill="white"/>
<path d="M107.73 29.6767C107.563 29.5752 107.389 29.5317 107.194 29.5317C106.998 29.5317 106.824 29.5825 106.657 29.6767C106.491 29.7781 106.36 29.9086 106.266 30.0752C106.172 30.2419 106.121 30.4231 106.121 30.6187C106.121 30.8071 106.172 30.9811 106.266 31.1405C106.367 31.2999 106.498 31.4304 106.657 31.5318C106.824 31.6333 106.998 31.6768 107.194 31.6768C107.389 31.6768 107.563 31.626 107.723 31.5318C107.882 31.4304 108.012 31.2999 108.107 31.1405C108.201 30.9811 108.252 30.8071 108.252 30.6187C108.252 30.4231 108.208 30.2419 108.114 30.0752C108.02 29.9086 107.889 29.7781 107.73 29.6767Z" fill="white"/>
<path d="M115.289 38.8088H112.028V33.2072H108.05C105.912 33.2072 104.839 34.3159 104.839 36.5261V38.8088H101.883V36.5261C101.883 34.3159 100.81 33.2072 98.6725 33.2072H92.107V29.5259H90.02V38.8088H84.3821C83.9618 38.8088 83.6574 38.7219 83.4763 38.5407C83.2951 38.3596 83.2081 38.0624 83.2081 37.6349V29.5259H81.1211V37.5334C81.1211 38.3161 81.2298 38.9393 81.4545 39.4031C81.6791 39.8669 82.0269 40.2074 82.5125 40.4248C82.998 40.6422 83.6502 40.7437 84.469 40.7437H117.362V29.5259H115.275V38.8088H115.289ZM99.803 38.8088H92.1143V35.1493H98.1507C98.7305 35.1493 99.1508 35.2725 99.4117 35.5261C99.6725 35.7797 99.803 36.1783 99.803 36.7363V38.8161V38.8088ZM109.927 38.8088H106.912V36.7291C106.912 36.1783 107.042 35.7725 107.303 35.5189C107.564 35.2652 107.984 35.142 108.557 35.142H109.919V38.8016L109.927 38.8088Z" fill="white"/>
<path d="M121.653 29.5317H119.566V40.7496H121.653V29.5317Z" fill="white"/>
<path d="M168.168 33.207H164.204V38.8087H131.992V36.7289C131.992 36.1782 132.123 35.7723 132.384 35.5187C132.645 35.2651 133.065 35.1419 133.645 35.1419H135.558V33.207H133.116C130.978 33.207 129.905 34.3158 129.905 36.526V38.8087H129.789C129.26 38.8304 128.789 38.9464 128.362 39.1493C127.934 39.3522 127.594 39.6638 127.333 40.0841C127.072 40.5044 126.941 41.0334 126.941 41.6639C126.941 42.577 127.21 43.2654 127.746 43.7147C128.282 44.1712 129.101 44.3959 130.21 44.3959H132.934V42.4683H129.934C129.652 42.4683 129.405 42.4103 129.195 42.3016C128.985 42.1929 128.876 41.9755 128.876 41.6639C128.876 41.3668 128.978 41.1421 129.188 40.9899C129.398 40.8305 129.659 40.7581 129.971 40.7581H171.392V36.5332C171.392 34.323 170.32 33.2143 168.175 33.2143M169.298 38.8087H166.283V35.1491H167.646C168.218 35.1491 168.639 35.2723 168.9 35.526C169.16 35.7796 169.291 36.1782 169.291 36.7361V38.8159L169.298 38.8087Z" fill="white"/>
<path d="M2.17763 50.2432H1.30078V55.0042H4.27191V54.2868H2.17763V50.2432Z" fill="white"/>
<path d="M6.72586 50.1792C6.03742 50.1792 5.49392 50.3966 5.1026 50.8241C4.71128 51.2517 4.51562 51.8532 4.51562 52.6213C4.51562 53.3895 4.71128 53.9909 5.1026 54.4185C5.49392 54.846 6.03742 55.0634 6.72586 55.0634C7.41429 55.0634 7.95778 54.846 8.34186 54.4185C8.73318 53.9837 8.92159 53.3895 8.92159 52.6213C8.92159 51.8532 8.72593 51.2517 8.34186 50.8241C7.95778 50.3966 7.41429 50.1792 6.72586 50.1792ZM7.67517 53.8967C7.45052 54.2011 7.13167 54.3533 6.72586 54.3533C6.32004 54.3533 6.00844 54.2011 5.78379 53.8967C5.55914 53.5924 5.4432 53.1648 5.4432 52.6213C5.4432 52.0778 5.55914 51.6503 5.78379 51.3459C6.00844 51.0415 6.32729 50.8894 6.72586 50.8894C7.12442 50.8894 7.44327 51.0415 7.67517 51.3459C7.89981 51.6503 8.01576 52.0778 8.01576 52.6213C8.01576 53.1648 7.89981 53.5924 7.67517 53.8967Z" fill="white"/>
<path d="M11.6897 53.0831H12.9578C12.9361 53.4816 12.8202 53.7932 12.6028 54.0179C12.3854 54.2425 12.0955 54.3512 11.7332 54.3512C11.3418 54.3512 11.0302 54.1991 10.8056 53.8947C10.5809 53.5904 10.4722 53.1628 10.4722 52.6193C10.4722 52.0758 10.5882 51.6482 10.8128 51.3439C11.0375 51.0395 11.3563 50.8873 11.7621 50.8873C12.0665 50.8873 12.3201 50.9816 12.5303 51.1772C12.7404 51.3729 12.8709 51.6337 12.9289 51.9743H13.7767C13.7042 51.4091 13.4868 50.9671 13.139 50.6482C12.7839 50.3294 12.3274 50.1699 11.7621 50.1699C11.0737 50.1699 10.5302 50.3873 10.1461 50.8149C9.75482 51.2497 9.56641 51.8439 9.56641 52.612C9.56641 53.3802 9.72583 53.9817 10.0374 54.4092C10.349 54.8368 10.7838 55.0542 11.3418 55.0542C11.8491 55.0542 12.2549 54.902 12.5375 54.5904C12.8274 54.2788 12.9723 53.8512 12.9723 53.2932H12.9868V54.9962H13.8274V52.4816H11.7042V53.0831H11.6897Z" fill="white"/>
<path d="M15.6458 50.2432H14.7617V55.0042H15.6458V50.2432Z" fill="white"/>
<path d="M20.1763 52.817C20.1183 52.7373 20.0386 52.6575 19.9299 52.5923C19.8212 52.5199 19.727 52.4691 19.6473 52.4329C19.5675 52.3967 19.4516 52.3532 19.3067 52.3169C19.1617 52.2807 19.0458 52.259 18.9661 52.2445C18.8864 52.23 18.7704 52.2155 18.611 52.1865C18.4588 52.1648 18.3356 52.1503 18.2559 52.1358C18.1762 52.1213 18.0747 52.0995 17.966 52.0633C17.8501 52.0271 17.7704 51.9909 17.7124 51.9474C17.6544 51.9039 17.6037 51.8532 17.5602 51.7807C17.5167 51.7082 17.495 51.6358 17.495 51.5416C17.495 51.3387 17.5747 51.172 17.7269 51.0633C17.8863 50.9473 18.1037 50.8966 18.3791 50.8966C18.6545 50.8966 18.9008 50.9763 19.0748 51.143C19.2487 51.3097 19.3429 51.5416 19.3646 51.8387H20.2487C20.198 51.3169 20.0168 50.9038 19.698 50.614C19.3791 50.3241 18.9516 50.1792 18.4298 50.1792C17.8501 50.1792 17.4008 50.3024 17.0819 50.5488C16.7631 50.7951 16.5964 51.1502 16.5964 51.614C16.5964 51.759 16.6181 51.8894 16.6544 52.0126C16.6906 52.1285 16.7413 52.23 16.7921 52.3097C16.8428 52.3894 16.9225 52.4619 17.024 52.5271C17.1254 52.5923 17.2124 52.643 17.2921 52.6793C17.3718 52.7155 17.4805 52.7517 17.6182 52.788C17.7559 52.817 17.8646 52.8387 17.9515 52.8532C18.0385 52.8677 18.1472 52.8822 18.2994 52.9039C18.466 52.9329 18.5892 52.9474 18.6689 52.9619C18.7487 52.9764 18.8501 53.0054 18.9806 53.0416C19.1037 53.0778 19.198 53.1213 19.2632 53.1648C19.3212 53.2083 19.3791 53.2735 19.4226 53.3532C19.4733 53.433 19.4951 53.5271 19.4951 53.6358C19.4951 53.8605 19.4009 54.0417 19.2197 54.1649C19.0385 54.2881 18.7849 54.3533 18.4588 54.3533C18.1327 54.3533 17.8863 54.2663 17.6906 54.0851C17.495 53.904 17.3863 53.6576 17.3573 53.3387H16.4805C16.5239 53.8822 16.7196 54.3098 17.0602 54.6141C17.408 54.9185 17.8646 55.0707 18.4371 55.0707C19.053 55.0707 19.5313 54.9402 19.8719 54.6721C20.2197 54.404 20.3937 54.0344 20.3937 53.5561C20.3937 53.404 20.3719 53.2663 20.3357 53.1358C20.2922 53.0126 20.2487 52.9039 20.1908 52.8242" fill="white"/>
<path d="M20.6836 50.9325H22.0677V55.0051H22.9663V50.9325H24.3577V50.2368H20.6836V50.9325Z" fill="white"/>
<path d="M25.9505 50.2432H25.0664V55.0042H25.9505V50.2432Z" fill="white"/>
<path d="M29.0155 50.8873C29.3343 50.8873 29.5952 50.9888 29.8126 51.1917C30.0228 51.3946 30.1605 51.6772 30.2184 52.0395H31.0663C30.9866 51.4526 30.7692 50.996 30.4069 50.6627C30.0445 50.3366 29.5807 50.1699 29.0082 50.1699C28.3198 50.1699 27.7763 50.3873 27.3922 50.8149C27.0082 51.2497 26.8125 51.8439 26.8125 52.612C26.8125 53.3802 27.0082 53.9817 27.3922 54.4092C27.7763 54.844 28.3198 55.0542 29.0082 55.0542C29.5735 55.0542 30.0373 54.8875 30.3996 54.5541C30.7619 54.2208 30.9793 53.757 31.0591 53.17H30.2112C30.1532 53.5396 30.0155 53.8295 29.8054 54.0324C29.5952 54.2353 29.3271 54.344 29.0082 54.344C28.6097 54.344 28.2981 54.1918 28.0734 53.8875C27.8488 53.5831 27.7328 53.1555 27.7328 52.612C27.7328 52.0685 27.8488 51.641 28.0734 51.3366C28.2981 51.0323 28.6097 50.8801 29.0082 50.8801" fill="white"/>
<path d="M35.2856 52.817C35.2276 52.7373 35.1479 52.6575 35.0392 52.5923C34.9305 52.5199 34.8363 52.4691 34.7566 52.4329C34.6769 52.3967 34.561 52.3532 34.416 52.3169C34.2711 52.2807 34.1552 52.259 34.0754 52.2445C33.9957 52.23 33.8798 52.2155 33.7203 52.1865C33.5682 52.1648 33.445 52.1503 33.3653 52.1358C33.2855 52.1213 33.1841 52.0995 33.0754 52.0633C32.9595 52.0271 32.8797 51.9909 32.8218 51.9474C32.7638 51.9039 32.7131 51.8532 32.6696 51.7807C32.6261 51.7082 32.6044 51.6358 32.6044 51.5416C32.6044 51.3387 32.6841 51.172 32.8362 51.0633C32.9957 50.9473 33.2131 50.8966 33.4885 50.8966C33.7638 50.8966 34.0102 50.9763 34.1841 51.143C34.3581 51.3097 34.4523 51.5416 34.474 51.8387H35.3581C35.3074 51.3169 35.1262 50.9038 34.8073 50.614C34.4885 50.3241 34.0609 50.1792 33.5392 50.1792C32.9594 50.1792 32.5102 50.3024 32.1913 50.5488C31.8725 50.7951 31.7058 51.1502 31.7058 51.614C31.7058 51.759 31.7275 51.8894 31.7638 52.0126C31.8 52.1285 31.8507 52.23 31.9014 52.3097C31.9522 52.3894 32.0319 52.4619 32.1333 52.5271C32.2348 52.5923 32.3218 52.643 32.4015 52.6793C32.4812 52.7155 32.5899 52.7517 32.7276 52.788C32.8652 52.817 32.974 52.8387 33.0609 52.8532C33.1479 52.8677 33.2566 52.8822 33.4087 52.9039C33.5754 52.9329 33.6986 52.9474 33.7783 52.9619C33.858 52.9764 33.9595 53.0054 34.0899 53.0416C34.2131 53.0778 34.3073 53.1213 34.3726 53.1648C34.4305 53.2083 34.4885 53.2735 34.532 53.3532C34.5827 53.433 34.6044 53.5271 34.6044 53.6358C34.6044 53.8605 34.5102 54.0417 34.3291 54.1649C34.1479 54.2881 33.8943 54.3533 33.5682 54.3533C33.2421 54.3533 32.9957 54.2663 32.8 54.0851C32.6044 53.904 32.4957 53.6576 32.4667 53.3387H31.5898C31.6333 53.8822 31.829 54.3098 32.1696 54.6141C32.5174 54.9185 32.9739 55.0707 33.5464 55.0707C34.1624 55.0707 34.6407 54.9402 34.9813 54.6721C35.3291 54.404 35.503 54.0344 35.503 53.5561C35.503 53.404 35.4813 53.2663 35.445 53.1358C35.4016 53.0126 35.3581 52.9039 35.3001 52.8242" fill="white"/>
<path d="M40.7774 50.6354C40.4658 50.3745 40.0383 50.2368 39.4875 50.2368H37.7266V54.9979H38.6107V53.2224H39.4875C40.0383 53.2224 40.473 53.092 40.7847 52.8239C41.0963 52.563 41.2484 52.1934 41.2484 51.7224C41.2484 51.2514 41.0963 50.889 40.7847 50.6281M40.118 52.3239C39.973 52.4688 39.7774 52.5412 39.531 52.5412H38.6107V50.9325H39.531C39.7774 50.9325 39.973 51.005 40.118 51.1426C40.2557 51.2876 40.3281 51.4832 40.3281 51.7369C40.3281 51.9905 40.2557 52.1789 40.118 52.3239Z" fill="white"/>
<path d="M44.5993 53.2442C44.3819 53.1282 44.1428 53.0703 43.8819 53.0703V53.0558C44.4399 53.0558 44.8747 52.9253 45.1791 52.6717C45.4907 52.4181 45.6429 52.0557 45.6429 51.5992C45.6429 51.1716 45.4834 50.8455 45.1718 50.5991C44.8602 50.36 44.4182 50.2368 43.8602 50.2368H42.0195V54.9979H42.9036V53.0703H43.795L44.8312 54.9979H45.824L45.1066 53.737C44.9907 53.5196 44.824 53.3601 44.6138 53.2442M42.9036 52.4253V50.9325H43.9109C44.1718 50.9325 44.3747 50.9977 44.5196 51.1282C44.6646 51.2586 44.737 51.4398 44.737 51.6644C44.737 51.9035 44.6646 52.092 44.5196 52.2224C44.3747 52.3528 44.1718 52.4181 43.9109 52.4181H42.9036V52.4253Z" fill="white"/>
<path d="M47.4388 50.2432H46.5547V55.0042H47.4388V50.2432Z" fill="white"/>
<path d="M51.4947 50.2432L50.2845 54.9317H50.27L49.0671 50.2432H48.125L49.4584 55.0042H51.0454L52.3933 50.2432H51.4947Z" fill="white"/>
<path d="M53.8455 50.2432L52.3672 55.0042H53.2585L53.5846 53.852H55.6209L55.947 55.0042H56.8963L55.4253 50.2432H53.8527H53.8455ZM53.7803 53.1636L54.5992 50.3156H54.6137L55.4253 53.1636H53.7875H53.7803Z" fill="white"/>
<path d="M56.7227 50.9325H58.1068V55.0051H59.0053V50.9325H60.3967V50.2368H56.7227V50.9325Z" fill="white"/>
<path d="M61.9817 52.9027H64.1992V52.207H61.9817V50.9316H64.4239V50.2432H61.0977V55.0042H64.4891V54.3158H61.9817V52.9027Z" fill="white"/>
<path d="M70.1411 52.817C70.0831 52.7373 70.0034 52.6575 69.8947 52.5923C69.786 52.5199 69.6918 52.4691 69.6121 52.4329C69.5324 52.3967 69.4165 52.3532 69.2715 52.3169C69.1266 52.2807 69.0106 52.259 68.9309 52.2445C68.8512 52.23 68.7353 52.2155 68.5758 52.1865C68.4237 52.1648 68.3005 52.1503 68.2208 52.1358C68.141 52.1213 68.0396 52.0995 67.9309 52.0633C67.8149 52.0271 67.7352 51.9909 67.6773 51.9474C67.6193 51.9039 67.5686 51.8532 67.5251 51.7807C67.4816 51.7082 67.4599 51.6358 67.4599 51.5416C67.4599 51.3387 67.5396 51.172 67.6917 51.0633C67.8512 50.9473 68.0686 50.8966 68.3439 50.8966C68.6193 50.8966 68.8657 50.9763 69.0396 51.143C69.2135 51.3097 69.3077 51.5416 69.3295 51.8387H70.2136C70.1629 51.3169 69.9817 50.9038 69.6628 50.614C69.344 50.3241 68.9164 50.1792 68.3947 50.1792C67.8149 50.1792 67.3656 50.3024 67.0468 50.5488C66.7279 50.7951 66.5613 51.1502 66.5613 51.614C66.5613 51.759 66.583 51.8894 66.6192 52.0126C66.6555 52.1285 66.7062 52.23 66.7569 52.3097C66.8077 52.3894 66.8874 52.4619 66.9888 52.5271C67.0903 52.5923 67.1772 52.643 67.2569 52.6793C67.3366 52.7155 67.4454 52.7517 67.583 52.788C67.7207 52.817 67.8294 52.8387 67.9164 52.8532C68.0033 52.8677 68.112 52.8822 68.2642 52.9039C68.4309 52.9329 68.5541 52.9474 68.6338 52.9619C68.7135 52.9764 68.815 53.0054 68.9454 53.0416C69.0686 53.0778 69.1628 53.1213 69.228 53.1648C69.286 53.2083 69.344 53.2735 69.3875 53.3532C69.4382 53.433 69.4599 53.5271 69.4599 53.6358C69.4599 53.8605 69.3657 54.0417 69.1845 54.1649C69.0034 54.2881 68.7498 54.3533 68.4237 54.3533C68.0976 54.3533 67.8512 54.2663 67.6555 54.0851C67.4599 53.904 67.3512 53.6576 67.3222 53.3387H66.4453C66.4888 53.8822 66.6845 54.3098 67.0251 54.6141C67.3729 54.9185 67.8294 55.0707 68.4019 55.0707C69.0179 55.0707 69.4962 54.9402 69.8368 54.6721C70.1846 54.404 70.3585 54.0344 70.3585 53.5561C70.3585 53.404 70.3368 53.2663 70.3005 53.1358C70.2571 53.0126 70.2136 52.9039 70.1556 52.8242" fill="white"/>
<path d="M72.0755 52.9027H74.2857V52.207H72.0755V50.9316H74.5104V50.2432H71.1914V55.0042H74.5828V54.3158H72.0755V52.9027Z" fill="white"/>
<path d="M77.2889 50.8873C77.6078 50.8873 77.8686 50.9888 78.086 51.1917C78.2962 51.3946 78.4339 51.6772 78.4919 52.0395H79.3397C79.26 51.4526 79.0426 50.996 78.6803 50.6627C78.3179 50.3366 77.8542 50.1699 77.2817 50.1699C76.5932 50.1699 76.0497 50.3873 75.6657 50.8149C75.2816 51.2497 75.0859 51.8439 75.0859 52.612C75.0859 53.3802 75.2816 53.9817 75.6657 54.4092C76.0497 54.844 76.5932 55.0542 77.2817 55.0542C77.8469 55.0542 78.3107 54.8875 78.673 54.5541C79.0354 54.2208 79.2528 53.757 79.3325 53.17H78.4846C78.4266 53.5396 78.289 53.8295 78.0788 54.0324C77.8687 54.2353 77.6005 54.344 77.2817 54.344C76.8831 54.344 76.5715 54.1918 76.3468 53.8875C76.1222 53.5831 76.0063 53.1555 76.0063 52.612C76.0063 52.0685 76.1222 51.641 76.3468 51.3366C76.5715 51.0323 76.8831 50.8801 77.2817 50.8801" fill="white"/>
<path d="M79.6367 50.9325H81.0281V55.0051H81.9267V50.9325H83.3108V50.2368H79.6367V50.9325Z" fill="white"/>
<path d="M85.7883 50.1792C85.0999 50.1792 84.5564 50.3966 84.1651 50.8241C83.7738 51.2517 83.5781 51.8532 83.5781 52.6213C83.5781 53.3895 83.7738 53.9909 84.1651 54.4185C84.5564 54.846 85.0999 55.0634 85.7883 55.0634C86.4768 55.0634 87.0203 54.846 87.4044 54.4185C87.7957 53.9837 87.9841 53.3895 87.9841 52.6213C87.9841 51.8532 87.7884 51.2517 87.4044 50.8241C87.013 50.3893 86.4768 50.1792 85.7883 50.1792ZM86.7377 53.8967C86.513 54.2011 86.1942 54.3533 85.7883 54.3533C85.3825 54.3533 85.0709 54.2011 84.8463 53.8967C84.6216 53.5924 84.5057 53.1648 84.5057 52.6213C84.5057 52.0778 84.6216 51.6503 84.8463 51.3459C85.0709 51.0415 85.3898 50.8894 85.7883 50.8894C86.1869 50.8894 86.5058 51.0415 86.7377 51.3459C86.9623 51.6503 87.0782 52.0778 87.0782 52.6213C87.0782 53.1648 86.9623 53.5924 86.7377 53.8967Z" fill="white"/>
<path d="M91.4548 53.2442C91.2374 53.1282 90.9983 53.0703 90.7374 53.0703V53.0558C91.2954 53.0558 91.7302 52.9253 92.0345 52.6717C92.3461 52.4181 92.4983 52.0557 92.4983 51.5992C92.4983 51.1716 92.3389 50.8455 92.0273 50.5991C91.7157 50.36 91.2736 50.2368 90.7157 50.2368H88.875V54.9979H89.7591V53.0703H90.6504L91.6867 54.9979H92.6795L91.9621 53.737C91.8461 53.5196 91.6794 53.3601 91.4693 53.2442M89.7518 52.4253V50.9325H90.7591C91.02 50.9325 91.2229 50.9977 91.3679 51.1282C91.5128 51.2586 91.5852 51.4398 91.5852 51.6644C91.5852 51.9035 91.5128 52.092 91.3679 52.2224C91.2229 52.3528 91.02 52.4181 90.7591 52.4181H89.7518V52.4253Z" fill="white"/>
<path d="M95.6854 52.9027H97.9029V52.207H95.6854V50.9316H98.1276V50.2432H94.8086V55.0042H98.2V54.3158H95.6854V52.9027Z" fill="white"/>
<path d="M102.058 54.9327H102.044L100.522 50.2368H99.0508V55.0051H99.8914L99.8551 50.3093H99.8696L101.391 55.0051H102.863V50.2368H102.022L102.058 54.9327Z" fill="white"/>
<path d="M105.869 53.0831H107.138C107.116 53.4816 107 53.7932 106.782 54.0179C106.565 54.2425 106.275 54.3512 105.913 54.3512C105.522 54.3512 105.21 54.1991 104.985 53.8947C104.761 53.5904 104.652 53.1628 104.652 52.6193C104.652 52.0758 104.768 51.6482 104.993 51.3439C105.217 51.0395 105.536 50.8873 105.942 50.8873C106.246 50.8873 106.5 50.9816 106.71 51.1772C106.92 51.3729 107.051 51.6337 107.109 51.9743H107.956C107.884 51.4091 107.674 50.9671 107.319 50.6482C106.964 50.3294 106.507 50.1699 105.942 50.1699C105.253 50.1699 104.71 50.3873 104.326 50.8149C103.942 51.2424 103.746 51.8439 103.746 52.612C103.746 53.3802 103.906 53.9817 104.217 54.4092C104.529 54.8368 104.971 55.0542 105.522 55.0542C106.029 55.0542 106.435 54.902 106.717 54.5904C107.007 54.2788 107.152 53.8512 107.152 53.2932H107.167V54.9962H108.007V52.4816H105.884V53.0831H105.869Z" fill="white"/>
<path d="M109.939 50.2432L108.461 55.0042H109.352L109.678 53.852H111.715L112.041 55.0042H112.99L111.519 50.2432H109.946H109.939ZM109.874 53.1636L110.693 50.3156H110.707L111.519 53.1636H109.881H109.874Z" fill="white"/>
<path d="M115.447 53.0831H116.716C116.694 53.4816 116.578 53.7932 116.361 54.0179C116.143 54.2425 115.853 54.3512 115.491 54.3512C115.1 54.3512 114.788 54.1991 114.563 53.8947C114.339 53.5904 114.23 53.1628 114.23 52.6193C114.23 52.0758 114.346 51.6482 114.571 51.3439C114.795 51.0395 115.114 50.8873 115.52 50.8873C115.824 50.8873 116.078 50.9816 116.288 51.1772C116.498 51.3729 116.629 51.6337 116.687 51.9743H117.535C117.462 51.4091 117.245 50.9671 116.897 50.6482C116.542 50.3294 116.085 50.1699 115.52 50.1699C114.832 50.1699 114.288 50.3873 113.904 50.8149C113.52 51.2424 113.324 51.8439 113.324 52.612C113.324 53.3802 113.484 53.9817 113.795 54.4092C114.107 54.8368 114.549 55.0542 115.1 55.0542C115.607 55.0542 116.013 54.902 116.295 54.5904C116.585 54.2788 116.723 53.8512 116.723 53.2932H116.737V54.9962H117.578V52.4816H115.455V53.0831H115.447Z" fill="white"/>
<path d="M119.396 52.9027H121.614V52.207H119.396V50.9316H121.838V50.2432H118.52V55.0042H121.911V54.3158H119.396V52.9027Z" fill="white"/>
<path d="M126.382 50.2432L125.44 54.9317H125.426L124.556 50.2432H122.839L122.672 55.0042H123.52L123.665 50.3084H123.679L124.628 55.0042H126.179L127.216 50.3084H127.223L127.368 55.0042H128.252L128.085 50.2432H126.382Z" fill="white"/>
<path d="M130.189 52.9027H132.399V52.207H130.189V50.9316H132.624V50.2432H129.305V55.0042H132.696V54.3158H130.189V52.9027Z" fill="white"/>
<path d="M136.55 54.9327H136.536L135.021 50.2368H133.543V55.0051H134.391L134.355 50.3093H134.362L135.891 55.0051H137.355V50.2368H136.521L136.55 54.9327Z" fill="white"/>
<path d="M138.066 50.9325H139.458V55.0051H140.349V50.9325H141.74V50.2368H138.066V50.9325Z" fill="white"/>
<path d="M145.594 50.8873C145.912 50.8873 146.173 50.9888 146.391 51.1917C146.601 51.3946 146.739 51.6772 146.797 52.0395H147.644C147.565 51.4526 147.347 50.996 146.985 50.6627C146.623 50.3366 146.159 50.1699 145.586 50.1699C144.898 50.1699 144.354 50.3873 143.97 50.8149C143.586 51.2497 143.391 51.8439 143.391 52.612C143.391 53.3802 143.586 53.9817 143.97 54.4092C144.354 54.844 144.898 55.0542 145.586 55.0542C146.152 55.0542 146.615 54.8875 146.978 54.5541C147.34 54.2208 147.557 53.757 147.637 53.17H146.789C146.731 53.5396 146.594 53.8295 146.383 54.0324C146.173 54.2353 145.905 54.344 145.586 54.344C145.188 54.344 144.876 54.1918 144.652 53.8875C144.427 53.5831 144.311 53.1555 144.311 52.612C144.311 52.0685 144.42 51.641 144.652 51.3366C144.876 51.0323 145.188 50.8801 145.586 50.8801" fill="white"/>
<path d="M150.413 50.1792C149.725 50.1792 149.181 50.3966 148.79 50.8241C148.399 51.2517 148.203 51.8532 148.203 52.6213C148.203 53.3895 148.399 53.9909 148.79 54.4185C149.181 54.846 149.725 55.0634 150.413 55.0634C151.102 55.0634 151.645 54.846 152.029 54.4185C152.421 53.9837 152.609 53.3895 152.609 52.6213C152.609 51.8532 152.413 51.2517 152.029 50.8241C151.638 50.3893 151.102 50.1792 150.413 50.1792ZM151.355 53.8967C151.131 54.2011 150.812 54.3533 150.406 54.3533C150 54.3533 149.689 54.2011 149.457 53.8967C149.232 53.5924 149.116 53.1648 149.116 52.6213C149.116 52.0778 149.232 51.6503 149.457 51.3459C149.681 51.0415 150 50.8894 150.406 50.8894C150.812 50.8894 151.124 51.0415 151.355 51.3459C151.58 51.6503 151.696 52.0778 151.696 52.6213C151.696 53.1648 151.58 53.5924 151.355 53.8967Z" fill="white"/>
<path d="M156.34 53.3674C156.34 53.679 156.253 53.9254 156.072 54.092C155.898 54.266 155.644 54.3457 155.333 54.3457C155.021 54.3457 154.768 54.2587 154.594 54.092C154.42 53.9181 154.333 53.679 154.333 53.3674V50.2368H153.441V53.3166C153.441 53.8601 153.608 54.2877 153.934 54.5993C154.26 54.9109 154.717 55.0631 155.304 55.0631C155.891 55.0631 156.355 54.9109 156.681 54.6065C157.014 54.3022 157.173 53.8746 157.173 53.3239V50.2441H156.34V53.3746V53.3674Z" fill="white"/>
<path d="M161.277 54.9327H161.262L159.741 50.2368H158.27V55.0051H159.11L159.074 50.3093H159.088L160.61 55.0051H162.081V50.2368H161.241L161.277 54.9327Z" fill="white"/>
<path d="M165.144 50.8873C165.463 50.8873 165.724 50.9888 165.942 51.1917C166.152 51.3946 166.289 51.6772 166.347 52.0395H167.195C167.115 51.4526 166.898 50.996 166.536 50.6627C166.173 50.3366 165.71 50.1699 165.137 50.1699C164.449 50.1699 163.905 50.3873 163.521 50.8149C163.137 51.2497 162.941 51.8439 162.941 52.612C162.941 53.3802 163.137 53.9817 163.521 54.4092C163.905 54.844 164.449 55.0542 165.137 55.0542C165.702 55.0542 166.166 54.8875 166.529 54.5541C166.891 54.2208 167.108 53.757 167.188 53.17H166.34C166.282 53.5396 166.144 53.8295 165.934 54.0324C165.724 54.2353 165.456 54.344 165.137 54.344C164.739 54.344 164.427 54.1918 164.202 53.8875C163.978 53.5831 163.862 53.1555 163.862 52.612C163.862 52.0685 163.97 51.641 164.202 51.3366C164.427 51.0323 164.739 50.8801 165.137 50.8801" fill="white"/>
<path d="M168.9 50.2432H168.016V55.0042H168.9V50.2432Z" fill="white"/>
<path d="M170.908 54.2877V50.2368H170.031V55.0051H173.002V54.2877H170.908Z" fill="white"/>
<path d="M226.162 35.7642C225.836 35.5758 225.307 35.3076 224.582 35.0758C223.191 34.6337 221.734 34.525 220.256 34.7569C219.64 34.8584 219.009 35.0178 218.386 35.2424C218.364 35.2497 218.335 35.2569 218.314 35.2714C218.277 35.2859 218.241 35.3004 218.205 35.3149C217.893 35.4308 217.567 35.5758 217.212 35.7569C216.937 35.9019 216.654 36.054 216.372 36.2207C215.879 36.5178 215.357 36.8657 214.828 37.2642C214.277 33.6047 214.509 30.177 214.669 28.2929C215.654 29.3074 215.241 31.4379 215.016 31.9814C214.973 32.0974 215.016 32.2206 215.118 32.2858C215.219 32.351 215.357 32.3365 215.437 32.2423H215.444C216.727 30.7133 216.734 29.0755 216.459 27.9595C216.821 28.4958 217.031 29.1045 217.089 29.8147C217.111 30.1118 217.111 30.4234 217.089 30.764C217.089 30.8365 217.074 30.9089 217.074 30.9814C217.074 31.0611 217.103 31.1408 217.161 31.1915C217.219 31.2423 217.299 31.2568 217.372 31.2423C217.466 31.2278 217.517 31.1626 217.538 31.1263V31.1118C218.198 29.8364 218.19 28.3219 217.538 27.0609C217.408 26.8073 217.256 26.5682 217.074 26.3363C217.118 26.3653 217.154 26.3943 217.19 26.416C217.661 26.7638 218.031 27.2638 218.263 27.8581C218.43 28.2929 218.517 28.7639 218.517 29.1915C218.517 29.3146 218.604 29.4234 218.727 29.4379C218.85 29.4524 218.966 29.3799 219.002 29.2567C219.321 28.0682 219.212 27.032 218.683 26.1696C218.408 25.7276 218.009 25.329 217.531 25.0246C217.835 25.1043 218.111 25.2275 218.35 25.387C218.785 25.6841 218.995 26.0319 219.046 26.1261C219.104 26.2348 219.22 26.2783 219.328 26.2493C219.437 26.2131 219.509 26.1116 219.509 25.9957C219.444 25.3073 219.14 24.7203 218.633 24.2782C218.292 23.9811 217.864 23.7492 217.393 23.626C217.103 23.5463 216.806 23.5028 216.509 23.4956C216.422 23.4956 216.343 23.4956 216.263 23.4956C216.372 23.4376 216.48 23.3941 216.574 23.3724C216.814 23.2999 217.067 23.2709 217.314 23.2854C217.538 23.2999 217.741 23.3434 217.901 23.4231C218.009 23.4739 218.132 23.4376 218.205 23.3434C218.277 23.2492 218.27 23.1188 218.19 23.0318C217.973 22.7854 217.719 22.5753 217.437 22.4159C217.147 22.2492 216.835 22.155 216.524 22.1187C215.763 22.0318 215.053 22.3216 214.538 22.9159C214.502 22.8434 214.466 22.7637 214.429 22.684C214.227 22.2057 214.074 21.7057 213.995 21.2419C213.973 21.1187 213.871 21.0317 213.748 21.0317C213.625 21.0317 213.524 21.1187 213.502 21.2419C213.422 21.7129 213.27 22.2129 213.067 22.6912C213.031 22.7709 213.002 22.8434 212.966 22.9159C212.545 22.4303 211.995 22.1477 211.386 22.1042C210.625 22.0535 209.871 22.3869 209.313 23.0246C209.234 23.1115 209.234 23.242 209.299 23.3362C209.364 23.4304 209.494 23.4666 209.603 23.4159C210.002 23.2202 210.69 23.1985 211.255 23.4956C210.335 23.4376 209.255 23.7637 208.581 24.5681C208.241 24.9667 208.045 25.4449 207.994 25.9812C207.98 26.0971 208.052 26.2059 208.161 26.2421C208.277 26.2783 208.4 26.2348 208.458 26.1261C208.509 26.0392 208.647 25.8073 208.915 25.5681C209.241 25.2783 209.618 25.1116 209.995 25.0101C209.408 25.3797 208.835 25.9522 208.545 26.7421C208.27 27.4813 208.255 28.3219 208.509 29.2422C208.538 29.3654 208.654 29.4379 208.777 29.4306C208.9 29.4161 208.994 29.3074 208.994 29.1842C208.994 29.1842 208.994 29.1697 208.994 29.1625C208.994 29.148 208.994 29.1335 208.994 29.119C208.994 28.4596 209.212 27.7639 209.56 27.2131C209.792 26.8508 210.081 26.5464 210.422 26.3218C209.915 26.9812 209.603 27.7132 209.502 28.503C209.35 29.6915 209.719 30.6408 209.951 31.0973C210.002 31.1988 210.125 31.2567 210.241 31.2278C210.357 31.1988 210.429 31.0901 210.429 30.9741C210.371 30.3582 210.263 29.09 211.045 27.9305C210.973 28.2277 210.922 28.561 210.9 28.9161C210.85 30.119 211.248 31.264 212.053 32.2206C212.132 32.3148 212.27 32.3365 212.379 32.2641C212.48 32.1988 212.524 32.0684 212.473 31.9597C212.248 31.4162 211.842 29.2857 212.821 28.2784C212.973 30.1625 213.212 33.5829 212.661 37.2498C211.415 36.3294 210.313 35.6917 209.284 35.3004C209.139 35.2497 208.994 35.1917 208.828 35.141C207.661 34.7569 206.48 34.5902 205.313 34.641C203.69 34.7134 202.443 35.1772 201.675 35.5613C201.552 35.6265 201.429 35.6845 201.32 35.7497C201.204 35.8222 201.154 35.9671 201.212 36.0903C201.27 36.2135 201.407 36.2787 201.538 36.2352C201.639 36.2062 201.748 36.1772 201.842 36.1482C203.002 35.8221 204.161 35.7062 205.299 35.8077C206.407 35.9019 207.538 36.2135 208.654 36.7135C209.871 37.2642 211.125 38.0686 212.473 39.1629C212.002 39.5832 211.553 39.989 211.118 40.3803C210.118 41.2861 209.255 42.076 208.676 42.4238C208.393 42.1485 207.987 42.0325 207.589 42.1195C207.147 42.221 206.792 42.5615 206.697 43.0036C206.61 43.3876 206.712 43.808 206.944 44.0471C207.451 44.5544 208.096 44.6558 208.85 44.337C209.821 43.9312 210.951 42.8587 212.27 41.6122C212.647 41.2571 213.031 40.8948 213.437 40.518C213.545 40.4165 213.647 40.3296 213.741 40.2426C213.821 40.3151 213.9 40.3875 213.98 40.46L214.045 40.518C214.451 40.8876 214.835 41.2571 215.212 41.6122C215.603 41.9818 215.973 42.3296 216.328 42.6557C216.632 42.9384 216.908 43.1703 217.161 43.3804C217.618 43.7572 218.002 44.0254 218.35 44.2065C218.748 44.4167 219.118 44.5254 219.451 44.5254C219.821 44.5254 220.147 44.3949 220.437 44.1413L220.451 44.1268C220.451 44.1268 220.502 44.0833 220.531 44.0543C220.72 43.8659 220.865 43.3804 220.778 43.0108C220.727 42.7862 220.611 42.5833 220.437 42.4238C220.278 42.2717 220.089 42.1702 219.879 42.1267C219.473 42.0398 219.075 42.1557 218.792 42.4311C218.727 42.3949 218.654 42.3441 218.582 42.2934C218.299 42.0978 217.951 41.8151 217.451 41.3803C217.227 41.1847 216.973 40.9528 216.632 40.6412L216.35 40.3875C215.915 39.989 215.466 39.5832 214.995 39.1629C215.553 38.7063 216.082 38.3078 216.611 37.9527C216.901 37.757 217.161 37.5903 217.422 37.4381C217.792 37.2207 218.169 37.0178 218.553 36.8294C219.147 36.5468 219.749 36.3149 220.343 36.141C221.705 35.7497 223.089 35.6627 224.459 35.8874C224.952 35.9671 225.444 36.083 225.93 36.2352C226.06 36.2787 226.205 36.2135 226.256 36.0903C226.314 35.9671 226.263 35.8222 226.147 35.7497" fill="white"/>
<mask id="mask0_15800_4913" style="mask-type:luminance" maskUnits="userSpaceOnUse" x="213" y="12" width="4" height="4">
<path d="M214.036 12.5683L213.676 15.3057L216.413 15.666L216.774 12.9287L214.036 12.5683Z" fill="white"/>
</mask>
<g mask="url(#mask0_15800_4913)">
<path d="M216.295 11.4561L212.555 13.1035L214.202 16.8439L217.942 15.1965L216.295 11.4561Z" fill="white"/>
</g>
<mask id="mask1_15800_4913" style="mask-type:luminance" maskUnits="userSpaceOnUse" x="218" y="13" width="4" height="5">
<path d="M219.321 13.6638L218.238 16.2036L220.778 17.2864L221.861 14.7466L219.321 13.6638Z" fill="white"/>
</mask>
<g mask="url(#mask1_15800_4913)">
<path d="M221.268 12.3261L216.891 14.2539L218.818 18.631L223.195 16.7032L221.268 12.3261Z" fill="white"/>
</g>
<mask id="mask2_15800_4913" style="mask-type:luminance" maskUnits="userSpaceOnUse" x="181" y="0" width="31" height="32">
<path d="M211.322 0.842193C203.329 0.950892 195.799 4.12494 190.118 9.77733C184.437 15.4297 181.226 22.9372 181.074 30.9231V31.1622H184.422V30.9303C184.574 23.8358 187.437 17.1689 192.488 12.147C197.539 7.12505 204.227 4.29884 211.329 4.19014H211.561V0.834961H211.322V0.842193Z" fill="white"/>
</mask>
<g mask="url(#mask2_15800_4913)">
<path d="M206.604 -10.3917L169.883 5.78125L186.024 42.4293L222.745 26.2564L206.604 -10.3917Z" fill="white"/>
</g>
<mask id="mask3_15800_4913" style="mask-type:luminance" maskUnits="userSpaceOnUse" x="213" y="6" width="5" height="5">
<path d="M214.11 6.69093L213.633 10.4873L217.429 10.9642L217.906 7.16784L214.11 6.69093Z" fill="white"/>
</mask>
<g mask="url(#mask3_15800_4913)">
<path d="M217.231 5.16701L212.078 7.43652L214.348 12.5895L219.501 10.32L217.231 5.16701Z" fill="white"/>
</g>
<mask id="mask4_15800_4913" style="mask-type:luminance" maskUnits="userSpaceOnUse" x="185" y="33" width="8" height="6">
<path d="M185.617 33.6351C185.646 34.454 185.791 36.3236 186.429 38.7295C188.248 38.2222 190.472 37.6063 192.27 37.1135C191.849 35.4178 191.77 34.1134 191.755 33.4829L185.617 33.6423V33.6351Z" fill="white"/>
</mask>
<g mask="url(#mask4_15800_4913)">
<path d="M191.179 31.0451L183.672 34.3516L186.689 41.2023L194.196 37.8959L191.179 31.0451Z" fill="white"/>
</g>
<mask id="mask5_15800_4913" style="mask-type:luminance" maskUnits="userSpaceOnUse" x="187" y="20" width="6" height="12">
<path d="M189.443 20.8228C188.001 23.8954 187.219 27.1709 187.117 30.5695C187.117 30.5695 187.117 30.7 187.117 30.7942C187.117 30.8449 187.117 30.8956 187.117 30.9319V31.171H190.465V30.9391C190.465 30.9029 190.465 30.8521 190.465 30.8014V30.7797C190.465 30.6927 190.465 30.5985 190.465 30.5695C190.559 27.7216 191.212 24.9751 192.4 22.3881L192.494 22.1852L189.538 20.5981L189.429 20.8228H189.443Z" fill="white"/>
</mask>
<g mask="url(#mask5_15800_4913)">
<path d="M191.623 18.6269L183.207 22.3335L187.983 33.1767L196.399 29.4701L191.623 18.6269Z" fill="white"/>
</g>
<mask id="mask6_15800_4913" style="mask-type:luminance" maskUnits="userSpaceOnUse" x="190" y="10" width="11" height="11">
<path d="M198.138 10.7495C196.819 11.6263 195.573 12.6409 194.442 13.7569C192.863 15.3221 191.493 17.0903 190.377 19.0252L190.254 19.2353L193.211 20.8223L193.326 20.6267C194.29 18.9745 195.464 17.4599 196.819 16.1265C197.776 15.1844 198.819 14.3293 199.928 13.5902L200.117 13.4597L198.341 10.6118L198.138 10.7423V10.7495Z" fill="white"/>
</mask>
<g mask="url(#mask6_15800_4913)">
<path d="M198.52 6.99058L186.496 12.2861L191.865 24.4756L203.888 19.1801L198.52 6.99058Z" fill="white"/>
</g>
<mask id="mask7_15800_4913" style="mask-type:luminance" maskUnits="userSpaceOnUse" x="233" y="12" width="7" height="7">
<path d="M237.257 12.4815L233.676 15.0112L236.205 18.592L239.786 16.0623L237.257 12.4815Z" fill="white"/>
</mask>
<g mask="url(#mask7_15800_4913)">
<path d="M238.797 10.2652L231.422 13.5132L234.667 20.8813L242.042 17.6332L238.797 10.2652Z" fill="white"/>
</g>
<mask id="mask8_15800_4913" style="mask-type:luminance" maskUnits="userSpaceOnUse" x="222" y="16" width="5" height="5">
<path d="M224.253 16.1963L222.508 18.3359L224.647 20.081L226.392 17.9414L224.253 16.1963Z" fill="white"/>
</mask>
<g mask="url(#mask8_15800_4913)">
<path d="M225.751 14.7762L221.062 16.8413L223.128 21.5301L227.816 19.465L225.751 14.7762Z" fill="white"/>
</g>
<mask id="mask9_15800_4913" style="mask-type:luminance" maskUnits="userSpaceOnUse" x="229" y="15" width="6" height="7">
<path d="M232.52 15.9358L229.395 18.1436L231.602 21.2686L234.727 19.0609L232.52 15.9358Z" fill="white"/>
</mask>
<g mask="url(#mask9_15800_4913)">
<path d="M233.852 14.0071L227.426 16.8374L230.256 23.2637L236.682 20.4334L233.852 14.0071Z" fill="white"/>
</g>
<mask id="mask10_15800_4913" style="mask-type:luminance" maskUnits="userSpaceOnUse" x="225" y="19" width="5" height="5">
<path d="M228.083 19.692L225.828 21.2847L227.421 23.5399L229.676 21.9473L228.083 19.692Z" fill="white"/>
</mask>
<g mask="url(#mask10_15800_4913)">
<path d="M229.055 18.2791L224.406 20.3267L226.454 24.9756L231.103 22.9281L229.055 18.2791Z" fill="white"/>
</g>
<mask id="mask11_15800_4913" style="mask-type:luminance" maskUnits="userSpaceOnUse" x="187" y="39" width="8" height="8">
<path d="M187.5 41.9368C188.145 43.5238 188.942 45.0529 189.877 46.4877L194.877 43.1832C194.479 42.5455 194.152 41.9803 193.87 41.415C193.623 40.9223 193.399 40.4295 193.189 39.9077C191.428 40.5309 189.319 41.2846 187.5 41.9295" fill="white"/>
</mask>
<g mask="url(#mask11_15800_4913)">
<path d="M193.68 37.2199L185.078 41.0083L188.7 49.2319L197.302 45.4435L193.68 37.2199Z" fill="white"/>
</g>
<mask id="mask12_15800_4913" style="mask-type:luminance" maskUnits="userSpaceOnUse" x="219" y="8" width="6" height="6">
<path d="M221.069 8.0831L219.598 11.6152L223.13 13.0863L224.601 9.55411L221.069 8.0831Z" fill="white"/>
</mask>
<g mask="url(#mask12_15800_4913)">
<path d="M223.771 6.24774L217.742 8.90283L220.397 14.9312L226.426 12.2762L223.771 6.24774Z" fill="white"/>
</g>
<mask id="mask13_15800_4913" style="mask-type:luminance" maskUnits="userSpaceOnUse" x="228" y="6" width="7" height="7">
<path d="M228.605 9.85053L231.932 12.6985L233.83 10.4882L234.787 9.37227L231.453 6.51709L228.605 9.85053Z" fill="white"/>
</mask>
<g mask="url(#mask13_15800_4913)">
<path d="M233.785 4.256L226.324 7.54199L229.61 15.0029L237.071 11.7169L233.785 4.256Z" fill="white"/>
</g>
<mask id="mask14_15800_4913" style="mask-type:luminance" maskUnits="userSpaceOnUse" x="221" y="2" width="7" height="7">
<path d="M223.301 2.41323L221.523 6.4209L225.531 8.19853L227.309 4.19087L223.301 2.41323Z" fill="white"/>
</mask>
<g mask="url(#mask14_15800_4913)">
<path d="M226.364 0.306134L219.387 3.37891L222.459 10.3557L229.436 7.28291L226.364 0.306134Z" fill="white"/>
</g>
<mask id="mask15_15800_4913" style="mask-type:luminance" maskUnits="userSpaceOnUse" x="225" y="11" width="6" height="6">
<path d="M227.559 11.488L225.07 14.394L227.976 16.883L230.465 13.977L227.559 11.488Z" fill="white"/>
</mask>
<g mask="url(#mask15_15800_4913)">
<path d="M229.588 9.52329L223.082 12.3887L225.947 18.8946L232.453 16.0292L229.588 9.52329Z" fill="white"/>
</g>
<mask id="mask16_15800_4913" style="mask-type:luminance" maskUnits="userSpaceOnUse" x="214" y="0" width="5" height="6">
<path d="M214.613 0.726144L214.066 5.07617L218.416 5.62263L218.963 1.2726L214.613 0.726144Z" fill="white"/>
</mask>
<g mask="url(#mask16_15800_4913)">
<path d="M218.163 -1.06003L212.254 1.54248L214.856 7.45153L220.765 4.84901L218.163 -1.06003Z" fill="white"/>
</g>
<mask id="mask17_15800_4913" style="mask-type:luminance" maskUnits="userSpaceOnUse" x="195" y="55" width="8" height="7">
<path d="M195.283 57.9182L195.008 58.3168L195.211 58.4472C197.16 59.7227 199.196 60.7807 201.262 61.585L201.486 61.672L202.675 58.5052L202.472 58.4183C200.595 57.5776 198.827 56.5993 197.211 55.5196L197.015 55.3892L195.283 57.911V57.9182Z" fill="white"/>
</mask>
<g mask="url(#mask17_15800_4913)">
<path d="M201.414 52.5922L192.68 56.439L196.243 64.5299L204.977 60.6831L201.414 52.5922Z" fill="white"/>
</g>
<mask id="mask18_15800_4913" style="mask-type:luminance" maskUnits="userSpaceOnUse" x="198" y="49" width="7" height="9">
<path d="M198.148 54.6929C199.525 55.5915 201.025 56.4249 202.62 57.1568L204.554 52.0116C203.438 51.3957 202.373 50.7217 201.373 49.9971L198.148 54.6929Z" fill="white"/>
</mask>
<g mask="url(#mask18_15800_4913)">
<path d="M203.509 47.6459L195.504 51.1714L199.184 59.5276L207.189 56.0021L203.509 47.6459Z" fill="white"/>
</g>
<mask id="mask19_15800_4913" style="mask-type:luminance" maskUnits="userSpaceOnUse" x="187" y="49" width="9" height="8">
<path d="M187.843 51.627L187.988 51.8154C189.43 53.6271 191.039 55.2503 192.756 56.6489L192.938 56.8011L195.141 54.0256L194.959 53.8807C193.387 52.6198 191.959 51.2139 190.706 49.7066L190.561 49.5327L187.836 51.627H187.843Z" fill="white"/>
</mask>
<g mask="url(#mask19_15800_4913)">
<path d="M193.949 46.855L185.148 50.731L189.019 59.5183L197.819 55.6423L193.949 46.855Z" fill="white"/>
</g>
<mask id="mask20_15800_4913" style="mask-type:luminance" maskUnits="userSpaceOnUse" x="203" y="57" width="29" height="7">
<path d="M220.273 59.9178C219.294 60.5193 218.222 60.9033 217.099 61.0555C216.004 61.2005 214.852 61.128 213.671 60.8454C213.2 60.7294 212.722 60.6425 212.258 60.5555C211.453 60.4033 210.62 60.2511 209.859 59.9685C208.214 59.3598 206.308 59.1931 204.62 59.512L204.489 59.5337L203.504 62.3165L203.736 62.3889C206.779 63.3527 209.953 63.8455 213.156 63.8455C219.418 63.8455 225.454 61.9903 230.614 58.483L231.07 58.1714L230.527 58.0554C229.57 57.8598 228.614 57.7583 227.664 57.7583C225.099 57.7583 222.584 58.483 220.273 59.9106" fill="white"/>
</mask>
<g mask="url(#mask20_15800_4913)">
<path d="M226.58 47.6181L201.246 58.7759L207.97 74.0426L233.304 62.8848L226.58 47.6181Z" fill="white"/>
</g>
<mask id="mask21_15800_4913" style="mask-type:luminance" maskUnits="userSpaceOnUse" x="192" y="32" width="5" height="6">
<path d="M192.972 32.9163V33.1409C192.958 33.4236 192.929 34.9526 193.479 37.0904L193.537 37.315L193.769 37.257C194.443 37.0831 195.016 36.9237 195.436 36.8005C195.726 36.7208 195.958 36.6556 196.11 36.6121L196.335 36.5541L196.277 36.3295C196.016 35.2642 195.856 34.17 195.791 33.0757L195.777 32.8511L192.965 32.9235L192.972 32.9163Z" fill="white"/>
</mask>
<g mask="url(#mask21_15800_4913)">
<path d="M195.78 31.6095L191.277 33.5928L193.48 38.5933L197.983 36.61L195.78 31.6095Z" fill="white"/>
</g>
<mask id="mask22_15800_4913" style="mask-type:luminance" maskUnits="userSpaceOnUse" x="182" y="41" width="8" height="9">
<path d="M183.907 42.6542C183.523 42.7919 183.27 42.8789 183.197 42.9079L182.973 42.9876L183.06 43.2122C183.828 45.2775 184.857 47.3356 186.118 49.3284L186.248 49.5313L189.14 47.6254L189.009 47.4298C188.06 46.0167 187.248 44.5239 186.589 42.9876C186.466 42.6977 186.342 42.4006 186.219 42.0817L186.139 41.8716L183.922 42.6615L183.907 42.6542Z" fill="white"/>
</mask>
<g mask="url(#mask22_15800_4913)">
<path d="M188.133 39.6039L180.148 43.1206L183.978 51.8151L191.963 48.2983L188.133 39.6039Z" fill="white"/>
</g>
<mask id="mask23_15800_4913" style="mask-type:luminance" maskUnits="userSpaceOnUse" x="207" y="46" width="34" height="8">
<path d="M225.715 46.4368C223.997 46.5817 222.309 47.147 220.7 48.118C220.388 48.3064 220.055 48.4514 219.707 48.6108C219.526 48.6905 219.345 48.7702 219.163 48.8572C217.359 49.734 215.46 49.9732 213.511 49.5818L213.258 49.5311C212.236 49.3282 211.178 49.1108 210.163 48.8137C209.656 48.6688 209.141 48.5456 208.62 48.4586L208.424 48.4224L207.25 51.7414L207.525 51.7993C207.678 51.8283 207.815 51.8573 207.96 51.9008C208.46 52.0385 208.967 52.1399 209.46 52.2414C209.953 52.3428 210.46 52.4515 210.953 52.5819C212.344 52.966 213.7 53.1617 214.997 53.1617C215.446 53.1617 215.881 53.1399 216.316 53.0892C218.098 52.9008 219.816 52.3066 221.424 51.3355C221.656 51.1978 221.91 51.0819 222.171 50.966C222.345 50.8862 222.526 50.8065 222.707 50.7196C223.765 50.1833 224.859 49.8572 225.961 49.7485C227.055 49.6471 228.193 49.7485 229.345 50.0746C229.606 50.1471 229.86 50.2196 230.12 50.292C231.236 50.6109 232.396 50.937 233.555 51.1326C234.468 51.2848 236.382 51.35 237.78 51.3935H237.903L237.976 51.292C238.686 50.292 239.324 49.2702 239.889 48.2557L240.085 47.9006H239.679C237.874 47.9586 235.635 47.9803 234.838 47.9369C233.512 47.8644 232.171 47.5962 230.961 47.1687C229.483 46.6397 228.026 46.3716 226.628 46.3716C226.323 46.3716 226.019 46.3861 225.715 46.4078" fill="white"/>
</mask>
<g mask="url(#mask23_15800_4913)">
<path d="M234.745 34.305L204.742 47.519L212.576 65.3059L242.579 52.0918L234.745 34.305Z" fill="white"/>
</g>
<mask id="mask24_15800_4913" style="mask-type:luminance" maskUnits="userSpaceOnUse" x="205" y="52" width="31" height="7">
<path d="M226.185 52.1329C224.156 52.3141 222.134 53.0098 220.185 54.2199C219.206 54.8214 218.141 55.2055 217.011 55.3577C215.916 55.5026 214.764 55.4301 213.576 55.1475C212.032 54.7707 210.844 54.4953 209.728 54.2634C208.793 54.0678 207.713 53.8576 206.648 53.8721H206.489L205.191 57.5389L205.59 57.4665C206.684 57.2708 207.713 57.3215 208.757 57.6186C209.373 57.7998 210.018 57.9447 210.634 58.0824C211.09 58.1839 211.568 58.2926 212.032 58.4158C213.17 58.7129 214.3 58.8651 215.387 58.8651C215.743 58.8651 216.098 58.8506 216.445 58.8143C217.909 58.6839 219.337 58.2636 220.706 57.5679C221.047 57.394 221.395 57.2345 221.728 57.0679C222.134 56.8722 222.547 56.6766 222.953 56.4664C224.069 55.8867 225.221 55.5316 226.388 55.4229C227.547 55.3069 228.75 55.4229 229.96 55.778C230.656 55.9736 231.345 56.162 232.076 56.3649C232.366 56.4447 232.656 56.5244 232.961 56.6041L233.077 56.6331L233.171 56.5534C233.446 56.3215 233.685 56.1113 233.91 55.9157L235.707 53.8431L235.323 53.7634C234.953 53.6837 234.598 53.6185 234.265 53.5605C233.584 53.4373 232.997 53.3358 232.446 53.1257C230.685 52.4445 228.939 52.0967 227.257 52.0967C226.902 52.0967 226.547 52.1112 226.192 52.1402" fill="white"/>
</mask>
<g mask="url(#mask24_15800_4913)">
<path d="M230.741 40.8512L202.688 53.2065L210.142 70.1312L238.195 57.7759L230.741 40.8512Z" fill="white"/>
</g>
<mask id="mask25_15800_4913" style="mask-type:luminance" maskUnits="userSpaceOnUse" x="227" y="19" width="18" height="28">
<path d="M237.931 20.6038L238.033 20.8139C240.134 25.2126 241.25 29.7345 241.351 34.2492L238.786 31.5462C238.627 28.3722 237.902 25.2996 236.634 22.4154C236.605 22.343 236.569 22.2705 236.54 22.198C236.46 22.0241 236.38 21.8357 236.279 21.6618L236.17 21.4733L233.011 23.0241L233.156 23.3357C233.714 24.5097 235.003 27.2344 235.431 31.1911L232.489 33.51C233.069 30.0751 232.757 27.0823 231.554 24.6184V24.6039C231.46 24.459 231.38 24.2706 231.3 24.0894L231.199 23.8648L228.061 25.3721L228.163 25.5822C229.902 29.1548 230.286 33.2709 229.25 37.1623C229.148 37.5319 229.039 38.0102 228.909 38.561C228.532 40.148 228.025 42.322 227.489 43.2278L227.344 43.4742L228.539 43.8945L228.641 43.7351C228.641 43.7351 230.366 40.9234 231.576 37.1986L235.518 35.4884C235.301 38.5682 234.489 41.677 233.105 44.7351L232.996 44.9815L235.373 45.6844L235.467 45.525C235.656 45.2061 235.735 45.054 235.953 44.6192C236.909 42.6988 237.591 40.9161 238.025 39.1624C238.286 38.1479 238.482 37.0827 238.62 36.0029L241.243 37.5174C241.004 40.2132 240.424 42.3727 239.982 43.7133C239.489 45.1916 239.047 46.0322 239.04 46.0395L238.888 46.3149L240.692 46.6845L240.772 46.5323C240.772 46.5323 241.859 44.5032 242.656 42.5611C242.975 41.7785 243.207 41.0973 243.344 40.5538C245.047 33.7999 244.446 26.5677 241.641 20.1834C241.511 19.8646 241.373 19.5747 241.228 19.2849L241.127 19.0747L237.931 20.582V20.6038Z" fill="white"/>
</mask>
<g mask="url(#mask25_15800_4913)">
<path d="M242.165 12.5757L217.156 23.5903L230.216 53.2417L255.225 42.227L242.165 12.5757Z" fill="white"/>
</g>
<mask id="mask26_15800_4913" style="mask-type:luminance" maskUnits="userSpaceOnUse" x="181" y="33" width="5" height="8">
<path d="M181.109 33.2212V33.4531C181.181 35.8518 181.645 38.1925 182.044 39.9606L182.167 40.4607L182.399 40.4027C182.5 40.3737 182.754 40.3085 183.196 40.1853C183.681 40.0476 184.355 39.8592 185.138 39.6418L185.363 39.5766L185.297 39.3519C184.486 36.4025 184.392 34.1923 184.384 33.3734V33.1343L181.102 33.2212H181.109Z" fill="white"/>
</mask>
<g mask="url(#mask26_15800_4913)">
<path d="M184.67 31.5845L178.402 34.3447L181.796 42.051L188.064 39.2908L184.67 31.5845Z" fill="white"/>
</g>
<mask id="mask27_15800_4913" style="mask-type:luminance" maskUnits="userSpaceOnUse" x="194" y="38" width="5" height="5">
<path d="M196.612 38.1476C196.38 38.2273 195.634 38.4882 194.33 38.952L194.098 39.0317L194.185 39.2563C194.663 40.481 195.279 41.6695 196.004 42.7999L196.134 42.9956L198.489 41.4448L198.366 41.2492C197.685 40.1477 197.221 39.2056 196.902 38.2925L196.822 38.0679L196.605 38.1403L196.612 38.1476Z" fill="white"/>
</mask>
<g mask="url(#mask27_15800_4913)">
<path d="M197.775 36.4673L192.277 38.8887L194.81 44.6386L200.308 42.2171L197.775 36.4673Z" fill="white"/>
</g>
<mask id="mask28_15800_4913" style="mask-type:luminance" maskUnits="userSpaceOnUse" x="197" y="42" width="6" height="6">
<path d="M197.191 44.4465L197.344 44.6349C198.148 45.6276 199.061 46.577 200.061 47.4538L200.249 47.6205L202.018 45.3958L201.844 45.2508C200.945 44.4899 200.184 43.7 199.576 42.9174L199.431 42.729L197.191 44.4465Z" fill="white"/>
</mask>
<g mask="url(#mask28_15800_4913)">
<path d="M201.226 40.9697L195.383 43.543L197.968 49.4122L203.811 46.8389L201.226 40.9697Z" fill="white"/>
</g>
<mask id="mask29_15800_4913" style="mask-type:luminance" maskUnits="userSpaceOnUse" x="191" y="45" width="9" height="8">
<path d="M191.887 49.1845C192.959 50.4527 194.169 51.6484 195.496 52.7354L199.112 48.1845C198.191 47.3656 197.351 46.4888 196.59 45.5757L191.887 49.1918V49.1845Z" fill="white"/>
</mask>
<g mask="url(#mask29_15800_4913)">
<path d="M197.933 42.9285L189.238 46.7578L193.053 55.4191L201.747 51.5898L197.933 42.9285Z" fill="white"/>
</g>
<mask id="mask30_15800_4913" style="mask-type:luminance" maskUnits="userSpaceOnUse" x="199" y="6" width="13" height="7">
<path d="M211.323 6.64641C209.316 6.68265 207.316 6.95802 205.381 7.47977C203.468 7.99429 201.613 8.74069 199.874 9.69725L199.656 9.8132L201.432 12.6611L201.627 12.5524C204.591 10.9437 207.946 10.0596 211.331 9.99436H211.562V6.63916H211.323V6.64641Z" fill="white"/>
</mask>
<g mask="url(#mask30_15800_4913)">
<path d="M209.627 2.26717L197.438 7.63574L201.591 17.0663L213.78 11.6978L209.627 2.26717Z" fill="white"/>
</g>
<mask id="mask31_15800_4913" style="mask-type:luminance" maskUnits="userSpaceOnUse" x="192" y="12" width="20" height="20">
<path d="M211.322 12.4452C206.423 12.5539 201.807 14.5178 198.321 17.9817C194.836 21.4383 192.836 26.0327 192.684 30.9242V31.1633H196.032V30.9387C196.184 26.9313 197.836 23.1703 200.691 20.3441C203.546 17.5179 207.329 15.9091 211.336 15.8004H211.568V12.438H211.329L211.322 12.4452Z" fill="white"/>
</mask>
<g mask="url(#mask31_15800_4913)">
<path d="M208.485 5.49648L185.758 15.5063L195.733 38.1544L218.46 28.1445L208.485 5.49648Z" fill="white"/>
</g>
<mask id="mask32_15800_4913" style="mask-type:luminance" maskUnits="userSpaceOnUse" x="201" y="46" width="6" height="6">
<path d="M201.613 48.7059L201.794 48.8436C202.845 49.619 203.99 50.3437 205.207 51.0104L205.446 51.1408L206.606 48.0537L206.395 47.9668C205.207 47.4667 204.272 46.9885 203.446 46.445L203.25 46.3218L201.605 48.7204L201.613 48.7059Z" fill="white"/>
</mask>
<g mask="url(#mask32_15800_4913)">
<path d="M205.79 44.4918L199.828 47.1177L202.419 53.0002L208.381 50.3743L205.79 44.4918Z" fill="white"/>
</g>
</svg>
