<svg width="362" height="263" viewBox="0 0 362 263" fill="none" xmlns="http://www.w3.org/2000/svg">
<path d="M198.9 47.4699C198.481 47.2299 197.723 46.8399 196.665 46.4999C195.148 46.0099 193.032 45.65 190.527 46.0499C189.688 46.1799 188.79 46.4099 187.872 46.7399C187.782 46.7699 187.692 46.7999 187.602 46.8399C187.133 47.0199 186.664 47.2299 186.195 47.4699C185.796 47.6699 185.397 47.8998 184.998 48.1398C184.089 48.6898 183.191 49.3098 182.323 49.9797C181.335 43.97 181.814 38.3903 182.043 35.6505C182.043 35.6405 182.063 35.6305 182.073 35.6405C184.199 36.9804 183.6 40.7202 183.151 41.7901C183.151 41.8101 183.171 41.8302 183.191 41.8102C185.836 38.6803 184.538 35.2205 183.999 34.3405C183.989 34.3205 184.009 34.3005 184.029 34.3205C184.409 34.6305 184.718 34.9605 184.988 35.3005C185.806 36.3504 186.105 37.4804 186.185 38.4803C186.225 39.0103 186.215 39.5003 186.185 39.9202C186.185 40.0302 186.165 40.1402 186.155 40.2402C186.155 40.2502 186.165 40.2602 186.185 40.2602H186.195C186.904 38.8603 187.253 36.7304 186.185 34.6605C185.896 34.1005 185.507 33.5506 184.988 33.0106C184.838 32.8606 184.678 32.7006 184.508 32.5506C184.488 32.5406 184.508 32.5106 184.528 32.5106C184.688 32.5506 184.838 32.6006 184.988 32.6506C185.437 32.8106 185.836 33.0206 186.185 33.2806C186.984 33.8705 187.533 34.6905 187.862 35.5405C188.131 36.2404 188.251 36.9704 188.251 37.6104C188.251 37.6304 188.281 37.6404 188.291 37.6104C188.79 35.7805 188.491 34.3905 187.862 33.3806C187.413 32.6606 186.804 32.1306 186.185 31.7607C185.766 31.5107 185.347 31.3307 184.988 31.2207C184.778 31.1607 184.578 31.1107 184.409 31.0907C184.389 31.0907 184.389 31.0507 184.409 31.0507C184.608 31.0307 184.798 31.0207 184.978 31.0207C185.427 31.0207 185.816 31.0507 186.175 31.1207C186.884 31.2507 187.433 31.5007 187.852 31.7807C188.521 32.2406 188.86 32.7706 188.97 32.9906C188.98 33.0106 189.01 32.9906 189.01 32.9806C188.91 32.0106 188.471 31.2607 187.842 30.7107C187.363 30.2907 186.774 30.0007 186.165 29.8307C185.766 29.7208 185.357 29.6608 184.968 29.6608C184.429 29.6608 183.91 29.7408 183.47 29.9307C183.451 29.9307 183.441 29.9207 183.451 29.9007C183.84 29.3408 184.389 29.0008 184.968 28.8208C185.367 28.7008 185.786 28.6608 186.165 28.6808C186.534 28.7008 186.874 28.7808 187.153 28.9108C187.173 28.9108 187.193 28.8908 187.173 28.8808C186.874 28.5308 186.525 28.2608 186.165 28.0608C185.786 27.8508 185.377 27.7109 184.968 27.6709C183.9 27.5509 182.802 28.0008 182.073 29.1108C182.073 29.1208 182.043 29.1208 182.043 29.1108C181.904 28.8608 181.774 28.5808 181.644 28.2908C181.355 27.6209 181.115 26.8509 180.985 26.1009C180.985 26.0809 180.955 26.0809 180.945 26.1009C180.816 26.8609 180.576 27.6209 180.287 28.3008C180.167 28.5908 180.027 28.8608 179.887 29.1108C179.887 29.1208 179.858 29.1208 179.858 29.1108C178.59 27.1809 176.205 27.2209 174.757 28.8908C174.747 28.9108 174.757 28.9308 174.777 28.9208C175.746 28.4608 177.572 28.5908 178.48 29.9107C178.49 29.9307 178.48 29.9507 178.46 29.9407C177.053 29.3508 174.867 29.7308 173.7 31.1207C173.28 31.6207 172.991 32.2406 172.921 32.9906C172.921 33.0106 172.951 33.0206 172.961 33.0006C173.051 32.8306 173.28 32.4606 173.7 32.0906C174.378 31.4907 175.566 30.8807 177.532 31.0607C177.552 31.0607 177.562 31.1007 177.532 31.1007C176.524 31.2207 174.468 32.1206 173.7 34.1805C173.36 35.0905 173.28 36.2204 173.66 37.6204C173.66 37.6404 173.7 37.6404 173.7 37.6204C173.7 37.5904 173.7 37.5604 173.7 37.5304C173.719 35.6605 174.787 33.1606 177.422 32.5206C177.442 32.5206 177.452 32.5406 177.442 32.5606C174.498 35.1605 174.787 38.3703 175.746 40.2602C175.756 40.2802 175.785 40.2702 175.785 40.2602C175.656 38.8303 175.556 36.2704 177.921 34.3505C177.941 34.3405 177.971 34.3505 177.951 34.3705C177.402 35.2505 176.115 38.7103 178.76 41.8401C178.77 41.8601 178.81 41.8401 178.8 41.8201C178.36 40.7502 177.762 37.0104 179.877 35.6705C179.887 35.6705 179.907 35.6705 179.907 35.6805C180.137 38.4203 180.616 44 179.628 50.0097C177.921 48.6998 176.125 47.5399 174.338 46.8699C174.119 46.7899 173.899 46.7099 173.69 46.6399C171.853 46.0299 170.166 45.8599 168.699 45.9299C166.344 46.0299 164.537 46.7399 163.549 47.2399C163.35 47.3399 163.18 47.4299 163.05 47.5099C163 47.5399 163.04 47.6199 163.09 47.5999C163.24 47.5499 163.4 47.5099 163.549 47.4699C165.366 46.9599 167.082 46.8199 168.699 46.9599C170.476 47.1199 172.133 47.6099 173.69 48.3098C175.875 49.2998 177.851 50.6997 179.628 52.1896C177.113 54.3895 174.977 56.5394 173.69 57.2894C173.63 57.3294 173.56 57.3594 173.5 57.3894C173.191 56.9694 172.652 56.7194 172.063 56.8494C171.554 56.9594 171.135 57.3694 171.025 57.8793C170.925 58.3393 171.035 58.8293 171.294 59.0793C171.983 59.7693 172.781 59.8192 173.69 59.4293C175.436 58.6893 177.602 56.3794 180.267 53.9295C180.486 53.7295 180.716 53.5196 180.945 53.3196C181.175 53.5196 181.395 53.7295 181.624 53.9295C182.832 55.0395 183.94 56.1194 184.948 57.0394C185.367 57.4194 185.766 57.7694 186.145 58.0793C186.744 58.5693 187.293 58.9693 187.822 59.2393C188.84 59.7792 189.728 59.8492 190.477 59.1793C190.517 59.1393 190.557 59.1093 190.597 59.0693C190.766 58.8993 190.976 58.3193 190.866 57.8693C190.806 57.6094 190.666 57.3694 190.467 57.1894C190.287 57.0194 190.068 56.8994 189.818 56.8394C189.229 56.7094 188.69 56.9594 188.381 57.3794C188.201 57.2894 188.012 57.1694 187.802 57.0294C187.323 56.6994 186.764 56.2294 186.125 55.6795C185.746 55.3495 185.347 54.9895 184.928 54.5995C184.109 53.8495 183.201 53.0196 182.243 52.1796C183.091 51.4697 183.989 50.7797 184.928 50.1397C185.317 49.8697 185.716 49.6198 186.125 49.3698C186.664 49.0398 187.223 48.7398 187.802 48.4698C188.65 48.0598 189.539 47.7099 190.457 47.4499C192.363 46.8999 194.399 46.7199 196.595 47.0699C197.304 47.1799 198.042 47.3499 198.781 47.5899C198.841 47.6099 198.88 47.5299 198.821 47.4999" fill="#8999A1"/>
<path d="M180.998 79.9255L176.969 83.9629L180.998 88.0003L185.028 83.9629L180.998 79.9255Z" fill="#7E4096"/>
<path d="M148.592 56.8145L147.133 61.3125L151.622 62.7749L153.082 58.2769L148.592 56.8145Z" fill="#7E4096"/>
<path d="M161.639 17.3042L161.027 21.1758L164.892 21.789L165.504 17.9174L161.639 17.3042Z" fill="#7E4096"/>
<path d="M211.173 41.2322L208.406 44.0039L211.173 46.7756L213.939 44.0039L211.173 41.2322Z" fill="#7E4096"/>
<path d="M208.811 32.0052L207.035 35.498L210.521 37.277L212.297 33.7841L208.811 32.0052Z" fill="#7E4096"/>
<path d="M164.892 66.2227L161.027 66.8359L161.639 70.7075L165.504 70.0943L164.892 66.2227Z" fill="#7E4096"/>
<path d="M200.356 17.3184L196.492 17.9316L197.104 21.8032L200.968 21.19L200.356 17.3184Z" fill="#7E4096"/>
<path d="M172.541 70.1351L169.055 71.9141L170.83 75.4069L174.317 73.628L172.541 70.1351Z" fill="#7E4096"/>
<path d="M181.001 11.0017L178.234 13.7734L181.001 16.5452L183.767 13.7734L181.001 11.0017Z" fill="#7E4096"/>
<path d="M176.543 15.7849L174.637 18.4141L177.261 20.3243L179.167 17.6951L176.543 15.7849Z" fill="#7E4096"/>
<path d="M184.758 67.6911L182.852 70.3203L185.476 72.2305L187.382 69.6013L184.758 67.6911Z" fill="#7E4096"/>
<path d="M158.679 30.0192L155.594 31.0234L156.596 34.1142L159.681 33.11L158.679 30.0192Z" fill="#7E4096"/>
<path d="M205.417 53.8688L202.332 54.873L203.334 57.9638L206.419 56.9596L205.417 53.8688Z" fill="#7E4096"/>
<path d="M154.746 45.8474L152.84 48.4766L155.464 50.3868L157.371 47.7576L154.746 45.8474Z" fill="#7E4096"/>
<path d="M220.191 52.5485L215.113 55.1406L217.701 60.228L222.778 57.6359L220.191 52.5485Z" fill="#7E4096"/>
<path d="M159.937 73.0453L154.309 73.9395L155.201 79.5787L160.83 78.6845L159.937 73.0453Z" fill="#7E4096"/>
<path d="M206.816 8.37926L201.188 9.27344L202.08 14.9127L207.709 14.0185L206.816 8.37926Z" fill="#7E4096"/>
<path d="M146.212 46.1286L143.438 49.9551L147.257 52.7352L150.032 48.9087L146.212 46.1286Z" fill="#7E4096"/>
<path d="M170.807 12.6048L169.031 16.0977L172.518 17.8766L174.293 14.3837L170.807 12.6048Z" fill="#7E4096"/>
<path d="M153.174 32.0492L149.688 33.8281L151.463 37.321L154.949 35.5421L153.174 32.0492Z" fill="#7E4096"/>
<path d="M181.001 71.447L178.234 74.2188L181.001 76.9905L183.767 74.2187L181.001 71.447Z" fill="#7E4096"/>
<path d="M203.354 30.0303L202.352 33.1211L205.436 34.1253L206.439 31.0346L203.354 30.0303Z" fill="#7E4096"/>
<path d="M164.08 60.959H160.836V64.2088H164.08V60.959Z" fill="#7E4096"/>
<path d="M144.312 27.8356L139.234 30.4277L141.822 35.5151L146.899 32.923L144.312 27.8356Z" fill="#7E4096"/>
<path d="M141.81 52.4946L139.223 57.582L144.3 60.1742L146.888 55.0868L141.81 52.4946Z" fill="#7E4096"/>
<path d="M163.732 10.0564L162.273 14.5547L166.763 16.0163L168.222 11.518L163.732 10.0564Z" fill="#7E4096"/>
<path d="M195.224 71.9744L193.766 76.4727L198.255 77.9342L199.714 73.436L195.224 71.9744Z" fill="#7E4096"/>
<path d="M213.423 56.8158L208.934 58.2773L210.392 62.7756L214.882 61.314L213.423 56.8158Z" fill="#7E4096"/>
<path d="M215.796 46.1418L211.977 48.9219L214.751 52.7483L218.571 49.9683L215.796 46.1418Z" fill="#7E4096"/>
<path d="M210.385 25.2381L208.926 29.7363L213.416 31.1979L214.874 26.6996L210.385 25.2381Z" fill="#7E4096"/>
<path d="M207.893 17.0625H203.172V21.7923H207.893V17.0625Z" fill="#7E4096"/>
<path d="M166.767 71.9974L162.277 73.459L163.736 77.9573L168.226 76.4957L166.767 71.9974Z" fill="#7E4096"/>
<path d="M185.9 75.0134L183.125 78.8398L186.944 81.6199L189.719 77.7935L185.9 75.0134Z" fill="#7E4096"/>
<path d="M151.444 50.6809L149.668 54.1738L153.154 55.9528L154.93 52.4599L151.444 50.6809Z" fill="#7E4096"/>
<path d="M164.08 23.8008H160.836V27.0506H164.08V23.8008Z" fill="#7E4096"/>
<path d="M155.46 37.621L152.836 39.5313L154.743 42.1604L157.367 40.2502L155.46 37.621Z" fill="#7E4096"/>
<path d="M193.956 18.5192L190.871 19.5234L191.873 22.6142L194.958 21.61L193.956 18.5192Z" fill="#7E4096"/>
<path d="M185.468 15.7695L182.844 17.6797L184.75 20.3089L187.375 18.3987L185.468 15.7695Z" fill="#7E4096"/>
<path d="M200.574 55.8717L197.922 56.293L198.342 58.9496L200.994 58.5284L200.574 55.8717Z" fill="#7E4096"/>
<path d="M203.82 42.1019L201.922 44.0039L203.82 45.9059L205.719 44.0039L203.82 42.1019Z" fill="#7E4096"/>
<path d="M217.677 27.7993L215.09 32.8867L220.168 35.4789L222.755 30.3915L217.677 27.7993Z" fill="#7E4096"/>
<path d="M207.897 66.209H203.176V70.9388H207.897V66.209Z" fill="#7E4096"/>
<path d="M151.607 25.2611L147.117 26.7227L148.576 31.2209L153.066 29.7594L151.607 25.2611Z" fill="#7E4096"/>
<path d="M198.263 10.0376L193.773 11.5L195.233 15.998L199.722 14.5357L198.263 10.0376Z" fill="#7E4096"/>
<path d="M175.048 6.36887L172.273 10.1953L176.093 12.9754L178.867 9.14895L175.048 6.36887Z" fill="#7E4096"/>
<path d="M210.549 50.7386L207.063 52.5176L208.838 56.0105L212.324 54.2315L210.549 50.7386Z" fill="#7E4096"/>
<path d="M150.845 41.2283L148.078 44L150.845 46.7717L153.611 44L150.845 41.2283Z" fill="#7E4096"/>
<path d="M207.269 45.8378L204.645 47.748L206.551 50.3772L209.175 48.467L207.269 45.8378Z" fill="#7E4096"/>
<path d="M170.14 65.359L167.055 66.3633L168.057 69.4541L171.142 68.4498L170.14 65.359Z" fill="#7E4096"/>
<path d="M181.012 64.9534L179.113 66.8555L181.012 68.7575L182.91 66.8555L181.012 64.9534Z" fill="#7E4096"/>
<path d="M166.499 23.9879L166.078 26.6445L168.73 27.0658L169.15 24.4091L166.499 23.9879Z" fill="#7E4096"/>
<path d="M158.715 49.2283L157.496 51.625L159.888 52.8462L161.107 50.4495L158.715 49.2283Z" fill="#7E4096"/>
<path d="M158.838 17.0625H154.117V21.7923H158.838V17.0625Z" fill="#7E4096"/>
<path d="M186.956 6.38008L183.137 9.16016L185.912 12.9866L189.731 10.2065L186.956 6.38008Z" fill="#7E4096"/>
<path d="M189.455 70.0853L187.68 73.5781L191.166 75.3571L192.942 71.8642L189.455 70.0853Z" fill="#7E4096"/>
<path d="M154.967 59.5152L154.355 63.3867L158.22 63.9999L158.832 60.1284L154.967 59.5152Z" fill="#7E4096"/>
<path d="M203.772 23.9898L203.16 27.8613L207.024 28.4745L207.636 24.603L203.772 23.9898Z" fill="#7E4096"/>
<path d="M201.177 60.959H197.934V64.2088H201.177V60.959Z" fill="#7E4096"/>
<path d="M206.555 37.6286L204.648 40.2578L207.273 42.168L209.179 39.5388L206.555 37.6286Z" fill="#7E4096"/>
<path d="M177.265 67.6874L174.641 69.5977L176.547 72.2268L179.171 70.3166L177.265 67.6874Z" fill="#7E4096"/>
<path d="M173.356 20.4471L172.137 22.8438L174.529 24.0649L175.748 21.6682L173.356 20.4471Z" fill="#7E4096"/>
<path d="M187.449 63.906L186.23 66.3027L188.623 67.5239L189.841 65.1272L187.449 63.906Z" fill="#7E4096"/>
<path d="M193.319 60.9566L192.898 63.6133L195.55 64.0345L195.971 61.3779L193.319 60.9566Z" fill="#7E4096"/>
<path d="M159.908 35.1695L157.516 36.3906L158.734 38.7873L161.127 37.5661L159.908 35.1695Z" fill="#7E4096"/>
<path d="M203.283 49.2827L200.891 50.5039L202.109 52.9006L204.502 51.6794L203.283 49.2827Z" fill="#7E4096"/>
<path d="M161.456 55.9019L161.035 58.5586L163.687 58.9798L164.107 56.3232L161.456 55.9019Z" fill="#7E4096"/>
<path d="M195.538 23.9498L192.887 24.3711L193.307 27.0278L195.959 26.6065L195.538 23.9498Z" fill="#7E4096"/>
<path d="M174.541 63.9487L172.148 65.1699L173.367 67.5666L175.759 66.3454L174.541 63.9487Z" fill="#7E4096"/>
<path d="M155.205 8.41543L154.313 14.0547L159.941 14.9489L160.834 9.30961L155.205 8.41543Z" fill="#7E4096"/>
<path d="M202.103 73.0912L201.211 78.7305L206.84 79.6247L207.732 73.9854L202.103 73.0912Z" fill="#7E4096"/>
<path d="M180.998 -0.000286699L176.969 4.03711L180.998 8.07449L185.028 4.03709L180.998 -0.000286699Z" fill="#7E4096"/>
<path d="M147.261 35.2765L143.441 38.0566L146.216 41.8831L150.035 39.103L147.261 35.2765Z" fill="#7E4096"/>
<path d="M214.74 35.2536L211.965 39.0801L215.784 41.8602L218.559 38.0337L214.74 35.2536Z" fill="#7E4096"/>
<path d="M158.838 66.209H154.117V70.9388H158.838V66.209Z" fill="#7E4096"/>
<path d="M176.097 75.0285L172.277 77.8086L175.052 81.6351L178.871 78.855L176.097 75.0285Z" fill="#7E4096"/>
<path d="M197.096 66.1988L196.484 70.0703L200.349 70.6835L200.961 66.8119L197.096 66.1988Z" fill="#7E4096"/>
<path d="M158.224 24.0079L154.359 24.6211L154.971 28.4926L158.836 27.8794L158.224 24.0079Z" fill="#7E4096"/>
<path d="M207.036 59.5391L203.172 60.1523L203.784 64.0239L207.648 63.4107L207.036 59.5391Z" fill="#7E4096"/>
<path d="M191.189 12.6527L187.703 14.4316L189.479 17.9245L192.965 16.1456L191.189 12.6527Z" fill="#7E4096"/>
<path d="M168.069 18.5498L167.066 21.6406L170.151 22.6449L171.154 19.5541L168.069 18.5498Z" fill="#7E4096"/>
<path d="M191.893 65.3799L190.891 68.4707L193.976 69.475L194.978 66.3842L191.893 65.3799Z" fill="#7E4096"/>
<path d="M156.604 53.8897L155.602 56.9805L158.686 57.9847L159.689 54.8939L156.604 53.8897Z" fill="#7E4096"/>
<path d="M201.177 23.8008H197.934V27.0506H201.177V23.8008Z" fill="#7E4096"/>
<path d="M181.004 19.2601L179.105 21.1621L181.004 23.0641L182.902 21.1621L181.004 19.2601Z" fill="#7E4096"/>
<path d="M163.675 29.0162L161.023 29.4375L161.444 32.0942L164.096 31.6729L163.675 29.0162Z" fill="#7E4096"/>
<path d="M158.195 42.1038L156.297 44.0059L158.195 45.9079L160.094 44.0058L158.195 42.1038Z" fill="#7E4096"/>
<path d="M202.094 35.1072L200.875 37.5039L203.267 38.7251L204.486 36.3284L202.094 35.1072Z" fill="#7E4096"/>
<path d="M198.366 29.0425L197.945 31.6992L200.597 32.1205L201.017 29.4638L198.366 29.0425Z" fill="#7E4096"/>
<path d="M168.722 60.9284L166.07 61.3496L166.491 64.0063L169.142 63.585L168.722 60.9284Z" fill="#7E4096"/>
<path d="M188.65 20.4839L186.258 21.7051L187.477 24.1018L189.869 22.8806L188.65 20.4839Z" fill="#7E4096"/>
<path d="M51.6398 128.54V130.96C51.6398 130.98 51.5398 131 51.3198 131H44.1798C40.7198 131 38.4398 129.02 38.4398 125.9C38.4398 122.78 40.6198 120.8 43.8998 120.8C45.5798 120.8 47.2398 121.32 48.2798 121.9V128.54H51.6398ZM43.8398 128.54H45.8998V123.54C45.2798 123.2 44.5398 123.04 43.7198 123.04C42.0398 123.04 40.7998 124 40.7998 125.82C40.7998 127.58 41.9998 128.54 43.8398 128.54ZM40.5198 117.62C40.5198 116.82 41.1598 116.18 41.9798 116.18C42.7598 116.18 43.3998 116.82 43.3998 117.62C43.3998 118.42 42.7598 119.06 41.9798 119.06C41.1598 119.06 40.5198 118.42 40.5198 117.62ZM44.4598 117.62C44.4598 116.82 45.0798 116.18 45.8798 116.18C46.6798 116.18 47.3198 116.82 47.3198 117.62C47.3198 118.42 46.6798 119.06 45.8798 119.06C45.0798 119.06 44.4598 118.42 44.4598 117.62ZM59.8823 128.54H60.2023V130.96C60.2023 130.98 60.1023 131 59.8823 131H59.8623C58.3223 131 56.9023 130.64 55.6023 129.9C54.3223 130.64 52.9023 131 51.3423 131H51.3223C51.1023 131 51.0023 130.98 51.0023 130.96V128.54H51.3223C52.5423 128.54 53.5623 128.32 54.4223 127.9V121H56.8023V127.9C57.6023 128.32 58.7423 128.54 59.8823 128.54ZM52.2423 133.9C52.2423 133.08 52.8823 132.46 53.7023 132.46C54.5023 132.46 55.1223 133.1 55.1223 133.9C55.1223 134.68 54.4823 135.32 53.7023 135.32C52.8823 135.32 52.2423 134.68 52.2423 133.9ZM56.1823 133.9C56.1823 133.08 56.8023 132.46 57.6023 132.46C58.4023 132.46 59.0423 133.08 59.0423 133.9C59.0423 134.68 58.4023 135.32 57.6023 135.32C56.8023 135.32 56.1823 134.68 56.1823 133.9ZM68.437 128.54H68.757V130.96C68.757 130.98 68.657 131 68.437 131H68.417C66.877 131 65.457 130.64 64.157 129.9C62.877 130.64 61.457 131 59.897 131H59.877C59.657 131 59.557 130.98 59.557 130.96V128.54H59.877C61.097 128.54 62.117 128.32 62.977 127.9V121H65.357V127.9C66.157 128.32 67.297 128.54 68.437 128.54ZM62.737 117.76C62.737 116.94 63.377 116.3 64.197 116.3C64.997 116.3 65.637 116.94 65.637 117.76C65.637 118.56 64.997 119.2 64.197 119.2C63.377 119.2 62.737 118.56 62.737 117.76ZM85.8716 125.86V131H68.4316C68.2116 131 68.1116 130.98 68.1116 130.96V128.54H71.5316V116.66H73.9116V124.16C76.3716 121.62 78.4716 120.34 80.8916 120.34C82.3916 120.34 83.5916 120.82 84.4916 121.76C85.4116 122.7 85.8716 124.08 85.8716 125.86ZM73.9116 128.54H83.5116V126.24C83.5116 125.22 83.2716 124.36 82.7916 123.68C82.3316 123 81.5516 122.66 80.4916 122.66C78.4716 122.66 76.4916 124.04 73.9116 127.08V128.54ZM102.031 128.54V130.96C102.031 130.98 101.931 131 101.711 131H98.6513C98.4113 134.58 96.1713 136.2 92.7513 136.2C91.5713 136.2 90.2513 136 89.1913 135.62L89.6113 133.36C90.3913 133.66 91.6513 133.92 92.8313 133.92C95.1313 133.92 96.1513 132.98 96.2913 131H94.5513C90.9313 131 88.7913 129 88.7913 126.12C88.7913 123.18 90.9313 121.18 94.2713 121.18C95.7313 121.18 97.2113 121.54 98.6713 122.28V128.54H102.031ZM94.1713 128.54H96.2913V123.9C95.5913 123.56 94.8713 123.4 94.1313 123.4C92.3913 123.4 91.1513 124.32 91.1513 125.98C91.1513 127.6 92.3913 128.54 94.1713 128.54ZM107.193 116.4V128.92C105.993 130.12 103.913 131 101.733 131H101.713C101.493 131 101.393 130.98 101.393 130.96V128.54H101.713C102.833 128.54 104.013 128.32 104.813 127.9V116.4H107.193ZM111.233 131V116.4H113.613V131H111.233ZM135.019 128.54V130.96C135.019 130.98 134.919 131 134.699 131H127.559C124.099 131 121.819 129.02 121.819 125.9C121.819 122.78 123.999 120.8 127.279 120.8C128.959 120.8 130.619 121.32 131.659 121.9V128.54H135.019ZM127.219 128.54H129.279V123.54C128.659 123.2 127.919 123.04 127.099 123.04C125.419 123.04 124.179 124 124.179 125.82C124.179 127.58 125.379 128.54 127.219 128.54ZM123.899 117.62C123.899 116.82 124.539 116.18 125.359 116.18C126.139 116.18 126.779 116.82 126.779 117.62C126.779 118.42 126.139 119.06 125.359 119.06C124.539 119.06 123.899 118.42 123.899 117.62ZM127.839 117.62C127.839 116.82 128.459 116.18 129.259 116.18C130.059 116.18 130.699 116.82 130.699 117.62C130.699 118.42 130.059 119.06 129.259 119.06C128.459 119.06 127.839 118.42 127.839 117.62ZM142.901 128.54H146.881V131H134.701C134.481 131 134.381 130.98 134.381 130.96V128.54H138.201C137.241 127.68 136.701 126.5 136.701 125.12C136.701 122.28 138.961 120.34 141.941 120.34C143.521 120.34 144.921 120.88 145.981 121.78L144.401 123.48C143.841 122.94 143.021 122.6 142.061 122.6C140.321 122.6 139.101 123.74 139.101 125.42C139.101 127.28 140.581 128.54 142.901 128.54ZM155.619 128.54H155.939V130.96C155.939 130.98 155.839 131 155.619 131H155.599C153.839 131 152.239 130.56 151.099 129.92C150.379 129.54 150.139 129.14 150.139 128.28V116.4H152.519V127.9C153.339 128.32 154.479 128.54 155.619 128.54ZM164.179 128.54H164.499V130.96C164.499 130.98 164.399 131 164.179 131H164.159C162.619 131 161.199 130.64 159.899 129.9C158.619 130.64 157.199 131 155.639 131H155.619C155.399 131 155.299 130.98 155.299 130.96V128.54H155.619C156.839 128.54 157.859 128.32 158.719 127.9V121H161.099V127.9C161.899 128.32 163.039 128.54 164.179 128.54ZM158.479 117.76C158.479 116.94 159.119 116.3 159.939 116.3C160.739 116.3 161.379 116.94 161.379 117.76C161.379 118.56 160.739 119.2 159.939 119.2C159.119 119.2 158.479 118.56 158.479 117.76ZM184.854 128.54V130.96C184.854 130.98 184.754 131 184.534 131H164.174C163.954 131 163.854 130.98 163.854 130.96V128.54H167.274V121.76H169.654V124.16C172.114 121.62 174.214 120.34 176.634 120.34C178.134 120.34 179.334 120.82 180.234 121.76C181.154 122.7 181.614 124.08 181.614 125.86V128.54H184.854ZM169.654 128.54H179.254V126.24C179.254 125.22 179.014 124.36 178.534 123.68C178.074 123 177.314 122.66 176.254 122.66C174.234 122.66 172.274 124.04 169.654 127.08V128.54ZM190.005 116.4V128.92C188.805 130.12 186.725 131 184.545 131H184.525C184.305 131 184.205 130.98 184.205 130.96V128.54H184.525C185.645 128.54 186.825 128.32 187.625 127.9V116.4H190.005ZM194.045 131V116.4H196.425V131H194.045ZM212.171 128.54H212.491V130.96C212.491 130.98 212.391 131 212.171 131H212.151C211.051 131 210.011 130.8 209.031 130.38C209.011 134.4 207.011 136.2 203.591 136.2C203.091 136.2 202.611 136.16 202.191 136.1L202.651 133.72C202.951 133.76 203.231 133.78 203.511 133.78C205.771 133.78 206.651 132.68 206.651 130.36V121.26H209.031V127.8C209.811 128.3 210.851 128.54 212.171 128.54ZM217.642 121V129.54C217.042 129.96 216.242 130.3 215.262 130.58C214.282 130.86 213.242 131 212.182 131H212.162C211.942 131 211.842 130.98 211.842 130.96V128.54H212.162C213.382 128.54 214.562 128.34 215.262 128.02V121H217.642ZM212.222 133.9C212.222 133.08 212.862 132.46 213.682 132.46C214.482 132.46 215.102 133.1 215.102 133.9C215.102 134.68 214.462 135.32 213.682 135.32C212.862 135.32 212.222 134.68 212.222 133.9ZM216.162 133.9C216.162 133.08 216.782 132.46 217.582 132.46C218.382 132.46 219.022 133.08 219.022 133.9C219.022 134.68 218.382 135.32 217.582 135.32C216.782 135.32 216.162 134.68 216.162 133.9ZM233.867 128.54V130.96C233.867 130.98 233.767 131 233.547 131H230.487C230.247 134.58 228.007 136.2 224.587 136.2C223.407 136.2 222.087 136 221.027 135.62L221.447 133.36C222.227 133.66 223.487 133.92 224.667 133.92C226.967 133.92 227.987 132.98 228.127 131H226.387C222.767 131 220.627 129 220.627 126.12C220.627 123.18 222.767 121.18 226.107 121.18C227.567 121.18 229.047 121.54 230.507 122.28V128.54H233.867ZM226.007 128.54H228.127V123.9C227.427 123.56 226.707 123.4 225.967 123.4C224.227 123.4 222.987 124.32 222.987 125.98C222.987 127.6 224.227 128.54 226.007 128.54ZM254.229 128.54V130.96C254.229 130.98 254.129 131 253.909 131H233.549C233.329 131 233.229 130.98 233.229 130.96V128.54H236.649V116.66H239.029V124.16C241.489 121.62 243.589 120.34 246.009 120.34C247.509 120.34 248.709 120.82 249.609 121.76C250.529 122.7 250.989 124.08 250.989 125.86V128.54H254.229ZM239.029 128.54H248.629V126.24C248.629 125.22 248.389 124.36 247.909 123.68C247.449 123 246.669 122.66 245.609 122.66C243.589 122.66 241.609 124.04 239.029 127.08V128.54ZM259.38 121V129.54C258.78 129.96 257.98 130.3 257 130.58C256.02 130.86 254.98 131 253.92 131H253.9C253.68 131 253.58 130.98 253.58 130.96V128.54H253.9C255.12 128.54 256.3 128.34 257 128.02V121H259.38ZM254.72 117.76C254.72 116.96 255.36 116.32 256.18 116.32C256.96 116.32 257.6 116.96 257.6 117.76C257.6 118.56 256.96 119.2 256.18 119.2C255.36 119.2 254.72 118.56 254.72 117.76ZM258.66 117.76C258.66 116.96 259.28 116.32 260.08 116.32C260.88 116.32 261.52 116.96 261.52 117.76C261.52 118.56 260.88 119.2 260.08 119.2C259.28 119.2 258.66 118.56 258.66 117.76ZM280.986 128.54V130.96C280.986 130.98 280.886 131 280.666 131H271.906C270.386 131 269.366 131.8 269.366 133.1C269.366 134.4 270.366 135.24 271.966 135.24H275.026V137.68H272.426C269.006 137.68 266.886 135.98 266.886 133.12C266.886 130.24 268.966 128.58 272.266 128.58H276.086C275.346 127.76 275.026 127.04 274.646 125.68C273.966 123.34 273.686 122.68 271.906 122.58C271.086 122.58 270.346 122.8 269.366 123.42L268.086 121.78C269.346 120.82 270.666 120.34 272.046 120.34C274.926 120.38 275.886 121.62 276.786 124.76C277.186 126.3 277.626 127.5 278.486 128.32C278.666 128.5 278.946 128.54 279.486 128.54H280.986ZM274.406 133.58C274.406 132.78 275.046 132.14 275.846 132.14C276.626 132.14 277.286 132.78 277.286 133.58C277.286 134.38 276.626 135.02 275.846 135.02C275.046 135.02 274.406 134.38 274.406 133.58ZM293.238 126.8C293.238 129.8 291.118 132 288.178 132C286.558 132 285.138 131.34 284.198 130.16C283.118 130.72 281.938 131 280.678 131H280.658C280.438 131 280.338 130.98 280.338 130.96V128.54H280.658C281.678 128.54 282.538 128.38 283.238 128.08C283.138 127.7 283.098 127.28 283.098 126.8C283.098 123.8 285.238 121.6 288.178 121.6C291.118 121.6 293.238 123.8 293.238 126.8ZM290.878 126.8C290.878 125.12 289.798 123.9 288.138 123.9C286.538 123.9 285.458 125.12 285.458 126.8C285.458 128.48 286.538 129.7 288.138 129.7C289.798 129.7 290.878 128.48 290.878 126.8ZM301.928 128.54H302.248V130.96C302.248 130.98 302.148 131 301.928 131H301.908C300.148 131 298.548 130.56 297.408 129.92C296.688 129.54 296.448 129.14 296.448 128.28V116.4H298.828V127.9C299.648 128.32 300.788 128.54 301.928 128.54ZM307.408 121V129.54C306.808 129.96 306.008 130.3 305.028 130.58C304.048 130.86 303.008 131 301.948 131H301.928C301.708 131 301.608 130.98 301.608 130.96V128.54H301.928C303.148 128.54 304.328 128.34 305.028 128.02V121H307.408ZM304.688 117.76C304.688 116.94 305.328 116.3 306.148 116.3C306.948 116.3 307.588 116.94 307.588 117.76C307.588 118.56 306.948 119.2 306.148 119.2C305.328 119.2 304.688 118.56 304.688 117.76ZM317.464 128.54H317.784V130.96C317.784 130.98 317.684 131 317.464 131H317.444C316.344 131 315.304 130.8 314.324 130.38C314.304 134.4 312.304 136.2 308.884 136.2C308.384 136.2 307.904 136.16 307.484 136.1L307.944 133.72C308.244 133.76 308.524 133.78 308.804 133.78C311.064 133.78 311.944 132.68 311.944 130.36V121.26H314.324V127.8C315.104 128.3 316.144 128.54 317.464 128.54ZM322.935 121V129.54C322.335 129.96 321.535 130.3 320.555 130.58C319.575 130.86 318.535 131 317.475 131H317.455C317.235 131 317.135 130.98 317.135 130.96V128.54H317.455C318.675 128.54 319.855 128.34 320.555 128.02V121H322.935ZM319.475 133.9C319.475 133.08 320.115 132.46 320.935 132.46C321.735 132.46 322.375 133.08 322.375 133.9C322.375 134.72 321.735 135.36 320.935 135.36C320.115 135.36 319.475 134.72 319.475 133.9ZM92.9874 156.54V158.96C92.9874 158.98 92.8874 159 92.6674 159H85.5274C82.0674 159 79.7874 157.02 79.7874 153.9C79.7874 150.78 81.9674 148.8 85.2474 148.8C86.9274 148.8 88.5874 149.32 89.6274 149.9V156.54H92.9874ZM85.1874 156.54H87.2474V151.54C86.6274 151.2 85.8874 151.04 85.0674 151.04C83.3874 151.04 82.1474 152 82.1474 153.82C82.1474 155.58 83.3474 156.54 85.1874 156.54ZM81.8674 145.62C81.8674 144.82 82.5074 144.18 83.3274 144.18C84.1074 144.18 84.7474 144.82 84.7474 145.62C84.7474 146.42 84.1074 147.06 83.3274 147.06C82.5074 147.06 81.8674 146.42 81.8674 145.62ZM85.8074 145.62C85.8074 144.82 86.4274 144.18 87.2274 144.18C88.0274 144.18 88.6674 144.82 88.6674 145.62C88.6674 146.42 88.0274 147.06 87.2274 147.06C86.4274 147.06 85.8074 146.42 85.8074 145.62ZM101.23 156.54H101.55V158.96C101.55 158.98 101.45 159 101.23 159H101.21C99.6699 159 98.2499 158.64 96.9499 157.9C95.6699 158.64 94.2499 159 92.6899 159H92.6699C92.4499 159 92.3499 158.98 92.3499 158.96V156.54H92.6699C93.8899 156.54 94.9099 156.32 95.7699 155.9V149H98.1499V155.9C98.9499 156.32 100.09 156.54 101.23 156.54ZM93.5899 161.9C93.5899 161.08 94.2299 160.46 95.0499 160.46C95.8499 160.46 96.4699 161.1 96.4699 161.9C96.4699 162.68 95.8299 163.32 95.0499 163.32C94.2299 163.32 93.5899 162.68 93.5899 161.9ZM97.5299 161.9C97.5299 161.08 98.1499 160.46 98.9499 160.46C99.7499 160.46 100.39 161.08 100.39 161.9C100.39 162.68 99.7499 163.32 98.9499 163.32C98.1499 163.32 97.5299 162.68 97.5299 161.9ZM109.785 156.54H110.105V158.96C110.105 158.98 110.005 159 109.785 159H109.765C108.225 159 106.805 158.64 105.505 157.9C104.225 158.64 102.805 159 101.245 159H101.225C101.005 159 100.905 158.98 100.905 158.96V156.54H101.225C102.445 156.54 103.465 156.32 104.325 155.9V149H106.705V155.9C107.505 156.32 108.645 156.54 109.785 156.54ZM102.145 145.76C102.145 144.96 102.785 144.32 103.605 144.32C104.385 144.32 105.025 144.96 105.025 145.76C105.025 146.56 104.385 147.2 103.605 147.2C102.785 147.2 102.145 146.56 102.145 145.76ZM106.085 145.76C106.085 144.96 106.705 144.32 107.505 144.32C108.305 144.32 108.945 144.96 108.945 145.76C108.945 146.56 108.305 147.2 107.505 147.2C106.705 147.2 106.085 146.56 106.085 145.76ZM131.179 156.54H131.499V158.96C131.499 158.98 131.399 159 131.179 159H131.159C129.759 159 128.419 158.66 127.159 158C126.199 158.64 124.999 159 123.739 159C122.559 159 121.499 158.64 120.559 157.94C119.619 158.64 118.539 159 117.339 159C115.979 159 114.819 158.54 114.019 157.92C113.079 158.54 111.539 159 109.799 159H109.779C109.559 159 109.459 158.98 109.459 158.96V156.54H109.779C110.919 156.54 111.959 156.32 112.879 155.88V151.46H115.259V155.92C115.859 156.34 116.539 156.54 117.279 156.54C118.019 156.54 118.679 156.34 119.299 155.94V151.46H121.679V155.94C122.299 156.34 122.959 156.54 123.699 156.54C124.439 156.54 125.119 156.34 125.719 155.92V150.56H128.099V155.9C128.899 156.32 130.039 156.54 131.179 156.54ZM143.086 156.9L142.446 159H131.186C130.966 159 130.866 158.98 130.866 158.96V156.54H139.786C139.086 155.74 138.766 155 138.386 153.7C137.706 151.32 137.406 150.7 135.626 150.58C134.806 150.58 134.046 150.8 133.066 151.42L131.786 149.78C133.046 148.82 134.366 148.34 135.766 148.34C138.686 148.4 139.606 149.64 140.506 152.72C141.086 154.9 141.706 156.28 143.086 156.9ZM135.386 161.9C135.386 161.08 136.026 160.46 136.846 160.46C137.646 160.46 138.286 161.08 138.286 161.9C138.286 162.72 137.646 163.36 136.846 163.36C136.026 163.36 135.386 162.72 135.386 161.9ZM158.574 156.54V158.96C158.574 158.98 158.474 159 158.254 159H155.194C154.954 162.58 152.714 164.2 149.294 164.2C148.114 164.2 146.794 164 145.734 163.62L146.154 161.36C146.934 161.66 148.194 161.92 149.374 161.92C151.674 161.92 152.694 160.98 152.834 159H151.094C147.474 159 145.334 157 145.334 154.12C145.334 151.18 147.474 149.18 150.814 149.18C152.274 149.18 153.754 149.54 155.214 150.28V156.54H158.574ZM150.714 156.54H152.834V151.9C152.134 151.56 151.414 151.4 150.674 151.4C148.934 151.4 147.694 152.32 147.694 153.98C147.694 155.6 148.934 156.54 150.714 156.54ZM166.816 156.54H167.136V158.96C167.136 158.98 167.036 159 166.816 159H166.796C165.256 159 163.836 158.64 162.536 157.9C161.256 158.64 159.836 159 158.276 159H158.256C158.036 159 157.936 158.98 157.936 158.96V156.54H158.256C159.476 156.54 160.496 156.32 161.356 155.9V144.4H163.736V155.9C164.536 156.32 165.676 156.54 166.816 156.54ZM172.291 144.4V156.92C171.091 158.12 169.011 159 166.831 159H166.811C166.591 159 166.491 158.98 166.491 158.96V156.54H166.811C167.931 156.54 169.111 156.32 169.911 155.9V144.4H172.291ZM176.331 159V144.4H178.711V159H176.331ZM187.296 154.18C187.296 153.1 187.476 151.94 187.856 150.7L190.036 151.1C189.776 152 189.656 152.8 189.656 153.48C189.656 155.52 190.856 156.54 193.256 156.54H201.336C203.016 156.54 204.376 156.3 205.096 155.96V149H207.476V157.78C206.136 158.5 203.856 159 200.996 159H193.096C189.416 159 187.296 157.68 187.296 154.18ZM194.016 148.22C194.016 147.42 194.656 146.78 195.476 146.78C196.256 146.78 196.896 147.42 196.896 148.22C196.896 149.02 196.256 149.66 195.476 149.66C194.656 149.66 194.016 149.02 194.016 148.22ZM197.956 148.22C197.956 147.42 198.576 146.78 199.376 146.78C200.176 146.78 200.816 147.42 200.816 148.22C200.816 149.02 200.176 149.66 199.376 149.66C198.576 149.66 197.956 149.02 197.956 148.22ZM216.771 156.54H217.091V158.96C217.091 158.98 216.991 159 216.771 159H216.751C214.991 159 213.391 158.56 212.251 157.92C211.531 157.54 211.291 157.14 211.291 156.28V144.4H213.671V155.9C214.491 156.32 215.631 156.54 216.771 156.54ZM229.351 154.8C229.351 157.8 227.231 160 224.291 160C222.671 160 221.251 159.34 220.311 158.16C219.231 158.72 218.051 159 216.791 159H216.771C216.551 159 216.451 158.98 216.451 158.96V156.54H216.771C217.791 156.54 218.651 156.38 219.351 156.08C219.251 155.7 219.211 155.28 219.211 154.8C219.211 151.8 221.351 149.6 224.291 149.6C227.231 149.6 229.351 151.8 229.351 154.8ZM226.991 154.8C226.991 153.12 225.911 151.9 224.251 151.9C222.651 151.9 221.571 153.12 221.571 154.8C221.571 156.48 222.651 157.7 224.251 157.7C225.911 157.7 226.991 156.48 226.991 154.8ZM243.761 156.54V158.96C243.761 158.98 243.661 159 243.441 159H231.501V156.54H238.321V153.78C238.321 151.94 237.561 151.4 235.561 151.4H233.361V149.02H235.021C239.261 149.02 240.701 150.26 240.701 153.68V156.54H243.761ZM256.932 156.54V158.96C256.932 158.98 256.832 159 256.612 159H243.432C243.212 159 243.112 158.98 243.112 158.96V156.54H252.012C251.292 155.74 250.992 155.02 250.612 153.68C249.892 151.3 249.692 150.68 247.852 150.58C247.032 150.58 246.292 150.8 245.312 151.42L244.032 149.78C245.272 148.82 246.592 148.34 248.012 148.34C250.912 148.4 251.832 149.6 252.732 152.76C253.192 154.38 253.612 155.5 254.412 156.3C254.632 156.48 254.992 156.54 255.652 156.54H256.932ZM246.752 145.4C246.752 144.58 247.392 143.94 248.212 143.94C249.012 143.94 249.652 144.58 249.652 145.4C249.652 146.2 249.012 146.84 248.212 146.84C247.392 146.84 246.752 146.2 246.752 145.4ZM262.095 144.4V156.92C260.895 158.12 258.815 159 256.635 159H256.615C256.395 159 256.295 158.98 256.295 158.96V156.54H256.615C257.735 156.54 258.915 156.32 259.715 155.9V144.4H262.095ZM266.135 159V144.4H268.515V159H266.135ZM281.601 150.28V158.3C281.601 162.38 279.341 164.2 275.681 164.2C274.501 164.2 273.181 164 272.121 163.62L272.541 161.36C273.321 161.66 274.581 161.92 275.761 161.92C278.061 161.92 279.081 160.98 279.221 159H277.481C273.861 159 271.721 157 271.721 154.12C271.721 151.18 273.861 149.18 277.201 149.18C278.661 149.18 280.141 149.54 281.601 150.28ZM277.101 156.54H279.221V151.9C278.521 151.56 277.801 151.4 277.061 151.4C275.321 151.4 274.081 152.32 274.081 153.98C274.081 155.6 275.321 156.54 277.101 156.54Z" fill="#111827"/>
<path d="M180 262C180 262.552 180.448 263 181 263C181.552 263 182 262.552 182 262H180ZM180 198V262H182V198H180Z" fill="url(#paint0_linear_15611_9556)"/>
<circle cx="181" cy="198" r="6" fill="#7E4096"/>
<defs>
<linearGradient id="paint0_linear_15611_9556" x1="181.5" y1="198" x2="181.5" y2="262" gradientUnits="userSpaceOnUse">
<stop stop-color="#7E4096"/>
<stop offset="1" stop-color="#4472C4"/>
</linearGradient>
</defs>
</svg>
