<svg width="362" height="263" viewBox="0 0 362 263" fill="none" xmlns="http://www.w3.org/2000/svg">
<path d="M199.791 48.8508C199.336 48.5882 198.599 48.2144 197.588 47.8911C195.649 47.2748 193.618 47.1233 191.557 47.4465C190.698 47.588 189.819 47.8102 188.95 48.1234C188.92 48.1335 188.88 48.1436 188.849 48.1638C188.799 48.1841 188.748 48.2043 188.698 48.2245C188.263 48.3861 187.809 48.5882 187.314 48.8407C186.93 49.0428 186.536 49.255 186.142 49.4873C185.455 49.9016 184.727 50.3865 183.99 50.9422C183.222 45.8402 183.545 41.0615 183.767 38.4347C185.141 39.8491 184.566 42.8194 184.252 43.5771C184.192 43.7387 184.252 43.9105 184.394 44.0014C184.535 44.0924 184.727 44.0722 184.838 43.9408H184.848C186.637 41.8091 186.647 39.5258 186.263 37.97C186.768 38.7176 187.061 39.5662 187.142 40.5563C187.172 40.9705 187.172 41.405 187.142 41.8798C187.142 41.9808 187.122 42.0818 187.122 42.1829C187.122 42.294 187.162 42.4052 187.243 42.4759C187.324 42.5466 187.435 42.5668 187.536 42.5466C187.667 42.5264 187.738 42.4355 187.768 42.3849V42.3648C188.688 40.5866 188.677 38.4751 187.768 36.7172C187.586 36.3636 187.374 36.0302 187.122 35.7069C187.182 35.7473 187.233 35.7877 187.283 35.818C187.94 36.303 188.455 37.0001 188.778 37.8285C189.011 38.4347 189.132 39.0914 189.132 39.6874C189.132 39.8592 189.253 40.0108 189.425 40.031C189.597 40.0512 189.759 39.9501 189.809 39.7784C190.254 38.1215 190.102 36.6768 189.364 35.4745C188.981 34.8582 188.425 34.3026 187.758 33.8782C188.182 33.9894 188.566 34.1611 188.9 34.3834C189.506 34.7976 189.799 35.2826 189.87 35.4139C189.95 35.5655 190.112 35.6261 190.264 35.5856C190.415 35.5351 190.516 35.3937 190.516 35.2321C190.425 34.2723 190.001 33.4539 189.294 32.8376C188.819 32.4234 188.223 32.1001 187.566 31.9284C187.162 31.8172 186.748 31.7566 186.334 31.7465C186.212 31.7465 186.101 31.7465 185.99 31.7465C186.142 31.6657 186.293 31.6051 186.424 31.5748C186.758 31.4737 187.112 31.4333 187.455 31.4535C187.768 31.4737 188.051 31.5344 188.273 31.6455C188.425 31.7162 188.597 31.6657 188.698 31.5344C188.799 31.403 188.789 31.2212 188.677 31.0999C188.374 30.7564 188.021 30.4635 187.627 30.2412C187.223 30.0088 186.788 29.8775 186.354 29.827C185.293 29.7057 184.303 30.1099 183.586 30.9383C183.535 30.8373 183.485 30.7261 183.434 30.615C183.151 29.9482 182.939 29.2511 182.828 28.6045C182.798 28.4327 182.656 28.3115 182.484 28.3115C182.313 28.3115 182.171 28.4327 182.141 28.6045C182.03 29.2612 181.818 29.9583 181.535 30.6251C181.484 30.7362 181.444 30.8373 181.393 30.9383C180.807 30.2614 180.039 29.8674 179.191 29.8067C178.13 29.736 177.079 30.2008 176.301 31.0898C176.19 31.2111 176.19 31.3929 176.281 31.5243C176.372 31.6556 176.554 31.7061 176.705 31.6354C177.261 31.3626 178.221 31.3323 179.009 31.7465C177.726 31.6657 176.221 32.1203 175.281 33.2418C174.806 33.7974 174.533 34.4642 174.463 35.2118C174.442 35.3735 174.543 35.525 174.695 35.5756C174.857 35.6261 175.028 35.5655 175.109 35.4139C175.18 35.2927 175.372 34.9694 175.746 34.636C176.2 34.2318 176.726 33.9995 177.251 33.858C176.433 34.3733 175.635 35.1714 175.23 36.2727C174.847 37.3032 174.826 38.4751 175.18 39.7582C175.22 39.9299 175.382 40.031 175.554 40.0209C175.725 40.0007 175.857 39.8491 175.857 39.6774C175.857 39.6774 175.857 39.6572 175.857 39.6471C175.857 39.6268 175.857 39.6066 175.857 39.5864C175.857 38.6671 176.16 37.6972 176.645 36.9294C176.968 36.4242 177.372 35.9999 177.847 35.6867C177.14 36.606 176.705 37.6265 176.564 38.7277C176.352 40.3846 176.867 41.708 177.19 42.3445C177.261 42.486 177.433 42.5668 177.595 42.5264C177.756 42.486 177.857 42.3344 177.857 42.1728C177.776 41.314 177.625 39.546 178.716 37.9295C178.615 38.3438 178.544 38.8085 178.514 39.3036C178.443 40.9806 178.999 42.5769 180.12 43.9105C180.231 44.0418 180.423 44.0722 180.575 43.9711C180.716 43.8802 180.777 43.6983 180.706 43.5468C180.393 42.7891 179.827 39.8188 181.191 38.4145C181.403 41.0413 181.737 45.8099 180.969 50.922C179.231 49.6389 177.696 48.7498 176.261 48.2043C176.059 48.1335 175.857 48.0527 175.624 47.982C173.998 47.4465 172.351 47.2142 170.724 47.2849C168.461 47.3859 166.724 48.0325 165.653 48.568C165.481 48.6589 165.309 48.7397 165.158 48.8306C164.996 48.9317 164.925 49.1337 165.006 49.3055C165.087 49.4772 165.279 49.5681 165.461 49.5075C165.602 49.4671 165.754 49.4267 165.885 49.3863C167.502 48.9317 169.118 48.77 170.704 48.9115C172.25 49.0428 173.826 49.4772 175.382 50.1743C177.079 50.9422 178.827 52.0636 180.706 53.5891C180.05 54.1751 179.423 54.7409 178.817 55.2864C177.423 56.5493 176.221 57.6505 175.412 58.1355C175.018 57.7516 174.453 57.5899 173.897 57.7112C173.281 57.8526 172.786 58.3274 172.654 58.9437C172.533 59.4792 172.674 60.0651 172.998 60.3985C173.705 61.1057 174.604 61.2472 175.655 60.8027C177.009 60.2369 178.585 58.7417 180.423 57.0039C180.949 56.5089 181.484 56.0037 182.05 55.4784C182.201 55.3369 182.343 55.2157 182.474 55.0945C182.585 55.1955 182.697 55.2965 182.808 55.3976L182.899 55.4784C183.464 55.9936 184 56.5089 184.525 57.0039C185.071 57.5192 185.586 58.0041 186.081 58.4588C186.505 58.8528 186.889 59.1761 187.243 59.4691C187.879 59.9944 188.415 60.3682 188.9 60.6208C189.455 60.9138 189.971 61.0653 190.435 61.0653C190.951 61.0653 191.405 60.8835 191.809 60.5299L191.83 60.5097C191.83 60.5097 191.9 60.4491 191.941 60.4086C192.203 60.146 192.405 59.4691 192.284 58.9538C192.214 58.6406 192.052 58.3577 191.809 58.1355C191.587 57.9233 191.324 57.7819 191.031 57.7212C190.466 57.6 189.91 57.7617 189.516 58.1456C189.425 58.0951 189.324 58.0243 189.223 57.9536C188.829 57.6808 188.344 57.2868 187.647 56.6806C187.334 56.4079 186.98 56.0846 186.505 55.6502L186.111 55.2965C185.505 54.7409 184.879 54.1751 184.222 53.5891C185 52.9526 185.738 52.397 186.475 51.902C186.879 51.6292 187.243 51.3968 187.607 51.1846C188.122 50.8815 188.647 50.5987 189.183 50.336C190.011 49.942 190.85 49.6187 191.678 49.3762C193.577 48.8307 195.507 48.7094 197.417 49.0226C198.104 49.1337 198.791 49.2954 199.467 49.5075C199.649 49.5681 199.851 49.4772 199.922 49.3055C200.003 49.1337 199.932 48.9317 199.771 48.8306" fill="#8F969B"/>
<mask id="mask0_15611_9761" style="mask-type:luminance" maskUnits="userSpaceOnUse" x="182" y="16" width="5" height="5">
<path d="M182.885 16.5118L182.383 20.3281L186.199 20.8306L186.702 17.0143L182.885 16.5118Z" fill="white"/>
</mask>
<g mask="url(#mask0_15611_9761)">
<path d="M186.035 14.9592L180.82 17.2559L183.117 22.4706L188.332 20.1738L186.035 14.9592Z" fill="url(#paint0_linear_15611_9761)"/>
</g>
<mask id="mask1_15611_9761" style="mask-type:luminance" maskUnits="userSpaceOnUse" x="188" y="18" width="6" height="6">
<path d="M190.252 18.0382L188.742 21.5791L192.283 23.0887L193.793 19.5478L190.252 18.0382Z" fill="white"/>
</mask>
<g mask="url(#mask1_15611_9761)">
<path d="M192.966 16.1747L186.863 18.8623L189.551 24.9646L195.653 22.277L192.966 16.1747Z" fill="url(#paint1_linear_15611_9761)"/>
</g>
<mask id="mask2_15611_9761" style="mask-type:luminance" maskUnits="userSpaceOnUse" x="136" y="0" width="44" height="43">
<path d="M179.099 0.164379C167.956 0.315923 157.459 4.74104 149.538 12.6214C141.617 20.5017 137.142 30.9683 136.93 42.1018V42.4352H141.597V42.1119C141.809 32.2211 145.8 22.9264 152.842 15.925C159.884 8.92366 169.209 4.98349 179.11 4.83195H179.433V0.154297H179.099V0.164379Z" fill="white"/>
</mask>
<g mask="url(#mask2_15611_9761)">
<path d="M172.523 -15.4978L121.328 7.0498L143.831 58.1429L195.026 35.5953L172.523 -15.4978Z" fill="url(#paint2_linear_15611_9761)"/>
</g>
<mask id="mask3_15611_9761" style="mask-type:luminance" maskUnits="userSpaceOnUse" x="182" y="8" width="7" height="7">
<path d="M182.989 8.31957L182.324 13.6123L187.617 14.2772L188.282 8.98444L182.989 8.31957Z" fill="white"/>
</mask>
<g mask="url(#mask3_15611_9761)">
<path d="M187.34 6.19337L180.156 9.35742L183.32 16.5415L190.504 13.3775L187.34 6.19337Z" fill="url(#paint3_linear_15611_9761)"/>
</g>
<mask id="mask4_15611_9761" style="mask-type:luminance" maskUnits="userSpaceOnUse" x="143" y="45" width="10" height="8">
<path d="M143.266 45.8811C143.306 47.0227 143.508 49.6293 144.397 52.9835C146.933 52.2763 150.035 51.4175 152.54 50.7305C151.954 48.3664 151.843 46.5479 151.823 45.6689L143.266 45.8912V45.8811Z" fill="white"/>
</mask>
<g mask="url(#mask4_15611_9761)">
<path d="M151.021 42.2721L140.555 46.8818L144.761 56.4329L155.228 51.8232L151.021 42.2721Z" fill="url(#paint4_linear_15611_9761)"/>
</g>
<mask id="mask5_15611_9761" style="mask-type:luminance" maskUnits="userSpaceOnUse" x="145" y="27" width="8" height="16">
<path d="M148.599 28.0183C146.588 32.3019 145.497 36.8685 145.355 41.6068C145.355 41.6068 145.355 41.7886 145.355 41.92C145.355 41.9907 145.355 42.0614 145.355 42.1119V42.4453H150.023V42.122C150.023 42.0715 150.023 42.0008 150.023 41.93V41.8997C150.023 41.7785 150.023 41.6472 150.023 41.6068C150.154 37.6363 151.064 33.8073 152.721 30.2005L152.852 29.9176L148.73 27.7051L148.578 28.0183H148.599Z" fill="white"/>
</mask>
<g mask="url(#mask5_15611_9761)">
<path d="M151.639 24.9594L139.906 30.127L146.564 45.2441L158.297 40.0765L151.639 24.9594Z" fill="url(#paint5_linear_15611_9761)"/>
</g>
<mask id="mask6_15611_9761" style="mask-type:luminance" maskUnits="userSpaceOnUse" x="149" y="13" width="15" height="16">
<path d="M160.723 13.9752C158.884 15.1976 157.146 16.612 155.57 18.1679C153.368 20.3501 151.458 22.8152 149.902 25.5127L149.73 25.8057L153.852 28.0183L154.014 27.7455C155.358 25.442 156.994 23.3305 158.884 21.4715C160.217 20.1582 161.672 18.966 163.218 17.9355L163.481 17.7537L161.005 13.7832L160.723 13.965V13.9752Z" fill="white"/>
</mask>
<g mask="url(#mask6_15611_9761)">
<path d="M161.255 8.73827L144.492 16.1211L151.977 33.1151L168.74 25.7323L161.255 8.73827Z" fill="url(#paint6_linear_15611_9761)"/>
</g>
<mask id="mask7_15611_9761" style="mask-type:luminance" maskUnits="userSpaceOnUse" x="210" y="16" width="9" height="9">
<path d="M215.258 16.3902L210.266 19.917L213.792 24.9092L218.785 21.3824L215.258 16.3902Z" fill="white"/>
</mask>
<g mask="url(#mask7_15611_9761)">
<path d="M217.406 13.3028L207.125 17.8311L211.649 28.1033L221.931 23.5751L217.406 13.3028Z" fill="url(#paint7_linear_15611_9761)"/>
</g>
<mask id="mask8_15611_9761" style="mask-type:luminance" maskUnits="userSpaceOnUse" x="194" y="21" width="7" height="6">
<path d="M197.128 21.5727L194.695 24.5557L197.678 26.9885L200.111 24.0056L197.128 21.5727Z" fill="white"/>
</mask>
<g mask="url(#mask8_15611_9761)">
<path d="M199.22 19.5927L192.684 22.4717L195.563 29.0085L202.099 26.1295L199.22 19.5927Z" fill="url(#paint8_linear_15611_9761)"/>
</g>
<mask id="mask9_15611_9761" style="mask-type:luminance" maskUnits="userSpaceOnUse" x="204" y="21" width="8" height="8">
<path d="M208.65 21.2063L204.293 24.2842L207.371 28.641L211.728 25.5631L208.65 21.2063Z" fill="white"/>
</mask>
<g mask="url(#mask9_15611_9761)">
<path d="M210.51 18.5179L201.551 22.4639L205.497 31.4232L214.456 27.4773L210.51 18.5179Z" fill="url(#paint9_linear_15611_9761)"/>
</g>
<mask id="mask10_15611_9761" style="mask-type:luminance" maskUnits="userSpaceOnUse" x="199" y="26" width="6" height="6">
<path d="M202.468 26.4436L199.324 28.6641L201.545 31.8083L204.689 29.5878L202.468 26.4436Z" fill="white"/>
</mask>
<g mask="url(#mask10_15611_9761)">
<path d="M203.825 24.4736L197.344 27.3281L200.198 33.8095L206.68 30.955L203.825 24.4736Z" fill="url(#paint10_linear_15611_9761)"/>
</g>
<mask id="mask11_15611_9761" style="mask-type:luminance" maskUnits="userSpaceOnUse" x="145" y="54" width="12" height="10">
<path d="M145.891 57.4587C146.79 59.6713 147.901 61.803 149.204 63.8034L156.175 59.1964C155.62 58.3074 155.165 57.5193 154.771 56.7313C154.428 56.0443 154.114 55.3573 153.821 54.6299C151.366 55.4987 148.426 56.5495 145.891 57.4486" fill="white"/>
</mask>
<g mask="url(#mask11_15611_9761)">
<path d="M154.504 50.8815L142.512 56.1631L147.561 67.628L159.553 62.3465L154.504 50.8815Z" fill="url(#paint11_linear_15611_9761)"/>
</g>
<mask id="mask12_15611_9761" style="mask-type:luminance" maskUnits="userSpaceOnUse" x="190" y="10" width="8" height="8">
<path d="M192.688 10.2602L190.637 15.1846L195.561 17.2354L197.612 12.311L192.688 10.2602Z" fill="white"/>
</mask>
<g mask="url(#mask12_15611_9761)">
<path d="M196.455 7.69976L188.051 11.4014L191.752 19.8059L200.157 16.1043L196.455 7.69976Z" fill="url(#paint12_linear_15611_9761)"/>
</g>
<mask id="mask13_15611_9761" style="mask-type:luminance" maskUnits="userSpaceOnUse" x="203" y="8" width="9" height="9">
<path d="M203.195 12.7225L207.833 16.693L210.48 13.6116L211.813 12.0558L207.166 8.0752L203.195 12.7225Z" fill="white"/>
</mask>
<g mask="url(#mask13_15611_9761)">
<path d="M210.413 4.92565L200.012 9.50684L204.593 19.9085L214.995 15.3273L210.413 4.92565Z" fill="url(#paint13_linear_15611_9761)"/>
</g>
<mask id="mask14_15611_9761" style="mask-type:luminance" maskUnits="userSpaceOnUse" x="193" y="2" width="9" height="9">
<path d="M195.799 2.35409L193.32 7.94141L198.908 10.4197L201.386 4.83239L195.799 2.35409Z" fill="white"/>
</mask>
<g mask="url(#mask14_15611_9761)">
<path d="M200.067 -0.581777L190.34 3.70215L194.624 13.4289L204.351 9.14494L200.067 -0.581777Z" fill="url(#paint14_linear_15611_9761)"/>
</g>
<mask id="mask15_15611_9761" style="mask-type:luminance" maskUnits="userSpaceOnUse" x="198" y="15" width="8" height="8">
<path d="M201.74 15.0052L198.27 19.0566L202.321 22.5267L205.791 18.4752L201.74 15.0052Z" fill="white"/>
</mask>
<g mask="url(#mask15_15611_9761)">
<path d="M204.57 12.2659L195.5 16.2607L199.495 25.331L208.565 21.3362L204.57 12.2659Z" fill="url(#paint15_linear_15611_9761)"/>
</g>
<mask id="mask16_15611_9761" style="mask-type:luminance" maskUnits="userSpaceOnUse" x="182" y="0" width="8" height="7">
<path d="M183.692 -0.000166422L182.93 6.06445L188.994 6.8263L189.756 0.761676L183.692 -0.000166422Z" fill="white"/>
</mask>
<g mask="url(#mask16_15611_9761)">
<path d="M188.641 -2.48964L180.402 1.13867L184.031 9.37681L192.269 5.7485L188.641 -2.48964Z" fill="url(#paint16_linear_15611_9761)"/>
</g>
<mask id="mask17_15611_9761" style="mask-type:luminance" maskUnits="userSpaceOnUse" x="156" y="76" width="12" height="9">
<path d="M156.743 79.7359L156.359 80.2915L156.642 80.4734C159.36 82.2515 162.199 83.7266 165.078 84.848L165.391 84.9692L167.048 80.5542L166.765 80.433C164.149 79.261 161.684 77.8971 159.431 76.3918L159.158 76.21L156.743 79.7258V79.7359Z" fill="white"/>
</mask>
<g mask="url(#mask17_15611_9761)">
<path d="M165.294 72.3137L153.117 77.6768L158.085 88.9568L170.262 83.5937L165.294 72.3137Z" fill="url(#paint17_linear_15611_9761)"/>
</g>
<mask id="mask18_15611_9761" style="mask-type:luminance" maskUnits="userSpaceOnUse" x="160" y="68" width="10" height="11">
<path d="M160.73 75.2391C162.65 76.4919 164.741 77.6537 166.964 78.6741L169.661 71.501C168.106 70.6423 166.62 69.7027 165.226 68.6924L160.73 75.2391Z" fill="white"/>
</mask>
<g mask="url(#mask18_15611_9761)">
<path d="M168.207 65.415L157.047 70.3301L162.178 81.9799L173.338 77.0648L168.207 65.415Z" fill="url(#paint18_linear_15611_9761)"/>
</g>
<mask id="mask19_15611_9761" style="mask-type:luminance" maskUnits="userSpaceOnUse" x="146" y="68" width="11" height="11">
<path d="M146.366 70.9666L146.568 71.2293C148.578 73.755 150.821 76.0181 153.215 77.968L153.468 78.1802L156.539 74.3107L156.287 74.1087C154.094 72.3507 152.104 70.3908 150.356 68.2893L150.154 68.0469L146.355 70.9666H146.366Z" fill="white"/>
</mask>
<g mask="url(#mask19_15611_9761)">
<path d="M154.879 64.313L142.609 69.7168L148.005 81.9677L160.274 76.5639L154.879 64.313Z" fill="url(#paint19_linear_15611_9761)"/>
</g>
<mask id="mask20_15611_9761" style="mask-type:luminance" maskUnits="userSpaceOnUse" x="168" y="79" width="39" height="9">
<path d="M191.578 82.5244C190.214 83.3629 188.718 83.8983 187.152 84.1105C185.627 84.3126 184.02 84.2116 182.374 83.8175C181.717 83.6559 181.05 83.5346 180.404 83.4134C179.282 83.2012 178.12 82.9891 177.06 82.5951C174.766 81.7464 172.109 81.5141 169.755 81.9586L169.573 81.9889L168.199 85.8684L168.523 85.9695C172.766 87.3131 177.191 88.0002 181.656 88.0002C190.385 88.0002 198.801 85.4138 205.994 80.524L206.631 80.0895L205.873 79.9279C204.54 79.6551 203.206 79.5137 201.883 79.5137C198.306 79.5137 194.8 80.524 191.578 82.5143" fill="white"/>
</mask>
<g mask="url(#mask20_15611_9761)">
<path d="M200.37 65.376L165.051 80.9316L174.425 102.216L209.744 86.6601L200.37 65.376Z" fill="url(#paint20_linear_15611_9761)"/>
</g>
<mask id="mask21_15611_9761" style="mask-type:luminance" maskUnits="userSpaceOnUse" x="153" y="44" width="6" height="8">
<path d="M153.518 44.88V45.1932C153.498 45.5872 153.457 47.7189 154.225 50.6993L154.306 51.0125L154.629 50.9317C155.569 50.6892 156.367 50.4669 156.953 50.2952C157.357 50.184 157.68 50.0931 157.893 50.0325L158.206 49.9517L158.125 49.6385C157.761 48.1533 157.539 46.6278 157.448 45.1023L157.428 44.7891L153.508 44.8901L153.518 44.88Z" fill="white"/>
</mask>
<g mask="url(#mask21_15611_9761)">
<path d="M157.434 43.0563L151.156 45.8213L154.227 52.7927L160.505 50.0277L157.434 43.0563Z" fill="url(#paint21_linear_15611_9761)"/>
</g>
<mask id="mask22_15611_9761" style="mask-type:luminance" maskUnits="userSpaceOnUse" x="139" y="57" width="10" height="12">
<path d="M140.881 58.4583C140.346 58.6503 139.992 58.7715 139.891 58.8119L139.578 58.9231L139.699 59.2362C140.77 62.1156 142.205 64.9848 143.963 67.7632L144.145 68.046L148.176 65.3889L147.994 65.1162C146.67 63.1461 145.539 61.0649 144.619 58.9231C144.448 58.5189 144.276 58.1047 144.104 57.6602L143.993 57.3672L140.902 58.4684L140.881 58.4583Z" fill="white"/>
</mask>
<g mask="url(#mask22_15611_9761)">
<path d="M146.769 54.2075L135.637 59.1104L140.975 71.2318L152.107 66.3289L146.769 54.2075Z" fill="url(#paint22_linear_15611_9761)"/>
</g>
<mask id="mask23_15611_9761" style="mask-type:luminance" maskUnits="userSpaceOnUse" x="173" y="63" width="47" height="11">
<path d="M199.164 63.7325C196.77 63.9346 194.416 64.7226 192.173 66.0764C191.739 66.3391 191.274 66.5411 190.789 66.7634C190.536 66.8745 190.284 66.9857 190.031 67.1069C187.516 68.3294 184.869 68.6628 182.151 68.1172L181.797 68.0465C180.373 67.7636 178.898 67.4605 177.483 67.0463C176.776 66.8442 176.059 66.6725 175.331 66.5513L175.059 66.5007L173.422 71.1279L173.806 71.2087C174.018 71.2491 174.21 71.2896 174.412 71.3502C175.109 71.5421 175.816 71.6835 176.503 71.825C177.19 71.9664 177.898 72.118 178.585 72.2998C180.524 72.8353 182.414 73.1081 184.222 73.1081C184.848 73.1081 185.455 73.0778 186.061 73.007C188.546 72.7444 190.94 71.9159 193.183 70.5621C193.507 70.3702 193.86 70.2085 194.224 70.0469C194.466 69.9357 194.719 69.8246 194.972 69.7034C196.447 68.9558 197.972 68.5011 199.508 68.3496C201.033 68.2081 202.62 68.3496 204.226 68.8042C204.59 68.9052 204.943 69.0063 205.307 69.1073C206.863 69.5518 208.479 70.0064 210.096 70.2792C211.369 70.4914 214.036 70.5823 215.986 70.643H216.157L216.258 70.5015C217.249 69.1073 218.138 67.6828 218.926 66.2683L219.198 65.7733H218.633C216.117 65.8541 212.995 65.8845 211.884 65.8238C210.035 65.7228 208.166 65.349 206.479 64.7529C204.418 64.0154 202.387 63.6416 200.437 63.6416C200.013 63.6416 199.589 63.6618 199.164 63.6921" fill="white"/>
</mask>
<g mask="url(#mask23_15611_9761)">
<path d="M211.754 46.8187L169.926 65.2412L180.847 90.0388L222.676 71.6164L211.754 46.8187Z" fill="url(#paint23_linear_15611_9761)"/>
</g>
<mask id="mask24_15611_9761" style="mask-type:luminance" maskUnits="userSpaceOnUse" x="170" y="71" width="44" height="11">
<path d="M199.819 71.6735C196.99 71.9261 194.172 72.896 191.454 74.5832C190.09 75.4218 188.605 75.9572 187.029 76.1694C185.503 76.3714 183.897 76.2704 182.24 75.8764C180.088 75.351 178.431 74.9671 176.875 74.6438C175.572 74.371 174.067 74.078 172.581 74.0983H172.359L170.551 79.2104L171.106 79.1093C172.632 78.8366 174.067 78.9073 175.521 79.3215C176.38 79.5741 177.279 79.7762 178.138 79.9681C178.775 80.1095 179.441 80.2611 180.088 80.4328C181.674 80.8471 183.25 81.0592 184.766 81.0592C185.261 81.0592 185.756 81.039 186.241 80.9885C188.281 80.8066 190.272 80.2207 192.181 79.2508C192.656 79.0083 193.141 78.786 193.606 78.5537C194.172 78.2809 194.747 78.0081 195.313 77.7151C196.869 76.9069 198.475 76.4118 200.102 76.2603C201.718 76.0987 203.396 76.2603 205.083 76.7553C206.053 77.0281 207.012 77.2908 208.033 77.5737C208.437 77.6848 208.841 77.796 209.265 77.9071L209.427 77.9475L209.558 77.8364C209.942 77.5131 210.276 77.2201 210.589 76.9473L213.094 74.0579L212.559 73.9467C212.044 73.8356 211.549 73.7447 211.084 73.6638C210.134 73.4921 209.316 73.3506 208.548 73.0577C206.093 72.108 203.658 71.623 201.314 71.623C200.819 71.623 200.324 71.6433 199.829 71.6837" fill="white"/>
</mask>
<g mask="url(#mask24_15611_9761)">
<path d="M206.169 55.9437L167.059 73.1689L177.451 96.7646L216.561 79.5393L206.169 55.9437Z" fill="url(#paint24_linear_15611_9761)"/>
</g>
<mask id="mask25_15611_9761" style="mask-type:luminance" maskUnits="userSpaceOnUse" x="201" y="25" width="25" height="40">
<path d="M216.198 27.7157L216.339 28.0087C219.269 34.1412 220.825 40.4455 220.966 46.7396L217.39 42.9712C217.168 38.5461 216.158 34.2625 214.39 30.2415C214.349 30.1404 214.299 30.0394 214.258 29.9384C214.147 29.6959 214.036 29.4332 213.894 29.1908L213.743 28.9281L209.338 31.0901L209.54 31.5245C210.318 33.1612 212.116 36.9599 212.712 42.4761L208.611 45.7091C209.419 40.9203 208.984 36.7478 207.307 33.3127V33.2926C207.176 33.0905 207.065 32.8278 206.954 32.5753L206.812 32.2621L202.438 34.3635L202.579 34.6565C205.004 39.6372 205.539 45.3757 204.095 50.801C203.953 51.3162 203.802 51.9831 203.62 52.7509C203.094 54.9634 202.387 57.9943 201.64 59.2572L201.438 59.6007L203.104 60.1866L203.246 59.9644C203.246 59.9644 205.65 56.0444 207.338 50.8515L212.834 48.4672C212.531 52.761 211.399 57.0951 209.469 61.3586L209.318 61.7021L212.632 62.6821L212.763 62.4598C213.026 62.0153 213.137 61.8031 213.44 61.1969C214.773 58.5197 215.723 56.0343 216.329 53.5894C216.693 52.175 216.966 50.6899 217.158 49.1845L220.815 51.2961C220.482 55.0544 219.673 58.065 219.057 59.9341C218.37 61.9951 217.754 63.167 217.744 63.1771L217.532 63.561L220.047 64.0763L220.158 63.8641C220.158 63.8641 221.674 61.0353 222.785 58.3277C223.23 57.2366 223.553 56.2869 223.745 55.5292C226.119 46.1132 225.28 36.0305 221.371 27.1297C221.189 26.6852 220.997 26.2811 220.795 25.877L220.653 25.584L216.198 27.6854V27.7157Z" fill="white"/>
</mask>
<g mask="url(#mask25_15611_9761)">
<path d="M222.097 16.5237L187.23 31.8799L205.437 73.2185L240.304 57.8624L222.097 16.5237Z" fill="url(#paint25_linear_15611_9761)"/>
</g>
<mask id="mask26_15611_9761" style="mask-type:luminance" maskUnits="userSpaceOnUse" x="136" y="45" width="7" height="11">
<path d="M136.979 45.3048V45.6281C137.08 48.9722 137.726 52.2355 138.282 54.7006L138.454 55.3977L138.777 55.3169C138.919 55.2765 139.272 55.1855 139.889 55.0138C140.565 54.8218 141.505 54.5592 142.596 54.2561L142.909 54.1651L142.818 53.852C141.687 49.74 141.555 46.6586 141.545 45.517V45.1836L136.969 45.3048H136.979Z" fill="white"/>
</mask>
<g mask="url(#mask26_15611_9761)">
<path d="M141.941 43.0239L133.203 46.8721L137.935 57.6158L146.672 53.7676L141.941 43.0239Z" fill="url(#paint26_linear_15611_9761)"/>
</g>
<mask id="mask27_15611_9761" style="mask-type:luminance" maskUnits="userSpaceOnUse" x="155" y="52" width="7" height="7">
<path d="M158.592 52.1746C158.268 52.2858 157.228 52.6494 155.409 53.296L155.086 53.4072L155.207 53.7204C155.874 55.4278 156.733 57.0847 157.743 58.6607L157.925 58.9335L161.208 56.7715L161.037 56.4987C160.087 54.963 159.44 53.6496 158.996 52.3767L158.885 52.0635L158.582 52.1645L158.592 52.1746Z" fill="white"/>
</mask>
<g mask="url(#mask27_15611_9761)">
<path d="M160.212 49.8312L152.547 53.207L156.077 61.2233L163.742 57.8474L160.212 49.8312Z" fill="url(#paint27_linear_15611_9761)"/>
</g>
<mask id="mask28_15611_9761" style="mask-type:luminance" maskUnits="userSpaceOnUse" x="159" y="58" width="8" height="8">
<path d="M159.398 60.954L159.611 61.2166C160.732 62.6007 162.005 63.9242 163.399 65.1467L163.662 65.3791L166.127 62.2775L165.885 62.0754C164.632 61.0146 163.571 59.9133 162.722 58.8222L162.52 58.5596L159.398 60.954Z" fill="white"/>
</mask>
<g mask="url(#mask28_15611_9761)">
<path d="M165.021 56.1077L156.875 59.6953L160.479 67.8779L168.625 64.2904L165.021 56.1077Z" fill="url(#paint28_linear_15611_9761)"/>
</g>
<mask id="mask29_15611_9761" style="mask-type:luminance" maskUnits="userSpaceOnUse" x="152" y="62" width="11" height="11">
<path d="M152.004 67.5616C153.499 69.3296 155.186 70.9966 157.035 72.512L162.077 66.1673C160.793 65.0257 159.622 63.8032 158.561 62.5303L152.004 67.5716V67.5616Z" fill="white"/>
</mask>
<g mask="url(#mask29_15611_9761)">
<path d="M160.434 58.8421L148.313 64.1807L153.631 76.2559L165.752 70.9172L160.434 58.8421Z" fill="url(#paint29_linear_15611_9761)"/>
</g>
<mask id="mask30_15611_9761" style="mask-type:luminance" maskUnits="userSpaceOnUse" x="162" y="8" width="18" height="9">
<path d="M179.098 8.25718C176.299 8.3077 173.511 8.6916 170.813 9.41902C168.146 10.1363 165.56 11.1769 163.135 12.5105L162.832 12.6722L165.307 16.6426L165.58 16.4911C169.712 14.2482 174.39 13.0157 179.108 12.9247H179.431V8.24707H179.098V8.25718Z" fill="white"/>
</mask>
<g mask="url(#mask30_15611_9761)">
<path d="M176.732 2.15111L159.738 9.63574L165.529 22.7835L182.523 15.2988L176.732 2.15111Z" fill="url(#paint30_linear_15611_9761)"/>
</g>
<mask id="mask31_15611_9761" style="mask-type:luminance" maskUnits="userSpaceOnUse" x="153" y="16" width="27" height="27">
<path d="M179.098 16.3392C172.268 16.4908 165.833 19.2286 160.973 24.0579C156.114 28.877 153.325 35.2823 153.113 42.1018V42.4352H157.781V42.122C157.993 36.535 160.296 31.2916 164.277 27.3514C168.258 23.4113 173.531 21.1684 179.118 21.0169H179.442V16.3291H179.108L179.098 16.3392Z" fill="white"/>
</mask>
<g mask="url(#mask31_15611_9761)">
<path d="M175.147 6.65113L143.461 20.6064L157.367 52.1813L189.053 38.226L175.147 6.65113Z" fill="url(#paint31_linear_15611_9761)"/>
</g>
<mask id="mask32_15611_9761" style="mask-type:luminance" maskUnits="userSpaceOnUse" x="165" y="63" width="8" height="8">
<path d="M165.561 66.8942L165.813 67.0862C167.278 68.1672 168.875 69.1775 170.572 70.1069L170.905 70.2888L172.522 65.9849L172.229 65.8637C170.572 65.1666 169.269 64.4998 168.117 63.742L167.844 63.5703L165.551 66.9144L165.561 66.8942Z" fill="white"/>
</mask>
<g mask="url(#mask32_15611_9761)">
<path d="M171.386 61.0178L163.074 64.6787L166.686 72.8799L174.998 69.219L171.386 61.0178Z" fill="url(#paint32_linear_15611_9761)"/>
</g>
<path d="M51.9334 128.54V130.96C51.9334 130.98 51.8334 131 51.6134 131H42.2334C40.5334 131 39.5334 131.76 39.5334 133.1C39.5334 134.44 40.5334 135.24 42.2734 135.24H45.2334V137.68H42.7134C39.0934 137.68 37.0734 135.98 37.0734 133.24C37.0734 130.78 38.7734 129.26 41.7534 128.84L38.3334 123.5L38.7334 121.66C40.4734 120.76 42.2334 120.32 44.0334 120.32C47.0934 120.32 49.0734 121.68 49.0734 124.22C49.0734 125.92 48.0934 127.6 46.6534 128.54H51.9334ZM43.9534 122.62C42.9734 122.62 41.9934 122.84 41.0534 123.3L43.7334 128.16C45.4734 127.5 46.6934 126.24 46.6934 124.74C46.6934 123.38 45.6534 122.62 43.9534 122.62ZM64.1855 126.8C64.1855 129.8 62.0655 132 59.1255 132C57.5055 132 56.0855 131.34 55.1455 130.16C54.0655 130.72 52.8855 131 51.6255 131H51.6055C51.3855 131 51.2855 130.98 51.2855 130.96V128.54H51.6055C52.6255 128.54 53.4855 128.38 54.1855 128.08C54.0855 127.7 54.0455 127.28 54.0455 126.8C54.0455 123.8 56.1855 121.6 59.1255 121.6C62.0655 121.6 64.1855 123.8 64.1855 126.8ZM61.8255 126.8C61.8255 125.12 60.7455 123.9 59.0855 123.9C57.4855 123.9 56.4055 125.12 56.4055 126.8C56.4055 128.48 57.4855 129.7 59.0855 129.7C60.7455 129.7 61.8255 128.48 61.8255 126.8ZM93.995 128.54H94.315V130.96C94.315 130.98 94.215 131 93.995 131C90.855 131 89.755 130.24 88.955 127.58L88.175 124.9H86.095C85.035 124.9 84.395 125.4 84.395 126.26C84.395 126.44 84.435 126.64 84.495 126.88L86.595 134C85.715 134.54 84.575 135.04 83.155 135.5C81.735 135.96 80.335 136.2 78.955 136.2C74.495 136.2 71.855 133.72 71.855 129.8C71.855 128.82 71.995 127.82 72.255 126.8L74.435 127.22C74.255 127.84 74.175 128.54 74.175 129.3C74.175 132.18 75.915 133.76 79.135 133.76C79.955 133.76 80.815 133.66 81.715 133.46C82.615 133.28 83.355 133.06 83.935 132.8L82.215 127.12C82.075 126.66 81.995 126.2 81.995 125.74C81.995 123.82 83.495 122.64 85.595 122.64H89.855L91.035 126.66C91.435 128.12 91.995 128.54 93.995 128.54ZM75.395 139.5C75.395 138.68 76.035 138.06 76.855 138.06C77.655 138.06 78.275 138.7 78.275 139.5C78.275 140.28 77.635 140.92 76.855 140.92C76.035 140.92 75.395 140.28 75.395 139.5ZM79.335 139.5C79.335 138.68 79.955 138.06 80.755 138.06C81.555 138.06 82.195 138.68 82.195 139.5C82.195 140.28 81.555 140.92 80.755 140.92C79.955 140.92 79.335 140.28 79.335 139.5ZM102.548 128.54H102.868V130.96C102.868 130.98 102.768 131 102.548 131H102.528C100.988 131 99.5683 130.64 98.2683 129.9C96.9883 130.64 95.5683 131 94.0083 131H93.9883C93.7683 131 93.6683 130.98 93.6683 130.96V128.54H93.9883C95.2083 128.54 96.2283 128.32 97.0883 127.9V121H99.4683V127.9C100.268 128.32 101.408 128.54 102.548 128.54ZM94.9083 117.76C94.9083 116.96 95.5483 116.32 96.3683 116.32C97.1483 116.32 97.7883 116.96 97.7883 117.76C97.7883 118.56 97.1483 119.2 96.3683 119.2C95.5483 119.2 94.9083 118.56 94.9083 117.76ZM98.8483 117.76C98.8483 116.96 99.4683 116.32 100.268 116.32C101.068 116.32 101.708 116.96 101.708 117.76C101.708 118.56 101.068 119.2 100.268 119.2C99.4683 119.2 98.8483 118.56 98.8483 117.76ZM123.943 128.54H124.263V130.96C124.263 130.98 124.163 131 123.943 131H123.923C122.523 131 121.183 130.66 119.923 130C118.963 130.64 117.763 131 116.503 131C115.323 131 114.263 130.64 113.323 129.94C112.383 130.64 111.303 131 110.103 131C108.743 131 107.583 130.54 106.783 129.92C105.843 130.54 104.303 131 102.563 131H102.543C102.323 131 102.223 130.98 102.223 130.96V128.54H102.543C103.683 128.54 104.723 128.32 105.643 127.88V123.46H108.023V127.92C108.623 128.34 109.303 128.54 110.043 128.54C110.783 128.54 111.443 128.34 112.063 127.94V123.46H114.443V127.94C115.063 128.34 115.723 128.54 116.463 128.54C117.203 128.54 117.883 128.34 118.483 127.92V122.56H120.863V127.9C121.663 128.32 122.803 128.54 123.943 128.54ZM135.849 128.9L135.209 131H123.949C123.729 131 123.629 130.98 123.629 130.96V128.54H132.549C131.849 127.74 131.529 127 131.149 125.7C130.469 123.32 130.169 122.7 128.389 122.58C127.569 122.58 126.809 122.8 125.829 123.42L124.549 121.78C125.809 120.82 127.129 120.34 128.529 120.34C131.449 120.4 132.369 121.64 133.269 124.72C133.849 126.9 134.469 128.28 135.849 128.9ZM128.149 133.9C128.149 133.08 128.789 132.46 129.609 132.46C130.409 132.46 131.049 133.08 131.049 133.9C131.049 134.72 130.409 135.36 129.609 135.36C128.789 135.36 128.149 134.72 128.149 133.9ZM151.338 128.54V130.96C151.338 130.98 151.238 131 151.018 131H147.958C147.718 134.58 145.478 136.2 142.058 136.2C140.878 136.2 139.558 136 138.498 135.62L138.918 133.36C139.698 133.66 140.958 133.92 142.138 133.92C144.438 133.92 145.458 132.98 145.598 131H143.858C140.238 131 138.098 129 138.098 126.12C138.098 123.18 140.238 121.18 143.578 121.18C145.038 121.18 146.518 121.54 147.978 122.28V128.54H151.338ZM143.478 128.54H145.598V123.9C144.898 123.56 144.178 123.4 143.438 123.4C141.698 123.4 140.458 124.32 140.458 125.98C140.458 127.6 141.698 128.54 143.478 128.54ZM159.58 128.54H159.9V130.96C159.9 130.98 159.8 131 159.58 131H159.56C158.02 131 156.6 130.64 155.3 129.9C154.02 130.64 152.6 131 151.04 131H151.02C150.8 131 150.7 130.98 150.7 130.96V128.54H151.02C152.24 128.54 153.26 128.32 154.12 127.9V116.4H156.5V127.9C157.3 128.32 158.44 128.54 159.58 128.54ZM165.054 116.4V128.92C163.854 130.12 161.774 131 159.594 131H159.574C159.354 131 159.254 130.98 159.254 130.96V128.54H159.574C160.694 128.54 161.874 128.32 162.674 127.9V116.4H165.054ZM169.094 131V116.4H171.474V131H169.094ZM192.88 128.54V130.96C192.88 130.98 192.78 131 192.56 131H185.42C181.96 131 179.68 129.02 179.68 125.9C179.68 122.78 181.86 120.8 185.14 120.8C186.82 120.8 188.48 121.32 189.52 121.9V128.54H192.88ZM185.08 128.54H187.14V123.54C186.52 123.2 185.78 123.04 184.96 123.04C183.28 123.04 182.04 124 182.04 125.82C182.04 127.58 183.24 128.54 185.08 128.54ZM181.76 117.62C181.76 116.82 182.4 116.18 183.22 116.18C184 116.18 184.64 116.82 184.64 117.62C184.64 118.42 184 119.06 183.22 119.06C182.4 119.06 181.76 118.42 181.76 117.62ZM185.7 117.62C185.7 116.82 186.32 116.18 187.12 116.18C187.92 116.18 188.56 116.82 188.56 117.62C188.56 118.42 187.92 119.06 187.12 119.06C186.32 119.06 185.7 118.42 185.7 117.62ZM203.003 127.04V129.7C202.223 130.12 201.263 130.44 200.123 130.66C198.983 130.88 197.863 131 196.743 131H192.563C192.342 131 192.242 130.98 192.242 130.96V128.54H197.003C198.423 128.54 199.763 128.26 200.623 127.88V127.12C200.523 125.36 199.983 124.98 196.923 124.08L194.483 123.42L193.943 121.52L201.143 115.96L202.383 117.5L196.783 121.76L198.023 122.1C201.583 123.12 202.923 124.02 203.003 127.04ZM206.594 131V116.4H208.974V131H206.594ZM218.724 128.54H219.044V130.96C219.044 130.98 218.944 131 218.724 131H218.704C217.604 131 216.564 130.8 215.584 130.38C215.564 134.4 213.564 136.2 210.144 136.2C209.644 136.2 209.164 136.16 208.744 136.1L209.204 133.72C209.504 133.76 209.784 133.78 210.064 133.78C212.324 133.78 213.204 132.68 213.204 130.36V121.26H215.584V127.8C216.364 128.3 217.404 128.54 218.724 128.54ZM240.115 128.54H240.435V130.96C240.435 130.98 240.335 131 240.115 131H240.095C238.695 131 237.355 130.66 236.095 130C235.135 130.64 233.935 131 232.675 131C231.495 131 230.435 130.64 229.495 129.94C228.555 130.64 227.475 131 226.275 131C224.915 131 223.755 130.54 222.955 129.92C222.015 130.54 220.475 131 218.735 131H218.715C218.495 131 218.395 130.98 218.395 130.96V128.54H218.715C219.855 128.54 220.895 128.32 221.815 127.88V123.46H224.195V127.92C224.795 128.34 225.475 128.54 226.215 128.54C226.955 128.54 227.615 128.34 228.235 127.94V123.46H230.615V127.94C231.235 128.34 231.895 128.54 232.635 128.54C233.375 128.54 234.055 128.34 234.655 127.92V122.56H237.035V127.9C237.835 128.32 238.975 128.54 240.115 128.54ZM228.095 117.2C228.095 116.48 228.675 115.9 229.415 115.9C230.115 115.9 230.715 116.48 230.715 117.2C230.715 117.92 230.135 118.52 229.415 118.52C228.675 118.52 228.095 117.94 228.095 117.2ZM226.295 120C226.295 119.26 226.875 118.68 227.615 118.68C228.335 118.68 228.915 119.26 228.915 120C228.915 120.72 228.335 121.3 227.615 121.3C226.875 121.3 226.295 120.72 226.295 120ZM229.915 120C229.915 119.26 230.515 118.68 231.255 118.68C231.975 118.68 232.535 119.26 232.535 120C232.535 120.74 231.975 121.3 231.255 121.3C230.515 121.3 229.915 120.74 229.915 120ZM245.601 116.4V128.92C244.401 130.12 242.321 131 240.141 131H240.121C239.901 131 239.801 130.98 239.801 130.96V128.54H240.121C241.241 128.54 242.421 128.32 243.221 127.9V116.4H245.601ZM249.641 131V116.4H252.021V131H249.641ZM290.227 128.54H290.547V130.96C290.547 130.98 290.447 131 290.227 131H290.207C288.807 131 287.527 130.66 286.347 129.98C285.407 130.68 284.187 131.08 282.967 131.08C281.767 131.08 280.667 130.66 279.787 130C278.867 130.72 277.827 131.08 276.667 131.08C275.707 131.08 274.847 130.82 274.107 130.28V134.34C271.947 135.58 269.747 136.2 267.527 136.2C263.147 136.2 260.527 133.72 260.527 129.78C260.527 128.8 260.667 127.8 260.927 126.8L263.107 127.2C262.927 127.92 262.847 128.62 262.847 129.32C262.847 132.18 264.567 133.76 267.767 133.76C269.187 133.76 270.567 133.46 271.907 132.84V123.46H274.267V128C274.887 128.42 275.567 128.62 276.307 128.62C277.047 128.62 277.707 128.42 278.327 128.02V123.46H280.687V128.02C281.307 128.42 281.987 128.62 282.727 128.62C283.467 128.62 284.147 128.42 284.747 128V122.56H287.107V122.76H287.127V127.9C287.987 128.32 289.007 128.54 290.227 128.54ZM298.779 128.54H299.099V130.96C299.099 130.98 298.999 131 298.779 131H298.759C297.219 131 295.799 130.64 294.499 129.9C293.219 130.64 291.799 131 290.239 131H290.219C289.999 131 289.899 130.98 289.899 130.96V128.54H290.219C291.439 128.54 292.459 128.32 293.319 127.9V116.4H295.699V127.9C296.499 128.32 297.639 128.54 298.779 128.54ZM312.273 128.54V130.96C312.273 130.98 312.173 131 311.953 131H298.773C298.553 131 298.453 130.98 298.453 130.96V128.54H307.353C306.633 127.74 306.333 127.02 305.953 125.68C305.233 123.3 305.033 122.68 303.193 122.58C302.373 122.58 301.633 122.8 300.653 123.42L299.373 121.78C300.613 120.82 301.933 120.34 303.353 120.34C306.253 120.4 307.173 121.6 308.073 124.76C308.533 126.38 308.953 127.5 309.753 128.3C309.973 128.48 310.333 128.54 310.993 128.54H312.273ZM302.933 133.9C302.933 133.08 303.573 132.46 304.393 132.46C305.193 132.46 305.833 133.08 305.833 133.9C305.833 134.72 305.193 135.36 304.393 135.36C303.573 135.36 302.933 134.72 302.933 133.9ZM324.537 126.8C324.537 129.8 322.417 132 319.477 132C317.857 132 316.437 131.34 315.497 130.16C314.417 130.72 313.237 131 311.977 131H311.957C311.737 131 311.637 130.98 311.637 130.96V128.54H311.957C312.977 128.54 313.837 128.38 314.537 128.08C314.437 127.7 314.397 127.28 314.397 126.8C314.397 123.8 316.537 121.6 319.477 121.6C322.417 121.6 324.537 123.8 324.537 126.8ZM322.177 126.8C322.177 125.12 321.097 123.9 319.437 123.9C317.837 123.9 316.757 125.12 316.757 126.8C316.757 128.48 317.837 129.7 319.437 129.7C321.097 129.7 322.177 128.48 322.177 126.8ZM138.708 153.86V159H126.728V162.2C124.488 163.54 122.248 164.2 120.008 164.2C115.588 164.2 112.988 161.72 112.988 157.76C112.988 156.78 113.128 155.8 113.388 154.8L115.568 155.2C115.388 155.92 115.308 156.62 115.308 157.32C115.308 160.18 117.028 161.76 120.228 161.76C121.648 161.76 123.028 161.46 124.368 160.84V149.76H126.728V152.2C129.148 149.64 131.288 148.34 133.708 148.34C136.728 148.34 138.708 150.28 138.708 153.86ZM126.728 156.54H136.328V154.24C136.328 153.22 136.088 152.36 135.628 151.68C135.168 151 134.388 150.66 133.328 150.66C131.308 150.66 129.348 152.06 126.728 155.1V156.54ZM147.934 156.54H148.254V158.96C148.254 158.98 148.154 159 147.934 159H147.914C146.154 159 144.554 158.56 143.414 157.92C142.694 157.54 142.454 157.14 142.454 156.28V144.4H144.834V155.9C145.654 156.32 146.794 156.54 147.934 156.54ZM161.434 156.54V158.96C161.434 158.98 161.334 159 161.114 159H147.934C147.714 159 147.614 158.98 147.614 158.96V156.54H156.514C155.794 155.74 155.494 155.02 155.114 153.68C154.394 151.3 154.194 150.68 152.354 150.58C151.534 150.58 150.794 150.8 149.814 151.42L148.534 149.78C149.774 148.82 151.094 148.34 152.514 148.34C155.414 148.4 156.334 149.6 157.234 152.76C157.694 154.38 158.114 155.5 158.914 156.3C159.134 156.48 159.494 156.54 160.154 156.54H161.434ZM151.254 145.4C151.254 144.58 151.894 143.94 152.714 143.94C153.514 143.94 154.154 144.58 154.154 145.4C154.154 146.2 153.514 146.84 152.714 146.84C151.894 146.84 151.254 146.2 151.254 145.4ZM166.597 144.4V156.92C165.397 158.12 163.317 159 161.137 159H161.117C160.897 159 160.797 158.98 160.797 158.96V156.54H161.117C162.237 156.54 163.417 156.32 164.217 155.9V144.4H166.597ZM170.637 159V144.4H173.017V159H170.637ZM189.923 156.54H192.063V159H185.483C183.743 159 182.743 159.76 182.743 161.1C182.743 162.44 183.763 163.24 185.523 163.24H188.503V165.68H185.923C182.343 165.68 180.243 163.98 180.243 161.24C180.243 158.58 182.163 157.04 185.423 156.8C184.203 155.92 183.523 154.64 183.523 153.12C183.523 150.28 185.863 148.34 188.963 148.34C190.623 148.34 192.043 148.88 193.163 149.78L191.583 151.48C190.963 150.94 190.103 150.6 189.083 150.6C187.243 150.6 185.923 151.74 185.923 153.42C185.923 155.28 187.503 156.54 189.923 156.54ZM201.918 156.54H202.238V158.96C202.238 158.98 202.138 159 201.918 159H201.898C200.138 159 198.538 158.56 197.398 157.92C196.678 157.54 196.438 157.14 196.438 156.28V144.4H198.818V155.9C199.638 156.32 200.778 156.54 201.918 156.54ZM222.598 156.54V158.96C222.598 158.98 222.498 159 222.278 159H201.918C201.698 159 201.598 158.98 201.598 158.96V156.54H205.018V144.66H207.398V152.16C209.858 149.62 211.958 148.34 214.378 148.34C215.878 148.34 217.078 148.82 217.978 149.76C218.898 150.7 219.358 152.08 219.358 153.86V156.54H222.598ZM207.398 156.54H216.998V154.24C216.998 153.22 216.758 152.36 216.278 151.68C215.818 151 215.038 150.66 213.978 150.66C211.958 150.66 209.978 152.04 207.398 155.08V156.54ZM236.57 156.54V159H222.27V156.54H226.37C225.03 155.48 224.35 154.14 224.35 152.56C224.35 149.82 226.47 147.98 229.43 147.98C232.41 147.98 234.49 149.82 234.49 152.56C234.49 154.14 233.81 155.48 232.47 156.54H236.57ZM226.73 152.86C226.73 153.64 226.99 154.34 227.53 154.92C228.07 155.5 228.71 155.94 229.43 156.22C230.13 155.92 230.75 155.5 231.29 154.92C231.83 154.34 232.11 153.64 232.11 152.86C232.11 151.28 231.01 150.26 229.43 150.26C227.85 150.26 226.73 151.32 226.73 152.86ZM226.01 144.8C226.01 144 226.65 143.36 227.47 143.36C228.25 143.36 228.89 144 228.89 144.8C228.89 145.6 228.25 146.24 227.47 146.24C226.65 146.24 226.01 145.6 226.01 144.8ZM229.95 144.8C229.95 144 230.57 143.36 231.37 143.36C232.17 143.36 232.81 144 232.81 144.8C232.81 145.6 232.17 146.24 231.37 146.24C230.57 146.24 229.95 145.6 229.95 144.8ZM242.046 144.4V156.92C240.846 158.12 238.766 159 236.586 159H236.566C236.346 159 236.246 158.98 236.246 158.96V156.54H236.566C237.686 156.54 238.866 156.32 239.666 155.9V144.4H242.046ZM246.086 159V144.4H248.466V159H246.086Z" fill="#111827"/>
<path d="M180 262C180 262.552 180.448 263 181 263C181.552 263 182 262.552 182 262H180ZM180 198V262H182V198H180Z" fill="url(#paint33_linear_15611_9761)"/>
<circle cx="181" cy="198" r="6" fill="#119DA9"/>
<defs>
<linearGradient id="paint0_linear_15611_9761" x1="207.835" y1="8.61158" x2="138.075" y2="39.3361" gradientUnits="userSpaceOnUse">
<stop stop-color="#6544AE"/>
<stop offset="0.4" stop-color="#4C86AA"/>
<stop offset="1" stop-color="#68B7A5"/>
</linearGradient>
<linearGradient id="paint1_linear_15611_9761" x1="209.756" y1="12.5636" x2="139.995" y2="43.288" gradientUnits="userSpaceOnUse">
<stop stop-color="#6544AE"/>
<stop offset="0.4" stop-color="#4C86AA"/>
<stop offset="1" stop-color="#68B7A5"/>
</linearGradient>
<linearGradient id="paint2_linear_15611_9761" x1="204.616" y1="0.948885" x2="134.856" y2="31.6734" gradientUnits="userSpaceOnUse">
<stop stop-color="#6544AE"/>
<stop offset="0.4" stop-color="#4C86AA"/>
<stop offset="1" stop-color="#68B7A5"/>
</linearGradient>
<linearGradient id="paint3_linear_15611_9761" x1="205.249" y1="2.74096" x2="135.489" y2="33.4653" gradientUnits="userSpaceOnUse">
<stop stop-color="#6544AE"/>
<stop offset="0.4" stop-color="#4C86AA"/>
<stop offset="1" stop-color="#68B7A5"/>
</linearGradient>
<linearGradient id="paint4_linear_15611_9761" x1="213.6" y1="21.209" x2="143.839" y2="51.9335" gradientUnits="userSpaceOnUse">
<stop stop-color="#6544AE"/>
<stop offset="0.4" stop-color="#4C86AA"/>
<stop offset="1" stop-color="#68B7A5"/>
</linearGradient>
<linearGradient id="paint5_linear_15611_9761" x1="208.305" y1="9.29462" x2="138.545" y2="40.0191" gradientUnits="userSpaceOnUse">
<stop stop-color="#6544AE"/>
<stop offset="0.4" stop-color="#4C86AA"/>
<stop offset="1" stop-color="#68B7A5"/>
</linearGradient>
<linearGradient id="paint6_linear_15611_9761" x1="204.451" y1="0.363838" x2="134.691" y2="31.0883" gradientUnits="userSpaceOnUse">
<stop stop-color="#6544AE"/>
<stop offset="0.4" stop-color="#4C86AA"/>
<stop offset="1" stop-color="#68B7A5"/>
</linearGradient>
<linearGradient id="paint7_linear_15611_9761" x1="213.611" y1="21.2531" x2="143.85" y2="51.9776" gradientUnits="userSpaceOnUse">
<stop stop-color="#6544AE"/>
<stop offset="0.4" stop-color="#4C86AA"/>
<stop offset="1" stop-color="#68B7A5"/>
</linearGradient>
<linearGradient id="paint8_linear_15611_9761" x1="212.003" y1="18.0115" x2="142.243" y2="48.736" gradientUnits="userSpaceOnUse">
<stop stop-color="#6544AE"/>
<stop offset="0.4" stop-color="#4C86AA"/>
<stop offset="1" stop-color="#68B7A5"/>
</linearGradient>
<linearGradient id="paint9_linear_15611_9761" x1="214.044" y1="22.4563" x2="144.283" y2="53.1808" gradientUnits="userSpaceOnUse">
<stop stop-color="#6544AE"/>
<stop offset="0.4" stop-color="#4C86AA"/>
<stop offset="1" stop-color="#68B7A5"/>
</linearGradient>
<linearGradient id="paint10_linear_15611_9761" x1="214.506" y1="23.785" x2="144.746" y2="54.5093" gradientUnits="userSpaceOnUse">
<stop stop-color="#6544AE"/>
<stop offset="0.4" stop-color="#4C86AA"/>
<stop offset="1" stop-color="#68B7A5"/>
</linearGradient>
<linearGradient id="paint11_linear_15611_9761" x1="217.617" y1="30.7813" x2="147.856" y2="61.5058" gradientUnits="userSpaceOnUse">
<stop stop-color="#6544AE"/>
<stop offset="0.4" stop-color="#4C86AA"/>
<stop offset="1" stop-color="#68B7A5"/>
</linearGradient>
<linearGradient id="paint12_linear_15611_9761" x1="207.56" y1="7.97273" x2="137.799" y2="38.6973" gradientUnits="userSpaceOnUse">
<stop stop-color="#6544AE"/>
<stop offset="0.4" stop-color="#4C86AA"/>
<stop offset="1" stop-color="#68B7A5"/>
</linearGradient>
<linearGradient id="paint13_linear_15611_9761" x1="209.379" y1="11.7261" x2="139.618" y2="42.4506" gradientUnits="userSpaceOnUse">
<stop stop-color="#6544AE"/>
<stop offset="0.4" stop-color="#4C86AA"/>
<stop offset="1" stop-color="#68B7A5"/>
</linearGradient>
<linearGradient id="paint14_linear_15611_9761" x1="205.376" y1="3.02715" x2="135.616" y2="33.7517" gradientUnits="userSpaceOnUse">
<stop stop-color="#6544AE"/>
<stop offset="0.4" stop-color="#4C86AA"/>
<stop offset="1" stop-color="#68B7A5"/>
</linearGradient>
<linearGradient id="paint15_linear_15611_9761" x1="210.829" y1="15.0708" x2="141.068" y2="45.7952" gradientUnits="userSpaceOnUse">
<stop stop-color="#6544AE"/>
<stop offset="0.4" stop-color="#4C86AA"/>
<stop offset="1" stop-color="#68B7A5"/>
</linearGradient>
<linearGradient id="paint16_linear_15611_9761" x1="202.732" y1="-3.63148" x2="132.971" y2="27.0931" gradientUnits="userSpaceOnUse">
<stop stop-color="#6544AE"/>
<stop offset="0.4" stop-color="#4C86AA"/>
<stop offset="1" stop-color="#68B7A5"/>
</linearGradient>
<linearGradient id="paint17_linear_15611_9761" x1="227.089" y1="52.2265" x2="157.328" y2="82.951" gradientUnits="userSpaceOnUse">
<stop stop-color="#6544AE"/>
<stop offset="0.4" stop-color="#4C86AA"/>
<stop offset="1" stop-color="#68B7A5"/>
</linearGradient>
<linearGradient id="paint18_linear_15611_9761" x1="225.23" y1="47.8044" x2="155.469" y2="78.5289" gradientUnits="userSpaceOnUse">
<stop stop-color="#6544AE"/>
<stop offset="0.4" stop-color="#4C86AA"/>
<stop offset="1" stop-color="#68B7A5"/>
</linearGradient>
<linearGradient id="paint19_linear_15611_9761" x1="222.7" y1="42.0683" x2="152.939" y2="72.7928" gradientUnits="userSpaceOnUse">
<stop stop-color="#6544AE"/>
<stop offset="0.4" stop-color="#4C86AA"/>
<stop offset="1" stop-color="#68B7A5"/>
</linearGradient>
<linearGradient id="paint20_linear_15611_9761" x1="232.664" y1="64.556" x2="162.903" y2="95.2805" gradientUnits="userSpaceOnUse">
<stop stop-color="#6544AE"/>
<stop offset="0.4" stop-color="#4C86AA"/>
<stop offset="1" stop-color="#68B7A5"/>
</linearGradient>
<linearGradient id="paint21_linear_15611_9761" x1="214.208" y1="22.7235" x2="144.447" y2="53.448" gradientUnits="userSpaceOnUse">
<stop stop-color="#6544AE"/>
<stop offset="0.4" stop-color="#4C86AA"/>
<stop offset="1" stop-color="#68B7A5"/>
</linearGradient>
<linearGradient id="paint22_linear_15611_9761" x1="217.883" y1="30.9921" x2="148.122" y2="61.7166" gradientUnits="userSpaceOnUse">
<stop stop-color="#6544AE"/>
<stop offset="0.4" stop-color="#4C86AA"/>
<stop offset="1" stop-color="#68B7A5"/>
</linearGradient>
<linearGradient id="paint23_linear_15611_9761" x1="228.476" y1="55.1325" x2="158.715" y2="85.8569" gradientUnits="userSpaceOnUse">
<stop stop-color="#6544AE"/>
<stop offset="0.4" stop-color="#4C86AA"/>
<stop offset="1" stop-color="#68B7A5"/>
</linearGradient>
<linearGradient id="paint24_linear_15611_9761" x1="230.414" y1="59.6081" x2="160.653" y2="90.3326" gradientUnits="userSpaceOnUse">
<stop stop-color="#6544AE"/>
<stop offset="0.4" stop-color="#4C86AA"/>
<stop offset="1" stop-color="#68B7A5"/>
</linearGradient>
<linearGradient id="paint25_linear_15611_9761" x1="222.468" y1="41.5789" x2="152.707" y2="72.3034" gradientUnits="userSpaceOnUse">
<stop stop-color="#6544AE"/>
<stop offset="0.4" stop-color="#4C86AA"/>
<stop offset="1" stop-color="#68B7A5"/>
</linearGradient>
<linearGradient id="paint26_linear_15611_9761" x1="212.401" y1="18.8267" x2="142.641" y2="49.5512" gradientUnits="userSpaceOnUse">
<stop stop-color="#6544AE"/>
<stop offset="0.4" stop-color="#4C86AA"/>
<stop offset="1" stop-color="#68B7A5"/>
</linearGradient>
<linearGradient id="paint27_linear_15611_9761" x1="217.163" y1="29.6251" x2="147.402" y2="60.3496" gradientUnits="userSpaceOnUse">
<stop stop-color="#6544AE"/>
<stop offset="0.4" stop-color="#4C86AA"/>
<stop offset="1" stop-color="#68B7A5"/>
</linearGradient>
<linearGradient id="paint28_linear_15611_9761" x1="220.528" y1="36.8353" x2="150.768" y2="67.5599" gradientUnits="userSpaceOnUse">
<stop stop-color="#6544AE"/>
<stop offset="0.4" stop-color="#4C86AA"/>
<stop offset="1" stop-color="#68B7A5"/>
</linearGradient>
<linearGradient id="paint29_linear_15611_9761" x1="221.65" y1="39.5725" x2="151.889" y2="70.297" gradientUnits="userSpaceOnUse">
<stop stop-color="#6544AE"/>
<stop offset="0.4" stop-color="#4C86AA"/>
<stop offset="1" stop-color="#68B7A5"/>
</linearGradient>
<linearGradient id="paint30_linear_15611_9761" x1="203.562" y1="-1.39958" x2="133.801" y2="29.3249" gradientUnits="userSpaceOnUse">
<stop stop-color="#6544AE"/>
<stop offset="0.4" stop-color="#4C86AA"/>
<stop offset="1" stop-color="#68B7A5"/>
</linearGradient>
<linearGradient id="paint31_linear_15611_9761" x1="209.194" y1="11.3414" x2="139.433" y2="42.0659" gradientUnits="userSpaceOnUse">
<stop stop-color="#6544AE"/>
<stop offset="0.4" stop-color="#4C86AA"/>
<stop offset="1" stop-color="#68B7A5"/>
</linearGradient>
<linearGradient id="paint32_linear_15611_9761" x1="223.292" y1="43.343" x2="153.531" y2="74.0674" gradientUnits="userSpaceOnUse">
<stop stop-color="#6544AE"/>
<stop offset="0.4" stop-color="#4C86AA"/>
<stop offset="1" stop-color="#68B7A5"/>
</linearGradient>
<linearGradient id="paint33_linear_15611_9761" x1="181.5" y1="198" x2="181.5" y2="262" gradientUnits="userSpaceOnUse">
<stop stop-color="#119DA9"/>
<stop offset="1" stop-color="#3A207B"/>
</linearGradient>
</defs>
</svg>
