<svg width="362" height="140" viewBox="0 0 362 140" fill="none" xmlns="http://www.w3.org/2000/svg">
<circle cx="181" cy="44" r="44" fill="#3A207B"/>
<path d="M170.335 28C172.085 28 173.71 29 174.647 30.5C175.522 32.0625 175.522 34 174.647 35.5C173.71 37.0625 172.085 38 170.335 38C168.522 38 166.897 37.0625 165.96 35.5C165.085 34 165.085 32.0625 165.96 30.5C166.897 29 168.522 28 170.335 28ZM193.335 28C195.085 28 196.71 29 197.647 30.5C198.522 32.0625 198.522 34 197.647 35.5C196.71 37.0625 195.085 38 193.335 38C191.522 38 189.897 37.0625 188.96 35.5C188.085 34 188.085 32.0625 188.96 30.5C189.897 29 191.522 28 193.335 28ZM161.335 46.6875C161.335 43 164.272 40 167.96 40H170.647C171.647 40 172.585 40.25 173.46 40.625C173.335 41.0625 173.335 41.5625 173.335 42C173.335 44.4375 174.335 46.5625 176.022 48C176.022 48 176.022 48 175.96 48H162.647C161.897 48 161.335 47.4375 161.335 46.6875ZM186.647 48H186.585C188.272 46.5625 189.272 44.4375 189.272 42C189.272 41.5625 189.272 41.0625 189.21 40.625C190.022 40.25 190.96 40 191.96 40H194.647C198.335 40 201.335 43 201.335 46.6875C201.335 47.4375 200.71 48 199.96 48H186.647ZM175.335 42C175.335 39.875 176.46 37.9375 178.335 36.8125C180.147 35.75 182.46 35.75 184.335 36.8125C186.147 37.9375 187.335 39.875 187.335 42C187.335 44.1875 186.147 46.125 184.335 47.25C182.46 48.3125 180.147 48.3125 178.335 47.25C176.46 46.125 175.335 44.1875 175.335 42ZM169.335 58.375C169.335 53.75 173.022 50 177.647 50H184.96C189.585 50 193.335 53.75 193.335 58.375C193.335 59.25 192.585 60 191.647 60H170.96C170.022 60 169.272 59.3125 169.272 58.375H169.335Z" fill="white"/>
<path d="M119.677 128.54V130.96C119.677 130.98 119.577 131 119.357 131H112.217C108.757 131 106.477 129.02 106.477 125.9C106.477 122.78 108.657 120.8 111.937 120.8C113.617 120.8 115.277 121.32 116.317 121.9V128.54H119.677ZM111.877 128.54H113.937V123.54C113.317 123.2 112.577 123.04 111.757 123.04C110.077 123.04 108.837 124 108.837 125.82C108.837 127.58 110.037 128.54 111.877 128.54ZM108.557 117.62C108.557 116.82 109.197 116.18 110.017 116.18C110.797 116.18 111.437 116.82 111.437 117.62C111.437 118.42 110.797 119.06 110.017 119.06C109.197 119.06 108.557 118.42 108.557 117.62ZM112.497 117.62C112.497 116.82 113.117 116.18 113.917 116.18C114.717 116.18 115.357 116.82 115.357 117.62C115.357 118.42 114.717 119.06 113.917 119.06C113.117 119.06 112.497 118.42 112.497 117.62ZM124.839 121V129.54C124.239 129.96 123.439 130.3 122.459 130.58C121.479 130.86 120.439 131 119.379 131H119.359C119.139 131 119.039 130.98 119.039 130.96V128.54H119.359C120.579 128.54 121.759 128.34 122.459 128.02V121H124.839ZM119.419 133.9C119.419 133.08 120.059 132.46 120.879 132.46C121.679 132.46 122.299 133.1 122.299 133.9C122.299 134.68 121.659 135.32 120.879 135.32C120.059 135.32 119.419 134.68 119.419 133.9ZM123.359 133.9C123.359 133.08 123.979 132.46 124.779 132.46C125.579 132.46 126.219 133.08 126.219 133.9C126.219 134.68 125.579 135.32 124.779 135.32C123.979 135.32 123.359 134.68 123.359 133.9ZM139.865 128.54V130.96C139.865 130.98 139.765 131 139.545 131H127.605V128.54H134.425V125.78C134.425 123.94 133.665 123.4 131.665 123.4H129.465V121.02H131.125C135.365 121.02 136.805 122.26 136.805 125.68V128.54H139.865ZM129.765 117.78C129.765 116.96 130.405 116.32 131.225 116.32C132.025 116.32 132.665 116.96 132.665 117.78C132.665 118.58 132.025 119.22 131.225 119.22C130.405 119.22 129.765 118.58 129.765 117.78ZM148.095 128.54H148.415V130.96C148.415 130.98 148.315 131 148.095 131H148.075C146.535 131 145.115 130.64 143.815 129.9C142.535 130.64 141.115 131 139.555 131H139.535C139.315 131 139.215 130.98 139.215 130.96V128.54H139.535C140.755 128.54 141.775 128.32 142.635 127.9V121H145.015V127.9C145.815 128.32 146.955 128.54 148.095 128.54ZM140.455 133.9C140.455 133.08 141.095 132.46 141.915 132.46C142.715 132.46 143.335 133.1 143.335 133.9C143.335 134.68 142.695 135.32 141.915 135.32C141.095 135.32 140.455 134.68 140.455 133.9ZM144.395 133.9C144.395 133.08 145.015 132.46 145.815 132.46C146.615 132.46 147.255 133.08 147.255 133.9C147.255 134.68 146.615 135.32 145.815 135.32C145.015 135.32 144.395 134.68 144.395 133.9ZM162.39 128.54V131H148.09V128.54H152.19C150.85 127.48 150.17 126.14 150.17 124.56C150.17 121.82 152.29 119.98 155.25 119.98C158.23 119.98 160.31 121.82 160.31 124.56C160.31 126.14 159.63 127.48 158.29 128.54H162.39ZM152.55 124.86C152.55 125.64 152.81 126.34 153.35 126.92C153.89 127.5 154.53 127.94 155.25 128.22C155.95 127.92 156.57 127.5 157.11 126.92C157.65 126.34 157.93 125.64 157.93 124.86C157.93 123.28 156.83 122.26 155.25 122.26C153.67 122.26 152.55 123.32 152.55 124.86ZM153.77 116.8C153.77 115.98 154.41 115.34 155.23 115.34C156.03 115.34 156.67 115.98 156.67 116.8C156.67 117.6 156.03 118.24 155.23 118.24C154.41 118.24 153.77 117.6 153.77 116.8ZM170.947 128.54H171.267V130.96C171.267 130.98 171.167 131 170.947 131H170.927C169.387 131 167.967 130.64 166.667 129.9C165.387 130.64 163.967 131 162.407 131H162.387C162.167 131 162.067 130.98 162.067 130.96V128.54H162.387C163.607 128.54 164.627 128.32 165.487 127.9V121H167.867V127.9C168.667 128.32 169.807 128.54 170.947 128.54ZM165.247 117.76C165.247 116.94 165.887 116.3 166.707 116.3C167.507 116.3 168.147 116.94 168.147 117.76C168.147 118.56 167.507 119.2 166.707 119.2C165.887 119.2 165.247 118.56 165.247 117.76ZM179.501 128.54H179.821V130.96C179.821 130.98 179.721 131 179.501 131H179.481C177.941 131 176.521 130.64 175.221 129.9C173.941 130.64 172.521 131 170.961 131H170.941C170.721 131 170.621 130.98 170.621 130.96V128.54H170.941C172.161 128.54 173.181 128.32 174.041 127.9V121H176.421V127.9C177.221 128.32 178.361 128.54 179.501 128.54ZM171.861 117.76C171.861 116.96 172.501 116.32 173.321 116.32C174.101 116.32 174.741 116.96 174.741 117.76C174.741 118.56 174.101 119.2 173.321 119.2C172.501 119.2 171.861 118.56 171.861 117.76ZM175.801 117.76C175.801 116.96 176.421 116.32 177.221 116.32C178.021 116.32 178.661 116.96 178.661 117.76C178.661 118.56 178.021 119.2 177.221 119.2C176.421 119.2 175.801 118.56 175.801 117.76ZM184.976 116.4V128.92C183.776 130.12 181.696 131 179.516 131H179.496C179.276 131 179.176 130.98 179.176 130.96V128.54H179.496C180.616 128.54 181.796 128.32 182.596 127.9V116.4H184.976ZM189.016 131V116.4H191.396V131H189.016ZM212.802 128.54V130.96C212.802 130.98 212.702 131 212.482 131H205.342C201.882 131 199.602 129.02 199.602 125.9C199.602 122.78 201.782 120.8 205.062 120.8C206.742 120.8 208.402 121.32 209.442 121.9V128.54H212.802ZM205.002 128.54H207.062V123.54C206.442 123.2 205.702 123.04 204.882 123.04C203.202 123.04 201.962 124 201.962 125.82C201.962 127.58 203.162 128.54 205.002 128.54ZM201.682 117.62C201.682 116.82 202.322 116.18 203.142 116.18C203.922 116.18 204.562 116.82 204.562 117.62C204.562 118.42 203.922 119.06 203.142 119.06C202.322 119.06 201.682 118.42 201.682 117.62ZM205.622 117.62C205.622 116.82 206.242 116.18 207.042 116.18C207.842 116.18 208.482 116.82 208.482 117.62C208.482 118.42 207.842 119.06 207.042 119.06C206.242 119.06 205.622 118.42 205.622 117.62ZM221.044 128.54H221.364V130.96C221.364 130.98 221.264 131 221.044 131H221.024C219.484 131 218.064 130.64 216.764 129.9C215.484 130.64 214.064 131 212.504 131H212.484C212.264 131 212.164 130.98 212.164 130.96V128.54H212.484C213.704 128.54 214.724 128.32 215.584 127.9V121H217.964V127.9C218.764 128.32 219.904 128.54 221.044 128.54ZM215.344 117.76C215.344 116.94 215.984 116.3 216.804 116.3C217.604 116.3 218.244 116.94 218.244 117.76C218.244 118.56 217.604 119.2 216.804 119.2C215.984 119.2 215.344 118.56 215.344 117.76ZM234.539 128.54V130.96C234.539 130.98 234.439 131 234.219 131H221.039C220.819 131 220.719 130.98 220.719 130.96V128.54H229.619C228.899 127.74 228.599 127.02 228.219 125.68C227.499 123.3 227.299 122.68 225.459 122.58C224.639 122.58 223.899 122.8 222.919 123.42L221.639 121.78C222.879 120.82 224.199 120.34 225.619 120.34C228.519 120.4 229.439 121.6 230.339 124.76C230.799 126.38 231.219 127.5 232.019 128.3C232.239 128.48 232.599 128.54 233.259 128.54H234.539ZM225.199 133.9C225.199 133.08 225.839 132.46 226.659 132.46C227.459 132.46 228.099 133.08 228.099 133.9C228.099 134.72 227.459 135.36 226.659 135.36C225.839 135.36 225.199 134.72 225.199 133.9ZM242.783 128.54H243.103V130.96C243.103 130.98 243.003 131 242.783 131H242.763C241.223 131 239.803 130.64 238.503 129.9C237.223 130.64 235.803 131 234.243 131H234.223C234.003 131 233.903 130.98 233.903 130.96V128.54H234.223C235.443 128.54 236.463 128.32 237.323 127.9V116.4H239.703V127.9C240.503 128.32 241.643 128.54 242.783 128.54ZM248.257 116.4V128.92C247.057 130.12 244.977 131 242.797 131H242.777C242.557 131 242.457 130.98 242.457 130.96V128.54H242.777C243.897 128.54 245.077 128.32 245.877 127.9V116.4H248.257ZM252.297 131V116.4H254.677V131H252.297Z" fill="#111827"/>
</svg>
