<svg width="1478" height="402" viewBox="0 0 1478 402" fill="none" xmlns="http://www.w3.org/2000/svg">
<path d="M740 70V134" stroke="#4590BF" stroke-width="2"/>
<path d="M1164 258C1164 258.552 1164.45 259 1165 259C1165.55 259 1166 258.552 1166 258H1164ZM1164 70V258H1166V70H1164Z" fill="#4590BF"/>
<path d="M312 258C312 258.552 312.448 259 313 259C313.552 259 314 258.552 314 258H312ZM312 70V258H314V70H312Z" fill="#4590BF"/>
<path d="M951 163C951 163.552 951.448 164 952 164C952.552 164 953 163.552 953 163H951ZM951 70V163H953V70H951Z" fill="#4590BF"/>
<path d="M525 163C525 163.552 525.448 164 526 164C526.552 164 527 163.552 527 163H525ZM525 70V163H527V70H525Z" fill="#4590BF"/>
<path d="M740 70H110C105.582 70 102 73.5817 102 78V165" stroke="#4590BF" stroke-width="2" stroke-linecap="round"/>
<path d="M740 70H1369C1373.42 70 1377 73.5817 1377 78V165" stroke="#4590BF" stroke-width="2" stroke-linecap="round"/>
<path d="M740 70V6" stroke="url(#paint0_linear_15611_9691)" stroke-width="2"/>
<circle cx="740" cy="6" r="6" fill="#3A207B"/>
<circle cx="1378" cy="225" r="36" fill="#4590BF"/>
<path d="M1374.67 215.238L1374.28 216.387H1382.21L1381.83 215.238C1381.56 214.309 1382.05 213.324 1382.98 212.996C1383.85 212.723 1384.84 213.215 1385.17 214.09L1385.93 216.387H1387.9C1388.83 216.387 1389.65 217.207 1389.65 218.137C1389.65 219.121 1388.83 219.887 1387.9 219.887H1387.08L1388.28 223.387H1390.09C1391.02 223.387 1391.84 224.207 1391.84 225.137C1391.84 226.121 1391.02 226.887 1390.09 226.887H1389.43L1390.58 230.387H1392.27C1393.2 230.387 1394.02 231.207 1394.02 232.137C1394.02 233.121 1393.2 233.887 1392.27 233.887H1391.78L1392.17 235.09C1392.44 236.02 1391.95 237.004 1391.07 237.332C1390.14 237.605 1389.16 237.113 1388.83 236.238L1388.06 233.941H1368.43L1367.67 236.238C1367.34 237.113 1366.35 237.605 1365.42 237.332C1364.55 237.004 1364.06 236.02 1364.33 235.09L1364.71 233.887H1364.27C1363.29 233.887 1362.52 233.121 1362.52 232.137C1362.52 231.207 1363.29 230.387 1364.27 230.387H1365.92L1367.06 226.887H1366.46C1365.48 226.887 1364.71 226.121 1364.71 225.137C1364.71 224.207 1365.48 223.387 1366.46 223.387H1368.27L1369.42 219.887H1368.65C1367.67 219.887 1366.9 219.121 1366.9 218.137C1366.9 217.207 1367.67 216.387 1368.65 216.387H1370.56L1371.33 214.09C1371.66 213.215 1372.64 212.668 1373.57 212.996C1374.45 213.324 1374.99 214.309 1374.67 215.238ZM1373.08 219.887L1371.93 223.387H1384.56L1383.42 219.887H1373.08ZM1386.92 230.387L1385.77 226.887H1370.78L1369.58 230.387H1386.92Z" fill="white"/>
<path d="M1316.97 299.032H1317.22V300.968C1317.22 300.984 1317.14 301 1316.97 301C1314.45 301 1313.57 300.392 1312.93 298.264L1312.31 296.12H1310.65C1309.8 296.12 1309.29 296.52 1309.29 297.208C1309.29 297.352 1309.32 297.512 1309.37 297.704L1311.05 303.4C1310.34 303.832 1309.43 304.232 1308.29 304.6C1307.16 304.968 1306.04 305.16 1304.93 305.16C1301.37 305.16 1299.25 303.176 1299.25 300.04C1299.25 299.256 1299.37 298.456 1299.57 297.64L1301.32 297.976C1301.17 298.472 1301.11 299.032 1301.11 299.64C1301.11 301.944 1302.5 303.208 1305.08 303.208C1305.73 303.208 1306.42 303.128 1307.14 302.968C1307.86 302.824 1308.45 302.648 1308.92 302.44L1307.54 297.896C1307.43 297.528 1307.37 297.16 1307.37 296.792C1307.37 295.256 1308.57 294.312 1310.25 294.312H1313.65L1314.6 297.528C1314.92 298.696 1315.37 299.032 1316.97 299.032ZM1302.09 307.8C1302.09 307.144 1302.6 306.648 1303.25 306.648C1303.89 306.648 1304.39 307.16 1304.39 307.8C1304.39 308.424 1303.88 308.936 1303.25 308.936C1302.6 308.936 1302.09 308.424 1302.09 307.8ZM1305.24 307.8C1305.24 307.144 1305.73 306.648 1306.37 306.648C1307.01 306.648 1307.53 307.144 1307.53 307.8C1307.53 308.424 1307.01 308.936 1306.37 308.936C1305.73 308.936 1305.24 308.424 1305.24 307.8ZM1327.17 299.032H1327.42V300.968C1327.42 300.984 1327.34 301 1327.17 301H1327.15C1326.21 301 1325.3 300.776 1324.45 300.344C1323.25 300.776 1321.71 301 1320.3 301H1316.96C1316.78 301 1316.7 300.984 1316.7 300.968V299.032H1320.51C1321.65 299.032 1322.72 298.808 1323.41 298.504V297.896C1323.34 296.504 1322.88 296.168 1320.45 295.464L1318.5 294.936L1318.06 293.416L1323.82 288.968L1324.82 290.2L1320.34 293.608L1321.33 293.88C1324.18 294.696 1325.25 295.416 1325.31 297.832V298.616C1325.74 298.872 1326.46 299.032 1327.17 299.032ZM1337.37 299.032H1337.63V300.968C1337.63 300.984 1337.55 301 1337.37 301H1337.36C1336.41 301 1335.5 300.776 1334.65 300.344C1333.45 300.776 1331.92 301 1330.51 301H1327.16C1326.99 301 1326.91 300.984 1326.91 300.968V299.032H1330.72C1331.85 299.032 1332.92 298.808 1333.61 298.504V297.896C1333.55 296.504 1333.08 296.168 1330.65 295.464L1328.7 294.936L1328.27 293.416L1334.03 288.968L1335.02 290.2L1330.54 293.608L1331.53 293.88C1334.38 294.696 1335.45 295.416 1335.52 297.832V298.616C1335.95 298.872 1336.67 299.032 1337.37 299.032ZM1354.49 299.032H1354.74V300.968C1354.74 300.984 1354.66 301 1354.49 301H1354.47C1353.35 301 1352.28 300.728 1351.27 300.2C1350.5 300.712 1349.54 301 1348.54 301C1347.59 301 1346.74 300.712 1345.99 300.152C1345.24 300.712 1344.38 301 1343.42 301C1342.33 301 1341.4 300.632 1340.76 300.136C1340.01 300.632 1338.78 301 1337.38 301H1337.37C1337.19 301 1337.11 300.984 1337.11 300.968V299.032H1337.37C1338.28 299.032 1339.11 298.856 1339.85 298.504V294.968H1341.75V298.536C1342.23 298.872 1342.78 299.032 1343.37 299.032C1343.96 299.032 1344.49 298.872 1344.98 298.552V294.968H1346.89V298.552C1347.38 298.872 1347.91 299.032 1348.5 299.032C1349.1 299.032 1349.64 298.872 1350.12 298.536V294.248H1352.02V298.52C1352.66 298.856 1353.58 299.032 1354.49 299.032ZM1358.88 289.32V299.336C1357.92 300.296 1356.25 301 1354.51 301H1354.49C1354.32 301 1354.24 300.984 1354.24 300.968V299.032H1354.49C1355.39 299.032 1356.33 298.856 1356.97 298.52V289.32H1358.88ZM1362.11 301V289.32H1364.01V301H1362.11ZM1384.21 299.032H1384.46V300.968C1384.46 300.984 1384.38 301 1384.21 301H1384.19C1383.33 301 1382.5 300.856 1381.71 300.552V303.592C1381.09 304.024 1380.29 304.392 1379.34 304.696C1378.4 305 1377.39 305.16 1376.35 305.16C1372.83 305.16 1370.82 303.272 1370.82 299.992C1370.82 299.208 1370.93 298.392 1371.14 297.576L1372.88 297.896C1372.74 298.488 1372.67 299.064 1372.67 299.608C1372.67 302.008 1373.95 303.208 1376.5 303.208C1377.63 303.208 1378.74 302.968 1379.81 302.472V289.32H1381.71V298.52C1382.4 298.856 1383.23 299.032 1384.21 299.032ZM1395.65 299.032V301H1384.21V299.032H1387.49C1386.42 298.184 1385.87 297.112 1385.87 295.848C1385.87 293.656 1387.57 292.184 1389.94 292.184C1392.32 292.184 1393.99 293.656 1393.99 295.848C1393.99 297.112 1393.44 298.184 1392.37 299.032H1395.65ZM1387.78 296.088C1387.78 296.712 1387.99 297.272 1388.42 297.736C1388.85 298.2 1389.36 298.552 1389.94 298.776C1390.5 298.536 1390.99 298.2 1391.43 297.736C1391.86 297.272 1392.08 296.712 1392.08 296.088C1392.08 294.824 1391.2 294.008 1389.94 294.008C1388.67 294.008 1387.78 294.856 1387.78 296.088ZM1387.2 289.64C1387.2 289 1387.71 288.488 1388.37 288.488C1388.99 288.488 1389.51 289 1389.51 289.64C1389.51 290.28 1388.99 290.792 1388.37 290.792C1387.71 290.792 1387.2 290.28 1387.2 289.64ZM1390.35 289.64C1390.35 289 1390.85 288.488 1391.49 288.488C1392.13 288.488 1392.64 289 1392.64 289.64C1392.64 290.28 1392.13 290.792 1391.49 290.792C1390.85 290.792 1390.35 290.28 1390.35 289.64ZM1402.5 299.032H1402.75V300.968C1402.75 300.984 1402.67 301 1402.5 301H1402.48C1401.25 301 1400.11 300.712 1399.07 300.12C1398.05 300.712 1396.91 301 1395.66 301H1395.65C1395.47 301 1395.39 300.984 1395.39 300.968V299.032H1395.65C1396.62 299.032 1397.44 298.856 1398.13 298.52V293H1400.03V298.52C1400.67 298.856 1401.58 299.032 1402.5 299.032ZM1397.94 290.408C1397.94 289.752 1398.45 289.24 1399.1 289.24C1399.74 289.24 1400.26 289.752 1400.26 290.408C1400.26 291.048 1399.74 291.56 1399.1 291.56C1398.45 291.56 1397.94 291.048 1397.94 290.408ZM1406.88 289.32V299.336C1405.92 300.296 1404.25 301 1402.51 301H1402.49C1402.32 301 1402.24 300.984 1402.24 300.968V299.032H1402.49C1403.39 299.032 1404.33 298.856 1404.97 298.52V289.32H1406.88ZM1410.11 301V289.32H1412.01V301H1410.11ZM1433.31 299.048V300.968C1433.31 300.984 1433.23 301 1433.06 301H1430.64V303.56C1429.3 304.504 1427.14 305.16 1424.83 305.16C1420.99 305.16 1418.82 303.144 1418.82 300.024C1418.82 299.224 1418.93 298.424 1419.15 297.64L1420.9 297.976C1420.75 298.44 1420.67 299 1420.67 299.64C1420.67 301.992 1422.19 303.208 1425.02 303.208C1426.27 303.208 1427.5 302.968 1428.74 302.488V300.952H1427.34C1424.42 300.952 1422.74 299.4 1422.74 297.096C1422.74 294.744 1424.45 293.144 1427.12 293.144C1428.29 293.144 1429.47 293.432 1430.64 294.024V299.048H1433.31ZM1427.06 299.032H1428.74V295.32C1428.18 295.048 1427.62 294.92 1427.02 294.92C1425.62 294.92 1424.64 295.656 1424.64 296.984C1424.64 298.28 1425.63 299.032 1427.06 299.032ZM1424.43 290.584C1424.43 289.944 1424.94 289.432 1425.6 289.432C1426.22 289.432 1426.74 289.944 1426.74 290.584C1426.74 291.224 1426.22 291.736 1425.6 291.736C1424.94 291.736 1424.43 291.224 1424.43 290.584ZM1427.58 290.584C1427.58 289.944 1428.08 289.432 1428.72 289.432C1429.36 289.432 1429.87 289.944 1429.87 290.584C1429.87 291.224 1429.36 291.736 1428.72 291.736C1428.08 291.736 1427.58 291.224 1427.58 290.584ZM1437.44 293V299.832C1436.96 300.168 1436.32 300.44 1435.53 300.664C1434.75 300.888 1433.92 301 1433.07 301H1433.05C1432.88 301 1432.8 300.984 1432.8 300.968V299.032H1433.05C1434.03 299.032 1434.97 298.872 1435.53 298.616V293H1437.44ZM1433.1 303.32C1433.1 302.664 1433.61 302.168 1434.27 302.168C1434.91 302.168 1435.41 302.68 1435.41 303.32C1435.41 303.944 1434.89 304.456 1434.27 304.456C1433.61 304.456 1433.1 303.944 1433.1 303.32ZM1436.25 303.32C1436.25 302.664 1436.75 302.168 1437.39 302.168C1438.03 302.168 1438.54 302.664 1438.54 303.32C1438.54 303.944 1438.03 304.456 1437.39 304.456C1436.75 304.456 1436.25 303.944 1436.25 303.32ZM1447.22 299.032H1447.47V300.968C1447.47 300.984 1447.39 301 1447.22 301H1447.2C1446.32 301 1445.49 300.84 1444.71 300.504C1444.69 303.72 1443.09 305.16 1440.35 305.16C1439.95 305.16 1439.57 305.128 1439.23 305.08L1439.6 303.176C1439.84 303.208 1440.07 303.224 1440.29 303.224C1442.1 303.224 1442.8 302.344 1442.8 300.488V293.208H1444.71V298.44C1445.33 298.84 1446.16 299.032 1447.22 299.032ZM1456.49 293.16V300.024C1455.4 300.584 1453.53 301 1451.29 301H1447.21C1447.03 301 1446.95 300.984 1446.95 300.968V299.032H1451.19C1449.79 298.408 1448.87 297.384 1448.87 295.784C1448.87 293.544 1450.67 292.216 1453.03 292.216C1454.23 292.216 1455.39 292.536 1456.49 293.16ZM1450.78 295.944C1450.78 297.496 1452.23 298.392 1454.59 298.52V294.408C1454.07 294.168 1453.53 294.04 1452.94 294.04C1451.61 294.04 1450.78 294.776 1450.78 295.944ZM1451.8 289.672C1451.8 289.016 1452.31 288.504 1452.97 288.504C1453.61 288.504 1454.12 289.016 1454.12 289.672C1454.12 290.312 1453.61 290.824 1452.97 290.824C1452.31 290.824 1451.8 290.312 1451.8 289.672Z" fill="#111827"/>
<circle cx="1165" cy="318" r="36" fill="#4590BF"/>
<path d="M1163.53 305.887V309.387C1163.53 310.371 1164.29 311.137 1165.28 311.137C1166.21 311.137 1167.03 310.371 1167.03 309.387V305.887H1171.08C1172.55 305.887 1173.92 306.871 1174.41 308.238L1180.81 326.449C1180.92 326.723 1181.03 327.105 1181.03 327.434C1181.03 329.074 1179.66 330.387 1178.02 330.387H1167.03V326.887C1167.03 325.957 1166.21 325.137 1165.28 325.137C1164.29 325.137 1163.53 325.957 1163.53 326.887V330.387H1152.48C1150.84 330.387 1149.53 329.074 1149.53 327.434C1149.53 327.105 1149.58 326.723 1149.69 326.449L1156.09 308.238C1156.58 306.871 1157.95 305.887 1159.43 305.887H1163.53ZM1167.03 316.387C1167.03 315.457 1166.21 314.637 1165.28 314.637C1164.29 314.637 1163.53 315.457 1163.53 316.387V319.887C1163.53 320.871 1164.29 321.637 1165.28 321.637C1166.21 321.637 1167.03 320.871 1167.03 319.887V316.387Z" fill="white"/>
<path d="M1108.51 390.208C1108.51 390.352 1108.54 390.512 1108.59 390.704L1110.27 396.4C1109.55 396.832 1108.64 397.232 1107.54 397.6C1106.43 397.968 1105.31 398.16 1104.18 398.16C1100.62 398.16 1098.48 396.176 1098.48 393.04C1098.48 392.256 1098.59 391.456 1098.8 390.64L1100.54 390.976C1100.4 391.472 1100.34 392.032 1100.34 392.64C1100.34 394.944 1101.73 396.208 1104.3 396.208C1104.96 396.208 1105.65 396.128 1106.37 395.968C1107.09 395.824 1107.68 395.648 1108.14 395.44L1106.77 390.896C1106.66 390.528 1106.59 390.16 1106.59 389.792C1106.59 388.256 1107.79 387.312 1109.47 387.312H1112.85L1114.64 393.584L1112.93 394.032L1111.5 389.12H1109.87C1109.02 389.12 1108.51 389.52 1108.51 390.208ZM1101.38 400.8C1101.38 400.144 1101.89 399.648 1102.54 399.648C1103.18 399.648 1103.68 400.16 1103.68 400.8C1103.68 401.424 1103.17 401.936 1102.54 401.936C1101.89 401.936 1101.38 401.424 1101.38 400.8ZM1104.53 400.8C1104.53 400.144 1105.02 399.648 1105.66 399.648C1106.3 399.648 1106.82 400.144 1106.82 400.8C1106.82 401.424 1106.3 401.936 1105.66 401.936C1105.02 401.936 1104.53 401.424 1104.53 400.8ZM1122.43 392.032H1122.69V393.968C1122.69 393.984 1122.61 394 1122.43 394H1122.41C1121.53 394 1120.7 393.84 1119.92 393.504C1119.9 396.72 1118.3 398.16 1115.57 398.16C1115.17 398.16 1114.78 398.128 1114.45 398.08L1114.81 396.176C1115.05 396.208 1115.28 396.224 1115.5 396.224C1117.31 396.224 1118.01 395.344 1118.01 393.488V386.208H1119.92V391.44C1120.54 391.84 1121.37 392.032 1122.43 392.032ZM1129.27 392.032H1129.53V393.968C1129.53 393.984 1129.45 394 1129.27 394H1129.25C1128.02 394 1126.89 393.712 1125.85 393.12C1124.82 393.712 1123.69 394 1122.44 394H1122.42C1122.25 394 1122.17 393.984 1122.17 393.968V392.032H1122.42C1123.4 392.032 1124.21 391.856 1124.9 391.52V386H1126.81V391.52C1127.45 391.856 1128.36 392.032 1129.27 392.032ZM1124.71 396.32C1124.71 395.664 1125.22 395.168 1125.88 395.168C1126.52 395.168 1127.03 395.664 1127.03 396.32C1127.03 396.976 1126.52 397.488 1125.88 397.488C1125.22 397.488 1124.71 396.976 1124.71 396.32ZM1133.65 382.32V392.336C1132.69 393.296 1131.03 394 1129.28 394H1129.27C1129.09 394 1129.01 393.984 1129.01 393.968V392.032H1129.27C1130.16 392.032 1131.11 391.856 1131.75 391.52V382.32H1133.65ZM1136.88 394V382.32H1138.79V394H1136.88ZM1158.98 392.032H1159.24V393.968C1159.24 393.984 1159.16 394 1158.98 394H1158.97C1158.1 394 1157.27 393.856 1156.49 393.552V396.592C1155.86 397.024 1155.06 397.392 1154.12 397.696C1153.17 398 1152.17 398.16 1151.13 398.16C1147.61 398.16 1145.59 396.272 1145.59 392.992C1145.59 392.208 1145.7 391.392 1145.91 390.576L1147.65 390.896C1147.51 391.488 1147.45 392.064 1147.45 392.608C1147.45 395.008 1148.73 396.208 1151.27 396.208C1152.41 396.208 1153.51 395.968 1154.58 395.472V382.32H1156.49V391.52C1157.17 391.856 1158.01 392.032 1158.98 392.032ZM1170.42 392.032V394H1158.98V392.032H1162.26C1161.19 391.184 1160.65 390.112 1160.65 388.848C1160.65 386.656 1162.34 385.184 1164.71 385.184C1167.1 385.184 1168.76 386.656 1168.76 388.848C1168.76 390.112 1168.22 391.184 1167.14 392.032H1170.42ZM1162.55 389.088C1162.55 389.712 1162.76 390.272 1163.19 390.736C1163.62 391.2 1164.14 391.552 1164.71 391.776C1165.27 391.536 1165.77 391.2 1166.2 390.736C1166.63 390.272 1166.86 389.712 1166.86 389.088C1166.86 387.824 1165.98 387.008 1164.71 387.008C1163.45 387.008 1162.55 387.856 1162.55 389.088ZM1161.98 382.64C1161.98 382 1162.49 381.488 1163.14 381.488C1163.77 381.488 1164.28 382 1164.28 382.64C1164.28 383.28 1163.77 383.792 1163.14 383.792C1162.49 383.792 1161.98 383.28 1161.98 382.64ZM1165.13 382.64C1165.13 382 1165.62 381.488 1166.26 381.488C1166.9 381.488 1167.42 382 1167.42 382.64C1167.42 383.28 1166.9 383.792 1166.26 383.792C1165.62 383.792 1165.13 383.28 1165.13 382.64ZM1177.27 392.032H1177.53V393.968C1177.53 393.984 1177.45 394 1177.27 394H1177.25C1176.02 394 1174.89 393.712 1173.85 393.12C1172.82 393.712 1171.69 394 1170.44 394H1170.42C1170.25 394 1170.17 393.984 1170.17 393.968V392.032H1170.42C1171.4 392.032 1172.21 391.856 1172.9 391.52V386H1174.81V391.52C1175.45 391.856 1176.36 392.032 1177.27 392.032ZM1172.71 383.408C1172.71 382.752 1173.22 382.24 1173.88 382.24C1174.52 382.24 1175.03 382.752 1175.03 383.408C1175.03 384.048 1174.52 384.56 1173.88 384.56C1173.22 384.56 1172.71 384.048 1172.71 383.408ZM1181.65 382.32V392.336C1180.69 393.296 1179.03 394 1177.28 394H1177.27C1177.09 394 1177.01 393.984 1177.01 393.968V392.032H1177.27C1178.16 392.032 1179.11 391.856 1179.75 391.52V382.32H1181.65ZM1184.88 394V382.32H1186.79V394H1184.88ZM1208.09 392.048V393.968C1208.09 393.984 1208.01 394 1207.83 394H1205.41V396.56C1204.07 397.504 1201.91 398.16 1199.61 398.16C1195.77 398.16 1193.59 396.144 1193.59 393.024C1193.59 392.224 1193.7 391.424 1193.93 390.64L1195.67 390.976C1195.53 391.44 1195.45 392 1195.45 392.64C1195.45 394.992 1196.97 396.208 1199.8 396.208C1201.05 396.208 1202.28 395.968 1203.51 395.488V393.952H1202.12C1199.19 393.952 1197.51 392.4 1197.51 390.096C1197.51 387.744 1199.22 386.144 1201.89 386.144C1203.06 386.144 1204.25 386.432 1205.41 387.024V392.048H1208.09ZM1201.83 392.032H1203.51V388.32C1202.95 388.048 1202.39 387.92 1201.8 387.92C1200.39 387.92 1199.41 388.656 1199.41 389.984C1199.41 391.28 1200.41 392.032 1201.83 392.032ZM1199.21 383.584C1199.21 382.944 1199.72 382.432 1200.37 382.432C1201 382.432 1201.51 382.944 1201.51 383.584C1201.51 384.224 1201 384.736 1200.37 384.736C1199.72 384.736 1199.21 384.224 1199.21 383.584ZM1202.36 383.584C1202.36 382.944 1202.85 382.432 1203.49 382.432C1204.13 382.432 1204.65 382.944 1204.65 383.584C1204.65 384.224 1204.13 384.736 1203.49 384.736C1202.85 384.736 1202.36 384.224 1202.36 383.584ZM1212.21 386V392.832C1211.73 393.168 1211.09 393.44 1210.31 393.664C1209.52 393.888 1208.69 394 1207.84 394H1207.83C1207.65 394 1207.57 393.984 1207.57 393.968V392.032H1207.83C1208.8 392.032 1209.75 391.872 1210.31 391.616V386H1212.21ZM1207.88 396.32C1207.88 395.664 1208.39 395.168 1209.04 395.168C1209.68 395.168 1210.18 395.68 1210.18 396.32C1210.18 396.944 1209.67 397.456 1209.04 397.456C1208.39 397.456 1207.88 396.944 1207.88 396.32ZM1211.03 396.32C1211.03 395.664 1211.52 395.168 1212.16 395.168C1212.8 395.168 1213.32 395.664 1213.32 396.32C1213.32 396.944 1212.8 397.456 1212.16 397.456C1211.52 397.456 1211.03 396.944 1211.03 396.32ZM1221.99 392.032H1222.25V393.968C1222.25 393.984 1222.17 394 1221.99 394H1221.98C1221.1 394 1220.26 393.84 1219.48 393.504C1219.46 396.72 1217.86 398.16 1215.13 398.16C1214.73 398.16 1214.34 398.128 1214.01 398.08L1214.38 396.176C1214.62 396.208 1214.84 396.224 1215.06 396.224C1216.87 396.224 1217.58 395.344 1217.58 393.488V386.208H1219.48V391.44C1220.1 391.84 1220.94 392.032 1221.99 392.032ZM1231.26 386.16V393.024C1230.18 393.584 1228.3 394 1226.06 394H1221.98C1221.81 394 1221.73 393.984 1221.73 393.968V392.032H1225.97C1224.56 391.408 1223.65 390.384 1223.65 388.784C1223.65 386.544 1225.44 385.216 1227.81 385.216C1229.01 385.216 1230.16 385.536 1231.26 386.16ZM1225.55 388.944C1225.55 390.496 1227.01 391.392 1229.36 391.52V387.408C1228.85 387.168 1228.3 387.04 1227.71 387.04C1226.38 387.04 1225.55 387.776 1225.55 388.944ZM1226.58 382.672C1226.58 382.016 1227.09 381.504 1227.74 381.504C1228.38 381.504 1228.9 382.016 1228.9 382.672C1228.9 383.312 1228.38 383.824 1227.74 383.824C1227.09 383.824 1226.58 383.312 1226.58 382.672Z" fill="#111827"/>
<circle cx="952" cy="223" r="36" fill="#4590BF"/>
<path d="M947.028 210.887C947.028 209.957 947.794 209.137 948.778 209.137H955.778C956.708 209.137 957.528 209.957 957.528 210.887V212.637H960.153C961.575 212.637 962.778 213.84 962.778 215.262V222.262L965.185 223.082C966.442 223.52 966.771 225.16 965.786 226.035L960.263 231.121C959.388 231.613 958.403 231.941 957.528 231.941C956.435 231.941 955.286 231.504 954.247 230.848C953.044 229.973 951.458 229.973 950.255 230.848C949.325 231.449 948.177 231.941 946.974 231.941C946.099 231.941 945.114 231.613 944.239 231.121L938.716 226.035C937.731 225.16 938.06 223.52 939.317 223.082L941.778 222.262V215.262C941.778 213.84 942.927 212.637 944.403 212.637H947.028V210.887ZM945.278 221.113L951.13 219.145C951.841 218.926 952.661 218.926 953.372 219.145L959.278 221.113V216.137H945.278V221.113ZM953.263 232.215C954.521 233.09 955.997 233.637 957.528 233.637C958.95 233.637 960.536 233.09 961.739 232.215C962.396 231.777 963.271 231.832 963.872 232.324C964.692 232.98 965.677 233.473 966.661 233.691C967.591 233.91 968.192 234.84 967.974 235.824C967.755 236.754 966.771 237.355 965.841 237.137C964.528 236.809 963.38 236.207 962.669 235.77C961.083 236.59 959.333 237.137 957.528 237.137C955.778 237.137 954.192 236.645 953.099 236.152C952.771 235.988 952.497 235.824 952.278 235.715C952.005 235.824 951.731 235.988 951.403 236.152C950.31 236.645 948.724 237.137 947.028 237.137C945.224 237.137 943.419 236.59 941.833 235.77C941.122 236.207 939.974 236.809 938.661 237.137C937.731 237.355 936.747 236.754 936.528 235.824C936.31 234.895 936.911 233.91 937.841 233.691C938.825 233.473 939.864 232.98 940.63 232.324C941.231 231.832 942.106 231.777 942.763 232.215C943.966 233.09 945.552 233.637 947.028 233.637C948.505 233.637 950.036 233.09 951.239 232.215C951.841 231.777 952.661 231.777 953.263 232.215Z" fill="white"/>
<path d="M863.381 295.144C863.381 294.28 863.525 293.352 863.829 292.36L865.573 292.68C865.365 293.4 865.269 294.04 865.269 294.584C865.269 296.216 866.229 297.032 868.149 297.032H874.613C875.957 297.032 877.045 296.84 877.621 296.568V291H879.525V298.024C878.453 298.6 876.629 299 874.341 299H868.021C865.077 299 863.381 297.944 863.381 295.144ZM868.757 290.376C868.757 289.736 869.269 289.224 869.925 289.224C870.549 289.224 871.061 289.736 871.061 290.376C871.061 291.016 870.549 291.528 869.925 291.528C869.269 291.528 868.757 291.016 868.757 290.376ZM871.909 290.376C871.909 289.736 872.405 289.224 873.045 289.224C873.685 289.224 874.197 289.736 874.197 290.376C874.197 291.016 873.685 291.528 873.045 291.528C872.405 291.528 871.909 291.016 871.909 290.376ZM886.961 297.032H887.217V298.968C887.217 298.984 887.137 299 886.961 299H886.945C885.537 299 884.257 298.648 883.345 298.136C882.769 297.832 882.577 297.512 882.577 296.824V287.32H884.481V296.52C885.137 296.856 886.049 297.032 886.961 297.032ZM897.025 295.64C897.025 298.04 895.329 299.8 892.977 299.8C891.681 299.8 890.545 299.272 889.793 298.328C888.929 298.776 887.985 299 886.977 299H886.961C886.785 299 886.705 298.984 886.705 298.968V297.032H886.961C887.777 297.032 888.465 296.904 889.025 296.664C888.945 296.36 888.913 296.024 888.913 295.64C888.913 293.24 890.625 291.48 892.977 291.48C895.329 291.48 897.025 293.24 897.025 295.64ZM895.137 295.64C895.137 294.296 894.273 293.32 892.945 293.32C891.665 293.32 890.801 294.296 890.801 295.64C890.801 296.984 891.665 297.96 892.945 297.96C894.273 297.96 895.137 296.984 895.137 295.64ZM908.553 297.032V298.968C908.553 298.984 908.473 299 908.297 299H898.745V297.032H904.201V294.824C904.201 293.352 903.593 292.92 901.993 292.92H900.233V291.016H901.561C904.953 291.016 906.105 292.008 906.105 294.744V297.032H908.553ZM919.089 297.032V298.968C919.089 298.984 919.009 299 918.833 299H908.289C908.113 299 908.033 298.984 908.033 298.968V297.032H915.153C914.577 296.392 914.337 295.816 914.033 294.744C913.457 292.84 913.297 292.344 911.825 292.264C911.169 292.264 910.577 292.44 909.793 292.936L908.769 291.624C909.761 290.856 910.817 290.472 911.953 290.472C914.273 290.52 915.009 291.48 915.729 294.008C916.097 295.304 916.433 296.2 917.073 296.84C917.249 296.984 917.537 297.032 918.065 297.032H919.089ZM910.945 288.12C910.945 287.464 911.457 286.952 912.113 286.952C912.753 286.952 913.265 287.464 913.265 288.12C913.265 288.76 912.753 289.272 912.113 289.272C911.457 289.272 910.945 288.76 910.945 288.12ZM923.22 287.32V297.336C922.26 298.296 920.596 299 918.852 299H918.836C918.66 299 918.58 298.984 918.58 298.968V297.032H918.836C919.732 297.032 920.676 296.856 921.316 296.52V287.32H923.22ZM926.452 299V287.32H928.356V299H926.452ZM938.825 292.024V298.44C938.825 301.704 937.017 303.16 934.089 303.16C933.145 303.16 932.089 303 931.241 302.696L931.577 300.888C932.201 301.128 933.209 301.336 934.153 301.336C935.993 301.336 936.809 300.584 936.921 299H935.529C932.633 299 930.921 297.4 930.921 295.096C930.921 292.744 932.633 291.144 935.305 291.144C936.473 291.144 937.657 291.432 938.825 292.024ZM935.225 297.032H936.921V293.32C936.361 293.048 935.785 292.92 935.193 292.92C933.801 292.92 932.809 293.656 932.809 294.984C932.809 296.28 933.801 297.032 935.225 297.032ZM958.866 297.032H959.122V298.968C959.122 298.984 959.042 299 958.866 299H958.85C957.874 299 957.042 298.808 956.322 298.44V301.656C954.578 302.664 952.818 303.16 951.026 303.16C947.522 303.16 945.442 301.176 945.442 298.024C945.442 297.24 945.554 296.44 945.762 295.64L947.506 295.96C947.362 296.536 947.298 297.096 947.298 297.656C947.298 299.944 948.674 301.208 951.234 301.208C952.37 301.208 953.474 300.968 954.546 300.472V292.968H956.386V296.152C956.386 296.392 956.498 296.552 956.738 296.648C957.314 296.904 958.018 297.032 958.866 297.032ZM949.506 292.568C949.506 291.912 950.018 291.4 950.674 291.4C951.314 291.4 951.826 291.912 951.826 292.568C951.826 293.208 951.314 293.72 950.674 293.72C950.018 293.72 949.506 293.208 949.506 292.568ZM969.558 297.032V298.968C969.558 298.984 969.478 299 969.302 299H958.758C958.582 299 958.502 298.984 958.502 298.968V297.032H965.622C965.046 296.392 964.806 295.816 964.502 294.744C963.926 292.84 963.766 292.344 962.294 292.264C961.638 292.264 961.046 292.44 960.262 292.936L959.238 291.624C960.23 290.856 961.286 290.472 962.422 290.472C964.742 290.52 965.478 291.48 966.198 294.008C966.566 295.304 966.902 296.2 967.542 296.84C967.718 296.984 968.006 297.032 968.534 297.032H969.558ZM986.425 297.032H986.681V298.968C986.681 298.984 986.601 299 986.425 299H986.409C985.289 299 984.217 298.728 983.209 298.2C982.441 298.712 981.481 299 980.473 299C979.529 299 978.681 298.712 977.929 298.152C977.177 298.712 976.313 299 975.353 299C974.265 299 973.337 298.632 972.697 298.136C971.945 298.632 970.713 299 969.321 299H969.305C969.129 299 969.049 298.984 969.049 298.968V297.032H969.305C970.217 297.032 971.049 296.856 971.785 296.504V292.968H973.689V296.536C974.169 296.872 974.713 297.032 975.305 297.032C975.897 297.032 976.425 296.872 976.921 296.552V292.968H978.825V296.552C979.321 296.872 979.849 297.032 980.441 297.032C981.033 297.032 981.577 296.872 982.057 296.536V292.248H983.961V296.52C984.601 296.856 985.513 297.032 986.425 297.032ZM976.809 287.96C976.809 287.384 977.273 286.92 977.865 286.92C978.425 286.92 978.905 287.384 978.905 287.96C978.905 288.536 978.441 289.016 977.865 289.016C977.273 289.016 976.809 288.552 976.809 287.96ZM975.369 290.2C975.369 289.608 975.833 289.144 976.425 289.144C977.001 289.144 977.465 289.608 977.465 290.2C977.465 290.776 977.001 291.24 976.425 291.24C975.833 291.24 975.369 290.776 975.369 290.2ZM978.265 290.2C978.265 289.608 978.745 289.144 979.337 289.144C979.913 289.144 980.361 289.608 980.361 290.2C980.361 290.792 979.913 291.24 979.337 291.24C978.745 291.24 978.265 290.792 978.265 290.2ZM990.814 287.32V297.336C989.854 298.296 988.19 299 986.446 299H986.43C986.254 299 986.174 298.984 986.174 298.968V297.032H986.43C987.326 297.032 988.27 296.856 988.91 296.52V287.32H990.814ZM994.046 299V287.32H995.95V299H994.046ZM1017.25 297.048V298.968C1017.25 298.984 1017.17 299 1016.99 299H1014.58V301.56C1013.23 302.504 1011.07 303.16 1008.77 303.16C1004.93 303.16 1002.75 301.144 1002.75 298.024C1002.75 297.224 1002.87 296.424 1003.09 295.64L1004.83 295.976C1004.69 296.44 1004.61 297 1004.61 297.64C1004.61 299.992 1006.13 301.208 1008.96 301.208C1010.21 301.208 1011.44 300.968 1012.67 300.488V298.952H1011.28C1008.35 298.952 1006.67 297.4 1006.67 295.096C1006.67 292.744 1008.39 291.144 1011.06 291.144C1012.23 291.144 1013.41 291.432 1014.58 292.024V297.048H1017.25ZM1010.99 297.032H1012.67V293.32C1012.11 293.048 1011.55 292.92 1010.96 292.92C1009.55 292.92 1008.58 293.656 1008.58 294.984C1008.58 296.28 1009.57 297.032 1010.99 297.032ZM1008.37 288.584C1008.37 287.944 1008.88 287.432 1009.54 287.432C1010.16 287.432 1010.67 287.944 1010.67 288.584C1010.67 289.224 1010.16 289.736 1009.54 289.736C1008.88 289.736 1008.37 289.224 1008.37 288.584ZM1011.52 288.584C1011.52 287.944 1012.02 287.432 1012.66 287.432C1013.3 287.432 1013.81 287.944 1013.81 288.584C1013.81 289.224 1013.3 289.736 1012.66 289.736C1012.02 289.736 1011.52 289.224 1011.52 288.584ZM1021.38 291V297.832C1020.9 298.168 1020.26 298.44 1019.47 298.664C1018.69 298.888 1017.86 299 1017.01 299H1016.99C1016.82 299 1016.74 298.984 1016.74 298.968V297.032H1016.99C1017.97 297.032 1018.91 296.872 1019.47 296.616V291H1021.38ZM1017.04 301.32C1017.04 300.664 1017.55 300.168 1018.21 300.168C1018.85 300.168 1019.34 300.68 1019.34 301.32C1019.34 301.944 1018.83 302.456 1018.21 302.456C1017.55 302.456 1017.04 301.944 1017.04 301.32ZM1020.19 301.32C1020.19 300.664 1020.69 300.168 1021.33 300.168C1021.97 300.168 1022.48 300.664 1022.48 301.32C1022.48 301.944 1021.97 302.456 1021.33 302.456C1020.69 302.456 1020.19 301.944 1020.19 301.32ZM1031.16 297.032H1031.41V298.968C1031.41 298.984 1031.33 299 1031.16 299H1031.14C1030.26 299 1029.43 298.84 1028.64 298.504C1028.63 301.72 1027.03 303.16 1024.29 303.16C1023.89 303.16 1023.51 303.128 1023.17 303.08L1023.54 301.176C1023.78 301.208 1024 301.224 1024.23 301.224C1026.04 301.224 1026.74 300.344 1026.74 298.488V291.208H1028.64V296.44C1029.27 296.84 1030.1 297.032 1031.16 297.032ZM1040.43 291.16V298.024C1039.34 298.584 1037.47 299 1035.23 299H1031.15C1030.97 299 1030.89 298.984 1030.89 298.968V297.032H1035.13C1033.72 296.408 1032.81 295.384 1032.81 293.784C1032.81 291.544 1034.6 290.216 1036.97 290.216C1038.17 290.216 1039.32 290.536 1040.43 291.16ZM1034.72 293.944C1034.72 295.496 1036.17 296.392 1038.52 296.52V292.408C1038.01 292.168 1037.47 292.04 1036.88 292.04C1035.55 292.04 1034.72 292.776 1034.72 293.944ZM1035.74 287.672C1035.74 287.016 1036.25 286.504 1036.91 286.504C1037.55 286.504 1038.06 287.016 1038.06 287.672C1038.06 288.312 1037.55 288.824 1036.91 288.824C1036.25 288.824 1035.74 288.312 1035.74 287.672ZM936.535 321.032V322.968C936.535 322.984 936.455 323 936.279 323H930.567C927.799 323 925.975 321.416 925.975 318.92C925.975 316.424 927.719 314.84 930.343 314.84C931.687 314.84 933.015 315.256 933.847 315.72V321.032H936.535ZM930.295 321.032H931.943V317.032C931.447 316.76 930.855 316.632 930.199 316.632C928.855 316.632 927.863 317.4 927.863 318.856C927.863 320.264 928.823 321.032 930.295 321.032ZM927.639 312.296C927.639 311.656 928.151 311.144 928.807 311.144C929.431 311.144 929.943 311.656 929.943 312.296C929.943 312.936 929.431 313.448 928.807 313.448C928.151 313.448 927.639 312.936 927.639 312.296ZM930.791 312.296C930.791 311.656 931.287 311.144 931.927 311.144C932.567 311.144 933.079 311.656 933.079 312.296C933.079 312.936 932.567 313.448 931.927 313.448C931.287 313.448 930.791 312.936 930.791 312.296ZM940.665 315V321.832C940.185 322.168 939.545 322.44 938.761 322.664C937.977 322.888 937.145 323 936.297 323H936.281C936.105 323 936.025 322.984 936.025 322.968V321.032H936.281C937.257 321.032 938.201 320.872 938.761 320.616V315H940.665ZM936.329 325.32C936.329 324.664 936.841 324.168 937.497 324.168C938.137 324.168 938.633 324.68 938.633 325.32C938.633 325.944 938.121 326.456 937.497 326.456C936.841 326.456 936.329 325.944 936.329 325.32ZM939.481 325.32C939.481 324.664 939.977 324.168 940.617 324.168C941.257 324.168 941.769 324.664 941.769 325.32C941.769 325.944 941.257 326.456 940.617 326.456C939.977 326.456 939.481 325.944 939.481 325.32ZM950.445 321.032H950.701V322.968C950.701 322.984 950.621 323 950.445 323H950.429C949.549 323 948.717 322.84 947.933 322.504C947.917 325.72 946.317 327.16 943.581 327.16C943.181 327.16 942.797 327.128 942.461 327.08L942.829 325.176C943.069 325.208 943.293 325.224 943.517 325.224C945.325 325.224 946.029 324.344 946.029 322.488V315.208H947.933V320.44C948.557 320.84 949.389 321.032 950.445 321.032ZM961.238 321.032V322.968C961.238 322.984 961.158 323 960.982 323H950.438C950.261 323 950.181 322.984 950.181 322.968V321.032H957.302C956.726 320.392 956.486 319.816 956.182 318.744C955.606 316.84 955.446 316.344 953.974 316.264C953.318 316.264 952.726 316.44 951.942 316.936L950.918 315.624C951.91 314.856 952.966 314.472 954.102 314.472C956.422 314.52 957.158 315.48 957.878 318.008C958.246 319.304 958.582 320.2 959.222 320.84C959.398 320.984 959.686 321.032 960.214 321.032H961.238ZM967.832 321.032H968.088V322.968C968.088 322.984 968.008 323 967.832 323H967.816C966.584 323 965.448 322.712 964.408 322.12C963.384 322.712 962.248 323 961 323H960.984C960.808 323 960.728 322.984 960.728 322.968V321.032H960.984C961.96 321.032 962.776 320.856 963.464 320.52V315H965.368V320.52C966.008 320.856 966.92 321.032 967.832 321.032ZM963.272 325.32C963.272 324.664 963.784 324.168 964.44 324.168C965.08 324.168 965.592 324.664 965.592 325.32C965.592 325.976 965.08 326.488 964.44 326.488C963.784 326.488 963.272 325.976 963.272 325.32ZM972.212 311.32V321.336C971.252 322.296 969.588 323 967.844 323H967.828C967.652 323 967.572 322.984 967.572 322.968V321.032H967.828C968.724 321.032 969.668 320.856 970.308 320.52V311.32H972.212ZM975.444 323V311.32H977.348V323H975.444Z" fill="#111827"/>
<circle cx="739" cy="194" r="36" fill="#4590BF"/>
<path d="M749.888 190.637C751.747 190.637 755.028 192.223 755.028 194.137C755.028 196.105 751.747 197.637 749.888 197.637H743.489L738.021 207.262C737.692 207.809 737.091 208.137 736.489 208.137H733.427C732.825 208.137 732.388 207.59 732.552 207.043L735.231 197.637H729.653L727.247 200.809C727.083 201.027 726.864 201.137 726.591 201.137H724.294C723.856 201.137 723.528 200.809 723.528 200.371C723.528 200.316 723.528 200.262 723.528 200.207L725.278 194.137L723.528 188.121C723.528 188.066 723.528 188.012 723.528 187.902C723.528 187.52 723.856 187.137 724.294 187.137H726.591C726.864 187.137 727.083 187.301 727.247 187.52L729.653 190.637H735.231L732.552 181.285C732.388 180.738 732.825 180.137 733.427 180.137H736.489C737.091 180.137 737.692 180.52 738.021 181.066L743.489 190.637H749.888Z" fill="white"/>
<path d="M673.849 266.208C673.849 266.352 673.881 266.512 673.929 266.704L675.609 272.4C674.889 272.832 673.977 273.232 672.873 273.6C671.769 273.968 670.649 274.16 669.513 274.16C665.961 274.16 663.817 272.176 663.817 269.04C663.817 268.256 663.929 267.456 664.137 266.64L665.881 266.976C665.737 267.472 665.673 268.032 665.673 268.64C665.673 270.944 667.065 272.208 669.641 272.208C670.297 272.208 670.985 272.128 671.705 271.968C672.425 271.824 673.017 271.648 673.481 271.44L672.105 266.896C671.993 266.528 671.929 266.16 671.929 265.792C671.929 264.256 673.129 263.312 674.809 263.312H678.185L679.977 269.584L678.265 270.032L676.841 265.12H675.209C674.361 265.12 673.849 265.52 673.849 266.208ZM666.713 276.8C666.713 276.144 667.225 275.648 667.881 275.648C668.521 275.648 669.017 276.16 669.017 276.8C669.017 277.424 668.505 277.936 667.881 277.936C667.225 277.936 666.713 277.424 666.713 276.8ZM669.865 276.8C669.865 276.144 670.361 275.648 671.001 275.648C671.641 275.648 672.153 276.144 672.153 276.8C672.153 277.424 671.641 277.936 671.001 277.936C670.361 277.936 669.865 277.424 669.865 276.8ZM692.325 268.032V269.968C692.325 269.984 692.245 270 692.069 270H689.621C689.429 272.864 687.637 274.16 684.901 274.16C683.957 274.16 682.901 274 682.053 273.696L682.389 271.888C683.013 272.128 684.021 272.336 684.965 272.336C686.805 272.336 687.621 271.584 687.733 270H686.341C683.445 270 681.733 268.4 681.733 266.096C681.733 263.744 683.445 262.144 686.117 262.144C687.285 262.144 688.469 262.432 689.637 263.024V268.032H692.325ZM686.037 268.032H687.733V264.32C687.173 264.048 686.597 263.92 686.005 263.92C684.613 263.92 683.621 264.656 683.621 265.984C683.621 267.28 684.613 268.032 686.037 268.032ZM702.87 268.032V269.968C702.87 269.984 702.79 270 702.614 270H692.07C691.894 270 691.814 269.984 691.814 269.968V268.032H698.934C698.358 267.392 698.118 266.816 697.814 265.744C697.238 263.84 697.078 263.344 695.606 263.264C694.95 263.264 694.358 263.44 693.574 263.936L692.55 262.624C693.542 261.856 694.598 261.472 695.734 261.472C698.054 261.52 698.79 262.48 699.51 265.008C699.878 266.304 700.214 267.2 700.854 267.84C701.03 267.984 701.318 268.032 701.846 268.032H702.87ZM695.398 272.32C695.398 271.664 695.91 271.168 696.566 271.168C697.206 271.168 697.718 271.664 697.718 272.32C697.718 272.976 697.206 273.488 696.566 273.488C695.91 273.488 695.398 272.976 695.398 272.32ZM707.001 258.32V268.336C706.041 269.296 704.377 270 702.633 270H702.617C702.441 270 702.361 269.984 702.361 269.968V268.032H702.617C703.513 268.032 704.457 267.856 705.097 267.52V258.32H707.001ZM710.233 270V258.32H712.137V270H710.233ZM732.366 268.032H732.622V269.968C732.622 269.984 732.542 270 732.366 270H732.35C731.374 270 730.542 269.808 729.822 269.44V272.656C728.078 273.664 726.318 274.16 724.526 274.16C721.022 274.16 718.942 272.176 718.942 269.024C718.942 268.24 719.054 267.44 719.262 266.64L721.006 266.96C720.862 267.536 720.798 268.096 720.798 268.656C720.798 270.944 722.174 272.208 724.734 272.208C725.87 272.208 726.974 271.968 728.046 271.472V263.968H729.886V267.152C729.886 267.392 729.998 267.552 730.238 267.648C730.814 267.904 731.518 268.032 732.366 268.032ZM723.006 263.568C723.006 262.912 723.518 262.4 724.174 262.4C724.814 262.4 725.326 262.912 725.326 263.568C725.326 264.208 724.814 264.72 724.174 264.72C723.518 264.72 723.006 264.208 723.006 263.568ZM743.058 268.032V269.968C743.058 269.984 742.978 270 742.802 270H732.258C732.082 270 732.002 269.984 732.002 269.968V268.032H739.122C738.546 267.392 738.306 266.816 738.002 265.744C737.426 263.84 737.266 263.344 735.794 263.264C735.138 263.264 734.546 263.44 733.762 263.936L732.738 262.624C733.73 261.856 734.786 261.472 735.922 261.472C738.242 261.52 738.978 262.48 739.698 265.008C740.066 266.304 740.402 267.2 741.042 267.84C741.218 267.984 741.506 268.032 742.034 268.032H743.058ZM759.925 268.032H760.181V269.968C760.181 269.984 760.101 270 759.925 270H759.909C758.789 270 757.717 269.728 756.709 269.2C755.941 269.712 754.981 270 753.973 270C753.029 270 752.181 269.712 751.429 269.152C750.677 269.712 749.813 270 748.853 270C747.765 270 746.837 269.632 746.197 269.136C745.445 269.632 744.213 270 742.821 270H742.805C742.629 270 742.549 269.984 742.549 269.968V268.032H742.805C743.717 268.032 744.549 267.856 745.285 267.504V263.968H747.189V267.536C747.669 267.872 748.213 268.032 748.805 268.032C749.397 268.032 749.925 267.872 750.421 267.552V263.968H752.325V267.552C752.821 267.872 753.349 268.032 753.941 268.032C754.533 268.032 755.077 267.872 755.557 267.536V263.248H757.461V267.52C758.101 267.856 759.013 268.032 759.925 268.032ZM750.309 258.96C750.309 258.384 750.773 257.92 751.365 257.92C751.925 257.92 752.405 258.384 752.405 258.96C752.405 259.536 751.941 260.016 751.365 260.016C750.773 260.016 750.309 259.552 750.309 258.96ZM748.869 261.2C748.869 260.608 749.333 260.144 749.925 260.144C750.501 260.144 750.965 260.608 750.965 261.2C750.965 261.776 750.501 262.24 749.925 262.24C749.333 262.24 748.869 261.776 748.869 261.2ZM751.765 261.2C751.765 260.608 752.245 260.144 752.837 260.144C753.413 260.144 753.861 260.608 753.861 261.2C753.861 261.792 753.413 262.24 752.837 262.24C752.245 262.24 751.765 261.792 751.765 261.2ZM764.314 258.32V268.336C763.354 269.296 761.69 270 759.946 270H759.93C759.754 270 759.674 269.984 759.674 269.968V268.032H759.93C760.826 268.032 761.77 267.856 762.41 267.52V258.32H764.314ZM767.546 270V258.32H769.45V270H767.546ZM790.75 268.048V269.968C790.75 269.984 790.67 270 790.494 270H788.078V272.56C786.734 273.504 784.574 274.16 782.27 274.16C778.43 274.16 776.254 272.144 776.254 269.024C776.254 268.224 776.366 267.424 776.59 266.64L778.334 266.976C778.19 267.44 778.11 268 778.11 268.64C778.11 270.992 779.63 272.208 782.462 272.208C783.71 272.208 784.942 271.968 786.174 271.488V269.952H784.782C781.854 269.952 780.174 268.4 780.174 266.096C780.174 263.744 781.886 262.144 784.558 262.144C785.726 262.144 786.91 262.432 788.078 263.024V268.048H790.75ZM784.494 268.032H786.174V264.32C785.614 264.048 785.054 263.92 784.462 263.92C783.054 263.92 782.078 264.656 782.078 265.984C782.078 267.28 783.07 268.032 784.494 268.032ZM781.87 259.584C781.87 258.944 782.382 258.432 783.038 258.432C783.662 258.432 784.174 258.944 784.174 259.584C784.174 260.224 783.662 260.736 783.038 260.736C782.382 260.736 781.87 260.224 781.87 259.584ZM785.022 259.584C785.022 258.944 785.518 258.432 786.158 258.432C786.798 258.432 787.31 258.944 787.31 259.584C787.31 260.224 786.798 260.736 786.158 260.736C785.518 260.736 785.022 260.224 785.022 259.584ZM794.876 262V268.832C794.396 269.168 793.756 269.44 792.972 269.664C792.188 269.888 791.356 270 790.508 270H790.492C790.316 270 790.236 269.984 790.236 269.968V268.032H790.492C791.468 268.032 792.412 267.872 792.972 267.616V262H794.876ZM790.54 272.32C790.54 271.664 791.052 271.168 791.708 271.168C792.348 271.168 792.844 271.68 792.844 272.32C792.844 272.944 792.332 273.456 791.708 273.456C791.052 273.456 790.54 272.944 790.54 272.32ZM793.692 272.32C793.692 271.664 794.188 271.168 794.828 271.168C795.468 271.168 795.98 271.664 795.98 272.32C795.98 272.944 795.468 273.456 794.828 273.456C794.188 273.456 793.692 272.944 793.692 272.32ZM804.656 268.032H804.912V269.968C804.912 269.984 804.832 270 804.656 270H804.64C803.76 270 802.928 269.84 802.144 269.504C802.128 272.72 800.528 274.16 797.792 274.16C797.392 274.16 797.008 274.128 796.672 274.08L797.04 272.176C797.28 272.208 797.504 272.224 797.728 272.224C799.536 272.224 800.24 271.344 800.24 269.488V262.208H802.144V267.44C802.768 267.84 803.6 268.032 804.656 268.032ZM813.928 262.16V269.024C812.84 269.584 810.968 270 808.728 270H804.648C804.472 270 804.392 269.984 804.392 269.968V268.032H808.632C807.224 267.408 806.312 266.384 806.312 264.784C806.312 262.544 808.104 261.216 810.472 261.216C811.672 261.216 812.824 261.536 813.928 262.16ZM808.216 264.944C808.216 266.496 809.672 267.392 812.024 267.52V263.408C811.512 263.168 810.968 263.04 810.376 263.04C809.048 263.04 808.216 263.776 808.216 264.944ZM809.24 258.672C809.24 258.016 809.752 257.504 810.408 257.504C811.048 257.504 811.56 258.016 811.56 258.672C811.56 259.312 811.048 259.824 810.408 259.824C809.752 259.824 809.24 259.312 809.24 258.672Z" fill="#111827"/>
<circle cx="526" cy="223" r="36" fill="#4590BF"/>
<path d="M516.763 212.363C517.2 211.488 518.13 210.887 519.114 210.887H525.403V217.887H514.028L516.763 212.363ZM527.153 217.887V210.887H533.388C534.372 210.887 535.302 211.488 535.739 212.363L538.528 217.887H527.153ZM538.528 219.637V231.887C538.528 233.855 536.942 235.387 535.028 235.387H517.528C515.56 235.387 514.028 233.855 514.028 231.887V219.637H538.528Z" fill="white"/>
<path d="M469.615 295.144C469.615 294.28 469.759 293.352 470.063 292.36L471.807 292.68C471.599 293.4 471.503 294.04 471.503 294.584C471.503 296.216 472.463 297.032 474.383 297.032H480.847C482.191 297.032 483.279 296.84 483.855 296.568V291H485.759V298.024C484.687 298.6 482.863 299 480.575 299H474.255C471.311 299 469.615 297.944 469.615 295.144ZM474.991 290.376C474.991 289.736 475.503 289.224 476.159 289.224C476.783 289.224 477.295 289.736 477.295 290.376C477.295 291.016 476.783 291.528 476.159 291.528C475.503 291.528 474.991 291.016 474.991 290.376ZM478.143 290.376C478.143 289.736 478.639 289.224 479.279 289.224C479.919 289.224 480.431 289.736 480.431 290.376C480.431 291.016 479.919 291.528 479.279 291.528C478.639 291.528 478.143 291.016 478.143 290.376ZM493.195 297.032H493.451V298.968C493.451 298.984 493.371 299 493.195 299H493.179C491.771 299 490.491 298.648 489.579 298.136C489.003 297.832 488.811 297.512 488.811 296.824V287.32H490.715V296.52C491.371 296.856 492.283 297.032 493.195 297.032ZM509.739 297.032V298.968C509.739 298.984 509.659 299 509.483 299H493.195C493.019 299 492.939 298.984 492.939 298.968V297.032H495.675V291.608H497.579V293.528C499.547 291.496 501.227 290.472 503.163 290.472C504.363 290.472 505.323 290.856 506.043 291.608C506.779 292.36 507.147 293.464 507.147 294.888V297.032H509.739ZM497.579 297.032H505.259V295.192C505.259 294.376 505.067 293.688 504.683 293.144C504.315 292.6 503.707 292.328 502.859 292.328C501.243 292.328 499.675 293.432 497.579 295.864V297.032ZM516.325 297.032H516.581V298.968C516.581 298.984 516.501 299 516.325 299H516.309C515.077 299 513.941 298.712 512.901 298.12C511.877 298.712 510.741 299 509.493 299H509.477C509.301 299 509.221 298.984 509.221 298.968V297.032H509.477C510.453 297.032 511.269 296.856 511.957 296.52V291H513.861V296.52C514.501 296.856 515.413 297.032 516.325 297.032ZM511.765 288.408C511.765 287.752 512.277 287.24 512.933 287.24C513.573 287.24 514.085 287.752 514.085 288.408C514.085 289.048 513.573 289.56 512.933 289.56C512.277 289.56 511.765 289.048 511.765 288.408ZM528.192 297.032H528.448V298.968C528.448 298.984 528.368 299 528.192 299H528.176C527.168 299 526.24 298.776 525.424 298.328C524.704 299.24 523.552 299.8 522.256 299.8C520.96 299.8 519.808 299.24 519.088 298.328C518.272 298.776 517.344 299 516.336 299H516.32C516.144 299 516.064 298.984 516.064 298.968V297.032H516.32C517.088 297.032 517.744 296.92 518.304 296.68C518.224 296.376 518.192 296.024 518.192 295.64C518.192 293.24 519.904 291.48 522.256 291.48C524.608 291.48 526.304 293.24 526.304 295.64C526.304 296.024 526.272 296.36 526.192 296.664C526.736 296.904 527.408 297.032 528.192 297.032ZM524.416 295.64C524.416 294.296 523.552 293.32 522.224 293.32C520.944 293.32 520.08 294.296 520.08 295.64C520.08 296.984 520.944 297.96 522.224 297.96C523.552 297.96 524.416 296.984 524.416 295.64ZM532.579 287.32V297.336C531.619 298.296 529.955 299 528.211 299H528.195C528.019 299 527.939 298.984 527.939 298.968V297.032H528.195C529.091 297.032 530.035 296.856 530.675 296.52V287.32H532.579ZM535.811 299V287.32H537.715V299H535.811ZM559.016 297.048V298.968C559.016 298.984 558.936 299 558.76 299H556.344V301.56C555 302.504 552.84 303.16 550.536 303.16C546.696 303.16 544.52 301.144 544.52 298.024C544.52 297.224 544.632 296.424 544.856 295.64L546.6 295.976C546.456 296.44 546.376 297 546.376 297.64C546.376 299.992 547.896 301.208 550.728 301.208C551.976 301.208 553.208 300.968 554.44 300.488V298.952H553.048C550.12 298.952 548.44 297.4 548.44 295.096C548.44 292.744 550.152 291.144 552.824 291.144C553.992 291.144 555.176 291.432 556.344 292.024V297.048H559.016ZM552.76 297.032H554.44V293.32C553.88 293.048 553.32 292.92 552.728 292.92C551.32 292.92 550.344 293.656 550.344 294.984C550.344 296.28 551.336 297.032 552.76 297.032ZM550.136 288.584C550.136 287.944 550.648 287.432 551.304 287.432C551.928 287.432 552.44 287.944 552.44 288.584C552.44 289.224 551.928 289.736 551.304 289.736C550.648 289.736 550.136 289.224 550.136 288.584ZM553.288 288.584C553.288 287.944 553.784 287.432 554.424 287.432C555.064 287.432 555.576 287.944 555.576 288.584C555.576 289.224 555.064 289.736 554.424 289.736C553.784 289.736 553.288 289.224 553.288 288.584ZM563.142 291V297.832C562.662 298.168 562.022 298.44 561.238 298.664C560.454 298.888 559.622 299 558.774 299H558.758C558.582 299 558.502 298.984 558.502 298.968V297.032H558.758C559.734 297.032 560.678 296.872 561.238 296.616V291H563.142ZM558.806 301.32C558.806 300.664 559.318 300.168 559.974 300.168C560.614 300.168 561.11 300.68 561.11 301.32C561.11 301.944 560.598 302.456 559.974 302.456C559.318 302.456 558.806 301.944 558.806 301.32ZM561.958 301.32C561.958 300.664 562.454 300.168 563.094 300.168C563.734 300.168 564.246 300.664 564.246 301.32C564.246 301.944 563.734 302.456 563.094 302.456C562.454 302.456 561.958 301.944 561.958 301.32ZM572.921 297.032H573.177V298.968C573.177 298.984 573.097 299 572.921 299H572.905C572.025 299 571.193 298.84 570.409 298.504C570.393 301.72 568.793 303.16 566.057 303.16C565.657 303.16 565.273 303.128 564.937 303.08L565.305 301.176C565.545 301.208 565.769 301.224 565.993 301.224C567.801 301.224 568.505 300.344 568.505 298.488V291.208H570.409V296.44C571.033 296.84 571.865 297.032 572.921 297.032ZM582.194 291.16V298.024C581.106 298.584 579.234 299 576.994 299H572.914C572.738 299 572.658 298.984 572.658 298.968V297.032H576.898C575.49 296.408 574.578 295.384 574.578 293.784C574.578 291.544 576.37 290.216 578.738 290.216C579.938 290.216 581.09 290.536 582.194 291.16ZM576.482 293.944C576.482 295.496 577.938 296.392 580.29 296.52V292.408C579.778 292.168 579.234 292.04 578.642 292.04C577.314 292.04 576.482 292.776 576.482 293.944ZM577.506 287.672C577.506 287.016 578.018 286.504 578.674 286.504C579.314 286.504 579.826 287.016 579.826 287.672C579.826 288.312 579.314 288.824 578.674 288.824C578.018 288.824 577.506 288.312 577.506 287.672ZM464.022 321.032H464.278V322.968C464.278 322.984 464.198 323 464.022 323H464.006C463.03 323 462.198 322.808 461.478 322.44V325.656C459.734 326.664 457.974 327.16 456.182 327.16C452.678 327.16 450.598 325.176 450.598 322.024C450.598 321.24 450.71 320.44 450.918 319.64L452.662 319.96C452.518 320.536 452.454 321.096 452.454 321.656C452.454 323.944 453.83 325.208 456.39 325.208C457.526 325.208 458.63 324.968 459.702 324.472V316.968H461.542V320.152C461.542 320.392 461.654 320.552 461.894 320.648C462.47 320.904 463.174 321.032 464.022 321.032ZM454.662 316.568C454.662 315.912 455.174 315.4 455.83 315.4C456.47 315.4 456.982 315.912 456.982 316.568C456.982 317.208 456.47 317.72 455.83 317.72C455.174 317.72 454.662 317.208 454.662 316.568ZM468.298 315V321.832C467.818 322.168 467.178 322.44 466.394 322.664C465.61 322.888 464.778 323 463.93 323H463.914C463.738 323 463.658 322.984 463.658 322.968V321.032H463.914C464.89 321.032 465.834 320.872 466.394 320.616V315H468.298ZM463.962 325.32C463.962 324.664 464.474 324.168 465.13 324.168C465.77 324.168 466.266 324.68 466.266 325.32C466.266 325.944 465.754 326.456 465.13 326.456C464.474 326.456 463.962 325.944 463.962 325.32ZM467.114 325.32C467.114 324.664 467.61 324.168 468.25 324.168C468.89 324.168 469.402 324.664 469.402 325.32C469.402 325.944 468.89 326.456 468.25 326.456C467.61 326.456 467.114 325.944 467.114 325.32ZM478.078 321.032H478.334V322.968C478.334 322.984 478.254 323 478.078 323H478.062C477.182 323 476.35 322.84 475.566 322.504C475.55 325.72 473.95 327.16 471.214 327.16C470.814 327.16 470.43 327.128 470.094 327.08L470.462 325.176C470.702 325.208 470.926 325.224 471.15 325.224C472.958 325.224 473.662 324.344 473.662 322.488V315.208H475.566V320.44C476.19 320.84 477.022 321.032 478.078 321.032ZM473.486 312.488C473.486 311.832 473.998 311.32 474.654 311.32C475.294 311.32 475.806 311.832 475.806 312.488C475.806 313.128 475.294 313.64 474.654 313.64C473.998 313.64 473.486 313.128 473.486 312.488ZM488.87 321.032V322.968C488.87 322.984 488.79 323 488.614 323H478.07C477.894 323 477.814 322.984 477.814 322.968V321.032H484.934C484.358 320.392 484.118 319.816 483.814 318.744C483.238 316.84 483.078 316.344 481.606 316.264C480.95 316.264 480.358 316.44 479.574 316.936L478.55 315.624C479.542 314.856 480.598 314.472 481.734 314.472C484.054 314.52 484.79 315.48 485.51 318.008C485.878 319.304 486.214 320.2 486.854 320.84C487.03 320.984 487.318 321.032 487.846 321.032H488.87ZM480.726 312.12C480.726 311.464 481.238 310.952 481.894 310.952C482.534 310.952 483.046 311.464 483.046 312.12C483.046 312.76 482.534 313.272 481.894 313.272C481.238 313.272 480.726 312.76 480.726 312.12ZM495.465 321.032H495.721V322.968C495.721 322.984 495.641 323 495.465 323H495.449C494.217 323 493.081 322.712 492.041 322.12C491.017 322.712 489.881 323 488.633 323H488.617C488.441 323 488.361 322.984 488.361 322.968V321.032H488.617C489.593 321.032 490.409 320.856 491.097 320.52V315H493.001V320.52C493.641 320.856 494.553 321.032 495.465 321.032ZM489.353 312.408C489.353 311.768 489.865 311.256 490.521 311.256C491.145 311.256 491.657 311.768 491.657 312.408C491.657 313.048 491.145 313.56 490.521 313.56C489.865 313.56 489.353 313.048 489.353 312.408ZM492.505 312.408C492.505 311.768 493.001 311.256 493.641 311.256C494.281 311.256 494.793 311.768 494.793 312.408C494.793 313.048 494.281 313.56 493.641 313.56C493.001 313.56 492.505 313.048 492.505 312.408ZM499.845 311.32V321.336C498.885 322.296 497.221 323 495.477 323H495.461C495.285 323 495.205 322.984 495.205 322.968V321.032H495.461C496.357 321.032 497.301 320.856 497.941 320.52V311.32H499.845ZM503.077 323V311.32H504.981V323H503.077ZM515.45 316.024V322.44C515.45 325.704 513.642 327.16 510.714 327.16C509.77 327.16 508.714 327 507.866 326.696L508.202 324.888C508.826 325.128 509.834 325.336 510.778 325.336C512.618 325.336 513.434 324.584 513.546 323H512.154C509.258 323 507.546 321.4 507.546 319.096C507.546 316.744 509.258 315.144 511.93 315.144C513.098 315.144 514.282 315.432 515.45 316.024ZM511.85 321.032H513.546V317.32C512.986 317.048 512.41 316.92 511.818 316.92C510.426 316.92 509.434 317.656 509.434 318.984C509.434 320.28 510.426 321.032 511.85 321.032ZM532.387 321.032V322.968C532.387 322.984 532.307 323 532.131 323H526.419C523.651 323 521.827 321.416 521.827 318.92C521.827 316.424 523.571 314.84 526.195 314.84C527.539 314.84 528.867 315.256 529.699 315.72V321.032H532.387ZM526.147 321.032H527.795V317.032C527.299 316.76 526.707 316.632 526.051 316.632C524.707 316.632 523.715 317.4 523.715 318.856C523.715 320.264 524.675 321.032 526.147 321.032ZM523.491 312.296C523.491 311.656 524.003 311.144 524.659 311.144C525.283 311.144 525.795 311.656 525.795 312.296C525.795 312.936 525.283 313.448 524.659 313.448C524.003 313.448 523.491 312.936 523.491 312.296ZM526.643 312.296C526.643 311.656 527.139 311.144 527.779 311.144C528.419 311.144 528.931 311.656 528.931 312.296C528.931 312.936 528.419 313.448 527.779 313.448C527.139 313.448 526.643 312.936 526.643 312.296ZM538.981 321.032H539.237V322.968C539.237 322.984 539.157 323 538.981 323H538.965C537.733 323 536.597 322.712 535.557 322.12C534.533 322.712 533.397 323 532.149 323H532.133C531.957 323 531.877 322.984 531.877 322.968V321.032H532.133C533.109 321.032 533.925 320.856 534.613 320.52V315H536.517V320.52C537.157 320.856 538.069 321.032 538.981 321.032ZM532.869 325.32C532.869 324.664 533.381 324.168 534.037 324.168C534.677 324.168 535.173 324.68 535.173 325.32C535.173 325.944 534.661 326.456 534.037 326.456C533.381 326.456 532.869 325.944 532.869 325.32ZM536.021 325.32C536.021 324.664 536.517 324.168 537.157 324.168C537.797 324.168 538.309 324.664 538.309 325.32C538.309 325.944 537.797 326.456 537.157 326.456C536.517 326.456 536.021 325.944 536.021 325.32ZM545.825 321.032H546.081V322.968C546.081 322.984 546.001 323 545.825 323H545.809C544.577 323 543.441 322.712 542.401 322.12C541.377 322.712 540.241 323 538.993 323H538.977C538.801 323 538.721 322.984 538.721 322.968V321.032H538.977C539.953 321.032 540.769 320.856 541.457 320.52V315H543.361V320.52C544.001 320.856 544.913 321.032 545.825 321.032ZM539.713 312.408C539.713 311.768 540.225 311.256 540.881 311.256C541.505 311.256 542.017 311.768 542.017 312.408C542.017 313.048 541.505 313.56 540.881 313.56C540.225 313.56 539.713 313.048 539.713 312.408ZM542.865 312.408C542.865 311.768 543.361 311.256 544.001 311.256C544.641 311.256 545.153 311.768 545.153 312.408C545.153 313.048 544.641 313.56 544.001 313.56C543.361 313.56 542.865 313.048 542.865 312.408ZM562.94 321.032H563.196V322.968C563.196 322.984 563.116 323 562.94 323H562.924C561.804 323 560.732 322.728 559.724 322.2C558.956 322.712 557.996 323 556.988 323C556.044 323 555.196 322.712 554.444 322.152C553.692 322.712 552.828 323 551.868 323C550.78 323 549.852 322.632 549.212 322.136C548.46 322.632 547.228 323 545.836 323H545.82C545.644 323 545.564 322.984 545.564 322.968V321.032H545.82C546.732 321.032 547.564 320.856 548.3 320.504V316.968H550.204V320.536C550.684 320.872 551.228 321.032 551.82 321.032C552.412 321.032 552.94 320.872 553.436 320.552V316.968H555.34V320.552C555.836 320.872 556.364 321.032 556.956 321.032C557.548 321.032 558.092 320.872 558.572 320.536V316.248H560.476V320.52C561.116 320.856 562.028 321.032 562.94 321.032ZM572.465 321.32L571.953 323H562.945C562.769 323 562.689 322.984 562.689 322.968V321.032H569.825C569.265 320.392 569.009 319.8 568.705 318.76C568.161 316.856 567.921 316.36 566.497 316.264C565.841 316.264 565.233 316.44 564.449 316.936L563.425 315.624C564.433 314.856 565.489 314.472 566.609 314.472C568.945 314.52 569.681 315.512 570.401 317.976C570.865 319.72 571.361 320.824 572.465 321.32ZM566.305 325.32C566.305 324.664 566.817 324.168 567.473 324.168C568.113 324.168 568.625 324.664 568.625 325.32C568.625 325.976 568.113 326.488 567.473 326.488C566.817 326.488 566.305 325.976 566.305 325.32ZM584.856 321.032V322.968C584.856 322.984 584.776 323 584.6 323H582.152C581.96 325.864 580.168 327.16 577.432 327.16C576.488 327.16 575.432 327 574.584 326.696L574.92 324.888C575.544 325.128 576.552 325.336 577.496 325.336C579.336 325.336 580.152 324.584 580.264 323H578.872C575.976 323 574.264 321.4 574.264 319.096C574.264 316.744 575.976 315.144 578.648 315.144C579.816 315.144 581 315.432 582.168 316.024V321.032H584.856ZM578.568 321.032H580.264V317.32C579.704 317.048 579.128 316.92 578.536 316.92C577.144 316.92 576.152 317.656 576.152 318.984C576.152 320.28 577.144 321.032 578.568 321.032ZM591.45 321.032H591.706V322.968C591.706 322.984 591.626 323 591.45 323H591.434C590.202 323 589.066 322.712 588.026 322.12C587.002 322.712 585.866 323 584.618 323H584.602C584.426 323 584.346 322.984 584.346 322.968V321.032H584.602C585.578 321.032 586.394 320.856 587.082 320.52V311.32H588.986V320.52C589.626 320.856 590.538 321.032 591.45 321.032ZM595.829 311.32V321.336C594.869 322.296 593.205 323 591.461 323H591.445C591.269 323 591.189 322.984 591.189 322.968V321.032H591.445C592.341 321.032 593.285 320.856 593.925 320.52V311.32H595.829ZM599.061 323V311.32H600.965V323H599.061Z" fill="#111827"/>
<circle cx="313" cy="318" r="36" fill="#4590BF"/>
<path d="M297.747 314.637C296.653 314.637 295.778 313.762 295.778 312.668C295.778 312.23 295.888 311.848 296.106 311.52L300.208 305.34C300.7 304.574 301.521 304.137 302.396 304.137H324.106C324.981 304.137 325.802 304.574 326.294 305.34L330.396 311.52C330.614 311.848 330.724 312.23 330.724 312.668C330.724 313.762 329.849 314.637 328.755 314.637H297.747ZM299.278 316.387H302.778V325.137H313.278V316.387H316.778V325.137V329.512C316.778 330.988 315.575 332.137 314.153 332.137H301.903C300.427 332.137 299.278 330.988 299.278 329.512V325.137V316.387ZM323.778 316.387H327.278V330.387C327.278 331.371 326.458 332.137 325.528 332.137C324.544 332.137 323.778 331.371 323.778 330.387V316.387Z" fill="white"/>
<path d="M231.886 389.744V394H224.526V392.032H229.982V389.824C229.982 388.352 229.374 387.92 227.774 387.92H226.014V386.016H227.342C230.734 386.016 231.886 387.008 231.886 389.744ZM241.934 387.024V393.44C241.934 396.704 240.126 398.16 237.198 398.16C236.254 398.16 235.198 398 234.35 397.696L234.686 395.888C235.31 396.128 236.318 396.336 237.262 396.336C239.102 396.336 239.918 395.584 240.03 394H238.638C235.742 394 234.03 392.4 234.03 390.096C234.03 387.744 235.742 386.144 238.414 386.144C239.582 386.144 240.766 386.432 241.934 387.024ZM238.334 392.032H240.03V388.32C239.47 388.048 238.894 387.92 238.302 387.92C236.91 387.92 235.918 388.656 235.918 389.984C235.918 391.28 236.91 392.032 238.334 392.032ZM253.943 392.032V393.968C253.943 393.984 253.863 394 253.687 394H244.135V392.032H249.591V389.824C249.591 388.352 248.983 387.92 247.383 387.92H245.623V386.016H246.951C250.343 386.016 251.495 387.008 251.495 389.744V392.032H253.943ZM264.48 392.032V393.968C264.48 393.984 264.4 394 264.224 394H253.68C253.504 394 253.424 393.984 253.424 393.968V392.032H260.544C259.968 391.392 259.728 390.816 259.424 389.744C258.848 387.84 258.688 387.344 257.216 387.264C256.56 387.264 255.968 387.44 255.184 387.936L254.16 386.624C255.152 385.856 256.208 385.472 257.344 385.472C259.664 385.52 260.4 386.48 261.12 389.008C261.488 390.304 261.824 391.2 262.464 391.84C262.64 391.984 262.928 392.032 263.456 392.032H264.48ZM268.611 382.32V392.336C267.651 393.296 265.987 394 264.243 394H264.227C264.051 394 263.971 393.984 263.971 393.968V392.032H264.227C265.123 392.032 266.067 391.856 266.707 391.52V382.32H268.611ZM271.843 394V382.32H273.747V394H271.843ZM286.343 392.032H286.599V393.968C286.599 393.984 286.519 394 286.343 394H286.327C285.447 394 284.615 393.84 283.831 393.504C283.815 396.72 282.215 398.16 279.479 398.16C279.079 398.16 278.695 398.128 278.359 398.08L278.727 396.176C278.967 396.208 279.191 396.224 279.415 396.224C281.223 396.224 281.927 395.344 281.927 393.488V386.208H283.831V391.44C284.455 391.84 285.287 392.032 286.343 392.032ZM293.184 392.032H293.44V393.968C293.44 393.984 293.36 394 293.184 394H293.168C291.936 394 290.8 393.712 289.76 393.12C288.736 393.712 287.6 394 286.352 394H286.336C286.16 394 286.08 393.984 286.08 393.968V392.032H286.336C287.312 392.032 288.128 391.856 288.816 391.52V386H290.72V391.52C291.36 391.856 292.272 392.032 293.184 392.032ZM288.624 396.32C288.624 395.664 289.136 395.168 289.792 395.168C290.432 395.168 290.944 395.664 290.944 396.32C290.944 396.976 290.432 397.488 289.792 397.488C289.136 397.488 288.624 396.976 288.624 396.32ZM299.74 392.032H302.924V394H293.18C293.004 394 292.924 393.984 292.924 393.968V392.032H295.98C295.212 391.344 294.78 390.4 294.78 389.296C294.78 387.024 296.588 385.472 298.972 385.472C300.236 385.472 301.356 385.904 302.204 386.624L300.94 387.984C300.492 387.552 299.836 387.28 299.068 387.28C297.676 387.28 296.7 388.192 296.7 389.536C296.7 391.024 297.884 392.032 299.74 392.032ZM308.858 390C308.858 387.6 310.554 385.84 312.906 385.84C315.258 385.84 316.954 387.6 316.954 390C316.954 392.4 315.258 394.16 312.906 394.16C310.554 394.16 308.858 392.4 308.858 390ZM315.082 390C315.082 388.656 314.186 387.664 312.89 387.664C311.61 387.664 310.746 388.656 310.746 390C310.746 391.344 311.594 392.32 312.89 392.32C314.186 392.32 315.082 391.344 315.082 390ZM310.186 383.296C310.186 382.656 310.698 382.144 311.354 382.144C311.978 382.144 312.49 382.656 312.49 383.296C312.49 383.936 311.978 384.448 311.354 384.448C310.698 384.448 310.186 383.936 310.186 383.296ZM313.338 383.296C313.338 382.656 313.834 382.144 314.474 382.144C315.114 382.144 315.626 382.656 315.626 383.296C315.626 383.936 315.114 384.448 314.474 384.448C313.834 384.448 313.338 383.936 313.338 383.296ZM316.406 398.08L316.774 396.176C317.014 396.208 317.238 396.224 317.462 396.224C319.27 396.224 319.974 395.344 319.974 393.488V386.208H321.878V393.472C321.878 396.72 320.262 398.16 317.526 398.16C317.126 398.16 316.742 398.128 316.406 398.08ZM329.414 392.032H329.67V393.968C329.67 393.984 329.59 394 329.414 394H329.398C327.99 394 326.71 393.648 325.798 393.136C325.222 392.832 325.03 392.512 325.03 391.824V382.32H326.934V391.52C327.59 391.856 328.502 392.032 329.414 392.032ZM340.214 392.032V393.968C340.214 393.984 340.134 394 339.958 394H329.414C329.238 394 329.158 393.984 329.158 393.968V392.032H336.278C335.702 391.392 335.462 390.816 335.158 389.744C334.582 387.84 334.422 387.344 332.95 387.264C332.294 387.264 331.702 387.44 330.918 387.936L329.894 386.624C330.886 385.856 331.942 385.472 333.078 385.472C335.398 385.52 336.134 386.48 336.854 389.008C337.222 390.304 337.558 391.2 338.198 391.84C338.374 391.984 338.662 392.032 339.19 392.032H340.214ZM332.742 396.32C332.742 395.664 333.254 395.168 333.91 395.168C334.55 395.168 335.062 395.664 335.062 396.32C335.062 396.976 334.55 397.488 333.91 397.488C333.254 397.488 332.742 396.976 332.742 396.32ZM346.809 392.032H347.065V393.968C347.065 393.984 346.985 394 346.809 394H346.793C345.561 394 344.425 393.712 343.385 393.12C342.361 393.712 341.225 394 339.977 394H339.961C339.785 394 339.705 393.984 339.705 393.968V392.032H339.961C340.937 392.032 341.753 391.856 342.441 391.52V386H344.345V391.52C344.985 391.856 345.897 392.032 346.809 392.032ZM340.697 383.408C340.697 382.768 341.209 382.256 341.865 382.256C342.489 382.256 343.001 382.768 343.001 383.408C343.001 384.048 342.489 384.56 341.865 384.56C341.209 384.56 340.697 384.048 340.697 383.408ZM343.849 383.408C343.849 382.768 344.345 382.256 344.985 382.256C345.625 382.256 346.137 382.768 346.137 383.408C346.137 384.048 345.625 384.56 344.985 384.56C344.345 384.56 343.849 384.048 343.849 383.408ZM351.189 382.32V392.336C350.229 393.296 348.565 394 346.821 394H346.805C346.629 394 346.549 393.984 346.549 393.968V392.032H346.805C347.701 392.032 348.645 391.856 349.285 391.52V382.32H351.189ZM354.421 394V382.32H356.325V394H354.421ZM377.625 392.048V393.968C377.625 393.984 377.545 394 377.369 394H374.953V396.56C373.609 397.504 371.449 398.16 369.145 398.16C365.305 398.16 363.129 396.144 363.129 393.024C363.129 392.224 363.241 391.424 363.465 390.64L365.209 390.976C365.065 391.44 364.985 392 364.985 392.64C364.985 394.992 366.505 396.208 369.337 396.208C370.585 396.208 371.817 395.968 373.049 395.488V393.952H371.657C368.729 393.952 367.049 392.4 367.049 390.096C367.049 387.744 368.761 386.144 371.433 386.144C372.601 386.144 373.785 386.432 374.953 387.024V392.048H377.625ZM371.369 392.032H373.049V388.32C372.489 388.048 371.929 387.92 371.337 387.92C369.929 387.92 368.953 388.656 368.953 389.984C368.953 391.28 369.945 392.032 371.369 392.032ZM368.745 383.584C368.745 382.944 369.257 382.432 369.913 382.432C370.537 382.432 371.049 382.944 371.049 383.584C371.049 384.224 370.537 384.736 369.913 384.736C369.257 384.736 368.745 384.224 368.745 383.584ZM371.897 383.584C371.897 382.944 372.393 382.432 373.033 382.432C373.673 382.432 374.185 382.944 374.185 383.584C374.185 384.224 373.673 384.736 373.033 384.736C372.393 384.736 371.897 384.224 371.897 383.584ZM381.751 386V392.832C381.271 393.168 380.631 393.44 379.847 393.664C379.063 393.888 378.231 394 377.383 394H377.367C377.191 394 377.111 393.984 377.111 393.968V392.032H377.367C378.343 392.032 379.287 391.872 379.847 391.616V386H381.751ZM377.415 396.32C377.415 395.664 377.927 395.168 378.583 395.168C379.223 395.168 379.719 395.68 379.719 396.32C379.719 396.944 379.207 397.456 378.583 397.456C377.927 397.456 377.415 396.944 377.415 396.32ZM380.567 396.32C380.567 395.664 381.063 395.168 381.703 395.168C382.343 395.168 382.855 395.664 382.855 396.32C382.855 396.944 382.343 397.456 381.703 397.456C381.063 397.456 380.567 396.944 380.567 396.32ZM391.531 392.032H391.787V393.968C391.787 393.984 391.707 394 391.531 394H391.515C390.635 394 389.803 393.84 389.019 393.504C389.003 396.72 387.403 398.16 384.667 398.16C384.267 398.16 383.883 398.128 383.547 398.08L383.915 396.176C384.155 396.208 384.379 396.224 384.603 396.224C386.411 396.224 387.115 395.344 387.115 393.488V386.208H389.019V391.44C389.643 391.84 390.475 392.032 391.531 392.032ZM400.803 386.16V393.024C399.715 393.584 397.843 394 395.603 394H391.523C391.347 394 391.267 393.984 391.267 393.968V392.032H395.507C394.099 391.408 393.187 390.384 393.187 388.784C393.187 386.544 394.979 385.216 397.347 385.216C398.547 385.216 399.699 385.536 400.803 386.16ZM395.091 388.944C395.091 390.496 396.547 391.392 398.899 391.52V387.408C398.387 387.168 397.843 387.04 397.251 387.04C395.923 387.04 395.091 387.776 395.091 388.944ZM396.115 382.672C396.115 382.016 396.627 381.504 397.283 381.504C397.923 381.504 398.435 382.016 398.435 382.672C398.435 383.312 397.923 383.824 397.283 383.824C396.627 383.824 396.115 383.312 396.115 382.672Z" fill="#111827"/>
<circle cx="100" cy="223" r="36" fill="#4590BF"/>
<path d="M98.5284 212.637C98.5284 213.402 98.2549 214.113 97.8721 214.66L99.458 218.105C100.005 217.996 100.552 217.887 101.153 217.887C103.122 217.887 104.927 218.652 106.294 219.855L110.778 216.52C110.778 216.41 110.778 216.301 110.778 216.137C110.778 214.223 112.31 212.637 114.278 212.637C116.192 212.637 117.778 214.223 117.778 216.137C117.778 218.105 116.192 219.637 114.278 219.637C113.731 219.637 113.294 219.582 112.856 219.363L108.372 222.645C108.755 223.629 109.028 224.668 109.028 225.762C109.028 226.637 108.864 227.457 108.591 228.223L112.528 230.574C113.075 230.301 113.622 230.137 114.278 230.137C116.192 230.137 117.778 231.723 117.778 233.637C117.778 235.605 116.192 237.137 114.278 237.137C112.31 237.137 110.778 235.605 110.778 233.637V233.582L106.786 231.23C105.364 232.707 103.341 233.637 101.153 233.637C97.3799 233.637 94.2627 231.066 93.4424 227.512H89.2862C88.6846 228.605 87.5362 229.262 86.2784 229.262C84.3096 229.262 82.7784 227.73 82.7784 225.762C82.7784 223.848 84.3096 222.262 86.2784 222.262C87.5362 222.262 88.6846 222.973 89.2862 224.012H93.4424C93.8799 222.207 94.8643 220.676 96.2862 219.582L94.7002 216.137C92.8955 215.973 91.5284 214.496 91.5284 212.637C91.5284 210.723 93.0596 209.137 95.0284 209.137C96.9424 209.137 98.5284 210.723 98.5284 212.637ZM101.153 228.387C102.083 228.387 102.903 227.895 103.396 227.074C103.888 226.309 103.888 225.27 103.396 224.449C102.903 223.684 102.083 223.137 101.153 223.137C100.169 223.137 99.3487 223.684 98.8565 224.449C98.3643 225.27 98.3643 226.309 98.8565 227.074C99.3487 227.895 100.169 228.387 101.153 228.387Z" fill="white"/>
<path d="M21.7071 297.032V298.968C21.7071 298.984 21.6271 299 21.4511 299H15.7391C12.9711 299 11.1471 297.416 11.1471 294.92C11.1471 292.424 12.8911 290.84 15.5151 290.84C16.8591 290.84 18.1871 291.256 19.0191 291.72V297.032H21.7071ZM15.4671 297.032H17.1151V293.032C16.6191 292.76 16.0271 292.632 15.3711 292.632C14.0271 292.632 13.0351 293.4 13.0351 294.856C13.0351 296.264 13.9951 297.032 15.4671 297.032ZM12.8111 288.296C12.8111 287.656 13.3231 287.144 13.9791 287.144C14.6031 287.144 15.1151 287.656 15.1151 288.296C15.1151 288.936 14.6031 289.448 13.9791 289.448C13.3231 289.448 12.8111 288.936 12.8111 288.296ZM15.9631 288.296C15.9631 287.656 16.4591 287.144 17.0991 287.144C17.7391 287.144 18.2511 287.656 18.2511 288.296C18.2511 288.936 17.7391 289.448 17.0991 289.448C16.4591 289.448 15.9631 288.936 15.9631 288.296ZM28.3011 297.032H28.5571V298.968C28.5571 298.984 28.4771 299 28.3011 299H28.2851C27.0531 299 25.9171 298.712 24.8771 298.12C23.8531 298.712 22.7171 299 21.4691 299H21.4531C21.2771 299 21.1971 298.984 21.1971 298.968V297.032H21.4531C22.4291 297.032 23.2451 296.856 23.9331 296.52V291H25.8371V296.52C26.4771 296.856 27.3891 297.032 28.3011 297.032ZM22.1891 301.32C22.1891 300.664 22.7011 300.168 23.3571 300.168C23.9971 300.168 24.4931 300.68 24.4931 301.32C24.4931 301.944 23.9811 302.456 23.3571 302.456C22.7011 302.456 22.1891 301.944 22.1891 301.32ZM25.3411 301.32C25.3411 300.664 25.8371 300.168 26.4771 300.168C27.1171 300.168 27.6291 300.664 27.6291 301.32C27.6291 301.944 27.1171 302.456 26.4771 302.456C25.8371 302.456 25.3411 301.944 25.3411 301.32ZM32.6809 291V297.832C32.2009 298.168 31.5609 298.44 30.7769 298.664C29.9929 298.888 29.1609 299 28.3129 299H28.2969C28.1209 299 28.0409 298.984 28.0409 298.968V297.032H28.2969C29.2729 297.032 30.2169 296.872 30.7769 296.616V291H32.6809ZM30.5049 288.408C30.5049 287.752 31.0169 287.24 31.6729 287.24C32.3129 287.24 32.8249 287.752 32.8249 288.408C32.8249 289.048 32.3129 289.56 31.6729 289.56C31.0169 289.56 30.5049 289.048 30.5049 288.408ZM42.973 292.024V298.44C42.973 301.704 41.165 303.16 38.237 303.16C37.293 303.16 36.237 303 35.389 302.696L35.725 300.888C36.349 301.128 37.357 301.336 38.301 301.336C40.141 301.336 40.957 300.584 41.069 299H39.677C36.781 299 35.069 297.4 35.069 295.096C35.069 292.744 36.781 291.144 39.453 291.144C40.621 291.144 41.805 291.432 42.973 292.024ZM39.373 297.032H41.069V293.32C40.509 293.048 39.933 292.92 39.341 292.92C37.949 292.92 36.957 293.656 36.957 294.984C36.957 296.28 37.949 297.032 39.373 297.032ZM51.5385 297.032H51.7945V298.968C51.7945 298.984 51.7145 299 51.5385 299H51.5225C50.6425 299 49.8105 298.84 49.0265 298.504C49.0105 301.72 47.4105 303.16 44.6745 303.16C44.2745 303.16 43.8905 303.128 43.5545 303.08L43.9225 301.176C44.1625 301.208 44.3865 301.224 44.6105 301.224C46.4185 301.224 47.1225 300.344 47.1225 298.488V291.208H49.0265V296.44C49.6505 296.84 50.4825 297.032 51.5385 297.032ZM58.3793 297.032H58.6353V298.968C58.6353 298.984 58.5553 299 58.3793 299H58.3633C57.1313 299 55.9953 298.712 54.9553 298.12C53.9313 298.712 52.7953 299 51.5473 299H51.5312C51.3552 299 51.2752 298.984 51.2752 298.968V297.032H51.5312C52.5073 297.032 53.3233 296.856 54.0113 296.52V291H55.9153V296.52C56.5553 296.856 57.4673 297.032 58.3793 297.032ZM52.2673 288.408C52.2673 287.768 52.7793 287.256 53.4353 287.256C54.0593 287.256 54.5713 287.768 54.5713 288.408C54.5713 289.048 54.0593 289.56 53.4353 289.56C52.7793 289.56 52.2673 289.048 52.2673 288.408ZM55.4193 288.408C55.4193 287.768 55.9153 287.256 56.5553 287.256C57.1953 287.256 57.7073 287.768 57.7073 288.408C57.7073 289.048 57.1953 289.56 56.5553 289.56C55.9153 289.56 55.4193 289.048 55.4193 288.408ZM68.583 297.032H68.839V298.968C68.839 298.984 68.759 299 68.583 299H68.567C67.623 299 66.711 298.776 65.863 298.344C64.663 298.776 63.127 299 61.719 299H58.375C58.199 299 58.119 298.984 58.119 298.968V297.032H61.927C63.063 297.032 64.135 296.808 64.823 296.504V295.896C64.759 294.504 64.295 294.168 61.863 293.464L59.911 292.936L59.479 291.416L65.239 286.968L66.231 288.2L61.751 291.608L62.743 291.88C65.591 292.696 66.663 293.416 66.727 295.832V296.616C67.159 296.872 67.879 297.032 68.583 297.032ZM72.9621 287.32V297.336C72.0021 298.296 70.3381 299 68.5941 299H68.5781C68.4021 299 68.3221 298.984 68.3221 298.968V297.032H68.5781C69.4741 297.032 70.4181 296.856 71.0581 296.52V287.32H72.9621ZM82.8021 287.32H84.7061V297.336C83.7461 298.296 82.1141 299 80.3701 299H75.4581V297.032H78.5301L76.7701 289.368H78.6581L80.4501 297.032C81.4581 297.016 82.2421 296.808 82.8021 296.424V287.32ZM87.9441 299V287.32H89.8481V299H87.9441ZM96.4128 295C96.4128 292.6 98.1088 290.84 100.461 290.84C102.813 290.84 104.509 292.6 104.509 295C104.509 297.4 102.813 299.16 100.461 299.16C98.1088 299.16 96.4128 297.4 96.4128 295ZM102.637 295C102.637 293.656 101.741 292.664 100.445 292.664C99.1648 292.664 98.3008 293.656 98.3008 295C98.3008 296.344 99.1488 297.32 100.445 297.32C101.741 297.32 102.637 296.344 102.637 295ZM97.7408 288.296C97.7408 287.656 98.2528 287.144 98.9088 287.144C99.5328 287.144 100.045 287.656 100.045 288.296C100.045 288.936 99.5328 289.448 98.9088 289.448C98.2528 289.448 97.7408 288.936 97.7408 288.296ZM100.893 288.296C100.893 287.656 101.389 287.144 102.029 287.144C102.669 287.144 103.181 287.656 103.181 288.296C103.181 288.936 102.669 289.448 102.029 289.448C101.389 289.448 100.893 288.936 100.893 288.296ZM103.961 303.08L104.329 301.176C104.569 301.208 104.793 301.224 105.017 301.224C106.825 301.224 107.529 300.344 107.529 298.488V291.208H109.433V298.472C109.433 301.72 107.817 303.16 105.081 303.16C104.681 303.16 104.297 303.128 103.961 303.08ZM116.969 297.032H117.225V298.968C117.225 298.984 117.145 299 116.969 299H116.953C115.545 299 114.265 298.648 113.353 298.136C112.777 297.832 112.585 297.512 112.585 296.824V287.32H114.489V296.52C115.145 296.856 116.057 297.032 116.969 297.032ZM127.769 297.032V298.968C127.769 298.984 127.689 299 127.513 299H116.969C116.793 299 116.713 298.984 116.713 298.968V297.032H123.833C123.257 296.392 123.017 295.816 122.713 294.744C122.137 292.84 121.977 292.344 120.505 292.264C119.849 292.264 119.257 292.44 118.473 292.936L117.449 291.624C118.441 290.856 119.497 290.472 120.633 290.472C122.953 290.52 123.689 291.48 124.409 294.008C124.777 295.304 125.113 296.2 125.753 296.84C125.929 296.984 126.217 297.032 126.745 297.032H127.769ZM120.297 301.32C120.297 300.664 120.809 300.168 121.465 300.168C122.105 300.168 122.617 300.664 122.617 301.32C122.617 301.976 122.105 302.488 121.465 302.488C120.809 302.488 120.297 301.976 120.297 301.32ZM134.364 297.032H134.62V298.968C134.62 298.984 134.54 299 134.364 299H134.348C133.116 299 131.98 298.712 130.94 298.12C129.916 298.712 128.78 299 127.532 299H127.516C127.34 299 127.26 298.984 127.26 298.968V297.032H127.516C128.492 297.032 129.308 296.856 129.996 296.52V291H131.9V296.52C132.54 296.856 133.452 297.032 134.364 297.032ZM128.252 288.408C128.252 287.768 128.764 287.256 129.42 287.256C130.044 287.256 130.556 287.768 130.556 288.408C130.556 289.048 130.044 289.56 129.42 289.56C128.764 289.56 128.252 289.048 128.252 288.408ZM131.404 288.408C131.404 287.768 131.9 287.256 132.54 287.256C133.18 287.256 133.692 287.768 133.692 288.408C133.692 289.048 133.18 289.56 132.54 289.56C131.9 289.56 131.404 289.048 131.404 288.408ZM138.743 287.32V297.336C137.783 298.296 136.119 299 134.375 299H134.359C134.183 299 134.103 298.984 134.103 298.968V297.032H134.359C135.255 297.032 136.199 296.856 136.839 296.52V287.32H138.743ZM141.975 299V287.32H143.879V299H141.975ZM165.18 297.048V298.968C165.18 298.984 165.1 299 164.924 299H162.508V301.56C161.164 302.504 159.004 303.16 156.7 303.16C152.86 303.16 150.684 301.144 150.684 298.024C150.684 297.224 150.796 296.424 151.02 295.64L152.764 295.976C152.62 296.44 152.54 297 152.54 297.64C152.54 299.992 154.06 301.208 156.892 301.208C158.14 301.208 159.372 300.968 160.604 300.488V298.952H159.212C156.284 298.952 154.604 297.4 154.604 295.096C154.604 292.744 156.316 291.144 158.988 291.144C160.156 291.144 161.34 291.432 162.508 292.024V297.048H165.18ZM158.924 297.032H160.604V293.32C160.044 293.048 159.484 292.92 158.892 292.92C157.484 292.92 156.508 293.656 156.508 294.984C156.508 296.28 157.5 297.032 158.924 297.032ZM156.3 288.584C156.3 287.944 156.812 287.432 157.468 287.432C158.092 287.432 158.604 287.944 158.604 288.584C158.604 289.224 158.092 289.736 157.468 289.736C156.812 289.736 156.3 289.224 156.3 288.584ZM159.452 288.584C159.452 287.944 159.948 287.432 160.588 287.432C161.228 287.432 161.74 287.944 161.74 288.584C161.74 289.224 161.228 289.736 160.588 289.736C159.948 289.736 159.452 289.224 159.452 288.584ZM169.306 291V297.832C168.826 298.168 168.186 298.44 167.402 298.664C166.618 298.888 165.786 299 164.938 299H164.922C164.746 299 164.666 298.984 164.666 298.968V297.032H164.922C165.898 297.032 166.842 296.872 167.402 296.616V291H169.306ZM164.97 301.32C164.97 300.664 165.482 300.168 166.138 300.168C166.778 300.168 167.274 300.68 167.274 301.32C167.274 301.944 166.762 302.456 166.138 302.456C165.482 302.456 164.97 301.944 164.97 301.32ZM168.122 301.32C168.122 300.664 168.618 300.168 169.258 300.168C169.898 300.168 170.41 300.664 170.41 301.32C170.41 301.944 169.898 302.456 169.258 302.456C168.618 302.456 168.122 301.944 168.122 301.32ZM179.085 297.032H179.341V298.968C179.341 298.984 179.261 299 179.085 299H179.069C178.189 299 177.357 298.84 176.573 298.504C176.557 301.72 174.957 303.16 172.221 303.16C171.821 303.16 171.437 303.128 171.101 303.08L171.469 301.176C171.709 301.208 171.933 301.224 172.157 301.224C173.965 301.224 174.669 300.344 174.669 298.488V291.208H176.573V296.44C177.197 296.84 178.029 297.032 179.085 297.032ZM188.358 291.16V298.024C187.27 298.584 185.398 299 183.158 299H179.078C178.902 299 178.822 298.984 178.822 298.968V297.032H183.062C181.654 296.408 180.742 295.384 180.742 293.784C180.742 291.544 182.534 290.216 184.902 290.216C186.102 290.216 187.254 290.536 188.358 291.16ZM182.646 293.944C182.646 295.496 184.102 296.392 186.454 296.52V292.408C185.942 292.168 185.398 292.04 184.806 292.04C183.478 292.04 182.646 292.776 182.646 293.944ZM183.67 287.672C183.67 287.016 184.182 286.504 184.838 286.504C185.478 286.504 185.99 287.016 185.99 287.672C185.99 288.312 185.478 288.824 184.838 288.824C184.182 288.824 183.67 288.312 183.67 287.672ZM57.0776 321.032H57.3336V322.968C57.3336 322.984 57.2536 323 57.0776 323H57.0616C56.1816 323 55.3496 322.84 54.5656 322.504C54.5496 325.72 52.9496 327.16 50.2136 327.16C49.8136 327.16 49.4296 327.128 49.0936 327.08L49.4616 325.176C49.7016 325.208 49.9256 325.224 50.1496 325.224C51.9576 325.224 52.6616 324.344 52.6616 322.488V315.208H54.5656V320.44C55.1896 320.84 56.0216 321.032 57.0776 321.032ZM63.9183 321.032H64.1743V322.968C64.1743 322.984 64.0943 323 63.9183 323H63.9023C62.6703 323 61.5343 322.712 60.4943 322.12C59.4703 322.712 58.3343 323 57.0863 323H57.0703C56.8943 323 56.8143 322.984 56.8143 322.968V321.032H57.0703C58.0463 321.032 58.8623 320.856 59.5503 320.52V315H61.4543V320.52C62.0943 320.856 63.0063 321.032 63.9183 321.032ZM57.8063 325.32C57.8063 324.664 58.3183 324.168 58.9743 324.168C59.6143 324.168 60.1103 324.68 60.1103 325.32C60.1103 325.944 59.5983 326.456 58.9743 326.456C58.3183 326.456 57.8063 325.944 57.8063 325.32ZM60.9583 325.32C60.9583 324.664 61.4543 324.168 62.0943 324.168C62.7343 324.168 63.2463 324.664 63.2463 325.32C63.2463 325.944 62.7343 326.456 62.0943 326.456C61.4543 326.456 60.9583 325.944 60.9583 325.32ZM73.4341 321.32L72.9221 323H63.9141C63.7381 323 63.6581 322.984 63.6581 322.968V321.032H70.7941C70.2341 320.392 69.9781 319.8 69.6741 318.76C69.1301 316.856 68.8901 316.36 67.4661 316.264C66.8101 316.264 66.2021 316.44 65.4181 316.936L64.3941 315.624C65.4021 314.856 66.4581 314.472 67.5781 314.472C69.9141 314.52 70.6501 315.512 71.3701 317.976C71.8341 319.72 72.3301 320.824 73.4341 321.32ZM66.5861 312.12C66.5861 311.464 67.0981 310.952 67.7541 310.952C68.3941 310.952 68.9061 311.464 68.9061 312.12C68.9061 312.76 68.3941 313.272 67.7541 313.272C67.0981 313.272 66.5861 312.76 66.5861 312.12ZM82.5131 311.32H84.4171V321.336C83.4571 322.296 81.8251 323 80.0811 323H75.1691V321.032H78.2411L76.4811 313.368H78.3691L80.1611 321.032C81.1691 321.016 81.9531 320.808 82.5131 320.424V311.32ZM77.9051 310.92H78.8331V312.168H75.4571V310.92H76.2251C75.9851 310.648 75.8571 310.328 75.8571 309.96C75.8571 309.144 76.4811 308.504 77.3771 308.504C77.9371 308.504 78.4011 308.744 78.7051 309.048L78.0171 309.784C77.8731 309.656 77.6971 309.592 77.5051 309.592C77.1371 309.592 76.8971 309.864 76.8971 310.2C76.8971 310.632 77.2171 310.92 77.9051 310.92ZM87.6551 323V311.32H89.5591V323H87.6551ZM109.756 321.032H110.012V322.968C110.012 322.984 109.932 323 109.756 323H109.74C108.876 323 108.044 322.856 107.26 322.552V325.592C106.636 326.024 105.836 326.392 104.892 326.696C103.948 327 102.94 327.16 101.9 327.16C98.3797 327.16 96.3637 325.272 96.3637 321.992C96.3637 321.208 96.4757 320.392 96.6837 319.576L98.4277 319.896C98.2837 320.488 98.2197 321.064 98.2197 321.608C98.2197 324.008 99.4997 325.208 102.044 325.208C103.18 325.208 104.284 324.968 105.356 324.472V311.32H107.26V320.52C107.948 320.856 108.78 321.032 109.756 321.032ZM116.606 321.032H116.862V322.968C116.862 322.984 116.782 323 116.606 323H116.59C115.358 323 114.222 322.712 113.182 322.12C112.158 322.712 111.022 323 109.774 323H109.758C109.582 323 109.502 322.984 109.502 322.968V321.032H109.758C110.734 321.032 111.55 320.856 112.238 320.52V315H114.142V320.52C114.782 320.856 115.694 321.032 116.606 321.032ZM110.494 325.32C110.494 324.664 111.006 324.168 111.662 324.168C112.302 324.168 112.798 324.68 112.798 325.32C112.798 325.944 112.286 326.456 111.662 326.456C111.006 326.456 110.494 325.944 110.494 325.32ZM113.646 325.32C113.646 324.664 114.142 324.168 114.782 324.168C115.422 324.168 115.934 324.664 115.934 325.32C115.934 325.944 115.422 326.456 114.782 326.456C114.142 326.456 113.646 325.944 113.646 325.32ZM128.474 321.032H128.73V322.968C128.73 322.984 128.65 323 128.474 323H128.458C127.45 323 126.522 322.776 125.706 322.328C124.986 323.24 123.834 323.8 122.538 323.8C121.242 323.8 120.09 323.24 119.37 322.328C118.554 322.776 117.626 323 116.618 323H116.602C116.426 323 116.346 322.984 116.346 322.968V321.032H116.602C117.37 321.032 118.026 320.92 118.586 320.68C118.506 320.376 118.474 320.024 118.474 319.64C118.474 317.24 120.186 315.48 122.538 315.48C124.89 315.48 126.586 317.24 126.586 319.64C126.586 320.024 126.554 320.36 126.474 320.664C127.018 320.904 127.69 321.032 128.474 321.032ZM124.698 319.64C124.698 318.296 123.834 317.32 122.506 317.32C121.226 317.32 120.362 318.296 120.362 319.64C120.362 320.984 121.226 321.96 122.506 321.96C123.834 321.96 124.698 320.984 124.698 319.64ZM132.861 311.32V321.336C131.901 322.296 130.237 323 128.493 323H128.477C128.301 323 128.221 322.984 128.221 322.968V321.032H128.477C129.373 321.032 130.317 320.856 130.957 320.52V311.32H132.861ZM136.093 323V311.32H137.997V323H136.093ZM148.465 316.024V322.44C148.465 325.704 146.657 327.16 143.729 327.16C142.785 327.16 141.729 327 140.881 326.696L141.217 324.888C141.841 325.128 142.849 325.336 143.793 325.336C145.633 325.336 146.449 324.584 146.561 323H145.169C142.273 323 140.561 321.4 140.561 319.096C140.561 316.744 142.273 315.144 144.945 315.144C146.113 315.144 147.297 315.432 148.465 316.024ZM144.865 321.032H146.561V317.32C146.001 317.048 145.425 316.92 144.833 316.92C143.441 316.92 142.449 317.656 142.449 318.984C142.449 320.28 143.441 321.032 144.865 321.032Z" fill="#111827"/>
<defs>
<linearGradient id="paint0_linear_15611_9691" x1="740.5" y1="6" x2="740.5" y2="70" gradientUnits="userSpaceOnUse">
<stop stop-color="#3A207B"/>
<stop offset="1" stop-color="#4590BF"/>
</linearGradient>
</defs>
</svg>
