<svg width="362" height="235" viewBox="0 0 362 235" fill="none" xmlns="http://www.w3.org/2000/svg">
<rect width="4.94558" height="4.94558" transform="matrix(1 0 0 -1 154.426 71.7891)" fill="#A5A7A6"/>
<rect width="4.94558" height="4.94558" transform="matrix(1 0 0 -1 203.293 23.5488)" fill="#A5A7A6"/>
<rect width="4.94558" height="4.94558" transform="matrix(1 0 0 -1 154.426 22.6875)" fill="#132A6D"/>
<rect width="4.94558" height="4.94558" transform="matrix(1 0 0 -1 203.293 71.7891)" fill="#132A6D"/>
<rect width="3.21855" height="3.21855" transform="matrix(1 0 0 -1 212.164 79.3633)" fill="#A5A7A6"/>
<rect width="3.21855" height="3.21855" transform="matrix(1 0 0 -1 148.027 16.3281)" fill="#A5A7A6"/>
<rect width="3.21855" height="3.21855" transform="matrix(1 0 0 -1 212.164 16.3281)" fill="#132A6D"/>
<rect width="3.21855" height="3.21855" transform="matrix(1 0 0 -1 148.027 79.3633)" fill="#132A6D"/>
<path d="M177.995 45.7409C178.15 45.621 178.159 45.39 178.013 45.259L169.576 37.6761C169.353 37.4751 169.001 37.6733 169.058 37.9687L170.489 45.4468C170.498 45.4889 170.497 45.5322 170.488 45.574L169.071 51.9428C169.007 52.2296 169.337 52.4391 169.57 52.2593L177.995 45.7409Z" fill="#132A6D"/>
<path d="M181.715 40.9549C181.595 41.1097 181.364 41.1182 181.233 40.9727L175.268 34.3466C175.056 34.1111 175.287 33.7455 175.591 33.8355L181.388 35.5517C181.451 35.5703 181.518 35.5688 181.58 35.5476L186.482 33.8616C186.777 33.7601 187.023 34.1043 186.832 34.3509L181.715 40.9549Z" fill="#64AE35"/>
<path d="M181.715 49.1642C181.595 49.0095 181.364 49.001 181.233 49.1465L175.268 55.7725C175.056 56.008 175.287 56.3736 175.591 56.2837L181.388 54.5674C181.451 54.5489 181.518 54.5503 181.58 54.5716L186.482 56.2575C186.777 56.359 187.023 56.0148 186.832 55.7683L181.715 49.1642Z" fill="#64AE35"/>
<path d="M184.555 45.7038C184.401 45.5839 184.392 45.3529 184.538 45.2219L192.975 37.639C193.198 37.438 193.549 37.6362 193.493 37.9316L192.061 45.4097C192.053 45.4518 192.054 45.4951 192.063 45.5369L193.48 51.9056C193.543 52.1925 193.213 52.402 192.981 52.2222L184.555 45.7038Z" fill="#132A6D"/>
<rect width="7.53613" height="7.53613" transform="matrix(1 0 0 -1 162.16 63.9004)" fill="#0CA9B0"/>
<rect width="6.90255" height="6.90255" transform="matrix(0.707107 -0.707107 -0.707107 -0.707107 159.293 49.9395)" fill="#CBD42D"/>
<rect width="6.90255" height="6.90255" transform="matrix(0.707107 -0.707107 -0.707107 -0.707107 181.016 28.0254)" fill="#CBD42D"/>
<rect width="6.90255" height="6.90255" transform="matrix(0.707107 -0.707107 -0.707107 -0.707107 203.387 49.457)" fill="#CBD42D"/>
<rect width="6.90255" height="6.90255" transform="matrix(0.707107 -0.707107 -0.707107 -0.707107 181.016 71.6309)" fill="#CBD42D"/>
<rect width="4.92483" height="4.92483" transform="matrix(0.707107 -0.707107 -0.707107 -0.707107 181.016 82.9121)" fill="#177DC2"/>
<rect width="4.92483" height="4.92483" transform="matrix(0.707107 -0.707107 -0.707107 -0.707107 146.84 48.5527)" fill="#64AD37"/>
<rect width="4.92483" height="4.92483" transform="matrix(0.707107 -0.707107 -0.707107 -0.707107 215.844 48.5527)" fill="#64AD37"/>
<rect width="4.92483" height="4.92483" transform="matrix(0.707107 -0.707107 -0.707107 -0.707107 180.988 13.9336)" fill="#177DC2"/>
<rect width="7.53613" height="7.53613" transform="matrix(1 0 0 -1 162.16 32.8125)" fill="#0CA9B0"/>
<rect width="7.53613" height="7.53613" transform="matrix(1 0 0 -1 193.012 63.9004)" fill="#0CA9B0"/>
<rect width="7.53613" height="7.53613" transform="matrix(1 0 0 -1 193.012 32.8125)" fill="#0CA9B0"/>
<path d="M75.2628 128.54V130.96C75.2628 130.98 75.1628 131 74.9428 131H67.8028C64.3428 131 62.0628 129.02 62.0628 125.9C62.0628 122.78 64.2428 120.8 67.5228 120.8C69.2028 120.8 70.8628 121.32 71.9028 121.9V128.54H75.2628ZM67.4628 128.54H69.5228V123.54C68.9028 123.2 68.1628 123.04 67.3428 123.04C65.6628 123.04 64.4228 124 64.4228 125.82C64.4228 127.58 65.6228 128.54 67.4628 128.54ZM64.1428 117.62C64.1428 116.82 64.7828 116.18 65.6028 116.18C66.3828 116.18 67.0228 116.82 67.0228 117.62C67.0228 118.42 66.3828 119.06 65.6028 119.06C64.7828 119.06 64.1428 118.42 64.1428 117.62ZM68.0828 117.62C68.0828 116.82 68.7028 116.18 69.5028 116.18C70.3028 116.18 70.9428 116.82 70.9428 117.62C70.9428 118.42 70.3028 119.06 69.5028 119.06C68.7028 119.06 68.0828 118.42 68.0828 117.62ZM83.5053 128.54H83.8253V130.96C83.8253 130.98 83.7253 131 83.5053 131H83.4853C81.9453 131 80.5253 130.64 79.2253 129.9C77.9453 130.64 76.5253 131 74.9653 131H74.9453C74.7253 131 74.6253 130.98 74.6253 130.96V128.54H74.9453C76.1653 128.54 77.1853 128.32 78.0453 127.9V121H80.4253V127.9C81.2253 128.32 82.3653 128.54 83.5053 128.54ZM75.8653 133.9C75.8653 133.08 76.5053 132.46 77.3253 132.46C78.1253 132.46 78.7453 133.1 78.7453 133.9C78.7453 134.68 78.1053 135.32 77.3253 135.32C76.5053 135.32 75.8653 134.68 75.8653 133.9ZM79.8053 133.9C79.8053 133.08 80.4253 132.46 81.2253 132.46C82.0253 132.46 82.6653 133.08 82.6653 133.9C82.6653 134.68 82.0253 135.32 81.2253 135.32C80.4253 135.32 79.8053 134.68 79.8053 133.9ZM92.06 128.54H92.38V130.96C92.38 130.98 92.28 131 92.06 131H92.04C90.5 131 89.08 130.64 87.78 129.9C86.5 130.64 85.08 131 83.52 131H83.5C83.28 131 83.18 130.98 83.18 130.96V128.54H83.5C84.72 128.54 85.74 128.32 86.6 127.9V121H88.98V127.9C89.78 128.32 90.92 128.54 92.06 128.54ZM84.42 117.76C84.42 116.96 85.06 116.32 85.88 116.32C86.66 116.32 87.3 116.96 87.3 117.76C87.3 118.56 86.66 119.2 85.88 119.2C85.06 119.2 84.42 118.56 84.42 117.76ZM88.36 117.76C88.36 116.96 88.98 116.32 89.78 116.32C90.58 116.32 91.22 116.96 91.22 117.76C91.22 118.56 90.58 119.2 89.78 119.2C88.98 119.2 88.36 118.56 88.36 117.76ZM113.455 128.54H113.775V130.96C113.775 130.98 113.675 131 113.455 131H113.435C112.035 131 110.695 130.66 109.435 130C108.475 130.64 107.275 131 106.015 131C104.835 131 103.775 130.64 102.835 129.94C101.895 130.64 100.815 131 99.6147 131C98.2547 131 97.0947 130.54 96.2947 129.92C95.3547 130.54 93.8147 131 92.0747 131H92.0547C91.8347 131 91.7347 130.98 91.7347 130.96V128.54H92.0547C93.1947 128.54 94.2347 128.32 95.1547 127.88V123.46H97.5347V127.92C98.1347 128.34 98.8147 128.54 99.5547 128.54C100.295 128.54 100.955 128.34 101.575 127.94V123.46H103.955V127.94C104.575 128.34 105.235 128.54 105.975 128.54C106.715 128.54 107.395 128.34 107.995 127.92V122.56H110.375V127.9C111.175 128.32 112.315 128.54 113.455 128.54ZM125.361 128.9L124.721 131H113.461C113.241 131 113.141 130.98 113.141 130.96V128.54H122.061C121.361 127.74 121.041 127 120.661 125.7C119.981 123.32 119.681 122.7 117.901 122.58C117.081 122.58 116.321 122.8 115.341 123.42L114.061 121.78C115.321 120.82 116.641 120.34 118.041 120.34C120.961 120.4 121.881 121.64 122.781 124.72C123.361 126.9 123.981 128.28 125.361 128.9ZM117.661 133.9C117.661 133.08 118.301 132.46 119.121 132.46C119.921 132.46 120.561 133.08 120.561 133.9C120.561 134.72 119.921 135.36 119.121 135.36C118.301 135.36 117.661 134.72 117.661 133.9ZM140.85 128.54V130.96C140.85 130.98 140.75 131 140.53 131H137.47C137.23 134.58 134.99 136.2 131.57 136.2C130.39 136.2 129.07 136 128.01 135.62L128.43 133.36C129.21 133.66 130.47 133.92 131.65 133.92C133.95 133.92 134.97 132.98 135.11 131H133.37C129.75 131 127.61 129 127.61 126.12C127.61 123.18 129.75 121.18 133.09 121.18C134.55 121.18 136.03 121.54 137.49 122.28V128.54H140.85ZM132.99 128.54H135.11V123.9C134.41 123.56 133.69 123.4 132.95 123.4C131.21 123.4 129.97 124.32 129.97 125.98C129.97 127.6 131.21 128.54 132.99 128.54ZM149.091 128.54H149.411V130.96C149.411 130.98 149.311 131 149.091 131H149.071C147.531 131 146.111 130.64 144.811 129.9C143.531 130.64 142.111 131 140.551 131H140.531C140.311 131 140.211 130.98 140.211 130.96V128.54H140.531C141.751 128.54 142.771 128.32 143.631 127.9V116.4H146.011V127.9C146.811 128.32 147.951 128.54 149.091 128.54ZM154.566 116.4V128.92C153.366 130.12 151.286 131 149.106 131H149.086C148.866 131 148.766 130.98 148.766 130.96V128.54H149.086C150.206 128.54 151.386 128.32 152.186 127.9V116.4H154.566ZM158.606 131V116.4H160.986V131H158.606ZM169.572 126.18C169.572 125.1 169.752 123.94 170.132 122.7L172.312 123.1C172.052 124 171.932 124.8 171.932 125.48C171.932 127.52 173.132 128.54 175.532 128.54H183.612C185.292 128.54 186.652 128.3 187.372 127.96V121H189.752V129.78C188.412 130.5 186.132 131 183.272 131H175.372C171.692 131 169.572 129.68 169.572 126.18ZM176.292 120.22C176.292 119.42 176.932 118.78 177.752 118.78C178.532 118.78 179.172 119.42 179.172 120.22C179.172 121.02 178.532 121.66 177.752 121.66C176.932 121.66 176.292 121.02 176.292 120.22ZM180.232 120.22C180.232 119.42 180.852 118.78 181.652 118.78C182.452 118.78 183.092 119.42 183.092 120.22C183.092 121.02 182.452 121.66 181.652 121.66C180.852 121.66 180.232 121.02 180.232 120.22ZM199.047 128.54H199.367V130.96C199.367 130.98 199.267 131 199.047 131H199.027C197.267 131 195.667 130.56 194.527 129.92C193.807 129.54 193.567 129.14 193.567 128.28V116.4H195.947V127.9C196.767 128.32 197.907 128.54 199.047 128.54ZM211.627 126.8C211.627 129.8 209.507 132 206.567 132C204.947 132 203.527 131.34 202.587 130.16C201.507 130.72 200.327 131 199.067 131H199.047C198.827 131 198.727 130.98 198.727 130.96V128.54H199.047C200.067 128.54 200.927 128.38 201.627 128.08C201.527 127.7 201.487 127.28 201.487 126.8C201.487 123.8 203.627 121.6 206.567 121.6C209.507 121.6 211.627 123.8 211.627 126.8ZM209.267 126.8C209.267 125.12 208.187 123.9 206.527 123.9C204.927 123.9 203.847 125.12 203.847 126.8C203.847 128.48 204.927 129.7 206.527 129.7C208.187 129.7 209.267 128.48 209.267 126.8ZM226.036 128.54V130.96C226.036 130.98 225.936 131 225.716 131H213.776V128.54H220.596V125.78C220.596 123.94 219.836 123.4 217.836 123.4H215.636V121.02H217.296C221.536 121.02 222.976 122.26 222.976 125.68V128.54H226.036ZM239.207 128.54V130.96C239.207 130.98 239.107 131 238.887 131H225.707C225.487 131 225.387 130.98 225.387 130.96V128.54H234.287C233.567 127.74 233.267 127.02 232.887 125.68C232.167 123.3 231.967 122.68 230.127 122.58C229.307 122.58 228.567 122.8 227.587 123.42L226.307 121.78C227.547 120.82 228.867 120.34 230.287 120.34C233.187 120.4 234.107 121.6 235.007 124.76C235.467 126.38 235.887 127.5 236.687 128.3C236.907 128.48 237.267 128.54 237.927 128.54H239.207ZM229.027 117.4C229.027 116.58 229.667 115.94 230.487 115.94C231.287 115.94 231.927 116.58 231.927 117.4C231.927 118.2 231.287 118.84 230.487 118.84C229.667 118.84 229.027 118.2 229.027 117.4ZM244.371 116.4V128.92C243.171 130.12 241.091 131 238.911 131H238.891C238.671 131 238.571 130.98 238.571 130.96V128.54H238.891C240.011 128.54 241.191 128.32 241.991 127.9V116.4H244.371ZM248.411 131V116.4H250.791V131H248.411ZM272.196 128.54V130.96C272.196 130.98 272.096 131 271.876 131H264.736C261.276 131 258.996 129.02 258.996 125.9C258.996 122.78 261.176 120.8 264.456 120.8C266.136 120.8 267.796 121.32 268.836 121.9V128.54H272.196ZM264.396 128.54H266.456V123.54C265.836 123.2 265.096 123.04 264.276 123.04C262.596 123.04 261.356 124 261.356 125.82C261.356 127.58 262.556 128.54 264.396 128.54ZM261.076 117.62C261.076 116.82 261.716 116.18 262.536 116.18C263.316 116.18 263.956 116.82 263.956 117.62C263.956 118.42 263.316 119.06 262.536 119.06C261.716 119.06 261.076 118.42 261.076 117.62ZM265.016 117.62C265.016 116.82 265.636 116.18 266.436 116.18C267.236 116.18 267.876 116.82 267.876 117.62C267.876 118.42 267.236 119.06 266.436 119.06C265.636 119.06 265.016 118.42 265.016 117.62ZM280.439 128.54H280.759V130.96C280.759 130.98 280.659 131 280.439 131H280.419C278.879 131 277.459 130.64 276.159 129.9C274.879 130.64 273.459 131 271.899 131H271.879C271.659 131 271.559 130.98 271.559 130.96V128.54H271.879C273.099 128.54 274.119 128.32 274.979 127.9V121H277.359V127.9C278.159 128.32 279.299 128.54 280.439 128.54ZM274.739 117.76C274.739 116.94 275.379 116.3 276.199 116.3C276.999 116.3 277.639 116.94 277.639 117.76C277.639 118.56 276.999 119.2 276.199 119.2C275.379 119.2 274.739 118.56 274.739 117.76ZM293.934 128.54V130.96C293.934 130.98 293.834 131 293.614 131H280.434C280.214 131 280.114 130.98 280.114 130.96V128.54H289.014C288.294 127.74 287.994 127.02 287.614 125.68C286.894 123.3 286.694 122.68 284.854 122.58C284.034 122.58 283.294 122.8 282.314 123.42L281.034 121.78C282.274 120.82 283.594 120.34 285.014 120.34C287.914 120.4 288.834 121.6 289.734 124.76C290.194 126.38 290.614 127.5 291.414 128.3C291.634 128.48 291.994 128.54 292.654 128.54H293.934ZM284.594 133.9C284.594 133.08 285.234 132.46 286.054 132.46C286.854 132.46 287.494 133.08 287.494 133.9C287.494 134.72 286.854 135.36 286.054 135.36C285.234 135.36 284.594 134.72 284.594 133.9ZM299.097 116.4V128.92C297.897 130.12 295.817 131 293.637 131H293.617C293.397 131 293.297 130.98 293.297 130.96V128.54H293.617C294.737 128.54 295.917 128.32 296.717 127.9V116.4H299.097Z" fill="#111827"/>
<path d="M180 234C180 234.552 180.448 235 181 235C181.552 235 182 234.552 182 234H180ZM180 170V234H182V170H180Z" fill="url(#paint0_linear_15611_9654)"/>
<circle cx="181" cy="170" r="6" fill="#64AE35"/>
<defs>
<linearGradient id="paint0_linear_15611_9654" x1="181.5" y1="170" x2="181.5" y2="234" gradientUnits="userSpaceOnUse">
<stop stop-color="#64AE35"/>
<stop offset="1" stop-color="#119DA9"/>
</linearGradient>
</defs>
</svg>
