<svg width="400" height="491" viewBox="0 0 400 491" fill="none" xmlns="http://www.w3.org/2000/svg">
<mask id="mask0_15725_12158" style="mask-type:luminance" maskUnits="userSpaceOnUse" x="122" y="-23" width="37" height="37">
<path d="M147.738 -22.4872L122.48 -12.0254L132.943 13.2328L158.2 2.77103L147.738 -22.4872Z" fill="white"/>
</mask>
<g mask="url(#mask0_15725_12158)">
<path d="M168.479 -8.64195L135.834 -32.5615L111.916 0.0834124L144.561 24.003L168.479 -8.64195Z" fill="url(#paint0_linear_15725_12158)"/>
</g>
<mask id="mask1_15725_12158" style="mask-type:luminance" maskUnits="userSpaceOnUse" x="137" y="28" width="31" height="31">
<path d="M164.519 28.2503L137.379 31.5391L140.668 58.6795L167.808 55.3907L164.519 28.2503Z" fill="white"/>
</mask>
<g mask="url(#mask1_15725_12158)">
<path d="M185.61 38.3189L147.408 10.3281L119.419 48.5298L157.62 76.5206L185.61 38.3189Z" fill="url(#paint1_linear_15725_12158)"/>
</g>
<mask id="mask2_15725_12158" style="mask-type:luminance" maskUnits="userSpaceOnUse" x="-175" y="-253" width="412" height="168">
<path d="M234.883 -103.852C194.377 -171.857 129.882 -220.709 53.2836 -241.445C-23.3147 -262.181 -103.587 -252.542 -172.819 -214.31L-174.87 -213.126L-158.294 -184.416L-156.306 -185.564C-94.7163 -219.383 -23.3748 -227.843 44.6959 -209.393C112.767 -190.942 170.117 -147.576 206.21 -87.2145L207.358 -85.2259L236.129 -101.837L234.945 -103.888L234.883 -103.852Z" fill="white"/>
</mask>
<g mask="url(#mask2_15725_12158)">
</g>
<mask id="mask3_15725_12158" style="mask-type:luminance" maskUnits="userSpaceOnUse" x="205" y="157" width="59" height="59">
<path d="M263.485 176.167L224.064 157.984L205.883 197.406L245.304 215.588L263.485 176.167Z" fill="white"/>
</mask>
<g mask="url(#mask3_15725_12158)">
<path d="M290.101 178.429L225.736 131.269L178.621 195.575L242.985 242.735L290.101 178.429Z" fill="url(#paint2_linear_15725_12158)"/>
</g>
<mask id="mask4_15725_12158" style="mask-type:luminance" maskUnits="userSpaceOnUse" x="135" y="78" width="33" height="33">
<path d="M167.211 83.0784L140.225 78.707L135.854 105.694L162.841 110.066L167.211 83.0784Z" fill="white"/>
</mask>
<g mask="url(#mask4_15725_12158)">
<path d="M186.772 88.9256L145.85 58.9414L115.867 99.8633L156.789 129.848L186.772 88.9256Z" fill="url(#paint3_linear_15725_12158)"/>
</g>
<mask id="mask5_15725_12158" style="mask-type:luminance" maskUnits="userSpaceOnUse" x="160" y="136" width="51" height="52">
<path d="M210.402 152.64L175.998 136.771L160.131 171.175L194.535 187.044L210.402 152.64Z" fill="white"/>
</mask>
<g mask="url(#mask5_15725_12158)">
<path d="M233.536 154.534L177.449 113.438L136.356 169.525L192.443 210.621L233.536 154.534Z" fill="url(#paint4_linear_15725_12158)"/>
</g>
<mask id="mask6_15725_12158" style="mask-type:luminance" maskUnits="userSpaceOnUse" x="119" y="121" width="38" height="38">
<path d="M156.208 133.224L131.385 121.77L119.931 146.593L144.754 158.048L156.208 133.224Z" fill="white"/>
</mask>
<g mask="url(#mask6_15725_12158)">
<path d="M173.149 134.56L132.574 104.83L102.846 145.405L143.421 175.134L173.149 134.56Z" fill="url(#paint5_linear_15725_12158)"/>
</g>
<mask id="mask7_15725_12158" style="mask-type:luminance" maskUnits="userSpaceOnUse" x="183" y="15" width="43" height="44">
<path d="M220.987 15.6059L183.416 20.4785L188.29 58.0509L225.861 53.1783L220.987 15.6059Z" fill="white"/>
</mask>
<g mask="url(#mask7_15725_12158)">
<path d="M250.155 29.6792L197.541 -8.87207L158.992 43.742L211.606 82.2932L250.155 29.6792Z" fill="url(#paint6_linear_15725_12158)"/>
</g>
<mask id="mask8_15725_12158" style="mask-type:luminance" maskUnits="userSpaceOnUse" x="235" y="88" width="51" height="52">
<path d="M243.201 88.9604L235.247 131.583L263.6 136.922L277.906 139.6L285.885 96.8791L243.201 88.9604Z" fill="white"/>
</mask>
<g mask="url(#mask8_15725_12158)">
<path d="M316.804 105.675L251.688 57.9629L203.978 123.079L269.095 170.791L316.804 105.675Z" fill="url(#paint7_linear_15725_12158)"/>
</g>
<mask id="mask9_15725_12158" style="mask-type:luminance" maskUnits="userSpaceOnUse" x="237" y="6" width="49" height="49">
<path d="M280.679 6.67303L237.512 11.2705L242.11 54.4387L285.278 49.8413L280.679 6.67303Z" fill="white"/>
</mask>
<g mask="url(#mask9_15725_12158)">
<path d="M313.964 22.4587L253.072 -22.1572L208.459 38.7338L269.35 83.3497L313.964 22.4587Z" fill="url(#paint8_linear_15725_12158)"/>
</g>
<mask id="mask10_15725_12158" style="mask-type:luminance" maskUnits="userSpaceOnUse" x="179" y="81" width="45" height="45">
<path d="M223.993 88.1112L186.75 81.1543L179.794 118.397L217.037 125.354L223.993 88.1112Z" fill="white"/>
</mask>
<g mask="url(#mask10_15725_12158)">
<path d="M250.891 95.7824L194.109 54.1777L152.507 110.959L209.289 152.564L250.891 95.7824Z" fill="url(#paint9_linear_15725_12158)"/>
</g>
<mask id="mask11_15725_12158" style="mask-type:luminance" maskUnits="userSpaceOnUse" x="-52" y="161" width="279" height="214">
<path d="M197.15 222.185L195.85 224.095C168.535 263.894 135.285 295.851 97.0732 319.072L107.551 283.692C133.979 266.611 156.739 245.185 175.193 220.031C175.67 219.423 176.113 218.754 176.59 218.146C177.687 216.602 178.908 214.985 179.897 213.254L180.975 211.389L152.034 191.973L150.079 194.758C142.775 205.355 125.796 229.907 93.9842 253.162L59.5326 239.413C91.8576 227.378 115.979 209.889 131.151 187.375L131.275 187.303C132.052 185.778 133.273 184.161 134.432 182.581L135.856 180.599L107.395 161.153L106.095 163.064C84.0708 195.666 50.6765 219.337 12.1763 229.717C8.50481 230.677 3.86508 232.112 -1.50343 233.72C-16.9779 238.346 -38.1318 244.759 -48.5543 244.645L-51.3845 244.622L-49.0688 256.956L-47.1994 257.037C-47.1994 257.037 -14.5498 257.907 23.3822 249.844L57.5653 275.183C30.0791 288.566 -0.597818 296.997 -33.674 300.268L-36.3248 300.556L-30.5845 324.419L-28.751 324.437C-25.0839 324.474 -23.3842 324.405 -18.5794 324.116C2.62386 322.812 21.283 319.827 38.4738 314.874C48.4651 312.088 58.5684 308.492 68.5091 304.327L68.5096 334.321C44.2092 345.617 22.8211 351.337 9.13647 354.183C-5.97997 357.276 -15.377 357.647 -15.475 357.621L-18.5897 357.679L-12.8253 374.983L-11.1258 374.913C-11.1258 374.913 11.6555 374.189 32.2559 371.409C40.5457 370.269 47.5348 368.885 52.8771 367.375C119.224 348.541 178.263 307.578 219.124 251.921C221.212 249.224 223.016 246.608 224.784 243.93L226.084 242.02L197.336 222.077L197.15 222.185Z" fill="white"/>
</mask>
<g mask="url(#mask11_15725_12158)">
<path d="M286.969 218.717L68.6973 58.7871L-120.91 317.574L97.3615 477.504L286.969 218.717Z" fill="url(#paint10_linear_15725_12158)"/>
</g>
<mask id="mask12_15725_12158" style="mask-type:luminance" maskUnits="userSpaceOnUse" x="-118" y="-138" width="255" height="111">
<path d="M135.371 -46.3966C110.185 -87.867 70.4905 -117.729 23.5298 -130.471C-23.3687 -143.248 -72.6685 -137.653 -115.367 -114.741L-117.418 -113.557L-100.842 -84.8475L-98.9155 -85.9597C-63.7982 -104.495 -23.3669 -108.946 15.004 -98.4541C53.3749 -87.9619 85.8985 -63.488 106.671 -29.6612L107.819 -27.6725L136.653 -44.3195L135.469 -46.3704L135.371 -46.3966Z" fill="white"/>
</mask>
<g mask="url(#mask12_15725_12158)">
</g>
<defs>
<linearGradient id="paint0_linear_15725_12158" x1="284.94" y1="102.909" x2="-151.785" y2="-217.068" gradientUnits="userSpaceOnUse">
<stop stop-color="#6544AE"/>
<stop offset="0.4" stop-color="#4C86AA"/>
<stop offset="1" stop-color="#68B7A5"/>
</linearGradient>
<linearGradient id="paint1_linear_15725_12158" x1="267.447" y1="128.771" x2="-169.275" y2="-191.205" gradientUnits="userSpaceOnUse">
<stop stop-color="#6544AE"/>
<stop offset="0.4" stop-color="#4C86AA"/>
<stop offset="1" stop-color="#68B7A5"/>
</linearGradient>
<linearGradient id="paint2_linear_15725_12158" x1="227.721" y1="183.316" x2="-209.002" y2="-136.661" gradientUnits="userSpaceOnUse">
<stop stop-color="#6544AE"/>
<stop offset="0.4" stop-color="#4C86AA"/>
<stop offset="1" stop-color="#68B7A5"/>
</linearGradient>
<linearGradient id="paint3_linear_15725_12158" x1="241.892" y1="161.937" x2="-194.832" y2="-158.04" gradientUnits="userSpaceOnUse">
<stop stop-color="#6544AE"/>
<stop offset="0.4" stop-color="#4C86AA"/>
<stop offset="1" stop-color="#68B7A5"/>
</linearGradient>
<linearGradient id="paint4_linear_15725_12158" x1="221.862" y1="190.258" x2="-214.861" y2="-129.719" gradientUnits="userSpaceOnUse">
<stop stop-color="#6544AE"/>
<stop offset="0.4" stop-color="#4C86AA"/>
<stop offset="1" stop-color="#68B7A5"/>
</linearGradient>
<linearGradient id="paint5_linear_15725_12158" x1="215.315" y1="197.812" x2="-221.406" y2="-122.162" gradientUnits="userSpaceOnUse">
<stop stop-color="#6544AE"/>
<stop offset="0.4" stop-color="#4C86AA"/>
<stop offset="1" stop-color="#68B7A5"/>
</linearGradient>
<linearGradient id="paint6_linear_15725_12158" x1="287.911" y1="98.9517" x2="-148.814" y2="-221.026" gradientUnits="userSpaceOnUse">
<stop stop-color="#6544AE"/>
<stop offset="0.4" stop-color="#4C86AA"/>
<stop offset="1" stop-color="#68B7A5"/>
</linearGradient>
<linearGradient id="paint7_linear_15725_12158" x1="271.303" y1="123.462" x2="-165.42" y2="-196.515" gradientUnits="userSpaceOnUse">
<stop stop-color="#6544AE"/>
<stop offset="0.4" stop-color="#4C86AA"/>
<stop offset="1" stop-color="#68B7A5"/>
</linearGradient>
<linearGradient id="paint8_linear_15725_12158" x1="310.622" y1="67.9345" x2="-126.102" y2="-252.043" gradientUnits="userSpaceOnUse">
<stop stop-color="#6544AE"/>
<stop offset="0.4" stop-color="#4C86AA"/>
<stop offset="1" stop-color="#68B7A5"/>
</linearGradient>
<linearGradient id="paint9_linear_15725_12158" x1="255.864" y1="144.237" x2="-180.859" y2="-175.74" gradientUnits="userSpaceOnUse">
<stop stop-color="#6544AE"/>
<stop offset="0.4" stop-color="#4C86AA"/>
<stop offset="1" stop-color="#68B7A5"/>
</linearGradient>
<linearGradient id="paint10_linear_15725_12158" x1="134.178" y1="309.973" x2="-302.546" y2="-10.0043" gradientUnits="userSpaceOnUse">
<stop stop-color="#6544AE"/>
<stop offset="0.4" stop-color="#4C86AA"/>
<stop offset="1" stop-color="#68B7A5"/>
</linearGradient>
</defs>
</svg>
