<svg width="418" height="110" viewBox="0 0 418 110" fill="none" xmlns="http://www.w3.org/2000/svg">
<path d="M173.261 50.0762H134.379" stroke="white" stroke-width="0.197434"/>
<path d="M12.9456 46.5359C12.6618 46.3631 12.3657 46.2891 12.0448 46.2891C11.7117 46.2891 11.3908 46.3755 11.107 46.5359C10.8109 46.7086 10.5764 46.9307 10.4037 47.2145C10.2309 47.4983 10.1445 47.8068 10.1445 48.14C10.1445 48.4608 10.2309 48.757 10.4037 49.0285C10.5764 49.2999 10.8109 49.5221 11.107 49.6948C11.4032 49.8676 11.7117 49.9416 12.0448 49.9416C12.3657 49.9416 12.6618 49.8552 12.9333 49.6948C13.2047 49.5221 13.4269 49.2999 13.5996 49.0285C13.7724 48.7446 13.8464 48.4608 13.8464 48.1524C13.8464 47.8192 13.76 47.5107 13.5996 47.2269C13.4392 46.9431 13.2171 46.7209 12.9333 46.5482" fill="white"/>
<path d="M8.47768 46.5359C8.19387 46.3631 7.89771 46.2891 7.56454 46.2891C7.23137 46.2891 6.93523 46.3755 6.65142 46.5359C6.36761 46.7086 6.14548 46.9307 5.98507 47.2145C5.82465 47.4983 5.73828 47.8068 5.73828 48.14C5.73828 48.4608 5.82465 48.757 5.98507 49.0285C6.14548 49.2999 6.37995 49.5221 6.65142 49.6948C6.93523 49.8676 7.23137 49.9416 7.56454 49.9416C7.89771 49.9416 8.19387 49.8552 8.46534 49.6948C8.73682 49.5221 8.95893 49.2999 9.11934 49.0285C9.27976 48.757 9.36613 48.4608 9.36613 48.14C9.36613 47.8068 9.29209 47.4983 9.13168 47.2145C8.97126 46.9307 8.74915 46.7086 8.47768 46.5359Z" fill="white"/>
<path d="M5.16922 44.4016C6.40318 45.0063 7.89628 45.3024 9.66084 45.3024C11.4254 45.3024 12.9185 45.0063 14.1525 44.4016C15.3864 43.797 16.3242 42.9209 16.9535 41.7609C17.5829 40.601 17.9037 39.1943 17.9037 37.5408V32.2471C17.9037 31.3093 18.1258 30.6183 18.57 30.1864C19.0143 29.7545 19.73 29.5447 20.7171 29.5447H22.4077V39.0833H74.0736V35.0112C74.0736 32.3829 73.469 30.2234 72.272 28.5452C71.0627 26.867 69.0144 26.0156 66.0899 26.0156C65.115 26.0156 64.0909 26.1267 63.0173 26.3611L63.5849 29.4213C64.2883 29.3103 64.967 29.2486 65.658 29.2486C66.966 29.2486 67.9778 29.4954 68.6812 29.989C69.3969 30.4826 69.8782 31.1242 70.1373 31.9263C70.3964 32.7284 70.5198 33.6785 70.5198 34.7768V35.7639H59.155V26.2254H55.6012V35.7639H52.3436V27.1508H48.7897V35.7639H45.5198V27.1508H41.9659V35.7639H35.9195V26.2254H32.3904V35.7639H25.9615V26.2254H19.8534C16.1885 26.2254 14.3622 28.1134 14.3622 31.8769V36.2575C14.3622 38.0591 14.0167 39.4658 13.3134 40.4777C12.61 41.4895 11.4007 41.9954 9.66084 41.9954C7.92095 41.9954 6.724 41.4895 6.02064 40.4777C5.31728 39.4658 4.95945 38.0591 4.95945 36.2575V30.1371H1.41797V37.5162C1.41797 39.1697 1.7388 40.5764 2.36812 41.7363C2.99744 42.8962 3.93526 43.7723 5.16922 44.377" fill="white"/>
<path d="M35.7248 23.3993C36.021 23.572 36.3295 23.646 36.6627 23.646C36.9835 23.646 37.2796 23.5597 37.5511 23.3993C37.8226 23.2265 38.0447 23.0044 38.2174 22.7329C38.3902 22.4491 38.4642 22.1653 38.4642 21.8568C38.4642 21.5236 38.3778 21.2151 38.2174 20.9313C38.057 20.6475 37.8349 20.4254 37.5511 20.2526C37.2673 20.0799 36.9711 20.0059 36.6503 20.0059C36.3171 20.0059 35.9963 20.0922 35.7125 20.2526C35.4163 20.4254 35.1819 20.6475 35.0092 20.9313C34.8364 21.2151 34.75 21.5236 34.75 21.8568C34.75 22.1776 34.8364 22.4738 35.0092 22.7453C35.1819 23.0167 35.4163 23.2388 35.7125 23.4116" fill="white"/>
<path d="M31.2803 23.3999C31.5641 23.5726 31.8603 23.6467 32.1935 23.6467C32.5266 23.6467 32.8228 23.5603 33.0942 23.3999C33.3657 23.2271 33.5878 23.0173 33.7482 22.7335C33.9086 22.4621 33.995 22.1659 33.995 21.8451C33.995 21.5119 33.921 21.2034 33.7606 20.9196C33.6002 20.6358 33.3781 20.4137 33.1066 20.2409C32.8228 20.0682 32.5266 19.9941 32.1935 19.9941C31.8603 19.9941 31.5641 20.0805 31.2803 20.2409C30.9965 20.4137 30.7744 20.6358 30.614 20.9196C30.4535 21.2034 30.3672 21.5119 30.3672 21.8451C30.3672 22.1659 30.4535 22.4621 30.614 22.7335C30.7867 23.005 31.0088 23.2271 31.2803 23.3999Z" fill="white"/>
<path d="M68.8175 41.0066C68.5337 40.8338 68.2252 40.7598 67.892 40.7598C67.5712 40.7598 67.2751 40.8462 66.9912 41.0066C66.7074 41.1793 66.4853 41.4014 66.3249 41.6852C66.1645 41.969 66.0781 42.2652 66.0781 42.586C66.0781 42.9069 66.1645 43.2154 66.3249 43.5115C66.4853 43.7953 66.7074 44.0298 66.9912 44.1902C67.2751 44.3629 67.5712 44.437 67.892 44.437C68.2252 44.437 68.5337 44.3506 68.8175 44.1902C69.1013 44.0174 69.3234 43.7953 69.4838 43.5115C69.6442 43.2277 69.7306 42.9192 69.7306 42.586C69.7306 42.2529 69.6442 41.9567 69.4838 41.6729C69.3234 41.3891 69.1013 41.167 68.8175 41.0066Z" fill="white"/>
<path d="M85.5392 40.8364C85.4034 41.2436 85.1566 41.5397 84.7988 41.7125C84.4409 41.8976 83.9227 41.984 83.2193 41.984H79.1473V45.3033H83.5525C84.9963 45.3033 86.1315 45.0565 86.9582 44.5506C87.785 44.057 88.365 43.3537 88.7105 42.4529C89.056 41.5521 89.2411 40.4292 89.2781 39.0842H107.442V19.9824H103.888V35.7895H98.4217V19.9824H94.8679V35.7895H89.3028V26.251H82.553C78.9005 26.251 77.0742 28.1389 77.0742 31.9025V39.0965H85.7366C85.7366 39.8492 85.6626 40.4292 85.5392 40.8364ZM80.6403 35.8018V32.2604C80.6403 31.3225 80.8625 30.6315 81.3067 30.1996C81.7509 29.7677 82.4666 29.558 83.4415 29.558H85.7613V35.7895H80.628L80.6403 35.8018Z" fill="white"/>
<path d="M114.734 19.9941H111.18V39.0959H114.734V19.9941Z" fill="white"/>
<path d="M131.862 23.3993C132.158 23.572 132.466 23.646 132.799 23.646C133.12 23.646 133.416 23.5597 133.688 23.3993C133.959 23.2265 134.181 23.0044 134.354 22.7329C134.527 22.4491 134.601 22.1653 134.601 21.8568C134.601 21.5236 134.515 21.2151 134.354 20.9313C134.194 20.6475 133.972 20.4254 133.688 20.2526C133.404 20.0799 133.108 20.0059 132.787 20.0059C132.454 20.0059 132.133 20.0922 131.849 20.2526C131.553 20.4254 131.319 20.6475 131.146 20.9313C130.973 21.2151 130.887 21.5236 130.887 21.8568C130.887 22.1776 130.973 22.4738 131.146 22.7453C131.319 23.0167 131.553 23.2388 131.849 23.4116" fill="white"/>
<path d="M127.421 23.3999C127.705 23.5726 128.001 23.6467 128.334 23.6467C128.667 23.6467 128.963 23.5603 129.235 23.3999C129.506 23.2271 129.728 23.0173 129.889 22.7335C130.049 22.4621 130.136 22.1659 130.136 21.8451C130.136 21.5119 130.062 21.2034 129.901 20.9196C129.741 20.6358 129.519 20.4137 129.247 20.2409C128.963 20.0682 128.667 19.9941 128.334 19.9941C128.001 19.9941 127.705 20.0805 127.421 20.2409C127.137 20.4137 126.915 20.6358 126.755 20.9196C126.594 21.2034 126.508 21.5119 126.508 21.8451C126.508 22.1659 126.594 22.4621 126.755 22.7335C126.927 23.005 127.149 23.2271 127.421 23.3999Z" fill="white"/>
<path d="M157.291 39.0959V31.9019C157.291 30.051 156.847 28.6566 155.958 27.6941C155.07 26.7316 153.688 26.2504 151.825 26.2504H144.322L152.392 20.932V17.082L143.002 23.3876C142.163 23.9429 141.521 24.4488 141.077 24.893C140.633 25.3373 140.324 25.8062 140.139 26.2874C139.954 26.7687 139.868 27.3486 139.868 28.0149V29.545H150.936C151.911 29.545 152.627 29.7548 153.071 30.1867C153.515 30.6186 153.737 31.2973 153.737 32.2474V35.7889H136.018V26.2504H129.256C127.392 26.2504 126.01 26.7316 125.122 27.6941C124.233 28.6566 123.789 30.0633 123.789 31.9019V39.0959H157.266H157.291ZM132.451 35.8012H127.318V32.2598C127.318 31.322 127.54 30.6309 127.985 30.199C128.429 29.7672 129.144 29.5574 130.132 29.5574H132.451V35.7889V35.8012Z" fill="white"/>
<path d="M164.007 19.9941H160.453V39.0959H164.007V19.9941Z" fill="white"/>
<path d="M170.534 43.6739C171.484 42.588 171.965 41.0579 171.965 39.0959H203.752V19.9941H200.198V35.8012H194.67V26.2626H191.116V35.8012H187.859V27.1881H184.305V35.8012H181.035V27.1881H177.481V35.8012H171.953V26.2626H168.399V39.0218C168.399 39.8856 168.189 40.5766 167.782 41.1319C167.375 41.6749 166.721 41.9463 165.833 41.9463H164.734V45.315H166.19C168.128 45.315 169.572 44.7721 170.522 43.6862" fill="white"/>
<path d="M185.207 19.5731C185.491 19.7458 185.811 19.8199 186.145 19.8199C186.465 19.8199 186.762 19.7335 187.045 19.5731C187.329 19.4003 187.551 19.1782 187.712 18.9067C187.872 18.6229 187.958 18.3391 187.958 18.0306C187.958 17.6975 187.872 17.389 187.712 17.1052C187.551 16.8213 187.329 16.5992 187.058 16.4265C186.786 16.2537 186.478 16.1797 186.157 16.1797C185.836 16.1797 185.503 16.266 185.219 16.4265C184.923 16.5992 184.688 16.8213 184.528 17.1052C184.355 17.389 184.281 17.6975 184.281 18.0306C184.281 18.3391 184.368 18.6353 184.54 18.9067C184.713 19.1905 184.948 19.4127 185.231 19.5731" fill="white"/>
<path d="M182.948 23.3999C183.232 23.5726 183.528 23.6467 183.861 23.6467C184.195 23.6467 184.491 23.5603 184.762 23.3999C185.034 23.2271 185.256 23.0173 185.416 22.7335C185.577 22.4621 185.663 22.1659 185.663 21.8451C185.663 21.5119 185.589 21.2034 185.429 20.9196C185.268 20.6358 185.046 20.4137 184.775 20.2409C184.491 20.0682 184.195 19.9941 183.861 19.9941C183.528 19.9941 183.232 20.0805 182.948 20.2409C182.664 20.4137 182.442 20.6358 182.282 20.9196C182.122 21.2034 182.035 21.5119 182.035 21.8451C182.035 22.1659 182.122 22.4621 182.282 22.7335C182.455 23.005 182.677 23.2271 182.948 23.3999Z" fill="white"/>
<path d="M186.762 20.9073C186.601 21.1911 186.527 21.4996 186.527 21.8204C186.527 22.1412 186.614 22.4497 186.774 22.7335C186.935 23.0173 187.157 23.2395 187.428 23.3999C187.7 23.5726 188.008 23.6467 188.329 23.6467C188.65 23.6467 188.958 23.5603 189.242 23.3999C189.526 23.2271 189.748 23.005 189.908 22.7212C190.081 22.4374 190.155 22.1412 190.155 21.8204C190.155 21.4996 190.069 21.1911 189.908 20.9073C189.736 20.6234 189.514 20.4014 189.242 20.2409C188.958 20.0805 188.662 19.9941 188.329 19.9941C187.996 19.9941 187.7 20.0805 187.416 20.2409C187.132 20.4014 186.922 20.6234 186.762 20.9073Z" fill="white"/>
<path d="M211.034 19.9941H207.48V39.0959H211.034V19.9941Z" fill="white"/>
<path d="M267.476 44.2038C267.759 44.3766 268.056 44.4507 268.364 44.4507C268.697 44.4507 269.006 44.3643 269.29 44.2038C269.573 44.0311 269.795 43.809 269.956 43.5252C270.116 43.2414 270.203 42.9329 270.203 42.5997C270.203 42.2665 270.116 41.9704 269.956 41.6866C269.795 41.4027 269.573 41.1807 269.29 41.0202C269.006 40.8475 268.697 40.7734 268.364 40.7734C268.043 40.7734 267.747 40.8598 267.476 41.0202C267.192 41.193 266.97 41.4151 266.809 41.6989C266.649 41.9827 266.562 42.2789 266.562 42.5997C266.562 42.9205 266.649 43.229 266.809 43.5252C266.97 43.809 267.192 44.0434 267.476 44.2038Z" fill="white"/>
<path d="M286.353 26.262H279.603V35.8005H274.618V35.0355C274.618 32.4072 274.013 30.2477 272.816 28.5696C271.619 26.8914 269.559 26.0523 266.634 26.0523C265.659 26.0523 264.635 26.1633 263.562 26.3978L264.129 29.458C264.833 29.347 265.524 29.2852 266.202 29.2852C267.51 29.2852 268.51 29.532 269.226 30.0256C269.929 30.5192 270.41 31.1609 270.669 31.9629C270.916 32.7527 271.052 33.7151 271.052 34.8257V35.8129H259.761V20.0059H256.207V35.8129H250.642V26.2744H247.088V35.8129H243.818V27.1998H240.264V35.8129H236.6V26.2744H233.046V36.3065C233.046 38.1081 232.7 39.5148 231.997 40.5266C231.294 41.5385 230.084 42.0444 228.344 42.0444C226.605 42.0444 225.408 41.5385 224.704 40.5266C224.001 39.5148 223.643 38.1081 223.643 36.3065V30.186H220.102V37.5775C220.102 39.231 220.422 40.6377 221.052 41.7976C221.681 42.9575 222.619 43.8336 223.853 44.4383C225.087 45.0429 226.58 45.3391 228.344 45.3391C229.875 45.3391 231.207 45.0923 232.342 44.5863C233.478 44.0804 234.378 43.3647 235.057 42.4393C235.736 41.5138 236.18 40.4156 236.402 39.1323H291.844V31.9382C291.844 28.1747 290.018 26.2867 286.365 26.2867M288.278 35.8005H283.145V29.5691H285.464C286.439 29.5691 287.155 29.7788 287.599 30.2107C288.043 30.6426 288.266 31.3213 288.266 32.2714V35.8129L288.278 35.8005Z" fill="white"/>
<path d="M28.7024 56.5449H14.1416V66.577C14.1416 68.3786 13.7961 69.7853 13.1051 70.7972C12.4141 71.809 11.2048 72.3149 9.4649 72.3149C7.72501 72.3149 6.52807 71.809 5.82471 70.7972C5.12136 69.7853 4.77584 68.3786 4.77584 66.577V60.4566H1.23438V67.848C1.23438 69.5015 1.55521 70.9083 2.18453 72.0682C2.81385 73.2281 3.75165 74.1042 4.98561 74.7088C6.21957 75.3135 7.71266 75.6096 9.47723 75.6096C11.0073 75.6096 12.34 75.3628 13.4753 74.8569C14.6105 74.351 15.5113 73.6353 16.19 72.7098C16.8687 71.7844 17.3129 70.6861 17.535 69.4028H34.1811V62.2088C34.1811 58.4452 32.3549 56.5573 28.7147 56.5573M30.6273 66.0835H17.7077V59.8519H27.8139C28.7887 59.8519 29.5044 60.0617 29.9487 60.4936C30.3929 60.9255 30.615 61.6042 30.615 62.5543V66.0958L30.6273 66.0835Z" fill="white"/>
<path d="M81.8253 50.532C81.5415 50.3592 81.2453 50.2852 80.9122 50.2852C80.579 50.2852 80.2829 50.3715 79.9991 50.532C79.7152 50.7047 79.4931 50.9268 79.3327 51.2106C79.1723 51.4944 79.0859 51.8029 79.0859 52.1361C79.0859 52.4569 79.1723 52.7531 79.3327 53.0246C79.5055 53.296 79.7276 53.5181 79.9991 53.6909C80.2829 53.8637 80.579 53.9377 80.9122 53.9377C81.2453 53.9377 81.5415 53.8513 81.813 53.6909C82.0845 53.5181 82.3066 53.296 82.467 53.0246C82.6274 52.7531 82.7137 52.4569 82.7137 52.1361C82.7137 51.8029 82.6397 51.4944 82.4793 51.2106C82.3189 50.9268 82.0968 50.7047 81.8253 50.532Z" fill="white"/>
<path d="M99.7159 66.0831H87.7959V65.318C87.7959 62.6897 87.1912 60.5302 85.9943 58.852C84.785 57.1738 82.7367 56.3224 79.8122 56.3224C78.8373 56.3224 77.8131 56.4335 76.7396 56.6679L77.3072 59.7282C78.0106 59.6171 78.7016 59.5554 79.3803 59.5554C80.6883 59.5554 81.6878 59.8022 82.4035 60.2958C83.1068 60.7894 83.5881 61.431 83.8472 62.2208C84.1063 63.0105 84.2297 63.973 84.2297 65.0836V66.0707H42.9044C42.1887 66.0707 41.6704 65.9226 41.3619 65.6142C41.0534 65.3057 40.9054 64.7997 40.9054 64.0717V50.2637H37.3516V63.8989C37.3516 65.2316 37.5366 66.2928 37.9192 67.0826C38.3017 67.8723 38.894 68.4523 39.7207 68.8225C40.5475 69.1926 41.6581 69.3654 43.0525 69.3654H103.282V50.2637H99.7283V66.0707L99.7159 66.0831Z" fill="white"/>
<path d="M110.538 50.2852H106.984V69.3869H110.538V50.2852Z" fill="white"/>
<path d="M128.148 62.5537C128.148 61.6159 128.37 60.9249 128.815 60.493C129.259 60.0611 129.974 59.8513 130.962 59.8513H134.219V56.5566H130.061C126.421 56.5566 124.594 58.4446 124.594 62.2082V66.0951H124.397C123.731 66.1198 123.027 66.2802 122.287 66.564C121.559 66.8479 120.917 67.3538 120.362 68.0572C119.807 68.7729 119.535 69.7354 119.535 70.9446C119.535 72.4994 119.992 73.6717 120.905 74.4367C121.818 75.2141 123.212 75.5967 125.1 75.5967H129.74V72.3143H124.631C124.15 72.3143 123.731 72.2156 123.373 72.0305C123.015 71.8454 122.83 71.4752 122.83 70.9446C122.83 70.4387 123.003 70.0562 123.36 69.797C123.718 69.5379 124.163 69.4022 124.693 69.4022H135.132V66.1075H128.136V62.566L128.148 62.5537Z" fill="white"/>
<path d="M187.907 50.532C187.623 50.3592 187.327 50.2852 187.006 50.2852C186.673 50.2852 186.352 50.3715 186.056 50.532C185.76 50.7047 185.526 50.9268 185.353 51.2106C185.18 51.4944 185.094 51.8029 185.094 52.1361C185.094 52.4569 185.18 52.7531 185.353 53.0246C185.526 53.296 185.76 53.5181 186.056 53.6909C186.352 53.8637 186.661 53.9377 187.006 53.9377C187.327 53.9377 187.623 53.8513 187.895 53.6909C188.166 53.5181 188.388 53.296 188.561 53.0246C188.734 52.7407 188.808 52.4569 188.808 52.1484C188.808 51.8153 188.722 51.5068 188.561 51.223C188.401 50.9392 188.179 50.7171 187.895 50.5443" fill="white"/>
<path d="M183.443 50.532C183.159 50.3592 182.863 50.2852 182.529 50.2852C182.196 50.2852 181.9 50.3715 181.616 50.532C181.332 50.7047 181.11 50.9268 180.95 51.2106C180.79 51.4944 180.703 51.8029 180.703 52.1361C180.703 52.4569 180.79 52.7531 180.95 53.0246C181.123 53.296 181.345 53.5181 181.616 53.6909C181.9 53.8637 182.196 53.9377 182.529 53.9377C182.863 53.9377 183.159 53.8513 183.43 53.6909C183.702 53.5181 183.924 53.296 184.084 53.0246C184.245 52.7531 184.331 52.4569 184.331 52.1361C184.331 51.8029 184.257 51.4944 184.097 51.2106C183.936 50.9268 183.714 50.7047 183.443 50.532Z" fill="white"/>
<path d="M196.31 66.0824H190.757V56.5439H183.983C180.343 56.5439 178.516 58.4319 178.516 62.1955V66.0824H173.482V62.1955C173.482 58.4319 171.656 56.5439 168.015 56.5439H156.836V50.2754H153.282V66.0824H143.682C142.966 66.0824 142.448 65.9344 142.139 65.6259C141.831 65.3174 141.683 64.8115 141.683 64.0834V50.2754H138.129V63.9106C138.129 65.2433 138.314 66.3046 138.697 67.0943C139.079 67.884 139.671 68.464 140.498 68.8341C141.325 69.2043 142.435 69.3771 143.83 69.3771H199.839V50.2754H196.286V66.0824H196.31ZM169.94 66.0824H156.848V59.8509H167.127C168.114 59.8509 168.83 60.0607 169.274 60.4926C169.718 60.9245 169.94 61.6031 169.94 62.5533V66.0947V66.0824ZM187.179 66.0824H182.046V62.541C182.046 61.6032 182.268 60.9121 182.712 60.4802C183.156 60.0484 183.872 59.8386 184.847 59.8386H187.167V66.0701L187.179 66.0824Z" fill="white"/>
<path d="M207.148 50.2852H203.594V69.3869H207.148V50.2852Z" fill="white"/>
<path d="M286.352 56.5449H279.603V66.0835H224.753V62.542C224.753 61.6042 224.975 60.9131 225.419 60.4813C225.864 60.0494 226.579 59.8396 227.566 59.8396H230.824V56.5449H226.666C223.025 56.5449 221.199 58.4329 221.199 62.1965V66.0835H221.002C220.101 66.1205 219.299 66.3179 218.571 66.6634C217.843 67.0089 217.263 67.5395 216.819 68.2552C216.374 68.9709 216.152 69.8717 216.152 70.9453C216.152 72.5001 216.609 73.6723 217.522 74.4374C218.435 75.2148 219.83 75.5973 221.718 75.5973H226.357V72.3149H221.249C220.767 72.3149 220.348 72.2163 219.99 72.0312C219.632 71.8461 219.447 71.4759 219.447 70.9453C219.447 70.4393 219.62 70.0568 219.978 69.7977C220.335 69.5262 220.78 69.4028 221.31 69.4028H291.844V62.2088C291.844 58.4452 290.017 56.5573 286.365 56.5573M288.277 66.0835H283.144V59.8519H285.464C286.439 59.8519 287.154 60.0617 287.599 60.4936C288.043 60.9255 288.265 61.6042 288.265 62.5543V66.0958L288.277 66.0835Z" fill="white"/>
<path d="M3.70404 85.5547H2.21094V93.6618H7.27019V92.4402H3.70404V85.5547Z" fill="white"/>
<path d="M11.4511 85.4453C10.2788 85.4453 9.35335 85.8155 8.68701 86.5435C8.02067 87.2716 7.6875 88.2958 7.6875 89.6038C7.6875 90.9118 8.02067 91.9359 8.68701 92.664C9.35335 93.392 10.2788 93.7622 11.4511 93.7622C12.6233 93.7622 13.5488 93.392 14.2028 92.664C14.8692 91.9236 15.19 90.9118 15.19 89.6038C15.19 88.2958 14.8568 87.2716 14.2028 86.5435C13.5488 85.8155 12.6233 85.4453 11.4511 85.4453ZM13.0676 91.7755C12.685 92.2938 12.1421 92.5529 11.4511 92.5529C10.7601 92.5529 10.2295 92.2938 9.84693 91.7755C9.4644 91.2573 9.26697 90.5292 9.26697 89.6038C9.26697 88.6783 9.4644 87.9502 9.84693 87.432C10.2295 86.9137 10.7724 86.6546 11.4511 86.6546C12.1298 86.6546 12.6727 86.9137 13.0676 87.432C13.4501 87.9502 13.6475 88.6783 13.6475 89.6038C13.6475 90.5292 13.4501 91.2573 13.0676 91.7755Z" fill="white"/>
<path d="M19.9046 90.3922H22.064C22.027 91.0708 21.8296 91.6014 21.4594 91.984C21.0892 92.3665 20.5956 92.5516 19.9786 92.5516C19.3123 92.5516 18.7817 92.2925 18.3991 91.7742C18.0166 91.256 17.8315 90.5279 17.8315 89.6024C17.8315 88.677 18.0289 87.9489 18.4115 87.4307C18.794 86.9124 19.3369 86.6533 20.028 86.6533C20.5462 86.6533 20.9781 86.8137 21.336 87.1469C21.6938 87.48 21.9159 87.9242 22.0146 88.5042H23.4584C23.335 87.5417 22.9648 86.789 22.3725 86.2461C21.7678 85.7031 20.9905 85.4316 20.028 85.4316C18.8557 85.4316 17.9302 85.8018 17.2762 86.5299C16.6099 87.2703 16.2891 88.2821 16.2891 89.5901C16.2891 90.8981 16.5605 91.9223 17.0911 92.6503C17.6217 93.3784 18.3621 93.7485 19.3123 93.7485C20.176 93.7485 20.8671 93.4894 21.3483 92.9588C21.8419 92.4282 22.0887 91.7002 22.0887 90.75H22.1134V93.6498H23.5448V89.368H19.9292V90.3922H19.9046Z" fill="white"/>
<path d="M26.6422 85.5547H25.1367V93.6618H26.6422V85.5547Z" fill="white"/>
<path d="M34.3557 89.9369C34.257 89.8012 34.1212 89.6654 33.9361 89.5544C33.751 89.431 33.5906 89.3446 33.4549 89.2829C33.3192 89.2212 33.1217 89.1472 32.8749 89.0855C32.6281 89.0238 32.4307 88.9868 32.295 88.9621C32.1592 88.9374 31.9618 88.9127 31.6903 88.8634C31.4312 88.8264 31.2214 88.8017 31.0857 88.777C30.9499 88.7523 30.7772 88.7153 30.5921 88.6536C30.3947 88.5919 30.2589 88.5302 30.1602 88.4562C30.0615 88.3821 29.9751 88.2958 29.9011 88.1724C29.8271 88.049 29.79 87.9256 29.79 87.7652C29.79 87.4197 29.9258 87.1358 30.1849 86.9507C30.4564 86.7533 30.8266 86.6669 31.2955 86.6669C31.7644 86.6669 32.1839 86.8027 32.4801 87.0865C32.7762 87.3703 32.9366 87.7651 32.9736 88.2711H34.4791C34.3927 87.3826 34.0842 86.6792 33.5413 86.1857C32.9983 85.6921 32.2703 85.4453 31.3819 85.4453C30.3947 85.4453 29.6296 85.6551 29.0867 86.0746C28.5437 86.4942 28.2599 87.0988 28.2599 87.8885C28.2599 88.1353 28.2969 88.3575 28.3586 88.5672C28.4203 88.7647 28.5067 88.9374 28.5931 89.0732C28.6795 89.2089 28.8152 89.3323 28.988 89.4433C29.1607 89.5544 29.3088 89.6408 29.4445 89.7025C29.5803 89.7642 29.7653 89.8258 29.9998 89.8875C30.2342 89.9369 30.4194 89.974 30.5674 89.9986C30.7155 90.0233 30.9006 90.048 31.1597 90.085C31.4435 90.1343 31.6533 90.159 31.789 90.1837C31.9248 90.2084 32.0975 90.2577 32.3196 90.3194C32.5294 90.3811 32.6899 90.4552 32.8009 90.5292C32.8996 90.6033 32.9983 90.7143 33.0724 90.8501C33.1588 90.9858 33.1958 91.1462 33.1958 91.3313C33.1958 91.7138 33.0354 92.0223 32.7269 92.2321C32.4184 92.4419 31.9865 92.5529 31.4312 92.5529C30.8759 92.5529 30.4564 92.4048 30.1232 92.0963C29.79 91.7879 29.6049 91.3683 29.5556 90.8254H28.0625C28.1365 91.7508 28.4697 92.4789 29.0497 92.9971C29.642 93.5154 30.4193 93.7746 31.3942 93.7746C32.443 93.7746 33.2575 93.5524 33.8374 93.0959C34.4297 92.6393 34.7259 92.01 34.7259 91.1956C34.7259 90.9364 34.6888 90.702 34.6271 90.4799C34.5531 90.2701 34.4791 90.085 34.3804 89.9493" fill="white"/>
<path d="M35.2188 86.7276H37.5756V93.6625H39.1057V86.7276H41.4749V85.543H35.2188V86.7276Z" fill="white"/>
<path d="M44.189 85.5547H42.6836V93.6618H44.189V85.5547Z" fill="white"/>
<path d="M49.4075 86.6533C49.9504 86.6533 50.3947 86.826 50.7649 87.1715C51.1227 87.517 51.3572 87.9983 51.4559 88.6152H52.8996C52.7639 87.6157 52.3937 86.8383 51.7767 86.2707C51.1597 85.7154 50.37 85.4316 49.3952 85.4316C48.2229 85.4316 47.2974 85.8018 46.6434 86.5299C45.9894 87.2703 45.6562 88.2821 45.6562 89.5901C45.6562 90.8981 45.9894 91.9223 46.6434 92.6503C47.2974 93.3907 48.2229 93.7485 49.3952 93.7485C50.3576 93.7485 51.1474 93.4647 51.7644 92.8971C52.3814 92.3295 52.7515 91.5398 52.8873 90.5403H51.4435C51.3448 91.1696 51.1104 91.6631 50.7525 92.0086C50.3947 92.3541 49.9381 92.5393 49.3952 92.5393C48.7165 92.5393 48.1859 92.2801 47.8034 91.7619C47.4208 91.2436 47.2234 90.5156 47.2234 89.5901C47.2234 88.6646 47.4208 87.9366 47.8034 87.4183C48.1859 86.9 48.7165 86.6409 49.3952 86.6409" fill="white"/>
<path d="M60.0822 89.9369C59.9835 89.8012 59.8478 89.6654 59.6627 89.5544C59.4776 89.431 59.3172 89.3446 59.1815 89.2829C59.0457 89.2212 58.8483 89.1472 58.6015 89.0855C58.3547 89.0238 58.1573 88.9868 58.0215 88.9621C57.8858 88.9374 57.6883 88.9127 57.4169 88.8634C57.1577 88.8264 56.948 88.8017 56.8122 88.777C56.6765 88.7523 56.5038 88.7153 56.3187 88.6536C56.1212 88.5919 55.9855 88.5302 55.8868 88.4562C55.7881 88.3821 55.7017 88.2958 55.6277 88.1724C55.5536 88.049 55.5166 87.9256 55.5166 87.7652C55.5166 87.4197 55.6523 87.1358 55.9114 86.9507C56.1829 86.7533 56.5531 86.6669 57.022 86.6669C57.4909 86.6669 57.9105 86.8027 58.2066 87.0865C58.5028 87.3703 58.6632 87.7651 58.7002 88.2711H60.2056C60.1193 87.3826 59.8108 86.6792 59.2678 86.1857C58.7249 85.6921 57.9968 85.4453 57.1084 85.4453C56.1212 85.4453 55.3562 85.6551 54.8132 86.0746C54.2703 86.4942 53.9865 87.0988 53.9865 87.8885C53.9865 88.1353 54.0235 88.3575 54.0852 88.5672C54.1469 88.7647 54.2333 88.9374 54.3197 89.0732C54.406 89.2089 54.5418 89.3323 54.7145 89.4433C54.8873 89.5544 55.0354 89.6408 55.1711 89.7025C55.3068 89.7642 55.4919 89.8258 55.7264 89.8875C55.9608 89.9369 56.1459 89.974 56.294 89.9986C56.4421 90.0233 56.6271 90.048 56.8863 90.085C57.1701 90.1343 57.3799 90.159 57.5156 90.1837C57.6513 90.2084 57.8241 90.2577 58.0462 90.3194C58.256 90.3811 58.4164 90.4552 58.5275 90.5292C58.6262 90.6033 58.7249 90.7143 58.7989 90.8501C58.8853 90.9858 58.9223 91.1462 58.9223 91.3313C58.9223 91.7138 58.7619 92.0223 58.4534 92.2321C58.1449 92.4419 57.713 92.5529 57.1578 92.5529C56.6025 92.5529 56.1829 92.4048 55.8498 92.0963C55.5166 91.7879 55.3315 91.3683 55.2821 90.8254H53.7891C53.8631 91.7508 54.1963 92.4789 54.7762 92.9971C55.3685 93.5154 56.1459 93.7746 57.1207 93.7746C58.1696 93.7746 58.984 93.5524 59.564 93.0959C60.1563 92.6393 60.4524 92.01 60.4524 91.1956C60.4524 90.9364 60.4154 90.702 60.3537 90.4799C60.2797 90.2701 60.2057 90.085 60.1069 89.9493" fill="white"/>
<path d="M69.4372 86.2217C68.9066 85.7774 68.1786 85.543 67.2407 85.543H64.2422V93.6501H65.7476V90.6269H67.2407C68.1786 90.6269 68.9189 90.4048 69.4495 89.9482C69.9801 89.504 70.2393 88.8747 70.2393 88.0726C70.2393 87.2705 69.9801 86.6535 69.4495 86.2093M68.3143 89.0968C68.0675 89.3436 67.7343 89.467 67.3148 89.467H65.7476V86.7276H67.3148C67.7343 86.7276 68.0675 86.851 68.3143 87.0854C68.5487 87.3322 68.6721 87.6654 68.6721 88.0973C68.6721 88.5292 68.5487 88.85 68.3143 89.0968Z" fill="white"/>
<path d="M75.9398 90.6639C75.5696 90.4665 75.1624 90.3678 74.7182 90.3678V90.3431C75.6683 90.3431 76.4087 90.121 76.927 89.6891C77.4576 89.2572 77.7167 88.6402 77.7167 87.8628C77.7167 87.1348 77.4452 86.5795 76.9146 86.1599C76.384 85.7527 75.6313 85.543 74.6811 85.543H71.5469V93.6501H73.0523V90.3678H74.5701L76.3347 93.6501H78.0252L76.8036 91.503C76.6061 91.1328 76.3223 90.8613 75.9644 90.6639M73.0523 89.2695V86.7276H74.7675C75.2118 86.7276 75.5573 86.8386 75.8041 87.0608C76.0508 87.2829 76.1742 87.5913 76.1742 87.9739C76.1742 88.3811 76.0508 88.7019 75.8041 88.924C75.5573 89.1461 75.2118 89.2572 74.7675 89.2572H73.0523V89.2695Z" fill="white"/>
<path d="M80.775 85.5547H79.2695V93.6618H80.775V85.5547Z" fill="white"/>
<path d="M87.6871 85.5547L85.6264 93.5384H85.6018L83.5534 85.5547H81.9492L84.2197 93.6618H86.9221L89.2173 85.5547H87.6871Z" fill="white"/>
<path d="M91.6814 85.5547L89.1641 93.6618H90.6818L91.2371 91.6998H94.7045L95.2598 93.6618H96.8763L94.3714 85.5547H91.6937H91.6814ZM91.5703 90.5276L92.9647 85.6781H92.9894L94.3714 90.5276H91.5826H91.5703Z" fill="white"/>
<path d="M96.582 86.7276H98.9389V93.6625H100.469V86.7276H102.838V85.543H96.582V86.7276Z" fill="white"/>
<path d="M105.541 90.0833H109.317V88.8987H105.541V86.7269H109.699V85.5547H104.035V93.6618H109.81V92.4895H105.541V90.0833Z" fill="white"/>
<path d="M119.434 89.9369C119.335 89.8012 119.199 89.6654 119.014 89.5544C118.829 89.431 118.669 89.3446 118.533 89.2829C118.397 89.2212 118.2 89.1472 117.953 89.0855C117.706 89.0238 117.509 88.9868 117.373 88.9621C117.237 88.9374 117.04 88.9127 116.768 88.8634C116.509 88.8264 116.3 88.8017 116.164 88.777C116.028 88.7523 115.855 88.7153 115.67 88.6536C115.473 88.5919 115.337 88.5302 115.238 88.4562C115.14 88.3821 115.053 88.2958 114.979 88.1724C114.905 88.049 114.868 87.9256 114.868 87.7652C114.868 87.4197 115.004 87.1358 115.263 86.9507C115.535 86.7533 115.905 86.6669 116.374 86.6669C116.843 86.6669 117.262 86.8027 117.558 87.0865C117.854 87.3703 118.015 87.7651 118.052 88.2711H119.557C119.471 87.3826 119.162 86.6792 118.619 86.1857C118.076 85.6921 117.348 85.4453 116.46 85.4453C115.473 85.4453 114.708 85.6551 114.165 86.0746C113.622 86.4942 113.338 87.0988 113.338 87.8885C113.338 88.1353 113.375 88.3575 113.437 88.5672C113.498 88.7647 113.585 88.9374 113.671 89.0732C113.758 89.2089 113.893 89.3323 114.066 89.4433C114.239 89.5544 114.387 89.6408 114.523 89.7025C114.658 89.7642 114.844 89.8258 115.078 89.8875C115.312 89.9369 115.497 89.974 115.646 89.9986C115.794 90.0233 115.979 90.048 116.238 90.085C116.522 90.1343 116.731 90.159 116.867 90.1837C117.003 90.2084 117.176 90.2577 117.398 90.3194C117.608 90.3811 117.768 90.4552 117.879 90.5292C117.978 90.6033 118.076 90.7143 118.151 90.8501C118.237 90.9858 118.274 91.1462 118.274 91.3313C118.274 91.7138 118.113 92.0223 117.805 92.2321C117.497 92.4419 117.065 92.5529 116.509 92.5529C115.954 92.5529 115.535 92.4048 115.201 92.0963C114.868 91.7879 114.683 91.3683 114.634 90.8254H113.141C113.215 91.7508 113.548 92.4789 114.128 92.9971C114.72 93.5154 115.498 93.7746 116.472 93.7746C117.521 93.7746 118.336 93.5524 118.916 93.0959C119.508 92.6393 119.804 92.01 119.804 91.1956C119.804 90.9364 119.767 90.702 119.705 90.4799C119.631 90.2701 119.557 90.085 119.459 89.9493" fill="white"/>
<path d="M122.732 90.0833H126.496V88.8987H122.732V86.7269H126.878V85.5547H121.227V93.6618H127.001V92.4895H122.732V90.0833Z" fill="white"/>
<path d="M131.603 86.6533C132.146 86.6533 132.59 86.826 132.96 87.1715C133.318 87.517 133.552 87.9983 133.651 88.6152H135.095C134.959 87.6157 134.589 86.8383 133.972 86.2707C133.355 85.7154 132.565 85.4316 131.59 85.4316C130.418 85.4316 129.493 85.8018 128.839 86.5299C128.185 87.2703 127.852 88.2821 127.852 89.5901C127.852 90.8981 128.185 91.9223 128.839 92.6503C129.493 93.3907 130.418 93.7485 131.59 93.7485C132.553 93.7485 133.343 93.4647 133.96 92.8971C134.577 92.3295 134.947 91.5398 135.083 90.5403H133.639C133.54 91.1696 133.306 91.6631 132.948 92.0086C132.59 92.3541 132.133 92.5393 131.59 92.5393C130.912 92.5393 130.381 92.2801 129.999 91.7619C129.616 91.2436 129.419 90.5156 129.419 89.5901C129.419 88.6646 129.616 87.9366 129.999 87.4183C130.381 86.9 130.912 86.6409 131.59 86.6409" fill="white"/>
<path d="M135.602 86.7276H137.971V93.6625H139.501V86.7276H141.858V85.543H135.602V86.7276Z" fill="white"/>
<path d="M146.076 85.4453C144.904 85.4453 143.978 85.8155 143.312 86.5435C142.646 87.2716 142.312 88.2958 142.312 89.6038C142.312 90.9118 142.646 91.9359 143.312 92.664C143.978 93.392 144.904 93.7622 146.076 93.7622C147.248 93.7622 148.174 93.392 148.828 92.664C149.494 91.9236 149.815 90.9118 149.815 89.6038C149.815 88.2958 149.482 87.2716 148.828 86.5435C148.161 85.8031 147.248 85.4453 146.076 85.4453ZM147.693 91.7755C147.31 92.2938 146.767 92.5529 146.076 92.5529C145.385 92.5529 144.854 92.2938 144.472 91.7755C144.089 91.2573 143.892 90.5292 143.892 89.6038C143.892 88.6783 144.089 87.9502 144.472 87.432C144.854 86.9137 145.397 86.6546 146.076 86.6546C146.755 86.6546 147.298 86.9137 147.693 87.432C148.075 87.9502 148.273 88.6783 148.273 89.6038C148.273 90.5292 148.075 91.2573 147.693 91.7755Z" fill="white"/>
<path d="M155.729 90.6639C155.359 90.4665 154.951 90.3678 154.507 90.3678V90.3431C155.457 90.3431 156.198 90.121 156.716 89.6891C157.247 89.2572 157.506 88.6402 157.506 87.8628C157.506 87.1348 157.234 86.5795 156.704 86.1599C156.173 85.7527 155.42 85.543 154.47 85.543H151.336V93.6501H152.841V90.3678H154.359L156.124 93.6501H157.814L156.593 91.503C156.395 91.1328 156.111 90.8613 155.754 90.6639M152.829 89.2695V86.7276H154.544C154.988 86.7276 155.334 86.8386 155.581 87.0608C155.828 87.2829 155.951 87.5913 155.951 87.9739C155.951 88.3811 155.828 88.7019 155.581 88.924C155.334 89.1461 154.988 89.2572 154.544 89.2572H152.829V89.2695Z" fill="white"/>
<path d="M162.931 90.0833H166.707V88.8987H162.931V86.7269H167.089V85.5547H161.438V93.6618H167.212V92.4895H162.931V90.0833Z" fill="white"/>
<path d="M173.777 93.5391H173.752L171.161 85.543H168.656V93.6625H170.088L170.026 85.6664H170.051L172.642 93.6625H175.147V85.543H173.715L173.777 93.5391Z" fill="white"/>
<path d="M180.272 90.3922H182.431C182.394 91.0708 182.197 91.6014 181.827 91.984C181.456 92.3665 180.963 92.5516 180.346 92.5516C179.679 92.5516 179.149 92.2925 178.766 91.7742C178.384 91.256 178.199 90.5279 178.199 89.6024C178.199 88.677 178.396 87.9489 178.779 87.4307C179.161 86.9124 179.704 86.6533 180.395 86.6533C180.913 86.6533 181.345 86.8137 181.703 87.1469C182.061 87.48 182.283 87.9242 182.382 88.5042H183.826C183.702 87.5417 183.344 86.789 182.74 86.2461C182.135 85.7031 181.358 85.4316 180.395 85.4316C179.223 85.4316 178.297 85.8018 177.643 86.5299C176.989 87.2579 176.656 88.2821 176.656 89.5901C176.656 90.8981 176.928 91.9223 177.458 92.6503C177.989 93.3784 178.742 93.7485 179.679 93.7485C180.543 93.7485 181.234 93.4894 181.715 92.9588C182.209 92.4282 182.456 91.7002 182.456 90.75H182.481V93.6498H183.912V89.368H180.296V90.3922H180.272Z" fill="white"/>
<path d="M187.205 85.5547L184.688 93.6618H186.205L186.761 91.6998H190.228L190.783 93.6618H192.4L189.895 85.5547H187.217H187.205ZM187.094 90.5276L188.488 85.6781H188.513L189.895 90.5276H187.106H187.094Z" fill="white"/>
<path d="M196.584 90.3922H198.744C198.707 91.0708 198.509 91.6014 198.139 91.984C197.769 92.3665 197.275 92.5516 196.658 92.5516C195.992 92.5516 195.461 92.2925 195.079 91.7742C194.696 91.256 194.511 90.5279 194.511 89.6024C194.511 88.677 194.709 87.9489 195.091 87.4307C195.474 86.9124 196.017 86.6533 196.708 86.6533C197.226 86.6533 197.658 86.8137 198.016 87.1469C198.373 87.48 198.596 87.9242 198.694 88.5042H200.138C200.015 87.5417 199.644 86.789 199.052 86.2461C198.448 85.7031 197.67 85.4316 196.708 85.4316C195.535 85.4316 194.61 85.8018 193.956 86.5299C193.302 87.2579 192.969 88.2821 192.969 89.5901C192.969 90.8981 193.24 91.9223 193.771 92.6503C194.301 93.3784 195.054 93.7485 195.992 93.7485C196.856 93.7485 197.547 93.4894 198.028 92.9588C198.522 92.4282 198.756 91.7002 198.756 90.75H198.781V93.6498H200.212V89.368H196.597V90.3922H196.584Z" fill="white"/>
<path d="M203.306 90.0833H207.082V88.8987H203.306V86.7269H207.464V85.5547H201.812V93.6618H207.587V92.4895H203.306V90.0833Z" fill="white"/>
<path d="M215.201 85.5547L213.597 93.5384H213.572L212.091 85.5547H209.167L208.883 93.6618H210.327L210.573 85.6657H210.598L212.215 93.6618H214.855L216.62 85.6657H216.632L216.879 93.6618H218.384L218.101 85.5547H215.201Z" fill="white"/>
<path d="M221.681 90.0833H225.445V88.8987H221.681V86.7269H225.827V85.5547H220.176V93.6618H225.951V92.4895H221.681V90.0833Z" fill="white"/>
<path d="M232.516 93.5391H232.491L229.912 85.543H227.395V93.6625H228.838L228.777 85.6664H228.789L231.393 93.6625H233.885V85.543H232.466L232.516 93.5391Z" fill="white"/>
<path d="M235.094 86.7276H237.463V93.6625H238.981V86.7276H241.35V85.543H235.094V86.7276Z" fill="white"/>
<path d="M247.915 86.6533C248.458 86.6533 248.902 86.826 249.273 87.1715C249.63 87.517 249.865 87.9983 249.964 88.6152H251.407C251.272 87.6157 250.901 86.8383 250.285 86.2707C249.668 85.7154 248.878 85.4316 247.903 85.4316C246.731 85.4316 245.805 85.8018 245.151 86.5299C244.497 87.2703 244.164 88.2821 244.164 89.5901C244.164 90.8981 244.497 91.9223 245.151 92.6503C245.805 93.3907 246.731 93.7485 247.903 93.7485C248.865 93.7485 249.655 93.4647 250.272 92.8971C250.889 92.3295 251.259 91.5398 251.395 90.5403H249.951C249.853 91.1696 249.618 91.6631 249.26 92.0086C248.902 92.3541 248.446 92.5393 247.903 92.5393C247.224 92.5393 246.694 92.2801 246.311 91.7619C245.929 91.2436 245.731 90.5156 245.731 89.5901C245.731 88.6646 245.916 87.9366 246.311 87.4183C246.694 86.9 247.224 86.6409 247.903 86.6409" fill="white"/>
<path d="M256.123 85.4453C254.951 85.4453 254.025 85.8155 253.359 86.5435C252.693 87.2716 252.359 88.2958 252.359 89.6038C252.359 90.9118 252.693 91.9359 253.359 92.664C254.025 93.392 254.951 93.7622 256.123 93.7622C257.295 93.7622 258.221 93.392 258.875 92.664C259.541 91.9236 259.862 90.9118 259.862 89.6038C259.862 88.2958 259.529 87.2716 258.875 86.5435C258.208 85.8031 257.295 85.4453 256.123 85.4453ZM257.727 91.7755C257.345 92.2938 256.802 92.5529 256.111 92.5529C255.42 92.5529 254.889 92.2938 254.494 91.7755C254.112 91.2573 253.914 90.5292 253.914 89.6038C253.914 88.6783 254.112 87.9502 254.494 87.432C254.877 86.9137 255.42 86.6546 256.111 86.6546C256.802 86.6546 257.332 86.9137 257.727 87.432C258.11 87.9502 258.307 88.6783 258.307 89.6038C258.307 90.5292 258.11 91.2573 257.727 91.7755Z" fill="white"/>
<path d="M266.217 90.8737C266.217 91.4043 266.069 91.8238 265.761 92.1077C265.464 92.4038 265.032 92.5395 264.502 92.5395C263.971 92.5395 263.539 92.3915 263.243 92.1077C262.947 91.8115 262.799 91.4043 262.799 90.8737V85.543H261.281V90.7873C261.281 91.7128 261.565 92.4408 262.12 92.9714C262.676 93.502 263.453 93.7612 264.453 93.7612C265.452 93.7612 266.242 93.502 266.797 92.9838C267.365 92.4655 267.636 91.7375 267.636 90.7997V85.5553H266.217V90.886V90.8737Z" fill="white"/>
<path d="M274.621 93.5391H274.596L272.005 85.543H269.5V93.6625H270.931L270.87 85.6664H270.894L273.486 93.6625H275.991V85.543H274.559L274.621 93.5391Z" fill="white"/>
<path d="M281.208 86.6533C281.751 86.6533 282.195 86.826 282.566 87.1715C282.923 87.517 283.158 87.9983 283.257 88.6152H284.7C284.565 87.6157 284.194 86.8383 283.577 86.2707C282.96 85.7154 282.171 85.4316 281.196 85.4316C280.024 85.4316 279.098 85.8018 278.444 86.5299C277.79 87.2703 277.457 88.2821 277.457 89.5901C277.457 90.8981 277.79 91.9223 278.444 92.6503C279.098 93.3907 280.024 93.7485 281.196 93.7485C282.158 93.7485 282.948 93.4647 283.565 92.8971C284.182 92.3295 284.552 91.5398 284.688 90.5403H283.244C283.146 91.1696 282.911 91.6631 282.553 92.0086C282.195 92.3541 281.739 92.5393 281.196 92.5393C280.517 92.5393 279.987 92.2801 279.604 91.7619C279.222 91.2436 279.024 90.5156 279.024 89.5901C279.024 88.6646 279.209 87.9366 279.604 87.4183C279.987 86.9 280.517 86.6409 281.196 86.6409" fill="white"/>
<path d="M287.599 85.5547H286.094V93.6618H287.599V85.5547Z" fill="white"/>
<path d="M291.017 92.4408V85.543H289.523V93.6625H294.583V92.4408H291.017Z" fill="white"/>
<path d="M384.776 60.6651C384.22 60.3443 383.32 59.8877 382.086 59.4929C379.716 58.7402 377.236 58.5551 374.719 58.9499C373.67 59.1227 372.597 59.3941 371.535 59.7766C371.498 59.789 371.449 59.8013 371.412 59.826C371.35 59.8507 371.289 59.8754 371.227 59.9C370.696 60.0975 370.141 60.3442 369.536 60.6527C369.067 60.8995 368.586 61.1587 368.105 61.4425C367.266 61.9484 366.378 62.5407 365.477 63.2193C364.539 56.9879 364.934 51.1514 365.205 47.9432C366.883 49.6707 366.18 53.2985 365.798 54.2239C365.724 54.4213 365.798 54.6311 365.97 54.7422C366.143 54.8532 366.378 54.8286 366.513 54.6682H366.526C368.71 52.0645 368.722 49.2758 368.253 47.3756C368.87 48.2887 369.228 49.3252 369.327 50.5344C369.364 51.0404 369.364 51.571 369.327 52.1509C369.327 52.2743 369.302 52.3977 369.302 52.5211C369.302 52.6568 369.351 52.7925 369.45 52.8789C369.549 52.9653 369.684 52.99 369.808 52.9653C369.968 52.9406 370.055 52.8296 370.092 52.7679V52.7432C371.215 50.5715 371.202 47.9925 370.092 45.8455C369.87 45.4136 369.61 45.0064 369.302 44.6115C369.376 44.6609 369.438 44.7102 369.499 44.7473C370.301 45.3396 370.931 46.191 371.326 47.2028C371.609 47.9432 371.758 48.7452 371.758 49.4732C371.758 49.683 371.906 49.8681 372.115 49.8928C372.325 49.9175 372.523 49.7941 372.584 49.5843C373.127 47.5607 372.942 45.7961 372.041 44.3277C371.572 43.575 370.894 42.8963 370.079 42.3781C370.598 42.5138 371.066 42.7236 371.474 42.9951C372.214 43.501 372.572 44.0933 372.658 44.2537C372.757 44.4388 372.954 44.5128 373.14 44.4634C373.325 44.4017 373.448 44.229 373.448 44.0316C373.337 42.8594 372.819 41.8598 371.955 41.1071C371.375 40.6012 370.647 40.2064 369.845 39.9966C369.351 39.8609 368.845 39.7868 368.339 39.7745C368.191 39.7745 368.056 39.7745 367.92 39.7745C368.105 39.6758 368.29 39.6017 368.45 39.5647C368.858 39.4413 369.29 39.392 369.709 39.4166C370.092 39.4413 370.437 39.5154 370.709 39.6511C370.894 39.7375 371.103 39.6758 371.227 39.5154C371.35 39.355 371.338 39.1328 371.202 38.9847C370.832 38.5652 370.4 38.2074 369.919 37.9359C369.425 37.6521 368.895 37.4917 368.364 37.43C367.069 37.2819 365.859 37.7755 364.983 38.7874C364.921 38.664 364.86 38.5282 364.798 38.3925C364.453 37.5781 364.193 36.7266 364.058 35.9369C364.021 35.7271 363.848 35.5791 363.638 35.5791C363.428 35.5791 363.256 35.7271 363.219 35.9369C363.083 36.739 362.824 37.5904 362.478 38.4048C362.417 38.5405 362.367 38.664 362.305 38.7874C361.59 37.9606 360.652 37.4793 359.616 37.4053C358.32 37.3189 357.037 37.8866 356.086 38.9724C355.951 39.1205 355.951 39.3426 356.062 39.503C356.173 39.6634 356.395 39.7251 356.58 39.6387C357.259 39.3056 358.431 39.2686 359.393 39.7745C357.826 39.6758 355.988 40.2311 354.84 41.6007C354.26 42.2794 353.927 43.0938 353.841 44.0069C353.816 44.2043 353.939 44.3894 354.124 44.4511C354.322 44.5128 354.532 44.4388 354.63 44.2537C354.717 44.1056 354.951 43.7107 355.408 43.3035C355.963 42.81 356.605 42.5262 357.246 42.3534C356.247 42.9827 355.272 43.9576 354.778 45.3026C354.31 46.5612 354.285 47.9925 354.717 49.5596C354.766 49.7694 354.964 49.8928 355.173 49.8805C355.383 49.8558 355.544 49.6707 355.544 49.4609C355.544 49.4609 355.544 49.4362 355.544 49.4239C355.544 49.3992 355.544 49.3746 355.544 49.3499C355.544 48.227 355.914 47.0424 356.506 46.1046C356.901 45.4876 357.394 44.9694 357.974 44.5868C357.111 45.7097 356.58 46.956 356.407 48.301C356.148 50.3247 356.777 51.9411 357.172 52.7185C357.259 52.8913 357.468 52.99 357.666 52.9406C357.863 52.8912 357.987 52.7062 357.987 52.5088C357.888 51.4599 357.703 49.3005 359.036 47.3262C358.912 47.8321 358.826 48.3997 358.789 49.0044C358.702 51.0527 359.381 53.0023 360.751 54.6311C360.886 54.7915 361.121 54.8286 361.306 54.7052C361.479 54.5941 361.553 54.372 361.466 54.1869C361.084 53.2614 360.393 49.6337 362.059 47.9185C362.318 51.1267 362.725 56.9509 361.787 63.1947C359.665 61.6276 357.789 60.5417 356.037 59.8754C355.79 59.789 355.543 59.6903 355.26 59.6039C353.273 58.9499 351.262 58.6661 349.275 58.7525C346.511 58.8759 344.389 59.6656 343.081 60.3196C342.871 60.4306 342.661 60.5294 342.476 60.6404C342.279 60.7638 342.192 61.0106 342.291 61.2204C342.39 61.4301 342.624 61.5412 342.846 61.4671C343.019 61.4178 343.204 61.3684 343.365 61.3191C345.339 60.7638 347.313 60.5664 349.25 60.7391C351.138 60.8995 353.063 61.4301 354.964 62.2815C357.037 63.2193 359.171 64.589 361.466 66.4523C360.664 67.1679 359.899 67.8589 359.159 68.5253C357.456 70.0677 355.988 71.4127 355.001 72.005C354.519 71.5361 353.828 71.3387 353.15 71.4868C352.397 71.6595 351.792 72.2394 351.632 72.9921C351.484 73.6461 351.657 74.3618 352.051 74.769C352.915 75.6328 354.013 75.8055 355.297 75.2626C356.95 74.5716 358.875 72.7454 361.121 70.623C361.763 70.0184 362.417 69.4014 363.108 68.7597C363.293 68.587 363.465 68.4389 363.626 68.2908C363.762 68.4142 363.897 68.5376 364.033 68.661L364.144 68.7597C364.835 69.389 365.489 70.0184 366.131 70.623C366.797 71.2523 367.426 71.8446 368.031 72.3999C368.549 72.8811 369.018 73.276 369.45 73.6338C370.227 74.2754 370.881 74.732 371.474 75.0405C372.152 75.3983 372.782 75.5834 373.349 75.5834C373.979 75.5834 374.534 75.3613 375.027 74.9294L375.052 74.9048C375.052 74.9048 375.138 74.8307 375.188 74.7814C375.509 74.4605 375.755 73.6338 375.607 73.0045C375.521 72.622 375.324 72.2765 375.027 72.005C374.756 71.7459 374.435 71.5731 374.077 71.4991C373.386 71.351 372.708 71.5484 372.226 72.0173C372.115 71.9556 371.992 71.8693 371.869 71.7829C371.387 71.4497 370.795 70.9685 369.944 70.2281C369.561 69.895 369.129 69.5001 368.549 68.9695L368.068 68.5376C367.328 67.859 366.563 67.1679 365.761 66.4523C366.711 65.6749 367.611 64.9962 368.512 64.3916C369.006 64.0584 369.45 63.7746 369.894 63.5155C370.524 63.1453 371.165 62.7998 371.819 62.479C372.831 61.9977 373.855 61.6029 374.867 61.3068C377.187 60.6404 379.544 60.4923 381.876 60.8749C382.715 61.0106 383.554 61.208 384.381 61.4671C384.603 61.5412 384.85 61.4301 384.936 61.2204C385.035 61.0106 384.948 60.7638 384.751 60.6404" fill="#8F969B"/>
<mask id="mask0_15872_7843" style="mask-type:luminance" maskUnits="userSpaceOnUse" x="363" y="21" width="6" height="6">
<path d="M364.129 21.167L363.516 25.8281L368.177 26.4418L368.79 21.7807L364.129 21.167Z" fill="white"/>
</mask>
<g mask="url(#mask0_15872_7843)">
<path d="M367.975 19.2701L361.605 22.0752L364.411 28.4442L370.78 25.6391L367.975 19.2701Z" fill="url(#paint0_linear_15872_7843)"/>
</g>
<mask id="mask1_15872_7843" style="mask-type:luminance" maskUnits="userSpaceOnUse" x="371" y="23" width="7" height="7">
<path d="M373.129 23.0308L371.285 27.3555L375.61 29.1992L377.454 24.8745L373.129 23.0308Z" fill="white"/>
</mask>
<g mask="url(#mask1_15872_7843)">
<path d="M376.441 20.7555L368.988 24.0381L372.271 31.4912L379.724 28.2087L376.441 20.7555Z" fill="url(#paint1_linear_15872_7843)"/>
</g>
<mask id="mask2_15872_7843" style="mask-type:luminance" maskUnits="userSpaceOnUse" x="308" y="1" width="52" height="52">
<path d="M359.505 1.20079C345.894 1.38588 333.074 6.79056 323.4 16.4153C313.725 26.04 308.259 38.8236 308 52.4216V52.8288H313.701V52.434C313.96 40.3537 318.834 29.0015 327.435 20.4503C336.035 11.8991 347.424 7.08668 359.517 6.90159H359.912V1.18848H359.505V1.20079Z" fill="white"/>
</mask>
<g mask="url(#mask2_15872_7843)">
<path d="M351.473 -17.9284L288.945 9.61035L316.429 72.0136L378.957 44.4748L351.473 -17.9284Z" fill="url(#paint2_linear_15872_7843)"/>
</g>
<mask id="mask3_15872_7843" style="mask-type:luminance" maskUnits="userSpaceOnUse" x="363" y="11" width="8" height="8">
<path d="M364.253 11.1616L363.441 17.626L369.906 18.438L370.718 11.9737L364.253 11.1616Z" fill="white"/>
</mask>
<g mask="url(#mask3_15872_7843)">
<path d="M369.571 8.56425L360.797 12.4287L364.661 21.2031L373.436 17.3387L369.571 8.56425Z" fill="url(#paint3_linear_15872_7843)"/>
</g>
<mask id="mask4_15872_7843" style="mask-type:luminance" maskUnits="userSpaceOnUse" x="315" y="56" width="13" height="10">
<path d="M315.738 57.0374C315.788 58.4318 316.034 61.6154 317.12 65.712C320.217 64.8483 324.006 63.7994 327.066 62.9604C326.35 60.073 326.214 57.8518 326.19 56.7783L315.738 57.0498V57.0374Z" fill="white"/>
</mask>
<g mask="url(#mask4_15872_7843)">
<path d="M325.209 52.6297L312.426 58.2598L317.563 69.9251L330.347 64.295L325.209 52.6297Z" fill="url(#paint4_linear_15872_7843)"/>
</g>
<mask id="mask5_15872_7843" style="mask-type:luminance" maskUnits="userSpaceOnUse" x="318" y="34" width="10" height="19">
<path d="M322.25 35.2204C319.794 40.4523 318.462 46.0297 318.289 51.8169C318.289 51.8169 318.289 52.039 318.289 52.1994C318.289 52.2858 318.289 52.3722 318.289 52.4339V52.8411H323.99V52.4462C323.99 52.3845 323.99 52.2981 323.99 52.2117V52.1747C323.99 52.0267 323.99 51.8663 323.99 51.8169C324.15 46.9675 325.261 42.2909 327.284 37.8857L327.445 37.5402L322.41 34.8379L322.225 35.2204H322.25Z" fill="white"/>
</mask>
<g mask="url(#mask5_15872_7843)">
<path d="M325.963 31.4834L311.633 37.7949L319.765 56.2584L334.095 49.9469L325.963 31.4834Z" fill="url(#paint5_linear_15872_7843)"/>
</g>
<mask id="mask6_15872_7843" style="mask-type:luminance" maskUnits="userSpaceOnUse" x="323" y="17" width="18" height="19">
<path d="M337.058 18.0694C334.812 19.5625 332.69 21.29 330.765 23.1903C328.075 25.8556 325.743 28.8664 323.843 32.161L323.633 32.5188L328.667 35.2212L328.865 34.888C330.506 32.0746 332.505 29.4957 334.812 27.2252C336.441 25.6211 338.218 24.1651 340.106 22.9064L340.427 22.6843L337.404 17.835L337.058 18.0571V18.0694Z" fill="white"/>
</mask>
<g mask="url(#mask6_15872_7843)">
<path d="M337.708 11.6733L317.234 20.6904L326.376 41.4463L346.849 32.4292L337.708 11.6733Z" fill="url(#paint6_linear_15872_7843)"/>
</g>
<mask id="mask7_15872_7843" style="mask-type:luminance" maskUnits="userSpaceOnUse" x="397" y="21" width="11" height="11">
<path d="M403.664 21.0187L397.566 25.3262L401.874 31.4234L407.971 27.1159L403.664 21.0187Z" fill="white"/>
</mask>
<g mask="url(#mask7_15872_7843)">
<path d="M406.288 17.2467L393.73 22.7773L399.256 35.3235L411.814 29.7929L406.288 17.2467Z" fill="url(#paint7_linear_15872_7843)"/>
</g>
<mask id="mask8_15872_7843" style="mask-type:luminance" maskUnits="userSpaceOnUse" x="378" y="27" width="8" height="7">
<path d="M381.522 27.348L378.551 30.9912L382.194 33.9626L385.165 30.3193L381.522 27.348Z" fill="white"/>
</mask>
<g mask="url(#mask8_15872_7843)">
<path d="M384.078 24.9309L376.094 28.4473L379.61 36.4311L387.594 32.9148L384.078 24.9309Z" fill="url(#paint8_linear_15872_7843)"/>
</g>
<mask id="mask9_15872_7843" style="mask-type:luminance" maskUnits="userSpaceOnUse" x="390" y="26" width="10" height="10">
<path d="M395.599 26.8999L390.277 30.6592L394.037 35.9804L399.358 32.2212L395.599 26.8999Z" fill="white"/>
</mask>
<g mask="url(#mask9_15872_7843)">
<path d="M397.868 23.6171L386.926 28.4365L391.745 39.3791L402.688 34.5597L397.868 23.6171Z" fill="url(#paint9_linear_15872_7843)"/>
</g>
<mask id="mask10_15872_7843" style="mask-type:luminance" maskUnits="userSpaceOnUse" x="384" y="33" width="7" height="7">
<path d="M388.047 33.2978L384.207 36.0098L386.919 39.85L390.759 37.138L388.047 33.2978Z" fill="white"/>
</mask>
<g mask="url(#mask10_15872_7843)">
<path d="M389.701 30.8924L381.785 34.3789L385.272 42.2951L393.188 38.8086L389.701 30.8924Z" fill="url(#paint10_linear_15872_7843)"/>
</g>
<mask id="mask11_15872_7843" style="mask-type:luminance" maskUnits="userSpaceOnUse" x="318" y="67" width="14" height="12">
<path d="M318.945 71.1777C320.044 73.88 321.401 76.4836 322.993 78.9269L331.507 73.3001C330.828 72.2142 330.273 71.2517 329.792 70.2893C329.372 69.4502 328.99 68.6111 328.632 67.7227C325.633 68.7838 322.043 70.0672 318.945 71.1654" fill="white"/>
</mask>
<g mask="url(#mask11_15872_7843)">
<path d="M329.467 63.145L314.82 69.5957L320.988 83.5986L335.634 77.1478L329.467 63.145Z" fill="url(#paint11_linear_15872_7843)"/>
</g>
<mask id="mask12_15872_7843" style="mask-type:luminance" maskUnits="userSpaceOnUse" x="373" y="13" width="10" height="10">
<path d="M376.099 13.5315L373.594 19.5459L379.608 22.0507L382.113 16.0363L376.099 13.5315Z" fill="white"/>
</mask>
<g mask="url(#mask12_15872_7843)">
<path d="M380.703 10.4057L370.438 14.9268L374.958 25.1918L385.224 20.6708L380.703 10.4057Z" fill="url(#paint12_linear_15872_7843)"/>
</g>
<mask id="mask13_15872_7843" style="mask-type:luminance" maskUnits="userSpaceOnUse" x="388" y="10" width="12" height="12">
<path d="M388.934 16.5384L394.597 21.3878L397.83 17.6243L399.459 15.724L393.783 10.8623L388.934 16.5384Z" fill="white"/>
</mask>
<g mask="url(#mask13_15872_7843)">
<path d="M397.751 7.01604L385.047 12.6113L390.642 25.3156L403.346 19.7203L397.751 7.01604Z" fill="url(#paint13_linear_15872_7843)"/>
</g>
<mask id="mask14_15872_7843" style="mask-type:luminance" maskUnits="userSpaceOnUse" x="376" y="3" width="11" height="11">
<path d="M379.902 3.87605L376.875 10.7002L383.699 13.7271L386.726 6.90296L379.902 3.87605Z" fill="white"/>
</mask>
<g mask="url(#mask14_15872_7843)">
<path d="M385.114 0.289254L373.234 5.52148L378.467 17.4013L390.346 12.1691L385.114 0.289254Z" fill="url(#paint14_linear_15872_7843)"/>
</g>
<mask id="mask15_15872_7843" style="mask-type:luminance" maskUnits="userSpaceOnUse" x="382" y="19" width="11" height="10">
<path d="M387.156 19.3261L382.918 24.2744L387.866 28.5126L392.104 23.5643L387.156 19.3261Z" fill="white"/>
</mask>
<g mask="url(#mask15_15872_7843)">
<path d="M390.613 15.9803L379.535 20.8594L384.414 31.9375L395.492 27.0584L390.613 15.9803Z" fill="url(#paint15_linear_15872_7843)"/>
</g>
<mask id="mask16_15872_7843" style="mask-type:luminance" maskUnits="userSpaceOnUse" x="364" y="1" width="9" height="9">
<path d="M365.11 1.00012L364.18 8.40723L371.587 9.33771L372.517 1.93061L365.11 1.00012Z" fill="white"/>
</mask>
<g mask="url(#mask16_15872_7843)">
<path d="M371.156 -2.03989L361.094 2.3916L365.525 12.4534L375.587 8.02187L371.156 -2.03989Z" fill="url(#paint16_linear_15872_7843)"/>
</g>
<mask id="mask17_15872_7843" style="mask-type:luminance" maskUnits="userSpaceOnUse" x="331" y="94" width="14" height="11">
<path d="M332.199 98.3865L331.73 99.0652L332.076 99.2873C335.395 101.459 338.863 103.261 342.379 104.63L342.762 104.778L344.786 99.386L344.44 99.2379C341.244 97.8066 338.233 96.1407 335.482 94.3022L335.149 94.0801L332.199 98.3742V98.3865Z" fill="white"/>
</mask>
<g mask="url(#mask17_15872_7843)">
<path d="M342.642 89.3209L327.77 95.8711L333.837 109.648L348.71 103.098L342.642 89.3209Z" fill="url(#paint17_linear_15872_7843)"/>
</g>
<mask id="mask18_15872_7843" style="mask-type:luminance" maskUnits="userSpaceOnUse" x="337" y="84" width="11" height="14">
<path d="M337.07 92.8943C339.415 94.4244 341.969 95.8435 344.684 97.0898L347.978 88.3288C346.078 87.2799 344.264 86.1324 342.561 84.8984L337.07 92.8943Z" fill="white"/>
</mask>
<g mask="url(#mask18_15872_7843)">
<path d="M346.201 80.8953L332.57 86.8984L338.837 101.127L352.467 95.124L346.201 80.8953Z" fill="url(#paint18_linear_15872_7843)"/>
</g>
<mask id="mask19_15872_7843" style="mask-type:luminance" maskUnits="userSpaceOnUse" x="319" y="84" width="13" height="13">
<path d="M319.524 87.6755L319.771 87.9963C322.226 91.0811 324.966 93.8452 327.89 96.2267L328.199 96.4858L331.95 91.7598L331.641 91.513C328.964 89.366 326.533 86.9721 324.398 84.4055L324.151 84.1094L319.512 87.6755H319.524Z" fill="white"/>
</mask>
<g mask="url(#mask19_15872_7843)">
<path d="M329.923 79.5485L314.938 86.1484L321.528 101.111L336.513 94.5113L329.923 79.5485Z" fill="url(#paint19_linear_15872_7843)"/>
</g>
<mask id="mask20_15872_7843" style="mask-type:luminance" maskUnits="userSpaceOnUse" x="346" y="98" width="48" height="11">
<path d="M374.745 101.792C373.079 102.817 371.253 103.471 369.34 103.73C367.477 103.976 365.515 103.853 363.504 103.372C362.702 103.174 361.887 103.026 361.097 102.878C359.728 102.619 358.309 102.36 357.013 101.879C354.212 100.842 350.967 100.558 348.092 101.101L347.87 101.138L346.191 105.877L346.586 106C351.769 107.641 357.173 108.48 362.627 108.48C373.289 108.48 383.567 105.321 392.353 99.3492L393.13 98.8186L392.205 98.6212C390.576 98.288 388.947 98.1152 387.331 98.1152C382.963 98.1152 378.681 99.3492 374.745 101.78" fill="white"/>
</mask>
<g mask="url(#mask20_15872_7843)">
<path d="M385.486 80.8486L342.348 99.8477L353.797 125.843L396.935 106.844L385.486 80.8486Z" fill="url(#paint20_linear_15872_7843)"/>
</g>
<mask id="mask21_15872_7843" style="mask-type:luminance" maskUnits="userSpaceOnUse" x="328" y="55" width="6" height="9">
<path d="M328.262 55.8152V56.1977C328.238 56.6789 328.188 59.2825 329.126 62.9227L329.225 63.3052L329.62 63.2064C330.767 62.9103 331.742 62.6388 332.458 62.4291C332.951 62.2933 333.346 62.1823 333.605 62.1083L333.988 62.0095L333.889 61.627C333.445 59.8131 333.173 57.9499 333.062 56.0866L333.038 55.7041L328.25 55.8275L328.262 55.8152Z" fill="white"/>
</mask>
<g mask="url(#mask21_15872_7843)">
<path d="M333.047 53.5887L325.379 56.9658L329.129 65.4805L336.797 62.1034L333.047 53.5887Z" fill="url(#paint21_linear_15872_7843)"/>
</g>
<mask id="mask22_15872_7843" style="mask-type:luminance" maskUnits="userSpaceOnUse" x="311" y="71" width="11" height="14">
<path d="M312.826 72.3991C312.172 72.6335 311.74 72.7816 311.617 72.831L311.234 72.9667L311.382 73.3492C312.69 76.8659 314.443 80.3703 316.59 83.7637L316.812 84.1092L321.735 80.8639L321.513 80.5307C319.897 78.1246 318.515 75.5826 317.392 72.9667C317.182 72.4731 316.972 71.9672 316.762 71.4243L316.627 71.0664L312.851 72.4114L312.826 72.3991Z" fill="white"/>
</mask>
<g mask="url(#mask22_15872_7843)">
<path d="M320.018 67.2061L306.422 73.1943L312.942 87.999L326.539 82.0108L320.018 67.2061Z" fill="url(#paint22_linear_15872_7843)"/>
</g>
<mask id="mask23_15872_7843" style="mask-type:luminance" maskUnits="userSpaceOnUse" x="352" y="78" width="57" height="13">
<path d="M384.011 78.8405C381.087 79.0873 378.212 80.0498 375.472 81.7033C374.942 82.0241 374.374 82.2709 373.782 82.5424C373.473 82.6781 373.165 82.8138 372.856 82.9619C369.784 84.455 366.551 84.8622 363.232 84.1958L362.8 84.1095C361.06 83.7639 359.258 83.3938 357.531 82.8879C356.667 82.6411 355.791 82.4313 354.902 82.2832L354.569 82.2215L352.57 87.873L353.039 87.9717C353.298 88.021 353.533 88.0704 353.78 88.1445C354.631 88.3789 355.495 88.5516 356.334 88.7244C357.173 88.8971 358.037 89.0822 358.876 89.3043C361.245 89.9583 363.552 90.2915 365.761 90.2915C366.526 90.2915 367.267 90.2545 368.007 90.1681C371.042 89.8473 373.967 88.8354 376.706 87.1819C377.101 86.9475 377.533 86.7501 377.977 86.5527C378.273 86.4169 378.582 86.2812 378.89 86.1331C380.692 85.22 382.555 84.6647 384.431 84.4797C386.294 84.3069 388.231 84.4796 390.193 85.0349C390.637 85.1583 391.069 85.2817 391.513 85.4051C393.414 85.948 395.388 86.5033 397.362 86.8364C398.917 87.0956 402.175 87.2066 404.556 87.2807H404.766L404.889 87.1079C406.099 85.4051 407.185 83.6652 408.147 81.9377L408.48 81.3331H407.789C404.717 81.4318 400.904 81.4688 399.546 81.3948C397.288 81.2714 395.006 80.8148 392.945 80.0868C390.428 79.186 387.947 78.7295 385.566 78.7295C385.048 78.7295 384.529 78.7542 384.011 78.7912" fill="white"/>
</mask>
<g mask="url(#mask23_15872_7843)">
<path d="M399.389 58.1821L348.301 80.6826L361.64 110.97L412.728 88.469L399.389 58.1821Z" fill="url(#paint23_linear_15872_7843)"/>
</g>
<mask id="mask24_15872_7843" style="mask-type:luminance" maskUnits="userSpaceOnUse" x="349" y="88" width="53" height="13">
<path d="M384.814 88.5392C381.359 88.8477 377.916 90.0323 374.597 92.093C372.931 93.1171 371.117 93.7711 369.192 94.0303C367.329 94.2771 365.367 94.1537 363.343 93.6724C360.715 93.0308 358.691 92.5619 356.791 92.167C355.199 91.8338 353.361 91.476 351.547 91.5007H351.275L349.066 97.7444L349.745 97.621C351.608 97.2879 353.36 97.3742 355.137 97.8802C356.186 98.1886 357.284 98.4354 358.333 98.6699C359.111 98.8426 359.925 99.0277 360.715 99.2375C362.652 99.7434 364.577 100.003 366.428 100.003C367.033 100.003 367.637 99.9778 368.229 99.9161C370.722 99.694 373.153 98.9784 375.485 97.7938C376.065 97.4976 376.657 97.2262 377.225 96.9423C377.916 96.6092 378.619 96.276 379.31 95.9182C381.211 94.931 383.173 94.3264 385.159 94.1413C387.133 93.9439 389.182 94.1413 391.242 94.7459C392.427 95.0791 393.599 95.3999 394.846 95.7454C395.339 95.8812 395.833 96.0169 396.351 96.1526L396.548 96.202L396.709 96.0663C397.178 95.6714 397.585 95.3136 397.967 94.9804L401.028 91.4513L400.374 91.3156C399.744 91.1799 399.14 91.0688 398.572 90.9701C397.412 90.7603 396.413 90.5876 395.475 90.2297C392.476 89.0698 389.503 88.4775 386.64 88.4775C386.035 88.4775 385.431 88.5022 384.826 88.5516" fill="white"/>
</mask>
<g mask="url(#mask24_15872_7843)">
<path d="M392.569 69.3269L344.801 90.3652L357.493 119.184L405.261 98.1458L392.569 69.3269Z" fill="url(#paint24_linear_15872_7843)"/>
</g>
<mask id="mask25_15872_7843" style="mask-type:luminance" maskUnits="userSpaceOnUse" x="386" y="32" width="30" height="48">
<path d="M404.817 34.8507L404.99 35.2085C408.568 42.6985 410.468 50.3983 410.641 58.0858L406.273 53.4832C406.001 48.0785 404.768 42.8466 402.608 37.9356C402.559 37.8122 402.497 37.6887 402.448 37.5653C402.312 37.2692 402.176 36.9484 402.003 36.6522L401.818 36.3314L396.438 38.9721L396.685 39.5026C397.635 41.5016 399.832 46.1412 400.56 52.8785L395.55 56.8272C396.537 50.9783 396.007 45.8821 393.958 41.6867V41.662C393.798 41.4152 393.662 41.0944 393.526 40.786L393.354 40.4034L388.011 42.97L388.183 43.3279C391.145 49.4112 391.799 56.4199 390.034 63.0462C389.862 63.6755 389.676 64.4899 389.454 65.4277C388.813 68.1301 387.949 71.8319 387.036 73.3743L386.789 73.7938L388.825 74.5095L388.998 74.238C388.998 74.238 391.935 69.4504 393.995 63.1079L400.708 60.1958C400.338 65.44 398.956 70.7337 396.599 75.9409L396.414 76.3604L400.461 77.5573L400.621 77.2859C400.942 76.7429 401.078 76.4838 401.448 75.7435C403.077 72.4735 404.237 69.438 404.977 66.4519C405.422 64.7244 405.755 62.9105 405.989 61.0719L410.456 63.6509C410.049 68.2411 409.062 71.9182 408.309 74.201C407.47 76.7183 406.717 78.1496 406.705 78.162L406.446 78.6309L409.518 79.2602L409.654 79.0011C409.654 79.0011 411.505 75.546 412.862 72.2391C413.405 70.9064 413.8 69.7465 414.034 68.8211C416.934 57.3207 415.91 45.006 411.135 34.135C410.913 33.5921 410.678 33.0985 410.431 32.6049L410.259 32.2471L404.817 34.8137V34.8507Z" fill="white"/>
</mask>
<g mask="url(#mask25_15872_7843)">
<path d="M412.022 21.1811L369.438 39.9365L391.674 90.426L434.259 71.6706L412.022 21.1811Z" fill="url(#paint25_linear_15872_7843)"/>
</g>
<mask id="mask26_15872_7843" style="mask-type:luminance" maskUnits="userSpaceOnUse" x="308" y="56" width="8" height="13">
<path d="M308.063 56.3336V56.7285C308.187 60.8128 308.976 64.7985 309.655 67.8093L309.865 68.6607L310.26 68.562C310.432 68.5126 310.864 68.4016 311.617 68.1918C312.444 67.9573 313.591 67.6365 314.924 67.2663L315.306 67.1553L315.195 66.7728C313.813 61.7506 313.653 57.9871 313.641 56.5928V56.1855L308.051 56.3336H308.063Z" fill="white"/>
</mask>
<g mask="url(#mask26_15872_7843)">
<path d="M314.125 53.547L303.453 58.2471L309.232 71.3691L319.904 66.6691L314.125 53.547Z" fill="url(#paint26_linear_15872_7843)"/>
</g>
<mask id="mask27_15872_7843" style="mask-type:luminance" maskUnits="userSpaceOnUse" x="330" y="64" width="8" height="9">
<path d="M334.458 64.7236C334.063 64.8594 332.792 65.3036 330.571 66.0933L330.176 66.2291L330.324 66.6116C331.138 68.6969 332.187 70.7206 333.421 72.6455L333.643 72.9787L337.653 70.3381L337.444 70.0049C336.284 68.1293 335.494 66.5252 334.951 64.9704L334.815 64.5879L334.445 64.7113L334.458 64.7236Z" fill="white"/>
</mask>
<g mask="url(#mask27_15872_7843)">
<path d="M336.436 61.8603L327.074 65.9834L331.386 75.7741L340.748 71.651L336.436 61.8603Z" fill="url(#paint27_linear_15872_7843)"/>
</g>
<mask id="mask28_15872_7843" style="mask-type:luminance" maskUnits="userSpaceOnUse" x="335" y="72" width="9" height="9">
<path d="M335.441 75.4469L335.701 75.7677C337.07 77.4582 338.625 79.0747 340.328 80.5677L340.649 80.8516L343.659 77.0634L343.363 76.8165C341.833 75.5209 340.538 74.1759 339.501 72.8433L339.254 72.5225L335.441 75.4469Z" fill="white"/>
</mask>
<g mask="url(#mask28_15872_7843)">
<path d="M342.308 69.5274L332.359 73.9092L336.761 83.9032L346.71 79.5214L342.308 69.5274Z" fill="url(#paint28_linear_15872_7843)"/>
</g>
<mask id="mask29_15872_7843" style="mask-type:luminance" maskUnits="userSpaceOnUse" x="326" y="77" width="13" height="13">
<path d="M326.41 83.5171C328.236 85.6765 330.297 87.7125 332.555 89.5634L338.713 81.8143C337.145 80.4199 335.714 78.9268 334.418 77.3721L326.41 83.5294V83.5171Z" fill="white"/>
</mask>
<g mask="url(#mask29_15872_7843)">
<path d="M336.707 72.8673L321.902 79.3877L328.398 94.1359L343.203 87.6155L336.707 72.8673Z" fill="url(#paint29_linear_15872_7843)"/>
</g>
<mask id="mask30_15872_7843" style="mask-type:luminance" maskUnits="userSpaceOnUse" x="339" y="11" width="21" height="11">
<path d="M359.503 11.0856C356.085 11.1473 352.679 11.6162 349.385 12.5046C346.127 13.3807 342.968 14.6517 340.007 16.2805L339.637 16.4779L342.66 21.3273L342.993 21.1422C348.04 18.4028 353.753 16.8974 359.515 16.7864H359.91V11.0732H359.503V11.0856Z" fill="white"/>
</mask>
<g mask="url(#mask30_15872_7843)">
<path d="M356.611 3.62808L335.855 12.7695L342.928 28.8277L363.684 19.6862L356.611 3.62808Z" fill="url(#paint30_linear_15872_7843)"/>
</g>
<mask id="mask31_15872_7843" style="mask-type:luminance" maskUnits="userSpaceOnUse" x="327" y="20" width="33" height="33">
<path d="M359.506 20.9567C351.165 21.1418 343.305 24.4857 337.37 30.384C331.434 36.2699 328.029 44.0931 327.77 52.4222V52.8293H333.47V52.4468C333.729 45.6231 336.543 39.219 341.405 34.4066C346.266 29.5943 352.707 26.8549 359.531 26.6698H359.926V20.9443H359.519L359.506 20.9567Z" fill="white"/>
</mask>
<g mask="url(#mask31_15872_7843)">
<path d="M354.677 9.12443L315.977 26.1689L332.961 64.7334L371.661 47.6888L354.677 9.12443Z" fill="url(#paint31_linear_15872_7843)"/>
</g>
<mask id="mask32_15872_7843" style="mask-type:luminance" maskUnits="userSpaceOnUse" x="342" y="78" width="10" height="9">
<path d="M342.969 82.7023L343.278 82.9367C345.067 84.257 347.017 85.4909 349.09 86.6262L349.497 86.8483L351.471 81.5917L351.113 81.4436C349.09 80.5922 347.498 79.7778 346.091 78.8523L345.758 78.6426L342.957 82.7269L342.969 82.7023Z" fill="white"/>
</mask>
<g mask="url(#mask32_15872_7843)">
<path d="M350.082 75.5258L339.93 79.9971L344.341 90.0137L354.493 85.5424L350.082 75.5258Z" fill="url(#paint32_linear_15872_7843)"/>
</g>
<defs>
<linearGradient id="paint0_linear_15872_7843" x1="394.601" y1="11.5174" x2="309.397" y2="49.0432" gradientUnits="userSpaceOnUse">
<stop stop-color="#6544AE"/>
<stop offset="0.4" stop-color="#4C86AA"/>
<stop offset="1" stop-color="#68B7A5"/>
</linearGradient>
<linearGradient id="paint1_linear_15872_7843" x1="396.948" y1="16.3451" x2="311.746" y2="53.8707" gradientUnits="userSpaceOnUse">
<stop stop-color="#6544AE"/>
<stop offset="0.4" stop-color="#4C86AA"/>
<stop offset="1" stop-color="#68B7A5"/>
</linearGradient>
<linearGradient id="paint2_linear_15872_7843" x1="390.67" y1="2.15891" x2="305.467" y2="39.6847" gradientUnits="userSpaceOnUse">
<stop stop-color="#6544AE"/>
<stop offset="0.4" stop-color="#4C86AA"/>
<stop offset="1" stop-color="#68B7A5"/>
</linearGradient>
<linearGradient id="paint3_linear_15872_7843" x1="391.444" y1="4.34761" x2="306.242" y2="41.8732" gradientUnits="userSpaceOnUse">
<stop stop-color="#6544AE"/>
<stop offset="0.4" stop-color="#4C86AA"/>
<stop offset="1" stop-color="#68B7A5"/>
</linearGradient>
<linearGradient id="paint4_linear_15872_7843" x1="401.641" y1="26.9039" x2="316.438" y2="64.4297" gradientUnits="userSpaceOnUse">
<stop stop-color="#6544AE"/>
<stop offset="0.4" stop-color="#4C86AA"/>
<stop offset="1" stop-color="#68B7A5"/>
</linearGradient>
<linearGradient id="paint5_linear_15872_7843" x1="395.173" y1="12.3511" x2="309.97" y2="49.8768" gradientUnits="userSpaceOnUse">
<stop stop-color="#6544AE"/>
<stop offset="0.4" stop-color="#4C86AA"/>
<stop offset="1" stop-color="#68B7A5"/>
</linearGradient>
<linearGradient id="paint6_linear_15872_7843" x1="390.466" y1="1.44509" x2="305.263" y2="38.9708" gradientUnits="userSpaceOnUse">
<stop stop-color="#6544AE"/>
<stop offset="0.4" stop-color="#4C86AA"/>
<stop offset="1" stop-color="#68B7A5"/>
</linearGradient>
<linearGradient id="paint7_linear_15872_7843" x1="401.652" y1="26.957" x2="316.449" y2="64.4827" gradientUnits="userSpaceOnUse">
<stop stop-color="#6544AE"/>
<stop offset="0.4" stop-color="#4C86AA"/>
<stop offset="1" stop-color="#68B7A5"/>
</linearGradient>
<linearGradient id="paint8_linear_15872_7843" x1="399.69" y1="22.9997" x2="314.487" y2="60.5255" gradientUnits="userSpaceOnUse">
<stop stop-color="#6544AE"/>
<stop offset="0.4" stop-color="#4C86AA"/>
<stop offset="1" stop-color="#68B7A5"/>
</linearGradient>
<linearGradient id="paint9_linear_15872_7843" x1="402.185" y1="28.4273" x2="316.982" y2="65.9531" gradientUnits="userSpaceOnUse">
<stop stop-color="#6544AE"/>
<stop offset="0.4" stop-color="#4C86AA"/>
<stop offset="1" stop-color="#68B7A5"/>
</linearGradient>
<linearGradient id="paint10_linear_15872_7843" x1="402.747" y1="30.0515" x2="317.544" y2="67.577" gradientUnits="userSpaceOnUse">
<stop stop-color="#6544AE"/>
<stop offset="0.4" stop-color="#4C86AA"/>
<stop offset="1" stop-color="#68B7A5"/>
</linearGradient>
<linearGradient id="paint11_linear_15872_7843" x1="406.551" y1="38.5953" x2="321.348" y2="76.1211" gradientUnits="userSpaceOnUse">
<stop stop-color="#6544AE"/>
<stop offset="0.4" stop-color="#4C86AA"/>
<stop offset="1" stop-color="#68B7A5"/>
</linearGradient>
<linearGradient id="paint12_linear_15872_7843" x1="394.265" y1="10.7391" x2="309.062" y2="48.265" gradientUnits="userSpaceOnUse">
<stop stop-color="#6544AE"/>
<stop offset="0.4" stop-color="#4C86AA"/>
<stop offset="1" stop-color="#68B7A5"/>
</linearGradient>
<linearGradient id="paint13_linear_15872_7843" x1="396.488" y1="15.3219" x2="311.285" y2="52.8476" gradientUnits="userSpaceOnUse">
<stop stop-color="#6544AE"/>
<stop offset="0.4" stop-color="#4C86AA"/>
<stop offset="1" stop-color="#68B7A5"/>
</linearGradient>
<linearGradient id="paint14_linear_15872_7843" x1="391.599" y1="4.69706" x2="306.396" y2="42.2229" gradientUnits="userSpaceOnUse">
<stop stop-color="#6544AE"/>
<stop offset="0.4" stop-color="#4C86AA"/>
<stop offset="1" stop-color="#68B7A5"/>
</linearGradient>
<linearGradient id="paint15_linear_15872_7843" x1="398.257" y1="19.406" x2="313.054" y2="56.9317" gradientUnits="userSpaceOnUse">
<stop stop-color="#6544AE"/>
<stop offset="0.4" stop-color="#4C86AA"/>
<stop offset="1" stop-color="#68B7A5"/>
</linearGradient>
<linearGradient id="paint16_linear_15872_7843" x1="388.366" y1="-3.43449" x2="303.163" y2="34.0914" gradientUnits="userSpaceOnUse">
<stop stop-color="#6544AE"/>
<stop offset="0.4" stop-color="#4C86AA"/>
<stop offset="1" stop-color="#68B7A5"/>
</linearGradient>
<linearGradient id="paint17_linear_15872_7843" x1="418.115" y1="64.787" x2="332.912" y2="102.313" gradientUnits="userSpaceOnUse">
<stop stop-color="#6544AE"/>
<stop offset="0.4" stop-color="#4C86AA"/>
<stop offset="1" stop-color="#68B7A5"/>
</linearGradient>
<linearGradient id="paint18_linear_15872_7843" x1="415.847" y1="59.3864" x2="330.644" y2="96.9122" gradientUnits="userSpaceOnUse">
<stop stop-color="#6544AE"/>
<stop offset="0.4" stop-color="#4C86AA"/>
<stop offset="1" stop-color="#68B7A5"/>
</linearGradient>
<linearGradient id="paint19_linear_15872_7843" x1="412.757" y1="52.3796" x2="327.554" y2="89.9053" gradientUnits="userSpaceOnUse">
<stop stop-color="#6544AE"/>
<stop offset="0.4" stop-color="#4C86AA"/>
<stop offset="1" stop-color="#68B7A5"/>
</linearGradient>
<linearGradient id="paint20_linear_15872_7843" x1="424.928" y1="79.8471" x2="339.725" y2="117.373" gradientUnits="userSpaceOnUse">
<stop stop-color="#6544AE"/>
<stop offset="0.4" stop-color="#4C86AA"/>
<stop offset="1" stop-color="#68B7A5"/>
</linearGradient>
<linearGradient id="paint21_linear_15872_7843" x1="402.388" y1="28.755" x2="317.185" y2="66.2808" gradientUnits="userSpaceOnUse">
<stop stop-color="#6544AE"/>
<stop offset="0.4" stop-color="#4C86AA"/>
<stop offset="1" stop-color="#68B7A5"/>
</linearGradient>
<linearGradient id="paint22_linear_15872_7843" x1="406.874" y1="38.8517" x2="321.671" y2="76.3775" gradientUnits="userSpaceOnUse">
<stop stop-color="#6544AE"/>
<stop offset="0.4" stop-color="#4C86AA"/>
<stop offset="1" stop-color="#68B7A5"/>
</linearGradient>
<linearGradient id="paint23_linear_15872_7843" x1="419.811" y1="68.3362" x2="334.608" y2="105.862" gradientUnits="userSpaceOnUse">
<stop stop-color="#6544AE"/>
<stop offset="0.4" stop-color="#4C86AA"/>
<stop offset="1" stop-color="#68B7A5"/>
</linearGradient>
<linearGradient id="paint24_linear_15872_7843" x1="422.18" y1="73.8025" x2="336.977" y2="111.328" gradientUnits="userSpaceOnUse">
<stop stop-color="#6544AE"/>
<stop offset="0.4" stop-color="#4C86AA"/>
<stop offset="1" stop-color="#68B7A5"/>
</linearGradient>
<linearGradient id="paint25_linear_15872_7843" x1="412.475" y1="51.7825" x2="327.272" y2="89.3083" gradientUnits="userSpaceOnUse">
<stop stop-color="#6544AE"/>
<stop offset="0.4" stop-color="#4C86AA"/>
<stop offset="1" stop-color="#68B7A5"/>
</linearGradient>
<linearGradient id="paint26_linear_15872_7843" x1="400.183" y1="23.9934" x2="314.98" y2="61.5192" gradientUnits="userSpaceOnUse">
<stop stop-color="#6544AE"/>
<stop offset="0.4" stop-color="#4C86AA"/>
<stop offset="1" stop-color="#68B7A5"/>
</linearGradient>
<linearGradient id="paint27_linear_15872_7843" x1="405.994" y1="37.1813" x2="320.791" y2="74.7071" gradientUnits="userSpaceOnUse">
<stop stop-color="#6544AE"/>
<stop offset="0.4" stop-color="#4C86AA"/>
<stop offset="1" stop-color="#68B7A5"/>
</linearGradient>
<linearGradient id="paint28_linear_15872_7843" x1="410.103" y1="45.9888" x2="324.9" y2="83.5147" gradientUnits="userSpaceOnUse">
<stop stop-color="#6544AE"/>
<stop offset="0.4" stop-color="#4C86AA"/>
<stop offset="1" stop-color="#68B7A5"/>
</linearGradient>
<linearGradient id="paint29_linear_15872_7843" x1="411.474" y1="49.3322" x2="326.271" y2="86.858" gradientUnits="userSpaceOnUse">
<stop stop-color="#6544AE"/>
<stop offset="0.4" stop-color="#4C86AA"/>
<stop offset="1" stop-color="#68B7A5"/>
</linearGradient>
<linearGradient id="paint30_linear_15872_7843" x1="389.38" y1="-0.708607" x2="304.177" y2="36.8171" gradientUnits="userSpaceOnUse">
<stop stop-color="#6544AE"/>
<stop offset="0.4" stop-color="#4C86AA"/>
<stop offset="1" stop-color="#68B7A5"/>
</linearGradient>
<linearGradient id="paint31_linear_15872_7843" x1="396.26" y1="14.853" x2="311.057" y2="52.3788" gradientUnits="userSpaceOnUse">
<stop stop-color="#6544AE"/>
<stop offset="0.4" stop-color="#4C86AA"/>
<stop offset="1" stop-color="#68B7A5"/>
</linearGradient>
<linearGradient id="paint32_linear_15872_7843" x1="413.477" y1="53.9383" x2="328.274" y2="91.4641" gradientUnits="userSpaceOnUse">
<stop stop-color="#6544AE"/>
<stop offset="0.4" stop-color="#4C86AA"/>
<stop offset="1" stop-color="#68B7A5"/>
</linearGradient>
</defs>
</svg>
