<svg width="133" height="40" viewBox="0 0 133 40" fill="none" xmlns="http://www.w3.org/2000/svg">
<g clip-path="url(#clip0_3617_28390)">
<path d="M82.1991 31.2489C74.5069 36.9186 63.3575 39.9436 53.7581 39.9436C40.2982 39.9436 28.1809 34.9653 19.0136 26.6854C18.2934 26.0343 18.9387 25.147 19.803 25.654C29.6962 31.4102 41.9289 34.8731 54.5648 34.8731C63.0867 34.8731 72.4614 33.11 81.0813 29.4511C82.3835 28.898 83.4725 30.3039 82.1991 31.2489Z" fill="#FF9900"/>
<path d="M85.3975 27.5907C84.418 26.3346 78.8981 26.9973 76.4204 27.2911C75.6656 27.3833 75.5504 26.7265 76.2303 26.254C80.6266 23.1598 87.8406 24.0529 88.6818 25.0901C89.5231 26.133 88.4629 33.3642 84.3316 36.8156C83.6978 37.3457 83.0927 37.0634 83.3751 36.3604C84.3028 34.0441 86.3828 28.8526 85.3975 27.5907Z" fill="#FF9900"/>
<path d="M76.5906 4.41089V1.40315C76.5906 0.947961 76.9363 0.642578 77.3511 0.642578H90.8168C91.2489 0.642578 91.5947 0.953723 91.5947 1.40315V3.97874C91.5889 4.41089 91.2259 4.97556 90.5806 5.86866L83.6028 15.8311C86.1957 15.7677 88.9326 16.1537 91.2835 17.479C91.8136 17.7786 91.9577 18.2165 91.998 18.6487V21.8581C91.998 22.296 91.514 22.8088 91.0069 22.5437C86.8641 20.3715 81.3614 20.1352 76.7807 22.5668C76.314 22.8203 75.8242 22.3132 75.8242 21.8753V18.8273C75.8242 18.3375 75.83 17.502 76.3197 16.7587L84.4037 5.1657H77.3684C76.9363 5.1657 76.5906 4.86032 76.5906 4.41089Z" fill="#221F1F"/>
<path d="M27.473 23.1769H23.3763C22.9845 23.1481 22.6733 22.8542 22.6445 22.4797V1.45435C22.6445 1.03373 22.996 0.69953 23.4339 0.69953H27.2541C27.6517 0.716804 27.9686 1.0222 27.9974 1.40249V4.15094H28.0723C29.0691 1.49468 30.9417 0.255859 33.4655 0.255859C36.0295 0.255859 37.6313 1.49468 38.7837 4.15094C39.7748 1.49468 42.0277 0.255859 44.442 0.255859C46.159 0.255859 48.0374 0.964578 49.184 2.55487C50.4805 4.32379 50.2154 6.89362 50.2154 9.14654L50.2097 22.4163C50.2097 22.8369 49.8582 23.1769 49.4203 23.1769H45.3293C44.9202 23.1481 44.5918 22.8196 44.5918 22.4163V11.2727C44.5918 10.3854 44.6724 8.17277 44.4765 7.33153C44.1712 5.91985 43.255 5.52227 42.068 5.52227C41.077 5.52227 40.0398 6.1849 39.6192 7.2451C39.1986 8.3053 39.2389 10.08 39.2389 11.2727V22.4163C39.2389 22.8369 38.8874 23.1769 38.4495 23.1769H34.3586C33.9437 23.1481 33.621 22.8196 33.621 22.4163L33.6153 11.2727C33.6153 8.92759 34.0013 5.47618 31.0915 5.47618C28.1472 5.47618 28.2624 8.84115 28.2624 11.2727V22.4163C28.2624 22.8369 27.9109 23.1769 27.473 23.1769Z" fill="#221F1F"/>
<path d="M103.192 0.255859C109.271 0.255859 112.561 5.47618 112.561 12.1139C112.561 18.527 108.925 23.6148 103.192 23.6148C97.2224 23.6148 93.9727 18.3945 93.9727 11.8892C93.9727 5.34366 97.2627 0.255859 103.192 0.255859ZM103.226 4.54851C100.207 4.54851 100.017 8.66253 100.017 11.2266C100.017 13.7964 99.9766 19.2818 103.192 19.2818C106.367 19.2818 106.516 14.8566 106.516 12.16C106.516 10.3854 106.442 8.26496 105.906 6.58247C105.445 5.11894 104.529 4.54851 103.226 4.54851Z" fill="#221F1F"/>
<path d="M120.44 23.1769H116.36C115.951 23.1481 115.623 22.8196 115.623 22.4163L115.617 1.3852C115.652 0.99915 115.992 0.69953 116.407 0.69953H120.204C120.561 0.716804 120.855 0.958818 120.935 1.28725V4.50241H121.01C122.157 1.6272 123.765 0.255859 126.594 0.255859C128.432 0.255859 130.224 0.918484 131.376 2.73349C132.448 4.41598 132.448 7.2451 132.448 9.27906V22.5143C132.402 22.883 132.062 23.1769 131.658 23.1769H127.55C127.176 23.1481 126.864 22.8715 126.824 22.5143V11.0941C126.824 8.79506 127.089 5.43008 124.26 5.43008C123.263 5.43008 122.347 6.09847 121.892 7.11257C121.316 8.39749 121.241 9.67664 121.241 11.0941V22.4163C121.235 22.8369 120.878 23.1769 120.44 23.1769Z" fill="#221F1F"/>
<path d="M65.8564 13.1343V12.247C62.8948 12.247 59.7661 12.8808 59.7661 16.3725C59.7661 18.1414 60.6822 19.3399 62.2552 19.3399C63.4076 19.3399 64.439 18.6312 65.0901 17.4788C65.8968 16.0614 65.8564 14.7304 65.8564 13.1343ZM69.9877 23.1197C69.7169 23.3617 69.3251 23.379 69.0197 23.2177C67.6599 22.0884 67.4179 21.564 66.6689 20.4865C64.4217 22.7798 62.8314 23.4655 59.9159 23.4655C56.4702 23.4655 53.7852 21.3393 53.7852 17.0812C53.7852 13.7566 55.5886 11.4921 58.1527 10.3859C60.3768 9.40632 63.4825 9.23347 65.8564 8.96265V8.43255C65.8564 7.45878 65.9313 6.3064 65.3609 5.46516C64.8596 4.71034 63.9031 4.39919 63.0619 4.39919C61.5004 4.39919 60.106 5.2001 59.7661 6.85954C59.6969 7.22831 59.4261 7.59131 59.0573 7.6086L55.0816 7.18221C54.7474 7.10731 54.3786 6.83649 54.4708 6.32369C55.387 1.5067 59.7372 0.0546875 63.6323 0.0546875C65.6259 0.0546875 68.2303 0.584786 69.8034 2.09441C71.797 3.95552 71.6068 6.43892 71.6068 9.14127V15.5255C71.6068 17.4442 72.402 18.2855 73.151 19.3226C73.4161 19.6914 73.4737 20.1351 73.1395 20.4116C72.304 21.1088 70.8175 22.4053 69.9993 23.1313L69.9877 23.1197Z" fill="#221F1F"/>
<path d="M12.1533 13.1343V12.247C9.19166 12.247 6.06293 12.8808 6.06293 16.3725C6.06293 18.1414 6.97907 19.3399 8.55209 19.3399C9.70447 19.3399 10.7359 18.6312 11.387 17.4788C12.1936 16.0614 12.1533 14.7304 12.1533 13.1343ZM16.2846 23.1197C16.0138 23.3617 15.622 23.379 15.3166 23.2177C13.9568 22.0884 13.7148 21.564 12.9657 20.4865C10.7186 22.7798 9.12828 23.4655 6.21274 23.4655C2.76709 23.4655 0.0820312 21.3393 0.0820312 17.0812C0.0820312 13.7566 1.88552 11.4921 4.44958 10.3859C6.67369 9.40632 9.77938 9.23347 12.1533 8.96265V8.43255C12.1533 7.45878 12.2282 6.3064 11.6578 5.46516C11.1565 4.71034 10.2 4.39919 9.35876 4.39919C7.79727 4.39919 6.40288 5.2001 6.06293 6.85954C5.99378 7.22831 5.72297 7.59131 5.35421 7.6086L1.37847 7.18221C1.04428 7.10731 0.67551 6.83649 0.767702 6.32369C1.68385 1.5067 6.03412 0.0546875 9.92919 0.0546875C11.9228 0.0546875 14.5272 0.584786 16.1002 2.09441C18.0939 3.95552 17.9037 6.43892 17.9037 9.14127V15.5255C17.9037 17.4442 18.6989 18.2855 19.4479 19.3226C19.713 19.6914 19.7706 20.1351 19.4364 20.4116C18.6009 21.1088 17.1143 22.4053 16.2961 23.1313L16.2846 23.1197Z" fill="#221F1F"/>
</g>
<defs>
<clipPath id="clip0_3617_28390">
<rect width="132.527" height="40" fill="white"/>
</clipPath>
</defs>
</svg>
