<svg width="161" height="40" viewBox="0 0 161 40" fill="none" xmlns="http://www.w3.org/2000/svg">
<path d="M11.5757 39.941C11.1921 39.7345 10.8086 39.5279 10.3955 39.3214C8.71378 38.4363 7.15006 37.3446 5.76337 35.9875C2.78347 33.1256 0.954221 29.6736 0.275629 25.5725C-0.343955 21.8255 0.0986034 18.1965 1.42628 14.6265C2.39992 11.8532 3.87512 9.34533 5.76337 7.07352C8.83179 3.41502 12.8148 1.20221 17.388 0.258086C18.8337 -0.036954 20.2498 -0.0369486 21.6955 0.0515635C26.3277 0.258092 30.6648 1.55627 34.9428 3.2675C38.0703 4.47716 41.1387 5.83435 44.2661 7.10302C46.5969 8.07665 48.8687 8.99128 51.2586 9.72888C52.8223 10.2009 54.4745 10.437 56.0972 10.5255C59.3722 10.6435 62.5586 9.96492 65.568 8.78475C66.5711 8.4012 67.6038 7.92914 68.4299 7.28005C68.6069 7.16203 68.7249 6.985 68.9315 6.89649C68.902 6.985 68.843 7.10302 68.8135 7.19153C67.8103 8.87326 66.5416 10.3485 65.0664 11.6466C61.8505 14.42 58.192 16.1017 54.0319 16.7803C51.9372 17.1049 49.8129 17.1049 47.7181 16.8689C44.5021 16.4853 41.4337 15.6002 38.3948 14.597C35.1494 13.5054 31.9039 12.3252 28.6585 11.1451C26.7702 10.4665 24.7935 9.93541 22.7577 9.64037C19.6303 9.22731 16.6799 9.75839 13.936 11.2926C12.4903 12.0892 11.1626 12.9743 10.012 14.1545C8.24171 15.9542 7.15006 18.0785 6.64849 20.5273C6.26494 22.3271 6.17643 24.1563 6.38296 26.0151C6.76651 29.8506 8.1532 33.3616 9.83493 36.7546C10.2185 37.5217 10.602 38.3183 11.0151 39.0854C11.1921 39.4099 11.4281 39.705 11.6347 40C11.6347 39.941 11.6052 39.941 11.5757 39.941Z" fill="#108342"/>
<path d="M10.16 32.8895C9.74696 31.7979 9.2749 30.7357 8.89135 29.6441C8.41928 28.3459 8.21275 26.9592 8.30127 25.543C8.41928 22.8581 9.3044 20.4388 11.1337 18.3735C13.1104 16.1312 15.6773 15.0101 18.5392 14.4495C20.988 13.9774 23.3778 14.2725 25.7381 14.9216C28.364 15.6001 30.8423 16.6623 33.2912 17.7834C35.1499 18.6686 36.9202 19.6717 38.8674 20.3503C40.6672 20.9699 42.4964 21.4124 44.3847 21.619C47.6301 21.9435 50.8461 21.5895 53.9145 20.5273C54.18 20.4388 54.416 20.3503 54.6816 20.2323C54.9471 20.1438 55.1536 20.0257 55.4487 19.9667C55.0651 20.3798 54.7406 20.8519 54.357 21.2649C52.0262 23.8318 49.1348 25.425 45.7714 26.1626C43.9126 26.5461 42.0243 26.6346 40.1361 26.4576C37.6578 26.2511 35.2974 25.6905 32.9666 24.8054C31.5799 24.2448 30.2227 23.5957 28.8361 22.9466C26.5052 21.9435 24.0859 21.2059 21.5486 20.9109C19.0702 20.6158 16.6214 20.9109 14.3791 22.091C12.1958 23.2712 10.9566 25.2185 10.5141 27.6673C10.3075 28.7294 10.2485 29.7621 10.2485 30.8832C10.2485 31.5028 10.2485 32.1814 10.2485 32.8305C10.2485 32.86 10.219 32.86 10.16 32.8895Z" fill="#108342"/>
<path d="M13.5529 39.5284C13.2579 38.9383 12.9628 38.3777 12.6973 37.7876C11.5466 35.1028 11.7236 32.5064 13.3759 30.0871C14.5265 28.4054 16.2083 27.5202 18.126 26.9597C19.7192 26.5466 21.3715 26.5761 22.9647 26.8712C25.502 27.2842 27.8033 28.2578 30.1637 29.2315C31.8454 29.9101 33.5271 30.3821 35.3564 30.4411C38.0412 30.6182 40.5786 30.1166 42.9979 28.8774C43.0274 28.8774 43.0274 28.8774 43.1159 28.8774C42.8209 29.2905 42.5258 29.7331 42.2013 30.0871C40.3425 32.2409 37.9822 33.421 35.1498 33.7456C32.2289 34.1291 29.4261 33.5686 26.7117 32.5359C25.266 31.9754 23.8498 31.4738 22.3156 31.2673C20.3683 30.9427 18.4506 30.9427 16.6213 31.7688C14.7331 32.6244 13.6709 34.0996 13.4939 36.1649C13.4054 37.1681 13.4939 38.2007 13.5234 39.2038C13.5234 39.2923 13.5234 39.3809 13.5234 39.4694C13.5824 39.5284 13.5529 39.5284 13.5529 39.5284Z" fill="#108342"/>
<path d="M157.974 8.7846C158.092 8.48956 158.269 8.16501 158.446 7.81096C158.475 7.78146 158.534 7.69295 158.564 7.69295C159.183 7.51592 159.832 7.3979 160.511 7.48642C161.396 7.60443 161.514 8.28303 161.308 8.87311C161.131 9.28616 160.895 9.64021 160.629 10.0238C160.6 10.1123 160.541 10.2008 160.452 10.2893C162.252 10.2893 164.022 10.2893 165.851 10.2893C165.822 10.2008 165.822 10.1123 165.763 10.0238C165.674 9.84674 165.586 9.69922 165.556 9.5222C165.261 8.84361 165.261 8.72559 165.851 8.16501C166.146 8.75509 166.441 9.34517 166.707 9.93526C166.825 10.2008 166.972 10.2598 167.208 10.2598C167.681 10.2303 168.094 10.2598 168.595 10.2598C168.418 9.87625 168.3 9.5517 168.123 9.19765C168.005 8.93212 168.005 8.7846 168.212 8.57807C168.33 8.46005 168.418 8.28303 168.595 8.106C168.861 8.66658 169.156 9.10914 169.303 9.66972C169.48 10.1418 169.716 10.3778 170.218 10.2598C170.336 10.2303 170.513 10.2598 170.69 10.2598C170.69 9.84674 170.572 9.46319 170.365 9.10914C170.277 8.93211 170.277 8.8436 170.395 8.72559C170.572 8.51906 170.69 8.31253 170.867 8.106C171.162 8.40104 171.339 8.72558 171.369 9.10914C171.398 9.49269 171.369 9.87625 171.369 10.2598C172.431 10.2598 173.463 10.2598 174.584 10.2598C174.555 9.78774 174.496 9.34517 174.496 8.87311C174.407 8.0765 174.378 7.2799 174.289 6.42428C174.289 6.24725 174.26 6.12923 174.083 6.04072C173.994 6.01122 173.965 5.77518 173.994 5.71618C174.171 5.42114 174.319 5.12609 174.555 4.83105C174.761 5.42114 175.411 5.39163 175.765 5.71618C175.558 5.98171 175.588 6.39477 175.175 6.6013C175.175 6.89634 175.204 7.3094 175.204 7.69295C175.234 8.28303 175.322 8.90261 175.322 9.49269C175.293 9.96476 175.145 10.4663 174.998 10.9384C174.82 11.5285 174.968 11.4105 174.319 11.4105C173.463 11.4105 172.667 11.4105 171.841 11.4105C171.516 11.4105 171.162 11.499 171.044 11.0269C171.014 11.0269 170.955 11.0269 170.955 11.0269C170.867 11.3514 170.631 11.4105 170.277 11.4105C169.982 11.381 169.687 11.4105 169.362 11.4105C169.156 11.4105 168.979 11.381 168.949 11.1449C168.949 11.1154 168.92 11.0564 168.861 11.0269C168.831 11.0269 168.831 11.0269 168.831 11.0269C168.654 11.3514 168.359 11.44 168.035 11.4105C167.563 11.381 167.149 11.4105 166.677 11.4105C166.471 11.4105 166.294 11.381 166.264 11.1154C166.264 11.0859 166.235 11.0269 166.176 10.9974C166.146 10.9974 166.087 10.9974 166.087 11.0269C165.91 11.4105 165.527 11.4105 165.202 11.4105C163.609 11.4105 161.986 11.4105 160.393 11.4105C160.098 11.4105 159.714 11.5285 159.596 10.9384C159.39 11.499 159.006 11.4105 158.623 11.4105C157.531 11.4105 156.439 11.4105 155.348 11.4105C155.141 11.4105 155.053 11.44 155.023 11.676C154.846 12.2956 154.551 12.8857 154.138 13.4167C153.666 13.9773 153.253 14.0068 152.692 13.5347C152.427 13.3282 152.22 13.0332 151.984 12.7676C152.486 12.8857 152.988 12.9447 153.489 12.6496C153.961 12.3546 154.256 11.971 154.463 11.44C154.05 11.44 153.666 11.4105 153.312 11.44C152.692 11.4695 152.132 11.0564 152.309 10.1713C152.427 9.49269 152.781 8.90261 153.224 8.40104C153.548 8.01749 153.991 8.01749 154.315 8.40104C154.787 8.87311 154.994 9.49269 155.112 10.1418C155.112 10.1713 155.112 10.2303 155.141 10.3188C156.498 10.3188 157.885 10.3188 159.272 10.3188C159.242 9.93525 159.095 9.61071 158.859 9.40418C158.593 9.13864 158.269 8.99113 157.974 8.7846ZM154.463 10.3188C154.374 10.0238 154.345 9.75823 154.197 9.5222C153.991 9.05014 153.519 9.02063 153.224 9.43368C153.135 9.5517 153.106 9.69922 153.047 9.81724C153.017 10.0828 153.076 10.2893 153.371 10.2893C153.696 10.3188 154.05 10.3188 154.463 10.3188ZM160.245 9.28616C160.364 9.10914 160.57 8.96162 160.423 8.72559C160.245 8.46005 160.009 8.60758 159.744 8.63708C159.95 8.87311 160.068 9.05013 160.245 9.28616Z" fill="#108342"/>
<path d="M105.22 6.63136C105.249 7.51648 105.338 8.43111 105.397 9.31623C105.426 10.0243 105.131 10.6734 104.925 11.293C104.925 11.3225 104.807 11.411 104.718 11.411C103.449 11.411 102.151 11.411 100.883 11.411C100.706 11.411 100.499 11.293 100.292 11.2045C100.174 11.529 99.7909 11.411 99.4959 11.411C98.9943 11.411 98.4927 11.4405 97.9911 11.411C97.6076 11.3815 97.4011 11.4995 97.3126 11.8241C97.2831 12.0011 97.1945 12.1191 97.047 12.2961C96.1619 11.7946 95.2768 11.293 94.4212 10.8209C94.3917 10.8504 94.3917 10.8504 94.3917 10.8504C94.1851 11.352 93.8016 11.4405 93.3295 11.411C92.7689 11.3815 92.2674 11.411 91.7363 11.411C91.5298 11.411 91.4413 11.4405 91.4118 11.6765C91.2347 12.3551 90.9102 12.9747 90.4381 13.4763C89.9661 13.9779 89.553 13.9779 89.0809 13.5058C88.8154 13.2993 88.6089 13.0337 88.4023 12.7387C88.9039 12.8567 89.4055 12.9157 89.9071 12.6207C90.3791 12.3551 90.6742 11.9421 90.8807 11.411C90.4676 11.411 90.0841 11.411 89.7005 11.411C88.9334 11.411 88.5499 10.9389 88.6974 10.2013C88.8154 9.52276 89.1694 8.93267 89.612 8.4016C89.9366 8.01805 90.4086 8.01805 90.7627 8.4016C91.1757 8.87367 91.3822 9.40474 91.4708 9.99482C91.5003 10.2013 91.5888 10.2899 91.7953 10.2899C92.5624 10.2899 93.3 10.2899 94.0671 10.2899C94.2736 10.2899 94.3622 10.2604 94.4507 10.0243C94.8342 9.1392 95.3653 8.46061 96.3389 8.25408C96.6635 8.16557 97.0175 8.22458 97.3421 8.22458C97.5486 8.22458 97.6666 8.40161 97.6666 8.63764C97.6666 9.1097 97.6666 9.61127 97.6666 10.0833C97.6666 10.2013 97.6961 10.2899 97.8731 10.2899C98.6697 10.2899 99.4664 10.2899 100.263 10.2899C100.292 10.2899 100.351 10.2899 100.381 10.2604C100.381 10.1718 100.381 10.0538 100.381 9.96532C100.381 8.66714 100.381 7.33946 100.381 6.10029C100.381 5.98228 100.469 5.80525 100.558 5.68724C100.824 5.4217 101.06 5.21517 101.355 4.97913C101.355 5.00864 101.355 5.15616 101.355 5.24468C101.355 6.80839 101.355 8.3721 101.355 9.93581C101.355 10.3194 101.384 10.3489 101.768 10.3489C102.653 10.3489 103.538 10.3489 104.423 10.3489C104.512 10.3489 104.541 10.3489 104.689 10.3489C104.659 9.96532 104.659 9.64077 104.6 9.28672C104.512 8.3721 104.423 7.39846 104.335 6.45433C104.335 6.33632 104.305 6.1888 104.157 6.15929C103.98 6.07078 103.98 5.95277 104.069 5.77575C104.246 5.48071 104.394 5.18567 104.63 4.89062C104.807 5.48071 105.426 5.4512 105.839 5.77575C105.603 6.01178 105.692 6.42483 105.22 6.63136ZM95.1588 9.93581C95.7783 10.2604 96.3684 10.6439 97.0175 11.0275C97.0175 10.5259 97.0175 10.1128 97.0175 9.64077C97.0175 9.31623 96.8995 9.1392 96.5159 9.1392C95.9554 9.16871 95.4833 9.43425 95.1588 9.93581ZM90.7332 10.3194C90.6446 10.0243 90.6151 9.75879 90.4676 9.52276C90.2611 9.05069 89.848 9.02119 89.553 9.43424C89.4645 9.55226 89.376 9.69978 89.376 9.8178C89.2875 10.1128 89.4055 10.2899 89.7005 10.3194C89.9956 10.3194 90.3496 10.3194 90.7332 10.3194Z" fill="#108342"/>
<path d="M123.897 4.86035C123.897 5.77498 123.897 6.63059 123.897 7.48621C123.897 8.25331 123.897 9.04993 123.897 9.81703C123.897 10.3186 123.927 10.3776 124.458 10.3776C125.608 10.3776 126.7 10.3776 127.821 10.3776C127.91 10.3776 127.998 10.3776 128.116 10.3776C127.939 9.6105 127.556 9.07943 126.73 8.93191C126.907 8.54836 127.054 8.22381 127.231 7.86976C127.261 7.84026 127.32 7.75175 127.349 7.75175C127.969 7.57473 128.618 7.45671 129.296 7.54522C129.975 7.66323 130.359 8.22381 130.064 8.84339C129.887 9.25645 129.592 9.64 129.385 10.0531C129.356 10.1416 129.296 10.2301 129.208 10.3186C130.654 10.3186 132.04 10.3186 133.427 10.3186C133.398 9.64 133.339 9.02042 133.309 8.37133C133.28 7.72224 133.221 7.16167 133.132 6.51258C133.132 6.33555 133.103 6.21754 132.925 6.09952C132.807 6.01101 132.748 5.89299 132.837 5.77498C133.014 5.47994 133.162 5.2144 133.339 4.91936C133.545 5.50944 134.135 5.47994 134.548 5.77498C134.371 6.04051 134.371 6.45357 133.958 6.6896C133.958 7.01415 133.988 7.45671 134.047 7.86976C134.076 8.43034 134.165 9.02042 134.135 9.55149C134.106 10.0236 133.958 10.4661 133.84 10.9382C133.663 11.4988 133.663 11.4988 133.132 11.4988C131.834 11.4988 130.506 11.4988 129.208 11.4988C128.913 11.4988 128.529 11.6168 128.441 11.0857C128.234 11.5578 127.851 11.4988 127.467 11.4988C126.199 11.4988 124.93 11.4988 123.661 11.4988C123.543 11.4988 123.396 11.5283 123.278 11.4692C123.16 11.4397 123.012 11.2922 122.983 11.1742C122.953 11.0562 122.953 10.8792 122.953 10.7022C122.953 9.13844 122.953 7.57472 122.953 6.07002C122.953 5.952 123.042 5.80448 123.071 5.74547C123.366 5.42093 123.602 5.15539 123.897 4.86035ZM129.001 9.25645C129.208 9.07942 129.296 8.8729 129.208 8.75489C129.119 8.57786 128.883 8.54835 128.529 8.66637C128.706 8.8729 128.824 9.04992 129.001 9.25645Z" fill="#108342"/>
<path d="M115.903 10.2602C115.874 10.0536 115.785 9.84709 115.726 9.64056C115.726 9.55205 115.726 9.43404 115.756 9.37503C115.933 9.1685 116.139 8.96197 116.346 8.69643C116.523 9.198 116.641 9.61106 116.73 10.0536C116.759 10.2306 116.848 10.3192 117.025 10.3192C117.91 10.3192 118.824 10.3192 119.709 10.3192C119.798 10.3192 119.886 10.3192 119.975 10.3192C119.945 10.0241 119.945 9.69957 119.886 9.40453C119.798 8.43089 119.709 7.42776 119.621 6.45413C119.621 6.36561 119.532 6.2476 119.444 6.15909C119.326 6.07057 119.267 5.98207 119.355 5.83455C119.532 5.53951 119.68 5.21496 119.857 4.91992C120.063 5.53951 120.713 5.4805 121.067 5.80504C120.949 6.07058 120.86 6.36561 120.683 6.60165C120.654 6.63115 120.565 6.63115 120.418 6.69016C120.506 7.48677 120.536 8.28338 120.624 9.07999C120.654 9.34553 120.654 9.64056 120.713 9.87659C120.742 10.1716 120.831 10.3782 121.126 10.5552C121.45 10.7617 121.745 10.9387 122.129 11.1748C121.922 11.4698 121.745 11.7649 121.539 12.0894C121.067 11.7944 120.654 11.5288 120.182 11.2928C120.182 11.3223 120.182 11.3223 120.182 11.3813C119.975 11.4108 119.798 11.4993 119.591 11.4993C118.588 11.4993 117.526 11.4993 116.523 11.4993C116.257 11.4993 116.021 11.5288 116.021 11.2043C115.992 11.2043 115.933 11.2043 115.933 11.2043C115.756 11.4993 115.461 11.5288 115.136 11.4993C114.163 11.4993 113.189 11.4993 112.274 11.4993C112.186 11.4993 112.097 11.4993 111.979 11.4993C111.95 11.2928 111.891 11.0863 111.802 10.8797C111.773 10.9092 111.684 10.9682 111.684 10.9978C111.566 11.3223 111.301 11.3813 110.976 11.2928C110.268 11.1748 109.531 11.0863 108.793 10.9682C108.97 10.4667 109.118 9.9061 109.354 9.40453C109.383 9.28651 109.56 9.198 109.678 9.10949C110.15 8.84395 110.652 8.60792 111.124 8.31288C111.242 8.28338 111.389 8.19487 111.301 8.01784C111.301 7.98834 111.33 7.89983 111.389 7.84082C111.596 7.63429 111.861 7.45726 112.097 7.22123C112.186 7.63429 112.274 8.07685 112.363 8.48991C112.481 9.05049 112.569 9.58155 112.687 10.1421C112.717 10.2601 112.717 10.3487 112.894 10.3487C113.809 10.3487 114.753 10.3487 115.726 10.3487C115.815 10.3192 115.844 10.3192 115.903 10.2602ZM111.566 8.78495C111.065 9.07999 110.593 9.34552 110.121 9.58155C110.032 9.61106 110.003 9.75858 109.914 9.87659C110.593 9.96511 111.212 10.0831 111.861 10.1716C111.714 9.67006 111.625 9.25701 111.566 8.78495Z" fill="#108342"/>
<path d="M84.863 8.10645C85.4236 8.72603 85.5416 9.46363 85.3351 10.2012C85.2171 10.5258 85.0695 10.8798 85.0105 11.2044C84.981 11.3814 84.8925 11.4109 84.7155 11.4109C83.7124 11.4109 82.6797 11.4109 81.6766 11.4109C81.4996 11.4109 81.3815 11.4404 81.352 11.6174C81.175 12.0305 80.939 12.414 80.762 12.8271C80.6439 13.0926 80.4964 13.2401 80.2604 13.3877C79.6703 13.7712 79.0507 14.0663 78.3721 14.1548C77.192 14.3613 76.2773 13.5647 76.2773 12.3845C76.2773 11.6174 76.5724 10.9093 76.8674 10.2307C76.8379 10.7028 76.7789 11.1454 76.7789 11.6174C76.7789 12.6206 77.3985 13.1811 78.4311 13.0041C79.2868 12.8861 79.9358 12.5025 80.4669 11.824C80.1719 11.5289 80.0834 11.5289 78.7852 11.3224C78.9622 10.9978 79.0802 10.6438 79.2573 10.3192C79.2868 10.2897 79.4343 10.2307 79.5228 10.2307C81.175 10.2307 82.8567 10.2307 84.509 10.2307C84.5975 10.2307 84.7155 10.2307 84.8335 10.2307C84.8335 9.75867 84.7155 9.43413 84.509 9.08008C84.4205 8.96207 84.4205 8.87355 84.509 8.75554C84.5385 8.63752 84.6565 8.37198 84.863 8.10645Z" fill="#108342"/>
<path d="M143.252 7.2207C143.458 8.22384 143.635 9.16797 143.842 10.0826C143.872 10.2006 143.872 10.2891 144.049 10.2891C145.022 10.2891 145.996 10.2891 146.969 10.2891C146.999 10.2891 147.058 10.2891 147.058 10.2891C147.087 9.90557 147.058 9.78755 146.645 8.99094C146.851 8.72541 147.028 8.43037 147.235 8.13533C147.707 8.69591 147.914 9.28598 147.737 9.99408C147.619 10.4661 147.441 10.8792 147.264 11.2923C147.235 11.3808 147.146 11.4103 147.058 11.4103C145.789 11.4103 144.58 11.4103 143.311 11.4103C143.193 11.4103 143.104 11.3808 143.104 11.2333C143.075 11.1152 143.075 10.9382 142.986 10.7317C142.898 10.8497 142.809 10.9382 142.721 11.0267C142.632 11.2037 142.514 11.2332 142.308 11.2037C141.6 11.0857 140.833 10.9972 140.125 10.8792C140.095 10.8792 140.036 10.8792 139.918 10.8497C140.095 10.2891 140.302 9.78755 140.479 9.28598C140.508 9.19747 140.656 9.10897 140.774 9.07946C141.275 8.78442 141.777 8.51888 142.278 8.22384C142.308 8.19433 142.455 8.10583 142.396 8.04682C142.367 7.8698 142.426 7.78128 142.573 7.66326C142.868 7.57475 143.045 7.39773 143.252 7.2207ZM141.01 9.81706C141.01 9.84657 141.039 9.90557 141.039 9.90557C141.629 9.99408 142.249 10.0826 142.898 10.2006C142.809 9.72855 142.721 9.31549 142.603 8.81392C142.072 9.16797 141.482 9.345 141.01 9.81706Z" fill="#108342"/>
<path d="M87.3426 4.83105C87.4311 5.33262 87.5196 5.74568 87.5491 6.18824C87.5491 6.21775 87.5491 6.30626 87.5196 6.30626C87.3131 6.48328 87.3426 6.68981 87.3426 6.89634C87.3721 7.60443 87.4311 8.37154 87.4311 9.07964C87.4311 9.99426 87.1655 10.8794 86.6345 11.6465C86.6345 11.676 86.605 11.676 86.605 11.7645C86.605 11.2039 86.605 10.7614 86.605 10.2893C86.5164 8.90261 86.4279 7.54542 86.3984 6.15874C86.3984 6.07022 86.3984 6.04072 86.4279 5.95221C86.723 5.62767 87.018 5.24411 87.3426 4.83105Z" fill="#108342"/>
<path d="M149.566 8.69664C149.743 8.4016 149.862 8.10656 149.98 7.81152C151.189 8.22458 151.661 9.19822 151.278 10.3784C151.189 10.6734 151.071 10.9685 150.953 11.2635C150.924 11.293 150.835 11.3815 150.776 11.3815C150.009 11.3815 149.271 11.3815 148.445 11.3815C148.534 10.998 148.622 10.6734 148.711 10.3194C148.711 10.2899 148.829 10.2309 148.917 10.2309C149.419 10.2309 149.921 10.2309 150.422 10.2309C150.511 10.2309 150.599 10.2309 150.717 10.2309C150.717 9.52276 150.304 8.99168 149.566 8.69664Z" fill="#108342"/>
<path d="M135.61 11.7946C135.728 10.1128 135.728 8.46061 135.492 6.8674C135.374 5.95277 135.964 5.51021 136.406 4.89062C136.495 5.36269 136.584 5.77574 136.613 6.1888C136.613 6.2183 136.613 6.27731 136.613 6.30681C136.347 6.51334 136.495 6.80839 136.495 7.10343C136.495 7.98855 136.524 8.87367 136.495 9.75879C136.406 10.5259 136.082 11.1455 135.61 11.7946Z" fill="#108342"/>
<path d="M76.1001 8.10623C76.4837 8.43078 76.9558 8.48978 77.3983 8.37177C77.3983 8.75532 77.2803 8.87333 76.9263 8.96185C76.5132 9.07986 76.1591 9.25689 75.8346 9.55193C75.9231 9.3454 76.0411 9.13887 76.1296 8.87334C76.1001 8.84383 76.0411 8.84384 76.0116 8.78483C75.8346 8.66681 75.7461 8.48979 75.7461 8.31276C75.7461 7.75219 76.3362 7.22112 76.8967 7.16211C77.2803 7.16211 77.3688 7.28012 77.1918 7.63417C77.1918 7.66367 77.1623 7.72269 77.1623 7.75219C76.5722 7.75219 76.3952 7.78169 76.1001 8.10623Z" fill="#108342"/>
<path d="M147.384 13.6821C147.177 13.5641 147 13.3576 146.882 13.3576C146.705 13.3576 146.587 13.5641 146.38 13.6821C146.115 13.4756 145.908 13.2691 145.613 13.0035C145.82 12.8265 145.997 12.679 146.203 12.502C146.38 12.62 146.528 12.7675 146.675 12.915C146.852 12.797 147 12.6495 147.177 12.502C147.384 12.7675 147.59 13.0035 147.797 13.2986C147.767 13.3576 147.59 13.5051 147.384 13.6821Z" fill="#108342"/>
<path d="M111.271 6.51317C111.005 6.24763 110.799 6.04111 110.562 5.83458C110.769 5.65756 110.976 5.51003 111.182 5.33301C111.359 5.51003 111.477 5.62805 111.654 5.74606C111.831 5.62805 111.979 5.48053 112.156 5.33301C112.421 5.53954 112.657 5.80507 112.923 6.0116C112.716 6.18862 112.539 6.33614 112.333 6.51317C112.303 6.51317 112.303 6.51317 112.244 6.51317C112.067 6.39515 111.949 6.18862 111.772 6.18862C111.566 6.18862 111.418 6.39515 111.271 6.51317Z" fill="#108342"/>
<path d="M142.278 6.57176C142.071 6.30623 141.865 6.07019 141.688 5.80466C141.806 5.68664 142.012 5.53912 142.189 5.3916C142.219 5.42111 142.278 5.4211 142.278 5.4211C142.661 5.74564 142.661 5.74564 143.074 5.4211C143.104 5.39159 143.251 5.39159 143.281 5.4211C143.487 5.59812 143.694 5.80465 143.959 6.01118C143.753 6.1882 143.576 6.33573 143.369 6.51275C143.34 6.48325 143.281 6.48325 143.251 6.42424C142.868 6.0997 142.868 6.0997 142.484 6.42424C142.396 6.42424 142.366 6.48325 142.278 6.57176Z" fill="#108342"/>
<path d="M115.016 13.0037C115.104 12.9152 115.193 12.8857 115.222 12.7972C115.606 12.4726 115.547 12.4727 115.989 12.7677C116.019 12.7972 116.166 12.7972 116.255 12.7677C116.373 12.6792 116.52 12.5612 116.638 12.4727C116.904 12.6792 117.11 12.9447 117.405 13.1512C117.199 13.3283 117.022 13.4758 116.815 13.6528C116.638 13.5348 116.52 13.3873 116.343 13.2398C116.166 13.3578 116.019 13.5053 115.842 13.6528C115.517 13.4758 115.252 13.2693 115.016 13.0037Z" fill="#108342"/>
<path d="M83.7734 6.60159C83.98 6.39506 84.1865 6.21804 84.3635 6.04102C84.6291 6.30655 84.8651 6.51308 85.1306 6.74911C84.9241 6.92613 84.7471 7.07366 84.5405 7.30969C84.275 7.07366 84.039 6.86713 83.7734 6.60159Z" fill="#108342"/>
<path d="M75.7773 26.6641H211.997" stroke="#108342" stroke-width="2.4613" stroke-miterlimit="10"/>
<path d="M79.1678 22.5038C79.5219 22.5038 79.8169 22.4743 80.0529 22.3858C80.4955 22.2382 80.702 21.9432 80.702 21.5301C80.702 21.2941 80.584 21.0876 80.3775 20.9696C80.171 20.8516 79.8169 20.7335 79.3743 20.6155L78.6072 20.4385C77.8401 20.2615 77.3091 20.0845 77.014 19.8779C76.5125 19.5534 76.2764 19.0223 76.2764 18.2847C76.2764 17.6356 76.5125 17.075 76.9845 16.6325C77.4566 16.1899 78.1647 15.9834 79.0793 15.9834C79.8464 15.9834 80.525 16.1899 81.0561 16.603C81.6167 17.016 81.8822 17.6061 81.9117 18.3732H80.4365C80.407 17.9307 80.23 17.6061 79.8464 17.4291C79.6104 17.3111 79.3153 17.2521 78.9613 17.2521C78.5777 17.2521 78.2532 17.3406 78.0172 17.4881C77.7811 17.6356 77.6631 17.8717 77.6631 18.1667C77.6631 18.4322 77.7811 18.6388 78.0172 18.7568C78.1647 18.8453 78.4892 18.9338 78.9613 19.0518L80.23 19.3469C80.7905 19.4944 81.2036 19.6714 81.4986 19.8779C81.9412 20.232 82.1477 20.7335 82.1477 21.3826C82.1477 22.0612 81.8822 22.6218 81.3806 23.0644C80.8791 23.5069 80.1415 23.743 79.1973 23.743C78.2532 23.743 77.4861 23.5364 76.955 23.0939C76.3944 22.6513 76.1289 22.0612 76.1289 21.2941H77.6041C77.6631 21.6187 77.7516 21.8842 77.8696 22.0317C78.1647 22.3563 78.5777 22.5038 79.1678 22.5038Z" fill="#108342"/>
<path d="M87.606 22.0606H84.8917L84.3901 23.5652H82.7969L85.4227 16.2188H87.1635L89.7598 23.5652H88.1076L87.606 22.0606ZM87.193 20.7919L86.2783 17.9005L85.3342 20.7919H87.193Z" fill="#108342"/>
<path d="M95.0129 20.7329V16.2188H96.5766V20.7329C96.5766 21.5 96.4586 22.1196 96.2225 22.5621C95.78 23.3587 94.9244 23.7423 93.6262 23.7423C92.3575 23.7423 91.5019 23.3292 91.0298 22.5621C90.7938 22.1196 90.6758 21.5295 90.6758 20.7329V16.2188H92.2395V20.7329C92.2395 21.2344 92.2985 21.618 92.4165 21.8245C92.5935 22.2376 93.0066 22.4441 93.6262 22.4441C94.2458 22.4441 94.6588 22.2376 94.8358 21.8245C94.9539 21.618 95.0129 21.2344 95.0129 20.7329Z" fill="#108342"/>
<path d="M101.208 23.5652H98.0508V16.2188H101.208C101.65 16.2188 102.034 16.2778 102.329 16.3663C102.83 16.5433 103.273 16.8383 103.568 17.3104C103.834 17.6645 104.011 18.0775 104.099 18.4906C104.188 18.9036 104.247 19.3167 104.247 19.7002C104.247 20.6739 104.04 21.5 103.657 22.1786C103.125 23.1227 102.329 23.5652 101.208 23.5652ZM102.358 18.107C102.122 17.6939 101.65 17.5169 100.972 17.5169H99.5555V22.2966H100.972C101.709 22.2966 102.211 21.9425 102.476 21.2344C102.624 20.8509 102.712 20.3788 102.712 19.8477C102.683 19.0806 102.565 18.4906 102.358 18.107Z" fill="#108342"/>
<path d="M105.277 16.2188H106.812V23.5652H105.277V16.2188Z" fill="#108342"/>
<path d="M115.575 23.3883C115.162 23.6243 114.661 23.7718 114.07 23.7718C113.097 23.7718 112.3 23.4473 111.681 22.7687C111.032 22.0901 110.707 21.1755 110.707 19.9953C110.707 18.8152 111.032 17.8415 111.681 17.1334C112.33 16.4253 113.185 16.0713 114.277 16.0713C115.221 16.0713 115.959 16.3073 116.519 16.7794C117.08 17.2514 117.404 17.8415 117.493 18.5496H115.988C115.87 18.0481 115.575 17.694 115.133 17.4875C114.867 17.3695 114.602 17.3105 114.277 17.3105C113.687 17.3105 113.215 17.5465 112.831 17.9891C112.448 18.4316 112.271 19.1102 112.271 19.9953C112.271 20.91 112.477 21.5295 112.89 21.9131C113.303 22.2966 113.775 22.4737 114.307 22.4737C114.808 22.4737 115.251 22.3261 115.575 22.0311C115.9 21.7361 116.106 21.3525 116.195 20.8509H114.484V19.6413H117.552V23.5653H116.549L116.401 22.6507C116.077 23.0047 115.811 23.2408 115.575 23.3883Z" fill="#108342"/>
<path d="M119 16.2188H120.534V22.2376H124.163V23.5652H119V16.2188Z" fill="#108342"/>
<path d="M128.47 23.7725C127.408 23.7725 126.611 23.4774 126.051 22.9168C125.313 22.2087 124.93 21.2056 124.93 19.8779C124.93 18.5207 125.313 17.5176 126.051 16.839C126.611 16.2784 127.408 15.9834 128.47 15.9834C129.532 15.9834 130.329 16.2784 130.86 16.839C131.598 17.5176 131.981 18.5207 131.981 19.8779C131.981 21.2056 131.598 22.2087 130.86 22.9168C130.329 23.4774 129.532 23.7725 128.47 23.7725ZM129.916 21.7957C130.27 21.3531 130.447 20.704 130.447 19.8779C130.447 19.0518 130.27 18.4322 129.916 17.9602C129.562 17.5176 129.09 17.2816 128.47 17.2816C127.851 17.2816 127.379 17.5176 127.024 17.9602C126.67 18.4027 126.493 19.0518 126.493 19.8779C126.493 20.704 126.67 21.3531 127.024 21.7957C127.379 22.2382 127.88 22.4743 128.47 22.4743C129.06 22.4743 129.562 22.2382 129.916 21.7957Z" fill="#108342"/>
<path d="M136.525 23.5652H133.191V16.2188H136.761C137.647 16.2188 138.296 16.4843 138.679 16.9859C138.915 17.3104 139.004 17.6644 139.004 18.107C139.004 18.5496 138.886 18.9036 138.679 19.1987C138.561 19.3462 138.355 19.4937 138.119 19.6117C138.502 19.7592 138.768 19.9658 138.974 20.2608C139.151 20.5558 139.269 20.9099 139.269 21.323C139.269 21.7655 139.151 22.1491 138.945 22.5031C138.797 22.7391 138.62 22.9162 138.414 23.0932C138.178 23.2702 137.912 23.3882 137.588 23.4472C137.233 23.5357 136.879 23.5652 136.525 23.5652ZM137.233 18.9331C137.44 18.8151 137.529 18.6086 137.529 18.284C137.529 17.93 137.381 17.7235 137.145 17.6054C136.909 17.5169 136.614 17.4874 136.26 17.4874H134.637V19.1101H136.437C136.791 19.1101 137.027 19.0511 137.233 18.9331ZM136.466 20.3493H134.637V22.2966H136.437C136.761 22.2966 136.997 22.2671 137.174 22.1786C137.499 22.031 137.676 21.7065 137.676 21.2639C137.676 20.8804 137.529 20.6148 137.204 20.4673C137.056 20.3788 136.791 20.3493 136.466 20.3493Z" fill="#108342"/>
<path d="M144.813 22.0606H142.099L141.597 23.5652H140.004L142.63 16.2188H144.37L146.967 23.5652H145.315L144.813 22.0606ZM144.4 20.7919L143.485 17.9005L142.541 20.7919H144.4Z" fill="#108342"/>
<path d="M147.883 16.2188H149.417V22.2376H153.046V23.5652H147.883V16.2188Z" fill="#108342"/>
<path d="M160.067 20.9394H158.503V23.5652H156.969V16.2188H160.155C160.893 16.2188 161.483 16.3958 161.925 16.7793C162.368 17.1629 162.575 17.753 162.575 18.5496C162.575 19.4052 162.368 20.0248 161.925 20.3788C161.512 20.7624 160.863 20.9394 160.067 20.9394ZM160.775 19.4052C160.981 19.2282 161.07 18.9626 161.07 18.5791C161.07 18.1955 160.981 17.93 160.775 17.753C160.568 17.5759 160.303 17.5169 159.919 17.5169H158.503V19.6707H159.919C160.303 19.6707 160.568 19.5822 160.775 19.4052Z" fill="#108342"/>
<path d="M114.34 30.7061H115.432L117.114 35.4267H116.051L115.756 34.4531H114.016L113.632 35.3677H112.629L114.34 30.7061ZM114.252 33.627H115.461L114.871 31.7682L114.252 33.627Z" fill="#030303"/>
<path d="M123.073 30.7061H124.518V35.3972H123.604V32.1813C123.604 32.0927 123.604 31.9747 123.604 31.7977C123.604 31.6207 123.604 31.5027 123.604 31.4142L122.719 35.3677H121.745L120.86 31.4142C120.86 31.5027 120.86 31.6207 120.86 31.7977C120.86 31.9747 120.86 32.0927 120.86 32.1813V35.3972H119.945V30.7061H121.391L122.247 34.4236L123.073 30.7061Z" fill="#030303"/>
<path d="M127.94 31.9745C128.205 32.0925 128.412 32.2696 128.53 32.4761C128.648 32.6826 128.795 32.9482 128.825 33.1842C128.854 33.3612 128.854 33.5677 128.854 33.8628H126.317C126.317 34.1873 126.435 34.4528 126.701 34.5709C126.819 34.6594 126.996 34.6889 127.202 34.6889C127.409 34.6889 127.586 34.6594 127.704 34.5119C127.792 34.4824 127.822 34.3938 127.881 34.2463H128.795C128.766 34.4529 128.677 34.6594 128.471 34.8659C128.176 35.1904 127.704 35.3675 127.173 35.3675C126.701 35.3675 126.287 35.2495 125.963 34.9544C125.638 34.6594 125.402 34.1873 125.402 33.5677C125.402 32.9777 125.579 32.5056 125.874 32.181C126.199 31.8565 126.582 31.709 127.143 31.709C127.409 31.7975 127.704 31.886 127.94 31.9745ZM126.553 32.7711C126.435 32.8891 126.346 33.0662 126.287 33.3317H127.851C127.851 33.0662 127.763 32.9186 127.586 32.7711C127.468 32.6531 127.261 32.5941 127.025 32.5941C126.907 32.5646 126.671 32.6531 126.553 32.7711Z" fill="#030303"/>
<path d="M133.986 31.9452C134.163 31.9747 134.281 32.1222 134.399 32.2402C134.488 32.3582 134.576 32.5057 134.606 32.7123C134.635 32.8303 134.635 33.0073 134.635 33.2138V35.3971H133.72V33.1548C133.72 33.0368 133.691 32.8893 133.632 32.8303C133.543 32.6533 133.425 32.5647 133.16 32.5647C132.894 32.5647 132.747 32.6533 132.658 32.8598C132.629 32.9778 132.57 33.1253 132.57 33.2433V35.3971H131.655V33.3319C131.655 33.1253 131.626 33.0073 131.567 32.8598C131.478 32.6828 131.36 32.5943 131.095 32.5943C130.829 32.5943 130.681 32.6828 130.593 32.8598C130.563 32.9483 130.504 33.1253 130.504 33.2729V35.3676H129.59V31.8567H130.475V32.4172C130.593 32.2402 130.682 32.1222 130.8 32.0337C130.977 31.9157 131.213 31.8271 131.478 31.8271C131.744 31.8271 131.95 31.8567 132.098 32.0042C132.216 32.1222 132.363 32.2697 132.393 32.4172C132.511 32.2107 132.658 32.0927 132.865 31.9452C133.042 31.8567 133.248 31.8271 133.484 31.8271C133.691 31.8567 133.838 31.8862 133.986 31.9452Z" fill="#030303"/>
<path d="M138.767 32.3583C139.033 32.6828 139.151 33.1254 139.151 33.627C139.151 34.1875 139.033 34.6301 138.767 34.9841C138.502 35.3087 138.148 35.5447 137.676 35.5447C137.381 35.5447 137.174 35.5152 136.967 35.3677C136.879 35.2792 136.761 35.1907 136.643 34.9841V35.3972H135.758V30.7061H136.672V32.3878C136.79 32.2108 136.938 32.0928 137.056 32.0042C137.233 31.8862 137.44 31.8272 137.676 31.8272C138.148 31.8567 138.472 32.0042 138.767 32.3583ZM138.03 34.4531C138.148 34.2465 138.236 34.04 138.236 33.686C138.236 33.4204 138.207 33.2139 138.148 33.0664C138.03 32.7713 137.823 32.5943 137.469 32.5943C137.144 32.5943 136.908 32.7713 136.79 33.0664C136.702 33.2434 136.702 33.4499 136.702 33.686C136.702 33.981 136.79 34.2465 136.908 34.4531C137.026 34.6596 137.233 34.7481 137.499 34.7481C137.676 34.7481 137.853 34.6596 138.03 34.4531Z" fill="#030303"/>
<path d="M142.397 31.9745C142.662 32.0925 142.869 32.2696 142.987 32.4761C143.105 32.6826 143.252 32.9482 143.282 33.1842C143.311 33.3612 143.311 33.5677 143.311 33.8628H140.774C140.774 34.1873 140.892 34.4528 141.158 34.5709C141.276 34.6594 141.453 34.6889 141.659 34.6889C141.866 34.6889 142.043 34.6594 142.161 34.5119C142.249 34.4824 142.279 34.3938 142.338 34.2463H143.252C143.223 34.4529 143.134 34.6594 142.928 34.8659C142.633 35.1904 142.161 35.3675 141.63 35.3675C141.158 35.3675 140.744 35.2495 140.42 34.9544C140.095 34.6594 139.859 34.1873 139.859 33.5677C139.859 32.9777 140.036 32.5056 140.331 32.181C140.656 31.8565 141.04 31.709 141.6 31.709C141.866 31.7975 142.161 31.886 142.397 31.9745ZM141.01 32.7711C140.892 32.8891 140.804 33.0662 140.744 33.3317H142.308C142.308 33.0662 142.22 32.9186 142.043 32.7711C141.866 32.6531 141.718 32.5941 141.482 32.5941C141.364 32.5646 141.128 32.6531 141.01 32.7711Z" fill="#030303"/>
<path d="M146.026 31.8564C146.026 31.8564 146.055 31.8564 146.114 31.8564V32.7711C146.085 32.7711 145.996 32.7711 145.937 32.7711C145.878 32.7711 145.849 32.7711 145.819 32.7711C145.436 32.7711 145.2 32.8891 145.052 33.1546C144.964 33.2726 144.934 33.4792 144.934 33.7742V35.4559H144.02V31.945H144.905V32.535C145.023 32.2695 145.17 32.1515 145.288 32.063C145.465 31.9449 145.672 31.8564 145.967 31.8564C145.996 31.8564 146.026 31.8564 146.026 31.8564Z" fill="#030303"/>
<path d="M152.014 34.9548C151.719 35.3383 151.247 35.5154 150.657 35.5154C150.067 35.5154 149.595 35.3383 149.3 34.9548C149.005 34.5712 148.887 34.1582 148.887 33.6566C148.887 33.155 149.005 32.742 149.3 32.3584C149.595 31.9749 150.067 31.7979 150.657 31.7979C151.247 31.7979 151.719 31.9749 152.014 32.3584C152.309 32.742 152.427 33.155 152.427 33.6566C152.486 34.1582 152.309 34.6302 152.014 34.9548ZM151.306 34.4532C151.424 34.2762 151.513 33.9811 151.513 33.6566C151.513 33.3321 151.424 33.037 151.306 32.86C151.188 32.683 150.981 32.5649 150.686 32.5649C150.421 32.5649 150.214 32.6535 150.067 32.86C149.949 33.037 149.86 33.3321 149.86 33.6566C149.86 33.9811 149.949 34.2762 150.067 34.4532C150.185 34.6597 150.391 34.7483 150.686 34.7483C150.981 34.7483 151.188 34.6597 151.306 34.4532Z" fill="#030303"/>
<path d="M154.878 30.6182C154.907 30.6182 154.996 30.6182 155.084 30.6182V31.3853C155.055 31.3853 154.966 31.3853 154.819 31.3853C154.701 31.3853 154.612 31.4148 154.553 31.4738C154.524 31.5033 154.465 31.5918 154.465 31.6508C154.465 31.7393 154.465 31.8278 154.465 31.9458H155.055V32.5654H154.465V35.3978H153.58V32.5654H153.078V31.9458H153.58V31.7393C153.58 31.3558 153.609 31.1197 153.757 30.9722C153.875 30.7657 154.229 30.6772 154.73 30.6772C154.789 30.6182 154.848 30.6182 154.878 30.6182Z" fill="#030303"/>
<path d="M157.738 32.5942V31.9746H158.24V31.001H159.125V31.9746H159.686V32.5942H159.125V34.453C159.125 34.571 159.125 34.7185 159.154 34.7185C159.184 34.748 159.272 34.748 159.479 34.748C159.509 34.748 159.509 34.748 159.568 34.748C159.627 34.748 159.597 34.748 159.656 34.748V35.4266H159.243C158.83 35.4266 158.535 35.3971 158.358 35.22C158.269 35.1315 158.181 34.9545 158.181 34.748V32.5942H157.738Z" fill="#030303"/>
<path d="M163.137 31.9452C163.314 32.0337 163.461 32.1222 163.55 32.2698C163.638 32.3878 163.727 32.5353 163.727 32.6828C163.756 32.8008 163.756 33.0664 163.756 33.3614V35.3972H162.842V33.3024C162.842 33.1254 162.812 32.9779 162.753 32.8303C162.665 32.6533 162.488 32.5648 162.281 32.5648C162.016 32.5648 161.868 32.6533 161.721 32.8303C161.573 33.0074 161.544 33.2139 161.544 33.5089V35.3972H160.629V30.7061H161.544V32.3583C161.662 32.1517 161.839 32.0337 162.016 31.9452C162.193 31.8567 162.34 31.8272 162.576 31.8272C162.753 31.7977 162.93 31.8567 163.137 31.9452Z" fill="#030303"/>
</svg>
