<svg width="163" height="40" viewBox="0 0 163 40" fill="none" xmlns="http://www.w3.org/2000/svg">
<mask id="mask0_3617_28452" style="mask-type:luminance" maskUnits="userSpaceOnUse" x="69" y="7" width="25" height="26">
<path d="M81.4233 7.76074C81.4233 7.76074 77.359 10.0799 77.359 14.5575C77.359 19.0351 79.9078 19.5174 80.9411 19.9307V25.2579L79.4486 24.0868C79.5634 22.8928 79.4486 20.5047 77.336 18.5989C74.3969 15.9582 69.6667 16.716 69.6667 16.716C69.6667 16.716 68.9778 20.8032 72.3762 23.8572C75.2006 26.383 78.0938 25.3956 79.0123 24.9594L80.9181 26.4519V32.2843H81.8825V26.4519L83.7884 24.9594C84.7069 25.3956 87.6231 26.383 90.4245 23.8572C93.8458 20.8032 93.134 16.716 93.134 16.716C93.134 16.716 88.4038 15.9582 85.4646 18.5989C83.3521 20.5047 83.2373 22.8928 83.3521 24.0868L81.8596 25.2579V19.9307C82.8929 19.5174 85.4417 18.1167 85.4417 14.5575C85.4417 10.9984 81.4003 7.7837 81.3774 7.76074H81.4233Z" fill="white"/>
</mask>
<g mask="url(#mask0_3617_28452)">
<path d="M93.8909 7.76074H69V32.3072H93.8909V7.76074Z" fill="url(#paint0_linear_3617_28452)"/>
</g>
<mask id="mask1_3617_28452" style="mask-type:luminance" maskUnits="userSpaceOnUse" x="60" y="0" width="43" height="40">
<path d="M67.9888 20C67.9888 12.5603 74.0049 6.5442 81.4217 6.52124C88.8614 6.52124 94.8775 12.5373 94.9004 19.9541C94.9004 27.3938 88.9073 33.4099 81.4676 33.4329C74.0508 33.4329 68.0347 27.4168 68.0118 20M72.6731 0.252585L67.6903 3.37544C66.8407 3.90356 66.5881 5.00574 67.1163 5.85534L68.7006 9.52928C67.4607 11.0448 66.4733 12.7899 65.8304 14.6728L61.8809 15.2928C60.8935 15.2928 60.0898 16.0964 60.0898 17.0838V22.9621C60.0898 23.9495 60.8935 24.7532 61.9039 24.7532L65.8763 25.3502C66.5192 27.2331 67.5066 28.9552 68.7466 30.4707L67.1622 34.1447C66.6341 34.9943 66.8866 36.0965 67.7362 36.6246L72.719 39.7245C73.5686 40.2526 74.6708 40 75.1989 39.1504L77.8625 36.0505C79.0336 36.3031 80.2276 36.4409 81.4676 36.4409C82.7535 36.4409 83.9934 36.3031 85.1874 36.0046L87.8051 39.0356C88.3333 39.8852 89.4354 40.1378 90.285 39.6097L95.2678 36.4868C96.1174 35.9587 96.37 34.8565 95.8419 34.0069L94.2575 30.333C95.4745 28.8404 96.4159 27.1412 97.0589 25.2813L101.008 24.6613C101.996 24.6613 102.799 23.8576 102.799 22.8703V16.992C102.799 16.0046 101.973 15.2009 100.985 15.2009L97.0359 14.6039C96.393 12.744 95.4286 11.0448 94.2116 9.55225L95.7959 5.87831C96.3241 5.02871 96.0715 3.92653 95.2219 3.3984L90.2391 0.298512C89.3895 -0.229617 88.2873 0.0229663 87.7592 0.872565L85.1415 3.92652C83.9475 3.65098 82.7075 3.51321 81.4217 3.51321C80.1817 3.51321 78.9647 3.65098 77.8166 3.92652L75.153 0.849601C74.8086 0.29851 74.2345 0 73.6375 0C73.0405 0 72.9716 0.0918513 72.6961 0.275548" fill="white"/>
</mask>
<g mask="url(#mask1_3617_28452)">
<path d="M102.685 -0.0917969H59.9297V40.4364H102.685V-0.0917969Z" fill="url(#paint1_linear_3617_28452)"/>
</g>
<path fill-rule="evenodd" clip-rule="evenodd" d="M5.18944 20.8261L3.85763 16.9685L2.45695 20.8261H5.18944ZM3.26062 15.6826H4.59243L7.7612 24.3853H6.47532L5.60276 21.7676H2.15844L1.21699 24.3853H0L3.28358 15.6826H3.26062Z" fill="#347744"/>
<path fill-rule="evenodd" clip-rule="evenodd" d="M13.5012 19.678C14.0523 19.678 14.4886 19.5632 14.8101 19.3566C15.1315 19.1269 15.2923 18.7366 15.2923 18.1625C15.2923 17.5885 15.0626 17.1292 14.6264 16.8996C14.3738 16.7848 14.0523 16.7159 13.662 16.7159H10.7687V19.701H13.5012V19.678ZM9.59766 15.6826H13.639C14.3049 15.6826 14.856 15.7745 15.2923 15.9811C16.1189 16.3485 16.5322 17.0374 16.5322 18.0477C16.5322 19.058 16.4174 18.9892 16.2107 19.3336C16.0041 19.6551 15.7056 19.9306 15.3152 20.1373C15.6597 20.275 15.9122 20.4587 16.073 20.6884C16.2567 20.918 16.3485 21.2854 16.3715 21.7905L16.4174 22.9616C16.4174 23.2831 16.4633 23.5357 16.5093 23.6964C16.5781 23.9719 16.7159 24.1556 16.8767 24.2245V24.4312H15.43C15.3841 24.3623 15.3611 24.2704 15.3382 24.1327C15.3382 24.0179 15.2923 23.7882 15.2693 23.4438L15.2004 21.9972C15.1775 21.4231 14.9708 21.0558 14.5575 20.8491C14.3279 20.7343 13.9834 20.6884 13.5012 20.6884H10.8146V24.4312H9.64358V15.7285L9.59766 15.6826Z" fill="#347744"/>
<path fill-rule="evenodd" clip-rule="evenodd" d="M23.3066 20.8261L21.9748 16.9685L20.5741 20.8261H23.3066ZM21.3778 15.6826H22.7096L25.8784 24.3853H24.5925L23.7199 21.7676H20.2756L19.3342 24.3853H18.1172L21.4008 15.6826H21.3778Z" fill="#347744"/>
<path fill-rule="evenodd" clip-rule="evenodd" d="M28.3339 21.584C28.3568 22.0662 28.4717 22.4795 28.6783 22.778C29.0687 23.3521 29.7575 23.6506 30.7449 23.6506C31.7323 23.6506 31.5945 23.5817 31.9619 23.4669C32.6737 23.2143 33.0182 22.778 33.0182 22.1581C33.0182 21.5381 32.8804 21.3544 32.5819 21.1477C32.2834 20.9411 31.8012 20.7803 31.1812 20.6196L30.0101 20.3441C29.2294 20.1604 28.7013 19.9767 28.3798 19.77C27.8287 19.4026 27.5532 18.8745 27.5532 18.1397C27.5532 17.4049 27.8287 16.716 28.3568 16.2109C28.9079 15.7057 29.6657 15.4531 30.6531 15.4531C31.6404 15.4531 32.3523 15.6827 32.9722 16.119C33.6152 16.5553 33.9366 17.2671 33.9366 18.2315H32.8345C32.7656 17.7723 32.6508 17.4049 32.4441 17.1523C32.0767 16.6931 31.4797 16.4635 30.6071 16.4635C29.7346 16.4635 29.4131 16.6012 29.1146 16.8997C28.8161 17.1982 28.6553 17.5427 28.6553 17.9101C28.6553 18.2775 28.839 18.6449 29.1835 18.8515C29.4131 18.9663 29.9412 19.1271 30.7679 19.3337L31.9849 19.6093C32.5819 19.747 33.0181 19.9307 33.3396 20.1604C33.8907 20.5737 34.1663 21.1477 34.1663 21.9284C34.1663 22.7092 33.8218 23.5817 33.11 23.995C32.4211 24.4084 31.5945 24.615 30.676 24.615C29.7575 24.615 28.7472 24.3395 28.1272 23.7884C27.5072 23.2373 27.2087 22.5025 27.2317 21.561H28.3339V21.584Z" fill="#347744"/>
<path fill-rule="evenodd" clip-rule="evenodd" d="M42.5272 16.3262C43.1471 16.9002 43.4686 17.5661 43.5375 18.3009H42.3894C42.2516 17.7498 41.999 17.2906 41.6087 16.9691C41.2183 16.6476 40.6672 16.4869 39.9784 16.4869C39.2895 16.4869 38.4169 16.7854 37.8888 17.4054C37.3607 18.0024 37.1081 18.9209 37.1081 20.1838C37.1081 21.4467 37.3377 22.0208 37.8199 22.6637C38.3021 23.3067 39.014 23.6052 39.9554 23.6052C40.8968 23.6052 41.4939 23.2607 41.9301 22.5948C42.1827 22.2504 42.3435 21.7911 42.4812 21.2171H43.6293C43.5375 22.1356 43.1931 22.8933 42.619 23.5133C41.9301 24.2711 40.9887 24.6385 39.8176 24.6385C38.6466 24.6385 37.9577 24.3399 37.2688 23.72C36.3733 22.9163 35.9141 21.6534 35.9141 19.9771C35.9141 18.3009 36.2585 17.635 36.9244 16.8084C37.6592 15.9128 38.6695 15.4766 39.9784 15.4766C41.2872 15.4766 41.9301 15.7751 42.5501 16.3491" fill="#3A8249"/>
<path fill-rule="evenodd" clip-rule="evenodd" d="M52.8573 16.9457C53.4314 17.7264 53.7299 18.7137 53.7299 19.9078C53.7299 21.1018 53.4084 22.2958 52.7425 23.1454C51.9618 24.1558 50.8596 24.6609 49.413 24.6609C47.9664 24.6609 47.0249 24.2247 46.2442 23.3291C45.5554 22.4795 45.2109 21.4003 45.2109 20.0915C45.2109 18.7826 45.5094 17.9101 46.0835 17.0605C46.8412 15.9813 47.9434 15.4531 49.413 15.4531C50.8826 15.4531 52.0996 15.9583 52.8344 16.9457M51.824 22.4795C52.2833 21.7218 52.5359 20.8722 52.5359 19.9078C52.5359 18.9434 52.2603 18.0708 51.7322 17.4279C51.2041 16.8079 50.4693 16.4864 49.5508 16.4864C48.6323 16.4864 47.9205 16.8079 47.3464 17.4279C46.7724 18.0478 46.4968 18.9663 46.4968 20.1604C46.4968 21.3544 46.7494 21.9284 47.2316 22.5943C47.7138 23.2602 48.5175 23.5817 49.6197 23.5817C50.7219 23.5817 51.4107 23.2143 51.87 22.4566" fill="#347744"/>
<path d="M162.594 11.3662H161.309V24.4317H162.594V11.3662Z" fill="#347744"/>
<path d="M154.903 11.3662H153.617V24.4317H154.903V11.3662Z" fill="#347744"/>
<path d="M150.404 23.123H109.141V24.4778H150.404V23.123Z" fill="#347744"/>
<path d="M151.298 18.8057H150.012V24.4544H151.298V18.8057Z" fill="#347744"/>
<path d="M148.196 19.7705H146.91V24.4777H148.196V19.7705Z" fill="#347744"/>
<path d="M145.051 20.7119H143.766V24.4547H145.051V20.7119Z" fill="#347744"/>
<path fill-rule="evenodd" clip-rule="evenodd" d="M129.828 19.7705L131.114 20.1609V24.4548H129.828V19.7705Z" fill="#347744"/>
<path fill-rule="evenodd" clip-rule="evenodd" d="M130.883 20.8729H117.129L117.221 20.0233L127.347 15.0176L127.531 15.6835L121.951 19.2885L121.308 19.5641H130.148C130.148 19.5641 130.722 19.4722 131.021 19.8396C131.297 20.207 130.906 20.8729 130.906 20.8729" fill="#347744"/>
<path fill-rule="evenodd" clip-rule="evenodd" d="M109.114 24.4089C109.114 24.4089 108.563 21.4009 110.928 19.6328C113.293 17.8647 114.487 18.0484 114.487 18.0484V26.5444C114.487 26.5444 114.441 28.3125 112.03 28.3125C109.619 28.3125 109.298 27.394 109.298 27.394L109.803 27.0725C109.803 27.0725 110.813 27.2103 111.939 27.2103C113.064 27.2103 112.811 26.154 112.811 26.154V20.1609C112.811 20.1609 111.985 20.3446 111.227 21.6075C110.354 23.0541 110.63 23.3297 110.63 23.3297L109.137 24.3859L109.114 24.4089Z" fill="#347744"/>
<path d="M158.989 19.9082H157.703V28.3123H158.989V19.9082Z" fill="#347744"/>
<path d="M158.551 27.0957H156.508V28.3127H158.551V27.0957Z" fill="#347744"/>
<path d="M159.586 9.62071V8.81704H160.642C160.436 8.63334 160.367 8.3578 160.367 8.05929C160.367 7.76078 160.527 7.3245 160.872 7.09488C161.147 6.91118 161.492 6.81934 161.928 6.81934C162.364 6.81934 162.732 7.1408 163.007 7.8067L162.181 7.85263C162.181 7.80671 162.112 7.73782 162.066 7.64597C162.02 7.64597 161.951 7.60005 161.928 7.60005C161.423 7.60005 161.147 7.76078 161.147 8.05929C161.147 8.3578 161.216 8.28891 161.331 8.44965C161.469 8.65631 161.561 8.79407 161.584 8.81704H162.87V9.62071H159.609H159.586Z" fill="#347744"/>
<defs>
<linearGradient id="paint0_linear_3617_28452" x1="85.597" y1="71.3612" x2="110.286" y2="71.3612" gradientUnits="userSpaceOnUse">
<stop stop-color="#67B366"/>
<stop offset="0.4" stop-color="#4E9356"/>
<stop offset="0.8" stop-color="#377549"/>
<stop offset="1" stop-color="#2F6B44"/>
</linearGradient>
<linearGradient id="paint1_linear_3617_28452" x1="126.851" y1="23.6694" x2="126.851" y2="-16.3031" gradientUnits="userSpaceOnUse">
<stop stop-color="#3C79B8"/>
<stop offset="0.2" stop-color="#306398"/>
<stop offset="0.6" stop-color="#254C77"/>
<stop offset="0.8" stop-color="#1D3E62"/>
<stop offset="1" stop-color="#1B395B"/>
</linearGradient>
</defs>
</svg>
