<svg width="124" height="40" viewBox="0 0 124 40" fill="none" xmlns="http://www.w3.org/2000/svg">
<path d="M112.138 17.4956C113.417 14.4744 113.171 13.2875 112.924 13.0871C112.677 12.8713 111.49 12.8405 108.793 14.5515C109.995 15.4147 111.105 16.4012 112.138 17.4956Z" fill="#0033A1"/>
<path d="M112.511 21.2559C112.156 21.5025 111.771 21.7645 111.37 22.0574C107.871 24.6624 103.801 28.6239 99.9017 33.2327C98.9922 34.3117 98.1136 35.3907 97.2812 36.4697H116.241C116.827 32.0458 116.025 27.4832 113.836 23.4139C113.451 22.6586 112.988 21.9341 112.511 21.2559Z" fill="#0033A1"/>
<path d="M117.302 19.3449C117.086 19.1599 116.192 19.1136 114.266 20.1618C114.759 20.8863 115.237 21.6416 115.668 22.4277C115.946 22.9364 116.192 23.445 116.424 23.9691C117.795 20.8092 117.564 19.5761 117.302 19.3449Z" fill="#0033A1"/>
<path d="M110.134 20.3933C110.519 20.1158 110.874 19.8538 111.228 19.6071C109.964 18.1274 108.531 16.8634 106.959 15.7998C103.46 18.4048 99.3903 22.3663 95.5059 26.9597C92.8084 30.1505 90.3884 33.4491 88.5078 36.4549H94.6735C95.8142 34.9289 97.0165 33.4029 98.2959 31.8769C102.319 27.1755 106.512 23.0753 110.134 20.3933Z" fill="#0033A1"/>
<path d="M87 0V11.3449C90.6686 10.0501 94.5222 9.71098 98.2216 10.2505C98.684 9.88054 99.131 9.52601 99.578 9.20231C103.678 6.15029 106.545 5.27167 108.087 6.58189C109.274 7.58381 109.32 9.55684 108.241 12.4701C111.031 10.8208 113.05 10.4971 114.268 11.5145C115.516 12.5626 115.501 14.7052 114.237 17.8805C116.21 16.9865 117.69 16.9557 118.661 17.7726C120.218 19.0829 119.802 22.0732 117.474 26.6667C118.476 29.8574 118.753 33.2023 118.368 36.4855H123.501V0H87Z" fill="#0033A1"/>
<path d="M96.0482 12.1153C93.027 11.9457 89.9441 12.4236 87 13.5642V21.6259C87.2466 21.3176 87.5087 21.0093 87.7707 20.701C90.5145 17.4486 93.3507 14.5199 96.0482 12.1153Z" fill="#0033A1"/>
<path d="M106.744 8.15369C106.451 7.90706 104.818 7.90706 100.902 10.7895C102.629 11.252 104.309 11.8994 105.897 12.7317C107.253 9.58721 107.006 8.36948 106.744 8.15369Z" fill="#0033A1"/>
<path d="M105.065 14.6593C103.108 13.6112 100.996 12.8713 98.8071 12.4551C95.8013 14.9676 92.5181 18.2817 89.3428 22.0427C88.5258 22.9984 87.7397 23.9695 86.9844 24.9406V34.9907C88.8803 31.9849 91.285 28.7479 93.9208 25.6189C97.6819 21.195 101.613 17.3414 105.065 14.6593Z" fill="#0033A1"/>
<path d="M3.87024 25.0176L0.09375 36.4241H1.97429L2.88373 33.4954H6.56774L7.44635 36.4241H9.61976L5.85868 25.0176H3.87024ZM3.22284 32.2623L4.45599 28.2546C4.59471 27.8384 4.6872 27.376 4.76427 26.8827H4.7951C4.87217 27.376 4.96466 27.8384 5.08797 28.2546L6.25945 32.2623H3.22284Z" fill="#0033A1"/>
<path d="M13.0115 25.0176H10.9922V36.4241H13.0115V25.0176Z" fill="#0033A1"/>
<path d="M37.9512 35.7299C37.9512 36.1924 37.9203 36.5931 37.8433 36.9322C37.7662 37.2714 37.6737 37.5488 37.535 37.7646C37.3962 37.9958 37.2421 38.1808 37.0417 38.3195C36.8413 38.4583 36.6255 38.5816 36.3789 38.6586V39.9997C36.8722 39.9688 37.3346 39.8455 37.7662 39.6297C38.1978 39.4139 38.5831 39.1211 38.9068 38.7357C39.2305 38.3658 39.4926 37.9033 39.6776 37.3638C39.8625 36.8243 39.955 36.2078 39.955 35.5295V27.1904H37.9357V35.7299H37.9512Z" fill="#0033A1"/>
<path d="M46.9516 27.4218C46.5816 27.3139 46.1346 27.2523 45.6105 27.2523C45.0402 27.2523 44.5007 27.3602 44.0229 27.5606C43.545 27.7764 43.1288 28.0847 42.7743 28.4854C42.4198 28.8862 42.1577 29.3795 41.9728 29.9498C41.7878 30.5201 41.6953 31.1829 41.6953 31.9074C41.6953 33.3409 42.0498 34.4507 42.7743 35.2369C43.4988 36.0384 44.5315 36.4238 45.8572 36.4238C46.5508 36.4238 47.152 36.3621 47.676 36.2542C48.1847 36.1309 48.6317 35.9768 48.9708 35.7764V24.8477H46.9516V27.4218ZM46.9516 34.9594C46.7358 35.0981 46.3967 35.1598 45.9034 35.1598C45.518 35.1598 45.1789 35.0827 44.9015 34.9132C44.624 34.759 44.3928 34.5278 44.2078 34.2349C44.0383 33.9421 43.8995 33.5875 43.8225 33.1868C43.7454 32.7706 43.6992 32.3236 43.6992 31.8149C43.6992 31.3371 43.7454 30.89 43.8225 30.4739C43.8995 30.0577 44.0383 29.7031 44.2233 29.3949C44.4082 29.0866 44.6394 28.8554 44.9477 28.6704C45.2406 28.5008 45.6105 28.4084 46.0575 28.4084C46.3967 28.4084 46.6895 28.4546 46.9516 28.5317V34.9594Z" fill="#0033A1"/>
<path d="M57.1099 28.5014C56.8016 28.0852 56.4162 27.7615 55.9538 27.5303C55.4914 27.2991 54.9365 27.1758 54.3045 27.1758C53.6725 27.1758 53.133 27.2991 52.6551 27.5303C52.1927 27.7615 51.8074 28.0852 51.4991 28.5014C51.1908 28.9176 50.9596 29.4108 50.8054 29.9812C50.6513 30.5515 50.5742 31.1681 50.5742 31.8309C50.5742 32.4937 50.6513 33.1103 50.8054 33.6652C50.9596 34.2355 51.1908 34.7134 51.4991 35.1295C51.8074 35.5457 52.1927 35.8694 52.6551 36.1006C53.1176 36.3318 53.6725 36.4552 54.3045 36.4552C54.9365 36.4552 55.476 36.3318 55.9538 36.1006C56.4162 35.8694 56.8016 35.5457 57.1099 35.1295C57.4182 34.7134 57.6494 34.2201 57.8035 33.6652C57.9577 33.0949 58.0347 32.4937 58.0347 31.8309C58.0347 31.1681 57.9577 30.5515 57.8035 29.9812C57.6494 29.3954 57.4182 28.9022 57.1099 28.5014ZM55.9384 33.0332C55.8921 33.434 55.8151 33.7731 55.6918 34.0814C55.5684 34.3897 55.3989 34.6363 55.1831 34.8058C54.9673 34.9908 54.6744 35.0833 54.3045 35.0833C53.9654 35.0833 53.6725 34.9908 53.4567 34.8058C53.2255 34.6209 53.0559 34.3742 52.9326 34.0814C52.8093 33.7731 52.7322 33.434 52.6706 33.0332C52.6243 32.6324 52.5935 32.2317 52.5935 31.8155C52.5935 31.3839 52.6089 30.9677 52.6551 30.5669C52.7014 30.1661 52.7785 29.8116 52.9172 29.4879C53.0405 29.1796 53.2255 28.9176 53.4413 28.7326C53.6571 28.5476 53.9499 28.4552 54.3045 28.4552C54.6744 28.4552 54.9673 28.5476 55.1831 28.7326C55.3989 28.9176 55.5684 29.1796 55.6918 29.4879C55.8151 29.8116 55.8921 30.1661 55.9384 30.5669C55.9846 30.9677 56 31.3839 56 31.8155C56.0155 32.2317 55.9846 32.6478 55.9384 33.0332Z" fill="#0033A1"/>
<path d="M64.5074 34.7744C64.1683 34.9748 63.7213 35.0673 63.1664 35.0673C62.6423 35.0673 62.2569 34.9285 62.0103 34.6203C61.7791 34.3274 61.6558 33.9729 61.6558 33.5567V27.3447H59.6211V33.4488C59.6211 34.4507 59.8985 35.1906 60.4535 35.6993C61.0084 36.2079 61.887 36.47 63.0893 36.47C63.8754 36.47 64.5537 36.4083 65.1086 36.2696C65.6789 36.1309 66.1413 35.9613 66.5113 35.7609V27.3447H64.492V34.7744H64.5074Z" fill="#0033A1"/>
<path d="M70.7654 27.1904H68.7461V36.4236H70.7654V27.1904Z" fill="#0033A1"/>
<path d="M76.4868 27.1758C75.9011 27.1758 75.377 27.2837 74.8991 27.4841C74.4213 27.6845 74.0205 27.9927 73.6968 28.3935C73.3577 28.7943 73.1111 29.2721 72.9261 29.8424C72.7565 30.4128 72.6641 31.0602 72.6641 31.7846C72.6641 33.2952 73.034 34.4513 73.7893 35.2528C74.5292 36.0544 75.5465 36.4397 76.8105 36.4397C77.4887 36.4397 78.0745 36.3781 78.5677 36.2548C79.0456 36.1315 79.4463 35.9773 79.77 35.8078L79.2922 34.5284C79.0456 34.6517 78.7373 34.7596 78.3673 34.8675C77.9974 34.9754 77.5504 35.0216 77.0263 35.0216C75.562 35.0216 74.7604 34.1893 74.5908 32.5399H80.0629V31.7538C80.1092 30.2432 79.8163 29.1026 79.1997 28.3319C78.5831 27.5611 77.6737 27.1758 76.4868 27.1758ZM78.167 31.2451H74.4675C74.4829 30.3049 74.6371 29.6112 74.9762 29.1642C75.3307 28.671 75.8086 28.4243 76.4097 28.4243C76.9801 28.4243 77.4117 28.6247 77.7045 29.0101C78.0128 29.4108 78.167 30.0582 78.167 30.9523V31.2451Z" fill="#0033A1"/>
<path d="M80.0622 7.9541H78.043V19.3607H80.0622V7.9541Z" fill="#0033A1"/>
<path d="M74.5882 19.1443C75.0352 18.9902 75.4052 18.7898 75.6827 18.5431C75.9601 18.2965 76.1605 18.0036 76.2838 17.6799C76.4071 17.3562 76.4688 17.0017 76.4688 16.6472V7.98438H74.4495V16.6318C74.4495 16.8167 74.4187 17.0017 74.3724 17.1713C74.3262 17.3408 74.2337 17.5104 74.1104 17.6491C73.9871 17.7878 73.8329 17.8957 73.6171 17.9882C73.4168 18.0807 73.1547 18.127 72.831 18.127H70.5805V14.7666C70.5805 14.1038 70.5035 13.4873 70.3493 12.9169C70.1952 12.3466 69.964 11.8534 69.6557 11.4372C69.3474 11.021 68.962 10.6973 68.4996 10.4661C68.0372 10.2349 67.4823 10.1115 66.8503 10.1115C66.2183 10.1115 65.6788 10.2349 65.201 10.4661C64.7385 10.6973 64.3532 11.021 64.0449 11.4372C63.7366 11.8534 63.5054 12.3466 63.3512 12.9169C63.1971 13.4873 63.12 14.1038 63.12 14.7666C63.12 14.8591 63.12 14.9362 63.12 15.0133V16.6164C63.12 16.8013 63.0892 16.9863 63.043 17.1559C62.9967 17.3254 62.9042 17.495 62.7809 17.6337C62.6576 17.7724 62.5035 17.8803 62.2877 17.9728C62.0873 18.0653 61.8252 18.1115 61.5015 18.1115H59.5439L57.0622 12.362C56.5844 11.2676 55.9216 10.574 55.0738 10.2811C54.226 9.98823 53.2857 10.0653 52.2684 10.4969C51.6826 10.7435 51.1586 11.0364 50.7115 11.3601C50.2645 11.6838 49.9254 11.9921 49.7096 12.285L50.7578 13.2869C50.9273 13.0557 51.174 12.809 51.4823 12.5624C51.7905 12.3158 52.1297 12.1154 52.515 11.9458C53.2087 11.653 53.7636 11.6067 54.1952 11.8225C54.6268 12.0383 54.9659 12.4237 55.1971 12.9786L55.4283 13.5027L57.4168 18.127H46.3493V13.9189C46.3493 12.732 46.0102 11.8225 45.3474 11.2214C44.6846 10.6202 43.7905 10.3119 42.6807 10.3119C42.0333 10.3119 41.4476 10.3736 40.9081 10.4815C40.3686 10.6048 39.937 10.7435 39.6287 10.9439L40.199 12.2695C40.4611 12.1308 40.7693 12.0075 41.1393 11.8996C41.5092 11.7917 41.91 11.7455 42.3262 11.7455C43.0815 11.7455 43.6056 11.9304 43.9139 12.3004C44.2221 12.6703 44.3763 13.1636 44.3763 13.7493V14.3196V18.0961H39.7674C39.7058 18.0961 39.6749 18.0961 39.6133 18.0961V19.3755C39.6904 19.3755 39.752 19.3909 39.8137 19.3909H44.3609H46.3185H61.5324C62.1952 19.3909 62.7501 19.3139 63.2125 19.1597C63.6595 19.0056 64.0295 18.8052 64.3069 18.5586C64.3378 18.5431 64.3532 18.5123 64.3686 18.4815C64.5998 18.6973 64.8618 18.8823 65.1547 19.0364C65.6171 19.2676 66.172 19.3909 66.804 19.3909L72.8618 19.3755C73.5709 19.3601 74.1258 19.283 74.5882 19.1443ZM66.0025 17.8341C65.7713 17.6491 65.6017 17.4025 65.4784 17.1096C65.3551 16.8013 65.278 16.4622 65.2164 16.0614C65.1701 15.6607 65.1393 15.2599 65.1393 14.8437V14.7512C65.1393 14.3196 65.1547 13.9035 65.201 13.5027C65.2472 13.1019 65.3243 12.7474 65.463 12.4237C65.5863 12.1154 65.7713 11.8534 65.9871 11.6684C66.2029 11.4834 66.4958 11.3909 66.8503 11.3909C67.2202 11.3909 67.5131 11.4834 67.7289 11.6684C67.9447 11.8534 68.1143 12.1154 68.2376 12.4237C68.3609 12.7474 68.4379 13.1019 68.4842 13.5027C68.5304 13.9035 68.5458 14.3196 68.5458 14.7512V18.0961H66.8349C66.5112 18.0961 66.2337 18.0191 66.0025 17.8341Z" fill="#0033A1"/>
<path d="M37.3043 15.0909V14.7518C37.3043 14.089 37.2272 13.4724 37.073 12.9021C36.9189 12.3317 36.6877 11.8385 36.3794 11.4223C36.0711 11.0061 35.6858 10.6824 35.2233 10.4512C34.7609 10.22 34.206 10.0967 33.574 10.0967C32.942 10.0967 32.4025 10.22 31.9247 10.4512C31.4622 10.6824 31.0769 11.0061 30.7686 11.4223C30.4603 11.8385 30.2291 12.3317 30.075 12.9021C29.9208 13.4724 29.8438 14.089 29.8438 14.7518C29.8438 15.4146 29.9208 16.0312 30.075 16.5861C30.2291 17.1564 30.4603 17.6343 30.7686 18.0504C31.0769 18.4666 31.4622 18.7903 31.9247 19.0215C32.3871 19.2527 32.942 19.3761 33.574 19.3761H35.3312V19.3915C35.3312 19.9926 35.1771 20.4705 34.8688 20.8404C34.5605 21.2104 34.021 21.3953 33.2657 21.3953C32.8495 21.3953 32.4488 21.3491 32.0788 21.2412L31.8476 22.6439C32.3871 22.7672 32.9728 22.8134 33.6202 22.8134C34.7301 22.8134 35.6241 22.5052 36.2869 21.904C36.9497 21.3028 37.2888 20.3934 37.2888 19.2065V15.0909H37.3043ZM32.7416 17.8346C32.5104 17.6497 32.3409 17.403 32.2175 17.1102C32.0942 16.8019 32.0172 16.4628 31.9555 16.062C31.9093 15.6612 31.8784 15.2605 31.8784 14.8443V14.7518C31.8784 14.3202 31.8938 13.904 31.9401 13.5032C31.9863 13.1025 32.0634 12.7479 32.2021 12.4242C32.3254 12.1159 32.5104 11.8539 32.7262 11.6689C32.942 11.484 33.2349 11.3915 33.5894 11.3915C33.9594 11.3915 34.2985 11.484 34.5297 11.6689C34.7455 11.8539 34.915 12.1159 35.0384 12.4242C35.1617 12.7325 35.2387 13.1025 35.285 13.5032C35.3312 13.904 35.3466 14.3202 35.3466 14.7518V15.3684V17.6805V18.0967H33.5894C33.2503 18.0967 32.9728 18.0196 32.7416 17.8346Z" fill="#0033A1"/>
<path d="M26.605 18.0965H24.894C24.5549 18.0965 24.262 18.004 24.0462 17.819C23.815 17.634 23.6455 17.3874 23.5222 17.0945C23.3988 16.7863 23.3218 16.4471 23.2601 16.0464C23.2139 15.6456 23.183 15.2448 23.183 14.8286V14.7362C23.183 14.3046 23.1985 13.8884 23.2447 13.4876C23.2909 13.0868 23.368 12.7323 23.5067 12.4086C23.6301 12.1003 23.815 11.8383 24.0308 11.6533C24.2466 11.4683 24.5395 11.3759 24.894 11.3759C25.264 11.3759 25.5568 11.4683 25.7726 11.6533C25.9884 11.8383 26.158 12.1003 26.2813 12.4086C26.4046 12.7323 26.4817 13.0868 26.5279 13.4876L28.3777 12.8865C28.2235 12.3161 27.9923 11.8229 27.684 11.4067C27.3757 10.9905 26.9904 10.6668 26.5279 10.4356C26.0655 10.2044 25.5106 10.0811 24.8786 10.0811C24.2466 10.0811 23.7071 10.2044 23.2293 10.4356C22.7669 10.6668 22.3815 10.9905 22.0732 11.4067C21.7649 11.8229 21.5337 12.3161 21.3796 12.8865C21.2254 13.4568 21.1484 14.0733 21.1484 14.7362C21.1484 15.399 21.2254 16.0155 21.3796 16.5705C21.5337 17.1408 21.7649 17.6186 22.0732 18.0348C22.0886 18.0502 22.104 18.0656 22.1195 18.0811H18.7746C18.4355 18.0811 18.1426 17.9886 17.9268 17.8036C17.6956 17.6186 17.526 17.372 17.4027 17.0791C17.2794 16.7708 17.2023 16.4317 17.1407 16.031C17.0944 15.6302 17.0636 15.2294 17.0636 14.8132V14.7207V11.5454L17.0328 10.0811H14.3198C13.6879 10.0811 13.1484 10.2044 12.6705 10.4356C12.2081 10.6668 11.8227 10.9905 11.5145 11.4067C11.2062 11.8229 10.975 12.3161 10.8208 12.8865C10.6667 13.4568 10.5896 14.0733 10.5896 14.7362V16.6013C10.5896 16.7863 10.5588 16.9712 10.5125 17.1408C10.4663 17.3103 10.3738 17.4799 10.2505 17.6186C10.1272 17.7574 9.97303 17.8653 9.75723 17.9577C9.55684 18.0502 9.2948 18.0965 8.9711 18.0965L3.74567 18.1119C3.40655 18.1119 3.11368 18.0194 2.89788 17.8344C2.66667 17.6495 2.49711 17.4028 2.3738 17.11C2.25048 16.8017 2.17341 16.4626 2.11175 16.0618C2.06551 15.661 2.03468 15.2602 2.03468 14.8441V14.7516C2.03468 14.32 2.0501 13.9038 2.09634 13.503C2.14258 13.1023 2.21965 12.7477 2.35838 12.424C2.4817 12.1157 2.66667 11.8537 2.88247 11.6687C3.09827 11.4838 3.39114 11.3913 3.74567 11.3913C4.11561 11.3913 4.40848 11.4838 4.62428 11.6687L5.37958 10.451C4.91715 10.2198 4.36224 10.0965 3.73025 10.0965C3.09827 10.0965 2.55877 10.2198 2.08093 10.451C1.6185 10.6822 1.23314 11.0059 0.924856 11.4221C0.61657 11.8383 0.385357 12.3315 0.231214 12.9019C0.0770713 13.4722 0 14.0888 0 14.7516C0 15.4144 0.0770713 16.031 0.231214 16.5859C0.385357 17.1562 0.61657 17.634 0.924856 18.0502C1.23314 18.4664 1.6185 18.7901 2.08093 19.0213C2.54335 19.2525 3.09827 19.3759 3.73025 19.3759L9.01734 19.3604C9.68016 19.3604 10.2351 19.2834 10.6975 19.1292C11.1445 18.9751 11.5145 18.7747 11.7919 18.5281C12.0694 18.2814 12.2698 17.9886 12.3931 17.6649C12.5164 17.3412 12.578 16.9866 12.578 16.6321V14.7362C12.578 14.3046 12.5935 13.8884 12.6397 13.4876C12.6859 13.0868 12.763 12.7323 12.8863 12.4086C13.0096 12.1003 13.1792 11.8383 13.395 11.6533C13.6108 11.4683 13.9037 11.3759 14.2736 11.3759H14.9981V14.7362C14.9981 15.399 15.0906 16.0155 15.2447 16.5705C15.3988 17.1408 15.6301 17.6186 15.9383 18.0348C16.2466 18.451 16.632 18.7747 17.0944 19.0059C17.5568 19.2371 18.1118 19.3604 18.7437 19.3604L24.4778 19.345V19.3296C24.6012 19.345 24.7091 19.345 24.8324 19.345L28.5472 19.3296V18.0965H26.605Z" fill="#0033A1"/>
<path d="M69.7667 24.0312C69.181 24.0312 68.7031 24.5091 68.7031 25.0948C68.7031 25.6806 69.181 26.1584 69.7667 26.1584C70.3524 26.1584 70.8303 25.6806 70.8303 25.0948C70.8303 24.5091 70.3524 24.0312 69.7667 24.0312Z" fill="#0033A1"/>
<path d="M38.9073 26.1584C39.4931 26.1584 39.9709 25.6806 39.9709 25.0948C39.9709 24.5091 39.4931 24.0312 38.9073 24.0312C38.3216 24.0312 37.8438 24.5091 37.8438 25.0948C37.8437 25.6806 38.3216 26.1584 38.9073 26.1584Z" fill="#0033A1"/>
<path d="M55.6154 21.3946C55.6154 20.8089 55.1376 20.3311 54.5519 20.3311C53.9661 20.3311 53.4883 20.8089 53.4883 21.3946C53.4883 21.9804 53.9661 22.4582 54.5519 22.4582C55.1376 22.4582 55.6154 21.9804 55.6154 21.3946Z" fill="#0033A1"/>
<path d="M6.3967 21.3946C6.3967 20.8089 5.91886 20.3311 5.33312 20.3311C4.74737 20.3311 4.26953 20.8089 4.26953 21.3946C4.26953 21.9804 4.74737 22.4582 5.33312 22.4582C5.91886 22.4582 6.3967 21.9804 6.3967 21.3946Z" fill="#0033A1"/>
<path d="M9.11154 21.3946C9.11154 20.8089 8.6337 20.3311 8.04796 20.3311C7.46222 20.3311 6.98438 20.8089 6.98438 21.3946C6.98438 21.9804 7.46222 22.4582 8.04796 22.4582C8.64911 22.4582 9.11154 21.9804 9.11154 21.3946Z" fill="#0033A1"/>
<path d="M26.5756 28.1777C26.3289 27.9156 26.0052 27.7152 25.6199 27.5611C25.2345 27.4069 24.7721 27.3299 24.248 27.3299C23.5544 27.3299 22.9841 27.4224 22.5216 27.6073C22.0592 27.7923 21.6738 28.0235 21.381 28.301C21.1189 28.0081 20.7798 27.7769 20.3482 27.5919C19.9166 27.4069 19.3309 27.3145 18.591 27.3145C17.8357 27.3145 17.2037 27.3607 16.695 27.4686C16.1864 27.5765 15.6931 27.7306 15.2461 27.9619V36.4397H17.2654V28.8559C17.4657 28.7634 17.6661 28.7017 17.8511 28.6709C18.0515 28.6247 18.2981 28.6093 18.591 28.6093C19.1459 28.6093 19.5621 28.7326 19.8395 28.9946C20.117 29.2567 20.2711 29.5958 20.2711 30.0274V36.4397H22.2904V29.2258C22.7066 28.8096 23.1999 28.6093 23.7856 28.6093C24.3251 28.6093 24.7104 28.7634 24.9417 29.0563C25.1729 29.3491 25.2962 29.6883 25.2962 30.0736V36.4397H27.3155V30.0582C27.3155 29.7037 27.2538 29.3646 27.1305 29.0409C27.0072 28.7172 26.8222 28.4243 26.5756 28.1777Z" fill="#0033A1"/>
<path d="M35.855 30.674C35.855 29.518 35.5313 28.6548 34.8993 28.069C34.2519 27.4833 33.4041 27.1904 32.3252 27.1904C31.7086 27.1904 31.1383 27.2521 30.6142 27.36C30.0901 27.4679 29.6739 27.622 29.3656 27.807L29.9051 29.0864C30.1517 28.9477 30.46 28.8243 30.8146 28.7319C31.1845 28.624 31.5699 28.5777 31.9706 28.5777C32.6951 28.5777 33.2038 28.7627 33.5121 29.1172C33.7895 29.4563 33.9436 29.9033 33.9591 30.4428C33.2808 30.5045 32.6489 30.6124 32.0323 30.7357C31.4311 30.8744 30.8916 31.0594 30.4446 31.306C29.9976 31.5527 29.6277 31.8764 29.3656 32.2617C29.1036 32.6625 28.9648 33.1403 28.9648 33.7261C28.9648 34.5893 29.2731 35.2521 29.8743 35.7299C30.4754 36.2078 31.3849 36.439 32.618 36.439C33.3117 36.439 33.9436 36.3773 34.4986 36.254C35.0535 36.1307 35.5005 35.9766 35.855 35.7916V31.2598V30.674ZM32.7413 35.3137C32.1402 35.3137 31.6778 35.1904 31.3541 34.9284C31.0304 34.6663 30.8608 34.2502 30.8608 33.6644C30.8608 33.2482 30.9379 32.9245 31.0766 32.6471C31.2153 32.385 31.4311 32.1692 31.6932 31.9997C31.9552 31.8301 32.2789 31.7068 32.6643 31.6143C33.0496 31.5218 33.4812 31.4448 33.9591 31.3831V35.0517C33.8049 35.1288 33.6199 35.1904 33.4041 35.2367C33.2038 35.2829 32.988 35.3137 32.7413 35.3137Z" fill="#0033A1"/>
</svg>
