<svg width="56" height="40" viewBox="0 0 56 40" fill="none" xmlns="http://www.w3.org/2000/svg">
<g clip-path="url(#clip0_3617_28440)">
<path d="M25.9829 12.6917C26.7808 12.6403 27.5776 12.6835 28.3745 12.6742C27.5941 13.6693 26.7715 14.6376 25.9737 15.6244C25.7508 15.8986 25.5106 16.1645 25.3134 16.4644C26.214 16.49 27.1053 16.4644 28.0048 16.4726C28.5624 16.4808 29.1189 16.4295 29.6683 16.5496C30.7054 16.755 31.6656 17.4152 32.1718 18.3589C32.5487 19.0449 32.6606 19.8602 32.5322 20.6314C32.4809 20.9312 32.369 21.2146 32.2919 21.5062H34.092C34.512 21.5062 34.9669 21.4457 35.3099 21.1633C35.7124 20.846 35.8582 20.3058 35.8757 19.8088C35.9013 18.6937 35.8675 17.5795 35.8931 16.4644H38.1481V19.9454C38.1563 20.4681 38.1142 20.9918 37.9253 21.4806C37.6675 22.1408 37.1623 22.6984 36.5359 23.0322C35.7904 23.4347 34.933 23.5641 34.1013 23.5548H18.2322C17.4179 24.5067 16.6457 25.4925 15.8406 26.4537C15.7544 26.5656 15.6096 26.5225 15.4894 26.5307H13.2519C14.0323 25.5182 14.8898 24.5673 15.6527 23.5466C14.5981 23.4439 13.5692 23.0147 12.8237 22.2517C12.0515 21.4796 11.6233 20.3911 11.6582 19.3016C11.6582 18.2295 12.1296 17.1667 12.91 16.4284C13.7849 15.5967 15.0109 15.1592 16.2103 15.2106C17.3932 15.2445 18.568 15.7599 19.3658 16.6338C20.1637 17.4912 20.5231 18.6916 20.3865 19.8489C20.3434 20.4322 20.1124 20.9723 19.8546 21.495H28.814C29.1395 21.495 29.465 21.4179 29.7227 21.2115C30.4857 20.6457 30.4775 19.316 29.6889 18.7758C29.4578 18.6043 29.1744 18.5181 28.8828 18.5181H22.5645C22.5645 17.9687 22.5388 17.4204 22.5727 16.872C22.7185 16.6317 22.9157 16.4346 23.0872 16.22C24.0565 15.0453 25.0074 13.8449 25.9942 12.6783L25.986 12.6866L25.9829 12.6917ZM15.5141 17.2797C14.9052 17.4337 14.3743 17.8886 14.1514 18.4801C13.8003 19.3807 13.9882 20.5472 14.786 21.1468C15.5408 21.7465 16.7237 21.6962 17.4179 21.0267C18.378 20.1354 18.301 18.3425 17.2033 17.5795C16.7227 17.2273 16.0891 17.1246 15.5141 17.2797Z" fill="#1D2346"/>
<path d="M50.5986 14.5353C51.1901 14.3638 51.8586 14.7756 51.988 15.3752C52.142 15.9749 51.722 16.6362 51.1131 16.7471C50.5216 16.8837 49.8788 16.4637 49.7669 15.864C49.6385 15.289 50.0246 14.6718 50.5986 14.5435V14.5353Z" fill="#1D2346"/>
<path d="M41.201 16.4478C42.0841 15.5986 43.3358 15.153 44.5619 15.2218C45.7962 15.2649 47.0058 15.8307 47.8026 16.7826C48.9086 18.0693 49.0287 20.0583 48.1631 21.5072H51.7982C52.2099 21.5072 52.6381 21.4558 52.9729 21.2073C53.4103 20.89 53.5726 20.3325 53.59 19.8098C53.6075 18.6946 53.59 17.5887 53.5982 16.4735H55.8532C55.8707 17.5887 55.8532 18.6946 55.8532 19.8098C55.8871 20.6415 55.7587 21.5164 55.2361 22.1849C54.5245 23.145 53.2902 23.5229 52.1411 23.5568C50.2722 23.5743 48.3941 23.5568 46.5252 23.5742C45.7109 24.56 44.9131 25.5468 44.107 26.5326C43.2588 26.5583 42.4003 26.5326 41.5522 26.5326C42.3582 25.5294 43.1808 24.5518 43.9786 23.5486C42.8296 23.4541 41.7072 22.9396 40.9525 22.0565C40.2922 21.3018 39.941 20.3068 39.9749 19.3035C39.9749 18.2315 40.438 17.1851 41.2092 16.4478H41.1999H41.201ZM43.9355 17.2447C43.3266 17.3648 42.7864 17.7766 42.5205 18.3424C42.0923 19.2686 42.2627 20.5378 43.1294 21.155C43.8924 21.7464 45.0753 21.6776 45.753 20.9917C46.6957 20.0829 46.6012 18.2993 45.5045 17.561C45.0589 17.2354 44.4756 17.1328 43.9355 17.2437V17.2447Z" fill="#1D2346"/>
<path d="M32.9114 24.8509C33.5111 24.705 34.1714 25.1343 34.2658 25.7422C34.3942 26.3336 33.966 26.9682 33.3653 27.0709C32.7738 27.1993 32.131 26.7618 32.0365 26.1622C31.9164 25.5789 32.3282 24.9618 32.9114 24.8498V24.8509Z" fill="#1D2346"/>
<path d="M12.5906 29.8339C13.4049 29.0792 14.554 28.9508 15.626 28.9683C16.6467 28.9857 17.7352 29.1315 18.4899 29.8596C19.0896 30.4254 19.3905 31.2571 19.3987 32.0807V37.0373C18.6614 37.063 17.9149 37.0455 17.1776 37.0373C17.1602 35.5535 17.1776 34.0615 17.1776 32.5787C17.1776 32.0211 16.9805 31.3865 16.466 31.0949C15.9259 30.7951 15.2317 30.7951 14.6659 31.0518C14.1001 31.3259 13.8773 31.9955 13.8773 32.5787V37.0209C13.14 37.064 12.3935 37.0384 11.6562 37.0384C11.6387 35.4087 11.6562 33.7801 11.6562 32.1505C11.648 31.2931 11.956 30.4182 12.5906 29.8267V29.8349V29.8339Z" fill="#1D2346"/>
<path d="M32.517 29.1821C33.7 28.8299 35.0287 28.873 36.1357 29.4398C37.1564 29.9368 37.9019 30.8035 38.1422 31.9094C38.365 32.9558 38.2962 34.0967 37.7818 35.0486C37.2334 36.1124 36.187 36.8918 35.0298 37.1577C34.0183 37.398 32.9463 37.2522 32.02 36.7973C32.0026 37.8611 32.02 38.9239 32.02 39.9877C31.2828 40.0052 30.5455 40.0052 29.8164 39.9877V33.2988C29.8164 32.5872 29.8934 31.8663 30.1419 31.1978C30.5188 30.1432 31.4707 29.4912 32.5253 29.1831H32.517V29.1821ZM33.7595 30.8805C33.1506 30.9493 32.6023 31.3354 32.3024 31.8663C31.7705 32.8439 31.942 34.2671 32.9021 34.9192C33.6476 35.4593 34.7628 35.3474 35.3964 34.6789C36.1686 33.881 36.2024 32.5091 35.5504 31.626C35.1386 31.0859 34.427 30.7861 33.7585 30.8795L33.7595 30.8805Z" fill="#1D2346"/>
<path d="M40.7894 29.9628C41.7413 29.165 43.0269 28.8651 44.2704 28.9935C45.1453 29.0879 46.0274 29.2081 46.7739 29.6969C46.4566 30.2545 46.1393 30.8028 45.822 31.3604C45.2049 31.077 44.5354 30.8285 43.8505 30.8973C43.1214 30.9661 42.4611 31.4723 42.1962 32.149C41.9734 32.724 41.9734 33.3751 42.188 33.9501C42.4539 34.6617 43.1573 35.1854 43.911 35.2275C44.5713 35.2707 45.2141 35.056 45.7974 34.7562C46.1578 35.2963 46.4576 35.8714 46.7749 36.4372C46.0294 36.9085 45.1546 37.157 44.2715 37.2433C42.7373 37.3798 41.1416 36.737 40.1815 35.5192C39.5726 34.7562 39.2809 33.7612 39.3497 32.7928C39.4011 31.7044 39.9587 30.658 40.7904 29.9628H40.7894Z" fill="#1D2346"/>
<path d="M50.6729 29.0192C51.7275 28.856 52.8417 28.9248 53.7597 29.4649C54.7372 30.0143 55.4827 31.0853 55.7395 32.1748C55.9797 33.1955 55.8514 34.3189 55.3195 35.2276C54.7362 36.2565 53.6991 36.8655 52.5593 37.1396C51.3763 37.4231 50.0815 37.2516 49.0443 36.617C48.0586 36.0337 47.312 35.0305 47.0984 33.8989C46.927 32.9901 47.0296 32.0208 47.4589 31.1972C48.076 29.9711 49.3278 29.2328 50.674 29.0275V29.0192H50.6729ZM50.9564 30.9148C50.3474 31.0606 49.8073 31.4981 49.5588 32.0721C49.1645 33.0065 49.3534 34.2501 50.2191 34.8672C50.9913 35.4587 52.1906 35.3734 52.8766 34.6783C53.8028 33.7695 53.7165 32.0023 52.6281 31.2393C52.1475 30.8963 51.5304 30.7762 50.9564 30.9138V30.9148Z" fill="#1D2346"/>
<path d="M20.7266 29.1904C21.4638 29.1822 22.2104 29.1904 22.9477 29.1904C22.9651 30.6917 22.9477 32.0892 22.9559 33.5895C22.9641 34.1471 23.1705 34.7642 23.6932 35.0384C24.2507 35.33 24.9624 35.33 25.5282 35.0384C26.0601 34.7468 26.2572 34.0947 26.2572 33.5207V29.1986C27.0027 29.1812 27.7493 29.1812 28.4948 29.1986C28.4865 30.8447 28.4948 32.3798 28.4948 34.0269C28.4948 34.91 28.1436 35.8106 27.4576 36.3856C26.5314 37.1578 25.254 37.3375 24.0885 37.2513C23.0257 37.165 21.9023 36.745 21.2852 35.828C20.8221 35.1852 20.7194 34.3617 20.745 33.5895V29.1986L20.7276 29.1904H20.7266Z" fill="#1D2346"/>
<path d="M4.5648 0.145815C4.66748 0.0852307 4.77017 0.0256715 4.88209 0C5.07925 0.051343 5.25074 0.179702 5.43044 0.274173C6.80232 1.07204 8.18242 1.86888 9.5543 2.66675C9.66623 2.72734 9.77713 2.83002 9.75968 2.9666C9.75968 4.57055 9.75968 6.16526 9.76789 7.76922C9.75968 7.90579 9.78535 8.09473 9.64775 8.17175C9.48448 8.29189 9.30478 8.15429 9.15075 8.08549C8.85912 7.92222 8.55106 7.78565 8.25944 7.60492C8.14751 7.55358 8.12287 7.43343 8.12287 7.33075C8.11465 6.13857 8.13108 4.94638 8.11465 3.75522C8.02018 3.62687 7.84869 3.57552 7.72034 3.48927C6.76844 2.94914 5.83399 2.38334 4.88209 1.84321C3.8614 2.42647 2.84173 3.02615 1.82103 3.61763C1.75223 3.66897 1.63209 3.7121 1.64954 3.823C1.64954 4.96384 1.64954 6.10365 1.65776 7.25373C2.2749 7.62238 2.90128 7.97356 3.51843 8.33399C3.63035 8.40279 3.78438 8.4798 3.76693 8.63383C3.77514 9.05382 3.77514 9.4738 3.76693 9.89482C3.78438 10.1259 3.48351 10.2552 3.31305 10.1094C2.28414 9.51796 1.25523 8.91724 0.226318 8.31756C0.0979608 8.24876 -0.0221815 8.13786 0.00348997 7.97459V3.24179C0.0117048 3.05285 -0.0478534 2.7869 0.16676 2.68421C1.6249 1.82678 3.09947 0.985785 4.55658 0.128357L4.5648 0.145815ZM10.5668 5.71961C10.5925 5.52245 10.8584 5.44544 11.0124 5.56558C12.0414 6.15705 13.0703 6.75776 14.0992 7.35744C14.2275 7.42624 14.3477 7.53715 14.322 7.70042C14.322 9.37214 14.3395 11.0449 14.322 12.7166C14.3477 12.8707 14.2101 12.9744 14.091 13.0421C12.6246 13.8914 11.1593 14.7406 9.70115 15.598C9.57279 15.675 9.41773 15.7346 9.28938 15.6411C7.84869 14.8094 6.41725 13.9694 4.97657 13.1459C4.82254 13.0432 4.5648 12.9662 4.58225 12.7341V7.78565C4.54837 7.56282 4.8133 7.39133 5.00224 7.51969C5.37088 7.70863 5.73131 7.88833 6.09071 8.09473C6.27041 8.1892 6.20264 8.41203 6.21907 8.5753V11.9711C7.29932 12.5975 8.37136 13.2321 9.45984 13.8492C10.5319 13.2229 11.5947 12.5975 12.6749 11.9886C12.6924 10.8139 12.6749 9.62988 12.6749 8.45516C12.0147 8.06084 11.338 7.6922 10.6777 7.28865C10.5237 7.21163 10.5575 7.01448 10.5493 6.86866C10.5575 6.4918 10.5319 6.11392 10.5668 5.74528V5.71961ZM8.34569 8.73754C8.49972 8.71187 8.63732 8.8238 8.77389 8.88336C9.06552 9.04663 9.37358 9.1832 9.65699 9.36393C9.77713 9.43273 9.74325 9.58676 9.75968 9.69868C9.75968 10.1012 9.76789 10.513 9.75146 10.9165C9.75146 11.1055 9.51118 11.2164 9.34893 11.1219C8.98029 10.9422 8.61986 10.7533 8.26046 10.5469C8.10644 10.4699 8.12389 10.2809 8.12389 10.1351C8.12389 9.75824 8.11567 9.37214 8.12389 8.99426C8.12389 8.8659 8.21836 8.75397 8.34672 8.7283V8.73652L8.34569 8.73754Z" fill="url(#paint0_radial_3617_28440)"/>
</g>
<defs>
<radialGradient id="paint0_radial_3617_28440" cx="0" cy="0" r="1" gradientUnits="userSpaceOnUse" gradientTransform="translate(7.16481 7.84418) scale(7.5125)">
<stop stop-color="#E06E0C"/>
<stop offset="1" stop-color="#E22419"/>
</radialGradient>
<clipPath id="clip0_3617_28440">
<rect width="55.8602" height="40" fill="white"/>
</clipPath>
</defs>
</svg>
