<svg width="246" height="40" viewBox="0 0 246 40" fill="none" xmlns="http://www.w3.org/2000/svg">
<g clip-path="url(#clip0_3617_28420)">
<path d="M29.451 5.3025C27.7729 3.59941 25.9451 2.31434 23.9676 1.46596C21.9963 0.605066 19.869 0.180832 17.6232 0.174576C12.7261 0.174576 8.57142 2.04609 5.14036 5.77662C1.71554 9.51338 0.00622844 14.3044 0 20.1497C0 25.7891 1.76544 30.5115 5.30256 34.2981C8.83967 38.0973 13.0318 40 17.879 40C20.0437 40.0031 22.0524 39.6134 23.8989 38.8396C25.7517 38.0598 27.5983 36.7935 29.4386 35.0218V39.033H38.9083V1.1665H29.451V5.3025ZM26.9432 28.1722C24.9969 30.2557 22.5452 31.2851 19.5883 31.2913C16.7249 31.2882 14.3107 30.2308 12.3581 28.1098C10.3993 25.995 9.41984 23.2938 9.41984 20.0187C9.41984 16.756 10.3868 14.0923 12.3082 12.0087C14.2358 9.92509 16.65 8.89576 19.5633 8.89576C22.5452 8.89576 25.0094 9.91885 26.9557 11.9588C28.9021 14.0112 29.5321 16.3443 29.5259 19.6444C29.5259 23.0193 28.8958 26.0948 26.9432 28.1722ZM93.2128 5.3025C91.5347 3.59941 89.7006 2.31434 87.7355 1.46596C85.7518 0.605066 83.637 0.180832 81.3787 0.174576C76.4941 0.174576 72.3269 2.04609 68.9021 5.77662C65.4773 9.51338 63.768 14.3044 63.7617 20.1497C63.7555 25.7891 65.5209 30.5115 69.0643 34.2981C72.6014 38.0973 76.7935 40 81.647 40C83.8054 40.0031 85.8141 39.6134 87.6544 38.8396C89.5072 38.0598 91.3538 36.7935 93.1941 35.0218V39.033H102.664V1.1665H93.2128V5.3025ZM90.705 28.1722C88.7586 30.2557 86.3007 31.2851 83.3563 31.2913C80.4866 31.2882 78.0724 30.2308 76.1136 28.1098C74.1547 25.995 73.1753 23.2938 73.1816 20.0187C73.1878 16.756 74.1423 14.0923 76.0699 12.0087C77.9975 9.92509 80.4118 8.89576 83.3251 8.89576C86.3007 8.89576 88.7649 9.91885 90.7174 11.9588C92.6638 14.0112 93.2876 16.3443 93.2814 19.6444C93.2814 23.0193 92.6576 26.0948 90.705 28.1722ZM159.645 2.08976C157.611 0.835864 155.259 0.212029 152.576 0.212029C149.981 0.208932 147.605 0.792238 145.415 1.96502C143.232 3.13157 141.391 4.83465 139.882 7.08668C138.734 4.83465 137.212 3.12531 135.321 1.95876C133.419 0.785976 131.298 0.199587 128.94 0.193362C126.606 0.193362 124.454 0.636074 122.477 1.52834C120.499 2.41417 118.702 3.75542 117.087 5.55826V1.1665H107.611L107.598 39.033H117.068L117.074 22.2333C117.08 18.6026 117.398 15.9388 118.035 14.2482C118.677 12.5577 119.638 11.2476 120.923 10.3056C122.214 9.3761 123.643 8.90203 125.221 8.90203C126.631 8.90512 127.841 9.27638 128.839 10.0186C129.838 10.761 130.58 11.8902 131.079 13.4061C131.578 14.922 131.828 17.3674 131.828 20.7548L131.809 39.033H141.291V22.0025C141.304 18.3904 141.616 15.7704 142.239 14.1422C142.87 12.5077 143.83 11.2351 145.115 10.3056C146.394 9.38236 147.86 8.92069 149.488 8.92069C151.622 8.92069 153.213 9.68176 154.286 11.1915C155.359 12.7136 155.889 15.6144 155.889 19.8876L155.876 39.033H165.346L165.358 16.8558C165.358 12.3081 164.915 9.02052 164.03 7.00558C163.144 4.98432 161.684 3.34369 159.645 2.08976ZM198.415 27.8727C195.882 30.393 192.851 31.6531 189.326 31.6531C186.369 31.65 183.955 30.8359 182.046 29.2264C180.143 27.6169 178.977 25.446 178.534 22.7136L208.914 22.7322L208.952 20.9293C208.952 14.691 207.099 9.6754 203.381 5.86382C199.669 2.06465 194.841 0.161976 188.902 0.155719C183.312 0.155719 178.658 2.05841 174.959 5.88251C171.247 9.69409 169.395 14.4914 169.395 20.2681C169.388 25.9137 171.247 30.5987 174.953 34.3479C178.658 38.1034 183.474 39.9748 189.376 39.9748C193.181 39.9779 196.463 39.3011 199.239 37.9412C202.002 36.5875 204.379 34.4851 206.363 31.6529L198.415 27.8727ZM182.445 10.4678C184.435 9.00181 186.749 8.2719 189.382 8.27816C191.821 8.27816 193.955 8.92695 195.783 10.2307C197.629 11.5408 198.858 13.2314 199.482 15.315L178.977 15.3026C180.037 12.9944 181.197 11.3786 182.445 10.4678ZM231.391 18.9957L244.192 1.16036H233.393L225.982 11.4847L218.546 1.16036H207.579L220.511 19.1017L206.213 39.0331H217.011L225.914 26.6189L234.865 39.0331H245.839L231.391 18.9957ZM61.7026 0C59.9496 0 58.4213 0.330467 57.1424 0.973164C55.8823 1.60322 54.435 2.75731 52.8068 4.44791V1.16655H43.7675V39.0331H53.2372L53.231 19.3388C53.231 12.121 55.2273 8.50283 60.0557 8.50283C60.8917 8.50283 61.7463 8.68403 62.6072 9.00815C64.1605 6.40676 65.9571 3.96136 67.9659 1.70928C65.8012 0.598872 63.7113 0 61.7026 0Z" fill="#E12626"/>
</g>
<defs>
<clipPath id="clip0_3617_28420">
<rect width="245.839" height="40" fill="white"/>
</clipPath>
</defs>
</svg>
