<svg width="58" height="40" viewBox="0 0 58 40" fill="none" xmlns="http://www.w3.org/2000/svg">
<path d="M25.4696 24.2195H32.5486L33.7217 27.5781H36.6625L30.6603 10.9375H27.374L21.3477 27.5781H24.3126L25.4696 24.2195ZM29.0212 14.1515L31.6406 21.6724H26.3776L29.0212 14.1515Z" fill="#254674"/>
<path d="M40.498 10.9375H37.75V27.5781H40.498V10.9375Z" fill="#254674"/>
<path d="M55.3151 25.1756C58.3524 21.8169 58.3524 16.7227 55.3151 13.3399C53.8447 11.7731 51.7877 10.8892 49.6263 10.9374H43.0938V27.5781H49.6343C51.7877 27.6504 53.8768 26.7665 55.3151 25.1756ZM45.8337 13.5569H49.6343C51.0806 13.5087 52.4787 14.0952 53.4831 15.1478C55.4678 17.5262 55.4678 20.9812 53.4831 23.3355C52.5028 24.4122 51.1047 24.9988 49.6343 24.9506H45.8337V13.5569Z" fill="#254674"/>
<path d="M20.0318 27.7464V25.2716H18.9551C18.1676 25.2716 17.4123 25.0306 16.7776 24.5646C16.8017 24.5405 16.8258 24.5163 16.8499 24.4681C16.9945 24.2994 17.1231 24.1226 17.2436 23.9298C19.863 19.9363 18.7622 14.5448 14.7447 11.9254C10.7513 9.30594 5.35974 10.4068 2.7403 14.4243C0.611007 17.6865 0.900269 21.9692 3.44739 24.886C3.817 24.5887 4.21072 24.2994 4.64462 24.0744C5.40795 23.6566 6.21146 23.3432 7.0471 23.1183C8.98356 22.604 11.0646 23.0218 12.6556 24.219C12.752 24.2914 12.8484 24.3637 12.9529 24.436C13.0252 24.4842 13.0975 24.5565 13.1939 24.6288C13.3868 24.7735 13.5877 24.9502 13.7805 25.0949L13.9974 25.2877C14.3671 25.585 14.7045 25.8743 15.0741 26.1475L15.0982 26.1716C16.3196 27.176 17.8462 27.7384 19.4131 27.7384H20.0318V27.7464ZM5.74542 20.8122C5.3517 20.9086 4.98209 21.0291 4.62051 21.1818C4.40356 20.547 4.275 19.856 4.275 19.173C4.275 16.0152 6.84623 13.4601 9.98794 13.4601C13.1297 13.4601 15.7009 16.0313 15.7009 19.173C15.725 20.2497 15.4277 21.3023 14.8652 22.2103C14.7929 22.3308 14.6965 22.4513 14.592 22.5799C14.5438 22.6281 14.5197 22.6763 14.4715 22.7245L14.4474 22.7486C14.3992 22.7004 14.3269 22.6522 14.2546 22.604C11.9003 20.6675 8.71036 20.0006 5.74542 20.8122Z" fill="#254674"/>
<path d="M3.90705 9.34619V11.1863C3.90705 11.2345 3.95526 11.2826 4.00347 11.2826C4.02758 11.2826 4.05169 11.2827 4.07579 11.2586C7.41035 8.26951 12.4564 8.26951 15.815 11.2586C15.8632 11.2827 15.9115 11.2827 15.9597 11.2586C15.9838 11.2345 15.9838 11.2104 15.9838 11.1863V9.34619C17.0364 7.01602 18.5068 5.47329 19.929 3.60915C19.9772 3.56094 19.9531 3.51275 19.929 3.46454C19.9049 3.44043 19.8567 3.44043 19.8085 3.46454C18.7559 4.09931 17.5506 4.4207 16.3534 4.4207C15.9597 4.4207 15.5901 4.39658 15.2285 4.32427C15.6704 5.20813 15.2767 6.28483 14.3928 6.70266C13.509 7.14459 12.4323 6.75088 12.0144 5.86702C11.5966 5.00726 11.9421 3.97877 12.7778 3.53685C12.826 3.51274 12.826 3.44044 12.8019 3.39223L12.7778 3.3681C11.5564 2.58066 10.6003 1.43167 10.086 0.0576735C10.0619 0.00946305 10.0137 -0.01465 9.9655 0.00945521C9.9414 0.00945521 9.91729 0.0335683 9.91729 0.0576735C9.40304 1.43167 8.47097 2.58066 7.22554 3.3681C7.17733 3.39221 7.17733 3.46452 7.20143 3.48863C7.20143 3.51273 7.22554 3.51276 7.22554 3.51276C8.08529 3.97879 8.39866 5.07957 7.93263 5.93932C7.46659 6.79908 6.36579 7.11247 5.50603 6.64644C4.67039 6.1804 4.33291 5.15189 4.7427 4.29213C4.37309 4.36445 3.97937 4.38857 3.61779 4.38857C2.39646 4.38857 1.1912 4.04307 0.162709 3.4324C0.114499 3.4083 0.0662894 3.40828 0.0180789 3.45649C-0.00602631 3.4806 -0.00602631 3.55292 0.0180789 3.57702C1.38404 5.4733 2.85446 7.01602 3.90705 9.34619Z" fill="#254674"/>
<path d="M8.24414 30.3906H7.60938V31.0253H8.24414V30.3906Z" fill="#231F20"/>
<path d="M7.31055 30.3906H6.67578V31.0253H7.31055V30.3906Z" fill="#231F20"/>
<path d="M11.264 30.3906H10.4766V31.0495H11.264V30.3906Z" fill="#231F20"/>
<path d="M15.0084 33.7245H14.004C13.9558 33.7245 13.8835 33.7245 13.8353 33.7004C13.7871 33.6763 13.7389 33.6522 13.6906 33.604C13.6424 33.5558 13.6183 33.5075 13.5942 33.4352C13.5701 33.3629 13.546 33.2665 13.546 33.1942V30.4141H12.7586V33.3067C12.7586 33.379 12.7586 33.4513 12.7104 33.5237C12.6863 33.5719 12.6622 33.6201 12.6139 33.6683C12.5657 33.6924 12.5416 33.7165 12.4934 33.7406C12.4452 33.7647 12.4211 33.7647 12.3729 33.7647H11.7622C11.714 33.7647 11.6417 33.7647 11.5935 33.7406C11.5453 33.7165 11.4971 33.6924 11.4489 33.6442C11.4006 33.596 11.3765 33.5477 11.3524 33.4754C11.3283 33.4031 11.3042 33.3067 11.3042 33.2343V32.0613H10.5168V33.3389C10.5168 33.4112 10.5168 33.4834 10.4686 33.5557C10.4445 33.604 10.4204 33.6522 10.3722 33.6763C10.3239 33.7004 10.2998 33.7245 10.2516 33.7486C10.2034 33.7486 10.1793 33.7727 10.1311 33.7727H8.7089V33.7486C8.80532 33.6522 8.87763 33.5558 8.92584 33.4513C8.97405 33.3308 9.02227 33.2103 9.02227 33.0817C9.02227 32.8889 8.99816 32.6639 8.90174 32.471C8.82942 32.3023 8.733 32.1496 8.58034 32.0291C8.45981 31.9086 8.28304 31.8362 8.1143 31.788C7.92146 31.7398 7.72059 31.6917 7.52774 31.7158C7.3349 31.7158 7.13402 31.7399 6.94118 31.8122C6.77244 31.8604 6.61978 31.9568 6.47515 32.0853C6.35462 32.2059 6.23409 32.3585 6.17785 32.5273C6.10553 32.7201 6.05732 32.921 6.08143 33.1138C6.08143 33.2343 6.10553 33.387 6.17785 33.5076C6.22606 33.6281 6.29837 33.7245 6.3948 33.8049V33.829H5.63146C5.55915 33.829 5.48683 33.829 5.43862 33.8049C5.36631 33.7808 5.3181 33.7566 5.24578 33.7325C5.19757 33.6843 5.14936 33.6361 5.10115 33.5879C5.05294 33.5156 5.05294 33.4433 5.05294 33.3469V30.5266H4.2655V33.4674C4.2655 33.7406 4.2414 34.0299 4.19319 34.3031C4.16908 34.4959 4.09676 34.6726 4.00034 34.8173C3.92803 34.9378 3.8075 35.0342 3.65484 35.0905C3.33343 35.1869 2.97186 35.1869 2.65045 35.0905C2.50582 35.0423 2.37726 34.9458 2.30494 34.8173C2.20852 34.6485 2.13621 34.4718 2.1121 34.3031C2.06389 34.0299 2.03978 33.7647 2.03978 33.4674H1.30859C1.30859 33.7888 1.3327 34.1022 1.38091 34.4236C1.42912 34.6968 1.50143 34.9378 1.6541 35.1869C1.77463 35.4039 1.9755 35.5565 2.19245 35.677C2.48975 35.7976 2.80312 35.8698 3.10041 35.8457C3.37361 35.8457 3.63877 35.8216 3.91196 35.7252C4.12891 35.6529 4.32978 35.5565 4.47442 35.4038C4.61905 35.2592 4.74761 35.0584 4.81992 34.8655C4.91634 34.6245 4.96455 34.3754 4.98866 34.1022H5.01276C5.01276 34.1745 5.06097 34.2227 5.08508 34.2709C5.13329 34.3191 5.1815 34.3673 5.22971 34.3914C5.27792 34.4155 5.35024 34.4638 5.39845 34.4638C5.44666 34.4879 5.51897 34.4879 5.56718 34.4879H10.0267C10.099 34.4879 10.1713 34.4879 10.2195 34.4638C10.2918 34.4638 10.3882 34.4396 10.4605 34.4155C10.557 34.3914 10.6293 34.3432 10.7016 34.295C10.7739 34.2468 10.8703 34.1745 10.9185 34.1022C10.9668 34.1504 11.015 34.1986 11.0632 34.2468C11.1114 34.295 11.1837 34.3432 11.2319 34.3673C11.3042 34.3914 11.3524 34.4397 11.4248 34.4638C11.4971 34.4879 11.5694 34.4879 11.6417 34.4879H12.2524C12.3247 34.4879 12.397 34.4879 12.4452 34.4638C12.5175 34.4638 12.6139 34.4396 12.6863 34.4155C12.7827 34.3914 12.855 34.3432 12.9273 34.295C12.9996 34.2468 13.096 34.1745 13.1443 34.1022C13.1925 34.1504 13.2166 34.1986 13.2889 34.2468C13.3371 34.295 13.4094 34.3432 13.4576 34.3673C13.5299 34.3914 13.5782 34.4397 13.6505 34.4638C13.7228 34.4879 13.7951 34.4879 13.8674 34.4879H15.6592V30.4944H14.8718L15.0084 33.7245ZM8.02591 33.5557C7.78486 33.8289 7.34294 33.829 7.06974 33.5799C7.06974 33.5799 7.06974 33.5799 7.04564 33.5557C6.92511 33.4111 6.8769 33.2103 6.8769 33.0175C6.8769 32.921 6.90101 32.8246 6.92511 32.7201C6.94922 32.6237 6.99743 32.5514 7.04564 32.4791C7.09385 32.4068 7.16616 32.3585 7.23848 32.3103C7.40721 32.238 7.6322 32.238 7.80093 32.3103C7.87325 32.3585 7.94557 32.4068 7.99378 32.4791C8.04199 32.5514 8.0902 32.6237 8.1143 32.7201C8.13841 32.8166 8.16251 32.913 8.16251 33.0175C8.19465 33.2103 8.12234 33.4111 8.02591 33.5557Z" fill="#231F20"/>
<path d="M18.8027 30.3906H18.168V31.0253H18.8027V30.3906Z" fill="#231F20"/>
<path d="M19.7324 30.3906H19.0977V31.0253H19.7324V30.3906Z" fill="#231F20"/>
<path d="M21.9199 34.9307H21.2852V35.5654H21.9199V34.9307Z" fill="#231F20"/>
<path d="M22.8652 34.9307H22.2305V35.5654H22.8652V34.9307Z" fill="#231F20"/>
<path d="M22.2082 33.7252H20.6896C20.5691 33.7493 20.4485 33.7011 20.3441 33.6047C20.2718 33.4842 20.2236 33.3074 20.2477 33.1628V31.7646H18.9701C18.7773 31.7646 18.5523 31.7888 18.3835 31.8611C18.2148 31.9093 18.0862 32.0057 17.9657 32.1343C17.8452 32.2548 17.7729 32.3753 17.7247 32.5521C17.6764 32.7208 17.6523 32.8976 17.6523 33.0663C17.6523 33.2351 17.6764 33.4118 17.7488 33.5565C17.8211 33.7011 17.8934 33.8297 18.022 33.9261C18.1425 34.0225 18.263 34.119 18.4157 34.1672C18.5603 34.2154 18.7371 34.2394 18.9058 34.2394C19.0746 34.2394 19.2513 34.1912 19.396 34.1189C19.5406 34.0466 19.637 33.9502 19.7415 33.8217C19.7897 33.9904 19.9102 34.143 20.0388 34.2394C20.1834 34.3359 20.3602 34.3841 20.5289 34.3841H23.0037V32.0057H22.2163L22.2082 33.7252ZM19.4924 32.994C19.4924 33.0904 19.4683 33.1869 19.4442 33.2672C19.4201 33.3395 19.3718 33.4119 19.3236 33.4601C19.2754 33.5083 19.2031 33.5323 19.1549 33.5565C19.0826 33.5806 19.0103 33.5806 18.9621 33.5806C18.8174 33.5806 18.6648 33.5323 18.5442 33.4359C18.4478 33.3154 18.3996 33.1628 18.3996 33.0182C18.3996 32.8494 18.4478 32.6726 18.5442 32.528C18.6648 32.4075 18.8174 32.3352 18.9862 32.3593H19.5245L19.4924 32.994Z" fill="#231F20"/>
<path d="M25.3478 32.1098C25.2032 31.9893 25.0505 31.8929 24.8818 31.8367C24.689 31.7885 24.5122 31.7402 24.3194 31.7402H23.7569V32.3509H24.3194C24.4158 32.3509 24.5122 32.375 24.6166 32.4232C24.7131 32.4714 24.7854 32.5438 24.8336 32.6161C24.9059 32.7125 24.9541 32.8089 24.9782 32.9133C25.0023 33.0339 25.0264 33.1544 25.0264 33.283V33.7249H23.5078V34.3838H25.8139V33.283C25.8139 33.0419 25.7898 32.817 25.6933 32.6C25.5889 32.4072 25.4925 32.2544 25.3478 32.1098Z" fill="#231F20"/>
<path d="M39.9971 33.725H38.8481C38.7758 33.725 38.6794 33.7009 38.6312 33.6286C38.5588 33.5321 38.5347 33.4357 38.5588 33.3312V32.0055H37.7714V33.3553C37.7955 33.4759 37.7473 33.5723 37.675 33.6526C37.5786 33.725 37.4821 33.7491 37.3777 33.7491C37.2572 33.7491 37.1366 33.725 37.0322 33.6526C36.9277 33.5803 36.8875 33.4598 36.9116 33.3553V32.1341H36.1242V33.3875C36.1483 33.4839 36.1001 33.6045 36.0278 33.6848C35.9314 33.7571 35.835 33.7813 35.7305 33.7813C35.61 33.7813 35.4894 33.7571 35.385 33.6848C35.2886 33.6125 35.2404 33.492 35.2645 33.3875V32.2626H34.4288V33.3634C34.4288 33.4598 34.4047 33.5804 34.3565 33.6607C34.3083 33.7089 34.2119 33.7571 34.1395 33.7571H33.6735C33.6012 33.7571 33.5289 33.7571 33.4325 33.7571C33.336 33.7571 33.2637 33.7571 33.1593 33.7571H32.9664V33.733C33.2075 33.516 33.3601 33.1946 33.3601 32.8491C33.3601 32.7045 33.336 32.5278 33.2878 32.3831C33.2396 32.2626 33.1673 32.1662 33.0709 32.0617C32.9745 31.9894 32.8539 31.9171 32.7254 31.893C32.5807 31.8689 32.4281 31.8448 32.2834 31.8448H30.0015V31.9412C30.0979 32.0617 30.1943 32.1823 30.2747 32.3349C30.347 32.5037 30.4193 32.6804 30.4916 32.8491C30.5639 33.0179 30.6363 33.1947 30.7086 33.3393C30.7568 33.484 30.8532 33.6125 30.9496 33.733V33.7571H29.0373C29.0373 33.6848 29.0373 33.6366 29.0373 33.5643C29.0373 33.492 29.0373 33.4437 29.0373 33.3714C29.0373 33.1304 29.0132 32.9054 28.965 32.6643C28.9167 32.4715 28.8444 32.2947 28.7239 32.126C28.6034 31.9814 28.4829 31.8528 28.3061 31.7805C28.1132 31.7082 27.8883 31.66 27.6713 31.66C27.4544 31.66 27.2294 31.7082 27.0365 31.7805C26.8678 31.8528 26.7151 31.9733 26.5946 32.1019C26.4741 32.2465 26.4018 32.3992 26.3536 32.5679C26.3053 32.7366 26.2812 32.9375 26.2812 33.1063C26.2812 33.275 26.3053 33.4759 26.3536 33.6446C26.4018 33.7893 26.4982 33.9419 26.5946 34.0383C26.691 34.1588 26.8357 34.2312 26.9883 34.2794C27.1571 34.3276 27.3338 34.3758 27.5026 34.3758H28.1856C28.1615 34.5927 28.065 34.7936 27.8883 34.9383C27.6954 35.0588 27.4463 35.1311 27.2053 35.107C27.133 35.107 27.0606 35.107 26.9883 35.0829C26.916 35.0588 26.8437 35.0347 26.7714 35.0106V35.5971C26.8196 35.6213 26.8678 35.6212 26.916 35.6453C26.9642 35.6453 27.0124 35.6695 27.0848 35.6695C27.1571 35.6695 27.2294 35.6695 27.3017 35.6695C27.7195 35.6936 28.1132 35.573 28.4266 35.3239C28.7239 35.0829 28.8926 34.7133 28.9409 34.3437H34.5252C34.5976 34.3437 34.6699 34.3196 34.7181 34.2955C34.7663 34.2713 34.8386 34.2472 34.8868 34.199C34.935 34.1749 34.9591 34.1267 35.0073 34.0785C35.0314 34.0544 35.0555 34.0303 35.0555 33.9821H35.0797C35.1279 34.1027 35.2243 34.199 35.3528 34.2553C35.5216 34.3276 35.6984 34.3517 35.8671 34.3517C36.0358 34.3517 36.2126 34.3276 36.3813 34.2553C36.526 34.2071 36.6224 34.1107 36.7268 33.9821H36.7509C36.7992 34.1027 36.8956 34.199 37.0241 34.2553C37.1929 34.3276 37.3697 34.3517 37.5384 34.3517C37.7071 34.3517 37.8839 34.3276 38.0526 34.2553C38.1973 34.2071 38.2937 34.1107 38.3981 33.9821H38.4222C38.4464 34.0303 38.4705 34.0785 38.5187 34.1267C38.5669 34.175 38.6151 34.1991 38.6633 34.2232C38.7115 34.2473 38.7838 34.2713 38.832 34.2955C38.8802 34.3196 38.9285 34.3195 39.0008 34.3195H40.8167V30.3262H40.0293L39.9971 33.725ZM28.2418 33.725H27.6552C27.5588 33.725 27.4624 33.7249 27.3579 33.6767C27.2856 33.6526 27.2374 33.6044 27.1892 33.5562C27.141 33.508 27.1169 33.4357 27.0928 33.3634C27.0687 33.267 27.0687 33.1946 27.0687 33.0902C27.0687 32.9857 27.0687 32.8973 27.0928 32.7929C27.1169 32.6965 27.141 32.6001 27.1892 32.5197C27.2374 32.4474 27.2856 32.3751 27.3579 32.3269C27.4303 32.2786 27.5267 32.2546 27.6311 32.2546C27.7276 32.2546 27.824 32.2786 27.9284 32.3269C28.0008 32.3751 28.0731 32.4474 28.0972 32.5197C28.1454 32.6162 28.1695 32.7367 28.1936 32.8411C28.2177 32.9858 28.2177 33.1384 28.2177 33.2831L28.2418 33.725ZM32.5004 33.1143C32.4763 33.2348 32.4281 33.3312 32.3558 33.4357C32.3076 33.5321 32.2111 33.6044 32.1147 33.6767C32.0183 33.7249 31.9219 33.7732 31.8174 33.7732C31.7451 33.7732 31.6728 33.7491 31.6246 33.7009C31.5523 33.6527 31.504 33.5803 31.4799 33.508C31.4317 33.4116 31.3835 33.3393 31.3594 33.2348L31.263 32.9376C31.2389 32.8412 31.1907 32.7447 31.1666 32.6643C31.1425 32.592 31.1184 32.5439 31.046 32.4956H32.1469C32.2674 32.4956 32.3638 32.5197 32.4683 32.5679C32.5647 32.6161 32.6129 32.7126 32.5888 32.8411C32.5727 32.9215 32.5486 33.0179 32.5004 33.1143Z" fill="#231F20"/>
<path d="M42.2562 30.3906H41.4688V34.3841H42.2562V30.3906Z" fill="#231F20"/>
<path d="M48.1846 31.1782C48.1605 31.1299 48.1364 31.0817 48.1364 31.0335C48.1364 30.9853 48.1364 30.9371 48.1846 30.8889C48.2087 30.8648 48.2569 30.8407 48.281 30.8407C48.3533 30.8407 48.4256 30.8889 48.4497 30.9853H48.747C48.747 30.913 48.7229 30.8648 48.6988 30.8166C48.6747 30.7684 48.6506 30.7202 48.6024 30.696C48.5542 30.6719 48.506 30.6478 48.4578 30.6237C48.4096 30.5996 48.3372 30.5996 48.289 30.5996C48.1685 30.5996 48.048 30.6237 47.9435 30.696C47.8471 30.7684 47.7989 30.8889 47.823 30.9934C47.823 31.0657 47.8471 31.138 47.8953 31.2103V31.2344H47.7266V31.5076H48.7792V31.2344H48.3372C48.2569 31.2264 48.2087 31.2023 48.1846 31.1782Z" fill="#231F20"/>
<path d="M47.9691 33.7253H46.8924C46.8201 33.7253 46.7478 33.7253 46.6996 33.7012C46.6272 33.7012 46.579 33.677 46.5067 33.6288C46.4585 33.6047 46.4103 33.5565 46.3621 33.5083C46.3139 33.436 46.3139 33.3637 46.3139 33.2913V33.1708C46.3139 32.9539 46.2898 32.7289 46.1933 32.5361C46.121 32.3674 46.0005 32.2147 45.8719 32.0942C45.7273 31.9736 45.5747 31.8772 45.4059 31.8209C45.2131 31.7727 45.0122 31.7245 44.8435 31.7486H44.2569V32.3593H44.8194C44.9158 32.3593 45.0122 32.3834 45.1166 32.4316C45.2131 32.4798 45.2854 32.5521 45.3336 32.6245C45.4059 32.7209 45.4541 32.8173 45.4782 32.9218C45.5023 33.0423 45.5264 33.1628 45.5264 33.2913V33.7333H44.0078V34.3922H46.1853C46.2335 34.344 46.2576 34.2716 46.2817 34.1993C46.3058 34.1511 46.3058 34.1029 46.33 34.0306H46.3541C46.3782 34.0788 46.4023 34.127 46.4505 34.1752C46.4987 34.2234 46.5469 34.2475 46.5951 34.2716C46.6433 34.2957 46.6915 34.3199 46.7638 34.344C46.812 34.3681 46.8603 34.3681 46.9326 34.3681H48.7967V31.9896H48.0093L47.9691 33.7253Z" fill="#231F20"/>
<path d="M52.5488 30.3906H51.9141V31.0253H52.5488V30.3906Z" fill="#231F20"/>
<path d="M53.4707 30.3906H52.8359V31.0253H53.4707V30.3906Z" fill="#231F20"/>
<path d="M55.3366 33.7245H53.9144V33.7004C54.0108 33.604 54.0831 33.5076 54.1313 33.4031C54.1795 33.2826 54.2277 33.162 54.2277 33.0094C54.2277 32.8165 54.2036 32.5916 54.1072 32.3987C54.0349 32.23 53.9385 32.0773 53.7858 31.9568C53.6653 31.8363 53.4885 31.764 53.3198 31.7158C53.1269 31.6675 52.9261 31.6193 52.7332 31.6434C52.5404 31.6434 52.3395 31.6675 52.1466 31.7398C51.9779 31.7881 51.8253 31.8845 51.6806 32.0131C51.5601 32.1336 51.4396 32.2863 51.3833 32.455C51.311 32.6478 51.2628 32.8487 51.2869 33.0415C51.2869 33.1621 51.311 33.3147 51.3833 33.4352C51.4315 33.5557 51.5038 33.6522 51.6003 33.7325V33.7566H50.1781V30.4141H49.3906V34.4075H56.1079V30.4141H55.3205V33.7245H55.3366ZM53.2555 33.5557C53.0144 33.8289 52.5725 33.829 52.2993 33.5799C52.2993 33.5799 52.2993 33.5799 52.2752 33.5557C52.1547 33.4111 52.1065 33.2103 52.1065 33.0175C52.1065 32.921 52.1306 32.8246 52.1547 32.7201C52.1788 32.6237 52.227 32.5514 52.2752 32.4791C52.3234 32.4068 52.3957 32.3585 52.4681 32.3103C52.6368 32.238 52.8618 32.238 53.0305 32.3103C53.1028 32.3585 53.1751 32.4068 53.2234 32.4791C53.2716 32.5514 53.3198 32.6237 53.3439 32.7201C53.368 32.8166 53.3921 32.913 53.3921 33.0175C53.4323 33.2103 53.3841 33.4111 53.2555 33.5557Z" fill="#231F20"/>
<path d="M57.596 30.3906H56.8086V34.3841H57.596V30.3906Z" fill="#231F20"/>
<path d="M1.33203 39.2848L1.77396 39.0116C1.84628 39.2044 2.04716 39.333 2.2641 39.333C2.50516 39.333 2.58551 39.2365 2.58551 39.1401C2.58551 38.9955 2.46498 38.9473 2.11947 38.8429C1.77396 38.7464 1.4606 38.6018 1.4606 38.1599C1.4606 37.7662 1.8061 37.4528 2.19179 37.4769H2.21589C2.5855 37.4769 2.89887 37.6697 3.05154 37.9911L2.60961 38.2643C2.5614 38.0956 2.39266 37.9911 2.21589 37.9911C2.04715 37.9911 1.97484 38.0634 1.97484 38.1599C1.97484 38.2563 2.02305 38.3285 2.39266 38.4571C2.73817 38.5535 3.12385 38.6741 3.12385 39.1643C3.12385 39.6062 2.77835 39.8713 2.2641 39.8713C1.84628 39.8794 1.47666 39.6544 1.33203 39.2848Z" fill="#231F20"/>
<path d="M4.64363 39.4377H3.80798L3.68746 39.8074H3.125L3.91244 37.5254H4.57131L5.35875 39.8074H4.7963L4.64363 39.4377ZM4.499 38.9476L4.22581 38.1119L3.95262 38.9476H4.499Z" fill="#231F20"/>
<path d="M5.44531 39.0681V37.5254H5.95956V39.0199C5.95956 39.1886 6.03187 39.3413 6.32917 39.3413C6.62647 39.3413 6.69878 39.1967 6.69878 39.0199V37.5254H7.21303V39.0681C7.16482 39.5583 6.72289 39.9038 6.23275 39.8556C5.81492 39.8074 5.50156 39.486 5.44531 39.0681Z" fill="#231F20"/>
<path d="M9.59147 38.6746C9.61557 39.2852 9.12544 39.7995 8.51477 39.7995C8.51477 39.7995 8.49066 39.7995 8.46656 39.7995H7.55859V37.5176H8.46656C9.07722 37.5176 9.56736 38.0077 9.56736 38.6183C9.59147 38.6505 9.59147 38.6505 9.59147 38.6746ZM9.10133 38.6746C9.12543 38.3532 8.90849 38.064 8.56298 38.0399C8.53887 38.0399 8.51477 38.0399 8.49067 38.0399H8.09694V39.3174H8.49067C8.81207 39.3415 9.07722 39.0763 9.10133 38.7549C9.10133 38.7228 9.10133 38.6987 9.10133 38.6746Z" fill="#231F20"/>
<path d="M10.4283 37.5254V39.8074H9.91406V37.5254H10.4283Z" fill="#231F20"/>
<path d="M12.949 39.4377H12.0892L11.9687 39.8074H11.4062L12.1937 37.5254H12.8526L13.64 39.8074H13.0775L12.949 39.4377ZM12.7963 38.9476L12.5231 38.1119L12.2499 38.9476H12.7963Z" fill="#231F20"/>
<path d="M15.178 39.3165V39.8308H13.8281V37.5488H14.3424V39.3406L15.178 39.3165Z" fill="#231F20"/>
<path d="M17.281 39.4133L17.4979 39.6544L17.1283 39.9999L16.8873 39.7267C16.7185 39.799 16.5417 39.8472 16.3489 39.8472C15.69 39.8472 15.1758 39.3088 15.1758 38.6741C15.1758 38.0152 15.7141 37.501 16.3489 37.501C17.0078 37.501 17.522 38.0393 17.522 38.6741C17.5301 38.9473 17.4577 39.2124 17.281 39.4133ZM16.5257 39.341L16.2043 38.9955L16.5739 38.65L16.9435 39.0437C17.0158 38.9232 17.0399 38.8026 17.0399 38.6741C17.0399 38.3045 16.7185 38.0152 16.3569 38.0152C15.9873 38.0152 15.6981 38.3366 15.6981 38.6982C15.6981 39.0597 15.9954 39.357 16.3569 39.357C16.4051 39.341 16.4775 39.341 16.5257 39.341Z" fill="#231F20"/>
<path d="M19.0968 39.4377H18.2611L18.1406 39.8074H17.5781L18.3656 37.5254H19.0244L19.8119 39.8074H19.2494L19.0968 39.4377ZM18.9521 38.9476L18.6789 38.1119L18.4057 38.9476C18.4138 38.9476 18.9521 38.9476 18.9521 38.9476Z" fill="#231F20"/>
<path d="M20.4947 37.5254V39.8074H19.9805V37.5254H20.4947Z" fill="#231F20"/>
<path d="M22.9235 38.6746C22.9476 39.2852 22.4575 39.7995 21.8468 39.7995C21.8468 39.7995 21.8227 39.7995 21.7986 39.7995H20.8906V37.5176H21.7986C22.4093 37.5176 22.8994 38.0077 22.8994 38.6183C22.9235 38.6505 22.9235 38.6505 22.9235 38.6746ZM22.4093 38.6746C22.4334 38.3532 22.2164 38.064 21.8709 38.0399C21.8468 38.0399 21.8227 38.0399 21.7986 38.0399H21.4049V39.3174H21.7986C22.12 39.3415 22.3852 39.0763 22.4093 38.7549C22.4093 38.7228 22.4093 38.6987 22.4093 38.6746Z" fill="#231F20"/>
<path d="M25.5428 38.0397H24.9563V39.8315H24.442V38.0397H23.8555V37.5254H25.5428V38.0397Z" fill="#231F20"/>
<path d="M26.5444 39.0675H26.3033V39.8308H25.7891V37.5488H26.697C27.139 37.5488 27.4845 37.8943 27.4845 38.3362C27.4845 38.6094 27.3157 38.8746 27.0666 38.9951L27.5568 39.8308H26.9943L26.5444 39.0675ZM26.3033 38.6015H26.697C26.8658 38.5774 26.9702 38.4327 26.9702 38.2801C26.9461 38.1354 26.8497 38.039 26.697 38.0068H26.3033V38.6015Z" fill="#231F20"/>
<path d="M29.1169 39.4377H28.2572L28.1367 39.8074H27.5742L28.3617 37.5254H29.0205L29.808 39.8074H29.2455L29.1169 39.4377ZM28.9723 38.9476L28.6991 38.1119L28.4259 38.9476C28.434 38.9476 28.9723 38.9476 28.9723 38.9476Z" fill="#231F20"/>
<path d="M31.7918 37.5254V39.8074H31.3981L30.5142 38.5539V39.8074H30V37.5254H30.3937L31.2776 38.7788V37.5254H31.7918Z" fill="#231F20"/>
<path d="M32.0352 39.2848L32.4771 39.0116C32.5494 39.2044 32.7503 39.333 32.9672 39.333C33.2083 39.333 33.2886 39.2365 33.2886 39.1401C33.2886 38.9955 33.1681 38.9473 32.8226 38.8429C32.4771 38.7464 32.1637 38.6018 32.1637 38.1599C32.1637 37.7662 32.5092 37.4528 32.8949 37.4769H32.919C33.2886 37.4769 33.602 37.6697 33.7547 37.9911L33.3127 38.2643C33.2645 38.0956 33.0958 37.9911 32.919 37.9911C32.7503 37.9911 32.678 38.0634 32.678 38.1599C32.678 38.2563 32.7262 38.3285 33.0958 38.4571C33.4413 38.5535 33.827 38.6741 33.827 39.1643C33.827 39.6062 33.4815 39.8713 32.9672 39.8713C32.5494 39.8794 32.1878 39.6544 32.0352 39.2848Z" fill="#231F20"/>
<path d="M35.6908 38.305C35.6908 38.7469 35.3453 39.0924 34.9034 39.0924H34.5338V39.7995H34.0195V37.5176H34.8793C35.3212 37.5256 35.6908 37.8711 35.6908 38.305ZM35.1766 38.305C35.1766 38.1604 35.0802 38.0077 34.9034 38.0077C34.9034 38.0077 34.9034 38.0077 34.8793 38.0077H34.5338V38.5942H34.8793C35.048 38.6023 35.1766 38.4818 35.1766 38.305Z" fill="#231F20"/>
<path d="M35.8359 38.6741C35.8359 38.0152 36.3743 37.501 37.0091 37.501C37.6679 37.501 38.1822 38.0393 38.1822 38.6741C38.1822 39.3329 37.6438 39.8472 37.0091 39.8472C36.3743 39.8472 35.86 39.341 35.8359 38.6741ZM37.7001 38.6741C37.7001 38.3045 37.3787 38.0152 37.0171 38.0152C36.6555 38.0152 36.3582 38.3366 36.3582 38.6982C36.3582 39.0597 36.6555 39.357 37.0171 39.357C37.3787 39.357 37.676 39.0839 37.676 38.7223C37.7001 38.6982 37.7001 38.6741 37.7001 38.6741Z" fill="#231F20"/>
<path d="M39.2904 39.0675H39.0494V39.8308H38.5352V37.5488H39.4431C39.885 37.5488 40.2306 37.8943 40.2306 38.3362C40.2306 38.6094 40.0618 38.8746 39.8127 38.9951L40.3029 39.8308H39.7404L39.2904 39.0675ZM39.0494 38.6015H39.4431C39.6119 38.5774 39.7163 38.4327 39.7163 38.2801C39.6922 38.1354 39.5958 38.039 39.4431 38.0068H39.0494V38.6015Z" fill="#231F20"/>
<path d="M41.9803 38.0397H41.3938V39.8315H40.8795V38.0397H40.293V37.5254H41.9803V38.0397Z" fill="#231F20"/>
<path d="M43.4021 39.4377H42.5424L42.4218 39.8074H41.8594L42.6468 37.5254H43.3057L44.0931 39.8074H43.5066L43.4021 39.4377ZM43.2334 38.9476L42.9602 38.1119L42.687 38.9476H43.2334Z" fill="#231F20"/>
<path d="M45.6366 38.0397H45.05V39.8315H44.5358V38.0397H43.9492V37.5254H45.6366V38.0397Z" fill="#231F20"/>
<path d="M46.3932 37.5254V39.8074H45.8789V37.5254H46.3932Z" fill="#231F20"/>
<path d="M46.6914 38.6741C46.6914 38.0152 47.2298 37.501 47.8645 37.501C48.5234 37.501 49.0376 38.0393 49.0376 38.6741C49.0376 39.3329 48.4993 39.8472 47.8645 39.8472C47.2298 39.8472 46.6914 39.341 46.6914 38.6741ZM48.5314 38.6741C48.5314 38.3045 48.21 38.0152 47.8484 38.0152C47.4788 38.0152 47.1896 38.3366 47.1896 38.6982C47.1896 39.0597 47.4869 39.357 47.8484 39.357C48.2181 39.357 48.5073 39.0839 48.5073 38.7223C48.5314 38.6982 48.5314 38.6741 48.5314 38.6741Z" fill="#231F20"/>
<path d="M51.1512 37.5254V39.8074H50.7575L49.8736 38.5539V39.8074H49.3594V37.5254H49.7531L50.637 38.7788V37.5254H51.1512Z" fill="#231F20"/>
<path d="M52.2508 38.6741C52.2267 38.0393 52.741 37.501 53.3757 37.501C53.3998 37.501 53.4239 37.501 53.4239 37.501C53.8177 37.501 54.1873 37.6938 54.4042 38.0393L53.9623 38.3125C53.8418 38.1438 53.6409 38.0152 53.4239 38.0393C53.0543 38.0393 52.741 38.3607 52.7651 38.7223C52.7651 39.0919 53.0624 39.3811 53.4239 39.3811C53.6409 39.3811 53.8418 39.2848 53.9623 39.108L54.4042 39.3811C54.1873 39.7266 53.8177 39.9195 53.4239 39.8954C52.7892 39.9195 52.2508 39.4053 52.2508 38.7705C52.2508 38.6982 52.2508 38.6741 52.2508 38.6741Z" fill="#231F20"/>
<path d="M54.5312 38.6741C54.5312 38.0152 55.0696 37.501 55.7044 37.501C56.3391 37.501 56.8775 38.0393 56.8775 38.6741C56.8775 39.3329 56.3391 39.8472 55.7044 39.8472C55.0696 39.8472 54.5312 39.341 54.5312 38.6741ZM56.3713 38.6741C56.3713 38.3045 56.0499 38.0152 55.6883 38.0152C55.3187 38.0152 55.0294 38.3366 55.0294 38.6982C55.0294 39.0597 55.3267 39.357 55.6883 39.357C56.0579 39.357 56.3472 39.0839 56.3472 38.7223C56.3713 38.6982 56.3713 38.6741 56.3713 38.6741Z" fill="#231F20"/>
<path d="M56.9844 39.5343C56.9844 39.3656 57.129 39.2129 57.3058 39.2129C57.4825 39.2129 57.6272 39.3575 57.6272 39.5343C57.6272 39.703 57.4825 39.8557 57.3058 39.8557C57.1049 39.8557 56.9844 39.703 56.9844 39.5343Z" fill="#231F20"/>
</svg>
