<?xml version="1.0" encoding="UTF-8" standalone="no"?>
<!-- Created with Inkscape (http://www.inkscape.org/) -->

<svg
   xmlns:dc="http://purl.org/dc/elements/1.1/"
   xmlns:cc="http://creativecommons.org/ns#"
   xmlns:rdf="http://www.w3.org/1999/02/22-rdf-syntax-ns#"
   xmlns:svg="http://www.w3.org/2000/svg"
   xmlns="http://www.w3.org/2000/svg"
   xmlns:sodipodi="http://sodipodi.sourceforge.net/DTD/sodipodi-0.dtd"
   xmlns:inkscape="http://www.inkscape.org/namespaces/inkscape"
   version="1.1"
   id="svg2"
   xml:space="preserve"
   viewBox="0 0 257.4256 423.27719" width="247" height="405"

   sodipodi:docname="ADNOC.svg"
   inkscape:version="0.92.1 r15371"><metadata
     id="metadata8"><rdf:RDF><cc:Work
         rdf:about=""><dc:format>image/svg+xml</dc:format><dc:type
           rdf:resource="http://purl.org/dc/dcmitype/StillImage" /><dc:title></dc:title></cc:Work></rdf:RDF></metadata><defs
     id="defs6"><clipPath
       clipPathUnits="userSpaceOnUse"
       id="clipPath18"><path
         d="M 0,841.89 H 1190.55 V 0 H 0 Z"
         id="path16"
         inkscape:connector-curvature="0" /></clipPath></defs><sodipodi:namedview
     pagecolor="#ffffff"
     bordercolor="#666666"
     borderopacity="1"
     objecttolerance="10"
     gridtolerance="10"
     guidetolerance="10"
     inkscape:pageopacity="0"
     inkscape:pageshadow="2"
     inkscape:window-width="1920"
     inkscape:window-height="1017"
     id="namedview4"
     showgrid="false"
     fit-margin-top="0"
     fit-margin-left="0"
     fit-margin-right="0"
     fit-margin-bottom="0"
     inkscape:zoom="1.189304"
     inkscape:cx="-28.744363"
     inkscape:cy="6.889667"
     inkscape:window-x="-8"
     inkscape:window-y="-8"
     inkscape:window-maximized="1"
     inkscape:current-layer="g10" /><g
     id="g10"
     inkscape:groupmode="layer"
     inkscape:label="adnoc_master_logo_cmyk_vertical1"
     transform="matrix(1.3333333,0,0,-1.3333333,-683.77372,772.49278)"><g
       id="g12"><g
         id="g14"
         clip-path="url(#clipPath18)"><g
           id="g20"
           transform="translate(650.2214,267.1867)"><path
             d="m 0,0 c -7.547,0.053 -13.639,6.215 -13.639,13.735 0,7.574 6.092,13.789 13.639,13.789 7.548,0 13.742,-6.164 13.742,-13.789 C 13.742,6.163 7.548,0 0,0 m 0,32.798 c -10.462,0 -18.999,-8.564 -18.999,-19.063 0,-10.496 8.537,-19.01 18.999,-19.01 10.463,0 18.947,8.514 18.947,19.01 0,10.499 -8.484,19.063 -18.947,19.063"
             style="fill:#0057a5;fill-opacity:1;fill-rule:nonzero;stroke:none"
             id="path22"
             inkscape:connector-curvature="0" /></g><g
           id="g24"
           transform="translate(619.5883,274.6177)"><path
             d="m 0,0 -26.338,24.846 v -37.029 h 5.256 V 12.413 L 5.311,-12.183 V 24.846 H 0 Z"
             style="fill:#0057a5;fill-opacity:1;fill-rule:nonzero;stroke:none"
             id="path26"
             inkscape:connector-curvature="0" /></g><g
           id="g28"
           transform="translate(568.5908,267.7094)"><path
             d="M 0,0 H -7.965 V 26.479 H 0 c 7.287,0 13.168,-5.954 13.168,-13.266 C 13.168,5.954 7.287,0 0,0 M 0,31.754 H -13.223 V -5.275 H 0 c 10.462,0 18.373,8.304 18.426,18.488 C 18.426,23.397 10.2,31.754 0,31.754"
             style="fill:#0057a5;fill-opacity:1;fill-rule:nonzero;stroke:none"
             id="path30"
             inkscape:connector-curvature="0" /></g><g
           id="g32"
           transform="translate(693.8815,267.2122)"><path
             d="m 0,0 c -7.282,0 -13.679,6.158 -13.679,13.725 0,7.619 6.449,13.778 13.679,13.778 3.64,0 6.865,-1.358 9.257,-3.758 l 2.663,4.646 C 8.742,31.221 4.586,32.773 0,32.773 c -10.61,0 -18.984,-8.558 -18.984,-19.048 0,-10.489 8.53,-18.996 18.933,-18.996 4.589,0 8.835,1.641 12.069,4.413 L 9.362,3.757 C 6.969,1.357 3.588,0 0,0"
             style="fill:#0057a5;fill-opacity:1;fill-rule:nonzero;stroke:none"
             id="path34"
             inkscape:connector-curvature="0" /></g><g
           id="g36"
           transform="translate(531.3085,299.53)"><path
             d="m 0,0 -18.478,-37.095 h 5.83 L 0,-11.054 6.304,-24.033 H -4.643 l -0.12,-0.258 c 0.016,-0.001 0.076,-0.008 0.171,-0.022 7.21,-0.513 13.349,-4.878 16.379,-11.05 l 0.844,-1.732 h 5.795 z"
             style="fill:#0057a5;fill-opacity:1;fill-rule:nonzero;stroke:none"
             id="path38"
             inkscape:connector-curvature="0" /></g><path
           d="m 697.712,317.856 h 5.303 v 37.025 h -5.303 z"
           style="fill:#0057a5;fill-opacity:1;fill-rule:nonzero;stroke:none"
           id="path40"
           inkscape:connector-curvature="0" /><g
           id="g42"
           transform="translate(700.4721,364.0255)"><path
             d="m 0,0 c -0.766,0.446 -1.15,1.274 -1.15,2.359 0,1.212 0.831,2.424 2.17,2.424 0.954,0 1.593,-0.447 1.785,-1.404 l 2.297,1.212 c -0.893,1.85 -2.232,2.808 -4.02,2.808 -2.74,0 -4.975,-2.17 -4.975,-5.167 0,-0.32 0.192,-1.02 0.576,-2.232 H -5.871 V -2.935 H 5.164 V 0 Z"
             style="fill:#0057a5;fill-opacity:1;fill-rule:nonzero;stroke:none"
             id="path44"
             inkscape:connector-curvature="0" /></g><g
           id="g46"
           transform="translate(512.851,333.6792)"><path
             d="m 0,0 c -0.001,-0.072 -0.007,-0.142 -0.007,-0.214 0,-8.58 7.48,-15.625 16.082,-15.625 H 41.763 V 21.19 h -5.279 v -31.82 h -20.51 c -5.751,0 -10.84,4.645 -10.84,10.416 0,0.072 0.005,0.142 0.006,0.214 z"
             style="fill:#0057a5;fill-opacity:1;fill-rule:nonzero;stroke:none"
             id="path48"
             inkscape:connector-curvature="0" /></g><g
           id="g50"
           transform="translate(663.2973,323.1142)"><path
             d="M 0,0 V -5.258 H 28.237 V 5.588 c 0,8.582 -6.766,15.073 -15.065,15.116 -2.269,0 -4.426,-0.505 -6.364,-1.41 l 2.639,-4.685 c 1.144,0.486 2.402,0.756 3.722,0.756 5.215,0 9.494,-4.254 9.494,-9.525 V 0.003 Z"
             style="fill:#0057a5;fill-opacity:1;fill-rule:nonzero;stroke:none"
             id="path52"
             inkscape:connector-curvature="0" /></g><g
           id="g54"
           transform="translate(528.7047,337.0807)"><path
             d="M 0,0 H 11.035 V 2.935 H 5.871 c -0.766,0.447 -1.15,1.274 -1.15,2.359 0,1.212 0.831,2.424 2.17,2.424 0.954,0 1.593,-0.446 1.785,-1.404 l 2.297,1.212 c -0.893,1.851 -2.232,2.808 -4.02,2.808 -2.74,0 -4.975,-2.169 -4.975,-5.167 0,-0.319 0.192,-1.02 0.576,-2.232 L 0,2.935 Z"
             style="fill:#0057a5;fill-opacity:1;fill-rule:nonzero;stroke:none"
             id="path56"
             inkscape:connector-curvature="0" /></g><path
           d="m 657.066,350.82 h -5.271 v -5.271 h 5.271 z"
           style="fill:#0057a5;fill-opacity:1;fill-rule:nonzero;stroke:none"
           id="path58"
           inkscape:connector-curvature="0" /><g
           id="g60"
           transform="translate(576.856,323.0625)"><path
             d="m 0,0 h -4.268 c -3.905,0 -7.057,3.191 -7.057,7.109 0,3.889 3.152,7.08 7.057,7.08 H 0 Z m -2.36,-13.856 0.012,-0.021 3.535,-3.207 c 2.294,2.603 3.712,6.033 3.712,9.757 v 2.092 H 72.27 c 5.255,0 7.884,2.827 7.884,8.526 V 19.452 H 74.897 V 5.279 c 0,-1.696 -0.14,-3.128 -0.375,-3.694 C 74.005,0.549 72.927,0.032 71.189,0.032 H 5.297 v 19.42 h -9.214 c -6.974,0 -12.248,-5.536 -12.284,-12.326 0,-6.789 5.484,-12.361 12.284,-12.361 h 3.979 v -2.477 c 0,-2.104 -0.917,-4.405 -2.422,-6.144"
             style="fill:#0057a5;fill-opacity:1;fill-rule:nonzero;stroke:none"
             id="path62"
             inkscape:connector-curvature="0" /></g><g
           id="g64"
           transform="translate(673.5492,420.7239)"><path
             d="M 0,0 C -2.926,-12.268 -8.918,-22.941 -17.46,-31.547 H 29.429 C 38.32,17.04 6.313,69.012 -46.078,80.22 -35.382,77.282 10.572,55.707 0,0"
             style="fill:#0057a5;fill-opacity:1;fill-rule:nonzero;stroke:none"
             id="path66"
             inkscape:connector-curvature="0" /></g><g
           id="g68"
           transform="translate(512.8303,579.3696)"><path
             d="m 0,0 v -190.192 l 20.27,-0.008 c 12.302,0.03 15.147,-0.25 21.87,0.804 28.998,4.228 55.517,27.831 58.381,48.69 4.288,24.697 -9.149,46.338 -34.946,51.711 -0.458,0.096 -0.96,0.24 -1.494,0.424 -0.918,-0.012 -13.493,-0.13 -23.184,2.459 -0.12,-0.103 -5.565,-4.411 -3.331,-12.674 0,0 -12.919,13.482 -4.709,31.603 0,0 3.978,8.545 17.483,17.286 0.104,0.123 0.209,0.247 0.313,0.37 3.614,4.288 12.278,11.851 24.851,17.823 6.416,2.885 17.43,7.023 29.763,8.08 56.249,5.232 84.881,-37.81 84.881,-37.81 V 0 Z"
             style="fill:#0057a5;fill-opacity:1;fill-rule:nonzero;stroke:none"
             id="path70"
             inkscape:connector-curvature="0" /></g><g
           id="g72"
           transform="translate(650.9562,534.3901)"><path
             d="m 0,0 c -27.223,3.632 -50.114,-3.411 -68.168,-15.988 -10e-4,-0.009 5.304,3.043 13.482,5.969 1.204,-5.232 5.603,-9.64 11.542,-10.876 7.949,-1.654 15.639,2.996 17.176,10.386 0.418,2.008 0.337,4.011 -0.16,5.898 51.993,1.579 78.143,-38.077 78.143,-38.077 l 0.007,16.595 v 0.514 C 44.095,-17.565 24.409,-2.71 0,0"
             style="fill:#0057a5;fill-opacity:1;fill-rule:nonzero;stroke:none"
             id="path74"
             inkscape:connector-curvature="0" /></g></g></g></g></svg>