<svg width="43" height="40" viewBox="0 0 43 40" fill="none" xmlns="http://www.w3.org/2000/svg">
<path d="M23.4502 24.4365H22.862C22.4943 24.4365 22.1953 24.1375 22.1953 23.7698C22.1953 23.4022 22.4943 23.1032 22.862 23.1032H23.4502C23.6316 23.1032 23.7786 22.9561 23.7786 22.7747V17.3581C23.7786 16.9904 24.0777 16.6914 24.4453 16.6914C24.813 16.6914 25.112 16.9904 25.112 17.3581V22.7698C25.1169 23.6914 24.3669 24.4365 23.4502 24.4365Z" fill="#02508C"/>
<path d="M20.901 21.3087C20.5334 21.3087 20.2344 21.0097 20.2344 20.642V13.946C20.2344 13.5783 20.5334 13.2793 20.901 13.2793C21.2687 13.2793 21.5677 13.5783 21.5677 13.946V20.642C21.5726 21.0097 21.2687 21.3087 20.901 21.3087Z" fill="#02508C"/>
<path d="M16.2939 16.0876H12.0096C11.6419 16.0876 11.3429 16.3866 11.3429 16.7542C11.3429 17.1219 11.6419 17.4209 12.0096 17.4209H16.2939C16.7449 17.4209 17.1076 17.7886 17.1076 18.2346V19.1513C17.1076 19.6023 16.74 19.965 16.2939 19.965H6.71546V13.8327C6.71546 13.465 6.41644 13.166 6.04879 13.166C5.68114 13.166 5.38212 13.465 5.38212 13.8327V22.2984C5.38212 22.7052 5.04879 23.0386 4.63703 23.0386L3.63212 23.0435C3.22526 23.0435 2.89193 22.7101 2.89193 22.3033V19.0827C2.89193 18.715 2.59291 18.416 2.22526 18.416C1.85761 18.416 1.55859 18.715 1.55859 19.0827V22.3033C1.55859 23.4503 2.48997 24.3817 3.64193 24.3817L4.64683 24.3768C5.79389 24.3768 6.72526 23.4454 6.72526 22.2984V21.3033L16.2988 21.3082C17.4851 21.3082 18.4508 20.3425 18.4508 19.1562V18.2395C18.4458 17.0533 17.4802 16.0876 16.2939 16.0876Z" fill="#02508C"/>
<path d="M15.638 24.2799C16.0983 24.2799 16.4714 23.9069 16.4714 23.4466C16.4714 22.9864 16.0983 22.6133 15.638 22.6133C15.1778 22.6133 14.8047 22.9864 14.8047 23.4466C14.8047 23.9069 15.1778 24.2799 15.638 24.2799Z" fill="#02508C"/>
<path d="M24.4466 15.5143C24.9069 15.5143 25.2799 15.1412 25.2799 14.681C25.2799 14.2208 24.9069 13.8477 24.4466 13.8477C23.9864 13.8477 23.6133 14.2208 23.6133 14.681C23.6133 15.1412 23.9864 15.5143 24.4466 15.5143Z" fill="#02508C"/>
<path d="M19.8958 29.4616C20.3561 29.4616 20.7292 29.0885 20.7292 28.6283C20.7292 28.168 20.3561 27.7949 19.8958 27.7949C19.4356 27.7949 19.0625 28.168 19.0625 28.6283C19.0625 29.0885 19.4356 29.4616 19.8958 29.4616Z" fill="#02508C"/>
<path d="M16.5482 29.4616C17.0084 29.4616 17.3815 29.0885 17.3815 28.6283C17.3815 28.168 17.0084 27.7949 16.5482 27.7949C16.0879 27.7949 15.7148 28.168 15.7148 28.6283C15.7148 29.0885 16.0879 29.4616 16.5482 29.4616Z" fill="#02508C"/>
<path d="M6.554 36.902H2.14714C1.90694 36.902 1.68635 36.7745 1.5687 36.5686C1.45106 36.3627 1.45106 36.1078 1.5687 35.902L5.49027 29.0833H2.22557C1.85792 29.0833 1.5589 28.7843 1.5589 28.4167C1.5589 28.049 1.85792 27.75 2.22557 27.75H6.64714C6.88733 27.75 7.10792 27.8775 7.22557 28.0833C7.34321 28.2892 7.34321 28.5441 7.22557 28.75L3.304 35.5686H6.554C6.92165 35.5686 7.22067 35.8676 7.22067 36.2353C7.22067 36.6029 6.92165 36.902 6.554 36.902Z" fill="#02508C"/>
<path d="M13.1903 36.9372H10.5629C9.40602 36.9372 8.46484 35.9961 8.46484 34.8392V34.0843C8.46484 32.9274 9.40602 31.9863 10.5629 31.9863H12.5237V31.3C12.5237 30.9078 12.205 30.5892 11.8129 30.5892H10.1756C9.80798 30.5892 9.50896 30.2902 9.50896 29.9225C9.50896 29.5549 9.80798 29.2559 10.1756 29.2559H11.8129C12.9452 29.2559 13.8619 30.1774 13.8619 31.3049V36.2706C13.857 36.6382 13.558 36.9372 13.1903 36.9372ZM10.5629 33.3294C10.1462 33.3294 9.80308 33.6725 9.80308 34.0892V34.8441C9.80308 35.2608 10.1462 35.6039 10.5629 35.6039H12.5237V33.3294H10.5629Z" fill="#02508C"/>
<path d="M15.4566 38.9714H15.2409C14.8732 38.9714 14.5742 38.6724 14.5742 38.3047C14.5742 37.9371 14.8732 37.6381 15.2409 37.6381H15.4566C15.6919 37.6381 15.8781 37.4469 15.8781 37.2165V31.2116C15.8781 30.8439 16.1772 30.5449 16.5448 30.5449C16.9125 30.5449 17.2115 30.8439 17.2115 31.2116V37.2116C17.2164 38.1822 16.4272 38.9714 15.4566 38.9714Z" fill="#02508C"/>
<path d="M24.4784 37.0154H23.9294C23.0078 37.0154 22.2578 36.2654 22.2578 35.3438V28.4909C22.2578 28.1232 22.5568 27.8242 22.9245 27.8242C23.2921 27.8242 23.5911 28.1232 23.5911 28.4909V35.3438C23.5911 35.5301 23.7431 35.6772 23.9245 35.6772H24.4735C24.8411 35.6772 25.1402 35.9762 25.1402 36.3438C25.15 36.7164 24.851 37.0154 24.4784 37.0154Z" fill="#02508C"/>
<path d="M19.8971 36.8685C19.5295 36.8685 19.2305 36.5694 19.2305 36.2018V31.2116C19.2305 30.8439 19.5295 30.5449 19.8971 30.5449C20.2648 30.5449 20.5638 30.8439 20.5638 31.2116V36.2018C20.5638 36.5694 20.2648 36.8685 19.8971 36.8685Z" fill="#02508C"/>
<path d="M40.6964 5.90767V5.90276C40.6964 5.86845 40.6915 5.83904 40.6915 5.80473C40.6915 5.79982 40.6915 5.79002 40.6866 5.78512C40.6817 5.7508 40.6768 5.71649 40.667 5.68708C40.667 5.68218 40.6621 5.67727 40.6621 5.67237C40.6523 5.63806 40.6425 5.60865 40.6327 5.57433V5.56943C40.618 5.53512 40.6033 5.50571 40.5885 5.47629C40.5836 5.47139 40.5836 5.46649 40.5787 5.46159C40.564 5.43218 40.5444 5.40276 40.5248 5.37825C40.5199 5.37335 40.515 5.36845 40.515 5.36355C40.4954 5.33414 40.4709 5.30963 40.4513 5.28512L40.4464 5.28022C40.4219 5.25571 40.3974 5.2312 40.3729 5.20669C40.368 5.20178 40.368 5.20178 40.3631 5.19688C40.3385 5.17237 40.3091 5.15276 40.2797 5.13316C40.2748 5.13316 40.2748 5.12826 40.2748 5.12826C40.2699 5.12826 40.2699 5.12335 40.265 5.12335C40.2356 5.10375 40.2062 5.08904 40.1719 5.06943C40.167 5.06943 40.1621 5.06453 40.1572 5.06453C40.1425 5.05963 40.1278 5.04982 40.118 5.04492L30.6719 1.11845C30.4415 1.02041 30.1817 1.02041 29.9464 1.11845L20.5003 5.04492C20.4856 5.04982 20.4709 5.05963 20.4611 5.06453C20.4562 5.06453 20.4513 5.06943 20.4464 5.06943C20.417 5.08414 20.3827 5.10375 20.3532 5.12335C20.3483 5.12335 20.3483 5.12826 20.3434 5.12826C20.3385 5.12826 20.3385 5.13316 20.3385 5.13316C20.3091 5.15276 20.2797 5.17237 20.2552 5.19688C20.2503 5.20178 20.2503 5.20178 20.2454 5.20669C20.2209 5.2312 20.1964 5.2508 20.1719 5.28022L20.167 5.28512C20.1425 5.30963 20.1229 5.33904 20.1032 5.36355C20.0983 5.36845 20.0934 5.37335 20.0934 5.37825C20.0738 5.40767 20.0542 5.43218 20.0395 5.46159C20.0346 5.46649 20.0346 5.47139 20.0297 5.47629C20.015 5.50571 20.0003 5.54002 19.9856 5.56943V5.57433C19.9709 5.60374 19.9611 5.63806 19.9562 5.67237C19.9562 5.67727 19.9513 5.68218 19.9513 5.68708C19.9415 5.72139 19.9366 5.75571 19.9317 5.78512C19.9317 5.79002 19.9317 5.79982 19.9268 5.80473C19.9219 5.83904 19.9219 5.86845 19.9219 5.90276V5.90767C19.9219 5.90767 19.9219 5.90767 19.9219 5.91257V10.8096C19.9219 11.3292 20.3434 11.7557 20.868 11.7557C21.3925 11.7557 21.814 11.3341 21.814 10.8096V7.35865L29.3631 10.6773V21.5547L27.8434 20.7998C27.3778 20.5694 26.8091 20.7606 26.5787 21.2263C26.3483 21.692 26.5395 22.2606 27.0052 22.491L29.8925 23.9224C29.9023 23.9273 29.9072 23.9273 29.917 23.9322C29.9317 23.9371 29.9464 23.942 29.9611 23.9518C29.9856 23.9616 30.0101 23.9714 30.0346 23.9763C30.0493 23.9812 30.064 23.9861 30.0787 23.991C30.1032 23.9959 30.1327 24.0057 30.1572 24.0057C30.1719 24.0057 30.1817 24.0106 30.1964 24.0106C30.2356 24.0155 30.2748 24.0204 30.314 24.0204C30.3532 24.0204 30.3925 24.0155 30.4317 24.0106C30.4464 24.0106 30.4562 24.0057 30.4709 24.0057C30.5003 24.0008 30.5248 23.9959 30.5542 23.991C30.5689 23.9861 30.5836 23.9812 30.5983 23.9763C30.6229 23.9665 30.6474 23.9616 30.6719 23.9518C30.6866 23.9469 30.7013 23.942 30.7111 23.9322C30.7209 23.9273 30.7258 23.9273 30.7356 23.9224L40.1817 19.241C40.5052 19.0792 40.7062 18.7557 40.7062 18.393L40.6964 5.90767C40.6964 5.91257 40.6964 5.91257 40.6964 5.90767ZM30.3091 3.01061L37.3483 5.93708L30.3091 9.03022L23.2699 5.93708L30.3091 3.01061ZM31.2503 21.5547V10.6773L38.8091 7.35865V17.8047L31.2503 21.5547Z" fill="#FED10A"/>
</svg>
