<svg width="98" height="40" viewBox="0 0 98 40" fill="none" xmlns="http://www.w3.org/2000/svg">
<path d="M28.8164 3.65369L28.9435 20.826C28.9594 22.1763 29.1182 22.6211 30.2143 22.9706C31.8982 23.4472 35.0436 23.606 36.3621 23.606C39.285 23.5901 46.0682 22.9547 46.0205 17.5218C46.0046 14.8848 43.9236 12.6608 40.7306 12.1843C43.4788 11.5488 44.9244 9.35663 44.9085 7.21207C44.8768 2.33519 38.1254 2.00159 36.0603 2.01747C33.9475 2.03336 31.8982 2.22399 29.8013 2.60524C28.9753 2.7641 28.8164 3.08181 28.8164 3.65369ZM33.3915 5.59174L33.5186 5.57585C34.3764 5.44877 34.9483 5.36934 36.3303 5.35345C38.1571 5.33757 40.127 6.00476 40.1429 7.92692C40.1587 10.5322 37.7759 10.9134 35.4248 10.9293L33.4232 10.9452L33.3915 5.59174ZM36.9498 20.3813C36.3462 20.3813 35.8537 20.3654 35.3931 20.3495C33.5503 20.3177 33.5186 19.1104 33.5186 18.1573L33.4868 13.9317L35.7108 13.9158C38.9355 13.8999 40.8736 15.1231 40.8895 17.2041C40.9212 19.0786 39.3327 20.3654 36.9498 20.3813ZM57.3946 11.8507C57.3788 10.6116 57.0769 9.91263 54.5352 9.92851C52.629 9.9444 50.1667 10.6275 49.1977 10.8499C48.6893 10.977 48.5622 10.7069 48.5622 10.4527L48.5463 8.48292C48.5463 8.27641 48.5463 7.91104 48.9594 7.78395C49.7219 7.56156 52.5972 6.75139 55.4725 6.7355C57.5694 6.71962 58.9991 7.03733 59.9999 7.57744C61.5249 8.41938 61.922 9.80142 61.9379 11.4694L62.0015 19.8094C62.0174 22.1446 61.2072 22.5099 59.1421 22.9865C58.0459 23.2407 56.6639 23.4313 54.9324 23.4472C51.4693 23.4789 47.6726 23.0818 47.6409 18.3161C47.625 15.5203 49.3247 12.6926 56.1556 12.645C56.5527 12.645 56.9657 12.645 57.3946 12.6608V11.8507ZM54.9959 20.5242C55.8379 20.5242 56.4256 20.4448 57.0293 20.2701C57.3311 20.1747 57.49 20.0318 57.4741 19.6029L57.4423 15.4726C57.0134 15.4408 56.6162 15.4249 56.2509 15.4249C52.9467 15.4567 52.1365 17.0929 52.1524 18.2526C52.1683 20.3654 53.8045 20.5242 54.9959 20.5242ZM64.7338 2.49404L68.1016 1.85861C68.5622 1.7633 68.7687 1.96982 68.7687 2.39873L68.8164 8.16521C70.0237 7.43447 71.7552 7.02145 73.1214 7.00556C76.4256 6.97379 78.4431 7.94281 78.459 11.3106L78.5384 22.8435C78.5384 23.0818 78.3637 23.3042 78.0618 23.3042L74.4558 23.336C74.154 23.336 73.9633 23.1295 73.9633 22.8912L73.8839 12.1525C73.868 10.5481 73.1373 10.1509 72.073 10.1668C71.1675 10.1668 69.5948 10.6116 68.8323 11.104L68.9276 22.9388C68.9276 23.1771 68.7529 23.3995 68.451 23.3995L64.845 23.4313C64.5432 23.4313 64.3525 23.2248 64.3525 22.9865L64.2096 3.27244C64.1937 2.7641 64.3049 2.58935 64.7338 2.49404ZM91.2787 7.48213L91.2946 9.97617C91.2946 10.7069 90.9292 10.834 90.6591 10.9452C89.5471 11.4376 87.2755 12.216 85.5281 13.6775L85.5916 22.78C85.5916 23.05 85.4486 23.2407 85.115 23.2407L81.509 23.2724C81.2072 23.2724 81.0166 23.0977 81.0166 22.8118L80.9054 8.24464C80.9054 7.81572 81.0483 7.54567 81.4455 7.48213L84.7497 6.91025C85.2421 6.81493 85.4804 7.05322 85.4804 7.38681L85.4963 9.722C86.8466 8.56235 88.6258 7.33916 90.0872 6.92613C90.8815 6.71962 91.2787 6.89436 91.2787 7.48213ZM97.2199 23.1453L93.6139 23.1771C93.312 23.1771 93.1214 22.9706 93.1214 22.7006L93.0102 8.13344C93.0102 7.73629 93.1214 7.46624 93.5185 7.4027L96.8228 6.83082C97.3152 6.7355 97.5535 6.94202 97.5535 7.30739L97.6647 22.6529C97.6806 22.9388 97.5217 23.1453 97.2199 23.1453ZM95.2818 0C93.8204 0.0158856 92.6607 1.2073 92.6607 2.6529C92.6766 4.11437 93.868 5.28991 95.3136 5.27402C96.7751 5.25814 97.9347 4.06672 97.9347 2.62113C97.9347 1.17554 96.7433 0 95.2818 0ZM90.5479 36.0762C89.9602 36.0762 89.4836 36.5528 89.4995 37.1406C89.4995 37.7284 89.976 38.2049 90.5638 38.189C91.1516 38.189 91.6282 37.7125 91.6123 37.1247C91.6282 36.5369 91.1357 36.0762 90.5479 36.0762Z" fill="#11406B"/>
<mask id="mask0_3617_28423" style="mask-type:luminance" maskUnits="userSpaceOnUse" x="73" y="37" width="3" height="3">
<path d="M75.9651 37.665H73.5664V40.0002H75.9651V37.665Z" fill="white"/>
</mask>
<g mask="url(#mask0_3617_28423)">
<path d="M74.8223 37.8555C74.2345 37.8555 73.7579 38.332 73.7738 38.9198C73.7738 39.5076 74.2504 39.9841 74.8382 39.9683C75.4259 39.9524 75.9025 39.4917 75.8866 38.9039C75.8866 38.332 75.41 37.8555 74.8223 37.8555Z" fill="#11406B"/>
</g>
<mask id="mask1_3617_28423" style="mask-type:luminance" maskUnits="userSpaceOnUse" x="71" y="37" width="3" height="4">
<path d="M73.5667 37.8721H71.168V40.0007H73.5667V37.8721Z" fill="white"/>
</mask>
<g mask="url(#mask1_3617_28423)">
<path d="M72.377 37.8721C71.7892 37.8721 71.3126 38.3486 71.3285 38.9364C71.3285 39.5242 71.8051 40.0007 72.3928 39.9849C72.9806 39.9849 73.4572 39.5083 73.4413 38.9205C73.4413 38.3486 72.9647 37.8721 72.377 37.8721Z" fill="#11406B"/>
</g>
<path d="M96.0769 26.513L97.4272 26.2588C97.6178 26.227 97.6973 26.3065 97.6973 26.4812L97.7608 34.7258C97.7608 34.8212 97.6814 34.9165 97.5702 34.9165L96.1246 34.9324C95.9975 34.9324 95.9339 34.8529 95.9339 34.7576L95.8704 26.8307C95.8704 26.6242 95.9181 26.5606 96.0769 26.513ZM94.7266 26.2906L93.3764 26.5447C93.2016 26.5765 93.154 26.6559 93.154 26.8466L93.2016 33.455H92.4073C91.9784 33.455 91.7084 33.3915 91.5813 33.2485C91.4542 33.1055 91.3907 32.8831 91.3907 32.5495L91.3748 29.9602V29.6583C91.3748 29.4836 91.2953 29.4042 91.1047 29.4359L89.7544 29.6901C89.5797 29.7219 89.532 29.8013 89.532 29.9919V30.4208L89.5479 32.7084C89.5479 33.0261 89.5003 33.2485 89.3732 33.3279C89.262 33.4232 89.0396 33.4709 88.7536 33.4709H88.2294H87.9435C87.8482 33.4709 87.7687 33.3914 87.7687 33.312C87.737 32.8513 87.6575 32.3907 87.5305 31.9459C87.3875 31.4534 87.181 31.0404 86.8791 30.6591C86.5932 30.2937 86.2119 30.0078 85.7513 29.7854C85.2588 29.563 84.671 29.4677 83.9562 29.4836C83.6226 29.4995 83.3049 29.5312 82.9713 29.6107C82.7489 29.6583 82.5106 29.7219 82.2882 29.8013C82.2088 29.8172 82.1611 29.8966 82.1611 29.976L82.177 31.1516C82.177 31.2469 82.2564 31.3263 82.3517 31.3263C82.3676 31.3263 82.3835 31.3263 82.3835 31.3263C82.4629 31.3104 82.5583 31.2787 82.6377 31.2628C82.7807 31.231 82.9395 31.1992 83.0825 31.1834C83.2096 31.1675 83.3366 31.1516 83.4637 31.1357C83.5749 31.1198 83.6702 31.1198 83.7338 31.1198C84.1627 31.1198 84.5122 31.1675 84.7981 31.2945C85.0841 31.4057 85.3224 31.5805 85.4971 31.787C85.6718 31.9935 85.8148 32.2477 85.8942 32.5495C85.9737 32.8037 86.0213 33.0578 86.0531 33.312C86.069 33.4073 85.9895 33.5026 85.8942 33.5026H85.8783L82.177 33.5344C82.0658 33.5344 81.9387 33.5185 81.8275 33.4868C81.7163 33.455 81.6051 33.4073 81.5098 33.3438C81.4145 33.2644 81.3351 33.1849 81.2874 33.0737C81.2397 32.9625 81.208 32.8355 81.1921 32.6766L81.1762 29.7536C81.1762 29.5789 81.0968 29.4995 80.9061 29.5312L79.5559 29.7854C79.3811 29.8172 79.3335 29.8966 79.3335 30.0872V30.5956L79.3652 33.8204V34.3446C79.3652 34.6623 79.3494 34.9482 79.3176 35.1865C79.2858 35.4248 79.2223 35.6154 79.1111 35.7743C78.9999 35.9331 78.8569 36.0444 78.6345 36.1079C78.4598 36.1714 78.2215 36.2032 77.9514 36.2191C77.8561 36.2191 77.7926 36.2985 77.7926 36.3938L77.8085 37.6488C77.8085 37.7441 77.8879 37.8235 77.9991 37.8235C78.5074 37.8077 79.0316 37.7441 79.397 37.6488C79.7942 37.5376 80.1277 37.3629 80.3978 37.1087C80.6679 36.8545 80.8585 36.5368 80.9856 36.1397C81.0809 35.8219 81.1444 35.4407 81.1762 34.9959C81.1762 34.8688 81.3351 34.7894 81.4463 34.8529C81.5257 34.9006 81.621 34.9482 81.7163 34.9641C81.8116 34.9959 81.8911 35.0118 81.9705 35.0118C81.9864 35.0118 81.9864 35.0118 82.0023 35.0118C82.0658 35.0277 82.1135 35.0277 82.1611 35.0277H82.3676L88.2135 34.98H89.0872C89.262 34.98 89.4367 34.9641 89.6274 34.9482C89.8021 34.9324 89.9768 34.9006 90.1516 34.8529C90.3263 34.8053 90.4852 34.7417 90.6281 34.6464C90.7076 34.5988 90.787 34.5352 90.8664 34.4558C90.93 34.3922 91.0412 34.3764 91.1047 34.4558L91.1206 34.4717C91.2636 34.6464 91.4224 34.7735 91.5972 34.837C91.8355 34.9165 92.0896 34.9641 92.3279 34.9482L94.393 34.9324H94.8219C94.949 34.9324 95.0126 34.8529 95.0126 34.7417L94.949 26.4971C94.9967 26.3224 94.9173 26.2429 94.7266 26.2906ZM75.2826 30.7544C75.3303 30.6274 75.4256 30.5003 75.5209 30.405C75.6162 30.3096 75.7592 30.2461 75.8863 30.1825C76.2358 30.0714 76.6011 30.0714 76.6011 30.0714C76.6965 30.0714 76.7759 30.0714 76.8394 30.0714C76.9665 30.0714 77.1413 30.0872 77.3637 30.1031C77.5225 30.119 77.7131 30.1508 77.9038 30.1825C78.015 30.1984 78.1262 30.1349 78.1579 30.0237C78.1579 30.0078 78.1579 29.9919 78.1579 29.976L78.142 28.8482C78.142 28.7528 78.0785 28.6734 77.9991 28.6417C77.8561 28.594 77.729 28.5622 77.586 28.5305C77.3319 28.4669 77.0459 28.4351 76.7282 28.4351C76.6806 28.4351 76.6329 28.4351 76.5853 28.4351C76.5853 28.4351 73.5988 28.4351 73.5988 30.9768C73.5988 31.6758 73.7735 31.9776 73.9959 32.3271C74.3136 32.7878 74.9173 32.9943 74.9173 32.9943C74.9173 32.9943 75.3144 33.1214 75.6798 33.312C75.9816 33.4709 76.2834 33.7092 76.3629 34.011C76.3787 34.1063 76.3787 34.2016 76.3787 34.2493C76.3311 34.8529 75.6639 35.1706 75.1238 35.3295C75.0285 35.3613 74.9173 35.3772 74.822 35.4089C74.4407 35.5042 74.0753 35.5519 73.4558 35.5519C72.9633 35.5519 72.5503 35.5201 72.2167 35.4407C71.8831 35.3613 71.6289 35.2501 71.4224 35.0912C71.2318 34.9482 71.0888 34.7735 70.9935 34.567C70.9141 34.3605 70.8664 34.1381 70.8664 33.8839L70.8506 32.1365V31.8188C70.8506 31.644 70.7552 31.5646 70.5805 31.5964L69.2302 31.8505C69.0555 31.8823 69.0078 31.9617 69.0078 32.1365V32.6131L69.0237 33.9633V34.1222C69.0237 34.1381 69.0237 34.154 69.0237 34.1698C69.0396 34.567 69.119 34.9165 69.2461 35.2659C69.3891 35.6631 69.6432 35.9967 69.9768 36.2826C70.3104 36.5686 70.7552 36.791 71.3112 36.9498C71.8513 37.1087 72.5344 37.1881 73.3287 37.1722C73.7735 37.1722 74.1865 37.1405 74.5678 37.0928C76.8394 36.8069 78.0308 35.7902 78.1262 34.1857C78.2374 32.4701 76.5058 32.0412 76.5058 32.0412C76.5058 32.0412 75.4415 31.8188 75.2032 31.1834C75.235 31.0563 75.235 30.8815 75.2826 30.7544Z" fill="#11406B"/>
<path d="M11.6428 23.3839C11.7222 23.4633 11.8334 23.511 11.9605 23.511C12.0875 23.511 12.1987 23.4633 12.2782 23.368L15.2488 20.3498C15.3282 20.2703 15.3759 20.1591 15.3759 20.0321L15.2964 8.64206C15.2964 8.38789 15.0899 8.19727 14.8358 8.19727L8.86277 8.24492C8.6086 8.24492 8.41797 8.45143 8.41797 8.7056L8.4974 20.0956C8.4974 20.2227 8.54505 20.3339 8.62448 20.4133" fill="#AFB1B2"/>
<path d="M11.66 25.5913C11.8348 25.7661 12.1207 25.7661 12.2955 25.5913L16.8229 21.0004C16.9023 20.9209 16.95 20.8097 16.95 20.6826L16.8229 3.51029C16.8229 3.25613 17.0294 3.04961 17.2677 3.04961L23.2407 3.00195C23.4948 3.00195 23.7013 3.20846 23.7013 3.44675L23.8443 23.4785C23.8443 23.5897 23.7967 23.7168 23.7172 23.7962L12.359 35.3292C12.2796 35.4086 12.1525 35.4722 12.0413 35.4722C11.9142 35.4722 11.803 35.4245 11.7236 35.3451L0.206514 23.971C0.127085 23.8915 0.0794281 23.7803 0.0794281 23.6533L0 13.8836C0 13.6294 0.206514 13.4229 0.444798 13.4229L6.41779 13.3753C6.67196 13.3753 6.87847 13.5818 6.87847 13.8201L6.92613 20.7303C6.92613 20.8415 6.97379 20.9686 7.05322 21.048" fill="#11406B"/>
</svg>
