<svg width="186" height="40" viewBox="0 0 186 40" fill="none" xmlns="http://www.w3.org/2000/svg">
<path d="M24.2162 17.9432C24.5033 16.9312 24.7481 16.0652 25.0823 14.8931C22.8747 14.846 20.8648 15.0414 19.0267 16.0322C18.4995 16.3146 18.2148 17.0489 17.537 17.9432H24.2162ZM35.7789 13.8129C37.6264 11.6453 39.1209 9.87547 40.6365 8.12447C41.6015 7.00891 42.6746 5.97808 43.5501 4.79662C44.3527 3.71402 45.3176 3.44101 46.5791 3.53044C47.8359 3.61988 49.1091 3.54927 50.8813 3.54927C48.9279 5.92866 47.2545 7.96678 45.3835 10.245C46.765 10.3062 47.9018 10.3909 49.0409 10.4026C53.9691 10.4591 58.9043 10.4121 63.8302 10.5839C65.4188 10.6404 67.071 11.0452 68.5443 11.6524C71.3096 12.7985 71.8274 14.3754 70.893 17.9503H75.8071C76.565 15.4862 77.311 13.0692 78.0594 10.6404H85.0964C84.355 13.1256 83.6631 15.4509 82.9147 17.955H88.8149C89.5327 15.585 90.267 13.168 91.0413 10.6098H98.0524C96.9039 14.3871 95.8142 17.9715 94.6681 21.73H30.0364C29.0903 25.3426 26.6003 27.3925 23.3736 28.5363C21.5214 29.1906 19.5327 29.4542 17.2216 29.979C17.73 28.341 18.0783 27.216 18.4266 26.084C20.6248 25.4956 22.291 24.4342 22.7829 21.8524H9.87399C9.36799 17.8962 12.7923 12.6149 16.8592 11.5041C19.3727 10.8169 22.0674 10.7015 24.6916 10.5344C27.2357 10.3721 29.7963 10.4685 32.3522 10.4615C32.6582 10.4615 32.9641 10.5462 33.4748 10.6192C32.757 13.0692 32.0674 15.4156 31.3284 17.9315H63.8467C64.6586 15.4085 63.2089 14.1165 60.9872 14.0482C53.4395 13.8152 45.8848 13.867 38.3324 13.8105C37.6429 13.8082 36.9557 13.8129 35.7789 13.8129Z" fill="#B18D32"/>
<path d="M104.463 3.64062H111.498C110.008 8.4394 108.568 13.0758 107.054 17.9475H110.502C111.227 15.5046 111.938 13.1087 112.684 10.5999H119.714C118.946 13.1629 118.224 15.5681 117.511 17.9381H120.514C121.276 15.4458 121.997 13.0946 122.757 10.6117H129.74C129.008 13.1111 128.323 15.4528 127.586 17.9711H130.493C131.234 15.514 131.966 13.0876 132.707 10.6258H139.737C138.586 14.3679 137.485 17.9546 136.334 21.6896C135.939 21.7437 135.501 21.859 135.066 21.8614C125.776 21.8661 116.487 21.8826 107.195 21.8355C105.762 21.8284 104.287 21.6731 102.903 21.3154C100.827 20.7741 99.7772 18.9572 100.38 16.879C101.653 12.4756 103.072 8.11697 104.463 3.64062Z" fill="#B18D32"/>
<path d="M118.969 35.1376H129.847C130.944 31.8192 127.953 31.1673 125.333 31.1673C121.796 31.1673 118.854 32.4052 118.969 35.1376ZM135.385 39.501H110.309C110.61 38.5031 110.958 37.6982 111.09 36.8604C112.196 29.8046 117.371 27.5688 123.436 26.7192C127.141 26.1991 130.911 26.1897 134.477 27.9148C137.197 29.2327 138.167 31.831 136.945 34.6599C136.279 36.1991 135.9 37.8653 135.385 39.501Z" fill="#B18D32"/>
<path d="M35.4708 30.8728C33.7574 32.4426 32.1712 33.8971 30.2672 35.6434H37.6242C36.9064 34.0548 36.2686 32.6427 35.4708 30.8728ZM46.1274 39.5196H19.3164C20.4108 38.4323 21.1615 37.6344 21.9664 36.9001C25.652 33.5441 29.3494 30.2068 33.0538 26.8743C33.2797 26.6695 33.5974 26.4483 33.8775 26.4436C36.0309 26.4083 38.1844 26.4247 40.4508 26.4247C42.3242 30.7434 44.1646 34.9915 46.1274 39.5196Z" fill="#B18D32"/>
<path d="M57.1683 30.8989C60.1972 30.9272 62.1906 30.9507 63.1038 30.9601C63.3909 30.9625 63.6263 30.7248 63.6098 30.4353C63.6098 30.4306 63.6098 30.4259 63.6098 30.4235C63.5957 30.1529 63.3768 29.9411 63.1062 29.9411H57.5872C57.4719 30.207 57.3236 30.5435 57.1683 30.8989ZM47.2812 39.4962C48.7498 35.0434 50.1313 30.8566 51.5411 26.5826C55.9939 26.5826 60.3055 26.5238 64.6171 26.6179C65.8856 26.6462 67.2718 26.865 68.3709 27.4416C69.2794 27.9194 70.4443 29.0703 70.4185 29.8916C70.3832 31.0378 69.6206 32.5793 68.6792 33.1865C67.3613 34.0338 65.6103 34.4292 64.0075 34.561C61.4046 34.7751 58.7734 34.6174 56.008 34.6174C55.4196 36.2649 54.836 37.8959 54.2641 39.4939L47.2812 39.4962Z" fill="#B18D32"/>
<path d="M0 39.4897C0.329489 38.1552 0.623676 36.9644 0.955518 35.6158H11.7581C11.7934 35.4322 11.8263 35.2463 11.8616 35.0627C10.6378 34.7097 9.40456 34.3755 8.18781 33.9966C7.10755 33.6624 6.00847 33.3588 4.98 32.9022C2.63121 31.8596 2.32761 29.3202 4.44811 27.8705C5.40362 27.2162 6.61803 26.6631 7.74535 26.5972C10.7272 26.4207 13.7232 26.536 16.8416 26.536C16.5874 27.5245 16.3144 28.513 16.0838 29.5085C15.8037 29.5156 12.4147 29.4826 11.638 29.7274C11.3768 29.8097 11.0967 29.9251 10.9767 30.1698C10.4731 31.1959 15.1141 31.8455 16.2368 32.1067C16.9899 32.2809 17.7501 32.4857 18.4608 32.7869C20.4919 33.6436 20.8614 34.5544 20.1389 36.5949C19.7929 37.5692 19.4987 38.5647 19.1998 39.4897H0Z" fill="#B18D32"/>
<path d="M177.226 39.8304H172.046C170.697 37.1639 169.123 34.5186 167.984 31.6968C166.313 27.5546 168.052 23.2712 172.771 21.0142C176.32 19.3174 185.141 17.0557 185.141 17.0557C185.141 18.4984 185.221 19.934 185.221 21.4661C183.886 21.885 182.505 22.3299 181.255 22.9441C179.264 24.0667 177.115 25.1893 175.619 26.8439C173.482 29.2021 174.505 32.1416 175.301 34.834C175.71 36.2155 176.362 37.524 176.899 38.8679C177.005 39.1267 177.082 39.4045 177.226 39.8304Z" fill="#B18D32"/>
<path d="M142.762 15.2812C143.291 13.3631 143.729 11.7887 144.2 10.0777C148.076 11.2379 151.794 13.2925 155.762 10.9367C159.615 8.64909 160.338 4.72347 161.103 0.621326C162.305 0.437753 163.729 0.225935 165.186 0C165.186 1.19322 165.169 2.28995 165.056 3.35373C164.652 7.13109 163.934 10.8237 161.917 14.1469C159.705 17.7924 155.647 19.4328 151.326 18.1784C148.53 17.3664 145.802 16.3191 142.762 15.2812Z" fill="#B18D32"/>
<path d="M167.94 0.00683594C169.479 0.270427 170.58 0.486952 172.077 0.745837C171.83 2.15793 171.606 3.42647 171.383 4.695C170.413 10.1928 173.402 13.1158 178.954 12.0638C180.538 11.7649 182.103 11.3601 183.819 10.9718C184.183 12.1203 184.553 13.2758 185.009 14.7068C183.303 15.4222 181.679 16.2624 179.964 16.7849C177.608 17.5004 175.198 18.1005 172.774 18.5265C169.436 19.1102 166.189 17.4274 165.716 14.5773C165.355 12.4121 165.621 10.0845 165.944 7.87928C166.264 5.68818 167.01 3.55826 167.547 1.39775C167.638 1.01413 167.756 0.658754 167.94 0.00683594Z" fill="#B18D32"/>
<path d="M140.977 21.9203C141.443 20.2987 141.855 18.8678 142.347 17.1592C144.006 17.6134 145.807 17.9335 147.468 18.6042C149.219 19.3103 150.994 20.1481 152.481 21.2919C155.472 23.5913 155.759 27.3051 153.02 31.0448C150.874 33.9749 148.247 36.5567 145.832 39.2914C145.741 39.395 145.621 39.5409 145.505 39.5503C143.693 39.6845 141.879 39.7998 139.699 39.9457C141.77 37.4416 143.47 35.3399 145.221 33.283C147.327 30.8118 148.099 28.0582 146.536 25.9401C145.263 23.6289 141.253 22.0356 140.977 21.9203Z" fill="#B18D32"/>
<path d="M108.667 39.4991H90.8555C91.3827 37.7434 91.8981 36.2301 92.2935 34.6815C93.4655 30.1181 97.0428 28.2541 101.091 27.4493C104.595 26.7526 108.248 26.802 111.839 26.5337C112.108 26.5149 112.385 26.6067 112.858 26.6773C112.468 27.8046 112.112 28.8402 111.757 29.8639C107.749 30.2099 103.48 29.1861 100.364 32.6152C99.8082 33.2271 99.674 34.2203 99.248 35.2723H109.905C109.457 36.802 109.069 38.127 108.667 39.4991Z" fill="#B18D32"/>
<path d="M163.975 40C163.975 40 163.194 39.4399 161.817 38.5503C159.284 36.9099 157.239 39.0539 154.905 39.88C154.905 39.88 150.343 39.7929 147.969 39.8612C150.751 35.8673 153.716 32.3417 158.171 30.5366C160.678 29.5223 163.615 30.1836 165.387 32.4194C167.077 34.5517 168.938 37.59 170.442 39.8706C170.447 39.8706 165.243 39.9765 163.975 40Z" fill="#B18D32"/>
<path d="M78.619 29.9902H71.9609C72.401 28.7594 72.7729 27.7144 73.173 26.5918H86.7621C85.3123 31.0352 83.9308 35.2715 82.5446 39.5219H75.4959C76.555 36.2858 77.5528 33.2475 78.619 29.9902Z" fill="#B18D32"/>
<path d="M92.6075 29.906H87.0273C87.371 28.7246 87.6698 27.6984 87.9993 26.5664H93.8784C93.4147 27.7879 93.0193 28.8234 92.6075 29.906Z" fill="#B18D32"/>
<path d="M77.5859 7.28691C78.0355 6.01838 78.4238 4.92165 78.805 3.84375H82.7683C82.3776 5.08404 82.0435 6.14076 81.681 7.28691H77.5859Z" fill="#B18D32"/>
<path d="M88.2734 3.9043C87.8662 5.15165 87.5038 6.2578 87.1507 7.33805H83.1992C83.5405 6.1919 83.8488 5.15165 84.2206 3.9043H88.2734Z" fill="#B18D32"/>
</svg>
