<svg width="88" height="296" viewBox="0 0 88 296" fill="none" xmlns="http://www.w3.org/2000/svg">
<path d="M0 60H87V51.981L45.9023 53.7878L61.3313 34.4823L87 34.5823V26.6863L61.3467 26.7863L40.7363 6.91953L87 7.44235V0L0 1.24551V6.45055L32.1724 6.81958L44.3187 26.8555L1.0301 27.0169V34.2517L45.6256 34.4285L37.5921 54.1492L0 55.8022V60Z" fill="#4C86AA"/>
<path d="M88.3712 73H0V80.255H88.3712V73Z" fill="#68B7A5"/>
<path d="M35.6108 98.8555H0V106.11H35.6108V98.8555Z" fill="#68B7A5"/>
<path d="M88.3765 98.8555H52.7656V106.11H88.3765V98.8555Z" fill="#68B7A5"/>
<path d="M88.3712 124.703H0V131.958H88.3712V124.703Z" fill="#68B7A5"/>
<path d="M85.9324 199.191C85.3458 199.368 84.7825 199.546 84.2345 199.723C81.5332 200.588 79.2024 201.329 74.2243 201.329H69.1227C64.1368 201.329 61.8059 200.588 59.1123 199.723C56.1255 198.774 52.745 197.693 46.3313 197.693C39.9177 197.693 36.5294 198.774 33.5425 199.723C30.8412 200.588 28.5104 201.329 23.5323 201.329C18.5542 201.329 16.2234 200.588 13.5221 199.723C10.5352 198.774 7.15465 197.693 0.740986 197.693C0.49401 197.693 0.247071 197.693 0.0078125 197.693V205.712C0.247071 205.712 0.49401 205.712 0.740986 205.712C5.72682 205.712 8.05773 206.453 10.7513 207.318C13.7382 208.267 17.1186 209.348 23.5323 209.348C29.946 209.348 33.3342 208.267 36.3134 207.318C39.0147 206.453 41.3455 205.712 46.3236 205.712C51.3017 205.712 53.6326 206.453 56.3339 207.318C59.2821 208.259 62.6241 209.324 68.9065 209.348H74.448C79.9741 209.324 83.2234 208.499 85.9324 207.657V199.191Z" fill="#6544AE"/>
<path d="M85.9323 172.311C85.3303 172.488 84.7669 172.674 84.2344 172.843C81.5331 173.708 79.2023 174.449 74.2242 174.449H69.1226C64.1444 174.449 61.8135 173.708 59.1122 172.843C56.1254 171.894 52.7372 170.813 46.3313 170.813C39.9253 170.813 36.5371 171.894 33.5502 172.843C30.8489 173.708 28.5181 174.449 23.5322 174.449C18.5464 174.449 16.2233 173.708 13.522 172.843C10.5351 171.894 7.15465 170.813 0.733268 170.813C0.486291 170.813 0.239258 170.813 0 170.813V178.833C0.239258 178.833 0.486291 178.833 0.733268 178.833C5.7191 178.833 8.04992 179.573 10.7435 180.438C13.7304 181.387 17.1108 182.468 23.5245 182.468C29.9382 182.468 33.3264 181.387 36.3133 180.438C39.0146 179.573 41.3454 178.833 46.3235 178.833C51.3016 178.833 53.6325 179.573 56.3338 180.438C59.2821 181.379 62.6317 182.445 68.9064 182.468H74.4479C79.974 182.445 83.2233 181.619 85.9323 180.777V172.318V172.311Z" fill="#6544AE"/>
<path d="M85.9323 154.914V146.455C85.3303 146.633 84.7669 146.818 84.2344 146.988C81.5331 147.852 79.2023 148.593 74.2242 148.593H69.1226C64.1444 148.593 61.8135 147.852 59.1122 146.988C56.1254 146.031 52.7372 144.958 46.3313 144.958C39.9253 144.958 36.5371 146.039 33.5502 146.988C30.8489 147.852 28.5181 148.593 23.5322 148.593C18.5464 148.593 16.2233 147.852 13.522 146.988C10.5351 146.039 7.15465 144.958 0.733268 144.958C0.486291 144.958 0.239258 144.958 0 144.958V152.977C0.239258 152.977 0.486291 152.977 0.733268 152.977C5.7191 152.977 8.04992 153.718 10.7435 154.582C13.7304 155.532 17.1108 156.612 23.5245 156.612C29.9382 156.612 33.3187 155.532 36.3056 154.582C39.0069 153.718 41.3377 152.977 46.3158 152.977C51.2939 152.977 53.6325 153.718 56.326 154.582C59.2743 155.524 62.6162 156.589 68.891 156.612H69.2846H74.4248C79.9509 156.589 83.2079 155.763 85.917 154.922" fill="#6544AE"/>
<path d="M88 281.374H72.5963V238.064H88V232.913H72.5963V222.348H56.3051V232.913H34.1334V222.348H17.032V232.913H0V238.064H17.032V281.374H0V286.132H17.032V295.348H34.1334V286.132H56.3051V295.348H72.5963V286.132H88V281.374ZM56.3051 281.374H34.1334V238.064H56.3051V281.374Z" fill="#5964AC"/>
</svg>
