<svg width="64" height="64" viewBox="0 0 64 64" fill="none" xmlns="http://www.w3.org/2000/svg">
<path opacity="0.1" d="M32 21L32 3" stroke="white" stroke-width="2" stroke-linecap="round"/>
<path d="M32 21L32 18" stroke="white" stroke-width="2" stroke-linecap="round"/>
<path d="M31.2308 39.653L22.347 30.7692C21.8843 30.3528 21.8843 29.6588 22.347 29.1961C22.7634 28.7796 23.4575 28.7796 23.9202 29.1961L32.0174 37.3395L40.1145 29.2423C40.5309 28.7796 41.225 28.7796 41.6877 29.2423C42.1041 29.6588 42.1041 30.3528 41.6877 30.7692L32.7577 39.653C32.3412 40.1157 31.6472 40.1157 31.2308 39.653ZM22.347 21.8855C21.8843 21.4691 21.8843 20.775 22.347 20.3123C22.7634 19.8959 23.4575 19.8959 23.9202 20.3123L32.0174 28.4558L40.1145 20.3586C40.5309 19.8959 41.225 19.8959 41.6877 20.3586C42.1041 20.775 42.1041 21.4691 41.6877 21.8855L32.7577 30.7692C32.3412 31.2319 31.6472 31.2319 31.2308 30.7692L22.347 21.8855Z" fill="white"/>
</svg>
