<svg width="325" height="134" viewBox="0 0 325 134" fill="none" xmlns="http://www.w3.org/2000/svg">
<path d="M160.145 45.1865H164.379V56.2459H160.145V45.1865Z" fill="#00665E"/>
<path d="M160.145 31.4951H164.379V43.6777H160.145V31.4951Z" fill="#00665E"/>
<path d="M160.577 21.7727L160.88 21.211C161.096 20.9086 161.269 20.563 161.441 20.2174C161.658 19.8286 161.917 19.4398 162.176 19.0078C162.435 19.3966 162.694 19.7854 162.91 20.2174C163.083 20.5198 163.299 20.8654 163.472 21.211L163.99 22.2047L164.336 22.8527V30.1536H160.102V22.5503L160.275 22.2479L160.577 21.7727Z" fill="#00665E"/>
<path d="M152.152 61.2148V66.0533C152.152 70.8918 155.565 74.9526 160.144 75.9462V67.9109H164.378V75.9462C168.957 74.9526 172.37 70.935 172.37 66.0533V61.2148L176.215 68.1701L176.172 68.2997C175.135 74.5206 170.253 79.1862 164.162 80.0503L162.218 81.3895L160.231 80.0071C154.183 79.1863 149.344 74.5206 148.307 68.2997L148.264 68.1701L152.152 61.2148Z" fill="#00665E"/>
<path d="M161.655 11.7505L162.174 11.1889L162.347 11.0161L162.519 10.8433C162.779 10.5409 163.038 10.2817 163.297 9.93612C163.859 9.37451 164.463 8.81291 165.025 8.2945C165.63 7.7761 166.191 7.25769 166.753 6.78249C167.358 6.35048 167.92 5.87527 168.481 5.44327C169.043 5.05446 169.648 4.66567 170.209 4.27686C170.771 3.93126 171.289 3.58565 171.851 3.28324C172.369 2.98084 172.931 2.72164 173.406 2.46243C173.881 2.20323 174.4 1.98723 174.832 1.77122C175.739 1.38242 176.516 0.993617 177.208 0.734414C178.59 0.259208 179.281 3.69255e-10 179.281 3.69255e-10C179.281 3.69255e-10 178.676 0.561617 177.596 1.46883C177.078 1.90083 176.43 2.50564 175.696 3.11044C174.961 3.71525 174.14 4.49286 173.32 5.27047C172.888 5.65927 172.412 6.04807 171.98 6.52328C171.548 6.95529 170.987 7.4305 170.555 7.9057C170.08 8.38091 169.604 8.89931 169.086 9.37452C168.697 9.84972 168.179 10.3249 167.747 10.8001C166.364 11.0161 165.068 11.2753 163.859 11.5777L163.34 11.7073L163.167 11.7505L163.081 11.7937L162.822 11.837L162.519 11.9233L162.303 11.9665L162.087 11.9233L161.655 11.7937V11.7505Z" fill="#00665E"/>
<path d="M161.224 11.4037L161.008 11.7061L160.619 11.5765C159.28 11.2309 157.897 10.9717 156.471 10.7557C156.083 10.3237 155.651 9.84851 155.219 9.37331C154.743 8.8981 154.225 8.3797 153.75 7.90449C153.318 7.42929 152.756 6.99727 152.324 6.52207C151.892 6.09006 151.417 5.61486 150.942 5.26926C150.035 4.49165 149.257 3.71404 148.523 3.15243C147.788 2.54763 147.14 1.94281 146.622 1.51081C145.542 0.603596 144.937 0.0419922 144.937 0.0419922C144.937 0.0419922 145.715 0.257997 147.054 0.733203C147.745 0.949206 148.523 1.2948 149.43 1.72681C149.862 1.94281 150.38 2.11562 150.899 2.41802C151.374 2.67722 151.892 2.93642 152.454 3.23883C152.972 3.49803 153.534 3.84364 154.095 4.23245C154.657 4.57805 155.262 4.92365 155.823 5.39885C156.385 5.78766 156.99 6.21967 157.551 6.73807C158.113 7.21328 158.718 7.73168 159.28 8.20689C159.841 8.72529 160.446 9.28691 161.008 9.84851C161.267 10.1077 161.526 10.4101 161.785 10.7557L161.483 11.1445L161.224 11.4037Z" fill="#00665E"/>
<path d="M152.975 32.9612C153.018 31.7083 153.191 30.3691 153.407 28.9867C153.623 27.5611 154.011 26.0923 154.487 24.5803C154.832 23.4138 155.264 22.2474 155.826 21.081L158.115 19.9578C158.418 19.8282 158.72 19.6986 159.023 19.569C159.541 19.353 160.059 19.137 160.578 18.9642L161.312 18.6618L161.874 18.4458L162.09 18.3594L161.96 18.5754C161.658 19.0506 161.355 19.5258 161.053 20.001C160.88 20.3034 160.664 20.649 160.491 20.9946C160.319 21.297 160.146 21.6426 159.973 21.9882C159.627 22.6362 159.325 23.3274 158.936 23.9754C158.634 24.6234 158.331 25.3147 158.029 25.9627C157.467 27.3019 156.949 28.5979 156.517 29.8075C156.128 31.0603 155.739 32.2699 155.437 33.3932C154.832 35.6396 154.443 37.5836 154.184 38.966C154.098 39.6572 154.011 40.2188 153.968 40.6076C153.925 40.9964 153.925 41.1693 153.925 41.1693C153.925 41.1693 153.882 40.9964 153.752 40.6076C153.666 40.262 153.536 39.7004 153.407 38.966C153.277 38.2748 153.147 37.4108 153.104 36.374C152.931 35.3372 152.931 34.1708 152.975 32.9612Z" fill="#00665E"/>
<path d="M162.348 18.3174L162.564 18.4038L163.212 18.663L163.946 18.9654C164.465 19.1814 164.983 19.3542 165.501 19.5702C165.804 19.6998 166.106 19.8294 166.409 19.959L168.612 21.039C169.13 22.2054 169.605 23.3718 169.994 24.5383C170.469 26.0503 170.815 27.5191 171.117 28.9015C171.333 30.3271 171.506 31.6663 171.593 32.8759C171.636 34.1288 171.636 35.252 171.593 36.2456C171.549 37.2392 171.42 38.1032 171.29 38.8376C171.204 39.5288 171.074 40.0904 170.988 40.4792C170.901 40.8248 170.815 41.0408 170.815 41.0408C170.815 41.0408 170.772 40.8248 170.772 40.4792C170.729 40.1336 170.642 39.5288 170.556 38.8376C170.34 37.4552 169.951 35.5112 169.303 33.2648C169.001 32.1415 168.612 30.9751 168.137 29.6791C167.705 28.4263 167.143 27.0871 166.581 25.8343C166.279 25.1863 165.977 24.4951 165.631 23.847C165.329 23.199 164.983 22.5078 164.594 21.8598C164.421 21.5574 164.249 21.2118 164.076 20.8662C163.86 20.5638 163.687 20.2614 163.514 19.8726C163.255 19.3974 162.953 18.9222 162.607 18.447L162.348 18.3174Z" fill="#00665E"/>
<path d="M163.427 12.225L163.687 12.1818L163.989 12.0954C165.069 11.7929 166.149 11.577 167.272 11.4042L167.661 11.361L168.05 11.3177C168.568 11.2745 169.043 11.1881 169.562 11.1017C171.117 10.9289 172.715 10.8857 174.184 10.8857H174.832C176.474 10.9289 178.072 11.0585 179.498 11.2745C180.967 11.4905 182.263 11.7498 183.343 12.0522C184.509 12.3546 185.416 12.657 186.237 13.0026C187.015 13.2618 187.62 13.6074 188.008 13.7802C188.397 13.9962 188.613 14.0826 188.613 14.0826C188.613 14.0826 188.397 14.0394 187.922 14.0394C187.49 13.9962 186.842 13.9962 186.021 13.953C185.503 13.953 184.941 13.9098 184.293 13.9098C182.911 13.9098 181.226 13.953 179.368 14.0826C177.986 14.169 176.517 14.3418 175.005 14.5146C173.493 14.7306 171.938 14.9898 170.339 15.3354C169.907 15.1194 169.389 14.8602 168.914 14.601C168.611 14.4714 168.309 14.3418 168.007 14.2122C167.445 13.953 166.84 13.6938 166.235 13.4346L166.019 13.3482L165.803 13.2618L165.544 13.1754C165.112 13.0026 164.637 12.873 164.162 12.657L163.73 12.5274L163.557 12.4842L163.298 12.3978L163.427 12.225Z" fill="#85AF9A"/>
<path d="M137.163 31.7516C137.552 31.0604 138.157 30.1964 138.848 29.2892C139.15 28.814 139.539 28.2956 139.971 27.8203C140.36 27.3019 140.878 26.7835 141.31 26.2651C141.742 25.7035 142.304 25.1851 142.822 24.6235C143.341 24.1051 143.902 23.4571 144.55 22.9387C145.155 22.3771 145.803 21.7723 146.451 21.2107C147.099 20.6923 147.833 20.1307 148.525 19.569C149.216 19.0506 150.037 18.489 150.771 17.9706C151.549 17.4522 152.37 16.977 153.19 16.5018C153.493 16.329 153.838 16.1562 154.184 15.9834C154.962 16.1562 155.782 16.3722 156.474 16.545C156.776 16.6314 157.078 16.7178 157.381 16.761L157.424 16.8042L157.64 16.8474L157.856 16.8906C158.202 16.977 158.547 17.1066 158.936 17.193L160.189 17.5818C160.621 17.7114 161.01 17.8842 161.398 17.9706C161.01 18.1002 160.621 18.273 160.232 18.4458C159.454 18.7482 158.59 19.137 157.813 19.5258C157.208 19.785 156.646 20.0875 156.042 20.3467L155.696 20.5195L155.437 20.6491L155.35 20.6923C154.616 21.0811 153.882 21.4699 153.147 21.8587C152.413 22.2475 151.678 22.6795 150.944 23.1115C150.253 23.5435 149.518 24.0187 148.87 24.4075C148.179 24.8395 147.488 25.3147 146.883 25.7467C146.235 26.1355 145.63 26.6539 145.025 27.0427C144.421 27.4315 143.816 27.8203 143.297 28.2955C142.174 29.0732 141.181 29.8508 140.273 30.5852C139.366 31.2764 138.589 31.8812 137.984 32.3996C136.731 33.4364 135.953 33.998 135.953 33.998C135.953 33.998 136.342 33.1772 137.163 31.7516Z" fill="#85AF9A"/>
<path d="M136.514 13.6933C136.903 13.5205 137.508 13.2181 138.285 12.9157C139.063 12.6133 140.013 12.3109 141.18 11.9652C142.303 11.6628 143.599 11.4036 145.025 11.1876C146.493 10.9716 148.049 10.8852 149.69 10.7988H150.338C151.807 10.7988 153.362 10.842 154.961 11.0148C155.35 11.058 155.782 11.1012 156.214 11.1444L156.602 11.1876L156.991 11.2308C158.158 11.4036 159.324 11.6196 160.49 11.922L160.663 11.9652L160.922 12.0085L161.182 12.0517L161.311 12.0948L161.743 12.2245L161.786 12.2677L162.132 12.3973C162.434 12.5269 162.823 12.6133 163.169 12.6997L163.644 12.8293L164.076 12.9589L164.508 13.1317L165.199 13.3909L165.415 13.4773L165.631 13.5637L165.761 13.6069C166.668 13.9525 167.532 14.3845 168.439 14.8165C168.742 14.9461 169.001 15.1189 169.347 15.2485L169.649 15.4213L170.124 15.8101C170.427 15.9829 170.772 16.1557 171.118 16.3285C171.939 16.8037 172.759 17.3221 173.537 17.7973C174.315 18.3157 175.092 18.8773 175.783 19.3957C176.475 19.9573 177.209 20.5189 177.857 21.0374C178.505 21.599 179.153 22.2038 179.758 22.7654C180.363 23.2838 180.924 23.9318 181.486 24.4934C182.047 25.055 182.566 25.5734 182.998 26.135C183.43 26.6534 183.905 27.215 184.337 27.7334C184.726 28.2518 185.072 28.7702 185.46 29.2022C186.152 30.1527 186.713 30.9735 187.145 31.6647C188.052 33.0903 188.484 33.9111 188.484 33.9111C188.484 33.9111 187.707 33.3495 186.454 32.3127C185.849 31.7943 185.028 31.1895 184.164 30.4983C183.3 29.8071 182.264 29.0295 181.14 28.2086C180.622 27.8198 179.974 27.3878 179.412 26.9558C178.807 26.567 178.203 26.0486 177.555 25.6598C176.907 25.271 176.215 24.7526 175.567 24.3206C174.876 23.9318 174.142 23.4134 173.494 23.0246C172.803 22.6358 172.025 22.2038 171.291 21.7718C170.556 21.3398 169.735 20.9942 169.001 20.5621L168.655 20.3893L168.31 20.2165C167.791 19.9573 167.187 19.6981 166.668 19.4389C165.891 19.1365 165.026 18.7477 164.249 18.3589C163.86 18.2293 163.471 18.0565 163.039 17.8837L162.91 17.8405L162.694 17.7541L162.478 17.6677L162.348 17.6245L161.959 17.4949L161.83 17.4517L161.614 17.3653L161.225 17.2357L160.62 17.0197C160.231 16.8901 159.799 16.7605 159.367 16.6309C159.065 16.5445 158.762 16.4581 158.374 16.3717L158.158 16.3285L157.898 16.2853C157.596 16.1989 157.207 16.1125 156.862 15.9829C156.257 15.8533 155.652 15.6805 155.047 15.5941L154.702 15.5077L154.399 15.4645L154.356 15.4213C152.758 15.0757 151.159 14.8165 149.647 14.6005C148.092 14.3845 146.666 14.2549 145.284 14.1685C143.426 14.0389 141.741 13.9957 140.359 13.9957C139.754 13.9957 139.149 13.9957 138.631 14.0389C137.853 14.0821 137.162 14.0821 136.73 14.1253C136.298 14.1685 136.039 14.1685 136.039 14.1685C136.039 14.1685 136.082 13.8661 136.514 13.6933Z" fill="#85AF9A"/>
<path d="M158.633 50.6739V57.9316H165.891V50.6739L198.594 30.6289C198.594 31.1473 198.378 31.6225 197.946 31.9249L170.125 52.4452V65.6213C170.125 68.5158 168.569 71.1942 166.021 72.4902L165.977 72.5334L165.934 72.5766V66.3557H158.676V72.5766L158.633 72.5334L158.59 72.4902C155.998 71.1942 154.486 68.5158 154.486 65.6213V52.4452L126.665 31.9249C126.276 31.6225 126.017 31.1473 126.017 30.6289L158.633 50.6739ZM165.891 60.2644H158.633V63.9365H165.891V60.2644Z" fill="#85AF9A"/>
<path d="M19.2145 121.947L19.2123 124.367C19.2122 124.387 19.1122 124.407 18.8922 124.407L11.7522 124.4C8.29223 124.397 6.01403 122.415 6.01688 119.295C6.01973 116.175 8.20153 114.197 11.4815 114.2C13.1615 114.202 14.8211 114.723 15.8605 115.304L15.8545 121.944L19.2145 121.947ZM11.4145 121.94L13.4745 121.942L13.479 116.942C12.8593 116.601 12.1195 116.441 11.2995 116.44C9.61949 116.438 8.37861 117.397 8.37695 119.217C8.37535 120.977 9.57447 121.938 11.4145 121.94ZM8.10443 111.017C8.10516 110.217 8.74575 109.578 9.56575 109.578C10.3457 109.579 10.9852 110.22 10.9844 111.02C10.9837 111.82 10.3431 112.459 9.56312 112.458C8.74312 112.458 8.1037 111.817 8.10443 111.017ZM12.0444 111.021C12.0452 110.221 12.6657 109.581 13.4657 109.582C14.2657 109.583 14.9052 110.223 14.9044 111.023C14.9037 111.823 14.2631 112.463 13.4631 112.462C12.6631 112.461 12.0437 111.821 12.0444 111.021ZM27.457 121.955L27.777 121.955L27.7748 124.375C27.7747 124.395 27.6747 124.415 27.4547 124.415L27.4347 124.415C25.8947 124.413 24.475 124.052 23.1757 123.311C21.895 124.05 20.4747 124.408 18.9147 124.407L18.8947 124.407C18.6747 124.407 18.5747 124.387 18.5748 124.367L18.577 121.947L18.897 121.947C20.117 121.948 21.1372 121.729 21.9975 121.31L22.0038 114.41L24.3838 114.412L24.3775 121.312C25.1772 121.733 26.317 121.954 27.457 121.955ZM19.8121 127.308C19.8128 126.488 20.4534 125.868 21.2734 125.869C22.0734 125.87 22.6928 126.51 22.6921 127.31C22.6914 128.09 22.0508 128.73 21.2708 128.729C20.4508 128.728 19.8114 128.088 19.8121 127.308ZM23.7521 127.311C23.7528 126.491 24.3734 125.872 25.1734 125.873C25.9734 125.873 26.6128 126.494 26.6121 127.314C26.6114 128.094 25.9708 128.733 25.1708 128.733C24.3708 128.732 23.7514 128.091 23.7521 127.311ZM36.0116 121.962L36.3316 121.963L36.3294 124.383C36.3294 124.403 36.2294 124.423 36.0094 124.422L35.9894 124.422C34.4494 124.421 33.0297 124.06 31.7304 123.319C30.4497 124.057 29.0294 124.416 27.4694 124.415L27.4494 124.415C27.2294 124.414 27.1294 124.394 27.1294 124.374L27.1317 121.954L27.4517 121.955C28.6717 121.956 29.6919 121.737 30.5522 121.318L30.5585 114.418L32.9385 114.42L32.9322 121.32C33.7318 121.74 34.8716 121.961 36.0116 121.962ZM28.3815 111.176C28.3822 110.376 29.0228 109.736 29.8428 109.737C30.6228 109.738 31.2622 110.378 31.2615 111.178C31.2608 111.978 30.6202 112.618 29.8402 112.617C29.0202 112.616 28.3808 111.976 28.3815 111.176ZM32.3215 111.179C32.3222 110.379 32.9428 109.74 33.7428 109.74C34.5428 109.741 35.1822 110.382 35.1815 111.182C35.1808 111.982 34.5402 112.621 33.7402 112.62C32.9402 112.62 32.3208 111.979 32.3215 111.179ZM57.4063 121.982L57.7263 121.982L57.7241 124.402C57.7241 124.422 57.6241 124.442 57.4041 124.442L57.3841 124.442C55.9841 124.441 54.6444 124.099 53.385 123.438C52.4244 124.077 51.2241 124.436 49.9641 124.435C48.7841 124.434 47.7244 124.073 46.7851 123.372C45.8444 124.071 44.7641 124.43 43.5641 124.429C42.2041 124.428 41.0445 123.967 40.2451 123.346C39.3045 123.965 37.7641 124.424 36.0241 124.422L36.0041 124.422C35.7841 124.422 35.6841 124.402 35.6841 124.382L35.6863 121.962L36.0063 121.962C37.1463 121.964 38.1865 121.744 39.1069 121.305L39.111 116.885L41.491 116.887L41.4869 121.347C42.0865 121.768 42.7663 121.969 43.5063 121.969C44.2463 121.97 44.9065 121.771 45.5269 121.371L45.531 116.891L47.911 116.893L47.9069 121.373C48.5265 121.774 49.1863 121.975 49.9263 121.975C50.6663 121.976 51.3465 121.776 51.9469 121.357L51.9518 115.997L54.3318 115.999L54.3269 121.339C55.1265 121.76 56.2663 121.981 57.4063 121.982ZM69.3122 122.353L68.6703 124.452L57.4103 124.442C57.1903 124.442 57.0903 124.422 57.0904 124.402L57.0926 121.982L66.0126 121.99C65.3133 121.189 64.994 120.449 64.6152 119.149C63.9373 116.768 63.6379 116.148 61.858 116.026C61.038 116.025 60.2778 116.245 59.2972 116.864L58.0187 115.223C59.2796 114.264 60.6001 113.785 62.0001 113.786C64.92 113.849 65.8389 115.09 66.7361 118.171C67.3141 120.351 67.9328 121.732 69.3122 122.353ZM61.6077 127.346C61.6084 126.526 62.249 125.906 63.069 125.907C63.869 125.908 64.5084 126.528 64.5077 127.348C64.5069 128.168 63.8664 128.808 63.0664 128.807C62.2464 128.806 61.6069 128.166 61.6077 127.346ZM84.8013 122.007L84.7991 124.427C84.7991 124.447 84.6991 124.467 84.4791 124.467L81.4191 124.464C81.1758 128.044 78.9343 129.662 75.5143 129.659C74.3343 129.657 73.0145 129.456 71.9549 129.075L72.3769 126.816C73.1566 127.116 74.4164 127.378 75.5964 127.379C77.8964 127.381 78.9173 126.442 79.0591 124.462L77.3191 124.46C73.6991 124.457 71.5609 122.455 71.5635 119.575C71.5662 116.635 73.708 114.637 77.048 114.64C78.508 114.641 79.9877 115.003 81.447 115.744L81.4413 122.004L84.8013 122.007ZM76.9413 122L79.0613 122.002L79.0655 117.362C78.3659 117.021 77.646 116.86 76.906 116.86C75.166 116.858 73.9252 117.777 73.9237 119.437C73.9222 121.057 75.1613 121.998 76.9413 122ZM93.0429 122.015L93.3629 122.015L93.3607 124.435C93.3606 124.455 93.2606 124.475 93.0406 124.475L93.0206 124.474C91.4806 124.473 90.061 124.112 88.7616 123.371C87.481 124.109 86.0606 124.468 84.5006 124.467L84.4806 124.467C84.2606 124.467 84.1607 124.446 84.1607 124.426L84.1629 122.006L84.4829 122.007C85.7029 122.008 86.7231 121.789 87.5835 121.37L87.594 109.87L89.9739 109.872L89.9635 121.372C90.7631 121.792 91.9029 122.013 93.0429 122.015ZM98.5286 109.88L98.5172 122.4C97.3161 123.598 95.2353 124.477 93.0553 124.475L93.0353 124.475C92.8153 124.474 92.7153 124.454 92.7154 124.434L92.7176 122.014L93.0376 122.015C94.1576 122.016 95.3378 121.797 96.1381 121.377L96.1486 109.877L98.5286 109.88ZM102.555 124.483L102.569 109.883L104.949 109.885L104.935 124.485L102.555 124.483ZM113.525 119.673C113.526 118.593 113.708 117.433 114.089 116.194L116.268 116.596C116.007 117.495 115.887 118.295 115.886 118.975C115.884 121.015 117.083 122.036 119.483 122.039L127.563 122.046C129.243 122.048 130.604 121.809 131.324 121.469L131.33 114.509L133.71 114.512L133.702 123.292C132.362 124.01 130.081 124.508 127.221 124.506L119.321 124.498C115.641 124.495 113.522 123.173 113.525 119.673ZM120.251 113.719C120.252 112.919 120.892 112.28 121.712 112.281C122.492 112.281 123.132 112.922 123.131 113.722C123.13 114.522 122.49 115.161 121.71 115.161C120.89 115.16 120.25 114.519 120.251 113.719ZM124.191 113.723C124.192 112.923 124.812 112.283 125.612 112.284C126.412 112.285 127.052 112.926 127.051 113.726C127.05 114.526 126.41 115.165 125.61 115.164C124.81 115.163 124.19 114.523 124.191 113.723ZM142.998 122.06L143.318 122.06L143.316 124.48C143.316 124.5 143.216 124.52 142.996 124.52L142.976 124.52C141.216 124.518 139.617 124.077 138.477 123.436C137.758 123.055 137.518 122.655 137.519 121.795L137.53 109.915L139.91 109.917L139.899 121.417C140.719 121.838 141.858 122.059 142.998 122.06ZM155.58 120.332C155.577 123.332 153.455 125.53 150.515 125.527C148.895 125.525 147.476 124.864 146.537 123.683C145.456 124.242 144.276 124.521 143.016 124.52L142.996 124.52C142.776 124.52 142.676 124.5 142.676 124.48L142.678 122.06L142.998 122.06C144.018 122.061 144.879 121.902 145.579 121.602C145.479 121.222 145.44 120.802 145.44 120.322C145.443 117.322 147.585 115.124 150.525 115.127C153.465 115.13 155.583 117.332 155.58 120.332ZM153.22 120.329C153.222 118.649 152.143 117.428 150.483 117.427C148.883 117.425 147.802 118.644 147.8 120.324C147.799 122.004 148.877 123.225 150.477 123.227C152.137 123.228 153.219 122.009 153.22 120.329ZM169.988 122.085L169.986 124.505C169.986 124.525 169.886 124.545 169.666 124.544L157.726 124.534L157.728 122.074L164.548 122.08L164.551 119.32C164.552 117.48 163.793 116.939 161.793 116.937L159.593 116.935L159.595 114.555L161.255 114.557C165.495 114.561 166.934 115.802 166.931 119.222L166.928 122.082L169.988 122.085ZM183.159 122.097L183.156 124.517C183.156 124.537 183.056 124.557 182.836 124.556L169.656 124.544C169.436 124.544 169.336 124.524 169.336 124.504L169.339 122.084L178.239 122.092C177.519 121.292 177.22 120.571 176.841 119.231C176.123 116.85 175.924 116.23 174.084 116.128C173.264 116.128 172.524 116.347 171.543 116.966L170.265 115.325C171.506 114.366 172.826 113.887 174.246 113.889C177.146 113.951 178.065 115.152 178.962 118.313C179.421 119.933 179.84 121.054 180.639 121.854C180.859 122.035 181.219 122.095 181.879 122.096L183.159 122.097ZM172.989 110.947C172.99 110.127 173.63 109.488 174.45 109.489C175.25 109.49 175.89 110.13 175.889 110.95C175.888 111.75 175.247 112.389 174.447 112.389C173.627 112.388 172.988 111.747 172.989 110.947ZM188.333 109.961L188.322 122.481C187.121 123.68 185.04 124.558 182.86 124.556L182.84 124.556C182.62 124.556 182.52 124.536 182.52 124.516L182.522 122.096L182.842 122.096C183.962 122.097 185.142 121.879 185.943 121.459L185.953 109.959L188.333 109.961ZM192.36 124.565L192.373 109.965L194.753 109.967L194.74 124.567L192.36 124.565ZM207.834 115.859L207.826 123.879C207.823 127.959 205.561 129.777 201.901 129.774C200.721 129.773 199.401 129.572 198.342 129.191L198.764 126.931C199.543 127.232 200.803 127.493 201.983 127.494C204.283 127.496 205.304 126.557 205.446 124.577L203.706 124.575C200.086 124.572 197.948 122.57 197.95 119.69C197.953 116.75 200.095 114.752 203.435 114.755C204.895 114.757 206.374 115.118 207.834 115.859ZM203.328 122.115L205.448 122.117L205.452 117.477C204.753 117.136 204.033 116.976 203.293 116.975C201.553 116.973 200.312 117.892 200.31 119.552C200.309 121.172 201.548 122.113 203.328 122.115ZM232.84 122.142L233.16 122.142L233.157 124.562C233.157 124.582 233.057 124.602 232.837 124.602L232.817 124.602C231.737 124.601 230.697 124.42 229.718 124.039L229.714 127.839C228.934 128.378 227.933 128.838 226.753 129.216C225.573 129.595 224.313 129.794 223.013 129.793C218.613 129.789 216.095 127.427 216.098 123.327C216.099 122.347 216.24 121.327 216.501 120.307L218.681 120.709C218.5 121.449 218.42 122.169 218.419 122.849C218.416 125.849 220.015 127.35 223.195 127.353C224.615 127.355 225.995 127.056 227.336 126.437L227.351 109.997L229.731 109.999L229.72 121.499C230.58 121.92 231.62 122.141 232.84 122.142ZM247.142 122.155L247.14 124.615L232.84 124.602L232.842 122.142L236.942 122.146C235.603 121.085 234.924 119.744 234.926 118.164C234.928 115.424 237.05 113.586 240.01 113.589C242.99 113.591 245.068 115.433 245.066 118.173C245.064 119.753 244.383 121.093 243.042 122.151L247.142 122.155ZM237.306 118.466C237.305 119.246 237.564 119.946 238.104 120.527C238.643 121.107 239.283 121.548 240.002 121.829C240.703 121.529 241.323 121.11 241.864 120.53C242.404 119.951 242.685 119.251 242.686 118.471C242.687 116.891 241.588 115.87 240.008 115.869C238.428 115.867 237.307 116.926 237.306 118.466ZM236.593 110.405C236.594 109.605 237.234 108.966 238.054 108.967C238.834 108.968 239.474 109.608 239.473 110.408C239.472 111.208 238.832 111.848 238.052 111.847C237.232 111.846 236.592 111.205 236.593 110.405ZM240.533 110.409C240.534 109.609 241.154 108.97 241.954 108.97C242.754 108.971 243.394 109.612 243.393 110.412C243.392 111.212 242.752 111.851 241.952 111.85C241.152 111.85 240.532 111.209 240.533 110.409ZM255.699 122.163L256.019 122.163L256.017 124.583C256.017 124.603 255.917 124.623 255.697 124.623L255.677 124.623C254.137 124.621 252.717 124.26 251.418 123.519C250.137 124.258 248.717 124.617 247.157 124.615L247.137 124.615C246.917 124.615 246.817 124.595 246.817 124.575L246.819 122.155L247.139 122.155C248.359 122.156 249.379 121.937 250.24 121.518L250.246 114.618L252.626 114.62L252.62 121.52C253.419 121.941 254.559 122.162 255.699 122.163ZM250.009 111.378C250.01 110.558 250.65 109.918 251.47 109.919C252.27 109.92 252.91 110.56 252.909 111.38C252.908 112.18 252.268 112.82 251.468 112.819C250.648 112.818 250.008 112.178 250.009 111.378ZM261.185 110.028L261.173 122.548C259.972 123.747 257.891 124.625 255.711 124.623L255.691 124.623C255.471 124.623 255.372 124.603 255.372 124.583L255.374 122.163L255.694 122.163C256.814 122.164 257.994 121.945 258.794 121.526L258.805 110.026L261.185 110.028ZM265.211 124.632L265.225 110.032L267.605 110.034L267.591 124.634L265.211 124.632ZM275.802 119.641C275.805 116.641 277.927 114.443 280.867 114.446C283.807 114.449 285.925 116.65 285.922 119.65C285.919 122.65 283.797 124.849 280.857 124.846C277.917 124.843 275.799 122.641 275.802 119.641ZM283.582 119.648C283.583 117.968 282.464 116.727 280.844 116.726C279.244 116.724 278.163 117.963 278.162 119.643C278.16 121.323 279.219 122.544 280.839 122.546C282.459 122.547 283.58 121.328 283.582 119.648ZM277.469 111.263C277.47 110.463 278.111 109.823 278.931 109.824C279.711 109.825 280.35 110.465 280.349 111.265C280.349 112.065 279.708 112.705 278.928 112.704C278.108 112.703 277.469 112.063 277.469 111.263ZM281.409 111.266C281.41 110.466 282.031 109.827 282.831 109.828C283.631 109.828 284.27 110.469 284.269 111.269C284.269 112.069 283.628 112.708 282.828 112.708C282.028 112.707 281.409 112.066 281.409 111.266ZM285.228 129.75L285.69 127.37C285.99 127.411 286.27 127.431 286.55 127.431C288.81 127.433 289.691 126.334 289.693 124.014L289.701 114.914L292.081 114.916L292.073 123.996C292.069 128.056 290.048 129.854 286.628 129.851C286.128 129.851 285.648 129.81 285.228 129.75ZM296.012 124.66L296.026 110.06L298.406 110.062L298.392 124.662L296.012 124.66ZM298.157 129.762L298.619 127.382C298.919 127.422 299.199 127.443 299.479 127.443C301.739 127.445 302.62 126.346 302.623 124.026L302.631 114.926L305.011 114.928L305.003 124.008C304.999 128.068 302.977 129.866 299.557 129.863C299.057 129.862 298.577 129.822 298.157 129.762ZM302.414 111.526C302.415 110.706 303.055 110.066 303.875 110.067C304.675 110.068 305.315 110.708 305.314 111.528C305.313 112.328 304.673 112.968 303.873 112.967C303.053 112.966 302.413 112.326 302.414 111.526ZM317.99 115.96L317.983 123.98C317.979 128.06 315.717 129.878 312.057 129.874C310.877 129.873 309.557 129.672 308.498 129.291L308.92 127.031C309.7 127.332 310.959 127.593 312.139 127.594C314.439 127.596 315.46 126.657 315.602 124.678L313.862 124.676C310.242 124.673 308.104 122.671 308.106 119.791C308.109 116.851 310.251 114.853 313.591 114.856C315.051 114.857 316.531 115.218 317.99 115.96ZM313.484 122.216L315.604 122.218L315.608 117.578C314.909 117.237 314.189 117.076 313.449 117.076C311.709 117.074 310.468 117.993 310.467 119.653C310.465 121.273 311.704 122.214 313.484 122.216Z" fill="#111827"/>
</svg>
