<svg width="665" height="57" viewBox="0 0 665 57" fill="none" xmlns="http://www.w3.org/2000/svg">
<mask id="mask0_15611_9551" style="mask-type:luminance" maskUnits="userSpaceOnUse" x="-215" y="0" width="880" height="57">
<path d="M-107.279 51.2444H13.0339V43.497H-107.279V51.2444ZM92.0651 42.4718H90.1C87.6436 42.4718 86.3503 43.3065 85.2016 44.0534C84.2118 44.6978 83.4315 45.1958 81.6759 45.1958C79.9203 45.1958 79.1401 44.6832 78.1503 44.0534C77.0088 43.3211 75.7155 42.4718 73.2519 42.4718C70.7883 42.4718 69.5023 43.3065 68.3535 44.0534C67.3638 44.6978 66.5763 45.1958 64.8279 45.1958C63.0795 45.1958 62.292 44.6832 61.3022 44.0534C60.1607 43.3211 58.8675 42.4718 56.4111 42.4718C53.9547 42.4718 52.6615 43.3065 51.5127 44.0534C50.5229 44.6978 49.7427 45.1958 47.9871 45.1958H46.1014C44.353 45.1958 43.5656 44.6832 42.5757 44.0534C41.4343 43.3211 40.141 42.4718 37.6846 42.4718C35.2282 42.4718 33.935 43.3065 32.7863 44.0534C31.7965 44.6978 31.0162 45.1958 29.2606 45.1958C27.505 45.1958 26.7247 44.6832 25.7349 44.0534C24.5934 43.3211 23.3002 42.4718 20.8366 42.4718C20.5404 42.4718 20.2586 42.4717 19.9913 42.501V50.8342C20.2442 50.805 20.5259 50.7904 20.8366 50.7904C22.5922 50.7904 23.3725 51.3029 24.3622 51.9327C25.5038 52.6649 26.797 53.5144 29.2534 53.5144C31.7098 53.5144 33.0102 52.6796 34.1517 51.9327C35.1415 51.2882 35.9218 50.7904 37.6774 50.7904C39.433 50.7904 40.2133 51.3029 41.2031 51.9327C42.3301 52.6649 43.6089 53.4851 46.0147 53.5144H46.0942H48.0593C50.4651 53.4997 51.7439 52.6649 52.871 51.9327C53.8608 51.2882 54.6411 50.7904 56.3966 50.7904C58.1523 50.7904 58.9325 51.3029 59.9223 51.9327C61.0638 52.6649 62.3571 53.5144 64.8207 53.5144C67.2843 53.5144 68.5703 52.6796 69.719 51.9327C70.7088 51.2882 71.4891 50.7904 73.2447 50.7904C75.0003 50.7904 75.7806 51.3029 76.7704 51.9327C77.9119 52.6649 79.2051 53.5144 81.6687 53.5144C84.1324 53.5144 85.4184 52.6796 86.5671 51.9327C87.5569 51.2882 88.3372 50.7904 90.0928 50.7904H92.1807C93.9291 50.7904 94.7166 51.3029 95.7064 51.9327C96.8479 52.6649 98.1411 53.5144 100.605 53.5144C101.284 53.5144 101.876 53.4558 102.404 53.3386V44.9468C101.92 45.1079 101.349 45.1958 100.605 45.1958C98.8563 45.1958 98.0688 44.6832 97.079 44.0534C95.9376 43.3211 94.6443 42.4718 92.1807 42.4718H92.0579H92.0651ZM577.039 51.2444H584.675V33.4355H577.039V51.2444ZM588.497 51.2444H596.134V33.4355H588.497V51.2444ZM599.956 51.2444H606.834V33.4355H599.956V51.2444ZM611.414 51.2444H617.526V33.4355H611.414V51.2444ZM622.107 51.2444H626.687V33.4355H622.107V51.2444ZM632.041 51.2444H635.863V33.4355H632.041V51.2444ZM641.209 51.2444H643.499V33.4355H641.209V51.2444ZM648.08 51.2444H649.604V33.4355H648.08V51.2444ZM654.192 51.2444H654.958V33.4355H654.192V51.2444ZM659.921 51.2444H660.304V33.4355H659.921V51.2444ZM664.892 51.2444H665V33.4355H664.892V51.2444ZM-107.279 31.883H-82.1157V24.1356H-107.279V31.883ZM-75.7507 31.883H-50.587V24.1356H-75.7507V31.883ZM-44.2148 31.883H-19.0511V24.1356H-44.2148V31.883ZM-12.1298 31.883H13.0339V24.1356H-12.1298V31.883ZM92.0651 22.3343H90.1C87.6436 22.3343 86.3503 23.169 85.2016 23.9159C84.2118 24.5603 83.4315 25.0583 81.6759 25.0583C79.9203 25.0583 79.1401 24.5457 78.1503 23.9159C77.0088 23.1837 75.7155 22.3343 73.2519 22.3343C70.7883 22.3343 69.5023 23.169 68.3535 23.9159C67.3638 24.5603 66.5763 25.0583 64.8279 25.0583C63.0795 25.0583 62.292 24.5457 61.3022 23.9159C60.1607 23.1837 58.8675 22.3343 56.4111 22.3343C53.9547 22.3343 52.6615 23.169 51.5127 23.9159C50.5229 24.5603 49.7427 25.0583 47.9871 25.0583H46.1014C44.353 25.0583 43.5656 24.5457 42.5757 23.9159C41.4343 23.1837 40.141 22.3343 37.6846 22.3343C35.2282 22.3343 33.935 23.169 32.7863 23.9159C31.7965 24.5603 31.0162 25.0583 29.2606 25.0583C27.505 25.0583 26.7247 24.5457 25.7349 23.9159C24.5934 23.1837 23.3002 22.3343 20.8366 22.3343C20.5404 22.3343 20.2586 22.3342 19.9913 22.3635V30.6968C20.2442 30.6675 20.5259 30.6529 20.8366 30.6529C22.5922 30.6529 23.3725 31.1508 24.3622 31.7952C25.5038 32.5275 26.797 33.3769 29.2534 33.3769C31.7098 33.3769 33.0102 32.5421 34.1517 31.7952C35.1415 31.1508 35.9218 30.6529 37.6774 30.6529C39.433 30.6529 40.2133 31.1508 41.2031 31.7952C42.3301 32.5275 43.6089 33.3476 46.0147 33.3623H46.0942H48.0593C50.4651 33.3476 51.7439 32.5129 52.871 31.7806C53.8608 31.1362 54.6411 30.6382 56.3966 30.6382C58.1523 30.6382 58.9325 31.1362 59.9223 31.7806C61.0638 32.5129 62.3571 33.3623 64.8207 33.3623C67.2843 33.3623 68.5703 32.5275 69.719 31.7806C70.7088 31.1362 71.4891 30.6382 73.2447 30.6382C75.0003 30.6382 75.7806 31.1362 76.7704 31.7806C77.9119 32.5129 79.2051 33.3623 81.6687 33.3623C84.1324 33.3623 85.4184 32.5275 86.5671 31.7806C87.5569 31.1362 88.3372 30.6382 90.0928 30.6382H92.1807C93.9291 30.6382 94.7166 31.1362 95.7064 31.7806C96.8479 32.5129 98.1411 33.3623 100.605 33.3623C101.284 33.3623 101.876 33.3037 102.404 33.1865V24.7947C101.92 24.9558 101.349 25.0437 100.605 25.0437C98.8563 25.0437 98.0688 24.5311 97.079 23.9014C95.9376 23.1691 94.6443 22.3196 92.1807 22.3196H92.0579L92.0651 22.3343ZM-107.279 12.5365H13.0339V4.789H-107.279V12.5365ZM109.282 4.789V10.9841L195.263 11.8628L198.846 23.8281L109.665 24.1503V31.8977L199.511 32.22L197.019 44.6099L109.282 45.8255V51.2444H571.31V42.7207L201.606 44.4489L206.418 32.2492L571.31 32.6446V23.3595L206.353 23.7549L205.024 21.148L200.32 11.9506L571.31 13.2834V4.75977H109.282V4.789ZM577.039 22.5979H584.675V4.789H577.039V22.5979ZM588.497 22.5979H596.134V4.789H588.497V22.5979ZM599.956 22.5979H606.834V4.789H599.956V22.5979ZM611.414 22.5979H617.526V4.789H611.414V22.5979ZM622.107 22.5979H626.687V4.789H622.107V22.5979ZM632.041 22.5979H635.863V4.789H632.041V22.5979ZM641.209 22.5979H643.499V4.789H641.209V22.5979ZM648.08 22.5979H649.604V4.789H648.08V22.5979ZM654.192 22.5979H654.958V4.789H654.192V22.5979ZM659.921 22.5979H660.304V4.789H659.921V22.5979ZM664.892 22.5979H665V4.789H664.892V22.5979ZM92.0651 2.98764H90.1C87.6436 2.98764 86.3503 3.82245 85.2016 4.56937C84.2118 5.21377 83.4315 5.71167 81.6759 5.71167C79.9203 5.71167 79.1401 5.19912 78.1503 4.56937C77.0088 3.82245 75.7155 2.98764 73.2519 2.98764C70.7883 2.98764 69.5023 3.82245 68.3535 4.56937C67.3638 5.21377 66.5763 5.71167 64.8279 5.71167C63.0795 5.71167 62.292 5.19912 61.3022 4.56937C60.1607 3.82245 58.8675 2.98764 56.4111 2.98764C53.9547 2.98764 52.6615 3.82245 51.5127 4.56937C50.5229 5.21377 49.7427 5.71167 47.9871 5.71167H46.1014C44.353 5.71167 43.5656 5.19912 42.5757 4.56937C41.4343 3.82245 40.141 2.98764 37.6846 2.98764C35.2282 2.98764 33.935 3.82245 32.7863 4.56937C31.7965 5.21377 31.0162 5.71167 29.2606 5.71167C27.505 5.71167 26.7247 5.19912 25.7349 4.56937C24.5934 3.82245 23.3002 2.98764 20.8366 2.98764C20.5404 2.98764 20.2586 2.98766 19.9913 3.01696V11.3502C20.2442 11.3209 20.5259 11.3062 20.8366 11.3062C22.5922 11.3062 23.3725 11.8189 24.3622 12.4486C25.5038 13.1809 26.797 14.0303 29.2534 14.0303C31.7098 14.0303 33.0102 13.1955 34.1517 12.4486C35.1415 11.8042 35.9218 11.3062 37.6774 11.3062C39.433 11.3062 40.2133 11.8189 41.2031 12.4486C42.3301 13.1809 43.6089 14.001 46.0147 14.0303H46.0942H48.0593C50.4651 14.0156 51.7439 13.1809 52.871 12.4486C53.8608 11.8042 54.6411 11.3062 56.3966 11.3062C58.1523 11.3062 58.9325 11.8189 59.9223 12.4486C61.0638 13.1809 62.3571 14.0303 64.8207 14.0303C67.2843 14.0303 68.5703 13.1955 69.719 12.4486C70.7088 11.8042 71.4891 11.3062 73.2447 11.3062C75.0003 11.3062 75.7806 11.8189 76.7704 12.4486C77.9119 13.1809 79.2051 14.0303 81.6687 14.0303C84.1324 14.0303 85.4184 13.1955 86.5671 12.4486C87.5569 11.8042 88.3372 11.3062 90.0928 11.3062H92.1807C93.9291 11.3062 94.7166 11.8189 95.7064 12.4486C96.8479 13.1809 98.1411 14.0303 100.605 14.0303C101.284 14.0303 101.876 13.9717 102.404 13.8545V5.46272C101.92 5.62382 101.349 5.71167 100.605 5.71167C98.8563 5.71167 98.0688 5.19912 97.079 4.56937C95.9376 3.82245 94.6443 2.98764 92.1807 2.98764H92.0579H92.0651ZM-202.769 12.6976H-194.67V45.0054H-202.769V12.6976ZM-188.254 12.6976H-180.199V45.0054H-188.254V12.6976ZM-174.123 12.6976H-165.72V45.0054H-174.123V12.6976ZM-159.225 12.6976H-151.242V45.0054H-159.225V12.6976ZM-144.711 12.6976H-136.771V45.0054H-144.711V12.6976ZM-130.196 12.6976H-122.292V45.0054H-130.196V12.6976ZM-122.3 0V8.55288H-130.203V0H-136.778V8.55288H-144.718V0H-151.249V8.55288H-159.232V0H-165.727V8.55288H-174.13V0H-180.206V8.55288H-188.261V0H-194.677V8.55288H-202.776V0H-209.155V8.55288H-215V12.6976H-209.155V45.0054H-215V49.1501H-209.155V57H-202.776V49.1501H-194.677V57H-188.261V49.1501H-180.206V57H-174.13V49.1501H-165.727V57H-159.232V49.1501H-151.249V57H-144.718V49.1501H-136.778V57H-130.203V49.1501H-122.3V57H-116.455V49.1501H-110.805V45.0054H-116.455V12.6976H-110.805V8.55288H-116.455V0H-122.3Z" fill="white"/>
</mask>
<g mask="url(#mask0_15611_9551)">
<path d="M664.993 0H-214.992V57.0147H664.993V0Z" fill="url(#paint0_linear_15611_9551)"/>
</g>
<defs>
<linearGradient id="paint0_linear_15611_9551" x1="664.993" y1="19.0054" x2="-214.992" y2="19.0054" gradientUnits="userSpaceOnUse">
<stop stop-color="#6544AE"/>
<stop offset="0.4" stop-color="#4C86AA"/>
<stop offset="1" stop-color="#68B7A5"/>
</linearGradient>
</defs>
</svg>
