<svg width="111" height="84" viewBox="0 0 111 84" fill="none" xmlns="http://www.w3.org/2000/svg">
<path d="M111.34 70.2681C110.58 70.4981 109.85 70.7281 109.14 70.9581C105.64 72.0781 102.62 73.0381 96.1698 73.0381H89.5598C83.0998 73.0381 80.0797 72.0781 76.5897 70.9581C72.7197 69.7281 68.3398 68.3281 60.0298 68.3281C51.7198 68.3281 47.3297 69.7281 43.4597 70.9581C39.9597 72.0781 36.9397 73.0381 30.4897 73.0381C24.0397 73.0381 21.0198 72.0781 17.5198 70.9581C13.6498 69.7281 9.26972 68.3281 0.959717 68.3281C0.639717 68.3281 0.319766 68.3281 0.00976562 68.3281V78.7181C0.319766 78.7181 0.639717 78.7181 0.959717 78.7181C7.41972 78.7181 10.4398 79.6781 13.9298 80.7981C17.7998 82.0281 22.1797 83.4281 30.4897 83.4281C38.7997 83.4281 43.1898 82.0281 47.0498 80.7981C50.5498 79.6781 53.5698 78.7181 60.0198 78.7181C66.4698 78.7181 69.4897 79.6781 72.9897 80.7981C76.8097 82.0181 81.1398 83.3981 89.2798 83.4281H96.4597C103.62 83.3981 107.83 82.3281 111.34 81.2381V70.2681Z" fill="#6544AE"/>
<path d="M111.34 35.44C110.56 35.67 109.83 35.91 109.14 36.13C105.64 37.25 102.62 38.21 96.17 38.21H89.5601C83.1101 38.21 80.09 37.25 76.59 36.13C72.72 34.9 68.33 33.5 60.03 33.5C51.73 33.5 47.34 34.9 43.47 36.13C39.97 37.25 36.95 38.21 30.49 38.21C24.03 38.21 21.02 37.25 17.52 36.13C13.65 34.9 9.27007 33.5 0.950073 33.5C0.630073 33.5 0.31 33.5 0 33.5V43.89C0.31 43.89 0.630073 43.89 0.950073 43.89C7.41007 43.89 10.43 44.85 13.92 45.97C17.79 47.2 22.17 48.6 30.48 48.6C38.79 48.6 43.18 47.2 47.05 45.97C50.55 44.85 53.57 43.89 60.02 43.89C66.47 43.89 69.49 44.85 72.99 45.97C76.81 47.19 81.15 48.57 89.28 48.6H96.46C103.62 48.57 107.83 47.5 111.34 46.41V35.45V35.44Z" fill="#6544AE"/>
<path d="M111.34 12.9V1.94C110.56 2.17 109.83 2.41 109.14 2.63C105.64 3.75 102.62 4.70999 96.17 4.70999H89.5601C83.1101 4.70999 80.09 3.75 76.59 2.63C72.72 1.39 68.33 0 60.03 0C51.73 0 47.34 1.4 43.47 2.63C39.97 3.75 36.95 4.70999 30.49 4.70999C24.03 4.70999 21.02 3.75 17.52 2.63C13.65 1.4 9.27007 0 0.950073 0C0.630073 0 0.31 0 0 0V10.39C0.31 10.39 0.630073 10.39 0.950073 10.39C7.41007 10.39 10.43 11.35 13.92 12.47C17.79 13.7 22.17 15.1 30.48 15.1C38.79 15.1 43.17 13.7 47.04 12.47C50.54 11.35 53.56 10.39 60.01 10.39C66.46 10.39 69.49 11.35 72.98 12.47C76.8 13.69 81.13 15.07 89.26 15.1H89.77H96.4301C103.59 15.07 107.81 14 111.32 12.91" fill="#6544AE"/>
</svg>
